# j0CC-FamiTracker text export 0.6.3.0

# Song information
TITLE           "Street Fighter II Deluxe NES WI"
AUTHOR          "Amilgi"
COPYRIGHT       "Capcom"

# Song comment
COMMENT ""

# Global settings
MACHINE         0
FRAMERATE       0
EXPANSION       0
VIBRATO         1
SPLIT           32

# Macros
MACRO       1   0   0  -1   3 : 0 0 0 64 64 64 -128 -128 -128
MACRO       1   1   0  -1   3 : 0 0 0 64 64 64 -128 -128 -128

# DPCM samples

# Detune settings

# Grooves

# Tracks using default groove
# Instruments
INST2A03   0    -1  -1  -1  -1  -1 "Blank"

# Tracks

TRACK  64   5 150 "Title"
COLUMNS : 2 2 1 1 2

ORDER 00 : 00 00 00 00 00
ORDER 01 : 01 01 01 01 00
ORDER 02 : 02 02 02 02 00
ORDER 03 : 03 03 03 03 00
ORDER 04 : 04 04 04 04 01
ORDER 05 : 05 05 05 05 01
ORDER 06 : 06 06 06 06 00

PATTERN 00
ROW 00 : A-2 00 6 V01 A01 : D-3 00 8 V00 A01 : D-3 00 . ... : 1-# 00 A A0C : ... .. . F04 Z00
ROW 01 : ... .. . S04 ... : ... .. . S04 ... : ... .. . ... : --- .. . ... : ... .. . F05 ...
ROW 02 : ... .. . ... ... : ... .. . ... ... : ... .. . ... : ... .. . ... : ... .. . ... ...
ROW 03 : ... .. . ... ... : ... .. . ... ... : ... .. . ... : ... .. . ... : ... .. . ... ...
ROW 04 : A-2 00 6 ... ... : D-3 00 8 ... ... : ... .. . ... : ... .. . ... : ... .. . ... ...
ROW 05 : ... .. . ... ... : ... .. . ... ... : ... .. . ... : ... .. . ... : ... .. . ... ...
ROW 06 : ... .. . ... ... : ... .. . ... ... : ... .. . ... : ... .. . ... : ... .. . ... ...
ROW 07 : ... .. . S04 ... : ... .. . S04 ... : ... .. . ... : ... .. . ... : ... .. . ... ...
ROW 08 : ... .. . ... ... : ... .. . ... ... : ... .. . ... : 1-# 00 A A0C : ... .. . F04 ...
ROW 09 : ... .. . ... ... : ... .. . ... ... : ... .. . ... : --- .. . ... : ... .. . F05 ...
ROW 0A : ... .. . ... ... : ... .. . ... ... : ... .. . ... : ... .. . ... : ... .. . ... ...
ROW 0B : ... .. . ... ... : ... .. . ... ... : ... .. . ... : ... .. . ... : ... .. . ... ...
ROW 0C : A-2 00 6 ... ... : D-3 00 8 ... ... : ... .. . ... : ... .. . ... : ... .. . ... ...
ROW 0D : ... .. . S04 ... : ... .. . S04 ... : ... .. . ... : ... .. . ... : ... .. . ... ...
ROW 0E : ... .. . ... ... : ... .. . ... ... : ... .. . ... : ... .. . ... : ... .. . ... ...
ROW 0F : ... .. . ... ... : ... .. . ... ... : ... .. . ... : ... .. . ... : ... .. . ... ...
ROW 10 : A-2 00 6 ... ... : D-3 00 8 ... ... : ... .. . ... : 1-# 00 A A0C : ... .. . F04 ...
ROW 11 : ... .. . S04 ... : ... .. . S04 ... : ... .. . ... : --- .. . ... : ... .. . F05 ...
ROW 12 : ... .. . ... ... : ... .. . ... ... : ... .. . ... : ... .. . ... : ... .. . ... ...
ROW 13 : ... .. . ... ... : ... .. . ... ... : ... .. . S02 : ... .. . ... : ... .. . ... ...
ROW 14 : G-2 00 6 ... ... : C-3 00 8 ... ... : ... .. . ... : ... .. . ... : ... .. . ... ...
ROW 15 : ... .. . S00 ... : ... .. . S00 ... : ... .. . ... : ... .. . ... : ... .. . ... ...
ROW 16 : G-2 00 6 ... ... : C-3 00 8 ... ... : C-3 00 . ... : ... .. . ... : ... .. . ... ...
ROW 17 : ... .. . S04 ... : ... .. . S04 ... : ... .. . S02 : ... .. . ... : ... .. . ... ...
ROW 18 : A-2 00 6 ... ... : D-3 00 8 ... ... : C-3 00 . ... : 8-# 00 8 A07 : ... .. . F04 ...
ROW 19 : ... .. . S00 ... : ... .. . S00 ... : ... .. . S02 : ... .. . A03 : ... .. . F05 ...
ROW 1A : A-2 00 6 ... ... : D-3 00 8 ... ... : D-3 00 . ... : 9-# 00 A A07 : ... .. . ... ...
ROW 1B : ... .. . ... ... : ... .. . ... ... : ... .. . S02 : ... .. . A03 : ... .. . ... ...
ROW 1C : ... .. . ... ... : ... .. . ... ... : ... .. . ... : ... .. . A02 : ... .. . ... ...
ROW 1D : ... .. . S04 ... : ... .. . S04 ... : ... .. . ... : ... .. . A01 : ... .. . ... ...
ROW 1E : ... .. . ... ... : ... .. . ... ... : D-3 00 . ... : 1-# 00 A A0C : ... .. . ... ...
ROW 1F : ... .. . ... ... : ... .. . ... D00 : ... .. . S02 : --- .. . ... : ... .. . ... ...
ROW 20 : ... .. . ... ... : ... .. . ... ... : ... .. . ... : ... .. . ... : ... .. . F04 ...
ROW 21 : ... .. . ... ... : ... .. . ... ... : ... .. . ... : ... .. . ... : ... .. . F05 ...
ROW 22 : ... .. . ... ... : ... .. . ... ... : ... .. . ... : ... .. . ... : ... .. . ... ...
ROW 23 : ... .. . ... ... : ... .. . ... ... : ... .. . ... : ... .. . ... : ... .. . ... ...
ROW 24 : ... .. . ... ... : ... .. . ... ... : ... .. . ... : ... .. . ... : ... .. . ... ...
ROW 25 : ... .. . ... ... : ... .. . ... ... : ... .. . ... : ... .. . ... : ... .. . ... ...
ROW 26 : ... .. . ... ... : ... .. . ... ... : ... .. . ... : ... .. . ... : ... .. . ... ...
ROW 27 : ... .. . ... ... : ... .. . ... ... : ... .. . ... : ... .. . ... : ... .. . ... ...
ROW 28 : ... .. . ... ... : ... .. . ... ... : ... .. . ... : ... .. . ... : ... .. . F04 ...
ROW 29 : ... .. . ... ... : ... .. . ... ... : ... .. . ... : ... .. . ... : ... .. . F05 ...
ROW 2A : ... .. . ... ... : ... .. . ... ... : ... .. . ... : ... .. . ... : ... .. . ... ...
ROW 2B : ... .. . ... ... : ... .. . ... ... : ... .. . ... : ... .. . ... : ... .. . ... ...
ROW 2C : ... .. . ... ... : ... .. . ... ... : ... .. . ... : ... .. . ... : ... .. . ... ...
ROW 2D : ... .. . ... ... : ... .. . ... ... : ... .. . ... : ... .. . ... : ... .. . ... ...
ROW 2E : ... .. . ... ... : ... .. . ... ... : ... .. . ... : ... .. . ... : ... .. . ... ...
ROW 2F : ... .. . ... ... : ... .. . ... ... : ... .. . ... : ... .. . ... : ... .. . ... ...
ROW 30 : ... .. . ... ... : ... .. . ... ... : ... .. . ... : ... .. . ... : ... .. . F04 ...
ROW 31 : ... .. . ... ... : ... .. . ... ... : ... .. . ... : ... .. . ... : ... .. . F05 ...
ROW 32 : ... .. . ... ... : ... .. . ... ... : ... .. . ... : ... .. . ... : ... .. . ... ...
ROW 33 : ... .. . ... ... : ... .. . ... ... : ... .. . ... : ... .. . ... : ... .. . ... ...
ROW 34 : ... .. . ... ... : ... .. . ... ... : ... .. . ... : ... .. . ... : ... .. . ... ...
ROW 35 : ... .. . ... ... : ... .. . ... ... : ... .. . ... : ... .. . ... : ... .. . ... ...
ROW 36 : ... .. . ... ... : ... .. . ... ... : ... .. . ... : ... .. . ... : ... .. . ... ...
ROW 37 : ... .. . ... ... : ... .. . ... ... : ... .. . ... : ... .. . ... : ... .. . ... ...
ROW 38 : ... .. . ... ... : ... .. . ... ... : ... .. . ... : ... .. . ... : ... .. . F04 ...
ROW 39 : ... .. . ... ... : ... .. . ... ... : ... .. . ... : ... .. . ... : ... .. . F05 ...
ROW 3A : ... .. . ... ... : ... .. . ... ... : ... .. . ... : ... .. . ... : ... .. . ... ...
ROW 3B : ... .. . ... ... : ... .. . ... ... : ... .. . ... : ... .. . ... : ... .. . ... ...
ROW 3C : ... .. . ... ... : ... .. . ... ... : ... .. . ... : ... .. . ... : ... .. . ... ...
ROW 3D : ... .. . ... ... : ... .. . ... ... : ... .. . ... : ... .. . ... : ... .. . ... ...
ROW 3E : ... .. . ... ... : ... .. . ... ... : ... .. . ... : ... .. . ... : ... .. . ... ...
ROW 3F : ... .. . ... ... : ... .. . ... ... : ... .. . ... : ... .. . ... : ... .. . ... ...

PATTERN 01
ROW 00 : A-2 00 6 V01 A01 : D-3 00 8 V00 A01 : D-3 00 . ... : 6-# 00 8 A06 : ... .. . F04 Z00
ROW 01 : ... .. . S04 ... : ... .. . S04 ... : ... .. . S02 : ... .. . A02 : ... .. . F05 ...
ROW 02 : ... .. . ... ... : ... .. . ... ... : D-3 00 . ... : ... .. . ... : ... .. . ... ...
ROW 03 : ... .. . ... ... : ... .. . ... ... : ... .. . S02 : ... .. . ... : ... .. . ... ...
ROW 04 : A-2 00 6 ... ... : D-3 00 8 ... ... : D-3 00 . ... : 1-# 00 A A0C : ... .. . ... ...
ROW 05 : ... .. . ... ... : ... .. . ... ... : ... .. . S02 : --- .. . ... : ... .. . ... ...
ROW 06 : ... .. . ... ... : ... .. . ... ... : D-3 00 . ... : 1-# 00 A A0C : ... .. . ... ...
ROW 07 : ... .. . S04 ... : ... .. . S04 ... : ... .. . S02 : --- .. . ... : ... .. . ... ...
ROW 08 : ... .. . ... ... : ... .. . ... ... : D-3 00 . ... : 6-# 00 8 A06 : ... .. . F04 ...
ROW 09 : ... .. . ... ... : ... .. . ... ... : ... .. . S02 : ... .. . A02 : ... .. . F05 ...
ROW 0A : ... .. . ... ... : ... .. . ... ... : D-3 00 . ... : ... .. . ... : ... .. . ... ...
ROW 0B : ... .. . ... ... : ... .. . ... ... : ... .. . S02 : ... .. . ... : ... .. . ... ...
ROW 0C : A-2 00 6 ... ... : D-3 00 8 ... ... : D-3 00 . ... : 1-# 00 A A0C : ... .. . ... ...
ROW 0D : ... .. . S04 ... : ... .. . S04 ... : ... .. . S02 : --- .. . ... : ... .. . ... ...
ROW 0E : ... .. . ... ... : ... .. . ... ... : D-3 00 . ... : ... .. . ... : ... .. . ... ...
ROW 0F : ... .. . ... ... : ... .. . ... ... : ... .. . S02 : ... .. . ... : ... .. . ... ...
ROW 10 : A-2 00 6 ... ... : D-3 00 8 ... ... : D-3 00 . ... : 6-# 00 8 A06 : ... .. . F04 ...
ROW 11 : ... .. . S04 ... : ... .. . S04 ... : ... .. . S02 : ... .. . A02 : ... .. . F05 ...
ROW 12 : ... .. . ... ... : ... .. . ... ... : D-3 00 . ... : ... .. . ... : ... .. . ... ...
ROW 13 : ... .. . ... ... : ... .. . ... ... : ... .. . S02 : ... .. . ... : ... .. . ... ...
ROW 14 : G-2 00 6 ... ... : C-3 00 8 ... ... : C-3 00 . ... : 1-# 00 A A0C : ... .. . ... ...
ROW 15 : ... .. . S00 ... : ... .. . S00 ... : ... .. . S02 : --- .. . ... : ... .. . ... ...
ROW 16 : G-2 00 6 ... ... : C-3 00 8 ... ... : C-3 00 . ... : 1-# 00 A A0C : ... .. . ... ...
ROW 17 : ... .. . S04 ... : ... .. . S04 ... : ... .. . S02 : --- .. . ... : ... .. . ... ...
ROW 18 : A-2 00 6 ... ... : D-3 00 8 ... ... : D-3 00 . ... : 6-# 00 8 A06 : ... .. . F04 ...
ROW 19 : ... .. . S00 ... : ... .. . S00 ... : ... .. . S02 : ... .. . A02 : ... .. . F05 ...
ROW 1A : A-2 00 6 ... ... : D-3 00 8 ... ... : D-3 00 . ... : 1-# 00 A A0C : ... .. . ... ...
ROW 1B : ... .. . ... ... : ... .. . ... ... : ... .. . S02 : --- .. . ... : ... .. . ... ...
ROW 1C : ... .. . ... ... : ... .. . ... ... : ... .. . ... : ... .. . ... : ... .. . ... ...
ROW 1D : ... .. . S04 ... : ... .. . S04 ... : ... .. . ... : ... .. . ... : ... .. . ... ...
ROW 1E : ... .. . ... ... : ... .. . ... ... : D-3 00 . ... : 1-# 00 A A0C : ... .. . ... ...
ROW 1F : ... .. . ... ... : ... .. . ... ... : ... .. . S02 : --- .. . ... : ... .. . ... ...
ROW 20 : A-2 00 6 V01 ... : D-3 00 8 V00 ... : D-3 00 . ... : 6-# 00 8 A06 : ... .. . F04 Z04
ROW 21 : ... .. . S04 ... : ... .. . S04 ... : ... .. . S02 : ... .. . A02 : ... .. . F05 ...
ROW 22 : ... .. . ... ... : ... .. . ... ... : D-3 00 . ... : ... .. . ... : ... .. . ... ...
ROW 23 : ... .. . ... ... : ... .. . ... ... : ... .. . S02 : ... .. . ... : ... .. . ... ...
ROW 24 : A-2 00 6 ... ... : D-3 00 8 ... ... : D-3 00 . ... : 1-# 00 A A0C : ... .. . ... Z08
ROW 25 : ... .. . ... ... : ... .. . ... ... : ... .. . S02 : --- .. . ... : ... .. . ... ...
ROW 26 : ... .. . ... ... : ... .. . ... ... : D-3 00 . ... : 1-# 00 A A0C : ... .. . ... ...
ROW 27 : ... .. . S04 ... : ... .. . S04 ... : ... .. . S02 : --- .. . ... : ... .. . ... ...
ROW 28 : ... .. . ... ... : ... .. . ... ... : D-3 00 . ... : 6-# 00 8 A06 : ... .. . F04 Z0C
ROW 29 : ... .. . ... ... : ... .. . ... ... : ... .. . S02 : ... .. . A02 : ... .. . F05 ...
ROW 2A : ... .. . ... ... : ... .. . ... ... : D-3 00 . ... : ... .. . ... : ... .. . ... ...
ROW 2B : ... .. . ... ... : ... .. . ... ... : ... .. . S02 : ... .. . ... : ... .. . ... ...
ROW 2C : A-2 00 6 ... ... : D-3 00 8 ... ... : D-3 00 . ... : 1-# 00 A A0C : ... .. . ... Z10
ROW 2D : ... .. . S04 ... : ... .. . S04 ... : ... .. . S02 : --- .. . ... : ... .. . ... ...
ROW 2E : ... .. . ... ... : ... .. . ... ... : D-3 00 . ... : ... .. . ... : ... .. . ... ...
ROW 2F : ... .. . ... ... : ... .. . ... ... : ... .. . S02 : ... .. . ... : ... .. . ... ...
ROW 30 : A-2 00 6 ... ... : D-3 00 8 ... ... : D-3 00 . ... : 6-# 00 8 A06 : ... .. . F04 ...
ROW 31 : ... .. . S04 ... : ... .. . S04 ... : ... .. . S02 : ... .. . A02 : ... .. . F05 ...
ROW 32 : ... .. . ... ... : ... .. . ... ... : D-3 00 . ... : ... .. . ... : ... .. . ... ...
ROW 33 : ... .. . ... ... : ... .. . ... ... : ... .. . S02 : ... .. . ... : ... .. . ... ...
ROW 34 : G-2 00 6 ... ... : C-3 00 8 ... ... : C-3 00 . ... : 1-# 00 A A0C : ... .. . ... ...
ROW 35 : ... .. . S00 ... : ... .. . S00 ... : ... .. . S02 : --- .. . ... : ... .. . ... ...
ROW 36 : G-2 00 6 ... ... : C-3 00 8 ... ... : C-3 00 . ... : 1-# 00 A A0C : ... .. . ... Z00
ROW 37 : ... .. . S04 ... : ... .. . S04 ... : ... .. . S02 : --- .. . ... : ... .. . ... ...
ROW 38 : A-2 00 6 ... ... : D-3 00 8 ... ... : D-3 00 . ... : 6-# 00 8 A06 : ... .. . F04 ...
ROW 39 : ... .. . S00 ... : ... .. . S00 ... : ... .. . S02 : ... .. . A02 : ... .. . F05 ...
ROW 3A : A-2 00 6 ... ... : D-3 00 8 ... ... : D-3 00 . ... : 1-# 00 A A0C : ... .. . ... ...
ROW 3B : ... .. . S04 ... : ... .. . S04 ... : ... .. . ... : --- .. . ... : ... .. . ... ...
ROW 3C : ... .. . ... ... : ... .. . ... ... : ... .. . ... : ... .. . ... : ... .. . ... ...
ROW 3D : ... .. . ... ... : ... .. . ... ... : ... .. . S02 : ... .. . ... : ... .. . ... ...
ROW 3E : ... .. . ... ... : ... .. . ... ... : ... .. . ... : 1-# 00 A A0C : ... .. . ... ...
ROW 3F : ... .. . ... ... : ... .. . ... ... : ... .. . ... : --- .. . ... : ... .. . ... ...

PATTERN 02
ROW 00 : F-2 00 8 ... A01 : A#2 00 8 V00 A01 : A#2 00 . ... : 8-# 00 A A07 : ... .. . ... ...
ROW 01 : ... .. . S04 ... : ... .. . S04 ... : ... .. . S02 : ... .. . A03 : ... .. . ... ...
ROW 02 : ... .. . ... ... : ... .. . ... ... : ... .. . ... : ... .. . A02 : ... .. . ... ...
ROW 03 : ... .. . ... ... : ... .. . ... ... : ... .. . ... : ... .. . A01 : ... .. . ... ...
ROW 04 : G-2 00 8 ... ... : C-3 00 8 ... ... : C-3 00 . ... : 9-# 00 A A07 : ... .. . ... ...
ROW 05 : ... .. . S04 ... : ... .. . S04 ... : ... .. . S02 : ... .. . A03 : ... .. . ... ...
ROW 06 : ... .. . ... ... : ... .. . ... ... : ... .. . ... : ... .. . A02 : ... .. . ... ...
ROW 07 : ... .. . ... ... : ... .. . ... ... : ... .. . ... : ... .. . A01 : ... .. . ... ...
ROW 08 : ... .. . ... ... : ... .. . ... ... : ... .. . ... : ... .. . ... : ... .. . ... ...
ROW 09 : ... .. . ... ... : ... .. . ... ... : ... .. . ... : ... .. . ... : ... .. . ... ...
ROW 0A : E-2 00 8 ... ... : A-2 00 8 ... ... : A-2 00 . ... : 8-# 00 A A07 : ... .. . ... ...
ROW 0B : ... .. . ... ... : ... .. . ... ... : ... .. . S02 : ... .. . A03 : ... .. . ... ...
ROW 0C : ... .. . ... ... : ... .. . ... ... : ... .. . ... : ... .. . A02 : ... .. . ... ...
ROW 0D : ... .. . ... ... : ... .. . ... ... : ... .. . ... : ... .. . A01 : ... .. . ... ...
ROW 0E : ... .. . A00 ... : ... .. . A00 ... : A-2 00 . ... : 6-# 00 8 A06 : ... .. . ... ...
ROW 0F : ... .. . ... ... : ... .. . ... ... : ... .. . S02 : ... .. . A02 : ... .. . ... ...
ROW 10 : ... .. . ... ... : ... .. . ... ... : A-2 00 . ... : 6-# 00 8 A06 : ... .. . ... ...
ROW 11 : ... .. . ... ... : ... .. . ... ... : ... .. . S02 : ... .. . A02 : ... .. . ... ...
ROW 12 : ... .. . ... ... : ... .. . ... ... : A-2 00 . ... : 1-# 00 A A0C : ... .. . ... ...
ROW 13 : ... .. . ... ... : ... .. . ... ... : ... .. . S02 : --- .. . ... : ... .. . ... ...
ROW 14 : ... .. . ... ... : ... .. . ... ... : G-2 00 . ... : 1-# 00 A A0C : ... .. . ... ...
ROW 15 : ... .. . ... ... : ... .. . ... ... : ... .. . S02 : --- .. . ... : ... .. . ... ...
ROW 16 : ... .. . A01 ... : ... .. . A01 ... : G-2 00 . ... : 1-# 00 A A0C : ... .. . ... ...
ROW 17 : ... .. . ... ... : ... .. . ... ... : ... .. . S02 : --- .. . ... : ... .. . ... ...
ROW 18 : ... .. . ... ... : ... .. . ... ... : A-2 00 . ... : 6-# 00 8 A06 : ... .. . ... ...
ROW 19 : ... .. . ... S02 : ... .. . ... S02 : ... .. . S02 : ... .. . A02 : ... .. . ... ...
ROW 1A : ... .. . ... ... : ... .. . ... ... : D-3 00 . ... : 6-# 00 8 A06 : ... .. . ... ...
ROW 1B : ... .. . ... ... : ... .. . ... ... : ... .. . ... : ... .. . A02 : ... .. . ... ...
ROW 1C : ... .. . ... ... : ... .. . ... ... : ... .. . ... : 9-# 00 A A07 : ... .. . ... ...
ROW 1D : ... .. . ... ... : ... .. . ... ... : ... .. . S02 : ... .. . A03 : ... .. . ... ...
ROW 1E : ... .. . ... ... : ... .. . ... ... : D-3 00 . ... : ... .. . A02 : ... .. . ... ...
ROW 1F : ... .. . ... D00 : ... .. . ... ... : ... .. . S02 : ... .. . A01 : ... .. . ... ...
ROW 20 : ... .. . ... ... : ... .. . ... ... : ... .. . ... : ... .. . ... : ... .. . ... ...
ROW 21 : ... .. . ... ... : ... .. . ... ... : ... .. . ... : ... .. . ... : ... .. . ... ...
ROW 22 : ... .. . ... ... : ... .. . ... ... : ... .. . ... : ... .. . ... : ... .. . ... ...
ROW 23 : ... .. . ... ... : ... .. . ... ... : ... .. . ... : ... .. . ... : ... .. . ... ...
ROW 24 : ... .. . ... ... : ... .. . ... ... : ... .. . ... : ... .. . ... : ... .. . ... ...
ROW 25 : ... .. . ... ... : ... .. . ... ... : ... .. . ... : ... .. . ... : ... .. . ... ...
ROW 26 : ... .. . ... ... : ... .. . ... ... : ... .. . ... : ... .. . ... : ... .. . ... ...
ROW 27 : ... .. . ... ... : ... .. . ... ... : ... .. . ... : ... .. . ... : ... .. . ... ...
ROW 28 : ... .. . ... ... : ... .. . ... ... : ... .. . ... : ... .. . ... : ... .. . ... ...
ROW 29 : ... .. . ... ... : ... .. . ... ... : ... .. . ... : ... .. . ... : ... .. . ... ...
ROW 2A : ... .. . ... ... : ... .. . ... ... : ... .. . ... : ... .. . ... : ... .. . ... ...
ROW 2B : ... .. . ... ... : ... .. . ... ... : ... .. . ... : ... .. . ... : ... .. . ... ...
ROW 2C : ... .. . ... ... : ... .. . ... ... : ... .. . ... : ... .. . ... : ... .. . ... ...
ROW 2D : ... .. . ... ... : ... .. . ... ... : ... .. . ... : ... .. . ... : ... .. . ... ...
ROW 2E : ... .. . ... ... : ... .. . ... ... : ... .. . ... : ... .. . ... : ... .. . ... ...
ROW 2F : ... .. . ... ... : ... .. . ... ... : ... .. . ... : ... .. . ... : ... .. . ... ...
ROW 30 : ... .. . ... ... : ... .. . ... ... : ... .. . ... : ... .. . ... : ... .. . ... ...
ROW 31 : ... .. . ... ... : ... .. . ... ... : ... .. . ... : ... .. . ... : ... .. . ... ...
ROW 32 : ... .. . ... ... : ... .. . ... ... : ... .. . ... : ... .. . ... : ... .. . ... ...
ROW 33 : ... .. . ... ... : ... .. . ... ... : ... .. . ... : ... .. . ... : ... .. . ... ...
ROW 34 : ... .. . ... ... : ... .. . ... ... : ... .. . ... : ... .. . ... : ... .. . ... ...
ROW 35 : ... .. . ... ... : ... .. . ... ... : ... .. . ... : ... .. . ... : ... .. . ... ...
ROW 36 : ... .. . ... ... : ... .. . ... ... : ... .. . ... : ... .. . ... : ... .. . ... ...
ROW 37 : ... .. . ... ... : ... .. . ... ... : ... .. . ... : ... .. . ... : ... .. . ... ...
ROW 38 : ... .. . ... ... : ... .. . ... ... : ... .. . ... : ... .. . ... : ... .. . ... ...
ROW 39 : ... .. . ... ... : ... .. . ... ... : ... .. . ... : ... .. . ... : ... .. . ... ...
ROW 3A : ... .. . ... ... : ... .. . ... ... : ... .. . ... : ... .. . ... : ... .. . ... ...
ROW 3B : ... .. . ... ... : ... .. . ... ... : ... .. . ... : ... .. . ... : ... .. . ... ...
ROW 3C : ... .. . ... ... : ... .. . ... ... : ... .. . ... : ... .. . ... : ... .. . ... ...
ROW 3D : ... .. . ... ... : ... .. . ... ... : ... .. . ... : ... .. . ... : ... .. . ... ...
ROW 3E : ... .. . ... ... : ... .. . ... ... : ... .. . ... : ... .. . ... : ... .. . ... ...
ROW 3F : ... .. . ... ... : ... .. . ... ... : ... .. . ... : ... .. . ... : ... .. . ... ...

PATTERN 03
ROW 00 : G-3 00 9 V02 A01 : D-3 00 8 V00 A01 : D-3 00 . ... : 6-# 00 8 A06 : ... .. . ... ...
ROW 01 : ... .. . ... ... : ... .. . S04 ... : ... .. . S02 : ... .. . A02 : ... .. . ... ...
ROW 02 : F#3 00 9 ... ... : ... .. . ... ... : D-3 00 . ... : ... .. . ... : ... .. . ... ...
ROW 03 : ... .. . ... ... : G-3 00 3 V02 ... : ... .. . S02 : ... .. . ... : ... .. . ... ...
ROW 04 : --- .. . ... ... : D-3 00 8 V00 ... : D-3 00 . ... : 1-# 00 A A0C : ... .. . ... ...
ROW 05 : F#3 00 3 ... ... : ... .. . ... ... : ... .. . S02 : --- .. . ... : ... .. . ... ...
ROW 06 : G-3 00 9 ... ... : ... .. . ... ... : D-3 00 . ... : 1-# 00 A A0C : ... .. . ... ...
ROW 07 : ... .. . ... ... : ... .. . S04 ... : ... .. . S02 : --- .. . ... : ... .. . ... ...
ROW 08 : --- .. . ... ... : ... .. . ... ... : D-3 00 . ... : 6-# 00 8 A06 : ... .. . ... ...
ROW 09 : ... .. . ... ... : G-3 00 3 V02 ... : ... .. . S02 : ... .. . A02 : ... .. . ... ...
ROW 0A : A-3 00 9 ... ... : ... .. . ... ... : C-3 00 . ... : ... .. . ... : ... .. . ... ...
ROW 0B : ... .. . ... ... : ... .. . ... ... : ... .. . ... : ... .. . ... : ... .. . ... ...
ROW 0C : ... .. . ... 472 : D-3 00 8 V00 ... : ... .. . S00 : 1-# 00 A A0C : ... .. . ... ...
ROW 0D : ... .. . ... ... : ... .. . S04 ... : ... .. . ... : --- .. . ... : ... .. . ... ...
ROW 0E : ... .. . ... ... : A-3 00 3 V02 ... : C-3 00 . ... : ... .. . ... : ... .. . ... ...
ROW 0F : ... .. . ... ... : ... .. . ... 472 : ... .. . S02 : ... .. . ... : ... .. . ... ...
ROW 10 : ... .. . ... ... : D-3 00 8 V00 400 : C-3 00 . ... : 6-# 00 8 A06 : ... .. . ... ...
ROW 11 : ... .. . ... ... : ... .. . S04 ... : ... .. . S02 : ... .. . A02 : ... .. . ... ...
ROW 12 : G-3 00 9 ... 400 : A-3 00 2 V02 472 : C-3 00 . ... : ... .. . ... : ... .. . ... ...
ROW 13 : F#3 00 9 ... ... : ... .. . ... ... : ... .. . S02 : ... .. . ... : ... .. . ... ...
ROW 14 : E-3 00 9 ... ... : C-3 00 8 V00 400 : C-3 00 . ... : 1-# 00 A A0C : ... .. . ... ...
ROW 15 : ... .. . ... ... : G-3 00 3 V02 472 : ... .. . S02 : --- .. . ... : ... .. . ... ...
ROW 16 : ... .. . ... 472 : C-3 00 8 V00 400 : C-3 00 . ... : 1-# 00 A A0C : ... .. . ... ...
ROW 17 : ... .. . ... ... : ... .. . S04 ... : ... .. . S02 : --- .. . ... : ... .. . ... ...
ROW 18 : ... .. . ... ... : D-3 00 8 ... ... : C-3 00 . ... : 6-# 00 8 A06 : ... .. . ... ...
ROW 19 : ... .. . ... ... : E-3 00 2 V02 472 : ... .. . S02 : ... .. . A02 : ... .. . ... ...
ROW 1A : ... .. . ... ... : D-3 00 8 V00 400 : D-3 00 . ... : 1-# 00 A A0C : ... .. . ... ...
ROW 1B : ... .. . ... ... : ... .. . ... ... : ... .. . ... : --- .. . ... : ... .. . ... ...
ROW 1C : ... .. . ... ... : ... .. . ... ... : ... .. . S00 : ... .. . ... : ... .. . ... ...
ROW 1D : ... .. . ... ... : ... .. . S04 ... : ... .. . ... : ... .. . ... : ... .. . ... ...
ROW 1E : F#3 00 9 ... 400 : ... .. 1 V02 472 : D-3 00 . ... : 1-# 00 A A0C : ... .. . ... ...
ROW 1F : ... .. . ... ... : ... .. . ... ... : ... .. . S02 : --- .. . ... : ... .. . ... ...
ROW 20 : G-3 00 9 ... ... : D-3 00 8 V00 400 : D-3 00 . ... : 6-# 00 8 A06 : ... .. . ... ...
ROW 21 : ... .. . ... ... : ... .. . S04 ... : ... .. . S02 : ... .. . A02 : ... .. . ... ...
ROW 22 : A-3 00 9 ... ... : F#3 00 2 V02 ... : D-3 00 . ... : ... .. . ... : ... .. . ... ...
ROW 23 : ... .. . ... ... : G-3 00 3 ... ... : ... .. . S02 : ... .. . ... : ... .. . ... ...
ROW 24 : --- .. . ... ... : D-3 00 8 V00 ... : D-3 00 . ... : 1-# 00 A A0C : ... .. . ... ...
ROW 25 : A-3 00 3 ... ... : ... .. . ... ... : ... .. . S02 : --- .. . ... : ... .. . ... ...
ROW 26 : D-4 00 9 ... ... : ... .. . ... ... : D-3 00 . ... : 1-# 00 A A0C : ... .. . ... ...
ROW 27 : ... .. . ... ... : ... .. . S04 ... : ... .. . S02 : --- .. . ... : ... .. . ... ...
ROW 28 : --- .. . ... ... : ... .. . ... ... : D-3 00 . ... : 6-# 00 8 A06 : ... .. . ... ...
ROW 29 : ... .. . ... ... : D-4 00 3 V02 ... : ... .. . S02 : ... .. . A02 : ... .. . ... ...
ROW 2A : G-4 00 9 ... ... : ... .. . ... ... : C-3 00 . ... : ... .. . ... : ... .. . ... ...
ROW 2B : ... .. . ... ... : ... .. . ... ... : ... .. . S02 : ... .. . ... : ... .. . ... ...
ROW 2C : ... .. . ... 471 : D-3 00 8 V00 ... : ... .. . ... : 1-# 00 A A0C : ... .. . ... ...
ROW 2D : ... .. . ... ... : ... .. . S04 ... : ... .. . ... : --- .. . ... : ... .. . ... ...
ROW 2E : ... .. . ... ... : G-4 00 3 V02 ... : C-3 00 . ... : ... .. . ... : ... .. . ... ...
ROW 2F : ... .. . ... ... : ... .. . ... 471 : ... .. . S02 : ... .. . ... : ... .. . ... ...
ROW 30 : ... .. . ... ... : D-3 00 8 V00 400 : C-3 00 . ... : 6-# 00 8 A06 : ... .. . ... ...
ROW 31 : ... .. . ... ... : ... .. . S04 ... : ... .. . S02 : ... .. . A02 : ... .. . ... ...
ROW 32 : F#4 00 9 ... 400 : G-4 00 3 V02 471 : C-3 00 . ... : 1-# 00 A A0C : ... .. . ... ...
ROW 33 : E-4 00 9 ... ... : ... .. . ... ... : ... .. . S02 : --- .. . ... : ... .. . ... ...
ROW 34 : D-4 00 9 ... ... : C-3 00 8 V00 400 : C-3 00 . ... : ... .. . ... : ... .. . ... ...
ROW 35 : ... .. . ... ... : ... .. . S00 ... : ... .. . S02 : ... .. . ... : ... .. . ... ...
ROW 36 : ... .. . ... ... : C-3 00 8 ... ... : C-3 00 . ... : 1-# 00 A A0C : ... .. . ... ...
ROW 37 : ... .. . ... ... : ... .. . S04 ... : ... .. . S02 : --- .. . ... : ... .. . ... ...
ROW 38 : E-4 00 9 ... ... : D-3 00 8 ... ... : C-3 00 . ... : 6-# 00 8 A06 : ... .. . ... ...
ROW 39 : ... .. . ... ... : D-4 00 2 V02 ... : ... .. . S02 : ... .. . A02 : ... .. . ... ...
ROW 3A : F-4 00 9 ... ... : D-3 00 8 V00 ... : A#2 00 . ... : 9-# 00 A A07 : ... .. . ... ...
ROW 3B : ... .. . ... ... : ... .. . S04 ... : ... .. . S02 : ... .. . A03 : ... .. . ... ...
ROW 3C : ... .. . ... 471 : ... .. . ... ... : ... .. . ... : ... .. . A02 : ... .. . ... ...
ROW 3D : ... .. . ... ... : F-4 00 3 V02 ... : ... .. . ... : ... .. . A01 : ... .. . ... ...
ROW 3E : ... .. . ... ... : ... .. . ... ... : A#2 00 . ... : 1-# 00 A A0C : ... .. . ... ...
ROW 3F : ... .. . ... ... : ... .. . ... 471 : ... .. . S02 : --- .. . ... : ... .. . ... ...

PATTERN 04
ROW 00 : ... .. . ... ... : D-3 00 8 V00 400 : A#2 00 . ... : 6-# 00 8 A06 : ... .. . ... ...
ROW 01 : ... .. . ... ... : ... .. . S04 ... : ... .. . S02 : ... .. . A02 : ... .. . ... ...
ROW 02 : E-4 00 9 ... 400 : F-4 00 2 V02 471 : A#2 00 . ... : ... .. . ... : ... .. . ... ...
ROW 03 : D-4 00 9 ... ... : ... .. . ... ... : ... .. . S02 : ... .. . ... : ... .. . ... ...
ROW 04 : A#3 00 9 ... ... : D-3 00 8 V00 400 : A#2 00 . ... : 1-# 00 A A0C : ... .. . ... ...
ROW 05 : ... .. . ... ... : ... .. . ... ... : ... .. . S02 : --- .. . ... : ... .. . ... ...
ROW 06 : ... .. . ... ... : ... .. . ... ... : A#2 00 . ... : 1-# 00 A A0C : ... .. . ... ...
ROW 07 : ... .. 4 G04 ... : ... .. . S04 ... : ... .. . S02 : --- .. . ... : ... .. . ... ...
ROW 08 : A#3 00 9 ... ... : A#3 00 2 V02 ... : A#2 00 . ... : 6-# 00 8 A06 : ... .. . ... ...
ROW 09 : ... .. . ... ... : ... .. . ... ... : ... .. . S02 : ... .. . A02 : ... .. . ... ...
ROW 0A : G-4 00 9 ... ... : E-3 00 8 V00 ... : C-3 00 . ... : ... .. . ... : ... .. . ... ...
ROW 0B : ... .. . ... ... : ... .. . S04 ... : ... .. . ... : ... .. . ... : ... .. . ... ...
ROW 0C : ... .. . ... 471 : A#3 00 2 V02 ... : ... .. . S00 : 1-# 00 A A0C : ... .. . ... ...
ROW 0D : ... .. . ... ... : G-4 00 3 ... ... : ... .. . ... : --- .. . ... : ... .. . ... ...
ROW 0E : ... .. . ... ... : ... .. . ... ... : C-3 00 . ... : ... .. . ... : ... .. . ... ...
ROW 0F : ... .. . ... ... : ... .. . ... 471 : ... .. . S02 : ... .. . ... : ... .. . ... ...
ROW 10 : ... .. . ... ... : E-3 00 8 V00 400 : C-3 00 . ... : 6-# 00 8 A06 : ... .. . ... ...
ROW 11 : ... .. . ... ... : ... .. . S04 ... : ... .. . S02 : ... .. . A02 : ... .. . ... ...
ROW 12 : F-4 00 9 ... ... : G-4 00 2 V02 471 : C-3 00 . ... : ... .. . ... : ... .. . ... ...
ROW 13 : E-4 00 9 ... ... : ... .. . ... ... : ... .. . S02 : ... .. . ... : ... .. . ... ...
ROW 14 : C-4 00 9 ... ... : D-3 00 8 V00 400 : C-3 00 . ... : 1-# 00 A A0C : ... .. . ... ...
ROW 15 : ... .. 5 G04 ... : F-4 00 3 V02 ... : ... .. . S02 : --- .. . ... : ... .. . ... ...
ROW 16 : C-4 00 9 ... ... : D-3 00 8 V00 ... : C-3 00 . ... : 1-# 00 A A0C : ... .. . ... ...
ROW 17 : ... .. . ... ... : ... .. . S03 ... : ... .. . S02 : --- .. . ... : ... .. . ... ...
ROW 18 : --- .. . ... ... : ... .. . ... ... : ... .. . ... : 6-# 00 8 A06 : ... .. . ... ...
ROW 19 : C-4 00 3 ... ... : ... .. . ... ... : ... .. . ... : ... .. . A02 : ... .. . ... ...
ROW 1A : D-4 00 9 ... 400 : D-3 00 8 ... ... : D-3 00 . ... : 9-# 00 A A07 : ... .. . ... ...
ROW 1B : ... .. . ... ... : ... .. . ... ... : ... .. . ... : ... .. . A03 : ... .. . ... ...
ROW 1C : ... .. . 471 ... : ... .. . ... ... : ... .. . ... : ... .. . A02 : ... .. . ... ...
ROW 1D : ... .. . ... ... : ... .. . ... ... : ... .. . ... : ... .. . A01 : ... .. . ... ...
ROW 1E : ... .. 6 ... A00 : ... .. 5 ... A00 : ... .. . ... : ... .. . ... : ... .. . ... ...
ROW 1F : ... .. . ... ... : ... .. . ... ... : ... .. . ... : ... .. . ... : ... .. . ... ...
ROW 20 : ... .. 5 ... ... : ... .. 4 ... ... : ... .. . ... : 1-# 00 A A0C : ... .. . ... ...
ROW 21 : ... .. . ... ... : ... .. . ... ... : ... .. . ... : --- .. . ... : ... .. . ... ...
ROW 22 : ... .. . ... ... : ... .. . ... ... : ... .. . ... : ... .. . ... : ... .. . ... ...
ROW 23 : ... .. . ... ... : ... .. . ... ... : ... .. . ... : ... .. . ... : ... .. . ... ...
ROW 24 : ... .. 4 ... ... : ... .. 3 ... ... : ... .. . ... : ... .. . ... : ... .. . ... ...
ROW 25 : ... .. . ... ... : ... .. . ... ... : ... .. . ... : ... .. . ... : ... .. . ... ...
ROW 26 : ... .. . ... ... : ... .. . ... ... : ... .. . ... : ... .. . ... : ... .. . ... ...
ROW 27 : ... .. . ... ... : ... .. . ... ... : ... .. . ... : ... .. . ... : ... .. . ... ...
ROW 28 : ... .. 3 ... ... : ... .. 2 ... ... : ... .. . ... : 1-# 00 A A0C : ... .. . ... ...
ROW 29 : ... .. . ... ... : ... .. . ... ... : ... .. . ... : --- .. . ... : ... .. . ... ...
ROW 2A : ... .. . ... ... : ... .. . ... ... : ... .. . ... : ... .. . ... : ... .. . ... ...
ROW 2B : ... .. . ... ... : ... .. . ... ... : ... .. . ... : ... .. . ... : ... .. . ... ...
ROW 2C : ... .. . ... ... : ... .. . ... ... : ... .. . ... : ... .. . ... : ... .. . ... ...
ROW 2D : ... .. . ... ... : ... .. . ... ... : ... .. . ... : ... .. . ... : ... .. . ... ...
ROW 2E : ... .. 2 ... ... : G-4 00 8 V02 A03 : ... .. . ... : 1-# 00 A A0C : ... .. . ... ...
ROW 2F : ... .. . ... ... : ... .. . ... ... : ... .. . ... : --- .. . ... : ... .. . ... ...
ROW 30 : ... .. . ... ... : F#4 00 8 ... ... : ... .. . ... : 6-# 00 8 A06 : ... .. . ... ...
ROW 31 : ... .. . ... ... : ... .. . ... ... : ... .. . ... : ... .. . A02 : ... .. . ... ...
ROW 32 : ... .. . ... ... : D-4 00 8 ... P7F : ... .. . ... : ... .. . ... : ... .. . ... ...
ROW 33 : ... .. . ... ... : ... .. . ... ... : ... .. . ... : ... .. . ... : ... .. . ... ...
ROW 34 : ... .. . ... ... : G-4 00 8 ... P80 : ... .. . ... : 1-# 00 A A0C : ... .. . ... ...
ROW 35 : ... .. . ... ... : ... .. . ... ... : ... .. . S02 : --- .. . ... : ... .. . ... ...
ROW 36 : ... .. . ... ... : F#4 00 8 ... ... : C-3 00 . ... : 1-# 00 A A0C : ... .. . ... ...
ROW 37 : ... .. . ... ... : ... .. . ... ... : ... .. . S02 : --- .. . ... : ... .. . ... ...
ROW 38 : E-4 00 9 400 A01 : D-4 00 8 ... ... : D-3 00 . ... : 6-# 00 8 A06 : ... .. . ... ...
ROW 39 : ... .. . ... ... : ... .. . ... ... : ... .. . S02 : ... .. . A02 : ... .. . ... ...
ROW 3A : F-4 00 9 ... ... : A-3 00 8 ... ... : A#2 00 . ... : 9-# 00 A A07 : ... .. . ... ...
ROW 3B : ... .. . ... ... : ... .. . ... ... : ... .. . ... : ... .. . A03 : ... .. . ... ...
ROW 3C : ... .. . 471 ... : ... .. . ... ... : ... .. . S00 : ... .. . A02 : ... .. . ... ...
ROW 3D : ... .. . ... ... : ... .. . ... ... : ... .. . ... : ... .. . A01 : ... .. . ... ...
ROW 3E : ... .. . ... ... : ... .. . ... ... : A#2 00 . ... : 1-# 00 A A0C : ... .. . ... ...
ROW 3F : ... .. . ... ... : ... .. . ... ... : ... .. . S02 : --- .. . ... : ... .. . ... ...

PATTERN 05
ROW 00 : ... .. . ... ... : D-3 00 8 V00 A01 : A#2 00 . ... : 6-# 00 8 A06 : ... .. . ... ...
ROW 01 : ... .. . ... ... : ... .. . S04 ... : ... .. . S02 : ... .. . A02 : ... .. . ... ...
ROW 02 : E-4 00 9 400 ... : F-4 00 1 V02 471 : A#2 00 . ... : ... .. . ... : ... .. . ... ...
ROW 03 : D-4 00 9 ... ... : ... .. . ... ... : ... .. . S02 : ... .. . ... : ... .. . ... ...
ROW 04 : A#3 00 9 ... ... : D-3 00 8 V00 400 : A#2 00 . ... : 1-# 00 A A0C : ... .. . ... ...
ROW 05 : ... .. . ... ... : ... .. . ... ... : ... .. . S02 : --- .. . ... : ... .. . ... ...
ROW 06 : ... .. . ... ... : ... .. . ... ... : A#2 00 . ... : 1-# 00 A A0C : ... .. . ... ...
ROW 07 : ... .. 4 G04 ... : ... .. . S04 ... : ... .. . S02 : --- .. . ... : ... .. . ... ...
ROW 08 : A#3 00 9 ... ... : A#3 00 2 V02 ... : A#2 00 . ... : 6-# 00 8 A06 : ... .. . ... ...
ROW 09 : ... .. . ... ... : ... .. . ... ... : ... .. . S02 : ... .. . A02 : ... .. . ... ...
ROW 0A : G-4 00 9 ... ... : E-3 00 8 V00 ... : C-3 00 . ... : 9-# 00 A A07 : ... .. . ... ...
ROW 0B : ... .. . ... ... : ... .. . S04 ... : ... .. . ... : ... .. . A03 : ... .. . ... ...
ROW 0C : ... .. . 471 ... : G-4 00 3 V02 ... : ... .. . S00 : ... .. . A02 : ... .. . ... ...
ROW 0D : ... .. . ... ... : ... .. . ... ... : ... .. . ... : ... .. . A01 : ... .. . ... ...
ROW 0E : ... .. . ... ... : ... .. . 471 ... : C-3 00 . ... : 5-# 00 9 A0A : ... .. . ... ...
ROW 0F : ... .. . ... ... : ... .. . ... ... : ... .. . S02 : 4-# 00 9 A0A : ... .. . ... ...
ROW 10 : ... .. . ... ... : E-3 00 8 V00 400 : C-3 00 . ... : 3-# 00 9 A0A : ... .. . ... ...
ROW 11 : ... .. . ... ... : ... .. . S04 ... : ... .. . S02 : ... .. . ... : ... .. . ... ...
ROW 12 : F-4 00 9 400 ... : G-4 00 1 471 ... : C-3 00 . ... : ... .. . ... : ... .. . ... ...
ROW 13 : E-4 00 9 ... ... : ... .. . ... ... : ... .. . S02 : 4-# 00 9 A0A : ... .. . ... ...
ROW 14 : C-4 00 9 ... ... : D-3 00 8 V00 400 : C-3 00 . ... : 3-# 00 9 A0A : ... .. . ... ...
ROW 15 : ... .. . ... ... : F-4 00 3 V02 ... : ... .. . S02 : 2-# 00 9 A0A : ... .. . ... ...
ROW 16 : --- .. . ... ... : D-3 00 8 V00 ... : C-3 00 . ... : ... .. . ... : ... .. . ... ...
ROW 17 : C-4 00 3 ... ... : ... .. . S03 ... : ... .. . S02 : ... .. . ... : ... .. . ... ...
ROW 18 : E-4 00 9 ... ... : ... .. . ... ... : C-3 00 . ... : 1-# 00 A A0C : ... .. . ... ...
ROW 19 : ... .. . ... ... : ... .. . ... ... : ... .. . S02 : --- .. 8 ... : ... .. . ... ...
ROW 1A : F#4 00 9 ... ... : D-3 00 8 ... ... : D-3 00 . ... : 6-# 00 8 A06 : ... .. . ... ...
ROW 1B : ... .. . ... ... : ... .. . ... ... : ... .. . ... : ... .. . A02 : ... .. . ... ...
ROW 1C : ... .. . 471 ... : ... .. . ... ... : ... .. . ... : ... .. . ... : ... .. . ... ...
ROW 1D : ... .. . ... ... : ... .. . ... ... : ... .. . ... : ... .. . ... : ... .. . ... ...
ROW 1E : ... .. 6 ... A00 : ... .. 5 ... A00 : ... .. . ... : ... .. . ... : ... .. . ... ...
ROW 1F : ... .. . ... ... : ... .. . ... ... : ... .. . ... : ... .. . ... : ... .. . ... ...
ROW 20 : ... .. 5 ... ... : ... .. 4 ... ... : ... .. . ... : 1-# 00 A A0C : ... .. . ... ...
ROW 21 : ... .. . ... ... : ... .. . ... ... : ... .. . ... : --- .. . ... : ... .. . ... ...
ROW 22 : ... .. . ... ... : ... .. . ... ... : ... .. . ... : ... .. . ... : ... .. . ... ...
ROW 23 : ... .. . ... ... : ... .. . ... ... : ... .. . ... : ... .. . ... : ... .. . ... ...
ROW 24 : ... .. 4 ... ... : ... .. 3 ... ... : ... .. . ... : ... .. . ... : ... .. . ... ...
ROW 25 : ... .. . ... ... : ... .. . ... ... : ... .. . ... : ... .. . ... : ... .. . ... ...
ROW 26 : ... .. . ... ... : ... .. . ... ... : ... .. . ... : ... .. . ... : ... .. . ... ...
ROW 27 : ... .. . ... ... : ... .. . ... ... : ... .. . ... : ... .. . ... : ... .. . ... ...
ROW 28 : ... .. 3 ... ... : ... .. 2 ... ... : ... .. . ... : 1-# 00 A A0C : ... .. . ... ...
ROW 29 : ... .. . ... ... : ... .. . ... ... : ... .. . ... : --- .. . ... : ... .. . ... ...
ROW 2A : ... .. . ... ... : ... .. . ... ... : ... .. . ... : ... .. . ... : ... .. . ... ...
ROW 2B : ... .. . ... ... : ... .. . ... ... : ... .. . ... : ... .. . ... : ... .. . ... ...
ROW 2C : ... .. 2 ... ... : ... .. 1 ... ... : ... .. . ... : ... .. . ... : ... .. . ... ...
ROW 2D : ... .. . ... ... : ... .. . ... ... : ... .. . ... : ... .. . ... : ... .. . ... ...
ROW 2E : ... .. . ... ... : G-4 00 8 V02 A03 : ... .. . ... : 6-# 00 8 A06 : ... .. . ... ...
ROW 2F : ... .. . ... ... : ... .. . ... ... : ... .. . ... : ... .. . A02 : ... .. . ... ...
ROW 30 : ... .. 1 ... ... : F#4 00 8 ... P7F : ... .. . ... : 1-# 00 A A0C : ... .. . ... ...
ROW 31 : ... .. . ... ... : ... .. . ... ... : ... .. . ... : --- .. . ... : ... .. . ... ...
ROW 32 : ... .. . ... ... : D-4 00 8 ... P80 : ... .. . ... : 1-# 00 A A0C : ... .. . ... ...
ROW 33 : ... .. . ... ... : ... .. . ... ... : ... .. . ... : --- .. . ... : ... .. . ... ...
ROW 34 : ... .. . ... ... : G-4 00 8 ... ... : ... .. . ... : 6-# 00 8 A06 : ... .. . ... ...
ROW 35 : ... .. . ... ... : ... .. . ... ... : ... .. . S02 : ... .. . A02 : ... .. . ... ...
ROW 36 : ... .. 0 ... ... : F#4 00 8 ... P7F : ... .. . ... : 1-# 00 A A0C : ... .. . ... ...
ROW 37 : ... .. . ... ... : ... .. . ... ... : ... .. . ... : --- .. . ... : ... .. . ... ...
ROW 38 : ... .. . ... ... : D-4 00 8 ... P80 : ... .. . ... : 6-# 00 8 A06 : ... .. . ... ...
ROW 39 : ... .. . ... ... : ... .. . ... ... : ... .. . ... : ... .. . A02 : ... .. . ... ...
ROW 3A : ... .. . ... ... : D-5 00 8 ... ... : ... .. . ... : 6-# 00 9 A06 : ... .. . ... ...
ROW 3B : ... .. . ... ... : ... .. . ... ... : ... .. . ... : ... .. . A02 : ... .. . ... ...
ROW 3C : ... .. . ... ... : ... .. . ... ... : ... .. . ... : ... .. . ... : ... .. . ... ...
ROW 3D : ... .. . ... ... : ... .. . ... ... : ... .. . ... : ... .. . ... : ... .. . ... ...
ROW 3E : ... .. . ... ... : ... .. . ... ... : ... .. . ... : ... .. . ... : ... .. . ... ...
ROW 3F : ... .. . ... ... : ... .. . ... ... : ... .. . ... : ... .. . ... : ... .. . ... ...

PATTERN 06
ROW 00 : ... .. . ... ... : ... .. . ... ... : ... .. . ... : ... .. . ... : ... .. . ... ...
ROW 01 : ... .. . ... ... : ... .. . ... ... : ... .. . ... : ... .. . ... : ... .. . ... ...
ROW 02 : ... .. . ... ... : ... .. . ... ... : ... .. . ... : ... .. . ... : ... .. . ... ...
ROW 03 : ... .. . ... ... : ... .. . ... ... : ... .. . ... : ... .. . ... : ... .. . ... ...
ROW 04 : ... .. . ... ... : ... .. . ... ... : ... .. . ... : ... .. . ... : ... .. . ... ...
ROW 05 : ... .. . ... ... : ... .. . ... ... : ... .. . ... : ... .. . ... : ... .. . ... ...
ROW 06 : ... .. . ... ... : ... .. . ... ... : ... .. . ... : ... .. . ... : ... .. . ... ...
ROW 07 : ... .. . ... ... : ... .. . ... ... : ... .. . C00 : ... .. . ... : ... .. . ... ...
ROW 08 : ... .. . ... ... : ... .. . ... ... : ... .. . ... : ... .. . ... : ... .. . ... ...
ROW 09 : ... .. . ... ... : ... .. . ... ... : ... .. . ... : ... .. . ... : ... .. . ... ...
ROW 0A : ... .. . ... ... : ... .. . ... ... : ... .. . ... : ... .. . ... : ... .. . ... ...
ROW 0B : ... .. . ... ... : ... .. . ... ... : ... .. . ... : ... .. . ... : ... .. . ... ...
ROW 0C : ... .. . ... ... : ... .. . ... ... : ... .. . ... : ... .. . ... : ... .. . ... ...
ROW 0D : ... .. . ... ... : ... .. . ... ... : ... .. . ... : ... .. . ... : ... .. . ... ...
ROW 0E : ... .. . ... ... : ... .. . ... ... : ... .. . ... : ... .. . ... : ... .. . ... ...
ROW 0F : ... .. . ... ... : ... .. . ... ... : ... .. . ... : ... .. . ... : ... .. . ... ...
ROW 10 : ... .. . ... ... : ... .. . ... ... : ... .. . ... : ... .. . ... : ... .. . ... ...
ROW 11 : ... .. . ... ... : ... .. . ... ... : ... .. . ... : ... .. . ... : ... .. . ... ...
ROW 12 : ... .. . ... ... : ... .. . ... ... : ... .. . ... : ... .. . ... : ... .. . ... ...
ROW 13 : ... .. . ... ... : ... .. . ... ... : ... .. . ... : ... .. . ... : ... .. . ... ...
ROW 14 : ... .. . ... ... : ... .. . ... ... : ... .. . ... : ... .. . ... : ... .. . ... ...
ROW 15 : ... .. . ... ... : ... .. . ... ... : ... .. . ... : ... .. . ... : ... .. . ... ...
ROW 16 : ... .. . ... ... : ... .. . ... ... : ... .. . ... : ... .. . ... : ... .. . ... ...
ROW 17 : ... .. . ... ... : ... .. . ... ... : ... .. . ... : ... .. . ... : ... .. . ... ...
ROW 18 : ... .. . ... ... : ... .. . ... ... : ... .. . ... : ... .. . ... : ... .. . ... ...
ROW 19 : ... .. . ... ... : ... .. . ... ... : ... .. . ... : ... .. . ... : ... .. . ... ...
ROW 1A : ... .. . ... ... : ... .. . ... ... : ... .. . ... : ... .. . ... : ... .. . ... ...
ROW 1B : ... .. . ... ... : ... .. . ... ... : ... .. . ... : ... .. . ... : ... .. . ... ...
ROW 1C : ... .. . ... ... : ... .. . ... ... : ... .. . ... : ... .. . ... : ... .. . ... ...
ROW 1D : ... .. . ... ... : ... .. . ... ... : ... .. . ... : ... .. . ... : ... .. . ... ...
ROW 1E : ... .. . ... ... : ... .. . ... ... : ... .. . ... : ... .. . ... : ... .. . ... ...
ROW 1F : ... .. . ... ... : ... .. . ... ... : ... .. . ... : ... .. . ... : ... .. . ... ...
ROW 20 : ... .. . ... ... : ... .. . ... ... : ... .. . ... : ... .. . ... : ... .. . ... ...
ROW 21 : ... .. . ... ... : ... .. . ... ... : ... .. . ... : ... .. . ... : ... .. . ... ...
ROW 22 : ... .. . ... ... : ... .. . ... ... : ... .. . ... : ... .. . ... : ... .. . ... ...
ROW 23 : ... .. . ... ... : ... .. . ... ... : ... .. . ... : ... .. . ... : ... .. . ... ...
ROW 24 : ... .. . ... ... : ... .. . ... ... : ... .. . ... : ... .. . ... : ... .. . ... ...
ROW 25 : ... .. . ... ... : ... .. . ... ... : ... .. . ... : ... .. . ... : ... .. . ... ...
ROW 26 : ... .. . ... ... : ... .. . ... ... : ... .. . ... : ... .. . ... : ... .. . ... ...
ROW 27 : ... .. . ... ... : ... .. . ... ... : ... .. . ... : ... .. . ... : ... .. . ... ...
ROW 28 : ... .. . ... ... : ... .. . ... ... : ... .. . ... : ... .. . ... : ... .. . ... ...
ROW 29 : ... .. . ... ... : ... .. . ... ... : ... .. . ... : ... .. . ... : ... .. . ... ...
ROW 2A : ... .. . ... ... : ... .. . ... ... : ... .. . ... : ... .. . ... : ... .. . ... ...
ROW 2B : ... .. . ... ... : ... .. . ... ... : ... .. . ... : ... .. . ... : ... .. . ... ...
ROW 2C : ... .. . ... ... : ... .. . ... ... : ... .. . ... : ... .. . ... : ... .. . ... ...
ROW 2D : ... .. . ... ... : ... .. . ... ... : ... .. . ... : ... .. . ... : ... .. . ... ...
ROW 2E : ... .. . ... ... : ... .. . ... ... : ... .. . ... : ... .. . ... : ... .. . ... ...
ROW 2F : ... .. . ... ... : ... .. . ... ... : ... .. . ... : ... .. . ... : ... .. . ... ...
ROW 30 : ... .. . ... ... : ... .. . ... ... : ... .. . ... : ... .. . ... : ... .. . ... ...
ROW 31 : ... .. . ... ... : ... .. . ... ... : ... .. . ... : ... .. . ... : ... .. . ... ...
ROW 32 : ... .. . ... ... : ... .. . ... ... : ... .. . ... : ... .. . ... : ... .. . ... ...
ROW 33 : ... .. . ... ... : ... .. . ... ... : ... .. . ... : ... .. . ... : ... .. . ... ...
ROW 34 : ... .. . ... ... : ... .. . ... ... : ... .. . ... : ... .. . ... : ... .. . ... ...
ROW 35 : ... .. . ... ... : ... .. . ... ... : ... .. . ... : ... .. . ... : ... .. . ... ...
ROW 36 : ... .. . ... ... : ... .. . ... ... : ... .. . ... : ... .. . ... : ... .. . ... ...
ROW 37 : ... .. . ... ... : ... .. . ... ... : ... .. . ... : ... .. . ... : ... .. . ... ...
ROW 38 : ... .. . ... ... : ... .. . ... ... : ... .. . ... : ... .. . ... : ... .. . ... ...
ROW 39 : ... .. . ... ... : ... .. . ... ... : ... .. . ... : ... .. . ... : ... .. . ... ...
ROW 3A : ... .. . ... ... : ... .. . ... ... : ... .. . ... : ... .. . ... : ... .. . ... ...
ROW 3B : ... .. . ... ... : ... .. . ... ... : ... .. . ... : ... .. . ... : ... .. . ... ...
ROW 3C : ... .. . ... ... : ... .. . ... ... : ... .. . ... : ... .. . ... : ... .. . ... ...
ROW 3D : ... .. . ... ... : ... .. . ... ... : ... .. . ... : ... .. . ... : ... .. . ... ...
ROW 3E : ... .. . ... ... : ... .. . ... ... : ... .. . ... : ... .. . ... : ... .. . ... ...
ROW 3F : ... .. . ... ... : ... .. . ... ... : ... .. . ... : ... .. . ... : ... .. . ... ...

TRACK  32   6 150 "Character Select"
COLUMNS : 2 2 1 1 2

ORDER 00 : 00 00 00 00 00
ORDER 01 : 01 01 00 01 00
ORDER 02 : 02 02 00 01 00
ORDER 03 : 03 03 00 01 00
ORDER 04 : 04 04 00 01 00

PATTERN 00
ROW 00 : ... .. . ... ... : D-2 00 5 V00 A02 : D-2 00 . S05 : 9-# 00 9 A05 : ... .. . F06 Z00
ROW 01 : ... .. . ... ... : ... .. . ... ... : ... .. . ... : ... .. . A02 : ... .. . F07 ...
ROW 02 : ... .. . ... ... : C-3 00 5 ... ... : C-3 00 . S05 : ... .. . A01 : ... .. . F06 ...
ROW 03 : ... .. . ... ... : D-3 00 5 ... ... : D-3 00 . S06 : ... .. . ... : ... .. . F07 ...
ROW 04 : ... .. . ... ... : ... .. . ... ... : ... .. . ... : ... .. . ... : ... .. . F06 ...
ROW 05 : ... .. . ... ... : A-2 00 5 ... ... : A-2 00 . S06 : ... .. . ... : ... .. . F07 ...
ROW 06 : ... .. . ... ... : C-3 00 5 ... ... : C-3 00 . S05 : ... .. . ... : ... .. . F06 ...
ROW 07 : ... .. . ... ... : D-3 00 5 ... ... : D-3 00 . S06 : ... .. . ... : ... .. . F07 ...
ROW 08 : ... .. . ... ... : ... .. . ... ... : ... .. . ... : ... .. . ... : ... .. . F06 ...
ROW 09 : ... .. . ... ... : G-2 00 5 ... ... : G-2 00 . S06 : ... .. . ... : ... .. . F07 ...
ROW 0A : ... .. . ... ... : A-2 00 5 ... ... : A-2 00 . S05 : ... .. . ... : ... .. . F06 ...
ROW 0B : ... .. . ... ... : C-3 00 5 ... ... : C-3 00 . S06 : ... .. . ... : ... .. . F07 ...
ROW 0C : ... .. . ... ... : D-3 00 5 ... ... : D-3 00 . S05 : ... .. . ... : ... .. . F06 ...
ROW 0D : ... .. . ... ... : C-3 00 5 ... ... : C-3 00 . S06 : ... .. . ... : ... .. . F07 ...
ROW 0E : ... .. . ... ... : A-2 00 5 ... ... : A-2 00 . S05 : ... .. . ... : ... .. . F06 ...
ROW 0F : ... .. . ... ... : G-2 00 5 ... ... : G-2 00 . S06 : ... .. . ... : ... .. . F07 ...
ROW 10 : ... .. . ... ... : D-2 00 5 ... ... : D-2 00 . S05 : 9-# 00 9 A05 : ... .. . F06 ...
ROW 11 : ... .. . ... ... : ... .. . ... ... : ... .. . ... : ... .. . A02 : ... .. . F07 ...
ROW 12 : ... .. . ... ... : C-3 00 5 ... ... : C-3 00 . S05 : ... .. . A01 : ... .. . F06 ...
ROW 13 : ... .. . ... ... : D-3 00 5 ... ... : D-3 00 . S06 : ... .. . ... : ... .. . F07 ...
ROW 14 : ... .. . ... ... : ... .. . ... ... : ... .. . ... : ... .. . ... : ... .. . F06 ...
ROW 15 : ... .. . ... ... : A-2 00 5 ... ... : A-2 00 . S06 : ... .. . ... : ... .. . F07 ...
ROW 16 : ... .. . ... ... : C-3 00 5 ... ... : C-3 00 . S05 : ... .. . ... : ... .. . F06 ...
ROW 17 : ... .. . ... ... : D-3 00 5 ... ... : D-3 00 . S06 : ... .. . ... : ... .. . F07 ...
ROW 18 : ... .. . ... ... : ... .. . ... ... : ... .. . ... : ... .. . ... : ... .. . F06 ...
ROW 19 : ... .. . ... ... : G-2 00 5 ... ... : G-2 00 . S06 : 2-# 00 9 A06 : ... .. . F07 ...
ROW 1A : ... .. . ... ... : A-2 00 5 ... ... : A-2 00 . S05 : 1-# 00 5 A03 : ... .. . F06 ...
ROW 1B : ... .. . ... ... : C-3 00 5 ... ... : C-3 00 . S06 : --- .. . ... : ... .. . F07 ...
ROW 1C : ... .. . ... ... : D-3 00 5 ... ... : D-3 00 . S05 : 2-# 00 A A0C : ... .. . F06 ...
ROW 1D : ... .. . ... ... : ... .. . ... ... : ... .. . ... : ... .. . ... : ... .. . F07 ...
ROW 1E : ... .. . ... ... : C-2 00 5 ... ... : C-2 00 . ... : 2-# 00 A A0C : ... .. . F06 ...
ROW 1F : ... .. . ... ... : ... .. . ... ... : ... .. . S06 : 2-# 00 A A0C : ... .. . F07 ...

PATTERN 01
ROW 00 : ... .. . V02 ... : D-2 00 5 V00 A02 : ... .. . ... : 1-# 00 A A0C : ... .. . ... ...
ROW 01 : ... .. . ... ... : ... .. . ... ... : ... .. . ... : --- .. . ... : ... .. . ... ...
ROW 02 : C-4 00 7 A02 ... : A-3 00 7 V02 ... : ... .. . ... : B-# 00 4 A0A : ... .. . ... ...
ROW 03 : D-4 00 7 ... ... : ... .. . ... ... : ... .. . ... : 1-# 00 A A0C : ... .. . ... ...
ROW 04 : ... .. . ... ... : C-4 00 4 ... ... : ... .. . ... : 6-# 00 8 A06 : ... .. . ... ...
ROW 05 : C-4 00 7 ... ... : A-3 00 7 ... ... : ... .. . ... : ... .. . A02 : ... .. . ... ...
ROW 06 : D-4 00 7 ... ... : ... .. . ... ... : ... .. . ... : 1-# 00 A A0C : ... .. . ... ...
ROW 07 : ... .. . ... ... : C-4 00 4 ... ... : ... .. . ... : --- .. . ... : ... .. . ... ...
ROW 08 : ... .. . ... ... : D-4 00 4 P7F ... : ... .. . ... : 1-# 00 A A0C : ... .. . ... ...
ROW 09 : A-3 00 7 ... ... : F-3 00 7 P80 ... : ... .. . ... : 1-# 00 A A0C : ... .. . ... ...
ROW 0A : C-4 00 7 ... ... : ... .. . ... ... : ... .. . ... : 1-# 00 A A0C : ... .. . ... ...
ROW 0B : E-4 00 7 ... ... : A-3 00 4 ... ... : ... .. . ... : --- .. . ... : ... .. . ... ...
ROW 0C : G-4 00 7 ... ... : E-3 00 7 ... ... : ... .. . ... : 6-# 00 8 A06 : ... .. . ... ...
ROW 0D : F-4 00 7 ... ... : ... .. . ... ... : ... .. . ... : ... .. . A02 : ... .. . ... ...
ROW 0E : E-4 00 7 ... ... : G-4 00 4 ... ... : ... .. . ... : 1-# 00 A A0C : ... .. . ... ...
ROW 0F : C-4 00 7 ... ... : F-4 00 4 ... ... : ... .. . ... : --- .. . ... : ... .. . ... ...
ROW 10 : ... .. . ... ... : E-4 00 4 ... ... : ... .. . ... : 1-# 00 A A0C : ... .. . ... ...
ROW 11 : ... .. . ... ... : C-4 00 4 P7F ... : ... .. . ... : --- .. . ... : ... .. . ... ...
ROW 12 : C-4 00 7 ... ... : F-3 00 7 P80 ... : ... .. . ... : B-# 00 4 A0A : ... .. . ... ...
ROW 13 : D-4 00 7 ... ... : ... .. . ... ... : ... .. . ... : 1-# 00 A A0C : ... .. . ... ...
ROW 14 : ... .. . ... ... : C-4 00 4 ... ... : ... .. . ... : 6-# 00 8 A06 : ... .. . ... ...
ROW 15 : C-4 00 7 ... ... : F-3 00 7 ... ... : ... .. . ... : ... .. . A02 : ... .. . ... ...
ROW 16 : D-4 00 7 ... ... : ... .. . ... ... : ... .. . ... : 1-# 00 A A0C : ... .. . ... ...
ROW 17 : ... .. . ... ... : C-4 00 4 ... ... : ... .. . ... : --- .. . ... : ... .. . ... ...
ROW 18 : ... .. . ... ... : D-4 00 4 P7F ... : ... .. . ... : ... .. . ... : ... .. . ... ...
ROW 19 : A-3 00 7 ... ... : E-3 00 7 P80 ... : ... .. . ... : ... .. . ... : ... .. . ... ...
ROW 1A : C-4 00 7 ... ... : ... .. . ... ... : ... .. . ... : 1-# 00 A A0C : ... .. . ... ...
ROW 1B : G-4 00 7 ... ... : A-3 00 4 ... ... : ... .. . ... : 1-# 00 A A0C : ... .. . ... ...
ROW 1C : F-4 00 7 ... ... : A-3 00 7 ... ... : ... .. . ... : 6-# 00 8 A06 : ... .. . ... ...
ROW 1D : ... .. . A01 G04 : G-3 00 7 ... ... : ... .. . ... : 5-# 00 5 A02 : ... .. . ... ...
ROW 1E : ... .. . ... ... : A-3 00 7 ... ... : ... .. . ... : 4-# 00 3 ... : ... .. . ... ...
ROW 1F : ... .. . ... ... : C-4 00 7 ... ... : ... .. . ... : 3-# 00 1 ... : ... .. . ... ...

PATTERN 02
ROW 00 : ... .. . ... ... : D-2 00 5 V00 A02 : ... .. . ... : ... .. . ... : ... .. . ... ...
ROW 01 : ... .. . ... ... : ... .. . ... ... : ... .. . ... : ... .. . ... : ... .. . ... ...
ROW 02 : C-4 00 7 A02 ... : A-3 00 7 V02 ... : ... .. . ... : ... .. . ... : ... .. . ... ...
ROW 03 : D-4 00 7 ... ... : ... .. . ... ... : ... .. . ... : ... .. . ... : ... .. . ... ...
ROW 04 : ... .. . ... ... : C-4 00 4 ... ... : ... .. . ... : ... .. . ... : ... .. . ... ...
ROW 05 : C-4 00 7 ... ... : A-3 00 7 ... ... : ... .. . ... : ... .. . ... : ... .. . ... ...
ROW 06 : D-4 00 7 ... ... : ... .. . ... ... : ... .. . ... : ... .. . ... : ... .. . ... ...
ROW 07 : ... .. . ... ... : C-4 00 4 ... ... : ... .. . ... : ... .. . ... : ... .. . ... ...
ROW 08 : ... .. . ... ... : D-4 00 4 P7F ... : ... .. . ... : ... .. . ... : ... .. . ... ...
ROW 09 : A-3 00 7 ... ... : F-3 00 7 P80 ... : ... .. . ... : ... .. . ... : ... .. . ... ...
ROW 0A : C-4 00 7 ... ... : ... .. . ... ... : ... .. . ... : ... .. . ... : ... .. . ... ...
ROW 0B : E-4 00 7 ... ... : A-3 00 4 ... ... : ... .. . ... : ... .. . ... : ... .. . ... ...
ROW 0C : G-4 00 7 ... ... : E-3 00 7 ... ... : ... .. . ... : ... .. . ... : ... .. . ... ...
ROW 0D : F-4 00 7 ... ... : ... .. . ... ... : ... .. . ... : ... .. . ... : ... .. . ... ...
ROW 0E : E-4 00 7 ... ... : G-4 00 4 ... ... : ... .. . ... : ... .. . ... : ... .. . ... ...
ROW 0F : C-4 00 7 ... ... : F-4 00 4 ... ... : ... .. . ... : ... .. . ... : ... .. . ... ...
ROW 10 : ... .. . ... ... : E-4 00 4 ... ... : ... .. . ... : ... .. . ... : ... .. . ... ...
ROW 11 : ... .. . ... ... : C-4 00 4 P7F ... : ... .. . ... : ... .. . ... : ... .. . ... ...
ROW 12 : C-4 00 7 ... ... : F-3 00 7 P80 ... : ... .. . ... : ... .. . ... : ... .. . ... ...
ROW 13 : D-4 00 7 ... ... : ... .. . ... ... : ... .. . ... : ... .. . ... : ... .. . ... ...
ROW 14 : ... .. . ... ... : C-4 00 4 ... ... : ... .. . ... : ... .. . ... : ... .. . ... ...
ROW 15 : C-4 00 7 ... ... : F-3 00 7 ... ... : ... .. . ... : ... .. . ... : ... .. . ... ...
ROW 16 : D-4 00 7 ... ... : ... .. . ... ... : ... .. . ... : ... .. . ... : ... .. . ... ...
ROW 17 : ... .. . ... ... : C-4 00 4 ... ... : ... .. . ... : ... .. . ... : ... .. . ... ...
ROW 18 : ... .. . ... ... : D-4 00 4 P7F ... : ... .. . ... : ... .. . ... : ... .. . ... ...
ROW 19 : A-3 00 7 ... ... : E-3 00 7 P80 ... : ... .. . ... : ... .. . ... : ... .. . ... ...
ROW 1A : C-4 00 7 ... ... : ... .. . ... ... : ... .. . ... : ... .. . ... : ... .. . ... ...
ROW 1B : G-4 00 7 ... ... : A-3 00 4 ... ... : ... .. . ... : ... .. . ... : ... .. . ... ...
ROW 1C : A-4 00 7 ... ... : F-3 00 7 ... ... : ... .. . ... : ... .. . ... : ... .. . ... ...
ROW 1D : ... .. . A01 G04 : G-3 00 7 ... ... : ... .. . ... : ... .. . ... : ... .. . ... ...
ROW 1E : ... .. . ... ... : A-3 00 7 ... ... : ... .. . ... : ... .. . ... : ... .. . ... ...
ROW 1F : ... .. . ... ... : C-4 00 7 ... ... : ... .. . ... : ... .. . ... : ... .. . ... ...

PATTERN 03
ROW 00 : ... .. . V02 ... : D-2 00 5 V00 A02 : ... .. . ... : ... .. . ... : ... .. . ... ...
ROW 01 : ... .. . ... ... : ... .. . ... ... : ... .. . ... : ... .. . ... : ... .. . ... ...
ROW 02 : E-4 00 7 A02 ... : A-3 00 7 V02 ... : ... .. . ... : ... .. . ... : ... .. . ... ...
ROW 03 : F-4 00 7 ... ... : ... .. . ... ... : ... .. . ... : ... .. . ... : ... .. . ... ...
ROW 04 : ... .. . ... ... : E-4 00 4 ... ... : ... .. . ... : ... .. . ... : ... .. . ... ...
ROW 05 : E-4 00 7 ... ... : A-3 00 7 ... ... : ... .. . ... : ... .. . ... : ... .. . ... ...
ROW 06 : F-4 00 7 ... ... : ... .. . ... ... : ... .. . ... : ... .. . ... : ... .. . ... ...
ROW 07 : ... .. . ... ... : E-4 00 4 ... ... : ... .. . ... : ... .. . ... : ... .. . ... ...
ROW 08 : ... .. . ... ... : F-4 00 4 P7F ... : ... .. . ... : ... .. . ... : ... .. . ... ...
ROW 09 : C-4 00 7 ... ... : F-3 00 7 P80 ... : ... .. . ... : ... .. . ... : ... .. . ... ...
ROW 0A : E-4 00 7 ... ... : ... .. . ... ... : ... .. . ... : ... .. . ... : ... .. . ... ...
ROW 0B : G-4 00 7 ... ... : C-4 00 4 ... ... : ... .. . ... : ... .. . ... : ... .. . ... ...
ROW 0C : A-4 00 7 ... ... : E-3 00 7 ... ... : ... .. . ... : ... .. . ... : ... .. . ... ...
ROW 0D : G-4 00 7 ... ... : ... .. . ... ... : ... .. . ... : ... .. . ... : ... .. . ... ...
ROW 0E : E-4 00 7 ... ... : A-4 00 4 ... ... : ... .. . ... : ... .. . ... : ... .. . ... ...
ROW 0F : C-4 00 7 ... ... : G-4 00 4 ... ... : ... .. . ... : ... .. . ... : ... .. . ... ...
ROW 10 : ... .. . ... ... : E-4 00 4 ... ... : ... .. . ... : ... .. . ... : ... .. . ... ...
ROW 11 : ... .. . ... ... : C-4 00 4 P7F ... : ... .. . ... : ... .. . ... : ... .. . ... ...
ROW 12 : E-4 00 7 ... ... : F-3 00 7 P80 ... : ... .. . ... : ... .. . ... : ... .. . ... ...
ROW 13 : F-4 00 7 ... ... : ... .. . ... ... : ... .. . ... : ... .. . ... : ... .. . ... ...
ROW 14 : ... .. . ... ... : E-4 00 4 ... ... : ... .. . ... : ... .. . ... : ... .. . ... ...
ROW 15 : E-4 00 7 ... ... : F-3 00 7 ... ... : ... .. . ... : ... .. . ... : ... .. . ... ...
ROW 16 : F-4 00 7 ... ... : ... .. . ... ... : ... .. . ... : ... .. . ... : ... .. . ... ...
ROW 17 : ... .. . ... ... : E-4 00 4 ... ... : ... .. . ... : ... .. . ... : ... .. . ... ...
ROW 18 : ... .. . ... ... : F-4 00 4 P7F ... : ... .. . ... : ... .. . ... : ... .. . ... ...
ROW 19 : C-4 00 7 ... ... : E-3 00 7 P80 ... : ... .. . ... : ... .. . ... : ... .. . ... ...
ROW 1A : E-4 00 7 ... ... : ... .. . ... ... : ... .. . ... : ... .. . ... : ... .. . ... ...
ROW 1B : G-4 00 7 ... ... : C-4 00 4 ... ... : ... .. . ... : ... .. . ... : ... .. . ... ...
ROW 1C : F-4 00 7 ... ... : A-3 00 7 ... ... : ... .. . ... : ... .. . ... : ... .. . ... ...
ROW 1D : ... .. . A01 G04 : C-4 00 7 ... ... : ... .. . ... : ... .. . ... : ... .. . ... ...
ROW 1E : ... .. . ... ... : D-4 00 7 ... ... : ... .. . ... : ... .. . ... : ... .. . ... ...
ROW 1F : ... .. . ... ... : E-4 00 7 ... ... : ... .. . ... : ... .. . ... : ... .. . ... ...

PATTERN 04
ROW 00 : ... .. . V02 ... : D-2 00 5 V00 A02 : ... .. . ... : ... .. . ... : ... .. . ... ...
ROW 01 : ... .. . ... ... : ... .. . ... ... : ... .. . ... : ... .. . ... : ... .. . ... ...
ROW 02 : E-4 00 7 A02 ... : A-3 00 7 V02 ... : ... .. . ... : ... .. . ... : ... .. . ... ...
ROW 03 : F-4 00 7 ... ... : ... .. . ... ... : ... .. . ... : ... .. . ... : ... .. . ... ...
ROW 04 : ... .. . ... ... : E-4 00 4 ... ... : ... .. . ... : ... .. . ... : ... .. . ... ...
ROW 05 : E-4 00 7 ... ... : A-3 00 7 ... ... : ... .. . ... : ... .. . ... : ... .. . ... ...
ROW 06 : F-4 00 7 ... ... : ... .. . ... ... : ... .. . ... : ... .. . ... : ... .. . ... ...
ROW 07 : ... .. . ... ... : E-4 00 4 ... ... : ... .. . ... : ... .. . ... : ... .. . ... ...
ROW 08 : ... .. . ... ... : F-4 00 4 P7F ... : ... .. . ... : ... .. . ... : ... .. . ... ...
ROW 09 : C-4 00 7 ... ... : F-3 00 7 P80 ... : ... .. . ... : ... .. . ... : ... .. . ... ...
ROW 0A : E-4 00 7 ... ... : ... .. . ... ... : ... .. . ... : ... .. . ... : ... .. . ... ...
ROW 0B : G-4 00 7 ... ... : C-4 00 4 ... ... : ... .. . ... : ... .. . ... : ... .. . ... ...
ROW 0C : A-4 00 7 ... ... : E-3 00 7 ... ... : ... .. . ... : ... .. . ... : ... .. . ... ...
ROW 0D : G-4 00 7 ... ... : ... .. . ... ... : ... .. . ... : ... .. . ... : ... .. . ... ...
ROW 0E : E-4 00 7 ... ... : A-4 00 4 ... ... : ... .. . ... : ... .. . ... : ... .. . ... ...
ROW 0F : C-4 00 7 ... ... : G-4 00 4 ... ... : ... .. . ... : ... .. . ... : ... .. . ... ...
ROW 10 : ... .. . ... ... : E-4 00 4 ... ... : ... .. . ... : ... .. . ... : ... .. . ... ...
ROW 11 : ... .. . ... ... : C-4 00 4 P7F ... : ... .. . ... : ... .. . ... : ... .. . ... ...
ROW 12 : E-4 00 7 ... ... : F-3 00 7 P80 ... : ... .. . ... : ... .. . ... : ... .. . ... ...
ROW 13 : F-4 00 7 ... ... : ... .. . ... ... : ... .. . ... : ... .. . ... : ... .. . ... ...
ROW 14 : ... .. . ... ... : E-4 00 4 ... ... : ... .. . ... : ... .. . ... : ... .. . ... ...
ROW 15 : E-4 00 7 ... ... : F-3 00 7 ... ... : ... .. . ... : ... .. . ... : ... .. . ... ...
ROW 16 : F-4 00 7 ... ... : ... .. . ... ... : ... .. . ... : ... .. . ... : ... .. . ... ...
ROW 17 : ... .. . ... ... : E-4 00 4 ... ... : ... .. . ... : ... .. . ... : ... .. . ... ...
ROW 18 : ... .. . ... ... : F-4 00 4 P7F ... : ... .. . ... : ... .. . ... : ... .. . ... ...
ROW 19 : G-4 00 7 ... ... : E-3 00 7 P80 ... : ... .. . ... : ... .. . ... : ... .. . ... ...
ROW 1A : F-4 00 7 ... ... : ... .. . ... ... : ... .. . ... : ... .. . ... : ... .. . ... ...
ROW 1B : C-4 00 7 ... ... : G-4 00 4 ... ... : ... .. . ... : ... .. . ... : ... .. . ... ...
ROW 1C : D-4 00 7 ... ... : A-3 00 7 ... ... : ... .. . ... : ... .. . ... : ... .. . ... ...
ROW 1D : ... .. . A01 G04 : E-3 00 7 ... ... : ... .. . ... : ... .. . ... : ... .. . ... ...
ROW 1E : ... .. . ... ... : F-3 00 7 ... ... : ... .. . ... : ... .. . ... : ... .. . ... ...
ROW 1F : ... .. . ... B01 : C-3 00 7 ... ... : ... .. . ... : ... .. . ... : ... .. . ... ...

PATTERN 05
ROW 00 : ... .. . ... ... : ... .. . ... ... : ... .. . ... : ... .. . ... : ... .. . ... ...
ROW 01 : ... .. . ... ... : ... .. . ... ... : ... .. . ... : ... .. . ... : ... .. . ... ...
ROW 02 : ... .. . ... ... : ... .. . ... ... : ... .. . ... : ... .. . ... : ... .. . ... ...
ROW 03 : ... .. . ... ... : ... .. . ... ... : ... .. . ... : ... .. . ... : ... .. . ... ...
ROW 04 : ... .. . ... ... : C-4 00 4 A03 ... : ... .. . ... : ... .. . ... : ... .. . ... ...
ROW 05 : ... .. . ... ... : D-4 00 4 ... ... : ... .. . ... : ... .. . ... : ... .. . ... ...
ROW 06 : ... .. . ... ... : ... .. . ... ... : ... .. . ... : ... .. . ... : ... .. . ... ...
ROW 07 : ... .. . ... ... : C-4 00 4 ... ... : ... .. . ... : ... .. . ... : ... .. . ... ...
ROW 08 : ... .. . ... ... : D-4 00 4 ... ... : ... .. . ... : ... .. . ... : ... .. . ... ...
ROW 09 : ... .. . ... ... : ... .. . ... ... : ... .. . ... : ... .. . ... : ... .. . ... ...
ROW 0A : ... .. . ... ... : ... .. . ... ... : ... .. . ... : ... .. . ... : ... .. . ... ...
ROW 0B : ... .. . ... ... : A-3 00 4 ... ... : ... .. . ... : ... .. . ... : ... .. . ... ...
ROW 0C : ... .. . ... ... : C-4 00 4 ... ... : ... .. . ... : ... .. . ... : ... .. . ... ...
ROW 0D : ... .. . ... ... : E-4 00 4 ... ... : ... .. . ... : ... .. . ... : ... .. . ... ...
ROW 0E : ... .. . ... ... : G-4 00 4 ... ... : ... .. . ... : ... .. . ... : ... .. . ... ...
ROW 0F : ... .. . ... ... : F-4 00 4 ... ... : ... .. . ... : ... .. . ... : ... .. . ... ...
ROW 10 : ... .. . ... ... : E-4 00 4 ... ... : ... .. . ... : ... .. . ... : ... .. . ... ...
ROW 11 : ... .. . ... ... : C-4 00 4 ... ... : ... .. . ... : ... .. . ... : ... .. . ... ...
ROW 12 : ... .. . ... ... : ... .. . ... ... : ... .. . ... : ... .. . ... : ... .. . ... ...
ROW 13 : ... .. . ... ... : ... .. . ... ... : ... .. . ... : ... .. . ... : ... .. . ... ...
ROW 14 : ... .. . ... ... : C-4 00 4 ... ... : ... .. . ... : ... .. . ... : ... .. . ... ...
ROW 15 : ... .. . ... ... : D-4 00 4 ... ... : ... .. . ... : ... .. . ... : ... .. . ... ...
ROW 16 : ... .. . ... ... : ... .. . ... ... : ... .. . ... : ... .. . ... : ... .. . ... ...
ROW 17 : ... .. . ... ... : C-4 00 4 ... ... : ... .. . ... : ... .. . ... : ... .. . ... ...
ROW 18 : ... .. . ... ... : D-4 00 4 ... ... : ... .. . ... : ... .. . ... : ... .. . ... ...
ROW 19 : ... .. . ... ... : ... .. . ... ... : ... .. . ... : ... .. . ... : ... .. . ... ...
ROW 1A : ... .. . ... ... : ... .. . ... ... : ... .. . ... : ... .. . ... : ... .. . ... ...
ROW 1B : ... .. . ... ... : A-3 00 4 ... ... : ... .. . ... : ... .. . ... : ... .. . ... ...
ROW 1C : ... .. . ... ... : C-4 00 4 ... ... : ... .. . ... : ... .. . ... : ... .. . ... ...
ROW 1D : ... .. . ... ... : G-4 00 4 ... ... : ... .. . ... : ... .. . ... : ... .. . ... ...
ROW 1E : ... .. . ... ... : F-4 00 4 ... ... : ... .. . ... : ... .. . ... : ... .. . ... ...
ROW 1F : ... .. . ... ... : ... .. . A01 G04 : ... .. . ... : ... .. . ... : ... .. . ... ...

TRACK  64   7 150 "VS."
COLUMNS : 2 2 1 2 1

ORDER 00 : 00 00 00 00 00

PATTERN 00
ROW 00 : C#4 00 7 A04 V01 : A#3 00 4 A04 V01 : A#2 00 . ... : 6-# 00 8 A06 ... : ... .. . F04
ROW 01 : ... .. . ... ... : ... .. . ... ... : ... .. . ... : ... .. . A02 ... : ... .. . F03
ROW 02 : ... .. . A01 ... : A#3 00 7 ... ... : ... .. . S03 : ... .. . ... ... : ... .. . F04
ROW 03 : ... .. . ... ... : ... .. . ... ... : ... .. . ... : ... .. . ... ... : ... .. . F03
ROW 04 : A#3 00 7 ... ... : C#4 00 4 ... ... : ... .. . ... : 1-# 00 A A0C ... : ... .. . F04
ROW 05 : ... .. . ... ... : ... .. . ... ... : ... .. . ... : --- .. . ... ... : ... .. . F03
ROW 06 : C#4 00 7 A04 ... : A#3 00 7 A04 ... : A#2 00 . ... : 6-# 00 8 A06 ... : ... .. . F04
ROW 07 : ... .. . ... ... : ... .. . ... ... : ... .. . ... : ... .. . A02 ... : ... .. . F03
ROW 08 : ... .. . A01 ... : ... .. . A01 ... : ... .. . S03 : ... .. . ... ... : ... .. . F04
ROW 09 : ... .. . ... ... : ... .. . ... ... : ... .. . ... : ... .. . ... ... : ... .. . F03
ROW 0A : F-4 00 7 A04 ... : G#3 00 8 A04 ... : B-2 00 . ... : 4-# 00 9 A0A ... : ... .. . F04
ROW 0B : ... .. . ... ... : ... .. . ... ... : ... .. . S01 : --- .. . ... ... : ... .. . F03
ROW 0C : G#4 00 7 ... ... : ... .. . ... ... : G-2 00 . ... : 3-# 00 9 A0A ... : ... .. . F04
ROW 0D : ... .. . ... ... : ... .. . ... ... : ... .. . S01 : --- .. . ... ... : ... .. . F03
ROW 0E : A#4 00 7 ... ... : A-3 00 9 ... ... : A-2 00 . ... : 2-# 00 9 A0A ... : ... .. . F04
ROW 0F : ... .. . ... ... : ... .. . ... ... : ... .. . S01 : --- .. . ... ... : ... .. . F03
ROW 10 : F-4 00 8 ... ... : A#3 00 9 ... ... : A#2 00 . ... : 6-# 00 8 A08 ... : ... .. . F04
ROW 11 : ... .. . ... ... : ... .. . ... ... : ... .. . ... : ... .. . ... ... : ... .. . F03
ROW 12 : D#4 00 8 ... ... : G#3 00 9 ... ... : ... .. . S03 : 6-# 00 7 A08 G03 : ... .. . F04
ROW 13 : ... .. . ... ... : ... .. . ... ... : ... .. . ... : ... .. . ... ... : ... .. . F03
ROW 14 : C#4 00 8 ... ... : F-3 00 9 ... ... : A#2 00 . ... : 6-# 00 8 A08 ... : ... .. . F04
ROW 15 : ... .. . ... ... : ... .. . ... ... : ... .. . ... : ... .. . ... ... : ... .. . F03
ROW 16 : G#4 00 8 ... ... : C#3 00 9 ... ... : ... .. . S03 : 6-# 00 7 A08 G03 : ... .. . F04
ROW 17 : ... .. . ... ... : ... .. . ... ... : ... .. . ... : ... .. . ... ... : ... .. . F03
ROW 18 : F#4 00 8 ... ... : D#3 00 9 ... ... : A#2 00 . ... : 6-# 00 8 A08 ... : ... .. . F04
ROW 19 : ... .. . ... ... : ... .. . ... ... : ... .. . ... : ... .. . ... ... : ... .. . F03
ROW 1A : C-5 00 8 ... ... : C#3 00 9 ... ... : ... .. . S03 : 6-# 00 7 A08 G03 : ... .. . F04
ROW 1B : ... .. . ... ... : ... .. . ... ... : ... .. . ... : ... .. . ... ... : ... .. . F03
ROW 1C : D#5 00 8 ... ... : D#3 00 9 ... ... : A#2 00 . ... : 6-# 00 8 A08 ... : ... .. . F04
ROW 1D : ... .. . ... ... : ... .. . ... ... : ... .. . ... : ... .. . ... ... : ... .. . F03
ROW 1E : C#5 00 8 ... ... : F-3 00 9 ... ... : ... .. . S03 : 6-# 00 7 A08 G03 : ... .. . F04
ROW 1F : ... .. . ... ... : ... .. . ... ... : ... .. . ... : ... .. . ... ... : ... .. . F03
ROW 20 : --- .. . ... ... : --- .. . ... ... : ... .. . ... : 6-# 00 8 A08 ... : ... .. . F04
ROW 21 : ... .. . ... ... : ... .. . ... ... : ... .. . ... : ... .. . A02 ... : ... .. . F03
ROW 22 : G#4 00 8 ... ... : C-3 00 A ... ... : A#2 00 . ... : 9-# 00 A A08 ... : ... .. . F04
ROW 23 : ... .. . ... ... : ... .. . ... ... : ... .. . ... : ... .. . A02 ... : ... .. . F03
ROW 24 : ... .. . A01 ... : ... .. . A01 ... : ... .. . ... : ... .. . ... ... : ... .. . F04
ROW 25 : ... .. . ... ... : ... .. . ... ... : ... .. . ... : ... .. . ... ... : ... .. . F03
ROW 26 : --- .. . ... ... : --- .. . ... ... : ... .. . S03 : ... .. . ... ... : ... .. . F04
ROW 27 : ... .. . ... ... : ... .. . ... ... : ... .. . ... : ... .. . ... ... : ... .. . F03
ROW 28 : A#4 00 8 A04 ... : C#3 00 9 A04 ... : A#2 00 . ... : 9-# 00 A A08 ... : ... .. . F04
ROW 29 : ... .. . ... ... : ... .. . ... ... : ... .. . ... : ... .. . A02 ... : ... .. . F03
ROW 2A : ... .. . A01 ... : ... .. . A01 ... : ... .. . S03 : ... .. . ... ... : ... .. . F04
ROW 2B : ... .. . ... ... : ... .. . ... ... : ... .. . ... : ... .. . ... ... : ... .. . F03
ROW 2C : --- .. . ... ... : --- .. . ... ... : ... .. . ... : ... .. . ... ... : ... .. . F04
ROW 2D : ... .. . ... ... : ... .. . ... ... : ... .. . ... : ... .. . ... ... : ... .. . F03
ROW 2E : ... .. . ... ... : ... .. . ... ... : ... .. . ... : ... .. . ... ... : ... .. . F04
ROW 2F : ... .. . ... ... : ... .. . ... ... : ... .. . ... : ... .. . ... ... : ... .. . F03
ROW 30 : ... .. . ... ... : ... .. . ... ... : ... .. . ... : ... .. . ... ... : ... .. . F04
ROW 31 : ... .. . ... ... : ... .. . ... ... : ... .. . ... : ... .. . ... ... : ... .. . F03
ROW 32 : ... .. . ... ... : ... .. . ... ... : ... .. . ... : ... .. . ... ... : ... .. . F04
ROW 33 : ... .. . ... ... : ... .. . ... ... : ... .. . C00 : ... .. . ... ... : ... .. . F03
ROW 34 : ... .. . ... ... : ... .. . ... ... : ... .. . ... : ... .. . ... ... : ... .. . ...
ROW 35 : ... .. . ... ... : ... .. . ... ... : ... .. . ... : ... .. . ... ... : ... .. . ...
ROW 36 : ... .. . ... ... : ... .. . ... ... : ... .. . ... : ... .. . ... ... : ... .. . ...
ROW 37 : ... .. . ... ... : ... .. . ... ... : ... .. . ... : ... .. . ... ... : ... .. . ...
ROW 38 : ... .. . ... ... : ... .. . ... ... : ... .. . ... : ... .. . ... ... : ... .. . ...
ROW 39 : ... .. . ... ... : ... .. . ... ... : ... .. . ... : ... .. . ... ... : ... .. . ...
ROW 3A : ... .. . ... ... : ... .. . ... ... : ... .. . ... : ... .. . ... ... : ... .. . ...
ROW 3B : ... .. . ... ... : ... .. . ... ... : ... .. . ... : ... .. . ... ... : ... .. . ...
ROW 3C : ... .. . ... ... : ... .. . ... ... : ... .. . ... : ... .. . ... ... : ... .. . ...
ROW 3D : ... .. . ... ... : ... .. . ... ... : ... .. . ... : ... .. . ... ... : ... .. . ...
ROW 3E : ... .. . ... ... : ... .. . ... ... : ... .. . ... : ... .. . ... ... : ... .. . ...
ROW 3F : ... .. . ... ... : ... .. . ... ... : ... .. . ... : ... .. . ... ... : ... .. . ...

PATTERN 01
ROW 00 : ... .. . ... ... : A#3 00 4 A04 ... : ... .. . ... : ... .. . ... ... : ... .. . ...
ROW 01 : ... .. . ... ... : ... .. . ... ... : ... .. . ... : ... .. . ... ... : ... .. . ...
ROW 02 : ... .. . ... ... : A#3 00 7 ... ... : ... .. . ... : ... .. . ... ... : ... .. . ...
ROW 03 : ... .. . ... ... : ... .. . ... ... : ... .. . ... : ... .. . ... ... : ... .. . ...
ROW 04 : ... .. . ... ... : C#4 00 4 ... ... : ... .. . ... : ... .. . ... ... : ... .. . ...
ROW 05 : ... .. . ... ... : ... .. . ... ... : ... .. . ... : ... .. . ... ... : ... .. . ...
ROW 06 : ... .. . ... ... : A#3 00 7 A04 ... : ... .. . ... : ... .. . ... ... : ... .. . ...
ROW 07 : ... .. . ... ... : ... .. . ... ... : ... .. . ... : ... .. . ... ... : ... .. . ...
ROW 08 : ... .. . ... ... : ... .. . A01 ... : ... .. . ... : ... .. . ... ... : ... .. . ...
ROW 09 : ... .. . ... ... : ... .. . ... ... : ... .. . ... : ... .. . ... ... : ... .. . ...
ROW 0A : ... .. . ... ... : G#3 00 8 A04 ... : ... .. . ... : ... .. . ... ... : ... .. . ...
ROW 0B : ... .. . ... ... : ... .. . ... ... : ... .. . ... : ... .. . ... ... : ... .. . ...
ROW 0C : ... .. . ... ... : ... .. . ... ... : ... .. . ... : ... .. . ... ... : ... .. . ...
ROW 0D : ... .. . ... ... : ... .. . ... ... : ... .. . ... : ... .. . ... ... : ... .. . ...
ROW 0E : ... .. . ... ... : A-3 00 8 ... ... : ... .. . ... : ... .. . ... ... : ... .. . ...
ROW 0F : ... .. . ... ... : ... .. . ... ... : ... .. . ... : ... .. . ... ... : ... .. . ...
ROW 10 : ... .. . ... ... : A#3 00 7 ... ... : ... .. . ... : ... .. . ... ... : ... .. . ...
ROW 11 : ... .. . ... ... : D#4 00 7 G01 ... : ... .. . ... : ... .. . ... ... : ... .. . ...
ROW 12 : ... .. . ... ... : C#4 00 7 G03 ... : ... .. . ... : ... .. . ... ... : ... .. . ...
ROW 13 : ... .. . ... ... : ... .. . ... ... : ... .. . ... : ... .. . ... ... : ... .. . ...
ROW 14 : ... .. . ... ... : C-4 00 7 ... ... : ... .. . ... : ... .. . ... ... : ... .. . ...
ROW 15 : ... .. . ... ... : C#4 00 7 G01 ... : ... .. . ... : ... .. . ... ... : ... .. . ...
ROW 16 : ... .. . ... ... : D-4 00 7 G03 ... : ... .. . ... : ... .. . ... ... : ... .. . ...
ROW 17 : ... .. . ... ... : ... .. . ... ... : ... .. . ... : ... .. . ... ... : ... .. . ...
ROW 18 : ... .. . ... ... : D#4 00 7 ... ... : ... .. . ... : ... .. . ... ... : ... .. . ...
ROW 19 : ... .. . ... ... : A#4 00 7 G01 ... : ... .. . ... : ... .. . ... ... : ... .. . ...
ROW 1A : ... .. . ... ... : A-4 00 7 G03 ... : ... .. . ... : ... .. . ... ... : ... .. . ...
ROW 1B : ... .. . ... ... : ... .. . ... ... : ... .. . ... : ... .. . ... ... : ... .. . ...
ROW 1C : ... .. . ... ... : G#4 00 7 ... ... : ... .. . ... : ... .. . ... ... : ... .. . ...
ROW 1D : ... .. . ... ... : A#4 00 7 G01 ... : ... .. . ... : ... .. . ... ... : ... .. . ...
ROW 1E : ... .. . ... ... : A#4 00 7 G03 ... : ... .. . ... : ... .. . ... ... : ... .. . ...
ROW 1F : ... .. . ... ... : ... .. . ... ... : ... .. . ... : ... .. . ... ... : ... .. . ...
ROW 20 : ... .. . ... ... : --- .. . ... ... : ... .. . ... : ... .. . ... ... : ... .. . ...
ROW 21 : ... .. . ... ... : ... .. . ... ... : ... .. . ... : ... .. . ... ... : ... .. . ...
ROW 22 : ... .. . ... ... : C-3 00 8 ... ... : ... .. . ... : ... .. . ... ... : ... .. . ...
ROW 23 : ... .. . ... ... : ... .. . ... ... : ... .. . ... : ... .. . ... ... : ... .. . ...
ROW 24 : ... .. . ... ... : ... .. . A01 ... : ... .. . ... : ... .. . ... ... : ... .. . ...
ROW 25 : ... .. . ... ... : ... .. . ... ... : ... .. . ... : ... .. . ... ... : ... .. . ...
ROW 26 : ... .. . ... ... : --- .. . ... ... : ... .. . ... : ... .. . ... ... : ... .. . ...
ROW 27 : ... .. . ... ... : ... .. . ... ... : ... .. . ... : ... .. . ... ... : ... .. . ...
ROW 28 : ... .. . ... ... : C#3 00 8 A04 ... : ... .. . ... : ... .. . ... ... : ... .. . ...
ROW 29 : ... .. . ... ... : ... .. . ... ... : ... .. . ... : ... .. . ... ... : ... .. . ...
ROW 2A : ... .. . ... ... : ... .. . A01 ... : ... .. . ... : ... .. . ... ... : ... .. . ...
ROW 2B : ... .. . ... ... : ... .. . ... ... : ... .. . ... : ... .. . ... ... : ... .. . ...
ROW 2C : ... .. . ... ... : --- .. . ... ... : ... .. . ... : ... .. . ... ... : ... .. . ...
ROW 2D : ... .. . ... ... : ... .. . ... ... : ... .. . ... : ... .. . ... ... : ... .. . ...
ROW 2E : ... .. . ... ... : ... .. . ... ... : ... .. . ... : ... .. . ... ... : ... .. . ...
ROW 2F : ... .. . ... ... : ... .. . ... ... : ... .. . ... : ... .. . ... ... : ... .. . ...
ROW 30 : ... .. . ... ... : ... .. . ... ... : ... .. . ... : ... .. . ... ... : ... .. . ...
ROW 31 : ... .. . ... ... : ... .. . ... ... : ... .. . ... : ... .. . ... ... : ... .. . ...
ROW 32 : ... .. . ... ... : ... .. . ... ... : ... .. . ... : ... .. . ... ... : ... .. . ...
ROW 33 : ... .. . ... ... : ... .. . ... ... : ... .. . ... : ... .. . ... ... : ... .. . ...
ROW 34 : ... .. . ... ... : ... .. . ... ... : ... .. . ... : ... .. . ... ... : ... .. . ...
ROW 35 : ... .. . ... ... : ... .. . ... ... : ... .. . ... : ... .. . ... ... : ... .. . ...
ROW 36 : ... .. . ... ... : ... .. . ... ... : ... .. . ... : ... .. . ... ... : ... .. . ...
ROW 37 : ... .. . ... ... : ... .. . ... ... : ... .. . ... : ... .. . ... ... : ... .. . ...
ROW 38 : ... .. . ... ... : ... .. . ... ... : ... .. . ... : ... .. . ... ... : ... .. . ...
ROW 39 : ... .. . ... ... : ... .. . ... ... : ... .. . ... : ... .. . ... ... : ... .. . ...
ROW 3A : ... .. . ... ... : ... .. . ... ... : ... .. . ... : ... .. . ... ... : ... .. . ...
ROW 3B : ... .. . ... ... : ... .. . ... ... : ... .. . ... : ... .. . ... ... : ... .. . ...
ROW 3C : ... .. . ... ... : ... .. . ... ... : ... .. . ... : ... .. . ... ... : ... .. . ...
ROW 3D : ... .. . ... ... : ... .. . ... ... : ... .. . ... : ... .. . ... ... : ... .. . ...
ROW 3E : ... .. . ... ... : ... .. . ... ... : ... .. . ... : ... .. . ... ... : ... .. . ...
ROW 3F : ... .. . ... ... : ... .. . ... ... : ... .. . ... : ... .. . ... ... : ... .. . ...

TRACK  64   7 150 "Ryu"
COLUMNS : 3 3 1 2 2

ORDER 00 : 00 00 00 00 00
ORDER 01 : 01 01 01 01 00
ORDER 02 : 02 02 02 02 00
ORDER 03 : 03 03 03 03 00
ORDER 04 : 04 04 04 04 00
ORDER 05 : 05 05 05 05 00
ORDER 06 : 06 06 06 06 00
ORDER 07 : 07 07 07 07 00

PATTERN 00
ROW 00 : ... .. . ... ... ... : ... .. . ... ... ... : D#3 00 . S05 : 1-# 00 A A0C S05 : ... .. . F06 Z08
ROW 01 : ... .. . ... ... ... : ... .. . ... ... ... : ... .. . ... : 1-# 00 9 A0C S06 : ... .. . F07 ...
ROW 02 : ... .. . ... ... ... : ... .. . ... ... ... : D#3 00 . S05 : 1-# 00 8 A0C S05 : ... .. . F06 ...
ROW 03 : ... .. . ... ... ... : ... .. . ... ... ... : C#3 00 . S06 : 1-# 00 7 A0C S06 : ... .. . F07 ...
ROW 04 : ... .. . ... ... ... : ... .. . ... ... ... : D#3 00 . S05 : 6-# 00 8 A06 ... : ... .. . F06 ...
ROW 05 : ... .. . ... ... ... : ... .. . ... ... ... : ... .. . ... : ... .. . A02 ... : ... .. . F07 ...
ROW 06 : ... .. . ... ... ... : ... .. . ... ... ... : D#3 00 . S05 : 1-# 00 A A0C S05 : ... .. . F06 ...
ROW 07 : ... .. . ... ... ... : ... .. . ... ... ... : C#3 00 . S06 : 1-# 00 A A0C S06 : ... .. . F07 ...
ROW 08 : ... .. . ... ... ... : ... .. . ... ... ... : D#3 00 . S05 : ... .. . ... ... : ... .. . F06 ...
ROW 09 : ... .. . ... ... ... : ... .. . ... ... ... : F#3 00 . ... : 1-# 00 A A0C S06 : ... .. . F07 ...
ROW 0A : ... .. . ... ... ... : ... .. . ... ... ... : ... .. . S05 : 1-# 00 A A0C S05 : ... .. . F06 ...
ROW 0B : ... .. . ... ... ... : ... .. . ... ... ... : F-3 00 . ... : ... .. . ... ... : ... .. . F07 ...
ROW 0C : ... .. . ... ... ... : ... .. . ... ... ... : ... .. . S05 : 6-# 00 8 A06 ... : ... .. . F06 ...
ROW 0D : ... .. . ... ... ... : ... .. . ... ... ... : C#3 00 . S06 : ... .. . A02 ... : ... .. . F07 ...
ROW 0E : ... .. . ... ... ... : ... .. . ... ... ... : A#2 00 . ... : 1-# 00 A A0C S05 : ... .. . F06 ...
ROW 0F : ... .. . ... ... ... : ... .. . ... ... ... : ... .. . S06 : 1-# 00 A A0C S06 : ... .. . F07 ...
ROW 10 : ... .. . ... ... ... : ... .. . ... ... ... : D#3 00 . S05 : 1-# 00 A A0C S05 : ... .. . F06 ...
ROW 11 : ... .. . ... ... ... : ... .. . ... ... ... : ... .. . ... : 1-# 00 9 A0C S06 : ... .. . F07 ...
ROW 12 : ... .. . ... ... ... : ... .. . ... ... ... : D#3 00 . S05 : 1-# 00 8 A0C S05 : ... .. . F06 ...
ROW 13 : ... .. . ... ... ... : ... .. . ... ... ... : C#3 00 . S06 : 1-# 00 7 A0C S06 : ... .. . F07 ...
ROW 14 : D#2 00 6 461 V01 ... : F#2 00 6 461 V01 ... : D#3 00 . S05 : 6-# 00 8 A06 ... : ... .. . F06 ...
ROW 15 : ... .. 5 ... ... ... : ... .. 5 ... ... ... : ... .. . ... : ... .. . A02 ... : ... .. . F07 ...
ROW 16 : ... .. 4 ... ... ... : ... .. 4 ... ... ... : D#3 00 . S05 : 1-# 00 A A0C S05 : ... .. . F06 ...
ROW 17 : ... .. . ... ... ... : ... .. . ... ... ... : C#3 00 . S06 : 1-# 00 A A0C S06 : ... .. . F07 ...
ROW 18 : ... .. . ... ... ... : ... .. . ... ... ... : D#3 00 . S05 : ... .. . ... ... : ... .. . F06 ...
ROW 19 : ... .. . ... ... ... : ... .. . ... ... ... : F#3 00 . ... : 1-# 00 A A0C S06 : ... .. . F07 ...
ROW 1A : ... .. . ... ... ... : ... .. . ... ... ... : ... .. . S05 : 1-# 00 A A0C S05 : ... .. . F06 ...
ROW 1B : ... .. . ... ... ... : ... .. . ... ... ... : G#3 00 . ... : ... .. . ... ... : ... .. . F07 ...
ROW 1C : F-2 00 6 ... ... ... : G#2 00 6 ... ... ... : ... .. . S05 : 6-# 00 8 A06 ... : ... .. . F06 ...
ROW 1D : ... .. 5 ... ... ... : ... .. 5 ... ... ... : ... .. . ... : ... .. . A02 ... : ... .. . F07 ...
ROW 1E : ... .. 4 ... ... ... : ... .. 4 ... ... ... : A#3 00 . ... : 1-# 00 A A0C S05 : ... .. . F06 ...
ROW 1F : ... .. . ... G06 400 : ... .. . ... ... ... : ... .. . S06 : ... .. . ... ... : ... .. . F07 ...
ROW 20 : F#3 00 8 S05 V00 A03 : A#2 00 6 ... ... ... : D#3 00 . S05 : 1-# 00 A A0C S05 : ... .. . F06 ...
ROW 21 : F#3 00 8 ... ... ... : G#2 00 6 ... ... ... : ... .. . ... : 1-# 00 A A0C S06 : ... .. . F07 ...
ROW 22 : --- .. . ... ... ... : --- .. 5 ... ... ... : D#3 00 . S05 : 1-# 00 9 A0C S05 : ... .. . F06 ...
ROW 23 : D#2 00 6 461 V01 A00 : F#2 00 6 ... ... ... : C#3 00 . S06 : 1-# 00 9 A0C S06 : ... .. . F07 ...
ROW 24 : ... .. 5 ... ... ... : ... .. 5 ... ... ... : D#3 00 . S05 : 6-# 00 8 A06 ... : ... .. . F06 ...
ROW 25 : ... .. 4 ... ... ... : ... .. 4 ... ... ... : ... .. . ... : ... .. . A02 ... : ... .. . F07 ...
ROW 26 : ... .. . ... ... ... : ... .. . ... ... ... : D#3 00 . S05 : 1-# 00 A A0C S05 : ... .. . F06 ...
ROW 27 : ... .. . ... G06 400 : ... .. . ... ... ... : C#3 00 . S06 : 1-# 00 A A0C S06 : ... .. . F07 ...
ROW 28 : F#3 00 8 S05 V00 A03 : ... .. . ... ... ... : D#3 00 . S05 : ... .. . ... ... : ... .. . F06 ...
ROW 29 : F#3 00 8 ... ... ... : ... .. . ... ... ... : F#3 00 . ... : 1-# 00 A A0C S06 : ... .. . F07 ...
ROW 2A : D#2 00 4 461 V01 A00 : ... .. . ... ... ... : ... .. . S05 : 1-# 00 A A0C S05 : ... .. . F06 ...
ROW 2B : ... .. . ... ... ... : ... .. . ... ... ... : F-3 00 . ... : ... .. . ... ... : ... .. . F07 ...
ROW 2C : ... .. . ... ... ... : ... .. 3 ... ... ... : ... .. . S05 : 6-# 00 8 A06 ... : ... .. . F06 ...
ROW 2D : ... .. . ... ... ... : ... .. . ... ... ... : C#3 00 . S06 : ... .. . A02 ... : ... .. . F07 ...
ROW 2E : ... .. 3 ... ... ... : ... .. . ... ... ... : A#2 00 . ... : 1-# 00 A A0C S05 : ... .. . F06 ...
ROW 2F : ... .. . ... G06 400 : ... .. . ... ... ... : ... .. . S06 : ... .. . ... ... : ... .. . F07 ...
ROW 30 : F#3 00 8 S05 V00 A03 : ... .. 2 ... ... ... : D#3 00 . S05 : 3-# 00 8 A0C S05 : ... .. . F06 ...
ROW 31 : F#3 00 8 ... ... ... : ... .. . ... ... ... : ... .. . ... : 1-# 00 A A0C S06 : ... .. . F07 ...
ROW 32 : D#2 00 2 461 V01 A00 : ... .. 1 ... ... ... : D#3 00 . S05 : 1-# 00 A A0C S05 : ... .. . F06 ...
ROW 33 : ... .. 1 ... ... ... : ... .. . ... ... ... : C#3 00 . S06 : 1-# 00 A A0C S06 : ... .. . F07 ...
ROW 34 : C#2 00 6 ... ... ... : F-2 00 6 ... ... ... : D#3 00 . S05 : 6-# 00 8 A06 ... : ... .. . F06 ...
ROW 35 : ... .. 5 ... ... ... : ... .. 5 ... ... ... : ... .. . ... : ... .. . A02 ... : ... .. . F07 ...
ROW 36 : ... .. 4 ... ... ... : ... .. 4 ... ... ... : D#3 00 . S05 : 1-# 00 A A0C S05 : ... .. . F06 ...
ROW 37 : ... .. . ... ... ... : ... .. . ... ... ... : C#3 00 . S06 : 1-# 00 A A0C S06 : ... .. . F07 ...
ROW 38 : ... .. . ... ... ... : ... .. . ... ... ... : D#3 00 . S05 : ... .. . ... ... : ... .. . F06 ...
ROW 39 : ... .. . ... ... ... : ... .. . ... ... ... : F#3 00 . ... : 6-# 00 5 A06 S06 : ... .. . F07 ...
ROW 3A : F#3 00 8 A02 400 V00 : ... .. . ... ... ... : ... .. . S05 : 6-# 00 6 A06 S05 : ... .. . F06 ...
ROW 3B : ... .. . ... ... ... : ... .. . ... ... ... : G#3 00 . ... : 6-# 00 7 A06 S06 : ... .. . F07 ...
ROW 3C : ... .. . ... ... ... : F#2 00 6 ... ... ... : ... .. . S05 : 6-# 00 8 A06 S05 : ... .. . F06 ...
ROW 3D : ... .. . ... ... ... : ... .. 5 ... ... ... : ... .. . ... : 5-# 00 9 A0C S06 : ... .. . F07 ...
ROW 3E : A#2 00 7 A00 S05 V01 : ... .. 4 ... ... ... : A#3 00 . ... : 3-# 00 9 A0C ... : ... .. . F06 ...
ROW 3F : C#3 00 7 ... S06 ... : ... .. . ... ... ... : ... .. . S06 : ... .. . ... ... : ... .. . F07 ...

PATTERN 01
ROW 00 : D#3 00 7 V01 ... ... : F#2 00 6 461 V01 ... : D#3 00 . S05 : 1-# 00 A A0C S05 : ... .. . ... ...
ROW 01 : ... .. . ... ... ... : ... .. 5 ... ... ... : ... .. . ... : 1-# 00 A A0C S06 : ... .. . ... ...
ROW 02 : ... .. 6 471 ... ... : ... .. 4 ... ... ... : D#3 00 . S05 : 1-# 00 9 A0C S05 : ... .. . ... ...
ROW 03 : ... .. . ... ... ... : ... .. . ... ... ... : C#3 00 . S06 : 1-# 00 9 A0C S06 : ... .. . ... ...
ROW 04 : ... .. . ... ... ... : ... .. . ... ... ... : D#3 00 . S05 : 6-# 00 8 A06 ... : ... .. . ... ...
ROW 05 : ... .. . ... ... ... : ... .. . ... ... ... : ... .. . ... : ... .. . A02 ... : ... .. . ... ...
ROW 06 : ... .. . ... ... ... : ... .. . ... ... ... : D#3 00 . S05 : 1-# 00 A A0C S05 : ... .. . ... ...
ROW 07 : ... .. . ... ... ... : ... .. . ... ... ... : C#3 00 . S06 : 1-# 00 A A0C S06 : ... .. . ... ...
ROW 08 : ... .. 5 ... ... ... : ... .. . ... ... ... : D#3 00 . S05 : ... .. . ... ... : ... .. . ... ...
ROW 09 : ... .. . ... S06 ... : ... .. . ... ... ... : F#3 00 . ... : 1-# 00 A A0C S06 : ... .. . ... ...
ROW 0A : D#3 00 7 400 ... ... : ... .. . ... ... ... : ... .. . S05 : 1-# 00 A A0C S05 : ... .. . ... ...
ROW 0B : ... .. . ... S06 ... : ... .. . ... ... ... : F-3 00 . ... : ... .. . ... ... : ... .. . ... ...
ROW 0C : F-3 00 7 ... ... ... : ... .. . ... ... ... : ... .. . S05 : 6-# 00 8 A06 ... : ... .. . ... ...
ROW 0D : ... .. . ... S06 ... : ... .. . ... ... ... : C#3 00 . S06 : ... .. . A02 ... : ... .. . ... ...
ROW 0E : F#3 00 7 ... ... ... : ... .. . ... ... ... : A#2 00 . ... : 1-# 00 A A0C S05 : ... .. . ... ...
ROW 0F : ... .. . ... S06 ... : ... .. . ... ... ... : ... .. . S06 : ... .. . ... ... : ... .. . ... ...
ROW 10 : G#3 00 7 ... ... ... : D#2 00 6 ... ... ... : B-2 00 . S05 : 1-# 00 A A0C S05 : ... .. . ... ...
ROW 11 : ... .. . ... ... ... : ... .. 5 ... ... ... : ... .. . ... : 1-# 00 A A0C S06 : ... .. . ... ...
ROW 12 : ... .. 6 471 ... ... : ... .. 4 ... ... ... : B-2 00 . S05 : 1-# 00 9 A0C S05 : ... .. . ... ...
ROW 13 : ... .. . ... ... ... : ... .. . ... ... ... : A#2 00 . S06 : 1-# 00 9 A0C S06 : ... .. . ... ...
ROW 14 : ... .. . ... ... ... : ... .. . ... ... ... : B-2 00 . S05 : 6-# 00 8 A06 ... : ... .. . ... ...
ROW 15 : ... .. . ... S06 ... : ... .. . ... ... ... : ... .. . ... : ... .. . A02 ... : ... .. . ... ...
ROW 16 : F#3 00 7 400 S05 ... : ... .. . ... ... ... : B-2 00 . S05 : 1-# 00 A A0C S05 : ... .. . ... ...
ROW 17 : F-3 00 7 ... S06 ... : ... .. . ... ... ... : A#2 00 . S06 : 1-# 00 A A0C S06 : ... .. . ... ...
ROW 18 : F#3 00 7 ... ... ... : ... .. . ... ... ... : B-2 00 . S05 : ... .. . ... ... : ... .. . ... ...
ROW 19 : ... .. . ... ... ... : ... .. . ... ... ... : D#3 00 . ... : 1-# 00 A A0C S06 : ... .. . ... ...
ROW 1A : ... .. 6 ... ... ... : ... .. . ... ... ... : ... .. . S05 : 1-# 00 A A0C S05 : ... .. . ... ...
ROW 1B : ... .. . ... S06 ... : ... .. . ... ... ... : F-3 00 . ... : ... .. . ... ... : ... .. . ... ...
ROW 1C : D#3 00 7 ... ... ... : ... .. . ... ... ... : ... .. . S05 : 6-# 00 8 A06 ... : ... .. . ... ...
ROW 1D : ... .. . ... ... ... : ... .. . ... ... ... : ... .. . ... : ... .. . A02 ... : ... .. . ... ...
ROW 1E : ... .. 6 ... ... ... : ... .. . ... ... ... : F#3 00 . ... : 1-# 00 A A0C S05 : ... .. . ... ...
ROW 1F : ... .. . ... S06 ... : ... .. . ... ... ... : ... .. . S06 : ... .. . ... ... : ... .. . ... ...
ROW 20 : F-3 00 7 ... ... ... : F-2 00 6 ... ... ... : D#3 00 . S05 : 1-# 00 A A0C S05 : ... .. . ... ...
ROW 21 : ... .. . ... ... ... : ... .. 5 ... ... ... : ... .. . ... : 1-# 00 A A0C S06 : ... .. . ... ...
ROW 22 : ... .. 6 471 ... ... : ... .. 4 ... ... ... : D#3 00 . S05 : 1-# 00 9 A0C S05 : ... .. . ... ...
ROW 23 : ... .. . ... ... ... : ... .. . ... ... ... : C#3 00 . S06 : 1-# 00 9 A0C S06 : ... .. . ... ...
ROW 24 : ... .. . ... ... ... : ... .. . ... ... ... : D#3 00 . S05 : 6-# 00 8 A06 ... : ... .. . ... ...
ROW 25 : ... .. . ... ... ... : ... .. . ... ... ... : ... .. . ... : ... .. . A02 ... : ... .. . ... ...
ROW 26 : ... .. . ... ... ... : ... .. . ... ... ... : D#3 00 . S05 : 1-# 00 A A0C S05 : ... .. . ... ...
ROW 27 : ... .. . ... ... ... : ... .. . ... ... ... : C#3 00 . S06 : 1-# 00 A A0C S06 : ... .. . ... ...
ROW 28 : ... .. 5 ... ... ... : ... .. . ... ... ... : D#3 00 . S05 : ... .. . ... ... : ... .. . ... ...
ROW 29 : ... .. . ... S06 ... : ... .. . ... ... ... : F-3 00 . ... : 1-# 00 A A0C S06 : ... .. . ... ...
ROW 2A : F#3 00 7 400 ... ... : ... .. . ... ... ... : ... .. . S05 : 1-# 00 A A0C S05 : ... .. . ... ...
ROW 2B : ... .. . ... S06 ... : ... .. . ... ... ... : F#3 00 . ... : ... .. . ... ... : ... .. . ... ...
ROW 2C : G#3 00 7 ... ... ... : ... .. . ... ... ... : ... .. . S05 : 6-# 00 8 A06 ... : ... .. . ... ...
ROW 2D : ... .. . ... S06 ... : ... .. . ... ... ... : F#3 00 . S06 : ... .. . A02 ... : ... .. . ... ...
ROW 2E : D#3 00 7 ... ... ... : ... .. . ... ... ... : G#3 00 . ... : 1-# 00 A A0C S05 : ... .. . ... ...
ROW 2F : ... .. . ... S06 ... : ... .. . ... ... ... : ... .. . S06 : ... .. . ... ... : ... .. . ... ...
ROW 30 : C#3 00 7 ... ... ... : A#2 00 6 ... ... ... : F#2 00 . S05 : 1-# 00 A A0C S05 : ... .. . ... ...
ROW 31 : ... .. . ... S06 ... : ... .. 5 ... ... ... : ... .. . ... : 1-# 00 A A0C S06 : ... .. . ... ...
ROW 32 : ... .. . ... ... ... : ... .. 4 ... ... ... : F#2 00 . S05 : 1-# 00 9 A0C S05 : ... .. . ... ...
ROW 33 : ... .. . ... ... ... : ... .. . ... ... ... : F-2 00 . S06 : 1-# 00 9 A0C S06 : ... .. . ... ...
ROW 34 : B-3 00 7 ... ... ... : ... .. . ... ... ... : F#2 00 . S05 : 6-# 00 8 A06 ... : ... .. . ... ...
ROW 35 : ... .. . ... ... ... : ... .. . ... ... ... : ... .. . ... : ... .. . A02 ... : ... .. . ... ...
ROW 36 : ... .. 6 471 ... ... : ... .. . ... ... ... : F#2 00 . S05 : 1-# 00 A A0C S05 : ... .. . ... ...
ROW 37 : ... .. . ... ... ... : ... .. . ... ... ... : F-2 00 . S06 : 1-# 00 A A0C S06 : ... .. . ... ...
ROW 38 : ... .. . ... ... ... : G#2 00 6 ... ... ... : A#2 00 . S05 : ... .. . ... ... : ... .. . ... ...
ROW 39 : ... .. . ... ... ... : ... .. 5 ... ... ... : C#3 00 . ... : 1-# 00 A A0C S06 : ... .. . ... ...
ROW 3A : ... .. . ... S05 ... : ... .. 4 ... ... ... : ... .. . S05 : ... .. . ... ... : ... .. . ... ...
ROW 3B : A#3 00 7 400 S06 ... : ... .. . ... ... ... : F#3 00 . ... : 1-# 00 A A0C S06 : ... .. . ... ...
ROW 3C : G#3 00 7 ... ... ... : F#2 00 6 ... ... ... : ... .. . S05 : 6-# 00 8 A06 ... : ... .. . ... ...
ROW 3D : --- .. . ... ... ... : ... .. 5 ... ... ... : F-3 00 . S06 : ... .. . A02 ... : ... .. . ... ...
ROW 3E : F#3 00 7 ... ... ... : ... .. 4 ... ... ... : D#3 00 . S05 : 6-# 00 8 A06 ... : ... .. . ... ...
ROW 3F : ... .. . ... S06 ... : ... .. . ... ... ... : A#2 00 . S06 : ... .. . A02 ... : ... .. . ... ...

PATTERN 02
ROW 00 : F-3 00 7 V01 S05 ... : D#2 00 6 461 V01 ... : B-2 00 . S05 : 1-# 00 A A0C S05 : ... .. . ... ...
ROW 01 : D#3 00 7 ... S06 ... : ... .. 5 ... ... ... : ... .. . ... : ... .. . ... ... : ... .. . ... ...
ROW 02 : ... .. . ... ... ... : ... .. 4 ... ... ... : B-2 00 . S05 : 1-# 00 9 A0C S05 : ... .. . ... ...
ROW 03 : D#3 00 7 ... ... ... : ... .. . ... ... ... : A#2 00 . S06 : 1-# 00 9 A0C S06 : ... .. . ... ...
ROW 04 : ... .. . ... ... ... : ... .. . ... ... ... : B-2 00 . S05 : 6-# 00 8 A06 ... : ... .. . ... ...
ROW 05 : ... .. 6 471 ... ... : ... .. . ... ... ... : ... .. . ... : ... .. . A02 ... : ... .. . ... ...
ROW 06 : ... .. . ... ... ... : ... .. . ... ... ... : B-2 00 . S05 : 1-# 00 A A0C S05 : ... .. . ... ...
ROW 07 : ... .. . ... ... ... : ... .. . ... ... ... : A#2 00 . S06 : 1-# 00 A A0C S06 : ... .. . ... ...
ROW 08 : ... .. . ... ... ... : F-4 00 5 V02 400 ... : B-2 00 . S05 : ... .. . ... ... : ... .. . ... ...
ROW 09 : ... .. . ... S06 ... : D#4 00 . ... ... ... : F#3 00 . ... : 1-# 00 A A0C S06 : ... .. . ... ...
ROW 0A : D#3 00 7 400 ... ... : --- .. . ... ... ... : ... .. . S05 : 1-# 00 A A0C S05 : ... .. . ... ...
ROW 0B : ... .. . ... S06 ... : D#4 00 5 ... ... ... : F-3 00 . ... : ... .. . ... ... : ... .. . ... ...
ROW 0C : F-3 00 7 ... ... ... : ... .. 4 ... ... ... : ... .. . S05 : 6-# 00 8 A06 ... : ... .. . ... ...
ROW 0D : ... .. . ... S06 ... : ... .. . 471 ... ... : C#3 00 . S06 : ... .. . A02 ... : ... .. . ... ...
ROW 0E : F#3 00 7 ... ... ... : ... .. . ... ... ... : A#2 00 . ... : 1-# 00 A A0C S05 : ... .. . ... ...
ROW 0F : ... .. . ... S06 ... : ... .. . ... ... ... : ... .. . S06 : ... .. . ... ... : ... .. . ... ...
ROW 10 : A#3 00 7 ... S05 ... : ... .. . ... ... ... : G#2 00 . S05 : 1-# 00 A A0C S05 : ... .. . ... ...
ROW 11 : G#3 00 7 ... S06 ... : ... .. . ... ... ... : ... .. . ... : ... .. . ... ... : ... .. . ... ...
ROW 12 : ... .. . ... ... ... : ... .. 3 ... ... ... : G#2 00 . S05 : 1-# 00 9 A0C S05 : ... .. . ... ...
ROW 13 : G#3 00 7 ... ... ... : ... .. . ... ... ... : F#2 00 . S06 : 1-# 00 9 A0C S06 : ... .. . ... ...
ROW 14 : ... .. . ... ... ... : A#4 00 5 400 ... ... : G#2 00 . S05 : 6-# 00 8 A06 ... : ... .. . ... ...
ROW 15 : ... .. 6 471 ... ... : G#4 00 . ... ... ... : ... .. . ... : ... .. . A02 ... : ... .. . ... ...
ROW 16 : ... .. . ... ... ... : --- .. . ... ... ... : G#2 00 . S05 : 1-# 00 A A0C S05 : ... .. . ... ...
ROW 17 : ... .. . ... ... ... : B-4 00 5 ... ... ... : F#2 00 . S06 : 1-# 00 A A0C S06 : ... .. . ... ...
ROW 18 : ... .. . ... ... ... : ... .. 4 ... ... ... : G#2 00 . S05 : ... .. . ... ... : ... .. . ... ...
ROW 19 : ... .. . ... ... ... : ... .. . 471 ... ... : B-2 00 . ... : 1-# 00 A A0C S06 : ... .. . ... ...
ROW 1A : ... .. 5 ... ... ... : ... .. . ... ... ... : ... .. . S05 : 1-# 00 A A0C S05 : ... .. . ... ...
ROW 1B : ... .. . ... S06 ... : ... .. . ... ... ... : C#3 00 . ... : ... .. . ... ... : ... .. . ... ...
ROW 1C : F#3 00 7 400 ... ... : B-4 00 5 400 ... ... : ... .. . S05 : 6-# 00 8 A06 ... : ... .. . ... ...
ROW 1D : ... .. . ... ... ... : ... .. 4 ... ... ... : ... .. . ... : ... .. . A02 ... : ... .. . ... ...
ROW 1E : ... .. 6 ... ... ... : ... .. . ... ... ... : D#3 00 . ... : 1-# 00 A A0C S05 : ... .. . ... ...
ROW 1F : ... .. . ... S06 ... : ... .. . ... ... ... : ... .. . S06 : ... .. . ... ... : ... .. . ... ...
ROW 20 : F-3 00 7 ... ... ... : A#4 00 5 ... ... ... : A#2 00 . S05 : 1-# 00 A A0C S05 : ... .. . ... ...
ROW 21 : ... .. . ... ... ... : ... .. 4 ... ... ... : ... .. . ... : 1-# 00 A A0C S06 : ... .. . ... ...
ROW 22 : ... .. 6 471 ... ... : ... .. . 471 ... ... : A#2 00 . S05 : 1-# 00 9 A0C S05 : ... .. . ... ...
ROW 23 : ... .. . ... ... ... : ... .. . ... ... ... : G#2 00 . S06 : 1-# 00 9 A0C S06 : ... .. . ... ...
ROW 24 : ... .. . ... ... ... : ... .. . ... ... ... : A#2 00 . S05 : 6-# 00 8 A06 ... : ... .. . ... ...
ROW 25 : ... .. . ... ... ... : ... .. . ... ... ... : ... .. . ... : ... .. . A02 ... : ... .. . ... ...
ROW 26 : ... .. . ... ... ... : ... .. . ... ... ... : A#2 00 . S05 : 1-# 00 A A0C S05 : ... .. . ... ...
ROW 27 : ... .. . ... ... ... : ... .. . ... ... ... : G#2 00 . S06 : 1-# 00 A A0C S06 : ... .. . ... ...
ROW 28 : ... .. 5 ... ... ... : ... .. 3 ... ... ... : A#2 00 . S05 : ... .. . ... ... : ... .. . ... ...
ROW 29 : ... .. . ... S06 ... : ... .. . ... ... ... : F#3 00 . ... : 1-# 00 A A0C S06 : ... .. . ... ...
ROW 2A : F#3 00 7 400 ... ... : ... .. . ... ... ... : ... .. . S05 : 1-# 00 A A0C S05 : ... .. . ... ...
ROW 2B : ... .. . ... S06 ... : ... .. . ... ... ... : F-3 00 . ... : ... .. . ... ... : ... .. . ... ...
ROW 2C : G#3 00 7 ... ... ... : ... .. 2 ... ... ... : ... .. . S05 : 6-# 00 8 A06 ... : ... .. . ... ...
ROW 2D : ... .. . ... S06 ... : ... .. . ... ... ... : C#3 00 . S06 : ... .. . A02 ... : ... .. . ... ...
ROW 2E : A#3 00 7 ... ... ... : ... .. . ... ... ... : A#2 00 . ... : 1-# 00 A A0C S05 : ... .. . ... ...
ROW 2F : ... .. . ... S06 ... : ... .. . ... ... ... : ... .. . S06 : ... .. . ... ... : ... .. . ... ...
ROW 30 : B-3 00 7 ... ... ... : --- .. 1 400 ... ... : A#2 00 . S05 : 1-# 00 A A0C S05 : ... .. . ... ...
ROW 31 : ... .. . ... S06 ... : ... .. . ... ... ... : A#2 00 . S06 : 1-# 00 A A0C S06 : ... .. . ... ...
ROW 32 : ... .. . ... ... ... : ... .. . ... ... ... : ... .. . ... : ... .. . ... ... : ... .. . ... ...
ROW 33 : ... .. . ... ... ... : ... .. . ... ... ... : ... .. . ... : ... .. . ... ... : ... .. . ... ...
ROW 34 : A#3 00 7 ... ... ... : C#2 00 6 461 V01 ... : A#2 00 . ... : 6-# 00 8 A06 ... : ... .. . ... ...
ROW 35 : ... .. . ... ... ... : ... .. 5 ... ... ... : ... .. . ... : ... .. . A02 ... : ... .. . ... ...
ROW 36 : ... .. 6 471 ... ... : ... .. 4 ... ... ... : ... .. . ... : ... .. . ... ... : ... .. . ... ...
ROW 37 : ... .. . ... ... ... : ... .. . ... ... ... : ... .. . ... : ... .. . ... ... : ... .. . ... ...
ROW 38 : ... .. . ... ... ... : ... .. . ... ... ... : ... .. . S05 : 1-# 00 6 A0C S06 : ... .. . ... ...
ROW 39 : ... .. . ... S06 ... : ... .. . ... ... ... : F#3 00 . ... : 4-# 00 8 A08 ... : ... .. . ... ...
ROW 3A : G#3 00 7 400 ... ... : ... .. . ... ... ... : ... .. . S05 : ... .. . ... S05 : ... .. . ... ...
ROW 3B : ... .. . ... ... ... : ... .. . ... ... ... : F-3 00 . S06 : 3-# 00 8 ... S06 : ... .. . ... ...
ROW 3C : ... .. 6 ... ... ... : ... .. . ... ... ... : D#3 00 . S05 : 3-# 00 8 ... S05 : ... .. . ... ...
ROW 3D : ... .. . ... S06 ... : ... .. . ... ... ... : ... .. . ... : 2-# 00 8 ... S06 : ... .. . ... ...
ROW 3E : A#3 00 7 ... ... ... : ... .. . ... ... ... : C#3 00 . ... : 1-# 00 A A0C S05 : ... .. . ... ...
ROW 3F : ... .. . ... S06 ... : ... .. . ... ... ... : ... .. . S06 : 7-# 00 7 A06 ... : ... .. . ... ...

PATTERN 03
ROW 00 : F#3 00 7 ... ... ... : --- .. . ... ... ... : B-2 00 . S05 : 1-# 00 A A0C S05 : ... .. . ... ...
ROW 01 : ... .. . ... ... ... : B-1 00 6 461 V01 ... : ... .. . ... : 1-# 00 A A0C S06 : ... .. . ... ...
ROW 02 : ... .. 6 471 ... ... : D#2 00 6 ... ... ... : B-2 00 . S05 : 1-# 00 9 A0C S05 : ... .. . ... ...
ROW 03 : ... .. . ... ... ... : F#2 00 6 ... ... ... : A#2 00 . S06 : 1-# 00 9 A0C S06 : ... .. . ... ...
ROW 04 : ... .. . ... ... ... : A#2 00 6 ... ... ... : B-2 00 . S05 : 6-# 00 8 A06 ... : ... .. . ... ...
ROW 05 : ... .. . ... ... ... : ... .. . ... ... ... : ... .. . ... : ... .. . A02 ... : ... .. . ... ...
ROW 06 : ... .. . ... ... ... : ... .. 5 ... ... ... : B-2 00 . S05 : 1-# 00 A A0C S05 : ... .. . ... ...
ROW 07 : ... .. . ... ... ... : ... .. . ... ... ... : A#2 00 . S06 : 1-# 00 A A0C S06 : ... .. . ... ...
ROW 08 : ... .. 5 ... ... ... : ... .. . ... ... ... : B-2 00 . S05 : ... .. . ... ... : ... .. . ... ...
ROW 09 : ... .. . ... S06 ... : ... .. . ... ... ... : F#3 00 . ... : 1-# 00 A A0C S06 : ... .. . ... ...
ROW 0A : D#3 00 7 400 ... ... : ... .. . ... ... ... : ... .. . S05 : 1-# 00 A A0C S05 : ... .. . ... ...
ROW 0B : ... .. . ... S06 ... : ... .. . ... ... ... : F-3 00 . ... : ... .. . ... ... : ... .. . ... ...
ROW 0C : F-3 00 7 ... ... ... : ... .. . ... ... ... : ... .. . S05 : 6-# 00 8 A06 ... : ... .. . ... ...
ROW 0D : ... .. . ... S06 ... : ... .. . ... ... ... : C#3 00 . S06 : ... .. . A02 ... : ... .. . ... ...
ROW 0E : F#3 00 7 ... ... ... : ... .. 4 ... ... ... : B-2 00 . ... : 1-# 00 A A0C S05 : ... .. . ... ...
ROW 0F : ... .. . ... S06 ... : ... .. . ... ... ... : ... .. . S06 : ... .. . ... ... : ... .. . ... ...
ROW 10 : F#3 00 7 ... ... ... : --- .. . ... ... ... : C#3 00 . S05 : 1-# 00 A A0C S05 : ... .. . ... ...
ROW 11 : G#3 00 . ... ... ... : C#2 00 6 ... ... ... : ... .. . ... : 1-# 00 A A0C S06 : ... .. . ... ...
ROW 12 : ... .. 6 471 ... ... : F-2 00 6 ... ... ... : C#3 00 . S05 : 1-# 00 9 A0C S05 : ... .. . ... ...
ROW 13 : ... .. . ... ... ... : F#2 00 6 ... ... ... : B-2 00 . S06 : 1-# 00 9 A0C S06 : ... .. . ... ...
ROW 14 : ... .. . ... ... ... : G#2 00 6 ... ... ... : C#3 00 . S05 : 6-# 00 8 A06 ... : ... .. . ... ...
ROW 15 : ... .. . ... ... ... : ... .. . ... ... ... : ... .. . ... : ... .. . A02 ... : ... .. . ... ...
ROW 16 : ... .. . ... ... ... : ... .. 5 ... ... ... : C#3 00 . S05 : 1-# 00 A A0C S05 : ... .. . ... ...
ROW 17 : ... .. . ... ... ... : ... .. . ... ... ... : B-2 00 . S06 : 1-# 00 A A0C S06 : ... .. . ... ...
ROW 18 : ... .. 5 ... ... ... : ... .. . ... ... ... : C#3 00 . S05 : ... .. . ... ... : ... .. . ... ...
ROW 19 : ... .. . ... S06 ... : ... .. . ... ... ... : F-3 00 . ... : 1-# 00 A A0C S06 : ... .. . ... ...
ROW 1A : F#3 00 7 400 ... ... : ... .. . ... ... ... : ... .. . S05 : 1-# 00 A A0C S05 : ... .. . ... ...
ROW 1B : --- .. . ... ... ... : ... .. . ... ... ... : F#3 00 . ... : ... .. . ... ... : ... .. . ... ...
ROW 1C : F-3 00 7 ... S06 ... : ... .. . ... ... ... : ... .. . S05 : 6-# 00 8 A06 ... : ... .. . ... ...
ROW 1D : A#2 00 7 ... ... ... : ... .. . ... ... ... : ... .. . ... : ... .. . A02 ... : ... .. . ... ...
ROW 1E : ... .. . ... ... ... : ... .. 4 ... ... ... : G#3 00 . S05 : ... .. . ... ... : ... .. . ... ...
ROW 1F : ... .. . ... ... ... : ... .. . ... ... ... : D#3 00 . ... : 1-# 00 A A0C S06 : ... .. . ... ...
ROW 20 : --- 00 . ... ... ... : --- .. . ... ... ... : ... .. . S05 : ... .. . ... ... : ... .. . ... ...
ROW 21 : D#3 00 7 ... ... ... : D#2 00 6 ... ... ... : D#3 00 . S06 : 6-# 00 8 A06 ... : ... .. . ... ...
ROW 22 : ... .. . ... ... ... : ... .. 4 ... ... ... : A#2 00 . S05 : ... .. . A02 ... : ... .. . ... ...
ROW 23 : ... .. . ... S06 ... : ... .. . ... ... ... : C#3 00 . S06 : 1-# 00 A A0C S06 : ... .. . ... ...
ROW 24 : F-3 00 7 ... ... ... : D#2 00 5 ... ... ... : D#3 00 . S05 : 1-# 00 A A0C S05 : ... .. . ... ...
ROW 25 : --- .. . ... ... ... : --- .. . ... ... ... : ... .. . ... : ... .. . ... ... : ... .. . ... ...
ROW 26 : F#3 00 7 ... ... ... : D#2 00 5 ... ... ... : F-3 00 . S05 : 1-# 00 A A0C S05 : ... .. . ... ...
ROW 27 : ... .. . ... S06 ... : --- .. . ... ... ... : F#3 00 . S06 : ... .. . ... ... : ... .. . ... ...
ROW 28 : G#3 00 7 ... ... ... : D#2 00 5 ... ... ... : F-3 00 . S05 : 1-# 00 A A0C S05 : ... .. . ... ...
ROW 29 : ... .. . ... ... ... : ... .. 4 ... ... ... : F#3 00 . S06 : 1-# 00 A A0C S06 : ... .. . ... ...
ROW 2A : ... .. 6 ... S06 ... : ... .. . ... ... ... : F-3 00 . S05 : 1-# 00 A A0C S05 : ... .. . ... ...
ROW 2B : A#3 00 7 ... ... ... : D#2 00 5 ... ... ... : D#3 00 . ... : 6-# 00 8 A06 ... : ... .. . ... ...
ROW 2C : ... .. . ... ... ... : ... .. 4 ... ... ... : ... .. . S05 : ... .. . A02 ... : ... .. . ... ...
ROW 2D : ... .. 6 ... ... ... : ... .. . ... ... ... : C#3 00 . S06 : 4-# 00 8 A08 S06 : ... .. . ... ...
ROW 2E : ... .. . ... ... ... : ... .. . ... ... ... : B-2 00 . S05 : 3-# 00 8 ... S05 : ... .. . ... ...
ROW 2F : ... .. . S06 D00 ... : ... .. . ... ... ... : A#2 00 . S06 : 2-# 00 8 ... S06 : ... .. . ... ...
ROW 30 : ... .. . ... ... ... : ... .. . ... ... ... : ... .. . ... : ... .. . ... ... : ... .. . ... ...
ROW 31 : ... .. . ... ... ... : ... .. . ... ... ... : ... .. . ... : ... .. . ... ... : ... .. . ... ...
ROW 32 : ... .. . ... ... ... : ... .. . ... ... ... : ... .. . ... : ... .. . ... ... : ... .. . ... ...
ROW 33 : ... .. . ... ... ... : ... .. . ... ... ... : ... .. . ... : ... .. . ... ... : ... .. . ... ...
ROW 34 : ... .. . ... ... ... : ... .. . ... ... ... : ... .. . ... : ... .. . ... ... : ... .. . ... ...
ROW 35 : ... .. . ... ... ... : ... .. . ... ... ... : ... .. . ... : ... .. . ... ... : ... .. . ... ...
ROW 36 : ... .. . ... ... ... : ... .. . ... ... ... : ... .. . ... : ... .. . ... ... : ... .. . ... ...
ROW 37 : ... .. . ... ... ... : ... .. . ... ... ... : ... .. . ... : ... .. . ... ... : ... .. . ... ...
ROW 38 : ... .. . ... ... ... : ... .. . ... ... ... : ... .. . ... : ... .. . ... ... : ... .. . ... ...
ROW 39 : ... .. . ... ... ... : ... .. . ... ... ... : ... .. . ... : ... .. . ... ... : ... .. . ... ...
ROW 3A : ... .. . ... ... ... : ... .. . ... ... ... : ... .. . ... : ... .. . ... ... : ... .. . ... ...
ROW 3B : ... .. . ... ... ... : ... .. . ... ... ... : ... .. . ... : ... .. . ... ... : ... .. . ... ...
ROW 3C : ... .. . ... ... ... : ... .. . ... ... ... : ... .. . ... : ... .. . ... ... : ... .. . ... ...
ROW 3D : ... .. . ... ... ... : ... .. . ... ... ... : ... .. . ... : ... .. . ... ... : ... .. . ... ...
ROW 3E : ... .. . ... ... ... : ... .. . ... ... ... : ... .. . ... : ... .. . ... ... : ... .. . ... ...
ROW 3F : ... .. . ... ... ... : ... .. . ... ... ... : ... .. . ... : ... .. . ... ... : ... .. . ... ...

PATTERN 04
ROW 00 : F#3 00 7 ... ... ... : A#3 00 8 V02 A06 400 : B-2 00 . S05 : 1-# 00 A A0C S05 : ... .. . ... ...
ROW 01 : ... .. . ... ... ... : F#3 00 8 ... ... ... : ... .. . ... : 1-# 00 A A0C S06 : ... .. . ... ...
ROW 02 : ... .. 6 471 ... ... : D#3 00 8 ... ... ... : B-2 00 . S05 : 1-# 00 9 A0C S05 : ... .. . ... ...
ROW 03 : ... .. . ... ... ... : B-2 00 8 ... ... ... : A#2 00 . S06 : 1-# 00 9 A0C S06 : ... .. . ... ...
ROW 04 : ... .. . ... ... ... : D#3 00 8 ... ... ... : B-2 00 . S05 : 6-# 00 8 A06 ... : ... .. . ... ...
ROW 05 : ... .. . ... ... ... : B-2 00 8 ... ... ... : ... .. . ... : ... .. . A02 ... : ... .. . ... ...
ROW 06 : ... .. . ... ... ... : D#3 00 8 ... ... ... : B-2 00 . S05 : 1-# 00 A A0C S05 : ... .. . ... ...
ROW 07 : ... .. . ... ... ... : F#3 00 8 ... ... ... : A#2 00 . S06 : 1-# 00 A A0C S06 : ... .. . ... ...
ROW 08 : ... .. 5 ... ... ... : D#3 00 8 ... ... ... : B-2 00 . S05 : ... .. . ... ... : ... .. . ... ...
ROW 09 : ... .. . ... S06 ... : B-2 00 8 ... ... ... : F#3 00 . ... : 1-# 00 A A0C S06 : ... .. . ... ...
ROW 0A : D#3 00 7 400 ... ... : F#3 00 8 ... ... ... : ... .. . S05 : 1-# 00 A A0C S05 : ... .. . ... ...
ROW 0B : ... .. . ... S06 ... : D#3 00 8 ... ... ... : F-3 00 . ... : ... .. . ... ... : ... .. . ... ...
ROW 0C : F-3 00 7 ... ... ... : B-2 00 8 ... ... ... : ... .. . S05 : 6-# 00 8 A06 ... : ... .. . ... ...
ROW 0D : ... .. . ... S06 ... : F#2 00 8 ... ... ... : C#3 00 . S06 : ... .. . A02 ... : ... .. . ... ...
ROW 0E : F#3 00 7 ... ... ... : D#2 00 8 ... ... ... : B-2 00 . ... : 1-# 00 A A0C S05 : ... .. . ... ...
ROW 0F : ... .. . ... S06 ... : F#2 00 8 ... ... ... : ... .. . S06 : ... .. . ... ... : ... .. . ... ...
ROW 10 : F#3 00 7 ... ... ... : G#3 00 8 ... ... ... : C#3 00 . S05 : 1-# 00 A A0C S05 : ... .. . ... ...
ROW 11 : G#3 00 . ... ... ... : F-3 00 8 ... ... ... : ... .. . ... : 1-# 00 A A0C S06 : ... .. . ... ...
ROW 12 : ... .. 6 471 ... ... : C#3 00 8 ... ... ... : C#3 00 . S05 : 1-# 00 9 A0C S05 : ... .. . ... ...
ROW 13 : ... .. . ... ... ... : G#2 00 8 ... ... ... : B-2 00 . S06 : 1-# 00 9 A0C S06 : ... .. . ... ...
ROW 14 : ... .. . ... ... ... : C#3 00 8 ... ... ... : C#3 00 . S05 : 6-# 00 8 A06 ... : ... .. . ... ...
ROW 15 : ... .. . ... ... ... : G#2 00 8 ... ... ... : ... .. . ... : ... .. . A02 ... : ... .. . ... ...
ROW 16 : ... .. . ... ... ... : C#3 00 8 ... ... ... : C#3 00 . S05 : 1-# 00 A A0C S05 : ... .. . ... ...
ROW 17 : ... .. . ... ... ... : F-3 00 8 ... ... ... : B-2 00 . S06 : 1-# 00 A A0C S06 : ... .. . ... ...
ROW 18 : ... .. 5 ... ... ... : G#3 00 8 ... ... ... : C#3 00 . S05 : ... .. . ... ... : ... .. . ... ...
ROW 19 : ... .. . ... S06 ... : C#4 00 8 ... ... ... : F-3 00 . ... : 1-# 00 A A0C S06 : ... .. . ... ...
ROW 1A : A#3 00 7 400 ... ... : F-4 00 8 ... ... ... : ... .. . S05 : 1-# 00 A A0C S05 : ... .. . ... ...
ROW 1B : --- .. . ... ... ... : C#4 00 8 ... ... ... : F#3 00 . ... : ... .. . ... ... : ... .. . ... ...
ROW 1C : B-3 00 7 ... S05 ... : G#4 00 8 ... ... ... : ... .. . S05 : 6-# 00 8 A06 ... : ... .. . ... ...
ROW 1D : A#3 00 7 ... ... ... : F-4 00 8 ... ... ... : ... .. . ... : 1-# 00 A A0C S06 : ... .. . ... ...
ROW 1E : ... .. . ... ... ... : C#4 00 8 ... ... ... : G#3 00 . S05 : ... .. . ... ... : ... .. . ... ...
ROW 1F : ... .. . ... S06 ... : G#3 00 8 ... ... ... : A#2 00 . ... : 1-# 00 A A0C S06 : ... .. . ... ...
ROW 20 : --- .. . ... ... ... : --- .. . ... ... ... : ... .. . S05 : ... .. . ... ... : ... .. . ... ...
ROW 21 : A#3 00 7 ... ... ... : F-2 00 5 461 V01 A00 : A#2 00 . S06 : 6-# 00 8 A06 ... : ... .. . ... ...
ROW 22 : ... .. . ... ... ... : ... .. 4 ... ... ... : F-2 00 . S05 : ... .. . A02 ... : ... .. . ... ...
ROW 23 : ... .. 6 ... S06 ... : ... .. . ... ... ... : G#2 00 . S06 : 1-# 00 A A0C S06 : ... .. . ... ...
ROW 24 : G#3 00 7 ... ... ... : F-2 00 5 ... ... ... : A#2 00 . S05 : 1-# 00 A A0C S06 : ... .. . ... ...
ROW 25 : --- .. . ... ... ... : --- .. . ... ... ... : ... .. . ... : ... .. . ... ... : ... .. . ... ...
ROW 26 : F#3 00 7 ... ... ... : F-2 00 5 ... ... ... : G#2 00 . S05 : 1-# 00 A A0C S06 : ... .. . ... ...
ROW 27 : ... .. . ... S06 ... : --- .. . ... ... ... : A#2 00 . S06 : ... .. . ... ... : ... .. . ... ...
ROW 28 : F-3 00 7 ... ... ... : F-2 00 4 P7E ... ... : G#2 00 . S05 : 1-# 00 A A0C S06 : ... .. . ... ...
ROW 29 : ... .. . ... ... ... : ... .. 3 ... ... ... : A#2 00 . S06 : 1-# 00 A A0C S06 : ... .. . ... ...
ROW 2A : ... .. 6 ... S05 ... : ... .. . ... ... ... : G#2 00 . S05 : 1-# 00 A A0C S06 : ... .. . ... ...
ROW 2B : E-3 00 7 ... ... ... : F-2 00 5 P80 ... ... : F#2 00 . ... : 4-# 00 8 A08 S06 : ... .. . ... ...
ROW 2C : ... .. . ... ... ... : ... .. 4 ... ... ... : ... .. . S05 : ... .. . ... ... : ... .. . ... ...
ROW 2D : ... .. 6 ... S06 ... : ... .. . ... ... ... : F-2 00 . S06 : ... .. . ... ... : ... .. . ... ...
ROW 2E : D#3 00 7 ... ... ... : F-2 00 5 ... ... ... : E-2 00 . S05 : 3-# 00 8 A08 S05 : ... .. . ... ...
ROW 2F : ... .. . ... S06 ... : ... .. 4 ... ... ... : D#2 00 . S06 : ... .. . ... ... : ... .. . ... ...
ROW 30 : D-3 00 7 ... ... ... : F-2 00 5 ... ... ... : G#2 00 . S05 : 2-# 00 8 A08 S06 : ... .. . ... ...
ROW 31 : ... .. . ... ... ... : ... .. 4 ... ... ... : G#2 00 . ... : 1-# 00 A A0C S06 : ... .. . ... ...
ROW 32 : ... .. 6 472 ... ... : ... .. . ... ... ... : ... .. . S05 : 1-# 00 A A0C S06 : ... .. . ... ...
ROW 33 : ... .. . ... ... ... : ... .. . ... ... ... : A#2 00 . S06 : ... .. . ... ... : ... .. . ... ...
ROW 34 : ... .. . ... ... ... : ... .. . ... ... ... : ... .. . ... : 6-# 00 8 A06 ... : ... .. . ... ...
ROW 35 : ... .. . ... ... ... : ... .. . ... ... ... : G#2 00 . ... : 1-# 00 A A0C S06 : ... .. . ... ...
ROW 36 : ... .. . ... ... ... : ... .. . ... ... ... : ... .. . S05 : 1-# 00 A A0C S06 : ... .. . ... ...
ROW 37 : ... .. . ... ... ... : ... .. . ... ... ... : A#2 00 . S06 : 6-# 00 8 A06 ... : ... .. . ... ...
ROW 38 : ... .. 5 474 ... ... : ... .. 3 ... ... ... : ... .. . ... : ... .. . A02 ... : ... .. . ... ...
ROW 39 : ... .. . ... ... ... : ... .. . ... ... ... : ... .. . ... : ... .. . ... ... : ... .. . ... ...
ROW 3A : ... .. 4 ... ... ... : ... .. 2 ... ... ... : ... .. . ... : ... .. . ... ... : ... .. . ... ...
ROW 3B : ... .. . ... ... ... : ... .. . ... ... ... : ... .. . ... : ... .. . ... ... : ... .. . ... ...
ROW 3C : ... .. 3 ... ... ... : --- .. . ... ... ... : A#3 00 . S05 : 1-# 00 A A0C S06 : ... .. . ... ...
ROW 3D : ... .. 2 ... ... ... : ... .. . ... ... ... : B-3 00 . S06 : 4-# 00 8 A08 S06 : ... .. . ... ...
ROW 3E : ... .. 1 ... ... ... : ... .. . ... ... ... : A-3 00 . S05 : 3-# 00 8 ... S05 : ... .. . ... ...
ROW 3F : --- .. . ... ... ... : ... .. . ... ... ... : A#2 00 . S06 : 2-# 00 8 ... S06 : ... .. . ... ...

PATTERN 05
ROW 00 : ... .. . ... ... ... : F#2 00 6 461 V01 ... : D#3 00 . S05 : 1-# 00 A A0C S05 : ... .. . ... ...
ROW 01 : ... .. . ... ... ... : ... .. 5 ... ... ... : ... .. . ... : 1-# 00 A A0C S06 : ... .. . ... ...
ROW 02 : ... .. . ... ... ... : ... .. 4 ... ... ... : D#3 00 . S05 : 1-# 00 9 A0C S05 : ... .. . ... ...
ROW 03 : ... .. . ... ... ... : ... .. . ... ... ... : C#3 00 . S06 : 1-# 00 9 A0C S06 : ... .. . ... ...
ROW 04 : A#2 00 7 400 ... ... : ... .. . ... ... ... : D#3 00 . S05 : 6-# 00 8 A06 ... : ... .. . ... ...
ROW 05 : ... .. . ... ... ... : ... .. . ... ... ... : ... .. . ... : ... .. . A02 ... : ... .. . ... ...
ROW 06 : ... .. 6 ... ... ... : ... .. . ... ... ... : D#3 00 . S05 : 1-# 00 A A0C S05 : ... .. . ... ...
ROW 07 : ... .. . ... S06 ... : ... .. . ... ... ... : C#3 00 . S06 : 1-# 00 A A0C S06 : ... .. . ... ...
ROW 08 : F-3 00 7 ... ... ... : ... .. . ... ... ... : D#3 00 . ... : ... .. . ... ... : ... .. . ... ...
ROW 09 : ... .. . ... S06 ... : ... .. . ... ... ... : ... .. . S06 : 1-# 00 A A0C S06 : ... .. . ... ...
ROW 0A : G-3 00 7 ... S05 ... : ... .. . ... ... ... : F#3 00 . S05 : 1-# 00 A A0C S05 : ... .. . ... ...
ROW 0B : G#3 00 7 ... ... ... : ... .. . ... ... ... : G#3 00 . S06 : ... .. . ... ... : ... .. . ... ...
ROW 0C : --- .. . ... ... ... : ... .. . ... ... ... : ... .. . ... : 6-# 00 8 A06 ... : ... .. . ... ...
ROW 0D : A#3 00 7 ... ... ... : ... .. . ... ... ... : ... .. . ... : ... .. . A02 ... : ... .. . ... ...
ROW 0E : --- .. . ... ... ... : ... .. 3 ... ... ... : D#3 00 . ... : 1-# 00 A A0C S05 : ... .. . ... ...
ROW 0F : F#3 00 7 ... ... ... : ... .. . ... ... ... : ... .. . S06 : ... .. . ... ... : ... .. . ... ...
ROW 10 : ... .. . ... ... ... : G#2 00 6 ... ... ... : C#3 00 . S05 : 1-# 00 A A0C S05 : ... .. . ... ...
ROW 11 : ... .. 6 471 ... ... : ... .. 5 ... ... ... : ... .. . ... : 1-# 00 A A0C S06 : ... .. . ... ...
ROW 12 : ... .. . ... ... ... : ... .. 4 ... ... ... : C#3 00 . S05 : 1-# 00 9 A0C S05 : ... .. . ... ...
ROW 13 : ... .. . ... S06 ... : ... .. . ... ... ... : B-2 00 . S06 : 1-# 00 9 A0C S06 : ... .. . ... ...
ROW 14 : A#2 00 7 400 ... ... : ... .. . ... ... ... : C#3 00 . S05 : 6-# 00 8 A06 ... : ... .. . ... ...
ROW 15 : ... .. . ... ... ... : ... .. . ... ... ... : ... .. . ... : ... .. . A02 ... : ... .. . ... ...
ROW 16 : ... .. 6 ... ... ... : ... .. . ... ... ... : C#3 00 . S05 : 1-# 00 A A0C S05 : ... .. . ... ...
ROW 17 : ... .. . ... S06 ... : ... .. . ... ... ... : B-2 00 . S06 : 1-# 00 A A0C S06 : ... .. . ... ...
ROW 18 : F-3 00 7 ... ... ... : ... .. . ... ... ... : C#3 00 . ... : ... .. . ... ... : ... .. . ... ...
ROW 19 : ... .. . ... S06 ... : ... .. . ... ... ... : ... .. . S06 : 1-# 00 A A0C S06 : ... .. . ... ...
ROW 1A : F#3 00 7 ... ... ... : ... .. . ... ... ... : F-3 00 . S05 : 1-# 00 A A0C S05 : ... .. . ... ...
ROW 1B : G#3 00 7 ... ... ... : ... .. . ... ... ... : F#3 00 . S06 : ... .. . ... ... : ... .. . ... ...
ROW 1C : --- .. . ... ... ... : ... .. . ... ... ... : ... .. . ... : 6-# 00 8 A06 ... : ... .. . ... ...
ROW 1D : A#3 00 7 ... ... ... : ... .. . ... ... ... : F#3 00 . ... : 1-# 00 A A0C S05 : ... .. . ... ...
ROW 1E : --- .. . ... ... ... : ... .. 3 ... ... ... : ... .. . S05 : ... .. . ... ... : ... .. . ... ...
ROW 1F : F#3 00 7 ... ... ... : ... .. . ... ... ... : C-3 00 . ... : 1-# 00 A A0C S05 : ... .. . ... ...
ROW 20 : ... .. . ... S05 ... : A#2 00 6 ... ... ... : ... .. . ... : 1-# 00 A A0C S05 : ... .. . ... ...
ROW 21 : F-3 00 7 ... S06 ... : ... .. 5 ... ... ... : ... .. . S06 : 1-# 00 A A0C S06 : ... .. . ... ...
ROW 22 : D#3 00 7 ... ... ... : ... .. 4 ... ... ... : C-3 00 . S05 : 1-# 00 9 A0C S05 : ... .. . ... ...
ROW 23 : ... .. . ... ... ... : ... .. . ... ... ... : A#2 00 . S06 : 1-# 00 9 A0C S06 : ... .. . ... ...
ROW 24 : ... .. 6 472 ... ... : ... .. . ... ... ... : C-3 00 . S05 : 6-# 00 8 A06 ... : ... .. . ... ...
ROW 25 : ... .. . ... ... ... : ... .. . ... ... ... : ... .. . ... : ... .. . A02 ... : ... .. . ... ...
ROW 26 : ... .. . ... ... ... : ... .. . ... ... ... : C-3 00 . S05 : 1-# 00 A A0C S05 : ... .. . ... ...
ROW 27 : ... .. . ... ... ... : ... .. . ... ... ... : A#2 00 . S06 : 1-# 00 A A0C S06 : ... .. . ... ...
ROW 28 : ... .. . ... ... ... : ... .. . ... ... ... : C-3 00 . S05 : ... .. . ... ... : ... .. . ... ...
ROW 29 : ... .. . ... ... ... : ... .. . ... ... ... : F-3 00 . ... : 1-# 00 A A0C S06 : ... .. . ... ...
ROW 2A : ... .. 5 ... ... ... : ... .. . ... ... ... : ... .. . S05 : 1-# 00 A A0C S05 : ... .. . ... ...
ROW 2B : ... .. . ... ... ... : ... .. . ... ... ... : F#3 00 . S06 : ... .. . ... ... : ... .. . ... ...
ROW 2C : F-3 00 7 400 ... ... : ... .. . ... ... ... : ... .. . ... : 6-# 00 8 A06 ... : ... .. . ... ...
ROW 2D : ... .. . ... S06 ... : ... .. . ... ... ... : ... .. . ... : ... .. . A02 ... : ... .. . ... ...
ROW 2E : F#3 00 7 ... ... ... : ... .. 3 ... ... ... : G#3 00 . ... : 1-# 00 A A0C S05 : ... .. . ... ...
ROW 2F : ... .. . ... S06 ... : ... .. . ... ... ... : ... .. . S06 : ... .. . ... ... : ... .. . ... ...
ROW 30 : G#3 00 7 ... S05 ... : B-2 00 6 ... ... ... : B-2 00 . S05 : 1-# 00 A A0C S05 : ... .. . ... ...
ROW 31 : F#3 00 7 ... S06 ... : ... .. 5 ... ... ... : ... .. . ... : 1-# 00 A A0C S06 : ... .. . ... ...
ROW 32 : F-3 00 7 ... S05 ... : ... .. 4 ... ... ... : B-2 00 . S05 : 1-# 00 9 A0C S05 : ... .. . ... ...
ROW 33 : A#2 00 7 ... ... ... : ... .. . ... ... ... : A#2 00 . S06 : 1-# 00 9 A0C S06 : ... .. . ... ...
ROW 34 : ... .. . ... ... ... : ... .. . ... ... ... : B-2 00 . S05 : 6-# 00 8 A06 ... : ... .. . ... ...
ROW 35 : ... .. 6 472 ... ... : ... .. . ... ... ... : ... .. . ... : ... .. . A02 ... : ... .. . ... ...
ROW 36 : ... .. . ... ... ... : ... .. . ... ... ... : B-2 00 . S05 : 1-# 00 A A0C S05 : ... .. . ... ...
ROW 37 : ... .. . ... ... ... : ... .. . ... ... ... : A#2 00 . S06 : 1-# 00 A A0C S06 : ... .. . ... ...
ROW 38 : ... .. . ... ... ... : A#2 00 6 ... ... ... : A#2 00 . S05 : ... .. . ... ... : ... .. . ... ...
ROW 39 : ... .. . ... ... ... : ... .. 5 ... ... ... : F#3 00 . ... : 1-# 00 A A0C S06 : ... .. . ... ...
ROW 3A : ... .. . ... ... ... : ... .. 4 ... ... ... : ... .. . S05 : ... .. . ... ... : ... .. . ... ...
ROW 3B : ... .. . ... ... ... : ... .. . ... ... ... : F-3 00 . S06 : 6-# 00 8 A06 ... : ... .. . ... ...
ROW 3C : ... .. 5 ... ... ... : F-2 00 6 ... ... ... : C#3 00 . S05 : 6-# 00 8 A06 ... : ... .. . ... ...
ROW 3D : ... .. . ... ... ... : ... .. 5 ... ... ... : ... .. . ... : ... .. . A02 ... : ... .. . ... ...
ROW 3E : ... .. . ... ... ... : ... .. 4 ... ... ... : A#2 00 . ... : 1-# 00 A A0C S06 : ... .. . ... ...
ROW 3F : ... .. . ... ... ... : ... .. . ... ... ... : ... .. . S06 : ... .. . ... ... : ... .. . ... ...

PATTERN 06
ROW 00 : ... .. 4 ... ... ... : F#3 00 6 461 V01 ... : D#3 00 . S05 : 1-# 00 A A0C S05 : ... .. . ... ...
ROW 01 : ... .. 3 ... ... ... : ... .. 5 ... ... ... : ... .. . ... : 1-# 00 A A0C S06 : ... .. . ... ...
ROW 02 : ... .. 2 ... ... ... : ... .. 4 ... ... ... : D#3 00 . S05 : 1-# 00 9 A0C S05 : ... .. . ... ...
ROW 03 : ... .. 1 ... S06 ... : ... .. . ... ... ... : C#3 00 . S06 : 1-# 00 9 A0C S06 : ... .. . ... ...
ROW 04 : A#2 00 7 400 ... ... : ... .. . ... ... ... : D#3 00 . S05 : 6-# 00 8 A06 ... : ... .. . ... ...
ROW 05 : ... .. . ... ... ... : ... .. . ... ... ... : ... .. . ... : ... .. . A02 ... : ... .. . ... ...
ROW 06 : ... .. 6 ... ... ... : ... .. . ... ... ... : D#3 00 . S05 : 1-# 00 A A0C S05 : ... .. . ... ...
ROW 07 : ... .. . ... S06 ... : ... .. . ... ... ... : C#3 00 . S06 : 1-# 00 A A0C S06 : ... .. . ... ...
ROW 08 : F-3 00 7 ... ... ... : ... .. . ... ... ... : D#3 00 . ... : ... .. . ... ... : ... .. . ... ...
ROW 09 : ... .. . ... S06 ... : ... .. . ... ... ... : ... .. . S06 : 1-# 00 A A0C S06 : ... .. . ... ...
ROW 0A : G-3 00 7 ... S05 ... : ... .. . ... ... ... : F#3 00 . S05 : 1-# 00 A A0C S05 : ... .. . ... ...
ROW 0B : G#3 00 7 ... ... ... : ... .. . ... ... ... : G#3 00 . S06 : ... .. . ... ... : ... .. . ... ...
ROW 0C : --- .. . ... ... ... : ... .. . ... ... ... : ... .. . ... : 6-# 00 8 A06 ... : ... .. . ... ...
ROW 0D : A#3 00 7 ... ... ... : ... .. . ... ... ... : ... .. . ... : ... .. . A02 ... : ... .. . ... ...
ROW 0E : --- .. . ... ... ... : ... .. . ... ... ... : D#3 00 . ... : 1-# 00 A A0C S05 : ... .. . ... ...
ROW 0F : F#3 00 7 P7F ... ... : ... .. . ... ... ... : ... .. . S06 : ... .. . ... ... : ... .. . ... ...
ROW 10 : ... .. . P80 ... ... : G#3 00 6 ... ... ... : C#3 00 . S05 : 1-# 00 A A0C S05 : ... .. . ... ...
ROW 11 : ... .. 6 ... ... ... : ... .. 5 ... ... ... : ... .. . ... : 1-# 00 A A0C S06 : ... .. . ... ...
ROW 12 : ... .. . ... ... ... : ... .. 4 ... ... ... : C#3 00 . S05 : 1-# 00 9 A0C S05 : ... .. . ... ...
ROW 13 : ... .. . ... S06 ... : ... .. . ... ... ... : B-2 00 . S06 : 1-# 00 9 A0C S06 : ... .. . ... ...
ROW 14 : A#2 00 7 ... ... ... : ... .. . ... ... ... : C#3 00 . S05 : 6-# 00 8 A06 ... : ... .. . ... ...
ROW 15 : ... .. . ... ... ... : ... .. . ... ... ... : ... .. . ... : ... .. . A02 ... : ... .. . ... ...
ROW 16 : ... .. 6 ... ... ... : ... .. . ... ... ... : C#3 00 . S05 : 1-# 00 A A0C S05 : ... .. . ... ...
ROW 17 : ... .. . ... S06 ... : ... .. . ... ... ... : B-2 00 . S06 : 1-# 00 A A0C S06 : ... .. . ... ...
ROW 18 : F-3 00 7 ... ... ... : ... .. . ... ... ... : C#3 00 . ... : ... .. . ... ... : ... .. . ... ...
ROW 19 : ... .. . ... S06 ... : ... .. . ... ... ... : ... .. . S06 : 1-# 00 A A0C S06 : ... .. . ... ...
ROW 1A : F#3 00 7 ... S05 ... : ... .. . ... ... ... : F-3 00 . S05 : 1-# 00 A A0C S05 : ... .. . ... ...
ROW 1B : G#3 00 7 P7F ... ... : ... .. . ... ... ... : F#3 00 . S06 : ... .. . ... ... : ... .. . ... ...
ROW 1C : --- .. . P80 ... ... : ... .. . ... ... ... : ... .. . ... : 6-# 00 8 A06 ... : ... .. . ... ...
ROW 1D : A#3 00 7 ... ... ... : ... .. . ... ... ... : F#3 00 . ... : 1-# 00 A A0C S05 : ... .. . ... ...
ROW 1E : --- .. . ... ... ... : ... .. . ... ... ... : ... .. . S05 : ... .. . ... ... : ... .. . ... ...
ROW 1F : G#3 00 7 P7F ... ... : ... .. . ... ... ... : C-3 00 . ... : 1-# 00 A A0C S05 : ... .. . ... ...
ROW 20 : ... .. . ... S05 ... : A#3 00 6 ... ... ... : ... .. . ... : ... .. . ... ... : ... .. . ... ...
ROW 21 : F#3 00 7 P80 S06 ... : ... .. 5 ... ... ... : ... .. . S06 : 1-# 00 A A0C S06 : ... .. . ... ...
ROW 22 : F-3 00 7 ... S05 ... : ... .. 4 ... ... ... : C-3 00 . S05 : 1-# 00 9 A0C S05 : ... .. . ... ...
ROW 23 : D#3 00 7 ... ... ... : ... .. . ... ... ... : A#2 00 . S06 : 1-# 00 9 A0C S06 : ... .. . ... ...
ROW 24 : ... .. . ... ... ... : ... .. . ... ... ... : C-3 00 . S05 : 6-# 00 8 A06 ... : ... .. . ... ...
ROW 25 : ... .. 6 ... ... ... : ... .. . ... ... ... : ... .. . ... : ... .. . A02 ... : ... .. . ... ...
ROW 26 : ... .. . ... ... ... : ... .. . ... ... ... : C-3 00 . S05 : 1-# 00 A A0C S05 : ... .. . ... ...
ROW 27 : ... .. . ... ... ... : ... .. . ... ... ... : A#2 00 . S06 : 1-# 00 A A0C S06 : ... .. . ... ...
ROW 28 : ... .. . ... ... ... : ... .. . ... ... ... : C-3 00 . S05 : ... .. . ... ... : ... .. . ... ...
ROW 29 : ... .. 5 ... S06 ... : ... .. . ... ... ... : F-3 00 . ... : 1-# 00 A A0C S06 : ... .. . ... ...
ROW 2A : F-3 00 7 ... ... ... : ... .. . ... ... ... : ... .. . S05 : 1-# 00 A A0C S05 : ... .. . ... ...
ROW 2B : ... .. . ... S06 ... : ... .. . ... ... ... : F#3 00 . S06 : ... .. . ... ... : ... .. . ... ...
ROW 2C : F#3 00 7 ... ... ... : ... .. . ... ... ... : ... .. . ... : 6-# 00 8 A06 ... : ... .. . ... ...
ROW 2D : ... .. . ... S06 ... : ... .. . ... ... ... : ... .. . ... : ... .. . A02 ... : ... .. . ... ...
ROW 2E : G#3 00 7 ... ... ... : ... .. . ... ... ... : G#3 00 . ... : 1-# 00 A A0C S05 : ... .. . ... ...
ROW 2F : ... .. . ... S06 ... : ... .. . ... ... ... : ... .. . S06 : ... .. . ... ... : ... .. . ... ...
ROW 30 : B-2 00 7 ... ... ... : B-3 00 6 ... ... ... : B-2 00 . S05 : 1-# 00 A A0C S05 : ... .. . ... ...
ROW 31 : ... .. . ... ... ... : ... .. 5 ... ... ... : ... .. . ... : 1-# 00 A A0C S06 : ... .. . ... ...
ROW 32 : ... .. 6 ... ... ... : ... .. 4 ... ... ... : B-2 00 . S05 : 1-# 00 9 A0C S05 : ... .. . ... ...
ROW 33 : --- .. . ... ... ... : ... .. . ... ... ... : A#2 00 . S06 : 1-# 00 9 A0C S06 : ... .. . ... ...
ROW 34 : A#3 00 7 ... ... ... : ... .. . ... ... ... : A#2 00 . S05 : 6-# 00 8 A06 ... : ... .. . ... ...
ROW 35 : ... .. . ... ... ... : ... .. . ... ... ... : G#2 00 . S06 : 1-# 00 6 A0C S06 : ... .. . ... ...
ROW 36 : ... .. 6 ... ... ... : ... .. . ... ... ... : ... .. . ... : ... .. . ... ... : ... .. . ... ...
ROW 37 : ... .. . ... ... ... : ... .. . ... ... ... : A#2 00 . ... : 1-# 00 6 A0C S06 : ... .. . ... ...
ROW 38 : ... .. . ... ... ... : ... .. . ... ... ... : ... .. . S05 : ... .. . ... ... : ... .. . ... ...
ROW 39 : ... .. . ... ... ... : ... .. . ... ... ... : F#3 00 . ... : 5-# 00 8 A08 S06 : ... .. . ... ...
ROW 3A : ... .. . ... S05 ... : A#3 00 6 ... ... ... : ... .. . S05 : 5-# 00 8 A08 S05 : ... .. . ... ...
ROW 3B : G#3 00 7 ... S06 ... : ... .. 5 ... ... ... : F-3 00 . S06 : 4-# 00 8 A08 S06 : ... .. . ... ...
ROW 3C : F#3 00 7 ... ... ... : G#3 00 6 ... ... ... : C#3 00 . S05 : 4-# 00 8 A08 S05 : ... .. . ... ...
ROW 3D : --- .. . ... ... ... : ... .. 5 ... ... ... : ... .. . ... : 3-# 00 8 A08 S06 : ... .. . ... ...
ROW 3E : F-3 00 7 ... ... ... : A#2 00 6 ... ... ... : A#2 00 . ... : 3-# 00 8 A08 S06 : ... .. . ... ...
ROW 3F : ... .. 6 ... S06 ... : ... .. 5 ... ... ... : ... .. . S06 : 2-# 00 8 A08 S06 : ... .. . ... ...

PATTERN 07
ROW 00 : F-3 00 7 ... S05 ... : F#3 00 4 V01 461 P80 : D#3 00 . ... : D-# 00 6 V00 A0C : ... .. . ... ...
ROW 01 : D#3 00 7 ... ... ... : ... .. . ... ... ... : C#3 00 . ... : D-# 00 6 ... A0C : ... .. . ... ...
ROW 02 : --- .. . ... ... ... : ... .. . ... ... ... : --- .. . ... : ... .. . ... ... : ... .. . ... ...
ROW 03 : D#3 00 7 ... ... ... : ... .. . ... ... ... : D#3 00 . ... : ... .. . ... ... : ... .. . ... ...
ROW 04 : ... .. 6 ... ... ... : ... .. . ... ... ... : ... .. . ... : 1-# 00 A A0C S06 : ... .. . ... ...
ROW 05 : ... .. . 472 ... ... : ... .. . ... ... ... : ... .. . ... : 1-# 00 9 A0C S05 : ... .. . ... ...
ROW 06 : ... .. . ... ... ... : ... .. . ... ... ... : ... .. . ... : 1-# 00 8 A0C S06 : ... .. . ... ...
ROW 07 : ... .. . ... ... ... : ... .. . ... ... ... : ... .. . ... : 1-# 00 7 A0C S06 : ... .. . ... ...
ROW 08 : ... .. 5 ... ... ... : ... .. . ... ... ... : ... .. . ... : D-# 00 6 ... A0C : ... .. . ... ...
ROW 09 : ... .. . ... ... ... : ... .. . ... ... ... : ... .. . ... : D-# 00 6 ... A0C : ... .. . ... ...
ROW 0A : ... .. . ... ... ... : ... .. . ... ... ... : ... .. . ... : ... .. . ... ... : ... .. . ... ...
ROW 0B : ... .. . ... ... ... : ... .. . ... ... ... : ... .. . ... : ... .. . V00 ... : ... .. . ... ...
ROW 0C : ... .. . ... ... ... : ... .. . ... ... ... : ... .. . ... : 1-# 00 A A0C S06 : ... .. . ... ...
ROW 0D : ... .. . ... ... ... : ... .. . ... ... ... : ... .. . ... : 1-# 00 9 A0C S05 : ... .. . ... ...
ROW 0E : ... .. 4 ... ... ... : ... .. . ... ... ... : ... .. . ... : 1-# 00 8 A0C S06 : ... .. . ... ...
ROW 0F : ... .. 3 ... S06 ... : ... .. . ... ... ... : --- .. . ... : 1-# 00 7 A0C S06 : ... .. . ... ...
ROW 10 : G#2 00 6 V01 461 ... : ... .. . ... ... ... : C#3 00 . S06 : D-# 00 6 ... A0C : ... .. . ... ...
ROW 11 : ... .. 5 ... ... ... : ... .. . ... ... ... : B-2 00 . ... : D-# 00 6 ... A0C : ... .. . ... ...
ROW 12 : ... .. 4 ... ... ... : ... .. . ... ... ... : --- 00 . ... : ... .. . ... ... : ... .. . ... ...
ROW 13 : ... .. . ... ... ... : ... .. . ... ... ... : C#3 00 . ... : ... .. . V00 ... : ... .. . ... ...
ROW 14 : ... .. . ... ... ... : ... .. 3 ... ... ... : ... .. . ... : 1-# 00 A A0C S06 : ... .. . ... ...
ROW 15 : ... .. . ... ... ... : ... .. . ... ... ... : ... .. . ... : 1-# 00 9 A0C S05 : ... .. . ... ...
ROW 16 : ... .. . ... ... ... : ... .. . ... ... ... : ... .. . ... : 1-# 00 8 A0C S06 : ... .. . ... ...
ROW 17 : ... .. . ... ... ... : ... .. . ... ... ... : ... .. . ... : 1-# 00 7 A0C S06 : ... .. . ... ...
ROW 18 : ... .. . ... ... ... : ... .. 2 ... ... ... : --- .. . ... : D-# 00 6 ... A0C : ... .. . ... ...
ROW 19 : ... .. . ... S06 ... : ... .. . ... ... ... : C#3 00 . S06 : 5-# 00 8 A08 S06 : ... .. . ... ...
ROW 1A : F#2 00 6 ... ... ... : ... .. . ... ... ... : F-3 00 . S05 : 5-# 00 8 A08 S05 : ... .. . ... ...
ROW 1B : ... .. 5 ... S06 ... : ... .. . ... ... ... : F#3 00 . S06 : 4-# 00 8 A08 S06 : ... .. . ... ...
ROW 1C : F-2 00 6 ... ... ... : ... .. . ... ... ... : G#3 00 . S05 : 4-# 00 8 A08 S05 : ... .. . ... ...
ROW 1D : ... .. 5 ... S06 ... : ... .. 0 ... ... ... : F#3 00 . S06 : 3-# 00 8 A08 S06 : ... .. . ... ...
ROW 1E : A#1 00 6 ... ... ... : ... .. . ... ... ... : F-3 00 . S05 : 3-# 00 8 A08 S06 : ... .. . ... ...
ROW 1F : ... .. 5 S00 G06 400 : ... .. . ... ... ... : C#3 00 . S06 : 2-# 00 8 A08 S06 : ... .. . ... ...
ROW 20 : F#3 00 8 S05 V00 A03 : F#2 00 6 ... ... ... : D#3 00 . S05 : 1-# 00 A A0C S05 : ... .. . ... ...
ROW 21 : F#3 00 8 ... ... ... : ... .. 5 ... ... ... : ... .. . ... : 1-# 00 A A0C S06 : ... .. . ... ...
ROW 22 : --- .. . ... ... ... : ... .. 4 ... ... ... : D#3 00 . S05 : 1-# 00 9 A0C S05 : ... .. . ... ...
ROW 23 : D#2 00 6 461 V01 A00 : ... .. . ... ... ... : C#3 00 . S06 : 1-# 00 9 A0C S06 : ... .. . ... ...
ROW 24 : ... .. 5 ... ... ... : ... .. . ... ... ... : D#3 00 . S05 : 6-# 00 8 A06 ... : ... .. . ... ...
ROW 25 : ... .. 4 ... ... ... : ... .. . ... ... ... : ... .. . ... : ... .. . A02 ... : ... .. . ... ...
ROW 26 : ... .. . ... ... ... : ... .. . ... ... ... : D#3 00 . S05 : 1-# 00 A A0C S05 : ... .. . ... ...
ROW 27 : ... .. . S00 G06 400 : ... .. . ... ... ... : C#3 00 . S06 : 1-# 00 A A0C S06 : ... .. . ... ...
ROW 28 : F#3 00 8 S05 V00 A03 : ... .. . ... ... ... : D#3 00 . S05 : ... .. . ... ... : ... .. . ... ...
ROW 29 : F#3 00 8 ... ... ... : ... .. . ... ... ... : F#3 00 . ... : 1-# 00 A A0C S06 : ... .. . ... ...
ROW 2A : D#2 00 4 461 V01 A00 : ... .. . ... ... ... : ... .. . S05 : 1-# 00 A A0C S05 : ... .. . ... ...
ROW 2B : ... .. . ... ... ... : ... .. . ... ... ... : F-3 00 . ... : ... .. . ... ... : ... .. . ... ...
ROW 2C : ... .. . ... ... ... : ... .. 3 ... ... ... : ... .. . S05 : 6-# 00 8 A06 ... : ... .. . ... ...
ROW 2D : ... .. . ... ... ... : ... .. . ... ... ... : C#3 00 . S06 : ... .. . A02 ... : ... .. . ... ...
ROW 2E : ... .. 3 ... ... ... : ... .. . ... ... ... : A#2 00 . ... : 1-# 00 A A0C S05 : ... .. . ... ...
ROW 2F : ... .. . S00 G06 400 : ... .. . ... ... ... : ... .. . S06 : ... .. . ... ... : ... .. . ... ...
ROW 30 : F#3 00 8 S05 V00 A03 : ... .. 2 ... ... ... : D#3 00 . S05 : 3-# 00 8 A0C S05 : ... .. . ... ...
ROW 31 : F#3 00 8 ... ... ... : ... .. . ... ... ... : ... .. . ... : 1-# 00 A A0C S06 : ... .. . ... ...
ROW 32 : D#2 00 2 461 V01 A00 : ... .. 1 ... ... ... : D#3 00 . S05 : 1-# 00 A A0C S05 : ... .. . ... ...
ROW 33 : ... .. 1 ... S06 ... : ... .. . ... ... ... : C#3 00 . S06 : 1-# 00 A A0C S06 : ... .. . ... ...
ROW 34 : C#2 00 6 ... ... ... : F-2 00 6 ... ... ... : D#3 00 . S05 : 6-# 00 8 A06 ... : ... .. . ... ...
ROW 35 : ... .. 5 ... ... ... : ... .. 5 ... ... ... : ... .. . ... : ... .. . A02 ... : ... .. . ... ...
ROW 36 : ... .. 4 ... ... ... : ... .. 4 ... ... ... : D#3 00 . S05 : 1-# 00 A A0C S05 : ... .. . ... ...
ROW 37 : ... .. . ... ... ... : ... .. . ... ... ... : C#3 00 . S06 : 1-# 00 A A0C S06 : ... .. . ... ...
ROW 38 : ... .. . ... ... ... : ... .. . ... ... ... : D#3 00 . S05 : ... .. . ... ... : ... .. . ... ...
ROW 39 : ... .. . ... S06 ... : ... .. . ... ... ... : F#3 00 . ... : 6-# 00 5 A06 S06 : ... .. . ... ...
ROW 3A : F#3 00 8 A02 400 V00 : ... .. . ... ... ... : ... .. . S05 : 6-# 00 6 A06 S05 : ... .. . ... ...
ROW 3B : ... .. . ... ... ... : ... .. . ... ... ... : G#3 00 . ... : 6-# 00 7 A06 S06 : ... .. . ... ...
ROW 3C : ... .. . ... ... ... : F#2 00 6 ... ... ... : ... .. . S05 : 6-# 00 8 A06 S05 : ... .. . ... ...
ROW 3D : ... .. . ... S06 ... : ... .. 5 ... ... ... : ... .. . ... : 5-# 00 9 A0C S06 : ... .. . ... ...
ROW 3E : A#2 00 7 V01 A00 S06 : ... .. 4 ... ... ... : A#3 00 . ... : 3-# 00 9 A0C ... : ... .. . ... ...
ROW 3F : C#3 00 7 ... S06 ... : ... .. . ... ... B01 : ... .. . S06 : ... .. . ... ... : ... .. . ... ...

TRACK  64   7 150 "E Honda"
COLUMNS : 3 3 1 2 1

ORDER 00 : 00 00 00 00 00
ORDER 01 : 01 01 01 01 03
ORDER 02 : 09 09 08 04 02
ORDER 03 : 02 02 02 02 01
ORDER 04 : 03 03 03 01 01
ORDER 05 : 04 04 04 03 01
ORDER 06 : 05 05 02 02 01
ORDER 07 : 06 06 05 01 01
ORDER 08 : 07 07 06 03 01
ORDER 09 : 08 08 02 01 01
ORDER 0A : 04 04 04 03 01
ORDER 0B : 01 0A 07 01 01

PATTERN 00
ROW 00 : ... .. . ... ... ... : ... .. . ... ... ... : ... .. . ... : E-# 00 B A06 V01 : ... .. . F08
ROW 01 : ... .. . ... ... ... : ... .. . ... ... ... : ... .. . ... : ... .. . A02 ... : ... .. . F07
ROW 02 : ... .. . ... ... ... : ... .. . ... ... ... : ... .. . ... : ... .. . ... ... : ... .. . ...
ROW 03 : ... .. . ... ... ... : ... .. . ... ... ... : ... .. . ... : ... .. . ... ... : ... .. . ...
ROW 04 : ... .. . ... ... ... : ... .. . ... ... ... : ... .. . ... : ... .. . ... ... : ... .. . ...
ROW 05 : ... .. . ... ... ... : ... .. . ... ... ... : ... .. . ... : ... .. . ... ... : ... .. . ...
ROW 06 : ... .. . ... ... ... : ... .. . ... ... ... : ... .. . ... : ... .. . ... ... : ... .. . ...
ROW 07 : ... .. . ... ... ... : ... .. . ... ... ... : ... .. . ... : ... .. . ... ... : ... .. . ...
ROW 08 : ... .. . ... ... ... : ... .. . ... ... ... : ... .. . ... : E-# 00 8 A09 ... : ... .. . F04
ROW 09 : ... .. . ... ... ... : ... .. . ... ... ... : ... .. . ... : E-# 00 8 A09 G01 : ... .. . F03
ROW 0A : ... .. . ... ... ... : ... .. . ... ... ... : ... .. . ... : E-# 00 8 A09 G03 : ... .. . F04
ROW 0B : ... .. . ... ... ... : ... .. . ... ... ... : ... .. . ... : ... .. . ... ... : ... .. . F03
ROW 0C : ... .. . ... ... ... : ... .. . ... ... ... : ... .. . ... : E-# 00 9 A0A ... : ... .. . F04
ROW 0D : ... .. . ... ... ... : ... .. . ... ... ... : ... .. . ... : E-# 00 9 A0A ... : ... .. . F03
ROW 0E : ... .. . ... ... ... : ... .. . ... ... ... : ... .. . ... : E-# 00 9 A0A ... : ... .. . F04
ROW 0F : ... .. . ... ... ... : ... .. . ... ... ... : ... .. . ... : E-# 00 9 A0A ... : ... .. . F03
ROW 10 : ... .. . ... ... ... : ... .. . ... ... ... : ... .. . ... : E-# 00 A A0B ... : ... .. . F04
ROW 11 : ... .. . ... ... ... : ... .. . ... ... ... : ... .. . ... : E-# 00 A A0B ... : ... .. . F03
ROW 12 : ... .. . ... ... ... : ... .. . ... ... ... : ... .. . ... : E-# 00 A A0B ... : ... .. . F04
ROW 13 : ... .. . ... ... ... : ... .. . ... ... ... : ... .. . ... : E-# 00 A A0B ... : ... .. . F03
ROW 14 : ... .. . ... ... ... : ... .. . ... ... ... : ... .. . ... : E-# 00 B A0C ... : ... .. . F04
ROW 15 : ... .. . ... ... ... : ... .. . ... ... ... : ... .. . ... : E-# 00 B A0C ... : ... .. . F03
ROW 16 : ... .. . ... ... ... : ... .. . ... ... ... : ... .. . ... : E-# 00 B A0C ... : ... .. . F04
ROW 17 : ... .. . ... ... ... : ... .. . ... ... ... : ... .. . ... : E-# 00 B A0C D00 : ... .. . F03
ROW 18 : ... .. . ... ... ... : ... .. . ... ... ... : ... .. . ... : ... .. . ... ... : ... .. . ...
ROW 19 : ... .. . ... ... ... : ... .. . ... ... ... : ... .. . ... : ... .. . ... ... : ... .. . ...
ROW 1A : ... .. . ... ... ... : ... .. . ... ... ... : ... .. . ... : ... .. . ... ... : ... .. . ...
ROW 1B : ... .. . ... ... ... : ... .. . ... ... ... : ... .. . ... : ... .. . ... ... : ... .. . ...
ROW 1C : ... .. . ... ... ... : ... .. . ... ... ... : ... .. . ... : ... .. . ... ... : ... .. . ...
ROW 1D : ... .. . ... ... ... : ... .. . ... ... ... : ... .. . ... : ... .. . ... ... : ... .. . ...
ROW 1E : ... .. . ... ... ... : ... .. . ... ... ... : ... .. . ... : ... .. . ... ... : ... .. . ...
ROW 1F : ... .. . ... ... ... : ... .. . ... ... ... : ... .. . ... : ... .. . ... ... : ... .. . ...
ROW 20 : ... .. . ... ... ... : ... .. . ... ... ... : ... .. . ... : ... .. . ... ... : ... .. . ...
ROW 21 : ... .. . ... ... ... : ... .. . ... ... ... : ... .. . ... : ... .. . ... ... : ... .. . ...
ROW 22 : ... .. . ... ... ... : ... .. . ... ... ... : ... .. . ... : ... .. . ... ... : ... .. . ...
ROW 23 : ... .. . ... ... ... : ... .. . ... ... ... : ... .. . ... : ... .. . ... ... : ... .. . ...
ROW 24 : ... .. . ... ... ... : ... .. . ... ... ... : ... .. . ... : ... .. . ... ... : ... .. . ...
ROW 25 : ... .. . ... ... ... : ... .. . ... ... ... : ... .. . ... : ... .. . ... ... : ... .. . ...
ROW 26 : ... .. . ... ... ... : ... .. . ... ... ... : ... .. . ... : ... .. . ... ... : ... .. . ...
ROW 27 : ... .. . ... ... ... : ... .. . ... ... ... : ... .. . ... : ... .. . ... ... : ... .. . ...
ROW 28 : ... .. . ... ... ... : ... .. . ... ... ... : ... .. . ... : ... .. . ... ... : ... .. . ...
ROW 29 : ... .. . ... ... ... : ... .. . ... ... ... : ... .. . ... : ... .. . ... ... : ... .. . ...
ROW 2A : ... .. . ... ... ... : ... .. . ... ... ... : ... .. . ... : ... .. . ... ... : ... .. . ...
ROW 2B : ... .. . ... ... ... : ... .. . ... ... ... : ... .. . ... : ... .. . ... ... : ... .. . ...
ROW 2C : ... .. . ... ... ... : ... .. . ... ... ... : ... .. . ... : ... .. . ... ... : ... .. . ...
ROW 2D : ... .. . ... ... ... : ... .. . ... ... ... : ... .. . ... : ... .. . ... ... : ... .. . ...
ROW 2E : ... .. . ... ... ... : ... .. . ... ... ... : ... .. . ... : ... .. . ... ... : ... .. . ...
ROW 2F : ... .. . ... ... ... : ... .. . ... ... ... : ... .. . ... : ... .. . ... ... : ... .. . ...
ROW 30 : ... .. . ... ... ... : ... .. . ... ... ... : ... .. . ... : ... .. . ... ... : ... .. . ...
ROW 31 : ... .. . ... ... ... : ... .. . ... ... ... : ... .. . ... : ... .. . ... ... : ... .. . ...
ROW 32 : ... .. . ... ... ... : ... .. . ... ... ... : ... .. . ... : ... .. . ... ... : ... .. . ...
ROW 33 : ... .. . ... ... ... : ... .. . ... ... ... : ... .. . ... : ... .. . ... ... : ... .. . ...
ROW 34 : ... .. . ... ... ... : ... .. . ... ... ... : ... .. . ... : ... .. . ... ... : ... .. . ...
ROW 35 : ... .. . ... ... ... : ... .. . ... ... ... : ... .. . ... : ... .. . ... ... : ... .. . ...
ROW 36 : ... .. . ... ... ... : ... .. . ... ... ... : ... .. . ... : ... .. . ... ... : ... .. . ...
ROW 37 : ... .. . ... ... ... : ... .. . ... ... ... : ... .. . ... : ... .. . ... ... : ... .. . ...
ROW 38 : ... .. . ... ... ... : ... .. . ... ... ... : ... .. . ... : ... .. . ... ... : ... .. . ...
ROW 39 : ... .. . ... ... ... : ... .. . ... ... ... : ... .. . ... : ... .. . ... ... : ... .. . ...
ROW 3A : ... .. . ... ... ... : ... .. . ... ... ... : ... .. . ... : ... .. . ... ... : ... .. . ...
ROW 3B : ... .. . ... ... ... : ... .. . ... ... ... : ... .. . ... : ... .. . ... ... : ... .. . ...
ROW 3C : ... .. . ... ... ... : ... .. . ... ... ... : ... .. . ... : ... .. . ... ... : ... .. . ...
ROW 3D : ... .. . ... ... ... : ... .. . ... ... ... : ... .. . ... : ... .. . ... ... : ... .. . ...
ROW 3E : ... .. . ... ... ... : ... .. . ... ... ... : ... .. . ... : ... .. . ... ... : ... .. . ...
ROW 3F : ... .. . ... ... ... : ... .. . ... ... ... : ... .. . ... : ... .. . ... ... : ... .. . ...

PATTERN 01
ROW 00 : C-3 00 7 V02 481 A01 : G-2 00 5 V02 481 A01 : ... .. . F08 : 2-# 00 7 A05 V00 : ... .. . Z00
ROW 01 : ... .. . ... ... ... : ... .. . ... ... ... : ... .. . F07 : ... .. . A03 ... : ... .. . F07
ROW 02 : ... .. . ... 484 ... : ... .. . ... 484 ... : C-4 00 . ... : 9-# 00 6 A0B ... : ... .. . ...
ROW 03 : ... .. . ... ... ... : ... .. . ... ... ... : ... .. . S03 : 9-# 00 6 A0B ... : ... .. . ...
ROW 04 : ... .. . ... ... A00 : ... .. . ... ... A00 : ... .. . ... : 9-# 00 6 A0B ... : ... .. . ...
ROW 05 : ... .. . S06 ... A10 : ... .. . S06 ... A10 : ... .. . ... : --- .. . ... ... : ... .. . ...
ROW 06 : A#2 00 7 ... 481 A01 : G-2 00 5 ... 481 A01 : C-4 00 . ... : 2-# 00 7 A05 ... : ... .. . ...
ROW 07 : ... .. . S06 ... ... : ... .. . S06 ... ... : ... .. . S03 : ... .. . A03 ... : ... .. . ...
ROW 08 : C-3 00 7 ... ... ... : G-2 00 5 ... ... ... : ... .. . ... : 2-# 00 7 A05 ... : ... .. . F08
ROW 09 : ... .. . S06 ... ... : ... .. . S06 ... ... : ... .. . ... : ... .. . A03 ... : ... .. . F07
ROW 0A : --- .. . ... ... ... : --- .. . ... ... ... : C-4 00 . ... : 9-# 00 6 A0B ... : ... .. . ...
ROW 0B : C-3 00 3 ... ... ... : G-2 00 1 ... ... ... : ... .. . S03 : --- .. . ... ... : ... .. . ...
ROW 0C : A#2 00 7 ... ... ... : G-2 00 5 ... ... ... : ... .. . ... : 9-# 00 6 A0B ... : ... .. . ...
ROW 0D : ... .. . S06 ... ... : ... .. . S06 ... ... : ... .. . ... : --- .. . ... ... : ... .. . ...
ROW 0E : C-3 00 7 ... ... ... : G-2 00 5 ... ... ... : C-4 00 . ... : 2-# 00 7 A05 ... : ... .. . ...
ROW 0F : ... .. . S06 ... ... : ... .. . S06 ... ... : ... .. . S03 : ... .. . A03 ... : ... .. . ...
ROW 10 : C-3 00 7 S06 ... ... : G-2 00 5 S06 ... ... : ... .. . ... : 2-# 00 7 A05 ... : ... .. . F08
ROW 11 : C-3 00 2 ... ... ... : G-2 00 1 ... ... ... : ... .. . ... : ... .. . A03 ... : ... .. . F07
ROW 12 : C-3 00 7 ... ... ... : G-2 00 5 ... ... ... : C-3 00 . ... : 2-# 00 7 A05 ... : ... .. . ...
ROW 13 : ... .. . ... ... ... : ... .. . ... ... ... : ... .. . S03 : 9-# 00 6 A0B ... : ... .. . ...
ROW 14 : ... .. . ... 484 ... : ... .. . ... 484 ... : ... .. . ... : 9-# 00 6 A0B ... : ... .. . ...
ROW 15 : ... .. . S06 ... A10 : ... .. . S06 ... A10 : ... .. . ... : --- .. . ... ... : ... .. . ...
ROW 16 : A#2 00 7 ... 481 A01 : G-2 00 5 ... 481 A01 : C-3 00 . ... : 2-# 00 7 A05 ... : ... .. . ...
ROW 17 : ... .. . S06 ... ... : ... .. . S06 ... ... : ... .. . S03 : ... .. . A03 ... : ... .. . ...
ROW 18 : C-3 00 7 ... ... ... : G-2 00 5 ... ... ... : ... .. . ... : 2-# 00 7 A05 ... : ... .. . F08
ROW 19 : ... .. . S06 ... ... : ... .. . S06 ... ... : ... .. . ... : ... .. . A03 ... : ... .. . F07
ROW 1A : --- .. . ... ... ... : --- .. . ... ... ... : C-3 00 . ... : 9-# 00 6 A0B ... : ... .. . ...
ROW 1B : C-3 00 3 ... ... ... : G-2 00 1 ... ... ... : ... .. . S03 : --- .. . ... ... : ... .. . ...
ROW 1C : A#2 00 7 ... ... ... : G-2 00 5 ... ... ... : ... .. . ... : 9-# 00 6 A0B ... : ... .. . ...
ROW 1D : ... .. . S06 ... ... : ... .. . S06 ... ... : ... .. . ... : --- .. . ... ... : ... .. . ...
ROW 1E : C-3 00 7 ... ... ... : G-3 00 6 V00 400 A04 : C-3 00 . ... : 2-# 00 7 A05 ... : ... .. . ...
ROW 1F : ... .. . S06 ... ... : A#3 00 6 ... ... D00 : ... .. . S03 : ... .. . A03 ... : ... .. . ...
ROW 20 : C-3 00 7 V02 481 A01 : ... .. . ... ... ... : ... .. . ... : 2-# 00 7 A05 ... : ... .. . F08
ROW 21 : ... .. . ... ... ... : ... .. . ... ... ... : ... .. . ... : ... .. . A03 ... : ... .. . F07
ROW 22 : ... .. . ... 484 ... : ... .. . ... ... ... : ... .. . ... : 9-# 00 6 A0B ... : ... .. . ...
ROW 23 : ... .. . ... ... ... : ... .. . ... ... ... : ... .. . ... : 9-# 00 6 A0B ... : ... .. . ...
ROW 24 : ... .. . ... ... A00 : ... .. . ... ... ... : ... .. . ... : 9-# 00 6 A0B ... : ... .. . ...
ROW 25 : ... .. . S06 ... A10 : ... .. . ... ... ... : ... .. . ... : --- .. . ... ... : ... .. . ...
ROW 26 : A#2 00 7 ... 481 A01 : ... .. . ... ... ... : ... .. . ... : 2-# 00 7 A05 ... : ... .. . ...
ROW 27 : ... .. . S06 ... ... : ... .. . ... ... ... : ... .. . ... : ... .. . A03 ... : ... .. . ...
ROW 28 : C-3 00 7 ... ... ... : ... .. . ... ... ... : ... .. . ... : 2-# 00 7 A05 ... : ... .. . F08
ROW 29 : ... .. . S06 ... ... : ... .. . ... ... ... : ... .. . ... : ... .. . A03 ... : ... .. . F07
ROW 2A : --- .. . ... ... ... : ... .. . ... ... ... : ... .. . ... : 9-# 00 6 A0B ... : ... .. . ...
ROW 2B : C-3 00 3 ... ... ... : ... .. . ... ... ... : ... .. . ... : --- .. . ... ... : ... .. . ...
ROW 2C : A#2 00 7 ... ... ... : ... .. . ... ... ... : ... .. . ... : 9-# 00 6 A0B ... : ... .. . ...
ROW 2D : ... .. . S06 ... ... : ... .. . ... ... ... : ... .. . ... : --- .. . ... ... : ... .. . ...
ROW 2E : C-3 00 7 ... ... ... : ... .. . ... ... ... : ... .. . ... : 2-# 00 7 A05 ... : ... .. . ...
ROW 2F : ... .. . S06 ... ... : ... .. . ... ... ... : ... .. . ... : ... .. . A03 ... : ... .. . ...
ROW 30 : C-3 00 7 S06 ... ... : ... .. . ... ... ... : ... .. . ... : 2-# 00 7 A05 ... : ... .. . F08
ROW 31 : C-3 00 2 ... ... ... : ... .. . ... ... ... : ... .. . ... : ... .. . A03 ... : ... .. . F07
ROW 32 : C-3 00 7 ... ... ... : ... .. . ... ... ... : ... .. . ... : 2-# 00 7 A05 ... : ... .. . ...
ROW 33 : ... .. . ... ... ... : ... .. . ... ... ... : ... .. . ... : 9-# 00 6 A0B ... : ... .. . ...
ROW 34 : ... .. . ... 484 ... : ... .. . ... ... ... : ... .. . ... : 9-# 00 6 A0B ... : ... .. . ...
ROW 35 : ... .. . S06 ... A10 : ... .. . ... ... ... : ... .. . ... : --- .. . ... ... : ... .. . ...
ROW 36 : A#2 00 7 ... 481 A01 : ... .. . ... ... ... : ... .. . ... : 2-# 00 7 A05 ... : ... .. . ...
ROW 37 : ... .. . S06 ... ... : ... .. . ... ... ... : ... .. . ... : ... .. . A03 ... : ... .. . ...
ROW 38 : C-3 00 7 ... ... ... : ... .. . ... ... ... : ... .. . ... : 2-# 00 7 A05 ... : ... .. . F08
ROW 39 : ... .. . S06 ... ... : ... .. . ... ... ... : ... .. . ... : ... .. . A03 ... : ... .. . F07
ROW 3A : --- .. . ... ... ... : ... .. . ... ... ... : ... .. . ... : 9-# 00 6 A0B ... : ... .. . ...
ROW 3B : C-3 00 3 ... ... ... : ... .. . ... ... ... : ... .. . ... : --- .. . ... ... : ... .. . ...
ROW 3C : A#2 00 7 ... ... ... : ... .. . ... ... ... : ... .. . ... : 9-# 00 6 A0B ... : ... .. . ...
ROW 3D : ... .. . S06 ... ... : ... .. . ... ... ... : ... .. . ... : --- .. . ... ... : ... .. . ...
ROW 3E : C-3 00 7 ... ... ... : ... .. . ... ... ... : ... .. . ... : 2-# 00 7 A05 ... : ... .. . ...
ROW 3F : ... .. . S06 ... ... : ... .. . ... ... ... : ... .. . ... : ... .. . A03 ... : ... .. . ...

PATTERN 02
ROW 00 : G-3 00 7 V02 481 A01 : D#3 00 7 V02 481 A01 : C-3 00 . F08 : 2-# 00 7 A05 V00 : ... .. . Z08
ROW 01 : ... .. . ... ... ... : ... .. . ... ... ... : ... .. . ... : ... .. . A03 ... : ... .. . ...
ROW 02 : ... .. . ... 482 ... : ... .. . ... 482 ... : ... .. . ... : 9-# 00 6 A0B ... : ... .. . F04
ROW 03 : ... .. . ... ... ... : ... .. . ... ... ... : ... .. . S05 : 9-# 00 6 A0B ... : ... .. . F03
ROW 04 : ... .. . ... ... A00 : ... .. . ... ... A00 : D#3 00 . S05 : 9-# 00 6 A0B ... : ... .. . F04
ROW 05 : ... .. . S06 ... A10 : ... .. . S06 ... A10 : ... .. . ... : --- .. . ... ... : ... .. . F03
ROW 06 : A#3 00 7 ... 481 A01 : G-3 00 7 ... 481 A01 : F-3 00 . ... : 2-# 00 7 A05 ... : ... .. . F04
ROW 07 : ... .. . S06 ... ... : ... .. . S06 ... ... : ... .. . S05 : ... .. . A03 ... : ... .. . F03
ROW 08 : G-3 00 7 ... ... ... : D#3 00 7 ... ... ... : C-3 00 . ... : 2-# 00 7 A05 ... : ... .. . F04
ROW 09 : ... .. . ... ... ... : ... .. . ... ... ... : ... .. . ... : ... .. . A03 ... : ... .. . F03
ROW 0A : ... .. . ... 482 ... : ... .. . ... 482 ... : ... .. . S05 : 9-# 00 6 A0B ... : ... .. . F04
ROW 0B : ... .. . ... ... ... : ... .. . ... ... ... : C-3 00 . S05 : --- .. . ... ... : ... .. . F03
ROW 0C : G-3 00 7 ... 481 ... : D#3 00 7 ... 481 ... : A#2 00 . S05 : 9-# 00 6 A0B ... : ... .. . F04
ROW 0D : ... .. . S06 ... ... : ... .. . S06 ... ... : ... .. . ... : --- .. . ... ... : ... .. . F03
ROW 0E : A#3 00 7 ... ... ... : G-3 00 7 ... ... ... : G-2 00 . ... : 2-# 00 7 A05 ... : ... .. . F04
ROW 0F : ... .. . S06 ... ... : ... .. . S06 ... ... : ... .. . S05 : ... .. . A03 ... : ... .. . F03
ROW 10 : C-4 00 7 S06 ... ... : G-3 00 7 S06 ... ... : ... .. . ... : 2-# 00 7 A05 ... : ... .. . F04
ROW 11 : A#3 00 2 ... ... ... : G-3 00 2 ... ... ... : ... .. . ... : ... .. . A03 ... : ... .. . ...
ROW 12 : C-4 00 7 S06 ... ... : G-3 00 7 S06 ... ... : C-3 00 . S05 : 2-# 00 7 A05 ... : ... .. . F04
ROW 13 : A#3 00 7 S06 ... ... : G-3 00 7 S06 ... ... : C-3 00 . S05 : 9-# 00 6 A0B ... : ... .. . F03
ROW 14 : G-3 00 7 ... ... ... : D#3 00 7 ... ... ... : D#3 00 . S05 : 9-# 00 6 A0B ... : ... .. . F04
ROW 15 : ... .. . S06 ... ... : ... .. . S06 ... ... : ... .. . ... : --- .. . ... ... : ... .. . F03
ROW 16 : F-3 00 7 ... ... ... : C-3 00 7 ... ... ... : F-3 00 . ... : 2-# 00 7 A05 ... : ... .. . F04
ROW 17 : ... .. . S06 ... ... : ... .. . S06 ... ... : ... .. . S05 : ... .. . A03 ... : ... .. . F03
ROW 18 : G-3 00 7 ... ... ... : D#3 00 7 ... ... ... : C-3 00 . ... : 2-# 00 7 A05 ... : ... .. . F04
ROW 19 : ... .. . ... ... ... : ... .. . ... ... ... : ... .. . ... : ... .. . A03 ... : ... .. . F03
ROW 1A : ... .. . ... 482 ... : ... .. . ... 482 ... : ... .. . S05 : 9-# 00 6 A0B ... : ... .. . F04
ROW 1B : ... .. . S06 ... A10 : ... .. . S06 ... A10 : C-3 00 . S05 : --- .. . ... ... : ... .. . F03
ROW 1C : F-3 00 7 ... 481 A01 : C-3 00 7 ... 481 A01 : A#2 00 . S05 : 9-# 00 6 A0B ... : ... .. . F04
ROW 1D : ... .. . S06 ... ... : ... .. . S06 ... ... : ... .. . ... : --- .. . ... ... : ... .. . F03
ROW 1E : D#3 00 7 ... ... ... : C-3 00 7 ... ... ... : G-2 00 . ... : 2-# 00 7 A05 ... : ... .. . F04
ROW 1F : ... .. . S06 ... ... : ... .. . S06 ... ... : ... .. . S05 : ... .. . A03 ... : ... .. . F03
ROW 20 : C-3 00 7 ... 481 A01 : G-2 00 7 ... 481 A01 : C-3 00 . ... : 2-# 00 7 A05 ... : ... .. . F04
ROW 21 : ... .. . ... ... ... : ... .. . ... ... ... : ... .. . ... : ... .. . A03 ... : ... .. . ...
ROW 22 : ... .. . ... 482 ... : ... .. . ... 482 ... : ... .. . ... : 9-# 00 6 A0B ... : ... .. . F04
ROW 23 : ... .. . ... ... ... : ... .. . ... ... ... : ... .. . S05 : 9-# 00 6 A0B ... : ... .. . F03
ROW 24 : ... .. . ... ... A00 : ... .. . ... ... A00 : D#3 00 . S05 : 9-# 00 6 A0B ... : ... .. . F04
ROW 25 : ... .. . S06 ... A10 : ... .. . S06 ... A10 : ... .. . ... : --- .. . ... ... : ... .. . F03
ROW 26 : D#3 00 7 ... 481 A01 : C-3 00 7 ... 481 A01 : F-3 00 . ... : 2-# 00 7 A05 ... : ... .. . F04
ROW 27 : ... .. . S06 ... ... : ... .. . S06 ... ... : ... .. . S05 : ... .. . A03 ... : ... .. . F03
ROW 28 : F-3 00 7 ... ... ... : C-3 00 7 ... ... ... : C-3 00 . ... : 2-# 00 7 A05 ... : ... .. . F04
ROW 29 : ... .. . ... ... ... : ... .. . ... ... ... : ... .. . ... : ... .. . A03 ... : ... .. . F03
ROW 2A : ... .. . S06 482 ... : ... .. . S06 482 ... : ... .. . S05 : 9-# 00 6 A0B ... : ... .. . F04
ROW 2B : G-3 00 7 S06 ... ... : D#3 00 7 S06 ... ... : C-3 00 . S05 : --- .. . ... ... : ... .. . F03
ROW 2C : F-3 00 7 ... 481 ... : C-3 00 7 ... 481 ... : A#2 00 . S05 : 9-# 00 6 A0B ... : ... .. . F04
ROW 2D : ... .. . S06 ... ... : ... .. . S06 ... ... : ... .. . ... : --- .. . ... ... : ... .. . F03
ROW 2E : D#3 00 7 ... ... ... : A#2 00 7 ... ... ... : G-2 00 . ... : 2-# 00 7 A05 ... : ... .. . F04
ROW 2F : ... .. . S06 ... ... : ... .. . S06 ... ... : ... .. . S05 : ... .. . A03 ... : ... .. . F03
ROW 30 : C-3 00 7 ... ... ... : G-2 00 7 ... ... ... : ... .. . ... : 2-# 00 7 A05 ... : ... .. . F04
ROW 31 : ... .. . ... ... ... : ... .. . ... ... ... : ... .. . ... : ... .. . A03 ... : ... .. . ...
ROW 32 : ... .. . ... 482 ... : ... .. . ... 482 ... : C-3 00 . S05 : 2-# 00 7 A05 ... : ... .. . F04
ROW 33 : ... .. . S06 ... A10 : ... .. . S06 ... A10 : C-3 00 . S05 : 9-# 00 6 A0B ... : ... .. . F03
ROW 34 : A#2 00 7 ... 481 A01 : G-2 00 7 ... 481 A01 : D#3 00 . S05 : 9-# 00 6 A0B ... : ... .. . F04
ROW 35 : ... .. . S06 ... ... : ... .. . S06 ... ... : ... .. . ... : --- .. . ... ... : ... .. . F03
ROW 36 : G-2 00 7 ... ... ... : D#2 00 7 ... ... ... : F-3 00 . ... : 2-# 00 7 A05 ... : ... .. . F04
ROW 37 : ... .. . S06 ... ... : ... .. . S06 ... ... : ... .. . S05 : ... .. . A03 ... : ... .. . F03
ROW 38 : C-3 00 7 ... ... ... : G-2 00 7 ... ... ... : C-3 00 . ... : 2-# 00 7 A05 ... : ... .. . F04
ROW 39 : ... .. . S06 ... ... : ... .. . S06 ... ... : ... .. . ... : ... .. . A03 ... : ... .. . F03
ROW 3A : --- .. . ... ... ... : --- .. . ... ... ... : ... .. . S05 : 9-# 00 6 A0B ... : ... .. . F04
ROW 3B : C-3 00 3 ... ... ... : G-2 00 3 ... ... ... : C-3 00 . S05 : --- .. . ... ... : ... .. . F03
ROW 3C : C-3 00 7 ... 481 ... : G-2 00 7 ... 481 ... : A#2 00 . S05 : E-# 00 B A06 V01 : ... .. . F04
ROW 3D : ... .. . ... ... ... : ... .. . ... ... ... : ... .. . ... : ... .. . A02 ... : ... .. . F03
ROW 3E : ... .. . ... ... ... : ... .. . ... ... ... : G-2 00 . ... : ... .. . ... ... : ... .. . F04
ROW 3F : ... .. . S06 ... ... : ... .. . S06 ... ... : ... .. . S05 : ... .. . ... ... : ... .. . F03

PATTERN 03
ROW 00 : A#2 00 7 ... 481 ... : D#2 00 7 ... 481 ... : D#3 00 . ... : 2-# 00 7 A05 ... : ... .. . Z20
ROW 01 : ... .. . ... ... ... : ... .. . ... ... ... : ... .. . ... : ... .. . A03 ... : ... .. . Z30
ROW 02 : ... .. . ... 484 ... : ... .. . ... 484 ... : ... .. . ... : ... .. . ... ... : ... .. . Z40
ROW 03 : ... .. . S06 ... A10 : ... .. . S06 ... A10 : ... .. . S05 : ... .. . ... ... : ... .. . ...
ROW 04 : C-3 00 7 ... 481 A01 : G-2 00 7 ... 481 A01 : F-3 00 . S05 : 2-# 00 7 A05 ... : ... .. . ...
ROW 05 : ... .. . S06 ... ... : ... .. . S06 ... ... : ... .. . ... : ... .. . A03 ... : ... .. . ...
ROW 06 : D#3 00 7 ... ... ... : A#2 00 7 ... ... ... : A#3 00 . ... : ... .. . ... ... : ... .. . ...
ROW 07 : ... .. . S06 ... ... : ... .. . S06 ... ... : ... .. . S05 : ... .. . ... ... : ... .. . ...
ROW 08 : F-3 00 7 ... ... ... : A#2 00 7 ... ... ... : D#3 00 . ... : 9-# 00 6 A0B ... : ... .. . F08
ROW 09 : ... .. . ... ... ... : ... .. . ... ... ... : ... .. . ... : --- .. . ... ... : ... .. . F07
ROW 0A : ... .. . ... 482 ... : ... .. . ... 482 ... : ... .. . S05 : 2-# 00 7 A05 ... : ... .. . ...
ROW 0B : ... .. . S06 ... ... : ... .. . S06 ... ... : D#3 00 . S05 : 2-# 00 7 A05 ... : ... .. . ...
ROW 0C : G-3 00 7 ... 481 ... : D#3 00 7 ... 481 ... : C-3 00 . S05 : 9-# 00 6 A0B ... : ... .. . ...
ROW 0D : ... .. . S06 ... ... : ... .. . S06 ... ... : ... .. . ... : --- .. . ... ... : ... .. . ...
ROW 0E : D#3 00 7 ... ... ... : A#2 00 7 ... ... ... : A#2 00 . ... : 2-# 00 7 A05 ... : ... .. . ...
ROW 0F : ... .. . S06 ... ... : ... .. . S06 ... ... : ... .. . S05 : ... .. . A03 ... : ... .. . ...
ROW 10 : F-3 00 7 S06 ... ... : A#2 00 7 S06 ... ... : ... .. . ... : 2-# 00 7 A05 ... : ... .. . F08
ROW 11 : D#3 00 2 ... ... ... : A#2 00 2 ... ... ... : ... .. . ... : ... .. . A03 ... : ... .. . F07
ROW 12 : F-3 00 7 S06 ... ... : A#2 00 7 S06 ... ... : D#3 00 . S05 : ... .. . ... ... : ... .. . Z18
ROW 13 : G-3 00 7 S06 ... ... : D#3 00 7 S06 ... ... : D#3 00 . S05 : 9-# 00 6 A0B ... : ... .. . ...
ROW 14 : A#3 00 7 ... ... ... : G-3 00 7 ... ... ... : F-3 00 . S05 : 9-# 00 6 A0B ... : ... .. . ...
ROW 15 : ... .. . S06 ... ... : ... .. . S06 ... ... : ... .. . ... : ... .. . ... ... : ... .. . ...
ROW 16 : G-3 00 7 ... ... ... : D#3 00 7 ... ... ... : A#3 00 . ... : 2-# 00 7 A05 ... : ... .. . ...
ROW 17 : ... .. . S06 ... ... : ... .. . S06 ... ... : ... .. . S05 : ... .. . A03 ... : ... .. . ...
ROW 18 : F-3 00 7 ... ... ... : C-3 00 7 ... ... ... : D#3 00 . ... : 2-# 00 7 A05 ... : ... .. . F08
ROW 19 : ... .. . S06 ... ... : ... .. . S06 ... ... : ... .. . ... : ... .. . A03 ... : ... .. . F07
ROW 1A : D#3 00 7 ... ... ... : A#2 00 7 ... ... ... : ... .. . S05 : 9-# 00 6 A0B ... : ... .. . ...
ROW 1B : ... .. . S06 ... ... : ... .. . S06 ... ... : D#3 00 . S05 : E-# 00 B A0A V01 : ... .. . ...
ROW 1C : F-3 00 7 ... ... ... : A#2 00 7 ... ... ... : C-3 00 . S05 : E-# 00 B A06 V01 : ... .. . ...
ROW 1D : ... .. . ... ... ... : ... .. . ... ... ... : ... .. . ... : ... .. . A02 ... : ... .. . ...
ROW 1E : ... .. . ... 482 ... : ... .. . ... 482 ... : A#2 00 . ... : ... .. . ... ... : ... .. . ...
ROW 1F : ... .. . S06 ... ... : ... .. . S06 ... ... : ... .. . S05 : ... .. . ... ... : ... .. . ...
ROW 20 : G-2 00 7 ... 481 ... : D#2 00 7 ... 481 ... : F-3 00 . ... : ... .. . ... ... : ... .. . ...
ROW 21 : ... .. . S06 ... ... : ... .. . S06 ... ... : ... .. . ... : ... .. . ... ... : ... .. . ...
ROW 22 : A#2 00 7 ... ... ... : G-2 00 7 ... ... ... : ... .. . ... : ... .. . ... ... : ... .. . ...
ROW 23 : ... .. . S06 ... ... : ... .. . S06 ... ... : ... .. . S05 : ... .. . ... ... : ... .. . ...
ROW 24 : G-2 00 7 ... ... ... : D#2 00 7 ... ... ... : G-3 00 . S05 : ... .. . ... ... : ... .. . ...
ROW 25 : ... .. . S06 ... ... : ... .. . S06 ... ... : ... .. . ... : ... .. . ... ... : ... .. . ...
ROW 26 : A#2 00 7 ... ... ... : G-2 00 7 ... ... ... : A#3 00 . ... : ... .. . ... ... : ... .. . ...
ROW 27 : ... .. . S06 ... ... : ... .. . S06 ... ... : ... .. . S05 : ... .. . ... ... : ... .. . ...
ROW 28 : C-3 00 7 S06 ... ... : G-2 00 7 S06 ... ... : C-3 00 . ... : ... .. . ... ... : ... .. . ...
ROW 29 : A#2 00 2 ... ... ... : G-2 00 2 ... ... ... : ... .. . ... : ... .. . ... ... : ... .. . ...
ROW 2A : C-3 00 7 ... ... ... : G-2 00 7 ... ... ... : ... .. . S05 : ... .. . ... ... : ... .. . ...
ROW 2B : ... .. . ... ... ... : ... .. . ... ... ... : C-3 00 . S05 : ... .. . ... ... : ... .. . ...
ROW 2C : ... .. . ... 482 ... : ... .. . ... 482 ... : A#2 00 . S05 : ... .. . ... ... : ... .. . ...
ROW 2D : ... .. . S06 ... ... : ... .. . S06 ... ... : ... .. . ... : ... .. . ... ... : ... .. . ...
ROW 2E : D#3 00 7 ... 481 ... : C-3 00 7 ... 481 ... : G-2 00 . ... : ... .. . ... ... : ... .. . ...
ROW 2F : ... .. . S06 ... ... : ... .. . S06 ... ... : ... .. . S05 : ... .. . ... ... : ... .. . ...
ROW 30 : F-3 00 7 ... ... ... : C-3 00 7 ... ... ... : ... .. . ... : ... .. . ... ... : ... .. . ...
ROW 31 : ... .. . ... ... ... : ... .. . ... ... ... : ... .. . ... : ... .. . ... ... : ... .. . ...
ROW 32 : ... .. . S06 ... ... : ... .. . S06 ... ... : F-3 00 . S05 : ... .. . ... ... : ... .. . ...
ROW 33 : G-3 00 7 S06 ... ... : C-3 00 7 S06 ... ... : F-3 00 . S05 : ... .. . ... ... : ... .. . ...
ROW 34 : F-3 00 7 ... ... ... : C-3 00 7 ... ... ... : G-3 00 . S05 : ... .. . ... ... : ... .. . ...
ROW 35 : ... .. . S06 ... ... : ... .. . S06 ... ... : ... .. . ... : ... .. . ... ... : ... .. . ...
ROW 36 : D#3 00 7 ... ... ... : C-3 00 7 ... ... ... : A#3 00 . ... : ... .. . ... ... : ... .. . ...
ROW 37 : ... .. . S06 ... ... : ... .. . S06 ... ... : ... .. . S05 : ... .. . ... ... : ... .. . ...
ROW 38 : C-3 00 7 ... ... ... : G-2 00 7 ... ... ... : C-3 00 . ... : ... .. . ... ... : ... .. . ...
ROW 39 : ... .. . S06 ... ... : ... .. . S06 ... ... : ... .. . ... : ... .. . ... ... : ... .. . ...
ROW 3A : D#3 00 7 ... ... ... : C-3 00 7 ... ... ... : ... .. . S05 : ... .. . ... ... : ... .. . ...
ROW 3B : ... .. . S06 ... ... : ... .. . S06 ... ... : C-3 00 . S05 : ... .. . ... ... : ... .. . ...
ROW 3C : C-3 00 7 ... ... ... : G-2 00 7 ... ... ... : A#2 00 . S05 : ... .. . ... ... : ... .. . ...
ROW 3D : ... .. . ... ... ... : ... .. . ... ... ... : ... .. . ... : ... .. . ... ... : ... .. . ...
ROW 3E : ... .. . ... 482 ... : ... .. . ... 482 ... : G-2 00 . ... : ... .. . ... ... : ... .. . ...
ROW 3F : ... .. . S06 ... A10 : ... .. . S06 ... A10 : ... .. . S05 : ... .. . ... ... : ... .. . ...

PATTERN 04
ROW 00 : C-5 00 6 V02 461 A01 : D#4 00 5 V01 400 A01 : ... .. . ... : 2-# 00 7 A05 ... : ... .. . ...
ROW 01 : ... .. . S06 ... ... : ... .. . S06 ... ... : ... .. . ... : ... .. . ... ... : ... .. . ...
ROW 02 : A#4 00 6 S06 ... ... : D#4 00 5 S06 ... ... : C-3 00 . ... : ... .. . A03 ... : ... .. . ...
ROW 03 : G-4 00 6 S06 ... ... : D#4 00 5 S06 ... ... : ... .. . S05 : ... .. . ... ... : ... .. . ...
ROW 04 : C-5 00 6 S06 ... ... : D#4 00 5 S06 ... ... : ... .. . ... : 9-# 00 6 A0B ... : ... .. . ...
ROW 05 : A#4 00 2 S06 ... ... : D#4 00 1 S06 ... ... : ... .. . ... : ... .. . ... ... : ... .. . ...
ROW 06 : C-5 00 6 ... ... ... : D#4 00 5 ... ... ... : C-3 00 . ... : 9-# 00 6 A0B ... : ... .. . ...
ROW 07 : ... .. . S06 ... ... : ... .. . S06 ... ... : ... .. . S05 : ... .. . ... ... : ... .. . ...
ROW 08 : --- .. . ... ... ... : --- .. . ... ... ... : ... .. . ... : 9-# 00 6 A0B ... : ... .. . ...
ROW 09 : C-5 00 6 S06 ... ... : D#4 00 5 S06 ... ... : ... .. . ... : ... .. . ... ... : ... .. . ...
ROW 0A : A#4 00 6 S06 ... ... : D#4 00 5 S06 ... ... : C-3 00 . S05 : --- .. . ... ... : ... .. . ...
ROW 0B : G-4 00 6 S06 ... ... : D#4 00 5 S06 ... ... : C-3 00 . S05 : ... .. . ... ... : ... .. . ...
ROW 0C : C-5 00 6 S06 ... ... : D#4 00 5 S06 ... ... : ... .. . ... : 2-# 00 7 A05 ... : ... .. . ...
ROW 0D : A#4 00 2 S06 ... ... : D#4 00 1 S06 ... ... : ... .. . ... : ... .. . ... ... : ... .. . ...
ROW 0E : C-5 00 6 ... ... ... : D#4 00 5 ... ... ... : C-3 00 . ... : ... .. . A03 ... : ... .. . ...
ROW 0F : ... .. . S06 ... ... : ... .. . S06 ... ... : ... .. . S05 : ... .. . ... ... : ... .. . ...
ROW 10 : A#4 00 6 Q12 ... ... : D#4 00 5 ... ... ... : C-3 00 . ... : 2-# 00 7 A05 ... : ... .. . ...
ROW 11 : ... .. . ... ... ... : ... .. . ... ... ... : ... .. . S05 : ... .. . ... ... : ... .. . ...
ROW 12 : ... .. . S06 ... ... : ... .. . S06 ... ... : ... .. . ... : ... .. . A03 ... : ... .. . ...
ROW 13 : D#5 00 6 ... ... ... : G-4 00 5 S06 ... ... : C-3 00 . S05 : ... .. . ... ... : ... .. . ...
ROW 14 : C-5 00 6 S06 ... ... : D#4 00 5 S06 ... ... : ... .. . ... : 9-# 00 6 A0B ... : ... .. . ...
ROW 15 : --- .. . ... ... ... : --- .. . ... ... ... : ... .. . ... : ... .. . ... ... : ... .. . ...
ROW 16 : A#4 00 6 ... ... ... : D#4 00 5 ... ... ... : C-3 00 . S05 : --- .. . ... ... : ... .. . ...
ROW 17 : ... .. . S06 ... ... : ... .. . S06 ... ... : C-3 00 . S05 : ... .. . ... ... : ... .. . ...
ROW 18 : --- .. . ... ... ... : --- .. . ... ... ... : ... .. . ... : 9-# 00 6 A0B ... : ... .. . ...
ROW 19 : C-5 00 6 S06 ... ... : D#4 00 5 S06 ... ... : A#3 00 . S05 : ... .. . ... ... : ... .. . ...
ROW 1A : A#4 00 6 S06 ... ... : D#4 00 5 S06 ... ... : G-3 00 . S05 : --- .. . ... ... : ... .. . ...
ROW 1B : G-4 00 6 S06 ... ... : D#4 00 5 S06 ... ... : F-3 00 . S05 : ... .. . ... ... : ... .. . ...
ROW 1C : C-5 00 6 S06 ... ... : D#4 00 5 S06 ... ... : G-3 00 . S05 : 2-# 00 7 A05 ... : ... .. . ...
ROW 1D : A#4 00 2 S06 ... ... : D#4 00 1 S06 ... ... : F-3 00 . S05 : ... .. . ... ... : ... .. . ...
ROW 1E : C-5 00 6 ... ... ... : D#4 00 5 ... ... ... : D#3 00 . S05 : ... .. . A03 ... : ... .. . ...
ROW 1F : ... .. . S06 ... D00 : ... .. . S06 ... ... : A#2 00 . S05 : ... .. . ... ... : ... .. . ...
ROW 20 : ... .. . ... ... ... : ... .. . ... ... ... : ... .. . ... : 2-# 00 7 A05 ... : ... .. . ...
ROW 21 : ... .. . ... ... ... : ... .. . ... ... ... : ... .. . ... : ... .. . ... ... : ... .. . ...
ROW 22 : ... .. . ... ... ... : ... .. . ... ... ... : ... .. . ... : ... .. . A03 ... : ... .. . ...
ROW 23 : ... .. . ... ... ... : ... .. . ... ... ... : ... .. . ... : ... .. . ... ... : ... .. . ...
ROW 24 : ... .. . ... ... ... : ... .. . ... ... ... : ... .. . ... : 2-# 00 7 A05 ... : ... .. . ...
ROW 25 : ... .. . ... ... ... : ... .. . ... ... ... : ... .. . ... : ... .. . ... ... : ... .. . ...
ROW 26 : ... .. . ... ... ... : ... .. . ... ... ... : ... .. . ... : 9-# 00 6 A0B ... : ... .. . ...
ROW 27 : ... .. . ... ... ... : ... .. . ... ... ... : ... .. . ... : ... .. . ... ... : ... .. . ...
ROW 28 : ... .. . ... ... ... : ... .. . ... ... ... : ... .. . ... : 9-# 00 6 A0B ... : ... .. . ...
ROW 29 : ... .. . ... ... ... : ... .. . ... ... ... : ... .. . ... : ... .. . ... ... : ... .. . ...
ROW 2A : ... .. . ... ... ... : ... .. . ... ... ... : ... .. . ... : --- .. . ... ... : ... .. . ...
ROW 2B : ... .. . ... ... ... : ... .. . ... ... ... : ... .. . ... : ... .. . ... ... : ... .. . ...
ROW 2C : ... .. . ... ... ... : ... .. . ... ... ... : ... .. . ... : 2-# 00 7 A05 ... : ... .. . ...
ROW 2D : ... .. . ... ... ... : ... .. . ... ... ... : ... .. . ... : ... .. . ... ... : ... .. . ...
ROW 2E : ... .. . ... ... ... : ... .. . ... ... ... : ... .. . ... : ... .. . A03 ... : ... .. . ...
ROW 2F : ... .. . ... ... ... : ... .. . ... ... ... : ... .. . ... : ... .. . ... ... : ... .. . ...
ROW 30 : ... .. . ... ... ... : ... .. . ... ... ... : ... .. . ... : 2-# 00 7 A05 ... : ... .. . ...
ROW 31 : ... .. . ... ... ... : ... .. . ... ... ... : ... .. . ... : ... .. . ... ... : ... .. . ...
ROW 32 : ... .. . ... ... ... : ... .. . ... ... ... : ... .. . ... : ... .. . A03 ... : ... .. . ...
ROW 33 : ... .. . ... ... ... : ... .. . ... ... ... : ... .. . ... : ... .. . ... ... : ... .. . ...
ROW 34 : ... .. . ... ... ... : ... .. . ... ... ... : ... .. . ... : 9-# 00 6 A0B ... : ... .. . ...
ROW 35 : ... .. . ... ... ... : ... .. . ... ... ... : ... .. . ... : ... .. . ... ... : ... .. . ...
ROW 36 : ... .. . ... ... ... : ... .. . ... ... ... : ... .. . ... : --- .. . ... ... : ... .. . ...
ROW 37 : ... .. . ... ... ... : ... .. . ... ... ... : ... .. . ... : ... .. . ... ... : ... .. . ...
ROW 38 : ... .. . ... ... ... : ... .. . ... ... ... : ... .. . ... : 9-# 00 6 A0B ... : ... .. . ...
ROW 39 : ... .. . ... ... ... : ... .. . ... ... ... : ... .. . ... : ... .. . ... ... : ... .. . ...
ROW 3A : ... .. . ... ... ... : ... .. . ... ... ... : ... .. . ... : --- .. . ... ... : ... .. . ...
ROW 3B : ... .. . ... ... ... : ... .. . ... ... ... : ... .. . ... : ... .. . ... ... : ... .. . ...
ROW 3C : ... .. . ... ... ... : ... .. . ... ... ... : ... .. . ... : 2-# 00 7 A05 ... : ... .. . ...
ROW 3D : ... .. . ... ... ... : ... .. . ... ... ... : ... .. . ... : ... .. . ... ... : ... .. . ...
ROW 3E : ... .. . ... ... ... : ... .. . ... ... ... : ... .. . ... : ... .. . A03 ... : ... .. . ...
ROW 3F : ... .. . ... ... ... : ... .. . ... ... ... : ... .. . ... : ... .. . ... ... : ... .. . ...

PATTERN 05
ROW 00 : G-3 00 7 V02 481 ... : D#3 00 7 V02 481 ... : D#3 00 . ... : ... .. . ... ... : ... .. . ...
ROW 01 : ... .. . ... ... ... : ... .. . ... ... ... : ... .. . ... : ... .. . ... ... : ... .. . ...
ROW 02 : ... .. . ... 482 ... : ... .. . ... 482 ... : ... .. . ... : ... .. . ... ... : ... .. . ...
ROW 03 : ... .. . ... ... ... : ... .. . ... ... ... : ... .. . S05 : ... .. . ... ... : ... .. . ...
ROW 04 : ... .. . ... ... A00 : ... .. . ... ... A00 : F-3 00 . S05 : ... .. . ... ... : ... .. . ...
ROW 05 : ... .. . S06 ... A10 : ... .. . S06 ... A10 : ... .. . ... : ... .. . ... ... : ... .. . ...
ROW 06 : A#3 00 7 ... 481 A01 : G-3 00 7 ... 481 A01 : A#3 00 . ... : ... .. . ... ... : ... .. . ...
ROW 07 : ... .. . S06 ... ... : ... .. . S06 ... ... : ... .. . S05 : ... .. . ... ... : ... .. . ...
ROW 08 : G-3 00 7 ... ... ... : D#3 00 7 ... ... ... : D#3 00 . ... : ... .. . ... ... : ... .. . ...
ROW 09 : ... .. . ... ... ... : ... .. . ... ... ... : ... .. . ... : ... .. . ... ... : ... .. . ...
ROW 0A : ... .. . ... 482 ... : ... .. . ... 482 ... : ... .. . S05 : ... .. . ... ... : ... .. . ...
ROW 0B : ... .. . S06 ... ... : ... .. . S06 ... ... : D#3 00 . S05 : ... .. . ... ... : ... .. . ...
ROW 0C : F-3 00 7 ... 481 ... : C-3 00 7 ... 481 ... : C-3 00 . S05 : ... .. . ... ... : ... .. . ...
ROW 0D : ... .. . S06 ... ... : ... .. . S06 ... ... : ... .. . ... : ... .. . ... ... : ... .. . ...
ROW 0E : D#3 00 7 ... ... ... : C-3 00 7 ... ... ... : A#2 00 . ... : ... .. . ... ... : ... .. . ...
ROW 0F : ... .. . S06 ... ... : ... .. . S06 ... ... : ... .. . S05 : ... .. . ... ... : ... .. . ...
ROW 10 : F-3 00 7 ... ... ... : C-3 00 7 ... ... ... : ... .. . ... : ... .. . ... ... : ... .. . ...
ROW 11 : ... .. . S06 ... ... : ... .. . S06 ... ... : ... .. . ... : ... .. . ... ... : ... .. . ...
ROW 12 : G-3 00 7 S06 ... ... : C-3 00 7 S06 ... ... : D#3 00 . S05 : ... .. . ... ... : ... .. . ...
ROW 13 : F-3 00 7 S06 ... ... : C-3 00 7 S06 ... ... : D#3 00 . S05 : ... .. . ... ... : ... .. . ...
ROW 14 : D#3 00 7 ... ... ... : C-3 00 7 ... ... ... : F-3 00 . S05 : ... .. . ... ... : ... .. . ...
ROW 15 : ... .. . S06 ... ... : ... .. . S06 ... ... : ... .. . ... : ... .. . ... ... : ... .. . ...
ROW 16 : C-3 00 7 ... ... ... : G-2 00 7 ... ... ... : A#3 00 . ... : ... .. . ... ... : ... .. . ...
ROW 17 : ... .. . S06 ... ... : ... .. . S06 ... ... : ... .. . S05 : ... .. . ... ... : ... .. . ...
ROW 18 : D#3 00 7 ... ... ... : C-3 00 7 ... ... ... : D#3 00 . ... : ... .. . ... ... : ... .. . ...
ROW 19 : ... .. . S06 ... ... : ... .. . S06 ... ... : ... .. . ... : ... .. . ... ... : ... .. . ...
ROW 1A : F-3 00 7 ... ... ... : C-3 00 7 ... ... ... : ... .. . S05 : ... .. . ... ... : ... .. . ...
ROW 1B : ... .. . S06 ... ... : ... .. . S06 ... ... : D#3 00 . S05 : ... .. . ... ... : ... .. . ...
ROW 1C : G-3 00 7 ... ... ... : D#3 00 7 ... ... ... : C-3 00 . S05 : ... .. . ... ... : ... .. . ...
ROW 1D : ... .. . ... ... ... : ... .. . ... ... ... : ... .. . ... : ... .. . ... ... : ... .. . ...
ROW 1E : ... .. . ... 482 ... : ... .. . ... 482 ... : A#2 00 . ... : ... .. . ... ... : ... .. . ...
ROW 1F : ... .. . S06 ... A10 : ... .. . S06 ... A10 : ... .. . S05 : ... .. . ... ... : ... .. . ...
ROW 20 : A#2 00 7 ... 481 A01 : G-2 00 7 ... 481 A01 : D#3 00 . ... : ... .. . ... ... : ... .. . ...
ROW 21 : ... .. . ... ... ... : ... .. . ... ... ... : ... .. . ... : ... .. . ... ... : ... .. . ...
ROW 22 : ... .. . ... ... ... : ... .. . ... ... ... : ... .. . ... : ... .. . ... ... : ... .. . ...
ROW 23 : ... .. . S06 ... ... : ... .. . S06 ... ... : ... .. . S05 : ... .. . ... ... : ... .. . ...
ROW 24 : C-3 00 7 ... ... ... : G-2 00 7 ... ... ... : F-3 00 . S05 : ... .. . ... ... : ... .. . ...
ROW 25 : ... .. . S06 ... ... : ... .. . S06 ... ... : ... .. . ... : ... .. . ... ... : ... .. . ...
ROW 26 : D#3 00 7 ... ... ... : G-2 00 7 ... ... ... : A#3 00 . ... : ... .. . ... ... : ... .. . ...
ROW 27 : ... .. . S06 ... ... : ... .. . S06 ... ... : ... .. . S05 : ... .. . ... ... : ... .. . ...
ROW 28 : F-3 00 7 ... ... ... : C-3 00 7 ... ... ... : D#3 00 . ... : ... .. . ... ... : ... .. . ...
ROW 29 : ... .. . ... ... ... : ... .. . ... ... ... : ... .. . ... : ... .. . ... ... : ... .. . ...
ROW 2A : ... .. . ... 482 ... : ... .. . ... 482 ... : ... .. . S05 : ... .. . ... ... : ... .. . ...
ROW 2B : ... .. . S06 ... ... : ... .. . S06 ... ... : D#3 00 . S05 : ... .. . ... ... : ... .. . ...
ROW 2C : G-3 00 7 ... 481 ... : C-3 00 7 ... 481 ... : C-3 00 . S05 : ... .. . ... ... : ... .. . ...
ROW 2D : ... .. . S06 ... ... : ... .. . S06 ... ... : ... .. . ... : ... .. . ... ... : ... .. . ...
ROW 2E : D#3 00 7 ... ... ... : C-3 00 7 ... ... ... : A#2 00 . ... : ... .. . ... ... : ... .. . ...
ROW 2F : ... .. . S06 ... ... : ... .. . S06 ... ... : ... .. . S05 : ... .. . ... ... : ... .. . ...
ROW 30 : F-3 00 7 ... ... ... : C-3 00 7 ... ... ... : ... .. . ... : ... .. . ... ... : ... .. . ...
ROW 31 : ... .. . ... ... ... : ... .. . ... ... ... : ... .. . ... : ... .. . ... ... : ... .. . ...
ROW 32 : ... .. . S06 ... ... : ... .. . S06 ... ... : D#3 00 . S05 : ... .. . ... ... : ... .. . ...
ROW 33 : G-3 00 7 S06 ... ... : C-3 00 7 S06 ... ... : D#3 00 . S05 : ... .. . ... ... : ... .. . ...
ROW 34 : F-3 00 7 ... ... ... : C-3 00 7 ... ... ... : F-3 00 . S05 : ... .. . ... ... : ... .. . ...
ROW 35 : ... .. . S06 ... ... : ... .. . S06 ... ... : ... .. . ... : ... .. . ... ... : ... .. . ...
ROW 36 : D#3 00 7 ... ... ... : C-3 00 7 ... ... ... : A#3 00 . ... : ... .. . ... ... : ... .. . ...
ROW 37 : ... .. . S06 ... ... : ... .. . S06 ... ... : ... .. . S05 : ... .. . ... ... : ... .. . ...
ROW 38 : C-3 00 7 ... ... ... : G-2 00 7 ... ... ... : D#3 00 . ... : ... .. . ... ... : ... .. . ...
ROW 39 : ... .. . S06 ... ... : ... .. . S06 ... ... : ... .. . ... : ... .. . ... ... : ... .. . ...
ROW 3A : D#3 00 7 ... ... ... : G-2 00 7 ... ... ... : ... .. . S05 : ... .. . ... ... : ... .. . ...
ROW 3B : ... .. . S06 ... ... : ... .. . S06 ... ... : D#3 00 . S05 : ... .. . ... ... : ... .. . ...
ROW 3C : C-3 00 7 ... ... ... : G-2 00 7 ... ... ... : C-3 00 . S05 : ... .. . ... ... : ... .. . ...
ROW 3D : ... .. . ... ... ... : ... .. . ... ... ... : ... .. . ... : ... .. . ... ... : ... .. . ...
ROW 3E : ... .. . ... 482 ... : ... .. . ... 482 ... : A#2 00 . ... : ... .. . ... ... : ... .. . ...
ROW 3F : ... .. . S06 ... A10 : ... .. . S06 ... A10 : ... .. . S05 : ... .. . ... ... : ... .. . ...

PATTERN 06
ROW 00 : A#2 00 7 V02 481 A01 : G-2 00 7 V02 481 A01 : ... .. . ... : ... .. . ... ... : ... .. . ...
ROW 01 : ... .. . ... ... ... : ... .. . ... ... ... : ... .. . ... : ... .. . ... ... : ... .. . ...
ROW 02 : ... .. . ... ... ... : ... .. . ... ... ... : D#3 00 . ... : ... .. . ... ... : ... .. . ...
ROW 03 : ... .. . S06 ... A10 : ... .. . S06 ... A10 : ... .. . S05 : ... .. . ... ... : ... .. . ...
ROW 04 : C-3 00 7 ... ... A01 : G-2 00 7 ... ... A01 : ... .. . ... : ... .. . ... ... : ... .. . ...
ROW 05 : ... .. . S06 ... ... : ... .. . S06 ... ... : ... .. . ... : ... .. . ... ... : ... .. . ...
ROW 06 : D#3 00 7 ... ... ... : A#2 00 7 ... ... ... : D#3 00 . ... : ... .. . ... ... : ... .. . ...
ROW 07 : ... .. . S06 ... ... : ... .. . S06 ... ... : ... .. . S05 : ... .. . ... ... : ... .. . ...
ROW 08 : F-3 00 7 ... ... ... : C-3 00 7 ... ... ... : ... .. . ... : ... .. . ... ... : ... .. . ...
ROW 09 : ... .. . ... ... ... : ... .. . ... ... ... : ... .. . ... : ... .. . ... ... : ... .. . ...
ROW 0A : ... .. . ... 482 ... : ... .. . ... 482 ... : D#3 00 . S05 : ... .. . ... ... : ... .. . ...
ROW 0B : ... .. . S06 ... A10 : ... .. . S06 ... A10 : D#3 00 . S05 : ... .. . ... ... : ... .. . ...
ROW 0C : G-3 00 7 ... 481 A01 : D#3 00 7 ... 481 A01 : ... .. . ... : ... .. . ... ... : ... .. . ...
ROW 0D : ... .. . S06 ... ... : ... .. . S06 ... ... : ... .. . ... : ... .. . ... ... : ... .. . ...
ROW 0E : D#3 00 7 ... ... ... : A#2 00 7 ... ... ... : D#3 00 . ... : ... .. . ... ... : ... .. . ...
ROW 0F : ... .. . S06 ... ... : ... .. . S06 ... ... : ... .. . S05 : ... .. . ... ... : ... .. . ...
ROW 10 : F-3 00 7 S06 ... ... : A#2 00 7 S06 ... ... : D#3 00 . ... : ... .. . ... ... : ... .. . ...
ROW 11 : D#3 00 3 ... ... ... : A#2 00 3 ... ... ... : ... .. . S05 : ... .. . ... ... : ... .. . ...
ROW 12 : F-3 00 7 S06 ... ... : A#2 00 7 S06 ... ... : ... .. . ... : ... .. . ... ... : ... .. . ...
ROW 13 : G-3 00 7 S06 ... ... : C-3 00 7 S06 ... ... : D#3 00 . S05 : ... .. . ... ... : ... .. . ...
ROW 14 : A#3 00 7 ... ... ... : D#3 00 7 ... ... ... : ... .. . ... : ... .. . ... ... : ... .. . ...
ROW 15 : ... .. . S06 ... ... : ... .. . S06 ... ... : ... .. . ... : ... .. . ... ... : ... .. . ...
ROW 16 : G-3 00 7 ... ... ... : C-3 00 7 ... ... ... : D#3 00 . S05 : ... .. . ... ... : ... .. . ...
ROW 17 : ... .. . S06 ... ... : ... .. . S06 ... ... : D#3 00 . S05 : ... .. . ... ... : ... .. . ...
ROW 18 : F-3 00 7 ... ... ... : A#2 00 7 ... ... ... : ... .. . ... : ... .. . ... ... : ... .. . ...
ROW 19 : ... .. . S06 ... ... : ... .. . S06 ... ... : C-4 00 . S05 : ... .. . ... ... : ... .. . ...
ROW 1A : D#3 00 7 ... ... ... : A#2 00 7 ... ... ... : A#3 00 . S05 : ... .. . ... ... : ... .. . ...
ROW 1B : ... .. . S06 ... ... : ... .. . S06 ... ... : G-3 00 . S05 : ... .. . ... ... : ... .. . ...
ROW 1C : F-3 00 7 ... ... ... : A#2 00 7 ... ... ... : A#3 00 . S05 : ... .. . ... ... : ... .. . ...
ROW 1D : ... .. . ... ... ... : ... .. . ... ... ... : G-3 00 . S05 : ... .. . ... ... : ... .. . ...
ROW 1E : ... .. . ... 482 ... : ... .. . ... 482 ... : F-3 00 . S05 : ... .. . ... ... : ... .. . ...
ROW 1F : ... .. . S06 ... A10 : ... .. . S06 ... A10 : D#3 00 . S05 : ... .. . ... ... : ... .. . ...
ROW 20 : G-2 00 7 ... 481 A01 : D#2 00 7 ... 481 A01 : ... .. . ... : ... .. . ... ... : ... .. . ...
ROW 21 : ... .. . ... ... ... : ... .. . ... ... ... : ... .. . ... : ... .. . ... ... : ... .. . ...
ROW 22 : ... .. . S06 ... ... : ... .. . S06 ... ... : ... .. . ... : ... .. . ... ... : ... .. . ...
ROW 23 : A#2 00 7 S06 ... ... : G-2 00 7 S06 ... ... : ... .. . ... : ... .. . ... ... : ... .. . ...
ROW 24 : C-3 00 7 ... ... ... : G-2 00 7 ... ... ... : ... .. . ... : ... .. . ... ... : ... .. . ...
ROW 25 : ... .. . S06 ... ... : ... .. . S06 ... ... : ... .. . ... : ... .. . ... ... : ... .. . ...
ROW 26 : D#3 00 7 ... ... ... : A#2 00 7 ... ... ... : ... .. . ... : ... .. . ... ... : ... .. . ...
ROW 27 : ... .. . S06 ... ... : ... .. . S06 ... ... : ... .. . ... : ... .. . ... ... : ... .. . ...
ROW 28 : F-3 00 7 ... ... ... : C-3 00 7 ... ... ... : ... .. . ... : ... .. . ... ... : ... .. . ...
ROW 29 : ... .. . ... ... ... : ... .. . ... ... ... : ... .. . ... : ... .. . ... ... : ... .. . ...
ROW 2A : ... .. . ... 482 ... : ... .. . ... 482 ... : ... .. . ... : ... .. . ... ... : ... .. . ...
ROW 2B : ... .. . S06 ... ... : ... .. . S06 ... ... : ... .. . ... : ... .. . ... ... : ... .. . ...
ROW 2C : G-3 00 7 ... 481 ... : D#3 00 7 ... 481 ... : ... .. . ... : ... .. . ... ... : ... .. . ...
ROW 2D : ... .. . S06 ... ... : ... .. . S06 ... ... : ... .. . ... : ... .. . ... ... : ... .. . ...
ROW 2E : D#3 00 7 ... ... ... : C-3 00 7 ... ... ... : ... .. . ... : ... .. . ... ... : ... .. . ...
ROW 2F : ... .. . S06 ... ... : ... .. . S06 ... ... : ... .. . ... : ... .. . ... ... : ... .. . ...
ROW 30 : F-3 00 7 ... ... ... : C-3 00 7 ... ... ... : ... .. . ... : ... .. . ... ... : ... .. . ...
ROW 31 : ... .. . ... ... ... : ... .. . ... ... ... : ... .. . ... : ... .. . ... ... : ... .. . ...
ROW 32 : ... .. . S06 ... ... : ... .. . S06 ... ... : ... .. . ... : ... .. . ... ... : ... .. . ...
ROW 33 : G-3 00 7 S06 ... ... : D#3 00 7 S06 ... ... : ... .. . ... : ... .. . ... ... : ... .. . ...
ROW 34 : F-3 00 7 ... ... ... : C-3 00 7 ... ... ... : ... .. . ... : ... .. . ... ... : ... .. . ...
ROW 35 : ... .. . S06 ... ... : ... .. . S06 ... ... : ... .. . ... : ... .. . ... ... : ... .. . ...
ROW 36 : D#3 00 7 ... ... ... : A#2 00 7 ... ... ... : ... .. . ... : ... .. . ... ... : ... .. . ...
ROW 37 : ... .. . S06 ... ... : ... .. . S06 ... ... : ... .. . ... : ... .. . ... ... : ... .. . ...
ROW 38 : C-3 00 7 ... ... ... : G-2 00 7 ... ... ... : ... .. . ... : ... .. . ... ... : ... .. . ...
ROW 39 : ... .. . S06 ... ... : ... .. . S06 ... ... : ... .. . ... : ... .. . ... ... : ... .. . ...
ROW 3A : D#3 00 7 ... ... ... : G-2 00 7 ... ... ... : ... .. . ... : ... .. . ... ... : ... .. . ...
ROW 3B : ... .. . S06 ... ... : ... .. . S06 ... ... : ... .. . ... : ... .. . ... ... : ... .. . ...
ROW 3C : A#2 00 7 ... ... ... : G-2 00 7 ... ... ... : ... .. . ... : ... .. . ... ... : ... .. . ...
ROW 3D : ... .. . ... ... ... : ... .. . ... ... ... : ... .. . ... : ... .. . ... ... : ... .. . ...
ROW 3E : ... .. . ... 482 ... : ... .. . ... 482 ... : ... .. . ... : ... .. . ... ... : ... .. . ...
ROW 3F : ... .. . S06 ... A10 : ... .. . S06 ... A10 : ... .. . ... : ... .. . ... ... : ... .. . ...

PATTERN 07
ROW 00 : D#5 00 6 V02 461 A01 : G-4 00 5 V01 400 A01 : C-3 00 . ... : ... .. . ... ... : ... .. . ...
ROW 01 : ... .. . S06 ... ... : ... .. . S06 ... ... : ... .. . ... : ... .. . ... ... : ... .. . ...
ROW 02 : C-5 00 6 S06 ... ... : G-4 00 5 S06 ... ... : ... .. . S05 : ... .. . ... ... : ... .. . ...
ROW 03 : A#4 00 6 S06 ... ... : G-4 00 5 S06 ... ... : C-3 00 . S05 : ... .. . ... ... : ... .. . ...
ROW 04 : D#5 00 6 S06 ... ... : G-4 00 5 S06 ... ... : D#3 00 . S05 : ... .. . ... ... : ... .. . ...
ROW 05 : C-5 00 2 S06 ... ... : G-4 00 1 S06 ... ... : ... .. . ... : ... .. . ... ... : ... .. . ...
ROW 06 : D#5 00 6 ... ... ... : G-4 00 5 ... ... ... : F-3 00 . ... : ... .. . ... ... : ... .. . ...
ROW 07 : ... .. . S06 ... ... : ... .. . S06 ... ... : ... .. . S05 : ... .. . ... ... : ... .. . ...
ROW 08 : --- .. . ... ... ... : --- .. . ... ... ... : ... .. . ... : ... .. . ... ... : ... .. . ...
ROW 09 : D#5 00 6 S06 ... ... : G-4 00 5 S06 ... ... : C-3 00 . ... : ... .. . ... ... : ... .. . ...
ROW 0A : C-5 00 6 S06 ... ... : G-4 00 5 S06 ... ... : ... .. . S05 : ... .. . ... ... : ... .. . ...
ROW 0B : A#4 00 6 S06 ... ... : G-4 00 5 S06 ... ... : C-3 00 . S05 : ... .. . ... ... : ... .. . ...
ROW 0C : D#5 00 6 S06 ... ... : G-4 00 5 S06 ... ... : A#2 00 . S05 : ... .. . ... ... : ... .. . ...
ROW 0D : C-5 00 2 S06 ... ... : G-4 00 1 S06 ... ... : ... .. . ... : ... .. . ... ... : ... .. . ...
ROW 0E : D#5 00 6 ... ... ... : G-4 00 5 ... ... ... : G-2 00 . ... : ... .. . ... ... : ... .. . ...
ROW 0F : ... .. . S06 ... ... : ... .. . S06 ... ... : ... .. . S05 : ... .. . ... ... : ... .. . ...
ROW 10 : C-5 00 6 Q23 ... ... : G-4 00 5 ... ... ... : ... .. . ... : ... .. . ... ... : ... .. . ...
ROW 11 : ... .. . ... ... ... : ... .. . ... ... ... : ... .. . ... : ... .. . ... ... : ... .. . ...
ROW 12 : ... .. . S06 ... ... : ... .. . S06 ... ... : C-3 00 . S05 : ... .. . ... ... : ... .. . ...
ROW 13 : F-5 00 6 ... ... ... : G-4 00 5 S06 ... ... : C-3 00 . S05 : ... .. . ... ... : ... .. . ...
ROW 14 : D#5 00 6 S06 ... ... : G-4 00 5 S06 ... ... : D#3 00 . S05 : ... .. . ... ... : ... .. . ...
ROW 15 : --- .. . ... ... ... : --- .. . ... ... ... : ... .. . ... : ... .. . ... ... : ... .. . ...
ROW 16 : C-5 00 6 ... ... ... : G-4 00 5 ... ... ... : F-3 00 . ... : ... .. . ... ... : ... .. . ...
ROW 17 : ... .. . S06 ... ... : ... .. . S06 ... ... : ... .. . S05 : ... .. . ... ... : ... .. . ...
ROW 18 : --- .. . ... ... ... : --- .. . ... ... ... : C-3 00 . ... : ... .. . ... ... : ... .. . ...
ROW 19 : D#5 00 6 S06 ... ... : G-4 00 5 S06 ... ... : ... .. . ... : ... .. . ... ... : ... .. . ...
ROW 1A : C-5 00 6 S06 ... ... : G-4 00 5 S06 ... ... : ... .. . S05 : ... .. . ... ... : ... .. . ...
ROW 1B : A#4 00 6 S06 ... ... : G-4 00 5 S06 ... ... : C-3 00 . S05 : ... .. . ... ... : ... .. . ...
ROW 1C : D#5 00 6 S06 ... ... : G-4 00 5 S06 ... ... : A#2 00 . S05 : ... .. . ... ... : ... .. . ...
ROW 1D : C-5 00 2 S06 ... ... : G-4 00 1 S06 ... ... : ... .. . ... : ... .. . ... ... : ... .. . ...
ROW 1E : D#5 00 6 ... ... ... : G-4 00 5 ... ... ... : G-2 00 . ... : ... .. . ... ... : ... .. . ...
ROW 1F : ... .. . S06 ... D00 : ... .. . S06 ... ... : ... .. . S05 : ... .. . ... ... : ... .. . ...
ROW 20 : ... .. . ... ... ... : ... .. . ... ... ... : C-3 00 . ... : ... .. . ... ... : ... .. . ...
ROW 21 : ... .. . ... ... ... : ... .. . ... ... ... : ... .. . ... : ... .. . ... ... : ... .. . ...
ROW 22 : ... .. . ... ... ... : ... .. . ... ... ... : ... .. . S05 : ... .. . ... ... : ... .. . ...
ROW 23 : ... .. . ... ... ... : ... .. . ... ... ... : C-3 00 . S05 : ... .. . ... ... : ... .. . ...
ROW 24 : ... .. . ... ... ... : ... .. . ... ... ... : D#3 00 . S05 : ... .. . ... ... : ... .. . ...
ROW 25 : ... .. . ... ... ... : ... .. . ... ... ... : ... .. . ... : ... .. . ... ... : ... .. . ...
ROW 26 : ... .. . ... ... ... : ... .. . ... ... ... : F-3 00 . ... : ... .. . ... ... : ... .. . ...
ROW 27 : ... .. . ... ... ... : ... .. . ... ... ... : ... .. . S05 : ... .. . ... ... : ... .. . ...
ROW 28 : ... .. . ... ... ... : ... .. . ... ... ... : ... .. . ... : ... .. . ... ... : ... .. . ...
ROW 29 : ... .. . ... ... ... : ... .. . ... ... ... : C-3 00 . ... : ... .. . ... ... : ... .. . ...
ROW 2A : ... .. . ... ... ... : ... .. . ... ... ... : ... .. . S05 : ... .. . ... ... : ... .. . ...
ROW 2B : ... .. . ... ... ... : ... .. . ... ... ... : C-3 00 . S05 : ... .. . ... ... : ... .. . ...
ROW 2C : ... .. . ... ... ... : ... .. . ... ... ... : A#2 00 . S05 : ... .. . ... ... : ... .. . ...
ROW 2D : ... .. . ... ... ... : ... .. . ... ... ... : ... .. . ... : ... .. . ... ... : ... .. . ...
ROW 2E : ... .. . ... ... ... : ... .. . ... ... ... : G-2 00 . ... : ... .. . ... ... : ... .. . ...
ROW 2F : ... .. . ... ... ... : ... .. . ... ... ... : ... .. . S05 : ... .. . ... ... : ... .. . ...
ROW 30 : ... .. . ... ... ... : ... .. . ... ... ... : ... .. . ... : ... .. . ... ... : ... .. . ...
ROW 31 : ... .. . ... ... ... : ... .. . ... ... ... : ... .. . ... : ... .. . ... ... : ... .. . ...
ROW 32 : ... .. . ... ... ... : ... .. . ... ... ... : C-3 00 . S05 : ... .. . ... ... : ... .. . ...
ROW 33 : ... .. . ... ... ... : ... .. . ... ... ... : C-3 00 . S05 : ... .. . ... ... : ... .. . ...
ROW 34 : ... .. . ... ... ... : ... .. . ... ... ... : D#3 00 . S05 : ... .. . ... ... : ... .. . ...
ROW 35 : ... .. . ... ... ... : ... .. . ... ... ... : ... .. . ... : ... .. . ... ... : ... .. . ...
ROW 36 : ... .. . ... ... ... : ... .. . ... ... ... : F-3 00 . ... : ... .. . ... ... : ... .. . ...
ROW 37 : ... .. . ... ... ... : ... .. . ... ... ... : ... .. . S05 : ... .. . ... ... : ... .. . ...
ROW 38 : ... .. . ... ... ... : ... .. . ... ... ... : C-3 00 . ... : ... .. . ... ... : ... .. . ...
ROW 39 : ... .. . ... ... ... : ... .. . ... ... ... : ... .. . ... : ... .. . ... ... : ... .. . ...
ROW 3A : ... .. . ... ... ... : ... .. . ... ... ... : ... .. . S05 : ... .. . ... ... : ... .. . ...
ROW 3B : ... .. . ... ... ... : ... .. . ... ... ... : C-3 00 . S05 : ... .. . ... ... : ... .. . ...
ROW 3C : ... .. . ... ... ... : ... .. . ... ... ... : A#2 00 . S05 : ... .. . ... ... : ... .. . ...
ROW 3D : ... .. . ... ... ... : ... .. . ... ... ... : ... .. . ... : ... .. . ... ... : ... .. . ...
ROW 3E : ... .. . ... ... ... : ... .. . ... ... ... : G-2 00 . ... : ... .. . ... ... : ... .. . ...
ROW 3F : ... .. . ... ... ... : ... .. . ... ... ... : ... .. . S05 : ... .. . ... ... : ... .. . ...

PATTERN 08
ROW 00 : G-2 00 7 V02 481 A01 : D#2 00 7 V02 481 A01 : C-3 00 . F04 : ... .. . ... ... : ... .. . ...
ROW 01 : ... .. . ... ... ... : ... .. . ... ... ... : ... .. . ... : ... .. . ... ... : ... .. . ...
ROW 02 : ... .. . ... ... ... : ... .. . ... ... ... : ... .. . ... : ... .. . ... ... : ... .. . ...
ROW 03 : ... .. . S06 ... A10 : ... .. . S06 ... A10 : ... .. . ... : ... .. . ... ... : ... .. . ...
ROW 04 : A#2 00 7 ... ... A01 : G-2 00 7 ... ... A01 : ... .. . S05 : ... .. . ... ... : ... .. . ...
ROW 05 : ... .. . S06 ... ... : ... .. . S06 ... ... : ... .. . ... : ... .. . ... ... : ... .. . ...
ROW 06 : C-3 00 7 ... ... ... : G-2 00 7 ... ... ... : C-3 00 . S05 : ... .. . ... ... : ... .. . ...
ROW 07 : ... .. . S06 ... ... : ... .. . S06 ... ... : ... .. . ... : ... .. . ... ... : ... .. . ...
ROW 08 : D#3 00 7 ... ... ... : C-3 00 7 ... ... ... : D#3 00 . S05 : ... .. . ... ... : ... .. . ...
ROW 09 : ... .. . ... ... ... : ... .. . ... ... ... : ... .. . ... : ... .. . ... ... : ... .. . ...
ROW 0A : ... .. . ... 482 ... : ... .. . ... 482 ... : ... .. . ... : ... .. . ... ... : ... .. . ...
ROW 0B : ... .. . S06 ... ... : ... .. . S06 ... ... : ... .. . ... : ... .. . ... ... : ... .. . ...
ROW 0C : F-3 00 7 ... 481 ... : C-3 00 7 ... 481 ... : F-3 00 . ... : ... .. . ... ... : ... .. . ...
ROW 0D : ... .. . S06 ... ... : ... .. . S06 ... ... : ... .. . ... : ... .. . ... ... : ... .. . ...
ROW 0E : C-3 00 7 ... ... ... : G-2 00 7 ... ... ... : ... .. . S05 : ... .. . ... ... : ... .. . ...
ROW 0F : ... .. . S06 ... ... : ... .. . S06 ... ... : ... .. . ... : ... .. . ... ... : ... .. . ...
ROW 10 : D#3 00 7 S06 ... ... : C-3 00 7 S06 ... ... : ... .. . ... : ... .. . ... ... : ... .. . ...
ROW 11 : C-3 00 3 ... ... ... : G-2 00 3 ... ... ... : ... .. . ... : ... .. . ... ... : ... .. . ...
ROW 12 : D#3 00 7 S06 ... ... : C-3 00 7 S06 ... ... : C-3 00 . ... : ... .. . ... ... : ... .. . ...
ROW 13 : F-3 00 7 S06 ... ... : C-3 00 7 S06 ... ... : ... .. . ... : ... .. . ... ... : ... .. . ...
ROW 14 : A#3 00 7 ... ... ... : G-3 00 7 ... ... ... : ... .. . S05 : ... .. . ... ... : ... .. . ...
ROW 15 : ... .. . S06 ... ... : ... .. . S06 ... ... : ... .. . ... : ... .. . ... ... : ... .. . ...
ROW 16 : G-3 00 7 ... ... ... : D#3 00 7 ... ... ... : C-3 00 . S05 : ... .. . ... ... : ... .. . ...
ROW 17 : ... .. . S06 ... ... : ... .. . S06 ... ... : ... .. . ... : ... .. . ... ... : ... .. . ...
ROW 18 : F-3 00 7 ... ... ... : C-3 00 7 ... ... ... : A#2 00 . S05 : ... .. . ... ... : ... .. . ...
ROW 19 : ... .. . S06 ... ... : ... .. . S06 ... ... : ... .. . ... : ... .. . ... ... : ... .. . ...
ROW 1A : D#3 00 7 ... ... ... : A#2 00 7 ... ... ... : ... .. . ... : ... .. . ... ... : ... .. . ...
ROW 1B : ... .. . S06 ... ... : ... .. . S06 ... ... : ... .. . ... : ... .. . ... ... : ... .. . ...
ROW 1C : F-3 00 7 ... ... ... : C-3 00 7 ... ... ... : G-2 00 . ... : ... .. . ... ... : ... .. . ...
ROW 1D : ... .. . ... ... ... : ... .. . ... ... ... : ... .. . ... : ... .. . ... ... : ... .. . ...
ROW 1E : ... .. . ... ... 482 : ... .. . ... ... 482 : ... .. . S05 : ... .. . ... ... : ... .. . ...
ROW 1F : ... .. . S06 A10 ... : ... .. . S06 A10 ... : ... .. . ... : ... .. . ... ... : ... .. . ...
ROW 20 : G-2 00 7 ... A01 481 : D#2 00 7 ... A01 481 : ... .. . ... : ... .. . ... ... : ... .. . ...
ROW 21 : ... .. . ... ... ... : ... .. . ... ... ... : ... .. . ... : ... .. . ... ... : ... .. . ...
ROW 22 : ... .. . S06 ... ... : ... .. . S06 ... ... : ... .. . ... : ... .. . ... ... : ... .. . ...
ROW 23 : A#2 00 7 S06 ... ... : G-2 00 7 S06 ... ... : ... .. . ... : ... .. . ... ... : ... .. . ...
ROW 24 : C-3 00 7 ... ... ... : G-2 00 7 ... ... ... : C-3 00 . S05 : ... .. . ... ... : ... .. . ...
ROW 25 : ... .. . S06 ... ... : ... .. . S06 ... ... : ... .. . ... : ... .. . ... ... : ... .. . ...
ROW 26 : D#3 00 7 ... ... ... : C-3 00 7 ... ... ... : C-3 00 . S05 : ... .. . ... ... : ... .. . ...
ROW 27 : ... .. . S06 ... ... : ... .. . S06 ... ... : ... .. . ... : ... .. . ... ... : ... .. . ...
ROW 28 : F-3 00 7 ... ... ... : C-3 00 7 ... ... ... : D#3 00 . S05 : ... .. . ... ... : ... .. . ...
ROW 29 : ... .. . ... ... ... : ... .. . ... ... ... : ... .. . ... : ... .. . ... ... : ... .. . ...
ROW 2A : ... .. . ... ... ... : ... .. . ... ... ... : ... .. . ... : ... .. . ... ... : ... .. . ...
ROW 2B : ... .. . S06 ... ... : ... .. . S06 ... ... : ... .. . ... : ... .. . ... ... : ... .. . ...
ROW 2C : G-3 00 7 ... ... ... : C-3 00 7 ... ... ... : F-3 00 . ... : ... .. . ... ... : ... .. . ...
ROW 2D : ... .. . S06 ... ... : ... .. . S06 ... ... : ... .. . ... : ... .. . ... ... : ... .. . ...
ROW 2E : D#3 00 7 ... ... ... : C-3 00 7 ... ... ... : ... .. . S05 : ... .. . ... ... : ... .. . ...
ROW 2F : ... .. . S06 ... ... : ... .. . S06 ... ... : ... .. . ... : ... .. . ... ... : ... .. . ...
ROW 30 : F-3 00 7 ... ... ... : C-3 00 7 ... ... ... : C-3 00 . ... : ... .. . ... ... : ... .. . ...
ROW 31 : ... .. . ... ... ... : ... .. . ... ... ... : ... .. . ... : ... .. . ... ... : ... .. . ...
ROW 32 : ... .. . S06 ... ... : ... .. . S06 ... ... : ... .. . ... : ... .. . ... ... : ... .. . ...
ROW 33 : G-3 00 7 S06 ... ... : D#3 00 7 S06 ... ... : ... .. . ... : ... .. . ... ... : ... .. . ...
ROW 34 : F-3 00 7 ... ... ... : C-3 00 7 ... ... ... : ... .. . S05 : ... .. . ... ... : ... .. . ...
ROW 35 : ... .. . S06 ... ... : ... .. . S06 ... ... : ... .. . ... : ... .. . ... ... : ... .. . ...
ROW 36 : D#3 00 7 ... ... ... : A#2 00 7 ... ... ... : C-3 00 . S05 : ... .. . ... ... : ... .. . ...
ROW 37 : ... .. . S06 ... ... : ... .. . S06 ... ... : ... .. . ... : ... .. . ... ... : ... .. . ...
ROW 38 : C-3 00 7 ... ... ... : G-2 00 7 ... ... ... : A#2 00 . S05 : ... .. . ... ... : ... .. . ...
ROW 39 : ... .. . S06 ... ... : ... .. . S06 ... ... : ... .. . ... : ... .. . ... ... : ... .. . ...
ROW 3A : D#3 00 7 ... ... ... : A#2 00 7 ... ... ... : ... .. . ... : ... .. . ... ... : ... .. . ...
ROW 3B : ... .. . S06 ... ... : ... .. . S06 ... ... : ... .. . ... : ... .. . ... ... : ... .. . ...
ROW 3C : C-3 00 7 ... ... ... : G-2 00 7 ... ... ... : G-2 00 . ... : ... .. . ... ... : ... .. . ...
ROW 3D : ... .. . ... ... ... : ... .. . ... ... ... : ... .. . ... : ... .. . ... ... : ... .. . ...
ROW 3E : ... .. . ... 482 ... : ... .. . ... 482 ... : ... .. . S05 : ... .. . ... ... : ... .. . ...
ROW 3F : ... .. . S06 ... A10 : ... .. . S06 ... A10 : ... .. . ... : ... .. . ... ... : ... .. . ...

PATTERN 09
ROW 00 : C-3 00 7 V02 481 A01 : C-4 00 6 V00 400 A04 : ... .. . ... : ... .. . ... ... : ... .. . ...
ROW 01 : ... .. . ... ... ... : ... .. . ... ... ... : ... .. . ... : ... .. . ... ... : ... .. . ...
ROW 02 : ... .. . ... ... ... : A#3 00 6 ... ... ... : ... .. . ... : ... .. . ... ... : ... .. . ...
ROW 03 : ... .. . ... ... ... : ... .. . ... ... ... : ... .. . ... : ... .. . ... ... : ... .. . ...
ROW 04 : ... .. . ... 484 ... : G-3 00 6 ... ... ... : ... .. . ... : ... .. . ... ... : ... .. . ...
ROW 05 : ... .. . ... ... ... : ... .. . ... ... ... : ... .. . ... : ... .. . ... ... : ... .. . ...
ROW 06 : ... .. . ... ... ... : F-3 00 6 ... ... ... : ... .. . ... : ... .. . ... ... : ... .. . ...
ROW 07 : ... .. . ... ... ... : ... .. . ... ... ... : ... .. . ... : ... .. . ... ... : ... .. . ...
ROW 08 : ... .. . ... ... A00 : G-3 00 6 ... ... ... : ... .. . ... : ... .. . ... ... : ... .. . ...
ROW 09 : ... .. . ... ... ... : ... .. . ... ... ... : ... .. . ... : ... .. . ... ... : ... .. . ...
ROW 0A : ... .. . S06 ... A10 : F-3 00 6 ... ... ... : ... .. . ... : ... .. . ... ... : ... .. . ...
ROW 0B : ... .. . ... ... ... : ... .. . ... ... ... : ... .. . ... : ... .. . ... ... : ... .. . ...
ROW 0C : A#2 00 7 ... 481 A01 : D#3 00 6 ... ... ... : ... .. . ... : ... .. . ... ... : ... .. . ...
ROW 0D : ... .. . ... ... ... : ... .. . ... ... ... : ... .. . ... : ... .. . ... ... : ... .. . ...
ROW 0E : ... .. . S06 ... ... : C-3 00 6 ... ... ... : ... .. . ... : ... .. . ... ... : ... .. . ...
ROW 0F : ... .. . ... ... ... : ... .. . ... ... ... : ... .. . ... : ... .. . ... ... : ... .. . ...
ROW 10 : C-3 00 7 ... ... ... : A-2 00 6 ... ... A05 : ... .. . ... : ... .. . ... ... : ... .. . ...
ROW 11 : ... .. . ... ... ... : C-3 00 6 G01 ... ... : ... .. . ... : ... .. . ... ... : ... .. . ...
ROW 12 : ... .. . S06 ... ... : D#3 00 6 G02 ... ... : ... .. . ... : ... .. . ... ... : ... .. . ...
ROW 13 : ... .. . ... ... ... : ... .. . ... ... ... : ... .. . ... : ... .. . ... ... : ... .. . ...
ROW 14 : --- .. . ... ... ... : C-3 00 6 ... ... ... : ... .. . ... : ... .. . ... ... : ... .. . ...
ROW 15 : ... .. . ... ... ... : D#3 00 6 G01 ... ... : ... .. . ... : ... .. . ... ... : ... .. . ...
ROW 16 : C-3 00 3 ... ... ... : F-3 00 6 G02 ... ... : ... .. . ... : ... .. . ... ... : ... .. . ...
ROW 17 : ... .. . ... ... ... : ... .. . ... ... ... : ... .. . ... : ... .. . ... ... : ... .. . ...
ROW 18 : A#2 00 7 ... ... ... : D#3 00 6 ... ... ... : ... .. . ... : ... .. . ... ... : ... .. . ...
ROW 19 : ... .. . ... ... ... : F-3 00 6 G01 ... ... : ... .. . ... : ... .. . ... ... : ... .. . ...
ROW 1A : ... .. . S06 ... ... : G-3 00 6 G02 ... ... : ... .. . ... : ... .. . ... ... : ... .. . ...
ROW 1B : ... .. . ... ... ... : ... .. . ... ... ... : ... .. . ... : ... .. . ... ... : ... .. . ...
ROW 1C : C-3 00 7 ... ... ... : F-3 00 6 ... ... ... : ... .. . ... : ... .. . ... ... : ... .. . ...
ROW 1D : ... .. . ... ... ... : G-3 00 6 G01 ... ... : ... .. . ... : ... .. . ... ... : ... .. . ...
ROW 1E : ... .. . S06 ... ... : A#3 00 6 G02 ... ... : ... .. . ... : ... .. . ... ... : ... .. . ...
ROW 1F : ... .. . ... ... ... : ... .. . ... ... ... : ... .. . ... : ... .. . ... ... : ... .. . ...
ROW 20 : C-3 00 7 S06 ... ... : C-4 00 6 ... ... A04 : ... .. . ... : ... .. . ... ... : ... .. . ...
ROW 21 : ... .. . ... ... ... : ... .. . ... ... ... : ... .. . ... : ... .. . ... ... : ... .. . ...
ROW 22 : C-3 00 2 ... ... ... : A#3 00 6 ... ... ... : ... .. . ... : ... .. . ... ... : ... .. . ...
ROW 23 : ... .. . ... ... ... : ... .. . ... ... ... : ... .. . ... : ... .. . ... ... : ... .. . ...
ROW 24 : C-3 00 7 ... ... ... : G-3 00 6 ... ... ... : ... .. . ... : ... .. . ... ... : ... .. . ...
ROW 25 : ... .. . ... ... ... : ... .. . ... ... ... : ... .. . ... : ... .. . ... ... : ... .. . ...
ROW 26 : ... .. . ... ... ... : F-3 00 6 ... ... ... : ... .. . ... : ... .. . ... ... : ... .. . ...
ROW 27 : ... .. . ... ... ... : ... .. . ... ... ... : ... .. . ... : ... .. . ... ... : ... .. . ...
ROW 28 : ... .. . ... 484 ... : D#3 00 6 ... ... ... : ... .. . ... : ... .. . ... ... : ... .. . ...
ROW 29 : ... .. . ... ... ... : ... .. . ... ... ... : ... .. . ... : ... .. . ... ... : ... .. . ...
ROW 2A : ... .. . S06 ... A10 : C-3 00 6 ... ... ... : ... .. . ... : ... .. . ... ... : ... .. . ...
ROW 2B : ... .. . ... ... ... : ... .. . ... ... ... : ... .. . ... : ... .. . ... ... : ... .. . ...
ROW 2C : A#2 00 7 ... 481 A01 : A#2 00 6 ... ... ... : ... .. . ... : ... .. . ... ... : ... .. . ...
ROW 2D : ... .. . ... ... ... : ... .. . ... ... ... : ... .. . ... : ... .. . ... ... : ... .. . ...
ROW 2E : ... .. . S06 ... ... : G-2 00 6 ... ... ... : ... .. . ... : ... .. . ... ... : ... .. . ...
ROW 2F : ... .. . ... ... ... : ... .. . ... ... ... : ... .. . ... : ... .. . ... ... : ... .. . ...
ROW 30 : C-3 00 7 ... ... ... : F-2 00 6 ... ... ... : ... .. . ... : ... .. . ... ... : ... .. . ...
ROW 31 : ... .. . ... ... ... : ... .. . ... ... ... : ... .. . ... : ... .. . ... ... : ... .. . ...
ROW 32 : ... .. . S06 ... ... : D#2 00 6 ... ... ... : ... .. . ... : ... .. . ... ... : ... .. . ...
ROW 33 : ... .. . ... ... ... : ... .. . ... ... ... : ... .. . ... : ... .. . ... ... : ... .. . ...
ROW 34 : --- .. . ... ... ... : C-2 00 6 ... ... ... : ... .. . ... : ... .. . ... ... : ... .. . ...
ROW 35 : ... .. . ... ... ... : ... .. . ... ... ... : ... .. . ... : ... .. . ... ... : ... .. . ...
ROW 36 : C-3 00 3 ... ... ... : A#1 00 6 ... ... ... : ... .. . ... : ... .. . ... ... : ... .. . ...
ROW 37 : ... .. . ... ... ... : ... .. . ... ... ... : ... .. . ... : ... .. . ... ... : ... .. . ...
ROW 38 : A#2 00 7 ... ... ... : G-1 00 6 ... ... ... : ... .. . ... : ... .. . ... ... : ... .. . ...
ROW 39 : ... .. . ... ... ... : ... .. . ... ... ... : ... .. . ... : ... .. . ... ... : ... .. . ...
ROW 3A : ... .. . S06 ... ... : ... .. . ... ... A02 : ... .. . ... : ... .. . ... ... : ... .. . ...
ROW 3B : ... .. . ... ... ... : ... .. . ... ... ... : ... .. . ... : ... .. . ... ... : ... .. . ...
ROW 3C : C-3 00 7 ... ... ... : ... .. . ... ... ... : ... .. . ... : ... .. . ... ... : ... .. . ...
ROW 3D : ... .. . ... ... ... : ... .. . ... ... ... : ... .. . ... : ... .. . ... ... : ... .. . ...
ROW 3E : ... .. . S06 ... ... : ... .. . ... ... ... : ... .. . ... : ... .. . ... ... : ... .. . ...
ROW 3F : ... .. . ... ... ... : ... .. . ... ... ... : ... .. . ... : ... .. . ... ... : ... .. . ...

PATTERN 0A
ROW 00 : ... .. . ... ... ... : G-2 00 7 V02 481 A01 : ... .. . ... : ... .. . ... ... : ... .. . ...
ROW 01 : ... .. . ... ... ... : ... .. . ... ... ... : ... .. . ... : ... .. . ... ... : ... .. . ...
ROW 02 : ... .. . ... ... ... : ... .. . ... 484 ... : ... .. . ... : ... .. . ... ... : ... .. . ...
ROW 03 : ... .. . ... ... ... : ... .. . ... ... ... : ... .. . ... : ... .. . ... ... : ... .. . ...
ROW 04 : ... .. . ... ... ... : ... .. . ... ... A00 : ... .. . ... : ... .. . ... ... : ... .. . ...
ROW 05 : ... .. . ... ... ... : ... .. . S06 ... A10 : ... .. . ... : ... .. . ... ... : ... .. . ...
ROW 06 : ... .. . ... ... ... : G-2 00 7 ... 481 A01 : ... .. . ... : ... .. . ... ... : ... .. . ...
ROW 07 : ... .. . ... ... ... : ... .. . S06 ... ... : ... .. . ... : ... .. . ... ... : ... .. . ...
ROW 08 : ... .. . ... ... ... : G-2 00 7 ... ... ... : ... .. . ... : ... .. . ... ... : ... .. . ...
ROW 09 : ... .. . ... ... ... : ... .. . S06 ... ... : ... .. . ... : ... .. . ... ... : ... .. . ...
ROW 0A : ... .. . ... ... ... : --- .. . ... ... ... : ... .. . ... : ... .. . ... ... : ... .. . ...
ROW 0B : ... .. . ... ... ... : G-2 00 3 ... ... ... : ... .. . ... : ... .. . ... ... : ... .. . ...
ROW 0C : ... .. . ... ... ... : G-2 00 7 ... ... ... : ... .. . ... : ... .. . ... ... : ... .. . ...
ROW 0D : ... .. . ... ... ... : ... .. . S06 ... ... : ... .. . ... : ... .. . ... ... : ... .. . ...
ROW 0E : ... .. . ... ... ... : G-2 00 7 ... ... ... : ... .. . ... : ... .. . ... ... : ... .. . ...
ROW 0F : ... .. . ... ... ... : ... .. . S06 ... ... : ... .. . ... : ... .. . ... ... : ... .. . ...
ROW 10 : ... .. . ... ... ... : G-2 00 7 S06 ... ... : ... .. . ... : ... .. . ... ... : ... .. . ...
ROW 11 : ... .. . ... ... ... : G-2 00 2 ... ... ... : ... .. . ... : ... .. . ... ... : ... .. . ...
ROW 12 : ... .. . ... ... ... : G-2 00 7 ... ... ... : ... .. . ... : ... .. . ... ... : ... .. . ...
ROW 13 : ... .. . ... ... ... : ... .. . ... ... ... : ... .. . ... : ... .. . ... ... : ... .. . ...
ROW 14 : ... .. . ... ... ... : ... .. . ... 484 ... : ... .. . ... : ... .. . ... ... : ... .. . ...
ROW 15 : ... .. . ... ... ... : ... .. . S06 ... A10 : ... .. . ... : ... .. . ... ... : ... .. . ...
ROW 16 : ... .. . ... ... ... : G-2 00 7 ... 481 A01 : ... .. . ... : ... .. . ... ... : ... .. . ...
ROW 17 : ... .. . ... ... ... : ... .. . S06 ... ... : ... .. . ... : ... .. . ... ... : ... .. . ...
ROW 18 : ... .. . ... ... ... : G-2 00 7 ... ... ... : ... .. . ... : ... .. . ... ... : ... .. . ...
ROW 19 : ... .. . ... ... ... : ... .. . S06 ... ... : ... .. . ... : ... .. . ... ... : ... .. . ...
ROW 1A : ... .. . ... ... ... : --- .. . ... ... ... : ... .. . ... : ... .. . ... ... : ... .. . ...
ROW 1B : ... .. . ... ... ... : G-2 00 3 ... ... ... : ... .. . ... : ... .. . ... ... : ... .. . ...
ROW 1C : ... .. . ... ... ... : G-2 00 7 ... ... ... : ... .. . ... : ... .. . ... ... : ... .. . ...
ROW 1D : ... .. . ... ... ... : ... .. . S06 ... ... : ... .. . ... : ... .. . ... ... : ... .. . ...
ROW 1E : ... .. . ... ... ... : G-2 00 7 ... ... ... : ... .. . ... : ... .. . ... ... : ... .. . ...
ROW 1F : ... .. . ... ... ... : ... .. . S06 ... ... : ... .. . ... : ... .. . ... ... : ... .. . ...
ROW 20 : ... .. . ... ... ... : G-2 00 7 V02 481 A01 : ... .. . ... : ... .. . ... ... : ... .. . ...
ROW 21 : ... .. . ... ... ... : ... .. . ... ... ... : ... .. . ... : ... .. . ... ... : ... .. . ...
ROW 22 : ... .. . ... ... ... : ... .. . ... 484 ... : ... .. . ... : ... .. . ... ... : ... .. . ...
ROW 23 : ... .. . ... ... ... : ... .. . ... ... ... : ... .. . ... : ... .. . ... ... : ... .. . ...
ROW 24 : ... .. . ... ... ... : ... .. . ... ... A00 : ... .. . ... : ... .. . ... ... : ... .. . ...
ROW 25 : ... .. . ... ... ... : ... .. . S06 ... A10 : ... .. . ... : ... .. . ... ... : ... .. . ...
ROW 26 : ... .. . ... ... ... : G-2 00 7 ... 481 A01 : ... .. . ... : ... .. . ... ... : ... .. . ...
ROW 27 : ... .. . ... ... ... : ... .. . S06 ... ... : ... .. . ... : ... .. . ... ... : ... .. . ...
ROW 28 : ... .. . ... ... ... : G-2 00 7 ... ... ... : ... .. . ... : ... .. . ... ... : ... .. . ...
ROW 29 : ... .. . ... ... ... : ... .. . S06 ... ... : ... .. . ... : ... .. . ... ... : ... .. . ...
ROW 2A : ... .. . ... ... ... : --- .. . ... ... ... : ... .. . ... : ... .. . ... ... : ... .. . ...
ROW 2B : ... .. . ... ... ... : G-2 00 3 ... ... ... : ... .. . ... : ... .. . ... ... : ... .. . ...
ROW 2C : ... .. . ... ... ... : G-2 00 7 ... ... ... : ... .. . ... : ... .. . ... ... : ... .. . ...
ROW 2D : ... .. . ... ... ... : ... .. . S06 ... ... : ... .. . ... : ... .. . ... ... : ... .. . ...
ROW 2E : ... .. . ... ... ... : G-2 00 7 ... ... ... : ... .. . ... : ... .. . ... ... : ... .. . ...
ROW 2F : ... .. . ... ... ... : ... .. . S06 ... ... : ... .. . ... : ... .. . ... ... : ... .. . ...
ROW 30 : ... .. . ... ... ... : G-2 00 7 S06 ... ... : ... .. . ... : ... .. . ... ... : ... .. . ...
ROW 31 : ... .. . ... ... ... : G-2 00 2 ... ... ... : ... .. . ... : ... .. . ... ... : ... .. . ...
ROW 32 : ... .. . ... ... ... : G-2 00 7 ... ... ... : ... .. . ... : ... .. . ... ... : ... .. . ...
ROW 33 : ... .. . ... ... ... : ... .. . ... ... ... : ... .. . ... : ... .. . ... ... : ... .. . ...
ROW 34 : ... .. . ... ... ... : ... .. . ... 484 ... : ... .. . ... : ... .. . ... ... : ... .. . ...
ROW 35 : ... .. . ... ... ... : ... .. . S06 ... A10 : ... .. . ... : ... .. . ... ... : ... .. . ...
ROW 36 : ... .. . ... ... ... : G-2 00 7 ... 481 A01 : ... .. . ... : ... .. . ... ... : ... .. . ...
ROW 37 : ... .. . ... ... ... : ... .. . S06 ... ... : ... .. . ... : ... .. . ... ... : ... .. . ...
ROW 38 : ... .. . ... ... ... : G-2 00 7 ... ... ... : ... .. . ... : ... .. . ... ... : ... .. . ...
ROW 39 : ... .. . ... ... ... : ... .. . S06 ... ... : ... .. . ... : ... .. . ... ... : ... .. . ...
ROW 3A : ... .. . ... ... ... : --- .. . ... ... ... : ... .. . ... : ... .. . ... ... : ... .. . ...
ROW 3B : ... .. . ... ... ... : G-2 00 3 ... ... ... : ... .. . ... : ... .. . ... ... : ... .. . ...
ROW 3C : ... .. . ... ... ... : G-2 00 7 ... ... ... : ... .. . ... : ... .. . ... ... : ... .. . ...
ROW 3D : ... .. . ... ... ... : ... .. . S06 ... ... : ... .. . ... : ... .. . ... ... : ... .. . ...
ROW 3E : ... .. . ... ... ... : G-2 00 7 ... ... ... : ... .. . ... : ... .. . ... ... : ... .. . ...
ROW 3F : ... .. . ... ... ... : ... .. . S06 ... B03 : ... .. . ... : ... .. . ... ... : ... .. . ...

TRACK  64   6 150 "Blanka"
COLUMNS : 3 3 1 2 1

ORDER 00 : 00 00 00 00 00
ORDER 01 : 01 01 00 01 00
ORDER 02 : 03 03 00 01 00
ORDER 03 : 04 04 00 01 00
ORDER 04 : 05 05 00 01 00
ORDER 05 : 06 06 02 01 00
ORDER 06 : 07 07 03 01 00
ORDER 07 : 08 08 04 01 00
ORDER 08 : 09 09 05 01 00

PATTERN 00
ROW 00 : --- .. . ... ... ... : --- .. . ... ... ... : B-2 00 . ... : ... .. . ... ... : ... .. . Z08
ROW 01 : ... .. . ... ... ... : ... .. . ... ... ... : ... .. . S03 : 8-# 00 5 A08 S03 : ... .. . ...
ROW 02 : ... .. . ... ... ... : ... .. . ... ... ... : ... .. . ... : ... .. . ... ... : ... .. . ...
ROW 03 : ... .. . ... ... ... : ... .. . ... ... ... : ... .. . ... : 8-# 00 5 ... S03 : ... .. . ...
ROW 04 : ... .. . ... ... ... : ... .. . ... ... ... : F#3 00 . ... : 8-# 00 5 ... S03 : ... .. . ...
ROW 05 : ... .. . ... ... ... : ... .. . ... ... ... : ... .. . S03 : ... .. . ... ... : ... .. . ...
ROW 06 : ... .. . ... ... ... : ... .. . ... ... ... : B-2 00 . S05 : 3-# 00 6 ... S04 : ... .. . ...
ROW 07 : ... .. . ... ... ... : ... .. . ... ... ... : ... .. . ... : ... .. . ... ... : ... .. . ...
ROW 08 : ... .. . ... ... ... : ... .. . ... ... ... : B-2 00 . S04 : ... .. . ... ... : ... .. . ...
ROW 09 : ... .. . ... ... ... : ... .. . ... ... ... : B-2 00 . S05 : 8-# 00 5 ... S03 : ... .. . ...
ROW 0A : ... .. . ... ... ... : ... .. . ... ... ... : B-2 00 . ... : ... .. . ... ... : ... .. . ...
ROW 0B : ... .. . ... ... ... : ... .. . ... ... ... : ... .. . S03 : 8-# 00 5 ... S03 : ... .. . ...
ROW 0C : ... .. . ... ... ... : ... .. . ... ... ... : F#3 00 . S05 : 8-# 00 5 ... S03 : ... .. . ...
ROW 0D : ... .. . ... ... ... : ... .. . ... ... ... : ... .. . ... : ... .. . ... ... : ... .. . ...
ROW 0E : ... .. . ... ... ... : ... .. . ... ... ... : B-2 00 . ... : 3-# 00 6 ... S04 : ... .. . ...
ROW 0F : ... .. . ... ... ... : ... .. . ... ... ... : ... .. . S03 : 8-# 00 5 ... S03 : ... .. . ...
ROW 10 : ... .. . ... ... ... : ... .. . ... ... ... : ... .. . ... : ... .. . ... ... : ... .. . ...
ROW 11 : ... .. . ... ... ... : ... .. . ... ... ... : B-2 00 . S05 : 8-# 00 5 ... S03 : ... .. . ...
ROW 12 : ... .. . ... ... ... : ... .. . ... ... ... : C#3 00 . S05 : ... .. . ... ... : ... .. . ...
ROW 13 : ... .. . ... ... ... : ... .. . ... ... ... : ... .. . ... : 8-# 00 5 ... S03 : ... .. . ...
ROW 14 : ... .. . ... ... ... : ... .. . ... ... ... : F#3 00 . ... : 8-# 00 5 ... S03 : ... .. . ...
ROW 15 : ... .. . ... ... ... : ... .. . ... ... ... : ... .. . S03 : ... .. . ... ... : ... .. . ...
ROW 16 : ... .. . ... ... ... : ... .. . ... ... ... : G#3 00 . ... : 3-# 00 6 ... S04 : ... .. . ...
ROW 17 : ... .. . ... ... ... : ... .. . ... ... ... : ... .. . S03 : ... .. . ... ... : ... .. . ...
ROW 18 : ... .. . ... ... ... : ... .. . ... ... ... : ... .. . ... : 8-# 00 5 ... S03 : ... .. . ...
ROW 19 : ... .. . ... ... ... : ... .. . ... ... ... : B-2 00 . ... : ... .. . ... ... : ... .. . ...
ROW 1A : ... .. . ... ... ... : ... .. . ... ... ... : ... .. . S03 : 8-# 00 5 ... S03 : ... .. . ...
ROW 1B : ... .. . ... ... ... : ... .. . ... ... ... : B-2 00 . S05 : 8-# 00 5 ... S03 : ... .. . ...
ROW 1C : ... .. . ... ... ... : ... .. . ... ... ... : F#3 00 . S05 : ... .. . ... ... : ... .. . ...
ROW 1D : ... .. . ... ... ... : ... .. . ... ... ... : ... .. . ... : 3-# 00 6 ... S04 : ... .. . ...
ROW 1E : ... .. . ... ... ... : ... .. . ... ... ... : B-2 00 . ... : ... .. . ... ... : ... .. . ...
ROW 1F : ... .. . ... ... ... : ... .. . ... ... ... : ... .. . S03 : ... .. . ... ... : ... .. . ...
ROW 20 : ... .. . ... ... ... : ... .. . ... ... ... : B-2 00 . ... : 1-# 00 9 A0C ... : ... .. . ...
ROW 21 : ... .. . ... ... ... : ... .. . ... ... ... : ... .. . S03 : 8-# 00 5 A08 S03 : ... .. . ...
ROW 22 : ... .. . ... ... ... : ... .. . ... ... ... : ... .. . ... : ... .. . ... ... : ... .. . ...
ROW 23 : ... .. . ... ... ... : ... .. . ... ... ... : ... .. . ... : 1-# 00 9 A0C ... : ... .. . ...
ROW 24 : ... .. . ... ... ... : ... .. . ... ... ... : F#3 00 . ... : 6-# 00 8 A06 ... : ... .. . ...
ROW 25 : ... .. . ... ... ... : ... .. . ... ... ... : ... .. . S03 : ... .. . A02 ... : ... .. . ...
ROW 26 : ... .. . ... ... ... : ... .. . ... ... ... : B-2 00 . S05 : 1-# 00 9 A0C ... : ... .. . ...
ROW 27 : ... .. . ... ... ... : ... .. . ... ... ... : ... .. . ... : ... .. . ... ... : ... .. . ...
ROW 28 : ... .. . ... ... ... : ... .. . ... ... ... : B-2 00 . S04 : ... .. . ... ... : ... .. . ...
ROW 29 : ... .. . ... ... ... : ... .. . ... ... ... : B-2 00 . S05 : 1-# 00 9 A0C ... : ... .. . ...
ROW 2A : ... .. . ... ... ... : ... .. . ... ... ... : B-2 00 . ... : 1-# 00 9 A0C ... : ... .. . ...
ROW 2B : ... .. . ... ... ... : ... .. . ... ... ... : ... .. . S03 : 8-# 00 5 A08 S03 : ... .. . ...
ROW 2C : ... .. . ... ... ... : ... .. . ... ... ... : F#3 00 . S05 : 6-# 00 8 A06 ... : ... .. . ...
ROW 2D : ... .. . ... ... ... : ... .. . ... ... ... : ... .. . ... : ... .. . A02 ... : ... .. . ...
ROW 2E : ... .. . ... ... ... : ... .. . ... ... ... : B-2 00 . ... : 1-# 00 9 A0C ... : ... .. . ...
ROW 2F : ... .. . ... ... ... : ... .. . ... ... ... : ... .. . S03 : 8-# 00 5 ... S03 : ... .. . ...
ROW 30 : ... .. . ... ... ... : ... .. . ... ... ... : ... .. . ... : ... .. . ... ... : ... .. . ...
ROW 31 : ... .. . ... ... ... : ... .. . ... ... ... : B-2 00 . S05 : 1-# 00 9 A0C ... : ... .. . ...
ROW 32 : ... .. . ... ... ... : ... .. . ... ... ... : C#3 00 . S05 : 1-# 00 9 A0C ... : ... .. . ...
ROW 33 : ... .. . ... ... ... : ... .. . ... ... ... : ... .. . ... : 8-# 00 5 A08 S03 : ... .. . ...
ROW 34 : ... .. . ... ... ... : ... .. . ... ... ... : F#3 00 . ... : 6-# 00 8 A06 ... : ... .. . ...
ROW 35 : ... .. . ... ... ... : ... .. . ... ... ... : ... .. . S03 : ... .. . A02 ... : ... .. . ...
ROW 36 : ... .. . ... ... ... : ... .. . ... ... ... : G#3 00 . ... : 1-# 00 9 A0C ... : ... .. . ...
ROW 37 : ... .. . ... ... ... : ... .. . ... ... ... : ... .. . S03 : ... .. . ... ... : ... .. . ...
ROW 38 : ... .. . ... ... ... : C#3 00 2 V01 461 ... : ... .. . ... : 8-# 00 5 A08 S03 : ... .. . ...
ROW 39 : ... .. . ... ... ... : ... .. . ... ... ... : B-2 00 . ... : 1-# 00 9 A0C ... : ... .. . ...
ROW 3A : ... .. . ... ... ... : ... .. 3 ... ... ... : ... .. . S03 : 8-# 00 5 A08 S03 : ... .. . ...
ROW 3B : ... .. . ... ... ... : ... .. . ... ... ... : B-2 00 . S05 : 1-# 00 9 A0C ... : ... .. . ...
ROW 3C : ... .. . ... ... ... : ... .. . ... ... ... : F#3 00 . S05 : 6-# 00 8 A06 S05 : ... .. . ...
ROW 3D : ... .. . ... ... ... : ... .. . ... ... ... : ... .. . ... : 3-# 00 6 A08 S04 : ... .. . ...
ROW 3E : ... .. . ... ... ... : ... .. . ... ... ... : B-2 00 . ... : 1-# 00 9 A0C ... : ... .. . ...
ROW 3F : ... .. . ... ... ... : ... .. . ... ... ... : ... .. . S03 : ... .. . ... ... : ... .. . ...

PATTERN 01
ROW 00 : ... .. . A05 ... ... : D-3 00 2 V01 461 ... : B-2 00 . ... : 1-# 00 9 A0C ... : ... .. . ...
ROW 01 : ... .. . ... ... ... : ... .. . ... ... ... : ... .. . ... : 8-# 00 5 A08 S03 : ... .. . ...
ROW 02 : ... .. . ... ... ... : ... .. 3 ... ... ... : ... .. . S03 : ... .. . ... ... : ... .. . ...
ROW 03 : ... .. . ... ... ... : ... .. . ... ... ... : ... .. . ... : 1-# 00 9 A0C ... : ... .. . ...
ROW 04 : F#3 00 B V02 4C1 ... : ... .. . ... ... ... : ... .. . ... : 6-# 00 8 A06 ... : ... .. . ...
ROW 05 : G-3 00 B ... ... ... : ... .. . ... ... ... : ... .. . ... : ... .. . A02 ... : ... .. . ...
ROW 06 : F#3 00 B ... ... ... : ... .. . ... ... ... : ... .. . ... : 1-# 00 9 A0C S04 : ... .. . ...
ROW 07 : G-3 00 B ... ... ... : ... .. . ... ... ... : ... .. . ... : ... .. . ... ... : ... .. . ...
ROW 08 : B-3 00 B ... ... ... : ... .. . ... ... ... : F#3 00 . ... : ... .. . ... ... : ... .. . ...
ROW 09 : ... .. . ... ... ... : ... .. . ... ... ... : ... .. . ... : 1-# 00 9 A0C ... : ... .. . ...
ROW 0A : --- .. . ... ... ... : ... .. . ... ... ... : ... .. . S03 : 1-# 00 9 A0C ... : ... .. . ...
ROW 0B : B-3 00 6 ... ... ... : ... .. . ... ... ... : ... .. . ... : 8-# 00 5 A08 S03 : ... .. . ...
ROW 0C : ... .. . ... ... ... : ... .. . ... ... ... : B-2 00 . S05 : 6-# 00 8 A06 ... : ... .. . ...
ROW 0D : --- .. . ... ... ... : ... .. . ... ... ... : ... .. . ... : ... .. . A02 ... : ... .. . ...
ROW 0E : A-3 00 9 ... ... ... : ... .. 2 ... ... ... : ... .. . ... : 1-# 00 9 A0C ... : ... .. . ...
ROW 0F : ... .. . ... ... ... : ... .. . ... ... ... : ... .. . ... : 8-# 00 5 A08 S03 : ... .. . ...
ROW 10 : E-3 00 B ... ... ... : E-3 00 2 ... P7E ... : B-2 00 . S04 : ... .. . ... ... : ... .. . ...
ROW 11 : ... .. . ... ... ... : ... .. . ... ... ... : ... .. . ... : 1-# 00 9 A0C S03 : ... .. . ...
ROW 12 : --- .. . ... ... ... : ... .. 3 ... ... ... : B-2 00 . S05 : 1-# 00 9 A0C ... : ... .. . ...
ROW 13 : E-3 00 6 ... ... ... : ... .. . ... ... ... : ... .. . ... : 8-# 00 5 A08 S03 : ... .. . ...
ROW 14 : E-3 00 B ... ... ... : ... .. . ... ... ... : B-2 00 . ... : 6-# 00 8 A06 ... : ... .. . ...
ROW 15 : ... .. . ... ... ... : ... .. . ... ... ... : ... .. . ... : ... .. . A02 ... : ... .. . ...
ROW 16 : --- .. . ... ... ... : ... .. . ... ... ... : ... .. . S03 : 1-# 00 9 A0C ... : ... .. . ...
ROW 17 : E-3 00 6 ... ... ... : ... .. . ... ... ... : ... .. . ... : ... .. . ... ... : ... .. . ...
ROW 18 : ... .. . ... ... ... : ... .. . ... ... ... : F#3 00 . S05 : 8-# 00 5 A08 S03 : ... .. . ...
ROW 19 : --- .. . ... ... ... : ... .. . ... ... ... : ... .. . ... : 1-# 00 9 A0C ... : ... .. . ...
ROW 1A : ... .. . ... ... ... : ... .. . ... ... ... : ... .. . ... : 8-# 00 5 A08 S03 : ... .. . ...
ROW 1B : ... .. . ... ... ... : ... .. . ... ... ... : ... .. . ... : 1-# 00 9 A0C S03 : ... .. . ...
ROW 1C : D-3 00 A ... ... ... : ... .. . ... ... ... : B-2 00 . ... : 6-# 00 8 A06 S05 : ... .. . ...
ROW 1D : ... .. . ... ... ... : ... .. . ... ... ... : ... .. . ... : 3-# 00 6 A08 S04 : ... .. . ...
ROW 1E : --- .. . ... ... ... : ... .. 2 ... ... ... : ... .. . S03 : 1-# 00 9 A0C ... : ... .. . ...
ROW 1F : D-3 00 6 ... ... ... : ... .. . ... ... ... : ... .. . ... : ... .. . ... ... : ... .. . ...
ROW 20 : ... .. . ... ... ... : D-3 00 2 ... ... ... : ... .. . ... : 1-# 00 9 A0C ... : ... .. . ...
ROW 21 : --- .. . ... ... ... : ... .. . ... ... ... : ... .. . ... : 8-# 00 5 A08 S03 : ... .. . ...
ROW 22 : ... .. . ... ... ... : ... .. 3 ... P80 ... : B-2 00 . S05 : ... .. . ... ... : ... .. . ...
ROW 23 : ... .. . ... ... ... : ... .. . ... ... ... : ... .. . ... : 1-# 00 9 A0C ... : ... .. . ...
ROW 24 : F#3 00 B ... ... ... : ... .. . ... ... ... : C#3 00 . S05 : 6-# 00 8 A06 ... : ... .. . ...
ROW 25 : G-3 00 B ... ... ... : ... .. . ... ... ... : ... .. . ... : ... .. . A02 ... : ... .. . ...
ROW 26 : F#3 00 B ... ... ... : ... .. . ... ... ... : ... .. . ... : 1-# 00 9 A0C S04 : ... .. . ...
ROW 27 : G-3 00 B ... ... ... : ... .. . ... ... ... : ... .. . ... : ... .. . ... ... : ... .. . ...
ROW 28 : B-3 00 B ... ... ... : ... .. . ... ... ... : F#3 00 . ... : ... .. . ... ... : ... .. . ...
ROW 29 : ... .. . ... ... ... : ... .. . ... ... ... : ... .. . ... : 1-# 00 9 A0C ... : ... .. . ...
ROW 2A : --- .. . ... ... ... : ... .. . ... ... ... : ... .. . S03 : 1-# 00 9 A0C ... : ... .. . ...
ROW 2B : B-3 00 6 ... ... ... : ... .. . ... ... ... : ... .. . ... : 8-# 00 5 A08 S03 : ... .. . ...
ROW 2C : ... .. . ... ... ... : ... .. . ... ... ... : G#3 00 . ... : 6-# 00 8 A06 ... : ... .. . ...
ROW 2D : --- .. . ... ... ... : ... .. . ... ... ... : ... .. . ... : ... .. . A02 ... : ... .. . ...
ROW 2E : A-3 00 9 ... ... ... : ... .. 2 ... ... ... : ... .. . S03 : 1-# 00 9 A0C ... : ... .. . ...
ROW 2F : --- .. . ... ... ... : ... .. . ... ... ... : ... .. . ... : 8-# 00 5 A08 S03 : ... .. . ...
ROW 30 : E-4 00 B ... ... ... : C#3 00 2 ... ... ... : ... .. . ... : ... .. . ... ... : ... .. . ...
ROW 31 : ... .. . ... ... ... : ... .. . ... ... ... : ... .. . ... : 1-# 00 9 A0C ... : ... .. . ...
ROW 32 : --- .. . ... ... ... : ... .. 3 ... ... ... : B-2 00 . ... : 1-# 00 9 A0C ... : ... .. . ...
ROW 33 : E-4 00 6 ... ... ... : ... .. . ... ... ... : ... .. . ... : 8-# 00 5 A08 S03 : ... .. . ...
ROW 34 : E-4 00 B ... ... ... : ... .. . ... ... ... : ... .. . S03 : 6-# 00 8 A06 ... : ... .. . ...
ROW 35 : ... .. . ... ... ... : ... .. . ... ... ... : ... .. . ... : ... .. . A02 ... : ... .. . ...
ROW 36 : --- .. . ... ... ... : ... .. 2 ... ... ... : B-2 00 . S05 : 1-# 00 9 A0C ... : ... .. . ...
ROW 37 : E-4 00 6 ... ... ... : ... .. . ... ... ... : ... .. . ... : ... .. . ... ... : ... .. . ...
ROW 38 : ... .. . ... ... ... : G#2 00 2 ... ... ... : F#3 00 . S05 : 8-# 00 5 A08 S03 : ... .. . ...
ROW 39 : --- .. . ... ... ... : ... .. . ... ... ... : ... .. . ... : 1-# 00 9 A0C ... : ... .. . ...
ROW 3A : ... .. . ... ... ... : ... .. 3 ... ... ... : ... .. . ... : 8-# 00 5 A08 S03 : ... .. . ...
ROW 3B : ... .. . ... ... ... : ... .. . ... ... ... : ... .. . ... : 1-# 00 9 A0C ... : ... .. . ...
ROW 3C : D-4 00 A ... ... ... : ... .. . ... ... ... : B-2 00 . ... : 6-# 00 8 A06 S05 : ... .. . ...
ROW 3D : ... .. . ... ... ... : ... .. . ... ... ... : ... .. . ... : 3-# 00 6 A08 S04 : ... .. . ...
ROW 3E : --- .. . ... ... ... : ... .. 2 ... ... ... : ... .. . S03 : 1-# 00 9 A0C ... : ... .. . ...
ROW 3F : D-4 00 6 ... ... ... : ... .. . ... ... ... : ... .. . ... : ... .. . ... ... : ... .. . ...

PATTERN 02
ROW 00 : ... .. . ... ... ... : A-2 00 1 V01 F03 ... : A-2 00 . S05 : 1-# 00 9 A0C ... : ... .. . ...
ROW 01 : ... .. . ... ... ... : D-3 00 . ... A00 ... : ... .. . ... : ... .. . ... ... : ... .. . ...
ROW 02 : ... .. . ... ... ... : A-2 00 2 ... ... ... : A-2 00 . S05 : --- .. . ... ... : ... .. . ...
ROW 03 : ... .. . ... ... ... : D-3 00 . ... ... ... : A-2 00 . S05 : ... .. . ... ... : ... .. . ...
ROW 04 : ... .. . ... ... ... : A-2 00 3 ... ... ... : A-2 00 . S05 : ... .. . ... ... : ... .. . ...
ROW 05 : ... .. . ... ... ... : D-3 00 . ... ... ... : ... .. . ... : ... .. . ... ... : ... .. . ...
ROW 06 : ... .. . ... ... ... : A-2 00 . ... ... ... : A-2 00 . S05 : 1-# 00 9 A0C ... : ... .. . ...
ROW 07 : ... .. . ... ... ... : D-3 00 . ... ... ... : ... .. . ... : ... .. . ... ... : ... .. . ...
ROW 08 : F#3 00 B A05 ... ... : A-2 00 . ... ... ... : A-2 00 . S05 : 7-# 00 6 A06 ... : ... .. . ...
ROW 09 : ... .. . ... ... ... : D-3 00 . ... ... ... : A-2 00 . S05 : ... .. . ... ... : ... .. . ...
ROW 0A : G-3 00 B ... ... ... : A-2 00 . ... ... ... : A-2 00 . ... : ... .. . A02 ... : ... .. . ...
ROW 0B : ... .. . ... ... ... : D-3 00 . ... ... ... : ... .. . S03 : ... .. . ... ... : ... .. . ...
ROW 0C : F#3 00 B ... ... ... : A-2 00 . ... ... ... : F#2 00 . S05 : 1-# 00 9 A0C ... : ... .. . ...
ROW 0D : ... .. . ... ... ... : D-3 00 . ... ... ... : ... .. . ... : ... .. . ... ... : ... .. . ...
ROW 0E : G-3 00 B ... ... ... : A-2 00 . ... ... ... : F#2 00 . ... : --- .. . ... ... : ... .. . ...
ROW 0F : ... .. . ... ... ... : D-3 00 . ... ... ... : ... .. . S03 : ... .. . ... ... : ... .. . ...
ROW 10 : B-3 00 B ... ... ... : A-2 00 . ... ... ... : B-2 00 . ... : ... .. . ... ... : ... .. . ...
ROW 11 : ... .. . ... ... ... : D-3 00 . ... ... ... : ... .. . ... : ... .. . ... ... : ... .. . ...
ROW 12 : ... .. . ... ... ... : A-2 00 . ... ... ... : ... .. . S03 : 1-# 00 9 A0C ... : ... .. . ...
ROW 13 : ... .. . ... ... ... : D-3 00 . ... ... ... : B-2 00 . S05 : ... .. . ... ... : ... .. . ...
ROW 14 : --- .. . ... ... ... : A-2 00 . ... ... ... : F#3 00 . ... : 1-# 00 9 A0C ... : ... .. . ...
ROW 15 : ... .. . ... ... ... : D-3 00 . ... ... ... : ... .. . S03 : ... .. . ... ... : ... .. . ...
ROW 16 : B-3 00 6 ... ... ... : A-2 00 . ... ... ... : B-2 00 . S05 : --- .. . ... ... : ... .. . ...
ROW 17 : ... .. . ... ... ... : D-3 00 . ... ... ... : ... .. . ... : ... .. . ... ... : ... .. . ...
ROW 18 : ... .. . ... ... ... : A-2 00 . ... ... ... : B-2 00 . S05 : 7-# 00 6 A06 ... : ... .. . ...
ROW 19 : ... .. . ... ... ... : D-3 00 . ... ... ... : B-2 00 . S05 : ... .. . ... ... : ... .. . ...
ROW 1A : ... .. . ... ... ... : A-2 00 . ... ... ... : B-2 00 . ... : ... .. . A02 ... : ... .. . ...
ROW 1B : ... .. . ... ... ... : D-3 00 . ... ... ... : ... .. . S03 : ... .. . ... ... : ... .. . ...
ROW 1C : A-3 00 9 ... ... ... : A-2 00 . ... ... ... : F#3 00 . S05 : 1-# 00 9 A0C ... : ... .. . ...
ROW 1D : ... .. . ... ... ... : D-3 00 . ... ... ... : ... .. . ... : ... .. . ... ... : ... .. . ...
ROW 1E : ... .. . ... ... ... : A-2 00 2 ... ... ... : B-2 00 . ... : --- .. . ... ... : ... .. . ...
ROW 1F : ... .. . ... ... ... : D-3 00 . ... ... ... : ... .. . S03 : ... .. . ... ... : ... .. . ...
ROW 20 : E-3 00 B ... ... ... : G#2 00 1 ... ... ... : A-2 00 . S05 : ... .. . ... ... : ... .. . ...
ROW 21 : ... .. . ... ... ... : E-3 00 . ... ... ... : ... .. . ... : ... .. . ... ... : ... .. . ...
ROW 22 : ... .. . ... ... ... : G#2 00 2 ... ... ... : A-2 00 . S05 : 1-# 00 9 A0C ... : ... .. . ...
ROW 23 : ... .. . ... ... ... : E-3 00 . ... ... ... : A-2 00 . S05 : ... .. . ... ... : ... .. . ...
ROW 24 : --- .. . ... ... ... : G#2 00 3 ... ... ... : A-2 00 . S05 : 1-# 00 9 A0C ... : ... .. . ...
ROW 25 : ... .. . ... ... ... : E-3 00 . ... ... ... : ... .. . ... : ... .. . ... ... : ... .. . ...
ROW 26 : E-3 00 6 ... ... ... : G#2 00 . ... ... ... : A-2 00 . S05 : --- .. . ... ... : ... .. . ...
ROW 27 : ... .. . ... ... ... : E-3 00 . ... ... ... : ... .. . ... : ... .. . ... ... : ... .. . ...
ROW 28 : E-3 00 B ... ... ... : G#2 00 . ... ... ... : A-2 00 . S05 : 7-# 00 6 A06 ... : ... .. . ...
ROW 29 : ... .. . ... ... ... : E-3 00 . ... ... ... : A-2 00 . S05 : ... .. . ... ... : ... .. . ...
ROW 2A : ... .. . ... ... ... : G#2 00 . ... ... ... : A-2 00 . ... : ... .. . A02 ... : ... .. . ...
ROW 2B : ... .. . ... ... ... : E-3 00 . ... ... ... : ... .. . S03 : ... .. . ... ... : ... .. . ...
ROW 2C : --- .. . ... ... ... : G#2 00 . ... ... ... : F#2 00 . S05 : 1-# 00 9 A0C ... : ... .. . ...
ROW 2D : ... .. . ... ... ... : E-3 00 . ... ... ... : ... .. . ... : ... .. . ... ... : ... .. . ...
ROW 2E : E-3 00 6 ... ... ... : G#2 00 . ... ... ... : F#2 00 . ... : --- .. . ... ... : ... .. . ...
ROW 2F : ... .. . ... ... ... : E-3 00 . ... ... ... : ... .. . S03 : ... .. . ... ... : ... .. . ...
ROW 30 : ... .. . ... ... ... : G#2 00 . ... ... ... : B-2 00 . ... : ... .. . ... ... : ... .. . ...
ROW 31 : ... .. . ... ... ... : E-3 00 . ... ... ... : ... .. . ... : ... .. . ... ... : ... .. . ...
ROW 32 : --- .. . ... ... ... : G#2 00 . ... ... ... : ... .. . S03 : 1-# 00 9 A0C ... : ... .. . ...
ROW 33 : ... .. . ... ... ... : E-3 00 . ... ... ... : B-2 00 . S05 : ... .. . ... ... : ... .. . ...
ROW 34 : ... .. . ... ... ... : G#2 00 . ... ... ... : F#3 00 . ... : --- .. . ... ... : ... .. . ...
ROW 35 : ... .. . ... ... ... : E-3 00 . ... ... ... : ... .. . S03 : ... .. . ... ... : ... .. . ...
ROW 36 : ... .. . ... ... ... : G#2 00 . ... ... ... : B-2 00 . S05 : 1-# 00 9 A0C ... : ... .. . ...
ROW 37 : ... .. . ... ... ... : E-3 00 . ... ... ... : ... .. . ... : ... .. . ... ... : ... .. . ...
ROW 38 : D-3 00 A ... ... ... : G#2 00 . ... ... ... : F#2 00 . S05 : 7-# 00 6 A06 ... : ... .. . ...
ROW 39 : ... .. . ... ... ... : E-3 00 . ... ... ... : F#2 00 . S05 : ... .. . ... ... : ... .. . ...
ROW 3A : ... .. . ... ... ... : G#2 00 . ... ... ... : F#2 00 . ... : ... .. . A02 ... : ... .. . ...
ROW 3B : ... .. . ... ... ... : E-3 00 . ... ... ... : ... .. . S03 : ... .. . ... ... : ... .. . ...
ROW 3C : --- .. . ... ... ... : G#2 00 . ... ... ... : F#2 00 . S05 : 1-# 00 9 A0C ... : ... .. . ...
ROW 3D : ... .. . ... ... ... : E-3 00 . ... ... ... : ... .. . ... : ... .. . ... ... : ... .. . ...
ROW 3E : D-3 00 6 ... ... ... : G#2 00 2 ... ... ... : F#2 00 . ... : --- .. . ... ... : ... .. . ...
ROW 3F : ... .. . ... ... ... : E-3 00 . ... ... ... : ... .. . S03 : ... .. . ... ... : ... .. . ...

PATTERN 03
ROW 00 : ... .. . A05 ... ... : A-3 00 2 V01 461 ... : G-2 00 . S05 : ... .. . ... ... : ... .. . ...
ROW 01 : --- .. . ... ... ... : ... .. . ... ... ... : ... .. . ... : ... .. . ... ... : ... .. . ...
ROW 02 : ... .. . ... ... ... : ... .. 3 ... ... ... : G-2 00 . S05 : ... .. . ... ... : ... .. . ...
ROW 03 : ... .. . ... ... ... : ... .. . ... ... ... : G-2 00 . S05 : ... .. . ... ... : ... .. . ...
ROW 04 : F#3 00 B V02 4C1 ... : ... .. . ... ... ... : G-2 00 . S05 : ... .. . ... ... : ... .. . ...
ROW 05 : G-3 00 B ... ... ... : ... .. . ... ... ... : ... .. . ... : ... .. . ... ... : ... .. . ...
ROW 06 : F#3 00 B ... ... ... : ... .. . ... ... ... : G-2 00 . S05 : ... .. . ... ... : ... .. . ...
ROW 07 : G-3 00 B ... ... ... : ... .. . ... ... ... : ... .. . ... : ... .. . ... ... : ... .. . ...
ROW 08 : B-3 00 B ... ... ... : ... .. . ... ... ... : G-2 00 . S05 : ... .. . ... ... : ... .. . ...
ROW 09 : ... .. . ... ... ... : ... .. . ... ... ... : G-2 00 . S05 : ... .. . ... ... : ... .. . ...
ROW 0A : --- .. . ... ... ... : ... .. . ... ... ... : G-2 00 . ... : ... .. . ... ... : ... .. . ...
ROW 0B : B-3 00 6 ... ... ... : ... .. . ... ... ... : ... .. . S03 : ... .. . ... ... : ... .. . ...
ROW 0C : ... .. . ... ... ... : ... .. . ... ... ... : E-2 00 . S05 : ... .. . ... ... : ... .. . ...
ROW 0D : --- .. . ... ... ... : ... .. . ... ... ... : ... .. . ... : ... .. . ... ... : ... .. . ...
ROW 0E : A-3 00 9 ... ... ... : ... .. 2 P82 ... ... : E-2 00 . ... : ... .. . ... ... : ... .. . ...
ROW 0F : ... .. . ... ... ... : ... .. . ... ... ... : ... .. . S03 : ... .. . ... ... : ... .. . ...
ROW 10 : E-3 00 B ... ... ... : G#3 00 2 P80 ... ... : A-2 00 . ... : ... .. . ... ... : ... .. . ...
ROW 11 : E-3 00 B ... ... ... : ... .. . ... ... ... : ... .. . ... : ... .. . ... ... : ... .. . ...
ROW 12 : --- .. . ... ... ... : ... .. 3 ... ... ... : ... .. . S03 : ... .. . ... ... : ... .. . ...
ROW 13 : E-3 00 6 ... ... ... : ... .. . ... ... ... : A-2 00 . S05 : ... .. . ... ... : ... .. . ...
ROW 14 : E-3 00 B ... ... ... : ... .. . ... ... ... : E-3 00 . ... : ... .. . ... ... : ... .. . ...
ROW 15 : ... .. . ... ... ... : ... .. . ... ... ... : ... .. . S03 : ... .. . ... ... : ... .. . ...
ROW 16 : --- .. . ... ... ... : ... .. . ... ... ... : A-2 00 . S05 : ... .. . ... ... : ... .. . ...
ROW 17 : E-3 00 6 ... ... ... : ... .. . ... ... ... : ... .. . ... : ... .. . ... ... : ... .. . ...
ROW 18 : ... .. . ... ... ... : ... .. . ... ... ... : A-2 00 . S05 : ... .. . ... ... : ... .. . ...
ROW 19 : --- .. . ... ... ... : ... .. . ... ... ... : A-2 00 . S05 : ... .. . ... ... : ... .. . ...
ROW 1A : ... .. . ... ... ... : ... .. . ... ... ... : A-2 00 . ... : ... .. . ... ... : ... .. . ...
ROW 1B : ... .. . ... ... ... : ... .. . ... ... ... : ... .. . S03 : ... .. . ... ... : ... .. . ...
ROW 1C : D-3 00 A ... ... ... : ... .. . ... ... ... : E-3 00 . S05 : ... .. . ... ... : ... .. . ...
ROW 1D : ... .. . ... ... ... : ... .. . ... ... ... : ... .. . ... : ... .. . ... ... : ... .. . ...
ROW 1E : --- .. . ... ... ... : ... .. 2 ... ... ... : A-2 00 . S05 : ... .. . ... ... : ... .. . ...
ROW 1F : D-3 00 6 ... ... ... : ... .. . ... ... ... : ... .. . ... : ... .. . ... ... : ... .. . ...
ROW 20 : ... .. . ... ... ... : G-3 00 2 ... ... ... : G-2 00 . S05 : ... .. . ... ... : ... .. . ...
ROW 21 : --- .. . ... ... ... : ... .. . ... ... ... : ... .. . ... : ... .. . ... ... : ... .. . ...
ROW 22 : ... .. . ... ... ... : ... .. 3 ... ... ... : G-2 00 . S05 : ... .. . ... ... : ... .. . ...
ROW 23 : ... .. . ... ... ... : ... .. . ... ... ... : G-2 00 . S05 : ... .. . ... ... : ... .. . ...
ROW 24 : F#3 00 B ... ... ... : ... .. . ... ... ... : G-2 00 . S05 : ... .. . ... ... : ... .. . ...
ROW 25 : G-3 00 B P82 ... ... : ... .. . ... ... ... : ... .. . ... : ... .. . ... ... : ... .. . ...
ROW 26 : F#3 00 B P80 ... ... : ... .. . ... ... ... : G-2 00 . S05 : ... .. . ... ... : ... .. . ...
ROW 27 : G-3 00 B P82 ... ... : ... .. . ... ... ... : ... .. . ... : ... .. . ... ... : ... .. . ...
ROW 28 : B-3 00 B P80 ... ... : ... .. . ... ... ... : G-2 00 . S05 : ... .. . ... ... : ... .. . ...
ROW 29 : C-4 00 B ... ... ... : ... .. . ... ... ... : G-2 00 . S05 : ... .. . ... ... : ... .. . ...
ROW 2A : B-3 00 B ... ... ... : ... .. . ... ... ... : G-2 00 . ... : ... .. . ... ... : ... .. . ...
ROW 2B : C-4 00 B ... ... ... : ... .. . ... ... ... : ... .. . S03 : ... .. . ... ... : ... .. . ...
ROW 2C : D#4 00 B ... ... ... : ... .. . ... ... ... : E-2 00 . S05 : ... .. . ... ... : ... .. . ...
ROW 2D : E-4 00 B ... ... ... : ... .. . ... ... ... : ... .. . ... : ... .. . ... ... : ... .. . ...
ROW 2E : D#4 00 B ... ... ... : ... .. 2 ... ... ... : E-2 00 . ... : ... .. . ... ... : ... .. . ...
ROW 2F : E-4 00 B ... ... ... : ... .. . ... ... ... : ... .. . S03 : ... .. . ... ... : ... .. . ...
ROW 30 : B-4 00 B ... ... ... : F#3 00 2 ... ... ... : A-2 00 . ... : ... .. . ... ... : ... .. . ...
ROW 31 : ... .. . ... ... ... : ... .. . ... ... ... : ... .. . ... : ... .. . ... ... : ... .. . ...
ROW 32 : --- .. . ... ... ... : ... .. 3 ... ... ... : ... .. . S03 : ... .. . ... ... : ... .. . ...
ROW 33 : B-4 00 6 ... ... ... : ... .. . ... ... ... : A-2 00 . S05 : ... .. . ... ... : ... .. . ...
ROW 34 : A-4 00 B ... ... ... : B-3 00 2 ... ... ... : E-3 00 . ... : ... .. . ... ... : ... .. . ...
ROW 35 : ... .. . ... ... ... : ... .. . ... ... ... : ... .. . S03 : ... .. . ... ... : ... .. . ...
ROW 36 : --- 00 . ... ... ... : ... .. 3 ... ... ... : A-2 00 . ... : ... .. . ... ... : ... .. . ...
ROW 37 : A-4 00 6 ... ... ... : ... .. . ... ... ... : ... .. . S03 : ... .. . ... ... : ... .. . ...
ROW 38 : G-4 00 B ... ... ... : D-4 00 2 ... ... ... : F#2 00 . S05 : ... .. . ... ... : ... .. . ...
ROW 39 : ... .. . ... ... ... : ... .. . ... ... ... : F#2 00 . S05 : ... .. . ... ... : ... .. . ...
ROW 3A : --- .. . ... ... ... : ... .. 3 ... ... ... : F#2 00 . ... : ... .. . ... ... : ... .. . ...
ROW 3B : G-4 00 6 ... ... ... : ... .. . ... ... ... : ... .. . S03 : ... .. . ... ... : ... .. . ...
ROW 3C : E-4 00 B ... ... ... : F#4 00 2 ... ... ... : F#3 00 . S05 : ... .. . ... ... : ... .. . ...
ROW 3D : ... .. . ... ... ... : ... .. . ... ... ... : ... .. . ... : ... .. . ... ... : ... .. . ...
ROW 3E : --- .. . ... ... ... : ... .. 3 ... ... ... : F#2 00 . ... : ... .. . ... ... : ... .. . ...
ROW 3F : E-4 00 6 ... ... ... : ... .. . ... ... ... : ... .. . S03 : ... .. . ... ... : ... .. . ...

PATTERN 04
ROW 00 : ... .. . A05 ... ... : D-3 00 2 V01 A00 461 : B-2 00 . ... : ... .. . ... ... : ... .. . ...
ROW 01 : --- .. . ... ... ... : ... .. . ... ... ... : ... .. . ... : ... .. . ... ... : ... .. . ...
ROW 02 : ... .. . ... ... ... : ... .. 3 ... ... ... : ... .. . S03 : ... .. . ... ... : ... .. . ...
ROW 03 : ... .. . ... ... ... : ... .. . ... ... ... : B-2 00 . S05 : ... .. . ... ... : ... .. . ...
ROW 04 : B-3 00 B V02 4C1 ... : ... .. . ... ... ... : F#3 00 . ... : ... .. . ... ... : ... .. . ...
ROW 05 : C-4 00 B ... ... ... : ... .. . ... ... ... : ... .. . S03 : ... .. . ... ... : ... .. . ...
ROW 06 : B-3 00 B ... ... ... : ... .. . ... ... ... : B-2 00 . S05 : ... .. . ... ... : ... .. . ...
ROW 07 : C-4 00 B ... ... ... : ... .. . ... ... ... : ... .. . ... : ... .. . ... ... : ... .. . ...
ROW 08 : E-4 00 B ... ... ... : F#4 00 8 ... A05 400 : B-2 00 . S05 : ... .. . ... ... : ... .. . ...
ROW 09 : G-4 00 8 V01 400 ... : D-3 00 2 ... A00 461 : B-2 00 . S05 : ... .. . ... ... : ... .. . ...
ROW 0A : F#4 00 8 ... ... ... : ... .. . ... ... ... : B-2 00 . ... : ... .. . ... ... : ... .. . ...
ROW 0B : G-4 00 8 ... ... ... : ... .. . ... ... ... : ... .. . S03 : ... .. . ... ... : ... .. . ...
ROW 0C : F#4 00 8 ... ... ... : ... .. . ... ... ... : F#3 00 . S05 : ... .. . ... ... : ... .. . ...
ROW 0D : ... .. . ... ... ... : ... .. . ... ... ... : ... .. . ... : ... .. . ... ... : ... .. . ...
ROW 0E : D-4 00 9 V02 4C1 ... : ... .. 2 ... ... ... : B-2 00 . ... : ... .. . ... ... : ... .. . ...
ROW 0F : ... .. . ... ... ... : ... .. . ... ... ... : ... .. . S03 : ... .. . ... ... : ... .. . ...
ROW 10 : A-3 00 B ... ... ... : E-3 00 2 ... ... ... : ... .. . ... : ... .. . ... ... : ... .. . ...
ROW 11 : A-3 00 B ... ... ... : ... .. . ... ... ... : C#3 00 . S05 : ... .. . ... ... : ... .. . ...
ROW 12 : --- .. . ... ... ... : ... .. 3 ... ... ... : D-3 00 . S05 : ... .. . ... ... : ... .. . ...
ROW 13 : A-3 00 6 ... ... ... : ... .. . ... ... ... : ... .. . ... : ... .. . ... ... : ... .. . ...
ROW 14 : A-3 00 B ... ... ... : A-4 00 8 ... A05 400 : G-3 00 . ... : ... .. . ... ... : ... .. . ...
ROW 15 : ... .. . ... ... ... : E-3 00 3 ... A00 461 : ... .. . S03 : ... .. . ... ... : ... .. . ...
ROW 16 : --- .. . ... ... ... : ... .. . ... ... ... : C#3 00 . ... : ... .. . ... ... : ... .. . ...
ROW 17 : A-3 00 6 ... ... ... : ... .. . ... ... ... : ... .. . S03 : ... .. . ... ... : ... .. . ...
ROW 18 : B-4 00 8 V01 400 ... : ... .. . ... ... ... : ... .. . ... : ... .. . ... ... : ... .. . ...
ROW 19 : B-4 00 8 ... ... ... : ... .. . ... ... ... : C#3 00 . ... : ... .. . ... ... : ... .. . ...
ROW 1A : --- .. . ... ... ... : ... .. . ... ... ... : ... .. . S03 : ... .. . ... ... : ... .. . ...
ROW 1B : B-4 00 4 ... ... ... : ... .. . ... ... ... : C#3 00 . S05 : ... .. . ... ... : ... .. . ...
ROW 1C : G-3 00 A V02 4C1 ... : B-4 00 8 ... A05 400 : G-3 00 . S05 : ... .. . ... ... : ... .. . ...
ROW 1D : ... .. . ... ... ... : E-3 00 3 ... A00 461 : ... .. . ... : ... .. . ... ... : ... .. . ...
ROW 1E : --- .. . ... ... ... : ... .. 2 ... ... ... : C#3 00 . ... : ... .. . ... ... : ... .. . ...
ROW 1F : G-3 00 6 ... ... ... : ... .. . ... ... ... : ... .. . S03 : ... .. . ... ... : ... .. . ...
ROW 20 : ... .. . ... ... ... : D-3 00 2 ... ... ... : B-2 00 . ... : ... .. . ... ... : ... .. . ...
ROW 21 : --- .. . ... ... ... : ... .. . ... ... ... : ... .. . ... : ... .. . ... ... : ... .. . ...
ROW 22 : ... .. . ... ... ... : ... .. 3 ... ... ... : ... .. . S03 : ... .. . ... ... : ... .. . ...
ROW 23 : ... .. . ... ... ... : ... .. . ... ... ... : B-2 00 . S05 : ... .. . ... ... : ... .. . ...
ROW 24 : B-3 00 B ... ... ... : ... .. . ... ... ... : F#3 00 . ... : ... .. . ... ... : ... .. . ...
ROW 25 : C-4 00 B ... ... ... : ... .. . ... ... ... : ... .. . S03 : ... .. . ... ... : ... .. . ...
ROW 26 : B-3 00 B ... ... ... : ... .. . ... ... ... : B-2 00 . S05 : ... .. . ... ... : ... .. . ...
ROW 27 : C-4 00 B ... ... ... : ... .. . ... ... ... : ... .. . ... : ... .. . ... ... : ... .. . ...
ROW 28 : E-4 00 B ... ... ... : F#4 00 8 ... A05 400 : B-2 00 . S05 : ... .. . ... ... : ... .. . ...
ROW 29 : G-4 00 8 V01 400 ... : D-3 00 2 ... A00 461 : B-2 00 . S05 : ... .. . ... ... : ... .. . ...
ROW 2A : F#4 00 8 ... ... ... : ... .. . ... ... ... : B-2 00 . ... : ... .. . ... ... : ... .. . ...
ROW 2B : G-4 00 8 ... ... ... : ... .. . ... ... ... : ... .. . S03 : ... .. . ... ... : ... .. . ...
ROW 2C : F#4 00 8 ... ... ... : ... .. . ... ... ... : F#3 00 . S05 : ... .. . ... ... : ... .. . ...
ROW 2D : ... .. . ... ... ... : ... .. . ... ... ... : ... .. . ... : ... .. . ... ... : ... .. . ...
ROW 2E : D-4 00 9 V02 4C1 ... : ... .. 2 ... ... ... : B-2 00 . ... : ... .. . ... ... : ... .. . ...
ROW 2F : --- .. . ... ... ... : ... .. . ... ... ... : ... .. . S03 : ... .. . ... ... : ... .. . ...
ROW 30 : A-4 00 B ... ... ... : C#3 00 2 ... ... ... : ... .. . ... : ... .. . ... ... : ... .. . ...
ROW 31 : A-4 00 B ... ... ... : ... .. . ... ... ... : C#3 00 . S05 : ... .. . ... ... : ... .. . ...
ROW 32 : --- .. . ... ... ... : ... .. 3 ... ... ... : D-3 00 . S05 : ... .. . ... ... : ... .. . ...
ROW 33 : A-4 00 6 ... ... ... : ... .. . ... ... ... : ... .. . ... : ... .. . ... ... : ... .. . ...
ROW 34 : A-4 00 B ... ... ... : D-4 00 8 ... A05 400 : G-3 00 . ... : ... .. . ... ... : ... .. . ...
ROW 35 : ... .. . ... ... ... : C#3 00 3 ... A00 461 : ... .. . S03 : ... .. . ... ... : ... .. . ...
ROW 36 : --- .. . ... ... ... : ... .. 2 ... ... ... : C#3 00 . ... : ... .. . ... ... : ... .. . ...
ROW 37 : A-4 00 6 ... ... ... : ... .. . ... ... ... : ... .. . S03 : ... .. . ... ... : ... .. . ...
ROW 38 : D-4 00 8 V01 400 ... : G#2 00 2 ... ... ... : ... .. . ... : ... .. . ... ... : ... .. . ...
ROW 39 : D-4 00 8 ... ... ... : ... .. . ... ... ... : C#3 00 . ... : ... .. . ... ... : ... .. . ...
ROW 3A : ... .. . ... ... ... : ... .. 3 ... ... ... : ... .. . S03 : ... .. . ... ... : ... .. . ...
ROW 3B : --- .. . ... ... ... : ... .. . ... ... ... : C#3 00 . S05 : ... .. . ... ... : ... .. . ...
ROW 3C : G-4 00 A V02 4C1 ... : C-4 00 8 ... A05 400 : G-3 00 . S05 : ... .. . ... ... : ... .. . ...
ROW 3D : ... .. . ... ... ... : G#2 00 3 ... A00 461 : ... .. . ... : ... .. . ... ... : ... .. . ...
ROW 3E : --- .. . ... ... ... : ... .. 2 ... ... ... : C#3 00 . ... : ... .. . ... ... : ... .. . ...
ROW 3F : G-4 00 6 ... ... ... : ... .. . ... ... ... : ... .. . S03 : ... .. . ... ... : ... .. . ...

PATTERN 05
ROW 00 : ... .. . A05 ... ... : A-3 00 2 V01 A00 461 : D-3 00 . ... : ... .. . ... ... : ... .. . ...
ROW 01 : --- .. . ... ... ... : ... .. . ... ... ... : ... .. . ... : ... .. . ... ... : ... .. . ...
ROW 02 : ... .. . ... ... ... : ... .. 3 ... ... ... : ... .. . S03 : ... .. . ... ... : ... .. . ...
ROW 03 : ... .. . ... ... ... : ... .. . ... ... ... : D-3 00 . S05 : ... .. . ... ... : ... .. . ...
ROW 04 : B-3 00 B V02 4C1 ... : ... .. . ... ... ... : A-3 00 . ... : ... .. . ... ... : ... .. . ...
ROW 05 : C-4 00 B ... ... ... : ... .. . ... ... ... : ... .. . S03 : ... .. . ... ... : ... .. . ...
ROW 06 : B-3 00 B ... ... ... : ... .. . ... ... ... : D-3 00 . S05 : ... .. . ... ... : ... .. . ...
ROW 07 : C-4 00 B ... ... ... : ... .. . ... ... ... : ... .. . ... : ... .. . ... ... : ... .. . ...
ROW 08 : E-4 00 B ... ... ... : F#4 00 8 ... A05 400 : D-3 00 . S05 : ... .. . ... ... : ... .. . ...
ROW 09 : G-4 00 8 V01 400 ... : A-3 00 3 ... A00 461 : D-3 00 . S05 : ... .. . ... ... : ... .. . ...
ROW 0A : F#4 00 8 ... ... ... : ... .. . ... ... ... : D-3 00 . ... : ... .. . ... ... : ... .. . ...
ROW 0B : G-4 00 8 ... ... ... : ... .. . ... ... ... : ... .. . S03 : ... .. . ... ... : ... .. . ...
ROW 0C : F#4 00 8 ... ... ... : ... .. . ... ... ... : A-3 00 . S05 : ... .. . ... ... : ... .. . ...
ROW 0D : ... .. . ... ... ... : ... .. . ... ... ... : ... .. . ... : ... .. . ... ... : ... .. . ...
ROW 0E : D-4 00 A V02 4C1 ... : ... .. 2 ... ... ... : D-3 00 . ... : ... .. . ... ... : ... .. . ...
ROW 0F : ... .. . ... ... ... : ... .. . ... ... ... : ... .. . S03 : ... .. . ... ... : ... .. . ...
ROW 10 : A-3 00 B ... ... ... : G#3 00 2 ... ... ... : ... .. . ... : ... .. . ... ... : ... .. . ...
ROW 11 : A-3 00 B ... ... ... : ... .. . ... ... ... : C#3 00 . S05 : ... .. . ... ... : ... .. . ...
ROW 12 : --- .. . ... ... ... : ... .. 3 ... ... ... : D-3 00 . S05 : ... .. . ... ... : ... .. . ...
ROW 13 : A-3 00 6 ... ... ... : ... .. . ... ... ... : ... .. . ... : ... .. . ... ... : ... .. . ...
ROW 14 : A-3 00 A ... ... ... : A-4 00 8 ... A05 400 : F#3 00 . ... : ... .. . ... ... : ... .. . ...
ROW 15 : ... .. . ... ... ... : G#3 00 3 ... A00 461 : ... .. . S03 : ... .. . ... ... : ... .. . ...
ROW 16 : --- .. . ... ... ... : ... .. . ... ... ... : G-3 00 . ... : ... .. . ... ... : ... .. . ...
ROW 17 : A-3 00 5 ... ... ... : ... .. . ... ... ... : ... .. . S03 : ... .. . ... ... : ... .. . ...
ROW 18 : B-4 00 8 V01 400 ... : ... .. . ... ... ... : ... .. . ... : ... .. . ... ... : ... .. . ...
ROW 19 : B-4 00 8 ... ... ... : ... .. . ... ... ... : F#2 00 . ... : ... .. . ... ... : ... .. . ...
ROW 1A : --- .. . ... ... ... : ... .. 2 ... ... ... : ... .. . S03 : ... .. . ... ... : ... .. . ...
ROW 1B : B-4 00 3 ... ... ... : ... .. . ... ... ... : F#2 00 . S05 : ... .. . ... ... : ... .. . ...
ROW 1C : G-3 00 A V02 4C1 ... : B-4 00 8 ... A05 400 : F#3 00 . S05 : ... .. . ... ... : ... .. . ...
ROW 1D : ... .. . ... ... ... : G#3 00 1 ... A00 461 : ... .. . ... : ... .. . ... ... : ... .. . ...
ROW 1E : --- .. . ... ... ... : ... .. . ... ... ... : F#2 00 . ... : ... .. . ... ... : ... .. . ...
ROW 1F : G-3 00 5 ... ... ... : ... .. . ... ... ... : ... .. . S03 : ... .. . ... ... : ... .. . ...
ROW 20 : ... .. . ... ... ... : B-3 00 8 ... A05 400 : B-2 00 . ... : ... .. . ... ... : ... .. . ...
ROW 21 : --- .. . ... ... ... : ... .. . S04 ... ... : ... .. . ... : ... .. . ... ... : ... .. . ...
ROW 22 : ... .. . ... ... ... : F#3 00 8 ... ... ... : ... .. . S03 : ... .. . ... ... : ... .. . ...
ROW 23 : ... .. . ... ... ... : B-3 00 2 G04 ... ... : B-2 00 . S05 : ... .. . ... ... : ... .. . ...
ROW 24 : F#3 00 A ... ... ... : C#4 00 8 ... ... ... : F#3 00 . ... : ... .. . ... ... : ... .. . ...
ROW 25 : G-3 00 B ... ... ... : F#3 00 2 G04 ... ... : ... .. . S03 : ... .. . ... ... : ... .. . ...
ROW 26 : F#3 00 B ... ... ... : F#3 00 8 ... ... ... : B-2 00 . S05 : ... .. . ... ... : ... .. . ...
ROW 27 : G-3 00 B ... ... ... : C#4 00 2 G04 ... ... : ... .. . ... : ... .. . ... ... : ... .. . ...
ROW 28 : B-3 00 B ... ... ... : D-4 00 8 ... ... ... : B-2 00 . S05 : ... .. . ... ... : ... .. . ...
ROW 29 : C-4 00 B ... ... ... : F#3 00 2 G04 ... ... : B-2 00 . S05 : ... .. . ... ... : ... .. . ...
ROW 2A : B-3 00 B ... ... ... : F#3 00 8 ... ... ... : B-2 00 . ... : ... .. . ... ... : ... .. . ...
ROW 2B : C-4 00 B ... ... ... : D-4 00 2 G04 ... ... : ... .. . S03 : ... .. . ... ... : ... .. . ...
ROW 2C : D#4 00 B ... ... ... : F#4 00 8 ... ... ... : F#3 00 . S05 : ... .. . ... ... : ... .. . ...
ROW 2D : E-4 00 B ... ... ... : F#3 00 2 G04 ... ... : ... .. . ... : ... .. . ... ... : ... .. . ...
ROW 2E : D#4 00 B ... ... ... : B-3 00 8 ... ... ... : B-2 00 . ... : ... .. . ... ... : ... .. . ...
ROW 2F : E-4 00 B ... ... ... : F#4 00 2 G04 ... ... : ... .. . S03 : ... .. . ... ... : ... .. . ...
ROW 30 : B-4 00 B ... ... ... : B-3 00 8 S05 ... ... : ... .. . ... : ... .. . ... ... : ... .. . ...
ROW 31 : ... .. . ... ... ... : C#4 00 8 S05 ... ... : B-2 00 . S05 : ... .. . ... ... : ... .. . ...
ROW 32 : --- .. . ... ... ... : B-3 00 8 S05 ... ... : C#3 00 . S05 : ... .. . ... ... : ... .. . ...
ROW 33 : B-4 00 6 ... ... ... : B-3 00 3 S05 ... ... : ... .. . ... : ... .. . ... ... : ... .. . ...
ROW 34 : C-5 00 B ... ... ... : B-3 00 8 S05 ... ... : F#3 00 . ... : ... .. . ... ... : ... .. . ...
ROW 35 : ... .. . ... ... ... : C#4 00 8 S05 ... ... : ... .. . S03 : ... .. . ... ... : ... .. . ...
ROW 36 : --- .. . ... ... ... : B-3 00 8 S05 ... ... : G#3 00 . ... : ... .. . ... ... : ... .. . ...
ROW 37 : C-5 00 6 ... ... ... : B-3 00 3 S05 ... ... : ... .. . S03 : ... .. . ... ... : ... .. . ...
ROW 38 : B-4 00 B ... ... ... : B-3 00 8 S05 ... ... : ... .. . ... : ... .. . ... ... : ... .. . ...
ROW 39 : ... .. . ... ... ... : C#4 00 8 S05 ... ... : B-2 00 . ... : ... .. . ... ... : ... .. . ...
ROW 3A : --- .. . ... ... ... : B-3 00 8 S05 ... ... : ... .. . S03 : ... .. . ... ... : ... .. . ...
ROW 3B : B-4 00 6 ... ... ... : B-3 00 3 S05 ... ... : B-2 00 . S05 : ... .. . ... ... : ... .. . ...
ROW 3C : A-4 00 B ... ... ... : B-3 00 8 S05 ... ... : F#3 00 . S05 : ... .. . ... ... : ... .. . ...
ROW 3D : ... .. . ... ... ... : C#4 00 8 S05 ... ... : ... .. . ... : ... .. . ... ... : ... .. . ...
ROW 3E : --- .. . ... ... ... : B-3 00 8 S05 ... ... : B-2 00 . ... : ... .. . ... ... : ... .. . ...
ROW 3F : A-4 00 6 ... ... ... : B-3 00 3 S05 ... ... : ... .. . S03 : ... .. . ... ... : ... .. . ...

PATTERN 06
ROW 00 : G-4 00 B A05 V02 4C1 : ... .. . ... ... ... : ... .. . ... : ... .. . ... ... : ... .. . ...
ROW 01 : --- .. . ... ... ... : ... .. . ... ... ... : ... .. . ... : ... .. . ... ... : ... .. . ...
ROW 02 : G-4 00 B ... ... ... : ... .. . ... ... ... : ... .. . ... : ... .. . ... ... : ... .. . ...
ROW 03 : F#4 00 B ... ... ... : G-4 00 6 A05 V02 4C1 : ... .. . ... : ... .. . ... ... : ... .. . ...
ROW 04 : C#3 00 7 A06 V01 400 : A-3 00 9 V01 A06 400 : ... .. . ... : ... .. . ... ... : ... .. . ...
ROW 05 : C#3 00 7 ... ... ... : A-3 00 9 ... ... ... : ... .. . ... : ... .. . ... ... : ... .. . ...
ROW 06 : C#3 00 7 ... ... ... : A-3 00 9 ... ... ... : ... .. . ... : ... .. . ... ... : ... .. . ...
ROW 07 : C#3 00 7 ... ... ... : A-3 00 9 ... ... ... : ... .. . ... : ... .. . ... ... : ... .. . ...
ROW 08 : C#3 00 7 ... ... ... : A-3 00 9 ... ... ... : ... .. . ... : ... .. . ... ... : ... .. . ...
ROW 09 : ... .. . ... ... ... : ... .. . ... ... ... : ... .. . ... : ... .. . ... ... : ... .. . ...
ROW 0A : F#4 00 B A05 V02 4C1 : A-3 00 A ... A05 ... : ... .. . ... : ... .. . ... ... : ... .. . ...
ROW 0B : ... .. . ... ... ... : ... .. . ... A02 ... : ... .. . ... : ... .. . ... ... : ... .. . ...
ROW 0C : G-4 00 B ... ... ... : ... .. . ... ... ... : ... .. . ... : ... .. . ... ... : ... .. . ...
ROW 0D : ... .. . ... ... ... : ... .. . ... ... ... : ... .. . ... : ... .. . ... ... : ... .. . ...
ROW 0E : A-4 00 B ... ... ... : A-3 00 A ... A05 ... : ... .. . ... : ... .. . ... ... : ... .. . ...
ROW 0F : ... .. . ... ... ... : ... .. . ... A02 ... : ... .. . ... : ... .. . ... ... : ... .. . ...
ROW 10 : B-4 00 B ... ... ... : ... .. . ... ... ... : ... .. . ... : ... .. . ... ... : ... .. . ...
ROW 11 : A-4 00 B ... ... ... : ... .. . ... ... ... : ... .. . ... : ... .. . ... ... : ... .. . ...
ROW 12 : G-4 00 B ... ... ... : ... .. . ... ... ... : ... .. . ... : ... .. . ... ... : ... .. . ...
ROW 13 : E-4 00 B ... ... ... : B-4 00 6 A05 V02 4C1 : ... .. . ... : ... .. . ... ... : ... .. . ...
ROW 14 : D-3 00 7 A06 V01 400 : B-3 00 9 V01 A06 400 : ... .. . ... : ... .. . ... ... : ... .. . ...
ROW 15 : D-3 00 7 ... ... ... : B-3 00 9 ... ... ... : ... .. . ... : ... .. . ... ... : ... .. . ...
ROW 16 : D-3 00 7 ... ... ... : B-3 00 9 ... ... ... : ... .. . ... : ... .. . ... ... : ... .. . ...
ROW 17 : D-3 00 7 ... ... ... : B-3 00 9 ... ... ... : ... .. . ... : ... .. . ... ... : ... .. . ...
ROW 18 : D-3 00 7 ... ... ... : B-3 00 9 ... ... ... : ... .. . ... : ... .. . ... ... : ... .. . ...
ROW 19 : ... .. . ... ... ... : ... .. . ... ... ... : ... .. . ... : ... .. . ... ... : ... .. . ...
ROW 1A : D-4 00 B A05 V02 4C1 : B-3 00 A ... A05 ... : ... .. . ... : ... .. . ... ... : ... .. . ...
ROW 1B : ... .. . ... ... ... : ... .. . ... A02 ... : ... .. . ... : ... .. . ... ... : ... .. . ...
ROW 1C : --- .. . ... ... ... : ... .. . ... ... ... : ... .. . ... : ... .. . ... ... : ... .. . ...
ROW 1D : D-4 00 6 ... ... ... : ... .. . ... ... ... : ... .. . ... : ... .. . ... ... : ... .. . ...
ROW 1E : E-4 00 B ... ... ... : B-3 00 A ... A05 ... : ... .. . ... : ... .. . ... ... : ... .. . ...
ROW 1F : ... .. . ... ... ... : ... .. . ... A02 ... : ... .. . ... : ... .. . ... ... : ... .. . ...
ROW 20 : G-4 00 B ... ... ... : ... .. . ... ... ... : ... .. . ... : ... .. . ... ... : ... .. . ...
ROW 21 : E-4 00 6 ... ... ... : ... .. . ... ... ... : ... .. . ... : ... .. . ... ... : ... .. . ...
ROW 22 : G-4 00 B ... ... ... : ... .. . ... ... ... : ... .. . ... : ... .. . ... ... : ... .. . ...
ROW 23 : F#4 00 B ... ... ... : G-4 00 6 A05 V02 4C1 : ... .. . ... : ... .. . ... ... : ... .. . ...
ROW 24 : C#3 00 7 A06 V01 400 : A-3 00 9 V01 A06 400 : ... .. . ... : ... .. . ... ... : ... .. . ...
ROW 25 : C#3 00 7 ... ... ... : A-3 00 9 ... ... ... : ... .. . ... : ... .. . ... ... : ... .. . ...
ROW 26 : C#3 00 7 ... ... ... : A-3 00 9 ... ... ... : ... .. . ... : ... .. . ... ... : ... .. . ...
ROW 27 : C#3 00 7 ... ... ... : A-3 00 9 ... ... ... : ... .. . ... : ... .. . ... ... : ... .. . ...
ROW 28 : C#3 00 7 ... ... ... : A-3 00 9 ... ... ... : ... .. . ... : ... .. . ... ... : ... .. . ...
ROW 29 : ... .. . ... ... ... : ... .. . ... ... ... : ... .. . ... : ... .. . ... ... : ... .. . ...
ROW 2A : F#4 00 B A05 V02 4C1 : A-3 00 A ... A05 ... : ... .. . ... : ... .. . ... ... : ... .. . ...
ROW 2B : ... .. . ... ... ... : ... .. . ... A02 ... : ... .. . ... : ... .. . ... ... : ... .. . ...
ROW 2C : G-4 00 B ... ... ... : ... .. . ... ... ... : ... .. . ... : ... .. . ... ... : ... .. . ...
ROW 2D : ... .. . ... ... ... : ... .. . ... ... ... : ... .. . ... : ... .. . ... ... : ... .. . ...
ROW 2E : A-4 00 B ... ... ... : A-3 00 A ... A05 ... : ... .. . ... : ... .. . ... ... : ... .. . ...
ROW 2F : ... .. . ... ... ... : ... .. . ... A02 ... : ... .. . ... : ... .. . ... ... : ... .. . ...
ROW 30 : B-3 00 A ... ... ... : ... .. . ... ... ... : ... .. . ... : ... .. . ... ... : ... .. . ...
ROW 31 : ... .. . ... ... ... : ... .. . ... ... ... : ... .. . ... : ... .. . ... ... : ... .. . ...
ROW 32 : --- .. . ... ... ... : ... .. . ... ... ... : ... .. . ... : ... .. . ... ... : ... .. . ...
ROW 33 : B-3 00 6 ... ... ... : ... .. . ... ... ... : ... .. . ... : ... .. . ... ... : ... .. . ...
ROW 34 : D-3 00 7 V01 A06 400 : B-3 00 9 V01 A06 400 : ... .. . ... : ... .. . ... ... : ... .. . ...
ROW 35 : D-3 00 7 ... ... ... : B-3 00 9 ... ... ... : ... .. . ... : ... .. . ... ... : ... .. . ...
ROW 36 : D-3 00 7 ... ... ... : B-3 00 9 ... ... ... : ... .. . ... : ... .. . ... ... : ... .. . ...
ROW 37 : D-3 00 7 ... ... ... : B-3 00 9 ... ... ... : ... .. . ... : ... .. . ... ... : ... .. . ...
ROW 38 : A-3 00 7 ... ... ... : C#4 00 9 ... ... ... : ... .. . ... : ... .. . ... ... : ... .. . ...
ROW 39 : ... .. . ... ... ... : ... .. . ... ... ... : ... .. . ... : ... .. . ... ... : ... .. . ...
ROW 3A : A-3 00 7 ... A05 ... : C#4 00 A ... A05 ... : ... .. . ... : ... .. . ... ... : ... .. . ...
ROW 3B : ... .. . ... A02 ... : ... .. . ... A02 ... : ... .. . ... : ... .. . ... ... : ... .. . ...
ROW 3C : E-4 00 B A05 V02 4C1 : ... .. . ... ... ... : ... .. . ... : ... .. . ... ... : ... .. . ...
ROW 3D : ... .. . ... ... ... : ... .. . ... ... ... : ... .. . ... : ... .. . ... ... : ... .. . ...
ROW 3E : A-3 00 7 V01 A05 400 : C#4 00 A ... A05 ... : ... .. . ... : ... .. . ... ... : ... .. . ...
ROW 3F : ... .. . ... A02 ... : ... .. . ... A02 ... : ... .. . ... : ... .. . ... ... : ... .. . ...

PATTERN 07
ROW 00 : F-4 00 B A05 V02 4C1 : ... .. . ... ... ... : ... .. . ... : ... .. . ... ... : ... .. . ...
ROW 01 : --- .. . ... ... ... : ... .. . ... ... ... : ... .. . ... : ... .. . ... ... : ... .. . ...
ROW 02 : F-4 00 B ... ... ... : ... .. . ... ... ... : ... .. . ... : ... .. . ... ... : ... .. . ...
ROW 03 : E-4 00 B ... ... ... : F-4 00 6 A05 V02 4C1 : ... .. . ... : ... .. . ... ... : ... .. . ...
ROW 04 : B-2 00 7 A06 V01 400 : G-3 00 9 V01 A06 400 : ... .. . ... : ... .. . ... ... : ... .. . ...
ROW 05 : B-2 00 7 ... ... ... : G-3 00 9 ... ... ... : ... .. . ... : ... .. . ... ... : ... .. . ...
ROW 06 : B-2 00 7 ... ... ... : G-3 00 9 ... ... ... : ... .. . ... : ... .. . ... ... : ... .. . ...
ROW 07 : B-2 00 7 ... ... ... : G-3 00 9 ... ... ... : ... .. . ... : ... .. . ... ... : ... .. . ...
ROW 08 : B-2 00 7 ... ... ... : G-3 00 9 ... ... ... : ... .. . ... : ... .. . ... ... : ... .. . ...
ROW 09 : ... .. . ... ... ... : ... .. . ... ... ... : ... .. . ... : ... .. . ... ... : ... .. . ...
ROW 0A : E-4 00 B A05 V02 4C1 : G-3 00 A ... A05 ... : ... .. . ... : ... .. . ... ... : ... .. . ...
ROW 0B : ... .. . ... ... ... : ... .. . ... A02 ... : ... .. . ... : ... .. . ... ... : ... .. . ...
ROW 0C : F-4 00 B ... ... ... : ... .. . ... ... ... : ... .. . ... : ... .. . ... ... : ... .. . ...
ROW 0D : ... .. . ... ... ... : ... .. . ... ... ... : ... .. . ... : ... .. . ... ... : ... .. . ...
ROW 0E : G-4 00 B ... ... ... : G-3 00 A ... A05 ... : ... .. . ... : ... .. . ... ... : ... .. . ...
ROW 0F : ... .. . ... ... ... : ... .. . ... A02 ... : ... .. . ... : ... .. . ... ... : ... .. . ...
ROW 10 : A-4 00 B ... ... ... : ... .. . ... ... ... : ... .. . ... : ... .. . ... ... : ... .. . ...
ROW 11 : G-4 00 B ... ... ... : ... .. . ... ... ... : ... .. . ... : ... .. . ... ... : ... .. . ...
ROW 12 : F-4 00 B ... ... ... : ... .. . ... ... ... : ... .. . ... : ... .. . ... ... : ... .. . ...
ROW 13 : D-4 00 B ... ... ... : A-4 00 6 A05 V02 4C1 : ... .. . ... : ... .. . ... ... : ... .. . ...
ROW 14 : C-3 00 7 A06 V01 400 : A-3 00 9 V01 A06 400 : ... .. . ... : ... .. . ... ... : ... .. . ...
ROW 15 : C-3 00 7 ... ... ... : A-3 00 9 ... ... ... : ... .. . ... : ... .. . ... ... : ... .. . ...
ROW 16 : C-3 00 7 ... ... ... : A-3 00 9 ... ... ... : ... .. . ... : ... .. . ... ... : ... .. . ...
ROW 17 : C-3 00 7 ... ... ... : A-3 00 9 ... ... ... : ... .. . ... : ... .. . ... ... : ... .. . ...
ROW 18 : C-3 00 7 ... ... ... : A-3 00 9 ... ... ... : ... .. . ... : ... .. . ... ... : ... .. . ...
ROW 19 : ... .. . ... ... ... : ... .. . ... ... ... : ... .. . ... : ... .. . ... ... : ... .. . ...
ROW 1A : C-4 00 B A05 V02 4C1 : A-3 00 A ... A05 ... : ... .. . ... : ... .. . ... ... : ... .. . ...
ROW 1B : ... .. . ... ... ... : ... .. . ... A02 ... : ... .. . ... : ... .. . ... ... : ... .. . ...
ROW 1C : --- .. . ... ... ... : ... .. . ... ... ... : ... .. . ... : ... .. . ... ... : ... .. . ...
ROW 1D : C-4 00 6 ... ... ... : ... .. . ... ... ... : ... .. . ... : ... .. . ... ... : ... .. . ...
ROW 1E : D-4 00 B ... ... ... : A-3 00 A ... A05 ... : ... .. . ... : ... .. . ... ... : ... .. . ...
ROW 1F : ... .. . ... ... ... : ... .. . ... A02 ... : ... .. . ... : ... .. . ... ... : ... .. . ...
ROW 20 : F-4 00 B ... ... ... : ... .. . ... ... ... : ... .. . ... : ... .. . ... ... : ... .. . ...
ROW 21 : --- .. . ... ... ... : ... .. . ... ... ... : ... .. . ... : ... .. . ... ... : ... .. . ...
ROW 22 : F-4 00 B ... ... ... : ... .. . ... ... ... : ... .. . ... : ... .. . ... ... : ... .. . ...
ROW 23 : E-4 00 B ... ... ... : F-4 00 6 A05 V02 4C1 : ... .. . ... : ... .. . ... ... : ... .. . ...
ROW 24 : B-2 00 7 A06 V01 400 : G-3 00 9 V01 A06 400 : ... .. . ... : ... .. . ... ... : ... .. . ...
ROW 25 : B-2 00 7 ... ... ... : G-3 00 9 ... ... ... : ... .. . ... : ... .. . ... ... : ... .. . ...
ROW 26 : B-2 00 7 ... ... ... : G-3 00 9 ... ... ... : ... .. . ... : ... .. . ... ... : ... .. . ...
ROW 27 : B-2 00 7 ... ... ... : G-3 00 9 ... ... ... : ... .. . ... : ... .. . ... ... : ... .. . ...
ROW 28 : B-2 00 7 ... ... ... : G-3 00 9 ... ... ... : ... .. . ... : ... .. . ... ... : ... .. . ...
ROW 29 : ... .. . ... ... ... : ... .. . ... ... ... : ... .. . ... : ... .. . ... ... : ... .. . ...
ROW 2A : E-4 00 B A05 V02 4C1 : G-3 00 A ... A05 ... : ... .. . ... : ... .. . ... ... : ... .. . ...
ROW 2B : ... .. . ... ... ... : ... .. . ... A02 ... : ... .. . ... : ... .. . ... ... : ... .. . ...
ROW 2C : F-4 00 B ... ... ... : ... .. . ... ... ... : ... .. . ... : ... .. . ... ... : ... .. . ...
ROW 2D : ... .. . ... ... ... : ... .. . ... ... ... : ... .. . ... : ... .. . ... ... : ... .. . ...
ROW 2E : G-4 00 B ... ... ... : G-3 00 A ... A05 ... : ... .. . ... : ... .. . ... ... : ... .. . ...
ROW 2F : ... .. . ... ... ... : ... .. . ... A02 ... : ... .. . ... : ... .. . ... ... : ... .. . ...
ROW 30 : A-3 00 B ... ... ... : ... .. . ... ... ... : ... .. . ... : ... .. . ... ... : ... .. . ...
ROW 31 : ... .. . ... ... ... : ... .. . ... ... ... : ... .. . ... : ... .. . ... ... : ... .. . ...
ROW 32 : --- .. . ... ... ... : ... .. . ... ... ... : ... .. . ... : ... .. . ... ... : ... .. . ...
ROW 33 : A-3 00 6 ... ... ... : ... .. . ... ... ... : ... .. . ... : ... .. . ... ... : ... .. . ...
ROW 34 : G-4 00 B A05 V02 4C1 : A-3 00 9 V01 A06 400 : ... .. . ... : ... .. . ... ... : ... .. . ...
ROW 35 : ... .. . ... ... ... : A-3 00 9 ... ... ... : ... .. . ... : ... .. . ... ... : ... .. . ...
ROW 36 : C-3 00 7 V01 A06 400 : A-3 00 9 ... ... ... : ... .. . ... : ... .. . ... ... : ... .. . ...
ROW 37 : C-3 00 7 ... ... ... : A-3 00 9 ... ... ... : ... .. . ... : ... .. . ... ... : ... .. . ...
ROW 38 : F#4 00 B A05 V02 4C1 : A#3 00 9 ... ... ... : ... .. . ... : ... .. . ... ... : ... .. . ...
ROW 39 : ... .. . ... ... ... : ... .. . ... ... ... : ... .. . ... : ... .. . ... ... : ... .. . ...
ROW 3A : C#3 00 7 V01 A05 400 : A#3 00 A ... A05 ... : ... .. . ... : ... .. . ... ... : ... .. . ...
ROW 3B : ... .. . ... A02 ... : ... .. . ... A02 ... : ... .. . ... : ... .. . ... ... : ... .. . ...
ROW 3C : B-4 00 B A05 V02 4C1 : ... .. . ... ... ... : ... .. . ... : ... .. . ... ... : ... .. . ...
ROW 3D : ... .. . ... ... ... : ... .. . ... ... ... : ... .. . ... : ... .. . ... ... : ... .. . ...
ROW 3E : C#3 00 7 V01 A05 400 : A#3 00 A ... A05 ... : ... .. . ... : ... .. . ... ... : ... .. . ...
ROW 3F : ... .. . ... A02 ... : ... .. . ... A02 ... : ... .. . ... : ... .. . ... ... : ... .. . ...

PATTERN 08
ROW 00 : ... .. . ... ... ... : D-3 00 2 V01 461 A00 : ... .. . ... : ... .. . ... ... : ... .. . ...
ROW 01 : ... .. . ... ... ... : ... .. . ... ... ... : ... .. . ... : ... .. . ... ... : ... .. . ...
ROW 02 : ... .. . ... ... ... : ... .. 3 ... ... ... : ... .. . ... : ... .. . ... ... : ... .. . ...
ROW 03 : ... .. . ... ... ... : ... .. . ... ... ... : ... .. . ... : ... .. . ... ... : ... .. . ...
ROW 04 : E-4 00 B A05 V02 4C1 : ... .. . ... ... ... : ... .. . ... : ... .. . ... ... : ... .. . ...
ROW 05 : F#4 00 B ... ... ... : ... .. . ... ... ... : ... .. . ... : ... .. . ... ... : ... .. . ...
ROW 06 : E-4 00 B ... ... ... : ... .. . ... ... ... : ... .. . ... : ... .. . ... ... : ... .. . ...
ROW 07 : F#4 00 B ... ... ... : ... .. . ... ... ... : ... .. . ... : ... .. . ... ... : ... .. . ...
ROW 08 : G-4 00 B ... ... ... : ... .. . ... ... ... : ... .. . ... : ... .. . ... ... : ... .. . ...
ROW 09 : E-4 00 6 ... ... ... : ... .. . ... ... ... : ... .. . ... : ... .. . ... ... : ... .. . ...
ROW 0A : G-4 00 B ... ... ... : ... .. . ... ... ... : ... .. . ... : ... .. . ... ... : ... .. . ...
ROW 0B : ... .. . ... ... ... : ... .. . ... ... ... : ... .. . ... : ... .. . ... ... : ... .. . ...
ROW 0C : --- .. . ... ... ... : ... .. . ... ... ... : ... .. . ... : ... .. . ... ... : ... .. . ...
ROW 0D : G-4 00 6 ... ... ... : ... .. . ... ... ... : ... .. . ... : ... .. . ... ... : ... .. . ...
ROW 0E : E-4 00 B ... ... ... : ... .. 2 ... ... ... : ... .. . ... : ... .. . ... ... : ... .. . ...
ROW 0F : ... .. . ... ... ... : ... .. . ... ... ... : ... .. . ... : ... .. . ... ... : ... .. . ...
ROW 10 : C-4 00 B ... ... ... : E-3 00 2 V01 461 ... : ... .. . ... : ... .. . ... ... : ... .. . ...
ROW 11 : C-4 00 B ... ... ... : ... .. . ... ... ... : ... .. . ... : ... .. . ... ... : ... .. . ...
ROW 12 : --- .. . ... ... ... : ... .. 3 ... ... ... : ... .. . ... : ... .. . ... ... : ... .. . ...
ROW 13 : C-4 00 6 ... ... ... : ... .. . ... ... ... : ... .. . ... : ... .. . ... ... : ... .. . ...
ROW 14 : C-4 00 B ... ... ... : ... .. . ... ... ... : ... .. . ... : ... .. . ... ... : ... .. . ...
ROW 15 : ... .. . ... ... ... : ... .. . ... ... ... : ... .. . ... : ... .. . ... ... : ... .. . ...
ROW 16 : --- .. . ... ... ... : ... .. . ... ... ... : ... .. . ... : ... .. . ... ... : ... .. . ...
ROW 17 : C-4 00 6 ... ... ... : ... .. . ... ... ... : ... .. . ... : ... .. . ... ... : ... .. . ...
ROW 18 : ... .. . ... ... ... : ... .. . ... ... ... : ... .. . ... : ... .. . ... ... : ... .. . ...
ROW 19 : --- .. . ... ... ... : ... .. . ... ... ... : ... .. . ... : ... .. . ... ... : ... .. . ...
ROW 1A : ... .. . ... ... ... : ... .. . ... ... ... : ... .. . ... : ... .. . ... ... : ... .. . ...
ROW 1B : ... .. . ... ... ... : ... .. . ... ... ... : ... .. . ... : ... .. . ... ... : ... .. . ...
ROW 1C : B-3 00 A ... ... ... : ... .. . ... ... ... : ... .. . ... : ... .. . ... ... : ... .. . ...
ROW 1D : ... .. . ... ... ... : ... .. . ... ... ... : ... .. . ... : ... .. . ... ... : ... .. . ...
ROW 1E : --- .. . ... ... ... : ... .. 2 ... ... ... : ... .. . ... : ... .. . ... ... : ... .. . ...
ROW 1F : B-3 00 6 ... ... ... : ... .. . ... ... ... : ... .. . ... : ... .. . ... ... : ... .. . ...
ROW 20 : ... .. . ... ... ... : F#3 00 2 V01 461 ... : ... .. . ... : ... .. . ... ... : ... .. . ...
ROW 21 : --- .. . ... ... ... : ... .. . ... ... ... : ... .. . ... : ... .. . ... ... : ... .. . ...
ROW 22 : ... .. . ... ... ... : ... .. 3 ... ... ... : ... .. . ... : ... .. . ... ... : ... .. . ...
ROW 23 : ... .. . ... ... ... : ... .. . ... ... ... : ... .. . ... : ... .. . ... ... : ... .. . ...
ROW 24 : E-4 00 B ... ... ... : ... .. . ... ... ... : ... .. . ... : ... .. . ... ... : ... .. . ...
ROW 25 : F#4 00 B ... ... ... : ... .. . ... ... ... : ... .. . ... : ... .. . ... ... : ... .. . ...
ROW 26 : E-4 00 B ... ... ... : ... .. . ... ... ... : ... .. . ... : ... .. . ... ... : ... .. . ...
ROW 27 : F#4 00 B ... ... ... : ... .. . ... ... ... : ... .. . ... : ... .. . ... ... : ... .. . ...
ROW 28 : G-4 00 B ... ... ... : ... .. . ... ... ... : ... .. . ... : ... .. . ... ... : ... .. . ...
ROW 29 : E-4 00 6 ... ... ... : ... .. . ... ... ... : ... .. . ... : ... .. . ... ... : ... .. . ...
ROW 2A : G-4 00 B ... ... ... : ... .. . ... ... ... : ... .. . ... : ... .. . ... ... : ... .. . ...
ROW 2B : ... .. . ... ... ... : ... .. . ... ... ... : ... .. . ... : ... .. . ... ... : ... .. . ...
ROW 2C : --- .. . ... ... ... : ... .. . ... ... ... : ... .. . ... : ... .. . ... ... : ... .. . ...
ROW 2D : G-4 00 6 ... ... ... : ... .. . ... ... ... : ... .. . ... : ... .. . ... ... : ... .. . ...
ROW 2E : B-4 00 B ... ... ... : ... .. 2 ... ... ... : ... .. . ... : ... .. . ... ... : ... .. . ...
ROW 2F : ... .. . ... ... ... : ... .. . ... ... ... : ... .. . ... : ... .. . ... ... : ... .. . ...
ROW 30 : C-5 00 B ... ... ... : G-3 00 2 V01 461 ... : ... .. . ... : ... .. . ... ... : ... .. . ...
ROW 31 : C-5 00 B ... ... ... : ... .. . ... ... ... : ... .. . ... : ... .. . ... ... : ... .. . ...
ROW 32 : --- .. . ... ... ... : ... .. 3 ... ... ... : ... .. . ... : ... .. . ... ... : ... .. . ...
ROW 33 : C-5 00 6 ... ... ... : ... .. . ... ... ... : ... .. . ... : ... .. . ... ... : ... .. . ...
ROW 34 : C-5 00 B ... ... ... : ... .. . ... ... ... : ... .. . ... : ... .. . ... ... : ... .. . ...
ROW 35 : ... .. . ... ... ... : ... .. . ... ... ... : ... .. . ... : ... .. . ... ... : ... .. . ...
ROW 36 : --- .. . ... ... ... : ... .. . ... ... ... : ... .. . ... : ... .. . ... ... : ... .. . ...
ROW 37 : C-5 00 6 ... ... ... : ... .. . ... ... ... : ... .. . ... : ... .. . ... ... : ... .. . ...
ROW 38 : ... .. . ... ... ... : ... .. . ... ... ... : ... .. . ... : ... .. . ... ... : ... .. . ...
ROW 39 : --- .. . ... ... ... : ... .. . ... ... ... : ... .. . ... : ... .. . ... ... : ... .. . ...
ROW 3A : ... .. . ... ... ... : ... .. . ... ... ... : ... .. . ... : ... .. . ... ... : ... .. . ...
ROW 3B : ... .. . ... ... ... : ... .. . ... ... ... : ... .. . ... : ... .. . ... ... : ... .. . ...
ROW 3C : A-4 00 A ... ... ... : ... .. . ... ... ... : ... .. . ... : ... .. . ... ... : ... .. . ...
ROW 3D : ... .. . ... ... ... : ... .. . ... ... ... : ... .. . ... : ... .. . ... ... : ... .. . ...
ROW 3E : --- .. . ... ... ... : ... .. 2 ... ... ... : ... .. . ... : ... .. . ... ... : ... .. . ...
ROW 3F : A-4 00 6 ... ... ... : ... .. . ... ... ... : ... .. . ... : ... .. . ... ... : ... .. . ...

PATTERN 09
ROW 00 : ... .. . ... ... ... : A-3 00 2 V01 461 ... : ... .. . ... : ... .. . ... ... : ... .. . ...
ROW 01 : --- .. . ... ... ... : ... .. . ... ... ... : ... .. . ... : ... .. . ... ... : ... .. . ...
ROW 02 : ... .. . ... ... ... : ... .. 3 ... ... ... : ... .. . ... : ... .. . ... ... : ... .. . ...
ROW 03 : ... .. . ... ... ... : ... .. . ... ... ... : ... .. . ... : ... .. . ... ... : ... .. . ...
ROW 04 : G-4 00 B A05 V02 4C1 : ... .. . ... ... ... : ... .. . ... : ... .. . ... ... : ... .. . ...
ROW 05 : A-4 00 B ... ... ... : ... .. . ... ... ... : ... .. . ... : ... .. . ... ... : ... .. . ...
ROW 06 : G-4 00 B ... ... ... : ... .. . ... ... ... : ... .. . ... : ... .. . ... ... : ... .. . ...
ROW 07 : A-4 00 B ... ... ... : ... .. . ... ... ... : ... .. . ... : ... .. . ... ... : ... .. . ...
ROW 08 : B-4 00 B ... ... ... : ... .. . ... ... ... : ... .. . ... : ... .. . ... ... : ... .. . ...
ROW 09 : ... .. . ... ... ... : ... .. . ... ... ... : ... .. . ... : ... .. . ... ... : ... .. . ...
ROW 0A : A-4 00 6 ... ... ... : ... .. . ... ... ... : ... .. . ... : ... .. . ... ... : ... .. . ...
ROW 0B : A-4 00 B ... ... ... : ... .. . ... ... ... : ... .. . ... : ... .. . ... ... : ... .. . ...
ROW 0C : G-4 00 B ... ... ... : ... .. . ... ... ... : ... .. . ... : ... .. . ... ... : ... .. . ...
ROW 0D : G-4 00 B ... ... ... : ... .. . ... ... ... : ... .. . ... : ... .. . ... ... : ... .. . ...
ROW 0E : E-4 00 B ... ... ... : ... .. 2 ... ... ... : ... .. . ... : ... .. . ... ... : ... .. . ...
ROW 0F : ... .. . ... ... ... : ... .. . ... ... ... : ... .. . ... : ... .. . ... ... : ... .. . ...
ROW 10 : G-4 00 6 ... ... ... : G-3 00 2 V01 461 ... : ... .. . ... : ... .. . ... ... : ... .. . ...
ROW 11 : B-3 00 B ... ... ... : ... .. . ... ... ... : ... .. . ... : ... .. . ... ... : ... .. . ...
ROW 12 : C-4 00 B ... ... ... : ... .. 3 ... ... ... : ... .. . ... : ... .. . ... ... : ... .. . ...
ROW 13 : B-3 00 B ... ... ... : ... .. . ... ... ... : ... .. . ... : ... .. . ... ... : ... .. . ...
ROW 14 : ... .. . ... ... ... : ... .. . ... ... ... : ... .. . ... : ... .. . ... ... : ... .. . ...
ROW 15 : C-4 00 6 ... ... ... : ... .. . ... ... ... : ... .. . ... : ... .. . ... ... : ... .. . ...
ROW 16 : B-3 00 6 ... ... ... : ... .. 2 ... ... ... : ... .. . ... : ... .. . ... ... : ... .. . ...
ROW 17 : ... .. . ... ... ... : ... .. . ... ... ... : ... .. . ... : ... .. . ... ... : ... .. . ...
ROW 18 : ... .. . ... ... ... : C#3 00 2 V01 461 ... : ... .. . ... : ... .. . ... ... : ... .. . ...
ROW 19 : B-3 00 B ... ... ... : ... .. . ... ... ... : ... .. . ... : ... .. . ... ... : ... .. . ...
ROW 1A : C-4 00 B ... ... ... : ... .. 3 ... ... ... : ... .. . ... : ... .. . ... ... : ... .. . ...
ROW 1B : B-3 00 B ... ... ... : ... .. . ... ... ... : ... .. . ... : ... .. . ... ... : ... .. . ...
ROW 1C : A-3 00 B ... ... ... : ... .. . ... ... ... : ... .. . ... : ... .. . ... ... : ... .. . ...
ROW 1D : G-3 00 B ... ... ... : ... .. . ... ... ... : ... .. . ... : ... .. . ... ... : ... .. . ...
ROW 1E : F#3 00 B ... ... ... : ... .. 2 ... ... ... : ... .. . ... : ... .. . ... ... : ... .. . ...
ROW 1F : G-3 00 B ... ... ... : ... .. . ... ... ... : ... .. . ... : ... .. . ... ... : ... .. . ...
ROW 20 : F#3 00 B ... ... ... : D-3 00 2 V01 461 ... : ... .. . ... : ... .. . ... ... : ... .. . ...
ROW 21 : F#3 00 6 ... ... ... : ... .. . ... ... ... : ... .. . ... : ... .. . ... ... : ... .. . ...
ROW 22 : F#3 00 B ... ... ... : ... .. 3 ... ... ... : ... .. . ... : ... .. . ... ... : ... .. . ...
ROW 23 : E-3 00 B ... ... ... : ... .. . ... ... ... : ... .. . ... : ... .. . ... ... : ... .. . ...
ROW 24 : ... .. . A02 ... ... : ... .. . ... ... ... : ... .. . ... : ... .. . ... ... : ... .. . ...
ROW 25 : ... .. . A01 ... ... : ... .. . ... ... ... : ... .. . ... : ... .. . ... ... : ... .. . ...
ROW 26 : ... .. . A00 ... ... : ... .. . ... ... ... : ... .. . ... : ... .. . ... ... : ... .. . ...
ROW 27 : ... .. . A01 ... ... : ... .. . ... ... ... : ... .. . ... : ... .. . ... ... : ... .. . ...
ROW 28 : ... .. . A00 ... ... : ... .. . ... ... ... : ... .. . ... : ... .. . ... ... : ... .. . ...
ROW 29 : ... .. . A01 ... ... : ... .. . ... ... ... : ... .. . ... : ... .. . ... ... : ... .. . ...
ROW 2A : ... .. . A00 ... ... : ... .. . ... ... ... : ... .. . ... : ... .. . ... ... : ... .. . ...
ROW 2B : ... .. . A01 ... ... : ... .. . ... ... ... : ... .. . ... : ... .. . ... ... : ... .. . ...
ROW 2C : ... .. . A00 ... ... : ... .. . ... ... ... : ... .. . ... : ... .. . ... ... : ... .. . ...
ROW 2D : ... .. . A01 ... ... : ... .. . ... ... ... : ... .. . ... : ... .. . ... ... : ... .. . ...
ROW 2E : ... .. . A00 ... ... : ... .. . ... ... ... : ... .. . ... : ... .. . ... ... : ... .. . ...
ROW 2F : ... .. . A01 ... 400 : ... .. . ... ... ... : ... .. . ... : ... .. . ... ... : ... .. . ...
ROW 30 : B-3 00 8 S05 A05 V01 : ... .. . ... ... ... : ... .. . ... : ... .. . ... ... : ... .. . ...
ROW 31 : C#4 00 8 S05 ... ... : ... .. . ... ... ... : ... .. . ... : ... .. . ... ... : ... .. . ...
ROW 32 : B-3 00 8 S05 ... ... : ... .. . ... ... ... : ... .. . ... : ... .. . ... ... : ... .. . ...
ROW 33 : B-3 00 3 S05 ... ... : ... .. . ... ... ... : ... .. . ... : ... .. . ... ... : ... .. . ...
ROW 34 : B-3 00 8 S05 ... ... : ... .. . ... ... ... : ... .. . ... : ... .. . ... ... : ... .. . ...
ROW 35 : C#4 00 8 S05 ... ... : ... .. . ... ... ... : ... .. . ... : ... .. . ... ... : ... .. . ...
ROW 36 : B-3 00 8 S05 ... ... : ... .. . ... ... ... : ... .. . ... : ... .. . ... ... : ... .. . ...
ROW 37 : B-3 00 3 S05 ... ... : ... .. . ... ... ... : ... .. . ... : ... .. . ... ... : ... .. . ...
ROW 38 : B-3 00 8 S05 ... ... : ... .. . ... ... ... : ... .. . ... : ... .. . ... ... : ... .. . ...
ROW 39 : C#4 00 8 S05 ... ... : ... .. . ... ... ... : ... .. . ... : ... .. . ... ... : ... .. . ...
ROW 3A : B-3 00 8 S05 ... ... : ... .. 2 ... ... ... : ... .. . ... : ... .. . ... ... : ... .. . ...
ROW 3B : B-3 00 3 S05 ... ... : ... .. . ... ... ... : ... .. . ... : ... .. . ... ... : ... .. . ...
ROW 3C : B-3 00 8 S05 ... ... : ... .. . ... ... ... : ... .. . ... : ... .. . ... ... : ... .. . ...
ROW 3D : C#4 00 8 S05 ... ... : ... .. . ... ... ... : ... .. . ... : ... .. . ... ... : ... .. . ...
ROW 3E : B-3 00 8 S05 ... ... : ... .. 1 ... ... ... : ... .. . ... : ... .. . ... ... : ... .. . ...
ROW 3F : B-3 00 3 S05 ... B01 : ... .. . ... ... ... : ... .. . ... : ... .. . ... ... : ... .. . ...

TRACK  64   8 150 "Guile"
COLUMNS : 3 3 1 2 1

ORDER 00 : 00 00 00 00 00
ORDER 01 : 00 00 01 01 00
ORDER 02 : 01 01 02 02 00
ORDER 03 : 02 02 03 03 00
ORDER 04 : 03 03 04 04 00
ORDER 05 : 04 04 05 05 00
ORDER 06 : 05 05 06 06 00
ORDER 07 : 06 06 07 07 00
ORDER 08 : 07 07 08 08 00
ORDER 09 : 00 00 00 09 00

PATTERN 00
ROW 00 : G-2 00 9 A02 V01 ... : D#3 00 8 A02 V00 ... : C-3 00 . ... : 8-# 00 A A05 ... : ... .. . F08
ROW 01 : ... .. . ... ... S04 : ... .. . ... ... S05 : ... .. . ... : ... .. . A02 ... : ... .. . F07
ROW 02 : G-2 00 9 ... ... S06 : D#3 00 8 ... ... S06 : ... .. . ... : ... .. . A01 ... : ... .. . ...
ROW 03 : F-2 00 9 ... ... ... : D-3 00 8 ... ... ... : ... .. . ... : ... .. . ... ... : ... .. . ...
ROW 04 : ... .. . ... ... S04 : ... .. . ... ... S05 : ... .. . ... : 1-# 00 A A0C ... : ... .. . F08
ROW 05 : F-2 00 9 ... ... S06 : D-3 00 8 ... ... S06 : ... .. . ... : --- .. . ... ... : ... .. . F07
ROW 06 : G-2 00 A ... ... ... : D#3 00 9 ... ... ... : ... .. . ... : ... .. . ... ... : ... .. . ...
ROW 07 : ... .. . A01 ... ... : ... .. . A01 ... ... : ... .. . ... : ... .. . ... ... : ... .. . ...
ROW 08 : ... .. . ... 474 ... : ... .. . ... 474 ... : ... .. . S06 : 1-# 00 7 A0C ... : ... .. . F08
ROW 09 : ... .. . ... ... ... : ... .. . ... ... ... : F-3 00 . S05 : 1-# 00 8 A0C ... : ... .. . F07
ROW 0A : ... .. . A00 ... ... : ... .. . A00 ... ... : G-3 00 . S05 : 1-# 00 9 A0C ... : ... .. . ...
ROW 0B : ... .. . A01 ... ... : ... .. . A01 ... ... : F-3 00 . S05 : 1-# 00 A A0C ... : ... .. . ...
ROW 0C : ... .. . ... ... S06 : ... .. . ... ... S06 : D#3 00 . S06 : 6-# 00 9 A06 ... : ... .. . F08
ROW 0D : G-2 00 9 A02 400 S06 : D#3 00 8 A02 400 S06 : D-3 00 . S05 : ... .. . A02 ... : ... .. . F07
ROW 0E : F-2 00 9 ... ... ... : D-3 00 8 ... ... ... : C-3 00 . ... : ... .. . ... ... : ... .. . ...
ROW 0F : ... .. . ... ... S06 : ... .. . ... ... S06 : ... .. . S05 : ... .. . ... ... : ... .. . ...
ROW 10 : G-2 00 9 ... ... ... : D#3 00 8 ... ... ... : G#2 00 . ... : 9-# 00 A A05 ... : ... .. . F08
ROW 11 : ... .. . ... ... S04 : ... .. . ... ... S05 : ... .. . ... : ... .. . A02 ... : ... .. . F07
ROW 12 : G-2 00 9 ... ... S06 : D#3 00 8 ... ... S06 : ... .. . ... : ... .. . A01 ... : ... .. . ...
ROW 13 : F-2 00 9 ... ... ... : D-3 00 8 ... ... ... : ... .. . ... : ... .. . ... ... : ... .. . ...
ROW 14 : ... .. . ... ... S04 : ... .. . ... ... S05 : ... .. . ... : 1-# 00 A A0C ... : ... .. . F08
ROW 15 : F-2 00 9 ... ... S06 : D-3 00 8 ... ... S06 : ... .. . ... : --- .. . ... ... : ... .. . F07
ROW 16 : G-2 00 A ... ... ... : D#3 00 9 ... ... ... : ... .. . ... : ... .. . ... ... : ... .. . ...
ROW 17 : ... .. . A01 ... ... : ... .. . A01 ... ... : ... .. . ... : ... .. . ... ... : ... .. . ...
ROW 18 : ... .. . ... 474 ... : ... .. . ... 474 ... : ... .. . S06 : 1-# 00 7 A0C ... : ... .. . F08
ROW 19 : ... .. . ... ... ... : ... .. . ... ... ... : G#2 00 . S05 : 1-# 00 8 A0C ... : ... .. . F07
ROW 1A : ... .. . A00 ... ... : ... .. . A00 ... ... : G-3 00 . S05 : 1-# 00 9 A0C ... : ... .. . ...
ROW 1B : ... .. . A01 ... ... : ... .. . A01 ... ... : G#3 00 . S05 : 1-# 00 A A0C ... : ... .. . ...
ROW 1C : ... .. . ... ... S06 : ... .. . ... ... S06 : ... .. . ... : 6-# 00 9 A06 ... : ... .. . F08
ROW 1D : G-2 00 9 A02 400 S06 : D#3 00 8 A02 400 S06 : G#3 00 . S05 : ... .. . A02 ... : ... .. . F07
ROW 1E : F-2 00 9 ... ... ... : D-3 00 8 ... ... ... : ... .. . ... : ... .. . ... ... : ... .. . ...
ROW 1F : ... .. . ... ... S06 : ... .. . ... ... S06 : G#3 00 . S05 : ... .. . ... ... : ... .. . ...
ROW 20 : G-2 00 9 ... ... S07 : D#3 00 8 ... ... S07 : D#2 00 . S06 : 1-# 00 A A0C ... : ... .. . F08
ROW 21 : F-2 00 9 ... ... ... : D-3 00 8 ... ... ... : F-2 00 . S05 : 1-# 00 A A0C ... : ... .. . F07
ROW 22 : ... .. . ... ... S04 : ... .. . ... ... S05 : ... .. . ... : --- .. . ... ... : ... .. . ...
ROW 23 : G-2 00 9 ... ... ... : D#3 00 8 ... ... ... : F-2 00 . ... : ... .. . ... ... : ... .. . ...
ROW 24 : ... .. . ... ... S06 : ... .. . ... ... S06 : ... .. . ... : 6-# 00 9 A06 ... : ... .. . F08
ROW 25 : F-2 00 9 ... ... ... : D-3 00 8 ... ... ... : ... .. . ... : ... .. . A02 ... : ... .. . F07
ROW 26 : ... .. . ... ... S04 : ... .. . ... ... S05 : ... .. . S05 : ... .. . ... ... : ... .. . ...
ROW 27 : G-2 00 9 Q21 ... ... : D#3 00 8 Q32 ... ... : F-2 00 . ... : 1-# 00 A A0C ... : ... .. . ...
ROW 28 : ... .. . ... ... S04 : ... .. . ... ... S05 : ... .. . S06 : --- .. . ... ... : ... .. . F08
ROW 29 : G#2 00 9 ... ... S06 : F-3 00 8 ... ... S06 : G-2 00 . S05 : ... .. . ... ... : ... .. . F07
ROW 2A : G-2 00 9 ... ... ... : D#3 00 8 ... ... ... : ... .. . ... : ... .. . ... ... : ... .. . ...
ROW 2B : ... .. . ... ... S05 : ... .. . ... ... S06 : G-2 00 . ... : 1-# 00 A A0C ... : ... .. . ...
ROW 2C : F-2 00 9 ... ... ... : D-3 00 8 ... ... ... : ... .. . S06 : 6-# 00 9 A06 ... : ... .. . F08
ROW 2D : ... .. . ... ... S05 : ... .. . ... ... S06 : G-2 00 . S05 : 4-# 00 A A0C ... : ... .. . F07
ROW 2E : D-2 00 9 ... ... ... : A#2 00 8 ... ... ... : A#2 00 . ... : --- .. . ... ... : ... .. . ...
ROW 2F : ... .. . ... D00 S06 : ... .. . ... ... S06 : ... .. . S05 : 2-# 00 A A0C ... : ... .. . ...
ROW 30 : ... .. . ... ... ... : ... .. . ... ... ... : ... .. . ... : ... .. . ... ... : ... .. . F08
ROW 31 : ... .. . ... ... ... : ... .. . ... ... ... : ... .. . ... : ... .. . ... ... : ... .. . F07
ROW 32 : ... .. . ... ... ... : ... .. . ... ... ... : ... .. . ... : ... .. . ... ... : ... .. . ...
ROW 33 : ... .. . ... ... ... : ... .. . ... ... ... : ... .. . ... : ... .. . ... ... : ... .. . ...
ROW 34 : ... .. . ... ... ... : ... .. . ... ... ... : ... .. . ... : ... .. . ... ... : ... .. . F08
ROW 35 : ... .. . ... ... ... : ... .. . ... ... ... : ... .. . ... : ... .. . ... ... : ... .. . F07
ROW 36 : ... .. . ... ... ... : ... .. . ... ... ... : ... .. . ... : ... .. . ... ... : ... .. . ...
ROW 37 : ... .. . ... ... ... : ... .. . ... ... ... : ... .. . ... : ... .. . ... ... : ... .. . ...
ROW 38 : ... .. . ... ... ... : ... .. . ... ... ... : ... .. . ... : ... .. . ... ... : ... .. . F08
ROW 39 : ... .. . ... ... ... : ... .. . ... ... ... : ... .. . ... : ... .. . ... ... : ... .. . F07
ROW 3A : ... .. . ... ... ... : ... .. . ... ... ... : ... .. . ... : ... .. . ... ... : ... .. . ...
ROW 3B : ... .. . ... ... ... : ... .. . ... ... ... : ... .. . ... : ... .. . ... ... : ... .. . ...
ROW 3C : ... .. . ... ... ... : ... .. . ... ... ... : ... .. . ... : ... .. . ... ... : ... .. . F08
ROW 3D : ... .. . ... ... ... : ... .. . ... ... ... : ... .. . ... : ... .. . ... ... : ... .. . F07
ROW 3E : ... .. . ... ... ... : ... .. . ... ... ... : ... .. . ... : ... .. . ... ... : ... .. . ...
ROW 3F : ... .. . ... ... ... : ... .. . ... ... ... : ... .. . ... : ... .. . ... ... : ... .. . ...

PATTERN 01
ROW 00 : A#2 00 8 Q22 V01 A01 : D#2 00 8 A01 V01 S06 : C-3 00 . ... : 8-# 00 A A05 ... : ... .. . ...
ROW 01 : ... .. . ... ... ... : D-2 00 8 A01 ... ... : ... .. . S05 : ... .. . A02 ... : ... .. . ...
ROW 02 : ... .. . A00 ... 472 : --- .. . ... ... ... : A#3 00 . S05 : ... .. . A01 ... : ... .. . ...
ROW 03 : ... .. . A01 ... ... : D#2 00 8 A01 ... ... : C-4 00 . ... : ... .. . ... ... : ... .. . ...
ROW 04 : ... .. . A00 ... ... : ... .. . ... ... ... : ... .. . S06 : 6-# 00 9 A06 ... : ... .. . ...
ROW 05 : ... .. . A01 ... ... : ... .. . A00 ... 472 : A#3 00 . S05 : ... .. . A02 ... : ... .. . ...
ROW 06 : ... .. . A00 ... ... : ... .. . A01 ... ... : C-4 00 . S05 : ... .. . ... ... : ... .. . ...
ROW 07 : ... .. . A01 ... ... : ... .. . A00 ... ... : C-3 00 . S05 : 1-# 00 A A0C ... : ... .. . ...
ROW 08 : ... .. . A00 ... ... : ... .. . A01 ... ... : C-3 00 . S06 : --- .. . ... ... : ... .. . ...
ROW 09 : ... .. . A01 ... ... : ... .. . A00 ... ... : F-3 00 . S05 : ... .. . ... ... : ... .. . ...
ROW 0A : D-3 00 8 ... ... 400 : F-2 00 8 A01 ... 400 : G-3 00 . S05 : 1-# 00 A A0C ... : ... .. . ...
ROW 0B : --- .. . ... ... ... : --- .. . ... ... ... : F-3 00 . S05 : 1-# 00 A A0C ... : ... .. . ...
ROW 0C : D#3 00 8 ... S06 ... : G-2 00 8 G01 S06 ... : D#3 00 . S06 : 6-# 00 9 A06 ... : ... .. . ...
ROW 0D : F-3 00 8 ... ... ... : G#2 00 8 ... ... ... : D-3 00 . S05 : ... .. . A02 ... : ... .. . ...
ROW 0E : ... .. . ... ... ... : ... .. . ... ... ... : C-3 00 . S05 : ... .. . ... ... : ... .. . ...
ROW 0F : ... .. . ... S06 ... : ... .. . ... S06 ... : A#2 00 . S05 : ... .. . ... ... : ... .. . ...
ROW 10 : F-3 00 8 Q22 ... ... : A#2 00 8 ... ... ... : G#2 00 . ... : 9-# 00 A A05 ... : ... .. . ...
ROW 11 : ... .. . ... ... ... : ... .. . ... ... ... : ... .. . S05 : ... .. . A02 ... : ... .. . ...
ROW 12 : ... .. . ... S07 ... : ... .. . A00 ... 471 : G-3 00 . S05 : ... .. . A01 ... : ... .. . ...
ROW 13 : G-3 00 8 ... S06 ... : ... .. . A01 ... ... : G#3 00 . S05 : ... .. . ... ... : ... .. . ...
ROW 14 : F-3 00 8 ... ... ... : ... .. . A00 ... ... : ... .. . ... : 6-# 00 9 A06 ... : ... .. . ...
ROW 15 : --- .. . ... ... ... : --- .. . A01 ... ... : G-3 00 . S05 : ... .. . A02 ... : ... .. . ...
ROW 16 : A#3 00 8 ... ... ... : C-3 00 8 ... ... 400 : G#3 00 . S05 : ... .. . ... ... : ... .. . ...
ROW 17 : ... .. . ... ... ... : ... .. . ... ... ... : G#2 00 . ... : 1-# 00 A A0C ... : ... .. . ...
ROW 18 : ... .. . ... ... 472 : ... .. . A00 ... 472 : ... .. . S06 : --- .. . ... ... : ... .. . ...
ROW 19 : ... .. . ... S06 ... : ... .. . A01 ... ... : G#2 00 . S05 : ... .. . ... ... : ... .. . ...
ROW 1A : G#3 00 8 ... ... 400 : ... .. . A00 ... ... : G-3 00 . S05 : 1-# 00 A A0C ... : ... .. . ...
ROW 1B : --- .. . ... ... ... : --- .. . A01 ... ... : G#3 00 . S05 : 1-# 00 A A0C ... : ... .. . ...
ROW 1C : G-3 00 8 ... S06 ... : A#2 00 8 ... S06 400 : ... .. . ... : 6-# 00 9 A06 ... : ... .. . ...
ROW 1D : G#3 00 8 ... ... ... : C-3 00 8 ... ... ... : G#3 00 . S05 : ... .. . A02 ... : ... .. . ...
ROW 1E : ... .. . ... ... ... : ... .. . ... ... ... : ... .. . ... : ... .. . ... ... : ... .. . ...
ROW 1F : ... .. . ... S06 ... : ... .. . ... S06 ... : G#3 00 . S05 : ... .. . ... ... : ... .. . ...
ROW 20 : C-3 00 8 Q32 ... ... : A#2 00 8 ... ... ... : D#2 00 . S06 : 1-# 00 A A0C ... : ... .. . ...
ROW 21 : ... .. . ... ... ... : ... .. . ... ... ... : F-2 00 . S05 : 1-# 00 A A0C ... : ... .. . ...
ROW 22 : ... .. . ... ... ... : ... .. . ... ... ... : ... .. . ... : --- .. . ... ... : ... .. . ...
ROW 23 : ... .. . ... S06 ... : ... .. . ... S06 ... : F-2 00 . ... : ... .. . ... ... : ... .. . ...
ROW 24 : D#3 00 8 ... ... ... : C-3 00 8 ... ... ... : ... .. . ... : 6-# 00 9 A06 ... : ... .. . ...
ROW 25 : ... .. . ... ... ... : ... .. . ... ... ... : ... .. . S05 : ... .. . A02 ... : ... .. . ...
ROW 26 : ... .. . ... S06 471 : ... .. . ... S06 471 : ... .. . ... : ... .. . ... ... : ... .. . ...
ROW 27 : F-3 00 8 ... ... 400 : D-3 00 8 ... ... 400 : F-2 00 . ... : 1-# 00 A A0C ... : ... .. . ...
ROW 28 : --- .. . ... ... ... : --- .. . ... ... ... : ... .. . S06 : --- .. . ... ... : ... .. . ...
ROW 29 : ... .. . ... ... ... : ... .. . ... ... ... : G-2 00 . S05 : 4-# 00 A A0C ... : ... .. . ...
ROW 2A : A#2 00 8 G01 ... ... : F-2 00 8 ... ... ... : ... .. . ... : 3-# 00 A A0C ... : ... .. . ...
ROW 2B : ... .. . ... S06 ... : ... .. . ... S06 ... : G-2 00 . ... : --- .. . ... ... : ... .. . ...
ROW 2C : D-3 00 8 ... ... ... : A#2 00 8 ... ... ... : ... .. . S06 : 3-# 00 A A0C ... : ... .. . ...
ROW 2D : ... .. . ... S06 ... : ... .. . ... S06 ... : G-2 00 . S05 : 2-# 00 A A0C ... : ... .. . ...
ROW 2E : F-3 00 8 ... ... ... : D-3 00 8 ... ... ... : A#2 00 . S05 : --- .. . ... ... : ... .. . ...
ROW 2F : ... .. . ... S06 ... : ... .. . ... S06 ... : C-3 00 . S05 : 2-# 00 A A0C ... : ... .. . ...
ROW 30 : G-3 00 8 Q11 ... ... : F-3 00 8 ... ... ... : ... .. . ... : ... .. . ... ... : ... .. . ...
ROW 31 : ... .. . ... ... ... : ... .. . ... ... ... : ... .. . ... : ... .. . ... ... : ... .. . ...
ROW 32 : ... .. . ... 471 ... : ... .. . ... 471 ... : ... .. . ... : ... .. . ... ... : ... .. . ...
ROW 33 : ... .. . ... ... ... : ... .. . ... ... ... : ... .. . ... : ... .. . ... ... : ... .. . ...
ROW 34 : A#3 00 8 ... 400 ... : G-3 00 8 ... 400 ... : ... .. . ... : ... .. . ... ... : ... .. . ...
ROW 35 : ... .. . ... ... ... : ... .. . ... ... ... : ... .. . ... : ... .. . ... ... : ... .. . ...
ROW 36 : ... .. . ... ... ... : ... .. . ... ... ... : ... .. . ... : ... .. . ... ... : ... .. . ...
ROW 37 : G-3 00 8 ... ... ... : D-3 00 8 ... ... ... : ... .. . ... : ... .. . ... ... : ... .. . ...
ROW 38 : --- .. . ... ... ... : --- .. . ... ... ... : ... .. . ... : ... .. . ... ... : ... .. . ...
ROW 39 : ... .. . ... ... ... : ... .. . ... ... ... : ... .. . ... : ... .. . ... ... : ... .. . ...
ROW 3A : G-3 00 8 ... ... ... : A#2 00 8 ... ... ... : ... .. . ... : ... .. . ... ... : ... .. . ...
ROW 3B : --- .. . ... ... ... : --- .. . ... ... ... : ... .. . ... : ... .. . ... ... : ... .. . ...
ROW 3C : F-3 00 8 ... S07 ... : A#2 00 8 ... S07 ... : ... .. . ... : ... .. . ... ... : ... .. . ...
ROW 3D : D-3 00 8 ... ... ... : A#2 00 8 ... ... ... : ... .. . ... : ... .. . ... ... : ... .. . ...
ROW 3E : ... .. . ... ... ... : ... .. . ... ... ... : ... .. . ... : ... .. . ... ... : ... .. . ...
ROW 3F : ... .. . ... S06 ... : ... .. . ... S06 ... : ... .. . ... : ... .. . ... ... : ... .. . ...

PATTERN 02
ROW 00 : C-3 00 8 ... ... ... : D#2 00 8 A01 V01 S06 : A#2 00 . S06 : 8-# 00 A A05 ... : ... .. . ...
ROW 01 : ... .. . ... ... ... : D-2 00 8 A01 V01 ... : C-3 00 . ... : ... .. . A02 ... : ... .. . ...
ROW 02 : ... .. . A00 472 ... : --- .. . ... ... ... : --- .. . ... : ... .. . A01 ... : ... .. . ...
ROW 03 : ... .. . A01 ... ... : D#2 00 8 A01 V01 ... : C-3 00 . ... : ... .. . ... ... : ... .. . ...
ROW 04 : ... .. . A00 ... ... : ... .. . ... ... ... : ... .. . ... : 6-# 00 9 A06 ... : ... .. . ...
ROW 05 : ... .. . A01 ... ... : ... .. . A00 ... 472 : ... .. . ... : ... .. . A02 ... : ... .. . ...
ROW 06 : ... .. . A00 ... ... : ... .. . A01 ... ... : ... .. . ... : ... .. . ... ... : ... .. . ...
ROW 07 : ... .. . A01 ... ... : ... .. . A00 ... ... : ... .. . ... : 1-# 00 A A0C ... : ... .. . ...
ROW 08 : ... .. . A00 ... ... : ... .. . A01 ... ... : ... .. . ... : --- .. . ... ... : ... .. . ...
ROW 09 : ... .. . A01 ... S06 : ... .. . A00 ... S06 : --- .. . ... : ... .. . ... ... : ... .. . ...
ROW 0A : D-3 00 8 ... 400 ... : F-2 00 8 A01 400 ... : C-3 00 . ... : 1-# 00 A A0C ... : ... .. . ...
ROW 0B : --- .. . ... ... ... : --- .. . ... ... ... : ... .. . ... : 1-# 00 A A0C ... : ... .. . ...
ROW 0C : D#3 00 8 ... ... S07 : G-2 00 8 ... ... S07 : --- .. . ... : 6-# 00 9 A06 ... : ... .. . ...
ROW 0D : F-3 00 8 ... ... ... : G#2 00 8 ... ... ... : C-3 00 . ... : ... .. . A02 ... : ... .. . ...
ROW 0E : ... .. . ... ... ... : ... .. . ... ... ... : --- .. . ... : ... .. . ... ... : ... .. . ...
ROW 0F : ... .. . ... ... S06 : ... .. . ... ... S06 : C-3 00 . S05 : ... .. . ... ... : ... .. . ...
ROW 10 : F-3 00 8 Q42 ... ... : C-3 00 8 ... ... ... : G#2 00 . S06 : 1-# 00 A A0C ... : ... .. . ...
ROW 11 : ... .. . ... ... ... : ... .. . ... ... ... : G#2 00 . ... : --- .. . ... ... : ... .. . ...
ROW 12 : ... .. . ... ... S06 : ... .. . A00 472 ... : --- .. . ... : ... .. . ... ... : ... .. . ...
ROW 13 : G-3 00 8 ... ... S06 : ... .. . A01 ... ... : G#2 00 . ... : ... .. . ... ... : ... .. . ...
ROW 14 : G#3 00 8 ... ... ... : ... .. . A00 ... ... : ... .. . ... : 6-# 00 9 A06 ... : ... .. . ...
ROW 15 : --- .. . ... ... ... : ... .. . A01 ... ... : ... .. . ... : ... .. . A02 ... : ... .. . ...
ROW 16 : F-3 00 8 ... ... ... : ... .. . A00 ... ... : ... .. . ... : 1-# 00 A A0C ... : ... .. . ...
ROW 17 : ... .. . ... ... ... : ... .. . A01 ... ... : ... .. . ... : --- .. . ... ... : ... .. . ...
ROW 18 : ... .. . ... ... ... : ... .. . A00 ... ... : ... .. . ... : ... .. . ... ... : ... .. . ...
ROW 19 : ... .. . ... ... S06 : ... .. . A01 ... ... : ... .. . S05 : 1-# 00 A A0C ... : ... .. . ...
ROW 1A : F-3 00 8 ... ... ... : ... .. . A00 400 ... : G#2 00 . ... : --- .. . ... ... : ... .. . ...
ROW 1B : ... .. . ... ... S06 : ... .. . A01 ... ... : ... .. . S05 : 1-# 00 A A0C ... : ... .. . ...
ROW 1C : G-3 00 8 ... ... S07 : D#3 00 8 ... ... S07 : G#2 00 . ... : 6-# 00 9 A06 ... : ... .. . ...
ROW 1D : G#3 00 8 A02 ... ... : D#3 00 8 A02 ... ... : --- .. . ... : ... .. . A02 ... : ... .. . ...
ROW 1E : ... .. . A01 ... ... : ... .. . A01 ... ... : G#2 00 . S06 : 1-# 00 A A0C ... : ... .. . ...
ROW 1F : ... .. . ... ... S06 : ... .. . ... ... S06 : G#3 00 . S05 : --- .. . ... ... : ... .. . ...
ROW 20 : G#3 00 8 Q32 ... ... : F-3 00 8 ... ... ... : G#2 00 . S05 : 1-# 00 A A0C ... : ... .. . ...
ROW 21 : ... .. . ... ... ... : ... .. . ... ... ... : A#2 00 . ... : --- .. . ... ... : ... .. . ...
ROW 22 : ... .. . A00 472 ... : ... .. . A00 472 ... : --- .. . ... : ... .. . ... ... : ... .. . ...
ROW 23 : ... .. . A01 ... ... : ... .. . A01 ... ... : A#2 00 . ... : ... .. . ... ... : ... .. . ...
ROW 24 : ... .. . A00 ... ... : ... .. . A00 ... ... : ... .. . ... : 6-# 00 9 A06 ... : ... .. . ...
ROW 25 : ... .. . A01 ... ... : ... .. . A01 ... ... : ... .. . ... : ... .. . A02 ... : ... .. . ...
ROW 26 : ... .. . A00 ... ... : ... .. . A00 ... ... : ... .. . ... : ... .. . ... ... : ... .. . ...
ROW 27 : ... .. . A01 ... ... : ... .. . A01 ... ... : ... .. . ... : 1-# 00 A A0C ... : ... .. . ...
ROW 28 : ... .. . A00 ... ... : ... .. . A00 ... ... : ... .. . ... : --- .. . ... ... : ... .. . ...
ROW 29 : ... .. . A01 ... S06 : ... .. . A01 ... S06 : ... .. . S05 : ... .. . ... ... : ... .. . ...
ROW 2A : C-4 00 8 ... 400 ... : G-3 00 8 ... 400 ... : A#2 00 . ... : 1-# 00 A A0C ... : ... .. . ...
ROW 2B : --- .. . ... ... ... : --- .. . ... ... ... : ... .. . ... : 1-# 00 A A0C ... : ... .. . ...
ROW 2C : D-4 00 8 ... ... S07 : F-3 00 8 ... ... S07 : --- .. . ... : 6-# 00 9 A06 ... : ... .. . ...
ROW 2D : D#4 00 8 A02 ... ... : D#3 00 8 A02 ... ... : A#2 00 . ... : ... .. . A02 ... : ... .. . ...
ROW 2E : ... .. . A01 ... ... : ... .. . A01 ... ... : --- .. . ... : ... .. . ... ... : ... .. . ...
ROW 2F : ... .. . ... ... S06 : ... .. . ... ... S06 : A#2 00 . S05 : ... .. . ... ... : ... .. . ...
ROW 30 : F-4 00 8 Q22 400 ... : C-3 00 8 Q22 400 ... : F-2 00 . S06 : 1-# 00 A A0C ... : ... .. . ...
ROW 31 : ... .. . ... ... ... : ... .. . ... ... ... : G-2 00 . ... : 1-# 00 A A0C ... : ... .. . ...
ROW 32 : ... .. . ... 471 ... : ... .. . ... 471 ... : --- .. . ... : --- .. . ... ... : ... .. . ...
ROW 33 : ... .. . ... ... S06 : ... .. . ... ... S06 : ... .. . ... : ... .. . ... ... : ... .. . ...
ROW 34 : F-4 00 8 ... 400 ... : D-3 00 8 ... 400 ... : G-2 00 . ... : 6-# 00 9 A06 ... : ... .. . ...
ROW 35 : ... .. . ... ... ... : ... .. . ... ... ... : ... .. . ... : ... .. . A02 ... : ... .. . ...
ROW 36 : ... .. . ... 471 ... : ... .. . ... 471 ... : ... .. . ... : 1-# 00 A A0C ... : ... .. . ...
ROW 37 : ... .. . ... ... S06 : ... .. . ... ... S06 : ... .. . ... : --- .. . ... ... : ... .. . ...
ROW 38 : D-4 00 8 ... 400 ... : F-3 00 8 ... 400 ... : ... .. . S06 : ... .. . ... ... : ... .. . ...
ROW 39 : ... .. . ... ... ... : ... .. . ... ... ... : G-2 00 . S05 : 1-# 00 A A0C ... : ... .. . ...
ROW 3A : ... .. . ... 471 ... : ... .. . ... 471 ... : A#2 00 . S05 : --- .. . ... ... : ... .. . ...
ROW 3B : ... .. . ... ... S06 : ... .. . ... ... S06 : C-3 00 . S05 : 1-# 00 A A0C ... : ... .. . ...
ROW 3C : A#3 00 8 ... 400 ... : G-3 00 8 ... 400 ... : D#3 00 . S06 : 6-# 00 9 A06 ... : ... .. . ...
ROW 3D : ... .. . ... ... ... : ... .. . ... ... ... : D-3 00 . S05 : ... .. . A02 ... : ... .. . ...
ROW 3E : ... .. . ... 471 ... : ... .. . ... 471 ... : C-3 00 . S05 : 1-# 00 A A0C ... : ... .. . ...
ROW 3F : ... .. . ... ... S06 : ... .. . ... ... S06 : D-3 00 . S05 : --- .. . ... ... : ... .. . ...

PATTERN 03
ROW 00 : C-4 00 8 V01 A01 400 : G-5 00 6 V02 A03 400 : A#2 00 . S05 : 9-# 00 A A05 ... : ... .. . ...
ROW 01 : ... .. . ... ... ... : D#5 00 . ... ... ... : C-3 00 . ... : ... .. . A02 ... : ... .. . ...
ROW 02 : ... .. . A00 ... 471 : C-5 00 6 ... ... ... : --- .. . ... : ... .. . A01 ... : ... .. . ...
ROW 03 : ... .. . A01 ... ... : G#4 00 . ... ... ... : C-3 00 . ... : ... .. . ... ... : ... .. . ...
ROW 04 : ... .. . A00 ... ... : G-5 00 5 ... ... ... : ... .. . ... : 6-# 00 9 A06 ... : ... .. . ...
ROW 05 : ... .. . A01 ... ... : D#5 00 . ... ... ... : ... .. . ... : ... .. . A02 ... : ... .. . ...
ROW 06 : ... .. . A00 ... ... : C-5 00 5 ... ... ... : ... .. . ... : ... .. . ... ... : ... .. . ...
ROW 07 : ... .. . A01 ... ... : G#4 00 . ... ... ... : ... .. . ... : 1-# 00 A A0C ... : ... .. . ...
ROW 08 : ... .. . A00 ... ... : G-5 00 6 ... ... ... : ... .. . ... : --- .. . ... ... : ... .. . ...
ROW 09 : ... .. . A01 S06 ... : D#5 00 . ... ... ... : --- .. . ... : ... .. . ... ... : ... .. . ...
ROW 0A : D-4 00 8 A01 ... 400 : C-5 00 6 ... ... ... : C-3 00 . ... : 1-# 00 A A0C ... : ... .. . ...
ROW 0B : ... .. . ... S06 ... : G#4 00 . ... ... ... : ... .. . ... : 1-# 00 A A0C ... : ... .. . ...
ROW 0C : D#4 00 8 ... ... ... : G-5 00 5 ... ... ... : --- .. . ... : 6-# 00 9 A06 ... : ... .. . ...
ROW 0D : ... .. . ... S06 ... : D#5 00 . ... ... ... : C-3 00 . ... : ... .. . A02 ... : ... .. . ...
ROW 0E : F-4 00 8 ... ... ... : C-5 00 5 ... ... ... : --- .. . ... : ... .. . ... ... : ... .. . ...
ROW 0F : ... .. . ... S06 ... : G#4 00 . ... ... ... : C-3 00 . S05 : ... .. . ... ... : ... .. . ...
ROW 10 : C-4 00 8 ... ... ... : G-5 00 6 ... ... ... : G-2 00 . S05 : 1-# 00 A A0C ... : ... .. . ...
ROW 11 : ... .. . ... ... ... : F-5 00 . ... ... ... : G#2 00 . ... : --- .. . ... ... : ... .. . ...
ROW 12 : ... .. . A00 ... 471 : D-5 00 6 ... ... ... : --- .. . ... : ... .. . ... ... : ... .. . ...
ROW 13 : ... .. . A01 ... ... : A#4 00 . ... ... ... : G#2 00 . ... : ... .. . ... ... : ... .. . ...
ROW 14 : ... .. . A00 ... ... : G-5 00 5 ... ... ... : ... .. . ... : 6-# 00 9 A06 ... : ... .. . ...
ROW 15 : ... .. . A01 ... ... : F-5 00 . ... ... ... : ... .. . ... : ... .. . A02 ... : ... .. . ...
ROW 16 : ... .. . A00 ... ... : D-5 00 5 ... ... ... : ... .. . ... : 1-# 00 A A0C ... : ... .. . ...
ROW 17 : ... .. . A01 ... ... : A#4 00 . ... ... ... : ... .. . ... : --- .. . ... ... : ... .. . ...
ROW 18 : ... .. . A00 ... ... : G-5 00 6 ... ... ... : ... .. . ... : ... .. . ... ... : ... .. . ...
ROW 19 : ... .. . A01 S06 ... : F-5 00 . ... ... ... : --- .. . ... : 1-# 00 A A0C ... : ... .. . ...
ROW 1A : D-4 00 8 A01 ... 400 : D-5 00 6 ... ... ... : G#2 00 . ... : --- .. . ... ... : ... .. . ...
ROW 1B : --- .. . ... ... ... : A#4 00 . ... ... ... : ... .. . S05 : 1-# 00 A A0C ... : ... .. . ...
ROW 1C : D#4 00 8 ... S07 ... : G-5 00 5 ... ... ... : G#2 00 . ... : 6-# 00 9 A06 ... : ... .. . ...
ROW 1D : F-4 00 8 ... ... ... : F-5 00 . ... ... ... : --- .. . ... : ... .. . A02 ... : ... .. . ...
ROW 1E : ... .. . ... ... ... : D-5 00 5 ... ... ... : G#2 00 . S06 : 1-# 00 A A0C ... : ... .. . ...
ROW 1F : ... .. . ... S06 ... : A#4 00 . ... ... ... : G#3 00 . S05 : --- .. . ... ... : ... .. . ...
ROW 20 : G-4 00 8 ... ... ... : D#3 00 8 V00 A01 S06 : G#2 00 . S05 : 8-# 00 A A05 ... : ... .. . ...
ROW 21 : ... .. . ... ... ... : D-3 00 8 ... ... ... : A#2 00 . ... : ... .. . A02 ... : ... .. . ...
ROW 22 : ... .. . A00 ... 471 : --- .. . ... ... ... : --- .. . ... : ... .. . A01 ... : ... .. . ...
ROW 23 : ... .. . A01 ... ... : D#3 00 8 ... ... ... : A#2 00 . ... : ... .. . ... ... : ... .. . ...
ROW 24 : ... .. . A00 ... ... : ... .. . ... ... ... : ... .. . ... : 6-# 00 9 A06 ... : ... .. . ...
ROW 25 : ... .. . ... ... ... : ... .. . ... ... ... : ... .. . ... : ... .. . A02 ... : ... .. . ...
ROW 26 : ... .. . ... ... 472 : ... .. . ... ... ... : ... .. . ... : ... .. . ... ... : ... .. . ...
ROW 27 : ... .. . ... ... ... : ... .. . ... ... S06 : ... .. . ... : 1-# 00 A A0C ... : ... .. . ...
ROW 28 : ... .. . ... ... ... : D#3 00 8 ... ... ... : ... .. . ... : --- .. . ... ... : ... .. . ...
ROW 29 : ... .. . ... ... ... : ... .. . ... ... ... : --- .. . ... : ... .. . ... ... : ... .. . ...
ROW 2A : ... .. . ... ... ... : ... .. . ... ... ... : A#2 00 . ... : 1-# 00 A A0C ... : ... .. . ...
ROW 2B : ... .. . ... ... ... : ... .. . ... ... S06 : ... .. . ... : 1-# 00 A A0C ... : ... .. . ...
ROW 2C : ... .. . A01 ... ... : D-3 00 8 ... ... ... : --- .. . ... : 6-# 00 9 A06 ... : ... .. . ...
ROW 2D : ... .. . ... ... ... : ... .. . ... ... ... : A#2 00 . ... : ... .. . A02 ... : ... .. . ...
ROW 2E : ... .. . ... ... ... : ... .. . ... ... ... : --- .. . ... : ... .. . ... ... : ... .. . ...
ROW 2F : ... .. . ... ... ... : ... .. . ... ... S06 : A#2 00 . S05 : ... .. . ... ... : ... .. . ...
ROW 30 : G-2 00 7 V01 A01 400 : D#3 00 8 ... ... ... : F-2 00 . S05 : 9-# 00 A A05 ... : ... .. . ...
ROW 31 : --- .. . ... ... ... : --- .. . ... ... ... : G-2 00 . ... : ... .. . A02 ... : ... .. . ...
ROW 32 : G-2 00 8 ... ... S06 : D#3 00 8 ... ... S06 : --- .. . ... : ... .. . A01 ... : ... .. . ...
ROW 33 : F-2 00 8 ... ... ... : D-3 00 8 ... ... ... : ... .. . ... : ... .. . ... ... : ... .. . ...
ROW 34 : --- .. . ... ... ... : --- .. . ... ... ... : G-2 00 . ... : 8-# 00 A A05 ... : ... .. . ...
ROW 35 : F-2 00 8 ... ... S06 : D-3 00 8 ... ... S06 : ... .. . ... : ... .. . A02 ... : ... .. . ...
ROW 36 : G-2 00 8 ... ... ... : D#3 00 8 ... ... ... : ... .. . ... : ... .. . A01 ... : ... .. . ...
ROW 37 : ... .. . ... ... 472 : ... .. . ... 472 ... : ... .. . ... : ... .. . ... ... : ... .. . ...
ROW 38 : ... .. . ... ... ... : ... .. . ... ... ... : ... .. . S05 : 1-# 00 A A0C ... : ... .. . ...
ROW 39 : ... .. . ... ... ... : ... .. . ... ... ... : G-2 00 . S05 : 6-# 00 9 A06 ... : ... .. . ...
ROW 3A : ... .. . ... ... ... : ... .. . ... ... ... : A#2 00 . S06 : ... .. . A02 ... : ... .. . ...
ROW 3B : ... .. . ... ... S06 : ... .. . ... ... S06 : C-3 00 . S05 : 6-# 00 9 A06 ... : ... .. . ...
ROW 3C : A#3 00 8 A01 V01 400 : D#3 00 7 ... 400 ... : G-3 00 . S05 : 1-# 00 A A0C ... : ... .. . ...
ROW 3D : --- .. . ... ... ... : --- .. . ... ... ... : F-3 00 . S05 : 6-# 00 9 A06 ... : ... .. . ...
ROW 3E : A#3 00 8 ... ... S06 : D-3 00 7 ... ... ... : D-3 00 . S06 : 6-# 00 9 A06 ... : ... .. . ...
ROW 3F : C-4 00 8 ... ... S06 : ... .. . ... ... S06 : A#2 00 . S05 : ... .. . A02 ... : ... .. . ...

PATTERN 04
ROW 00 : F-4 00 8 Q23 A01 V01 : G-5 00 6 V02 A02 ... : G-2 00 . ... : 9-# 00 A A05 ... : ... .. . ...
ROW 01 : ... .. . ... ... ... : D#5 00 . ... ... ... : ... .. . ... : ... .. . A02 ... : ... .. . ...
ROW 02 : ... .. . A00 ... 472 : C-5 00 6 ... ... ... : ... .. . S05 : ... .. . A01 ... : ... .. . ...
ROW 03 : ... .. . A01 ... ... : G#4 00 . ... ... ... : G#2 00 . ... : 1-# 00 A A0C ... : ... .. . ...
ROW 04 : ... .. . A00 ... ... : G-5 00 5 ... ... ... : --- .. . ... : 6-# 00 9 A06 ... : ... .. . ...
ROW 05 : ... .. . A01 ... ... : D#5 00 . ... ... ... : G#2 00 . ... : 1-# 00 A A0C ... : ... .. . ...
ROW 06 : ... .. . A00 ... ... : C-5 00 5 ... ... ... : --- .. . ... : --- .. . ... ... : ... .. . ...
ROW 07 : ... .. . A01 ... ... : G#4 00 . ... ... ... : G#2 00 . S05 : 1-# 00 A A0C ... : ... .. . ...
ROW 08 : ... .. . A00 ... ... : G-5 00 6 ... ... ... : G#2 00 . ... : 1-# 00 A A0C ... : ... .. . ...
ROW 09 : ... .. . A01 S06 ... : D#5 00 . ... ... ... : ... .. . ... : --- .. . ... ... : ... .. . ...
ROW 0A : G-4 00 8 A01 ... 400 : C-5 00 6 ... ... ... : --- .. . ... : ... .. . ... ... : ... .. . ...
ROW 0B : --- .. . ... ... ... : G#4 00 . ... ... ... : ... .. . ... : ... .. . ... ... : ... .. . ...
ROW 0C : F-4 00 8 ... S07 ... : G-5 00 5 ... ... ... : G#2 00 . ... : 6-# 00 9 A06 ... : ... .. . ...
ROW 0D : G-4 00 8 ... ... ... : D#5 00 . ... ... ... : --- .. . ... : ... .. . A02 ... : ... .. . ...
ROW 0E : ... .. . ... ... ... : C-5 00 5 ... ... ... : G-3 00 . S05 : ... .. . ... ... : ... .. . ...
ROW 0F : ... .. . ... S06 ... : G#4 00 . ... ... ... : G#3 00 . S05 : ... .. . ... ... : ... .. . ...
ROW 10 : F-4 00 8 ... ... ... : G-5 00 6 ... ... ... : G#2 00 . ... : 8-# 00 A A05 ... : ... .. . ...
ROW 11 : ... .. . ... ... ... : F-5 00 . ... ... ... : ... .. . ... : ... .. . A02 ... : ... .. . ...
ROW 12 : ... .. . ... ... ... : D-5 00 6 ... ... ... : ... .. . S05 : ... .. . A01 ... : ... .. . ...
ROW 13 : ... .. . ... S06 ... : A#4 00 . ... ... ... : A#2 00 . ... : ... .. . ... ... : ... .. . ...
ROW 14 : D#4 00 8 ... ... ... : G-5 00 5 ... ... ... : --- .. . ... : 6-# 00 9 A06 ... : ... .. . ...
ROW 15 : ... .. . ... ... ... : F-5 00 . ... ... ... : A#2 00 . ... : ... .. . A02 ... : ... .. . ...
ROW 16 : ... .. . ... ... ... : D-5 00 5 ... ... ... : --- .. . ... : ... .. . ... ... : ... .. . ...
ROW 17 : ... .. . ... S06 ... : A#4 00 . ... ... ... : A#2 00 . S05 : 1-# 00 A A0C ... : ... .. . ...
ROW 18 : D-4 00 8 ... ... ... : G-5 00 6 ... ... ... : A#2 00 . ... : 1-# 00 A A0C ... : ... .. . ...
ROW 19 : ... .. . ... ... ... : F-5 00 . ... ... ... : ... .. . ... : --- .. . ... ... : ... .. . ...
ROW 1A : ... .. . ... ... ... : D-5 00 6 ... ... ... : ... .. . ... : ... .. . ... ... : ... .. . ...
ROW 1B : ... .. . ... S06 ... : A#4 00 . ... ... ... : --- .. . ... : ... .. . ... ... : ... .. . ...
ROW 1C : A#3 00 8 ... ... ... : G-5 00 5 ... ... ... : A#2 00 . ... : 6-# 00 9 A06 ... : ... .. . ...
ROW 1D : ... .. . ... ... ... : F-5 00 . ... ... ... : ... .. . S05 : ... .. . A02 ... : ... .. . ...
ROW 1E : ... .. . ... ... ... : D-5 00 5 ... ... ... : G#3 00 . S05 : 1-# 00 A A0C ... : ... .. . ...
ROW 1F : ... .. . ... S06 ... : A#4 00 . ... ... ... : A#3 00 . S05 : --- .. . ... ... : ... .. . ...
ROW 20 : A#3 00 8 Q32 ... ... : D#3 00 8 V00 A01 S07 : C-3 00 . ... : 1-# 00 A A0C ... : ... .. . ...
ROW 21 : ... .. . ... ... ... : D-3 00 8 ... ... ... : --- .. . ... : --- .. . ... ... : ... .. . ...
ROW 22 : ... .. . ... ... ... : --- .. . ... ... ... : C-3 00 . ... : ... .. . ... ... : ... .. . ...
ROW 23 : ... .. . ... S06 ... : D#3 00 8 ... ... ... : ... .. . ... : ... .. . ... ... : ... .. . ...
ROW 24 : G-3 00 8 ... ... ... : ... .. . ... ... ... : ... .. . ... : 6-# 00 9 A06 ... : ... .. . ...
ROW 25 : ... .. . ... ... ... : ... .. . ... ... ... : ... .. . ... : ... .. . A02 ... : ... .. . ...
ROW 26 : ... .. . A00 471 ... : ... .. . ... ... ... : ... .. . ... : ... .. . ... ... : ... .. . ...
ROW 27 : ... .. . A01 ... ... : ... .. . ... ... S06 : --- .. . ... : 1-# 00 A A0C ... : ... .. . ...
ROW 28 : ... .. . A00 472 ... : D#3 00 8 ... ... ... : C-3 00 . ... : --- .. . ... ... : ... .. . ...
ROW 29 : ... .. . ... ... ... : ... .. . ... ... ... : ... .. . ... : ... .. . ... ... : ... .. . ...
ROW 2A : ... .. . ... ... ... : ... .. . ... ... ... : --- .. . ... : 1-# 00 A A0C ... : ... .. . ...
ROW 2B : ... .. . ... ... ... : ... .. . ... ... S06 : ... .. . ... : 1-# 00 A A0C ... : ... .. . ...
ROW 2C : ... .. . A01 ... ... : D-3 00 8 ... ... ... : C-3 00 . ... : 6-# 00 9 A06 ... : ... .. . ...
ROW 2D : ... .. . ... ... ... : ... .. . ... ... ... : --- .. . ... : ... .. . A02 ... : ... .. . ...
ROW 2E : ... .. . ... ... ... : ... .. . ... ... ... : C-3 00 . S05 : ... .. . ... ... : ... .. . ...
ROW 2F : ... .. . ... ... ... : ... .. . ... ... S06 : A#2 00 . S05 : ... .. . ... ... : ... .. . ...
ROW 30 : G-2 00 8 V01 A01 400 : D#3 00 8 ... ... ... : C-3 00 . ... : 1-# 00 A A0C ... : ... .. . ...
ROW 31 : --- .. . ... ... ... : --- .. . ... ... ... : --- .. . ... : ... .. . ... ... : ... .. . ...
ROW 32 : G-2 00 7 ... ... S06 : D#3 00 8 ... ... S06 : C-3 00 . ... : ... .. . ... ... : ... .. . ...
ROW 33 : F-2 00 8 ... ... ... : D-3 00 8 ... ... ... : ... .. . ... : ... .. . ... ... : ... .. . ...
ROW 34 : --- .. . ... ... ... : --- .. . ... ... ... : ... .. . ... : 6-# 00 9 A06 ... : ... .. . ...
ROW 35 : F-2 00 7 ... ... S06 : D-3 00 8 ... ... S06 : ... .. . ... : ... .. . A02 ... : ... .. . ...
ROW 36 : G-2 00 8 ... ... ... : D#3 00 8 ... ... ... : ... .. . ... : 1-# 00 A A0C ... : ... .. . ...
ROW 37 : ... .. . ... ... 472 : ... .. . ... 472 ... : ... .. . ... : ... .. . ... ... : ... .. . ...
ROW 38 : ... .. . ... ... ... : ... .. . ... ... ... : --- .. . ... : ... .. . ... ... : ... .. . ...
ROW 39 : ... .. . ... ... ... : ... .. . ... ... ... : G-2 00 . S05 : 1-# 00 A A0C ... : ... .. . ...
ROW 3A : ... .. . ... ... ... : ... .. . ... ... ... : A#2 00 . S05 : ... .. . ... ... : ... .. . ...
ROW 3B : ... .. . ... ... ... : ... .. . ... ... ... : C-3 00 . S05 : 6-# 00 9 A06 ... : ... .. . ...
ROW 3C : A#3 00 8 V01 A01 400 : G-3 00 7 V00 A01 400 : D-3 00 . S06 : 6-# 00 9 A06 ... : ... .. . ...
ROW 3D : --- .. . ... ... ... : --- .. . ... ... ... : D#3 00 . S05 : ... .. . A02 ... : ... .. . ...
ROW 3E : A#3 00 8 ... ... ... : F-3 00 7 ... ... ... : D-3 00 . S05 : 1-# 00 A A0C ... : ... .. . ...
ROW 3F : ... .. . ... S06 ... : ... .. . ... ... S06 : A#2 00 . S05 : ... .. . ... ... : ... .. . ...

PATTERN 05
ROW 00 : C-4 00 8 ... ... ... : D#3 00 8 V01 ... ... : G-2 00 . ... : 9-# 00 A A05 ... : ... .. . ...
ROW 01 : ... .. . ... ... ... : ... .. . ... ... ... : ... .. . ... : ... .. . A02 ... : ... .. . ...
ROW 02 : ... .. . A00 471 ... : ... .. . A00 471 ... : ... .. . S05 : ... .. . A01 ... : ... .. . ...
ROW 03 : ... .. . A01 ... ... : ... .. . A01 ... ... : G#2 00 . ... : 1-# 00 A A0C ... : ... .. . ...
ROW 04 : ... .. . A00 ... ... : ... .. . A00 ... ... : --- .. . ... : 6-# 00 9 A06 ... : ... .. . ...
ROW 05 : ... .. . A01 ... ... : ... .. . A01 ... ... : G#2 00 . ... : 1-# 00 A A0C ... : ... .. . ...
ROW 06 : ... .. . A00 ... ... : ... .. . A00 ... ... : --- .. . ... : --- .. . ... ... : ... .. . ...
ROW 07 : ... .. . A01 ... ... : ... .. . A01 ... ... : G#2 00 . S05 : 1-# 00 A A0C ... : ... .. . ...
ROW 08 : ... .. . A00 ... ... : ... .. . A00 ... ... : G#2 00 . ... : 1-# 00 A A0C ... : ... .. . ...
ROW 09 : ... .. . A01 ... S06 : ... .. . A01 ... S06 : ... .. . ... : --- .. . ... ... : ... .. . ...
ROW 0A : D-4 00 8 A01 400 ... : F-3 00 8 A01 400 ... : --- .. . ... : ... .. . ... ... : ... .. . ...
ROW 0B : --- .. . ... ... ... : --- .. . ... ... ... : ... .. . ... : ... .. . ... ... : ... .. . ...
ROW 0C : D#4 00 8 ... ... S07 : G-3 00 8 ... ... S07 : G#2 00 . ... : 6-# 00 9 A06 ... : ... .. . ...
ROW 0D : F-4 00 8 ... ... ... : G-3 00 8 ... ... ... : --- .. . ... : ... .. . A02 ... : ... .. . ...
ROW 0E : ... .. . ... ... S06 : ... .. . ... ... S06 : G-3 00 . S05 : ... .. . ... ... : ... .. . ...
ROW 0F : F-4 00 8 Q12 ... ... : A#3 00 8 ... ... ... : G#3 00 . S05 : ... .. . ... ... : ... .. . ...
ROW 10 : ... .. . ... ... ... : ... .. . ... ... ... : G#2 00 . ... : 8-# 00 9 A05 ... : ... .. . ...
ROW 11 : ... .. . ... ... ... : ... .. . ... ... ... : ... .. . ... : ... .. . A02 ... : ... .. . ...
ROW 12 : ... .. . A00 ... S06 : ... .. . A00 ... S06 : ... .. . S05 : ... .. . A01 ... : ... .. . ...
ROW 13 : G#4 00 8 A01 ... ... : C-4 00 8 A01 ... ... : A#2 00 . ... : ... .. . ... ... : ... .. . ...
ROW 14 : --- .. . ... ... ... : --- .. . ... ... ... : --- .. . ... : 6-# 00 9 A06 ... : ... .. . ...
ROW 15 : ... .. . ... ... ... : ... .. . ... ... ... : A#2 00 . ... : ... .. . A02 ... : ... .. . ...
ROW 16 : F-4 00 8 ... ... ... : G#3 00 8 ... ... ... : --- .. . ... : ... .. . ... ... : ... .. . ...
ROW 17 : ... .. . ... ... ... : ... .. . ... ... ... : A#2 00 . S05 : ... .. . ... ... : ... .. . ...
ROW 18 : ... .. . ... ... ... : ... .. . ... ... ... : A#2 00 . ... : 1-# 00 A A0C ... : ... .. . ...
ROW 19 : ... .. . ... ... S06 : ... .. . ... ... S06 : ... .. . ... : 1-# 00 A A0C ... : ... .. . ...
ROW 1A : D-4 00 8 ... ... ... : F-3 00 8 ... ... ... : ... .. . ... : --- .. . ... ... : ... .. . ...
ROW 1B : --- .. . ... ... ... : --- .. . ... ... ... : --- .. . ... : ... .. . ... ... : ... .. . ...
ROW 1C : C-4 00 8 ... ... S07 : F-3 00 8 ... ... S07 : A#2 00 . ... : 6-# 00 9 A06 ... : ... .. . ...
ROW 1D : D-4 00 8 ... ... ... : F-3 00 8 ... ... ... : ... .. . S05 : ... .. . A02 ... : ... .. . ...
ROW 1E : ... .. . ... ... ... : ... .. . ... ... ... : G#3 00 . S05 : 1-# 00 A A0C ... : ... .. . ...
ROW 1F : ... .. . ... ... S06 : ... .. . ... ... S06 : A#3 00 . S05 : --- .. . ... ... : ... .. . ...
ROW 20 : C-4 00 8 Q22 ... ... : A#2 00 8 ... ... ... : C-3 00 . ... : 1-# 00 A A0C ... : ... .. . ...
ROW 21 : ... .. . ... ... ... : ... .. . ... ... ... : --- .. . ... : --- .. . ... ... : ... .. . ...
ROW 22 : ... .. . ... ... ... : ... .. . ... ... ... : C-3 00 . ... : ... .. . ... ... : ... .. . ...
ROW 23 : ... .. . A00 ... S06 : ... .. . A00 ... S06 : ... .. . ... : ... .. . ... ... : ... .. . ...
ROW 24 : D#4 00 8 A01 ... ... : C-3 00 8 A01 ... ... : ... .. . ... : 6-# 00 9 A06 ... : ... .. . ...
ROW 25 : ... .. . ... ... ... : ... .. . ... ... ... : ... .. . ... : ... .. . A02 ... : ... .. . ...
ROW 26 : ... .. . ... ... S06 : ... .. . ... ... S06 : ... .. . ... : ... .. . ... ... : ... .. . ...
ROW 27 : F-4 00 8 ... ... ... : D-3 00 8 ... ... ... : --- .. . ... : 1-# 00 A A0C ... : ... .. . ...
ROW 28 : --- .. . ... ... ... : --- .. . ... ... ... : C-3 00 . ... : --- .. . ... ... : ... .. . ...
ROW 29 : ... .. . ... ... ... : ... .. . ... ... ... : ... .. . ... : ... .. . ... ... : ... .. . ...
ROW 2A : A#3 00 8 ... ... ... : D-3 00 8 ... ... ... : --- .. . ... : 1-# 00 A A0C ... : ... .. . ...
ROW 2B : ... .. . ... ... ... : ... .. . ... ... ... : ... .. . ... : 1-# 00 A A0C ... : ... .. . ...
ROW 2C : ... .. . ... ... S06 : ... .. . ... ... S06 : C-3 00 . ... : 6-# 00 9 A06 ... : ... .. . ...
ROW 2D : F-4 00 8 ... ... ... : D-3 00 8 ... ... ... : --- .. . ... : ... .. . A02 ... : ... .. . ...
ROW 2E : --- .. . ... ... ... : --- .. . ... ... ... : C-3 00 . S05 : ... .. . ... ... : ... .. . ...
ROW 2F : G#4 00 8 ... ... ... : F-3 00 8 ... ... ... : A#2 00 . S05 : ... .. . ... ... : ... .. . ...
ROW 30 : ... .. . ... ... ... : ... .. . ... ... ... : C-3 00 . ... : 9-# 00 A A05 ... : ... .. . ...
ROW 31 : ... .. . A00 471 ... : ... .. . A00 471 ... : --- .. . ... : ... .. . A02 ... : ... .. . ...
ROW 32 : ... .. . A01 ... ... : ... .. . A01 ... ... : C-3 00 . ... : ... .. . A01 ... : ... .. . ...
ROW 33 : ... .. . A00 ... ... : ... .. . A00 ... ... : ... .. . ... : 8-# 00 A A05 ... : ... .. . ...
ROW 34 : ... .. . A01 ... ... : ... .. . A01 ... ... : ... .. . ... : ... .. . A02 ... : ... .. . ...
ROW 35 : ... .. . A00 ... S06 : ... .. . A00 ... S06 : ... .. . ... : ... .. . A01 ... : ... .. . ...
ROW 36 : G-4 00 8 A01 400 S06 : D#3 00 8 A01 400 S06 : ... .. . ... : 9-# 00 A A05 ... : ... .. . ...
ROW 37 : F-4 00 8 ... ... S06 : D-3 00 8 ... ... S06 : ... .. . ... : ... .. . A02 ... : ... .. . ...
ROW 38 : G-4 00 8 ... ... ... : D#3 00 8 ... ... ... : --- .. . ... : ... .. . A01 ... : ... .. . ...
ROW 39 : ... .. . ... ... ... : ... .. . ... ... ... : G-2 00 . S05 : 5-# 00 A A0C ... : ... .. . ...
ROW 3A : ... .. . ... ... ... : ... .. . ... ... ... : A#2 00 . S05 : 4-# 00 A A0C ... : ... .. . ...
ROW 3B : ... .. . A00 ... S06 : ... .. . A00 ... S06 : G-2 00 . S05 : --- .. . ... ... : ... .. . ...
ROW 3C : F-4 00 8 A01 ... ... : D-3 00 8 A01 ... ... : D-3 00 . S06 : 3-# 00 A A0C ... : ... .. . ...
ROW 3D : ... .. . ... ... S06 : ... .. . ... ... S06 : D#3 00 . S05 : 3-# 00 A A0C ... : ... .. . ...
ROW 3E : D#4 00 8 ... ... ... : C-3 00 8 ... ... ... : D-3 00 . S05 : 2-# 00 A A0C ... : ... .. . ...
ROW 3F : ... .. . ... ... S06 : ... .. . ... ... S06 : A#3 00 . S05 : 2-# 00 A A0C ... : ... .. . ...

PATTERN 06
ROW 00 : C-4 00 8 ... ... ... : D#3 00 8 ... ... ... : A#2 00 . S06 : 8-# 00 A A05 ... : ... .. . ...
ROW 01 : ... .. . ... ... ... : ... .. . ... ... ... : C-3 00 . ... : ... .. . A02 ... : ... .. . ...
ROW 02 : ... .. . A00 471 ... : ... .. . A00 471 ... : --- .. . ... : ... .. . A01 ... : ... .. . ...
ROW 03 : ... .. . A01 ... ... : ... .. . A01 ... ... : C-3 00 . ... : ... .. . ... ... : ... .. . ...
ROW 04 : ... .. . A00 ... ... : ... .. . A00 ... ... : ... .. . ... : 6-# 00 9 A06 ... : ... .. . ...
ROW 05 : ... .. . A01 ... ... : ... .. . A01 ... ... : ... .. . ... : ... .. . A02 ... : ... .. . ...
ROW 06 : ... .. . A00 ... ... : ... .. . A00 ... ... : ... .. . ... : ... .. . ... ... : ... .. . ...
ROW 07 : ... .. . A01 ... ... : ... .. . A01 ... ... : ... .. . ... : 1-# 00 A A0C ... : ... .. . ...
ROW 08 : ... .. . A00 ... ... : ... .. . A00 ... ... : ... .. . ... : 1-# 00 A A0C ... : ... .. . ...
ROW 09 : ... .. . A01 ... S06 : ... .. . A01 ... S06 : --- .. . ... : --- .. . ... ... : ... .. . ...
ROW 0A : C-4 00 8 A01 400 Q22 : G-3 00 8 A01 400 ... : C-3 00 . ... : ... .. . ... ... : ... .. . ...
ROW 0B : ... .. . ... ... S06 : ... .. . ... ... S06 : ... .. . ... : ... .. . ... ... : ... .. . ...
ROW 0C : D#4 00 8 ... ... ... : G#3 00 8 ... ... ... : --- .. . ... : 6-# 00 9 A06 ... : ... .. . ...
ROW 0D : ... .. . ... ... S06 : ... .. . ... ... S06 : C-3 00 . ... : ... .. . A02 ... : ... .. . ...
ROW 0E : F-4 00 8 ... ... ... : G-3 00 8 ... ... ... : --- .. . ... : ... .. . ... ... : ... .. . ...
ROW 0F : ... .. . ... ... S06 : ... .. . ... ... S06 : D#3 00 . ... : 1-# 00 A A0C ... : ... .. . ...
ROW 10 : F-4 00 8 ... ... ... : A#3 00 8 ... ... ... : ... .. . ... : --- .. . ... ... : ... .. . ...
ROW 11 : ... .. . ... ... ... : ... .. . ... ... ... : ... .. . ... : ... .. . ... ... : ... .. . ...
ROW 12 : ... .. . A00 471 ... : ... .. . A00 471 ... : --- .. . ... : ... .. . ... ... : ... .. . ...
ROW 13 : ... .. . A01 ... ... : ... .. . A01 ... ... : F-3 00 . ... : 1-# 00 A A0C ... : ... .. . ...
ROW 14 : ... .. . A00 ... ... : ... .. . A00 ... ... : --- .. . ... : 6-# 00 9 A06 ... : ... .. . ...
ROW 15 : ... .. . A01 ... ... : ... .. . A01 ... ... : ... .. . ... : ... .. . A02 ... : ... .. . ...
ROW 16 : ... .. . A00 ... ... : ... .. . A00 ... ... : F-3 00 . ... : 1-# 00 A A0C ... : ... .. . ...
ROW 17 : ... .. . A01 ... ... : ... .. . A01 ... S06 : ... .. . ... : --- .. . ... ... : ... .. . ...
ROW 18 : ... .. . A00 ... ... : G#3 00 8 ... 400 ... : ... .. . ... : 1-# 00 A A0C ... : ... .. . ...
ROW 19 : ... .. . A01 ... S06 : ... .. . ... ... ... : --- .. . ... : --- .. . ... ... : ... .. . ...
ROW 1A : G-4 00 8 A01 400 ... : ... .. . ... ... ... : F-3 00 . ... : ... .. . ... ... : ... .. . ...
ROW 1B : --- .. . ... ... ... : ... .. . ... ... S06 : ... .. . S05 : ... .. . ... ... : ... .. . ...
ROW 1C : D#4 00 8 ... ... S07 : G-3 00 8 ... ... ... : D#3 00 . ... : 6-# 00 9 A06 ... : ... .. . ...
ROW 1D : D-4 00 8 ... ... ... : ... .. . ... ... ... : --- .. . ... : ... .. . A02 ... : ... .. . ...
ROW 1E : ... .. . ... ... ... : ... .. . ... ... ... : D#3 00 . S05 : 1-# 00 A A0C ... : ... .. . ...
ROW 1F : ... .. . ... ... S06 : ... .. . ... ... S06 : F-3 00 . S05 : --- .. . ... ... : ... .. . ...
ROW 20 : D-4 00 8 ... ... ... : F-3 00 8 ... ... ... : G#2 00 . S06 : 1-# 00 A A0C ... : ... .. . ...
ROW 21 : ... .. . ... ... S06 : ... .. . ... ... S06 : A#2 00 . ... : --- .. . ... ... : ... .. . ...
ROW 22 : D#4 00 8 ... ... S06 : F-3 00 8 ... ... S06 : --- .. . ... : ... .. . ... ... : ... .. . ...
ROW 23 : C-4 00 8 ... ... ... : D#3 00 8 ... ... ... : A#2 00 . ... : ... .. . ... ... : ... .. . ...
ROW 24 : ... .. . ... ... ... : ... .. . ... ... ... : ... .. . ... : 6-# 00 9 A06 ... : ... .. . ...
ROW 25 : ... .. . A00 471 ... : ... .. . ... 471 ... : ... .. . ... : ... .. . A02 ... : ... .. . ...
ROW 26 : ... .. . A01 ... ... : ... .. . ... ... ... : ... .. . ... : ... .. . ... ... : ... .. . ...
ROW 27 : ... .. . A00 ... ... : ... .. . ... ... S06 : ... .. . ... : 1-# 00 A A0C ... : ... .. . ...
ROW 28 : ... .. . A01 ... ... : D#3 00 8 V00 400 ... : ... .. . ... : 1-# 00 A A0C ... : ... .. . ...
ROW 29 : ... .. . A00 ... ... : ... .. . ... ... ... : --- .. . ... : --- .. . ... ... : ... .. . ...
ROW 2A : ... .. . A01 ... ... : ... .. . ... ... ... : A#2 00 . ... : ... .. . ... ... : ... .. . ...
ROW 2B : ... .. . A00 ... ... : ... .. . ... ... S06 : ... .. . ... : ... .. . ... ... : ... .. . ...
ROW 2C : ... .. . A01 ... ... : D-3 00 8 ... ... ... : --- .. . ... : 6-# 00 9 A06 ... : ... .. . ...
ROW 2D : ... .. . A00 ... ... : ... .. . ... ... ... : D-3 00 . ... : 1-# 00 A A0C ... : ... .. . ...
ROW 2E : ... .. . A01 ... ... : ... .. . ... ... ... : --- .. . ... : --- .. . ... ... : ... .. . ...
ROW 2F : ... .. . ... ... S06 : ... .. . ... ... S06 : D#3 00 . ... : 1-# 00 A A0C ... : ... .. . ...
ROW 30 : G-2 00 8 V01 A01 400 : D#3 00 8 ... ... ... : ... .. . ... : --- .. . ... ... : ... .. . ...
ROW 31 : --- .. . ... ... ... : --- .. . ... ... ... : ... .. . ... : ... .. . ... ... : ... .. . ...
ROW 32 : G-2 00 8 ... ... S06 : D#3 00 8 ... ... S06 : --- .. . ... : ... .. . ... ... : ... .. . ...
ROW 33 : F-2 00 8 ... ... ... : D-3 00 8 ... ... ... : D#3 00 . ... : 1-# 00 A A0C ... : ... .. . ...
ROW 34 : --- .. . ... ... ... : --- .. . ... ... ... : --- .. . ... : 6-# 00 9 A06 ... : ... .. . ...
ROW 35 : F-2 00 8 ... ... S06 : D-3 00 8 ... ... S06 : ... .. . ... : ... .. . A02 ... : ... .. . ...
ROW 36 : G-2 00 8 ... ... ... : D#3 00 8 ... ... ... : D#3 00 . ... : 1-# 00 A A0C ... : ... .. . ...
ROW 37 : ... .. . ... 471 ... : ... .. . ... 472 ... : ... .. . S05 : --- .. . ... ... : ... .. . ...
ROW 38 : ... .. . ... ... ... : ... .. . ... ... ... : D#3 00 . ... : 1-# 00 A A0C ... : ... .. . ...
ROW 39 : ... .. . ... ... ... : ... .. . ... ... ... : ... .. . ... : --- .. . ... ... : ... .. . ...
ROW 3A : ... .. . ... ... ... : ... .. . ... ... ... : ... .. . S05 : ... .. . ... ... : ... .. . ...
ROW 3B : ... .. . ... ... ... : ... .. . ... ... ... : D#3 00 . ... : ... .. . ... ... : ... .. . ...
ROW 3C : A#3 00 8 V01 400 ... : G-3 00 7 V00 400 ... : --- .. . ... : 6-# 00 9 A06 ... : ... .. . ...
ROW 3D : --- .. . ... ... ... : --- .. . ... ... ... : D#3 00 . ... : ... .. . A02 ... : ... .. . ...
ROW 3E : A#3 00 8 ... ... ... : F-3 00 7 ... ... ... : --- .. . ... : ... .. . ... ... : ... .. . ...
ROW 3F : ... .. . ... ... S06 : ... .. . ... ... S06 : D-3 00 . S05 : ... .. . ... ... : ... .. . ...

PATTERN 07
ROW 00 : C-4 00 8 ... ... ... : D#3 00 8 V01 ... ... : G-2 00 . ... : 1-# 00 A A0C ... : ... .. . ...
ROW 01 : ... .. . ... ... ... : ... .. . ... ... ... : ... .. . ... : --- .. . ... ... : ... .. . ...
ROW 02 : ... .. . A00 471 ... : ... .. . A00 471 ... : ... .. . S05 : ... .. . ... ... : ... .. . ...
ROW 03 : ... .. . A01 ... ... : ... .. . A01 ... ... : G#2 00 . ... : 1-# 00 A A0C ... : ... .. . ...
ROW 04 : ... .. . A00 ... ... : ... .. . A00 ... ... : --- .. . ... : 6-# 00 9 A06 ... : ... .. . ...
ROW 05 : ... .. . A01 ... ... : ... .. . A01 ... ... : G#2 00 . ... : 1-# 00 A A0C ... : ... .. . ...
ROW 06 : ... .. . A00 ... ... : ... .. . A00 ... ... : --- .. . ... : --- .. . ... ... : ... .. . ...
ROW 07 : ... .. . A01 ... ... : ... .. . A01 ... ... : G#2 00 . S05 : 1-# 00 A A0C ... : ... .. . ...
ROW 08 : ... .. . A00 ... ... : ... .. . A00 ... ... : G#2 00 . ... : 1-# 00 A A0C ... : ... .. . ...
ROW 09 : ... .. . A01 ... S06 : ... .. . A01 ... S06 : ... .. . ... : --- .. . ... ... : ... .. . ...
ROW 0A : D-4 00 8 A01 400 ... : F-3 00 8 A01 400 ... : --- .. . ... : ... .. . ... ... : ... .. . ...
ROW 0B : --- .. . ... ... ... : --- .. . ... ... ... : ... .. . ... : ... .. . ... ... : ... .. . ...
ROW 0C : D#4 00 8 ... ... S07 : G-3 00 8 ... ... S07 : G#2 00 . ... : 6-# 00 9 A06 ... : ... .. . ...
ROW 0D : F-4 00 8 ... ... ... : G#3 00 8 ... ... ... : --- .. . ... : ... .. . A02 ... : ... .. . ...
ROW 0E : ... .. . ... ... S06 : ... .. . ... ... S06 : G-3 00 . S05 : ... .. . ... ... : ... .. . ...
ROW 0F : F-4 00 8 Q22 ... ... : A#3 00 8 ... ... ... : G#3 00 . S05 : ... .. . ... ... : ... .. . ...
ROW 10 : ... .. . ... ... ... : ... .. . ... ... ... : G#2 00 . ... : 1-# 00 A A0C ... : ... .. . ...
ROW 11 : ... .. . ... A00 ... : ... .. . ... A00 ... : ... .. . ... : --- .. . ... ... : ... .. . ...
ROW 12 : ... .. . ... A01 ... : ... .. . ... A01 ... : ... .. . S05 : ... .. . ... ... : ... .. . ...
ROW 13 : ... .. . ... A00 S06 : ... .. . ... A00 S06 : A#2 00 . ... : 1-# 00 A A0C ... : ... .. . ...
ROW 14 : C-4 00 8 ... A01 ... : G-3 00 8 ... A01 ... : --- .. . ... : 6-# 00 9 A06 ... : ... .. . ...
ROW 15 : ... .. . ... ... ... : ... .. . ... ... ... : A#2 00 . ... : ... .. . A02 ... : ... .. . ...
ROW 16 : ... .. . ... ... S06 : ... .. . ... ... S06 : --- .. . ... : ... .. . ... ... : ... .. . ...
ROW 17 : A#4 00 8 ... ... ... : G-3 00 8 ... ... ... : A#2 00 . S05 : 1-# 00 A A0C ... : ... .. . ...
ROW 18 : ... .. . ... ... ... : ... .. . ... ... ... : A#2 00 . ... : 1-# 00 A A0C ... : ... .. . ...
ROW 19 : ... .. . ... ... S06 : ... .. . ... ... S06 : ... .. . ... : --- .. . ... ... : ... .. . ...
ROW 1A : G#4 00 8 ... ... ... : F-3 00 8 ... ... ... : --- .. . ... : ... .. . ... ... : ... .. . ...
ROW 1B : --- .. . ... ... ... : --- .. . ... ... ... : ... .. . ... : ... .. . ... ... : ... .. . ...
ROW 1C : G-4 00 8 ... ... ... : D#3 00 8 ... ... ... : G-2 00 . ... : 6-# 00 9 A06 ... : ... .. . ...
ROW 1D : --- .. . ... ... ... : --- .. . ... ... ... : --- .. . ... : ... .. . A02 ... : ... .. . ...
ROW 1E : F-4 00 8 ... ... ... : D-3 00 8 ... ... ... : A#2 00 . S05 : 1-# 00 A A0C ... : ... .. . ...
ROW 1F : ... .. . ... ... S06 : ... .. . ... ... S06 : G-2 00 . S05 : --- .. . ... ... : ... .. . ...
ROW 20 : C-4 00 8 Q32 ... S07 : F-3 00 8 ... ... S07 : A#2 00 . S06 : 9-# 00 A A05 ... : ... .. . ...
ROW 21 : D#4 00 8 ... ... ... : F-3 00 8 ... ... ... : C-3 00 . ... : ... .. . A02 ... : ... .. . ...
ROW 22 : --- .. . ... ... ... : --- .. . ... ... ... : --- .. . ... : ... .. . A01 ... : ... .. . ...
ROW 23 : C-4 00 8 ... ... ... : D#3 00 8 ... ... ... : C-3 00 . ... : 8-# 00 A A05 ... : ... .. . ...
ROW 24 : ... .. . ... ... ... : ... .. . ... ... ... : ... .. . ... : ... .. . A02 ... : ... .. . ...
ROW 25 : ... .. . ... 471 ... : ... .. . ... 471 ... : ... .. . ... : ... .. . A01 ... : ... .. . ...
ROW 26 : ... .. . A00 ... ... : ... .. . ... ... ... : ... .. . ... : ... .. . ... ... : ... .. . ...
ROW 27 : ... .. . A01 ... ... : ... .. . ... ... ... : ... .. . ... : 1-# 00 A A0C ... : ... .. . ...
ROW 28 : ... .. . A00 ... ... : D#3 00 8 V00 400 ... : ... .. . ... : --- .. . ... ... : ... .. . ...
ROW 29 : ... .. . A01 ... ... : ... .. . ... ... ... : ... .. . S05 : 6-# 00 9 A06 ... : ... .. . ...
ROW 2A : ... .. . A00 ... ... : ... .. . ... ... ... : C-3 00 . ... : ... .. . A02 ... : ... .. . ...
ROW 2B : ... .. . A01 ... ... : ... .. . ... ... S06 : ... .. . ... : ... .. . ... ... : ... .. . ...
ROW 2C : ... .. . A00 ... ... : D-3 00 8 ... ... ... : --- .. . ... : 6-# 00 9 A06 ... : ... .. . ...
ROW 2D : ... .. . A01 ... ... : ... .. . ... ... ... : C-3 00 . ... : ... .. . A02 ... : ... .. . ...
ROW 2E : ... .. . ... ... ... : ... .. . ... ... ... : --- .. . ... : 4-# 00 A A0C ... : ... .. . ...
ROW 2F : ... .. . ... ... S06 : ... .. . ... ... S06 : C-3 00 . S05 : --- .. . ... ... : ... .. . ...
ROW 30 : G-2 00 8 V01 400 ... : D#3 00 8 ... ... ... : A#2 00 . S06 : 1-# 00 A A0C ... : ... .. . ...
ROW 31 : --- .. . ... ... ... : --- .. . ... ... ... : C-3 00 . ... : --- .. . ... ... : ... .. . ...
ROW 32 : G-2 00 8 ... ... S06 : D#3 00 8 ... ... S06 : --- .. . ... : ... .. . ... ... : ... .. . ...
ROW 33 : F-2 00 8 ... ... ... : D-3 00 8 ... ... ... : C-3 00 . ... : ... .. . ... ... : ... .. . ...
ROW 34 : --- .. . ... ... ... : --- .. . ... ... ... : ... .. . ... : 6-# 00 9 A06 ... : ... .. . ...
ROW 35 : F-2 00 8 ... ... S06 : D-3 00 8 ... ... S06 : ... .. . ... : ... .. . A02 ... : ... .. . ...
ROW 36 : G-2 00 8 ... ... ... : D#3 00 8 ... ... ... : ... .. . ... : 1-# 00 A A0C ... : ... .. . ...
ROW 37 : ... .. . ... 471 ... : ... .. . ... 472 ... : ... .. . ... : --- .. . ... ... : ... .. . ...
ROW 38 : ... .. . ... ... ... : ... .. . ... ... ... : --- .. . ... : ... .. . ... ... : ... .. . ...
ROW 39 : ... .. . ... ... ... : ... .. . ... ... ... : G-2 00 . S05 : 4-# 00 A A0C ... : ... .. . ...
ROW 3A : ... .. . ... ... ... : ... .. . ... ... ... : A#2 00 . S05 : --- .. . ... ... : ... .. . ...
ROW 3B : ... .. . ... ... ... : ... .. . ... ... ... : C-3 00 . S05 : 3-# 00 A A0C ... : ... .. . ...
ROW 3C : F-2 00 8 V01 400 ... : D-3 00 7 V00 400 A02 : D-3 00 . S06 : 6-# 00 9 A06 ... : ... .. . ...
ROW 3D : --- .. . ... ... A02 : --- .. . ... ... ... : D#3 00 . S05 : 1-# 00 A A0C ... : ... .. . ...
ROW 3E : G-2 00 8 ... ... ... : D#3 00 8 ... ... ... : D-3 00 . S05 : 6-# 00 9 A06 ... : ... .. . ...
ROW 3F : ... .. . ... ... S06 : ... .. . ... ... S06 : A#2 00 . S05 : 6-# 00 9 A06 ... : ... .. . ...

PATTERN 08
ROW 00 : ... .. . ... ... ... : ... .. . ... ... ... : G-2 00 . ... : 8-# 00 A A05 ... : ... .. . ...
ROW 01 : ... .. . ... ... ... : ... .. . ... ... ... : ... .. . ... : ... .. . A02 ... : ... .. . ...
ROW 02 : ... .. . ... ... ... : ... .. . ... ... ... : --- .. . ... : ... .. . A01 ... : ... .. . ...
ROW 03 : ... .. . ... ... ... : ... .. . ... ... ... : G#2 00 . ... : 1-# 00 A A0C ... : ... .. . ...
ROW 04 : ... .. . ... ... ... : ... .. . ... ... ... : --- .. . ... : 6-# 00 9 A06 ... : ... .. . ...
ROW 05 : ... .. . ... ... ... : ... .. . ... ... ... : G#2 00 . ... : 1-# 00 A A0C ... : ... .. . ...
ROW 06 : ... .. . ... ... ... : ... .. . ... ... ... : --- .. . ... : --- .. . ... ... : ... .. . ...
ROW 07 : ... .. . ... ... ... : ... .. . ... ... ... : G#2 00 . S05 : 1-# 00 A A0C ... : ... .. . ...
ROW 08 : ... .. . ... ... ... : ... .. . ... ... ... : G#2 00 . ... : 1-# 00 A A0C ... : ... .. . ...
ROW 09 : ... .. . ... ... ... : ... .. . ... ... ... : ... .. . ... : --- .. . ... ... : ... .. . ...
ROW 0A : ... .. . ... ... ... : ... .. . ... ... ... : --- .. . ... : ... .. . ... ... : ... .. . ...
ROW 0B : ... .. . ... ... ... : ... .. . ... ... ... : ... .. . ... : ... .. . ... ... : ... .. . ...
ROW 0C : ... .. . ... ... ... : ... .. . ... ... ... : G#2 00 . ... : 6-# 00 9 A06 ... : ... .. . ...
ROW 0D : ... .. . ... ... ... : ... .. . ... ... ... : --- .. . ... : ... .. . A02 ... : ... .. . ...
ROW 0E : ... .. . ... ... ... : ... .. . ... ... ... : G-3 00 . S05 : ... .. . ... ... : ... .. . ...
ROW 0F : ... .. . ... ... ... : ... .. . ... ... ... : G#2 00 . ... : 1-# 00 A A0C ... : ... .. . ...
ROW 10 : ... .. . ... ... ... : ... .. . ... ... ... : ... .. . ... : --- .. . ... ... : ... .. . ...
ROW 11 : ... .. . ... ... ... : ... .. . ... ... ... : ... .. . ... : ... .. . ... ... : ... .. . ...
ROW 12 : ... .. . ... ... ... : ... .. . ... ... ... : --- .. . ... : ... .. . ... ... : ... .. . ...
ROW 13 : ... .. . ... ... ... : ... .. . ... ... ... : A#2 00 . ... : 1-# 00 A A0C ... : ... .. . ...
ROW 14 : ... .. . ... ... ... : ... .. . ... ... ... : --- .. . ... : 6-# 00 9 A06 ... : ... .. . ...
ROW 15 : ... .. . ... ... ... : ... .. . ... ... ... : A#2 00 . ... : ... .. . A02 ... : ... .. . ...
ROW 16 : ... .. . ... ... ... : ... .. . ... ... ... : --- .. . ... : ... .. . ... ... : ... .. . ...
ROW 17 : ... .. . ... ... ... : ... .. . ... ... ... : A#2 00 . S05 : 1-# 00 A A0C ... : ... .. . ...
ROW 18 : ... .. . ... ... ... : ... .. . ... ... ... : A#2 00 . ... : 1-# 00 A A0C ... : ... .. . ...
ROW 19 : ... .. . ... ... ... : ... .. . ... ... ... : ... .. . ... : ... .. . ... ... : ... .. . ...
ROW 1A : ... .. . ... ... ... : ... .. . ... ... ... : --- .. . ... : 6-# 00 7 A06 ... : ... .. . ...
ROW 1B : ... .. . ... ... ... : ... .. . ... ... ... : ... .. . ... : 6-# 00 8 A06 ... : ... .. . ...
ROW 1C : ... .. . ... ... ... : ... .. . ... ... ... : G-2 00 . ... : 6-# 00 9 A06 ... : ... .. . ...
ROW 1D : ... .. . ... ... ... : ... .. . ... ... ... : --- .. . ... : ... .. . A02 ... : ... .. . ...
ROW 1E : ... .. . ... ... ... : ... .. . ... ... ... : A#2 00 . S05 : ... .. . ... ... : ... .. . ...
ROW 1F : ... .. . ... ... ... : ... .. . ... ... ... : G-2 00 . S05 : ... .. . ... ... : ... .. . ...
ROW 20 : ... .. . ... ... ... : ... .. . ... ... ... : A#2 00 . S06 : 9-# 00 A A05 ... : ... .. . ...
ROW 21 : ... .. . ... ... ... : ... .. . ... ... ... : C-3 00 . ... : ... .. . A02 ... : ... .. . ...
ROW 22 : ... .. . ... ... ... : ... .. . ... ... ... : --- .. . ... : ... .. . A01 ... : ... .. . ...
ROW 23 : ... .. . ... ... ... : ... .. . ... ... ... : C-3 00 . ... : 8-# 00 A A05 ... : ... .. . ...
ROW 24 : ... .. . ... ... ... : ... .. . ... ... ... : ... .. . ... : ... .. . A02 ... : ... .. . ...
ROW 25 : ... .. . ... ... ... : ... .. . ... ... ... : ... .. . ... : ... .. . A01 ... : ... .. . ...
ROW 26 : ... .. . ... ... ... : ... .. . ... ... ... : ... .. . ... : ... .. . ... ... : ... .. . ...
ROW 27 : ... .. . ... ... ... : ... .. . ... ... ... : ... .. . ... : ... .. . ... ... : ... .. . ...
ROW 28 : ... .. . ... ... ... : ... .. . ... ... ... : ... .. . ... : 5-# 00 A A0C ... : ... .. . ...
ROW 29 : ... .. . ... ... ... : ... .. . ... ... ... : ... .. . S05 : 5-# 00 A A0C ... : ... .. . ...
ROW 2A : ... .. . ... ... ... : ... .. . ... ... ... : C-3 00 . ... : 4-# 00 A A0C ... : ... .. . ...
ROW 2B : ... .. . ... ... ... : ... .. . ... ... ... : ... .. . ... : 4-# 00 A A0C ... : ... .. . ...
ROW 2C : ... .. . ... ... ... : ... .. . ... ... ... : --- .. . ... : 3-# 00 A A0C ... : ... .. . ...
ROW 2D : ... .. . ... ... ... : ... .. . ... ... ... : C-3 00 . ... : 3-# 00 A A0C ... : ... .. . ...
ROW 2E : ... .. . ... ... ... : ... .. . ... ... ... : --- .. . ... : 2-# 00 A A0C ... : ... .. . ...
ROW 2F : ... .. . ... ... ... : ... .. . ... ... ... : C-3 00 . S05 : 2-# 00 A A0C ... : ... .. . ...
ROW 30 : ... .. . ... ... ... : ... .. . ... ... ... : A#2 00 . S06 : 9-# 00 A A05 ... : ... .. . ...
ROW 31 : ... .. . ... ... ... : ... .. . ... ... ... : C-3 00 . ... : ... .. . A02 ... : ... .. . ...
ROW 32 : ... .. . ... ... ... : ... .. . ... ... ... : --- .. . ... : ... .. . A01 ... : ... .. . ...
ROW 33 : ... .. . ... ... ... : ... .. . ... ... ... : C-3 00 . ... : 8-# 00 A A05 ... : ... .. . ...
ROW 34 : ... .. . ... ... ... : ... .. . ... ... ... : ... .. . ... : ... .. . A02 ... : ... .. . ...
ROW 35 : ... .. . ... ... ... : ... .. . ... ... ... : ... .. . ... : ... .. . A01 ... : ... .. . ...
ROW 36 : ... .. . ... ... ... : ... .. . ... ... ... : ... .. . ... : 9-# 00 A A05 ... : ... .. . ...
ROW 37 : ... .. . ... ... ... : ... .. . ... ... ... : ... .. . ... : ... .. . A02 ... : ... .. . ...
ROW 38 : ... .. . ... ... ... : ... .. . ... ... ... : --- .. . ... : ... .. . A01 ... : ... .. . ...
ROW 39 : ... .. . ... ... ... : ... .. . ... ... ... : G-2 00 . S05 : 1-# 00 A A0C ... : ... .. . ...
ROW 3A : ... .. . ... ... ... : ... .. . ... ... ... : A#2 00 . S05 : 1-# 00 A A0C ... : ... .. . ...
ROW 3B : ... .. . ... ... ... : ... .. . ... ... ... : C-3 00 . S05 : ... .. . ... ... : ... .. . ...
ROW 3C : ... .. . ... ... ... : ... .. . ... ... ... : D-3 00 . S06 : 1-# 00 A A0C ... : ... .. . ...
ROW 3D : ... .. . ... ... ... : ... .. . ... ... ... : D#3 00 . S05 : ... .. . ... ... : ... .. . ...
ROW 3E : ... .. . ... ... ... : ... .. . ... ... ... : D-3 00 . S05 : 4-# 00 A A0C ... : ... .. . ...
ROW 3F : ... .. . ... ... ... : ... .. . ... ... ... : A#2 00 . S05 : 2-# 00 A A0C ... : ... .. . ...

PATTERN 09
ROW 00 : ... .. . ... ... ... : ... .. . ... ... ... : ... .. . ... : 8-# 00 A A05 ... : ... .. . ...
ROW 01 : ... .. . ... ... ... : ... .. . ... ... ... : ... .. . ... : ... .. . A02 ... : ... .. . ...
ROW 02 : ... .. . ... ... ... : ... .. . ... ... ... : ... .. . ... : ... .. . A01 ... : ... .. . ...
ROW 03 : ... .. . ... ... ... : ... .. . ... ... ... : ... .. . ... : ... .. . ... ... : ... .. . ...
ROW 04 : ... .. . ... ... ... : ... .. . ... ... ... : ... .. . ... : 6-# 00 9 A06 ... : ... .. . ...
ROW 05 : ... .. . ... ... ... : ... .. . ... ... ... : ... .. . ... : ... .. . A02 ... : ... .. . ...
ROW 06 : ... .. . ... ... ... : ... .. . ... ... ... : ... .. . ... : ... .. . ... ... : ... .. . ...
ROW 07 : ... .. . ... ... ... : ... .. . ... ... ... : ... .. . ... : 1-# 00 A A0C ... : ... .. . ...
ROW 08 : ... .. . ... ... ... : ... .. . ... ... ... : ... .. . ... : --- .. . ... ... : ... .. . ...
ROW 09 : ... .. . ... ... ... : ... .. . ... ... ... : ... .. . ... : ... .. . ... ... : ... .. . ...
ROW 0A : ... .. . ... ... ... : ... .. . ... ... ... : ... .. . ... : 1-# 00 A A0C ... : ... .. . ...
ROW 0B : ... .. . ... ... ... : ... .. . ... ... ... : ... .. . ... : 1-# 00 A A0C ... : ... .. . ...
ROW 0C : ... .. . ... ... ... : ... .. . ... ... ... : ... .. . ... : 6-# 00 9 A06 ... : ... .. . ...
ROW 0D : ... .. . ... ... ... : ... .. . ... ... ... : ... .. . ... : ... .. . A02 ... : ... .. . ...
ROW 0E : ... .. . ... ... ... : ... .. . ... ... ... : ... .. . ... : ... .. . ... ... : ... .. . ...
ROW 0F : ... .. . ... ... ... : ... .. . ... ... ... : ... .. . ... : ... .. . ... ... : ... .. . ...
ROW 10 : ... .. . ... ... ... : ... .. . ... ... ... : ... .. . ... : 9-# 00 A A05 ... : ... .. . ...
ROW 11 : ... .. . ... ... ... : ... .. . ... ... ... : ... .. . ... : ... .. . A02 ... : ... .. . ...
ROW 12 : ... .. . ... ... ... : ... .. . ... ... ... : ... .. . ... : ... .. . A01 ... : ... .. . ...
ROW 13 : ... .. . ... ... ... : ... .. . ... ... ... : ... .. . ... : ... .. . ... ... : ... .. . ...
ROW 14 : ... .. . ... ... ... : ... .. . ... ... ... : ... .. . ... : 6-# 00 9 A06 ... : ... .. . ...
ROW 15 : ... .. . ... ... ... : ... .. . ... ... ... : ... .. . ... : ... .. . A02 ... : ... .. . ...
ROW 16 : ... .. . ... ... ... : ... .. . ... ... ... : ... .. . ... : ... .. . ... ... : ... .. . ...
ROW 17 : ... .. . ... ... ... : ... .. . ... ... ... : ... .. . ... : 1-# 00 A A0C ... : ... .. . ...
ROW 18 : ... .. . ... ... ... : ... .. . ... ... ... : ... .. . ... : --- .. . ... ... : ... .. . ...
ROW 19 : ... .. . ... ... ... : ... .. . ... ... ... : ... .. . ... : ... .. . ... ... : ... .. . ...
ROW 1A : ... .. . ... ... ... : ... .. . ... ... ... : ... .. . ... : 1-# 00 A A0C ... : ... .. . ...
ROW 1B : ... .. . ... ... ... : ... .. . ... ... ... : ... .. . ... : 1-# 00 A A0C ... : ... .. . ...
ROW 1C : ... .. . ... ... ... : ... .. . ... ... ... : ... .. . ... : 6-# 00 9 A06 ... : ... .. . ...
ROW 1D : ... .. . ... ... ... : ... .. . ... ... ... : ... .. . ... : ... .. . A02 ... : ... .. . ...
ROW 1E : ... .. . ... ... ... : ... .. . ... ... ... : ... .. . ... : ... .. . ... ... : ... .. . ...
ROW 1F : ... .. . ... ... ... : ... .. . ... ... ... : ... .. . ... : ... .. . ... ... : ... .. . ...
ROW 20 : ... .. . ... ... ... : ... .. . ... ... ... : ... .. . ... : 1-# 00 A A0C ... : ... .. . ...
ROW 21 : ... .. . ... ... ... : ... .. . ... ... ... : ... .. . ... : 1-# 00 A A0C ... : ... .. . ...
ROW 22 : ... .. . ... ... ... : ... .. . ... ... ... : ... .. . ... : --- .. . ... ... : ... .. . ...
ROW 23 : ... .. . ... ... ... : ... .. . ... ... ... : ... .. . ... : ... .. . ... ... : ... .. . ...
ROW 24 : ... .. . ... ... ... : ... .. . ... ... ... : ... .. . ... : 6-# 00 9 A06 ... : ... .. . ...
ROW 25 : ... .. . ... ... ... : ... .. . ... ... ... : ... .. . ... : ... .. . A02 ... : ... .. . ...
ROW 26 : ... .. . ... ... ... : ... .. . ... ... ... : ... .. . ... : ... .. . ... ... : ... .. . ...
ROW 27 : ... .. . ... ... ... : ... .. . ... ... ... : ... .. . ... : 1-# 00 A A0C ... : ... .. . ...
ROW 28 : ... .. . ... ... ... : ... .. . ... ... ... : ... .. . ... : --- .. . ... ... : ... .. . ...
ROW 29 : ... .. . ... ... ... : ... .. . ... ... ... : ... .. . ... : 4-# 00 A A0C ... : ... .. . ...
ROW 2A : ... .. . ... ... ... : ... .. . ... ... ... : ... .. . ... : 3-# 00 A A0C ... : ... .. . ...
ROW 2B : ... .. . ... ... ... : ... .. . ... ... ... : ... .. . ... : ... .. . ... ... : ... .. . ...
ROW 2C : ... .. . ... ... ... : ... .. . ... ... ... : ... .. . ... : 3-# 00 A A0C ... : ... .. . ...
ROW 2D : ... .. . ... ... ... : ... .. . ... ... ... : ... .. . ... : 2-# 00 A A0C ... : ... .. . ...
ROW 2E : ... .. . ... ... ... : ... .. . ... ... ... : ... .. . ... : ... .. . ... ... : ... .. . ...
ROW 2F : ... .. . ... ... ... : ... .. . ... ... ... : ... .. . ... : 2-# 00 A A0C B01 : ... .. . ...
ROW 30 : ... .. . ... ... ... : ... .. . ... ... ... : ... .. . ... : ... .. . ... ... : ... .. . ...
ROW 31 : ... .. . ... ... ... : ... .. . ... ... ... : ... .. . ... : ... .. . ... ... : ... .. . ...
ROW 32 : ... .. . ... ... ... : ... .. . ... ... ... : ... .. . ... : ... .. . ... ... : ... .. . ...
ROW 33 : ... .. . ... ... ... : ... .. . ... ... ... : ... .. . ... : ... .. . ... ... : ... .. . ...
ROW 34 : ... .. . ... ... ... : ... .. . ... ... ... : ... .. . ... : ... .. . ... ... : ... .. . ...
ROW 35 : ... .. . ... ... ... : ... .. . ... ... ... : ... .. . ... : ... .. . ... ... : ... .. . ...
ROW 36 : ... .. . ... ... ... : ... .. . ... ... ... : ... .. . ... : ... .. . ... ... : ... .. . ...
ROW 37 : ... .. . ... ... ... : ... .. . ... ... ... : ... .. . ... : ... .. . ... ... : ... .. . ...
ROW 38 : ... .. . ... ... ... : ... .. . ... ... ... : ... .. . ... : ... .. . ... ... : ... .. . ...
ROW 39 : ... .. . ... ... ... : ... .. . ... ... ... : ... .. . ... : ... .. . ... ... : ... .. . ...
ROW 3A : ... .. . ... ... ... : ... .. . ... ... ... : ... .. . ... : ... .. . ... ... : ... .. . ...
ROW 3B : ... .. . ... ... ... : ... .. . ... ... ... : ... .. . ... : ... .. . ... ... : ... .. . ...
ROW 3C : ... .. . ... ... ... : ... .. . ... ... ... : ... .. . ... : ... .. . ... ... : ... .. . ...
ROW 3D : ... .. . ... ... ... : ... .. . ... ... ... : ... .. . ... : ... .. . ... ... : ... .. . ...
ROW 3E : ... .. . ... ... ... : ... .. . ... ... ... : ... .. . ... : ... .. . ... ... : ... .. . ...
ROW 3F : ... .. . ... ... ... : ... .. . ... ... ... : ... .. . ... : ... .. . ... ... : ... .. . ...

TRACK  64   5 150 "Ken"
COLUMNS : 3 3 1 1 1

ORDER 00 : 00 00 00 00 00
ORDER 01 : 01 01 01 01 00
ORDER 02 : 02 02 02 02 00
ORDER 03 : 03 03 03 03 00
ORDER 04 : 02 02 02 04 00
ORDER 05 : 04 05 04 05 00
ORDER 06 : 05 04 05 06 00
ORDER 07 : 0B 06 06 07 00
ORDER 08 : 05 07 07 08 00
ORDER 09 : 06 08 08 09 00
ORDER 0A : 07 09 02 02 00
ORDER 0B : 08 0A 03 03 00
ORDER 0C : 09 0B 09 04 00
ORDER 0D : 0A 0C 0A 0A 00

PATTERN 00
ROW 00 : D#3 00 5 Q32 V01 400 : A#2 00 5 Q42 V01 400 : F-2 00 . ... : 9-# 00 A A06 : ... .. . F04
ROW 01 : ... .. 6 ... ... A00 : ... .. 6 ... ... A00 : ... .. . ... : ... .. . A03 : ... .. . F05
ROW 02 : ... .. . ... ... ... : ... .. . ... ... ... : ... .. . ... : ... .. . A02 : ... .. . ...
ROW 03 : ... .. 5 ... ... ... : ... .. . ... ... ... : ... .. . ... : ... .. . A01 : ... .. . ...
ROW 04 : ... .. . ... 471 ... : ... .. 5 ... ... ... : ... .. . 462 : ... .. . ... : ... .. . ...
ROW 05 : ... .. 4 ... ... ... : ... .. . ... ... ... : ... .. . ... : ... .. . ... : ... .. . ...
ROW 06 : ... .. . ... ... ... : ... .. . ... 471 ... : ... .. . ... : ... .. . ... : ... .. . ...
ROW 07 : ... .. . ... ... ... : ... .. 4 ... ... ... : ... .. . ... : ... .. . ... : ... .. . ...
ROW 08 : ... .. . ... 472 ... : ... .. . ... ... ... : ... .. . ... : 1-# 00 A A0C : ... .. . F04
ROW 09 : ... .. . ... ... ... : ... .. . ... ... ... : ... .. . ... : --- .. . ... : ... .. . F05
ROW 0A : ... .. 3 ... ... ... : ... .. . ... 472 ... : ... .. . ... : ... .. . ... : ... .. . ...
ROW 0B : ... .. . ... ... ... : ... .. . ... ... ... : ... .. . ... : ... .. . ... : ... .. . ...
ROW 0C : ... .. . ... ... ... : ... .. 3 ... ... ... : ... .. . ... : ... .. . ... : ... .. . ...
ROW 0D : ... .. . ... ... ... : ... .. . ... ... ... : ... .. . ... : ... .. . ... : ... .. . ...
ROW 0E : ... .. . ... ... ... : ... .. . ... ... ... : ... .. . ... : ... .. . ... : ... .. . ...
ROW 0F : ... .. . ... ... ... : ... .. . ... ... ... : ... .. . ... : ... .. . ... : ... .. . ...
ROW 10 : ... .. . ... ... ... : ... .. . ... ... ... : ... .. . ... : 1-# 00 A A0C : ... .. . F04
ROW 11 : ... .. . ... ... ... : ... .. . ... ... ... : ... .. . ... : --- .. . ... : ... .. . F05
ROW 12 : ... .. . ... ... ... : ... .. 2 ... ... ... : ... .. . ... : ... .. . ... : ... .. . ...
ROW 13 : ... .. 2 ... ... ... : ... .. . ... ... ... : ... .. . ... : ... .. . ... : ... .. . ...
ROW 14 : --- .. . 400 A01 ... : --- .. . ... 400 A01 : ... .. . ... : ... .. . ... : ... .. . ...
ROW 15 : ... .. . ... ... ... : ... .. . ... ... ... : ... .. . S02 : ... .. . ... : ... .. . ...
ROW 16 : C-3 00 6 ... S09 ... : G#2 00 6 S09 ... ... : F-2 00 . 400 : 4-# 00 A A0C : ... .. . ...
ROW 17 : D#3 00 6 G05 ... ... : A#2 00 6 G05 ... ... : ... .. . S02 : --- .. . ... : ... .. . ...
ROW 18 : F-3 00 5 G03 ... ... : C-3 00 5 G03 ... ... : F-3 00 . ... : 4-# 00 9 A0C : ... .. . F04
ROW 19 : ... .. . S04 ... ... : ... .. . S04 ... ... : ... .. . S02 : --- .. . ... : ... .. . F05
ROW 1A : D#3 00 6 ... ... ... : C-3 00 6 ... ... ... : D#3 00 . ... : 3-# 00 9 A0C : ... .. . ...
ROW 1B : ... .. . ... ... ... : ... .. . ... ... ... : ... .. . S02 : 3-# 00 9 A0C : ... .. . ...
ROW 1C : --- .. . ... ... ... : --- .. . ... ... ... : ... .. . ... : 4-# 00 9 A0C : ... .. . ...
ROW 1D : D#3 00 2 ... ... ... : C-3 00 2 ... ... ... : ... .. . ... : --- .. . ... : ... .. . ...
ROW 1E : D#3 00 6 ... ... ... : G#2 00 6 ... ... ... : D#3 00 . ... : 2-# 00 9 A0C : ... .. . ...
ROW 1F : ... .. . ... ... ... : ... .. . ... ... ... : ... .. . ... : --- .. . ... : ... .. . ...
ROW 20 : ... .. . ... ... ... : ... .. . ... ... ... : ... .. . ... : 1-# 00 A A0C : ... .. . F04
ROW 21 : ... .. . S04 ... ... : ... .. . ... S04 ... : ... .. . S02 : --- .. . ... : ... .. . F05
ROW 22 : C#3 00 6 ... ... ... : G#2 00 6 ... ... ... : C#3 00 . ... : ... .. . ... : ... .. . ...
ROW 23 : ... .. . ... ... ... : ... .. . ... ... ... : ... .. . ... : ... .. . ... : ... .. . ...
ROW 24 : --- .. . ... ... ... : --- .. . ... ... ... : --- .. . ... : ... .. . ... : ... .. . ...
ROW 25 : C#3 00 2 ... ... ... : G#2 00 2 ... ... ... : ... .. . ... : ... .. . ... : ... .. . ...
ROW 26 : C#3 00 6 V01 A00 ... : G#2 00 6 V01 ... A00 : C#3 00 . ... : ... .. . ... : ... .. . ...
ROW 27 : ... .. . ... ... ... : ... .. . ... ... ... : ... .. . ... : ... .. . ... : ... .. . ...
ROW 28 : ... .. 5 ... ... ... : ... .. . ... ... ... : ... .. . 461 : 1-# 00 A A0C : ... .. . F04
ROW 29 : ... .. . ... ... ... : ... .. 5 ... ... ... : ... .. . ... : --- .. . ... : ... .. . F05
ROW 2A : ... .. 4 ... 471 ... : ... .. . ... ... ... : ... .. . ... : ... .. . ... : ... .. . ...
ROW 2B : ... .. . ... ... ... : ... .. 4 ... ... ... : ... .. . ... : ... .. . ... : ... .. . ...
ROW 2C : ... .. . ... ... ... : ... .. . ... 472 ... : ... .. . ... : ... .. . ... : ... .. . ...
ROW 2D : ... .. 3 ... ... ... : ... .. . ... ... ... : ... .. . ... : ... .. . ... : ... .. . ...
ROW 2E : ... .. . ... 472 ... : ... .. . ... ... ... : ... .. . ... : ... .. . ... : ... .. . ...
ROW 2F : ... .. . ... ... ... : ... .. 3 ... ... ... : ... .. . ... : ... .. . ... : ... .. . ...
ROW 30 : ... .. . ... ... ... : ... .. . ... 473 ... : ... .. . ... : 1-# 00 A A0C : ... .. . F04
ROW 31 : ... .. . ... ... ... : ... .. . ... ... ... : ... .. . ... : --- .. . ... : ... .. . F05
ROW 32 : ... .. . ... ... ... : ... .. . ... ... ... : ... .. . ... : ... .. . ... : ... .. . ...
ROW 33 : ... .. . ... ... ... : ... .. . ... ... ... : ... .. . ... : ... .. . ... : ... .. . ...
ROW 34 : ... .. . ... ... ... : ... .. . ... ... ... : ... .. . ... : ... .. . ... : ... .. . ...
ROW 35 : ... .. . ... ... ... : ... .. . ... ... ... : ... .. . ... : ... .. . ... : ... .. . ...
ROW 36 : ... .. 2 ... ... ... : ... .. . ... ... ... : ... .. . ... : 6-# 00 8 A07 : ... .. . ...
ROW 37 : ... .. . ... ... ... : ... .. . ... ... ... : ... .. . ... : ... .. . A02 : ... .. . ...
ROW 38 : --- .. . ... 400 ... : --- .. 2 ... 400 ... : ... .. . ... : 6-# 00 8 A07 : ... .. . F04
ROW 39 : ... .. . ... ... ... : ... .. . ... ... ... : ... .. . S02 : ... .. . A02 : ... .. . F05
ROW 3A : C#3 00 5 ... ... ... : G#2 00 6 ... ... ... : C#3 00 . 400 : 1-# 00 A A0C : ... .. . ...
ROW 3B : ... .. . S04 ... ... : ... .. . ... ... ... : ... .. . S02 : --- .. . ... : ... .. . ...
ROW 3C : D#3 00 5 ... ... ... : A#2 00 5 ... ... ... : C-3 00 . ... : 1-# 00 A A0C : ... .. . ...
ROW 3D : ... .. . S04 ... ... : ... .. . ... ... ... : ... .. . S02 : --- .. . ... : ... .. . ...
ROW 3E : F-3 00 6 ... ... ... : C#3 00 6 ... ... ... : A#2 00 . ... : 1-# 00 A A0C : ... .. . ...
ROW 3F : ... .. . ... ... ... : ... .. . ... ... ... : ... .. . ... : --- .. . ... : ... .. . ...

PATTERN 01
ROW 00 : ... .. . V01 A01 ... : ... .. . V01 A01 ... : ... .. . ... : 1-# 00 A A0C : ... .. . ...
ROW 01 : ... .. . ... ... ... : ... .. . ... ... ... : ... .. . S02 : --- .. . ... : ... .. . ...
ROW 02 : --- .. . ... ... ... : --- .. . ... ... ... : A#2 00 . ... : B-# 00 4 A0A : ... .. . ...
ROW 03 : ... .. . ... ... ... : ... .. . ... ... ... : ... .. . S02 : ... .. . ... : ... .. . ...
ROW 04 : F-3 00 5 ... ... ... : C#3 00 6 ... ... ... : A#2 00 . ... : 6-# 00 8 A07 : ... .. . ...
ROW 05 : ... .. . ... ... ... : ... .. . ... ... ... : ... .. . S02 : ... .. . A02 : ... .. . ...
ROW 06 : --- .. . ... ... ... : --- .. . ... ... ... : A#2 00 . ... : B-# 00 4 A0A : ... .. . ...
ROW 07 : F-3 00 2 ... ... ... : C#3 00 2 ... ... ... : ... .. . S02 : ... .. . ... : ... .. . ...
ROW 08 : ... .. . ... ... ... : ... .. . ... ... ... : A#2 00 . ... : 1-# 00 A A0C : ... .. . ...
ROW 09 : --- .. . ... ... ... : --- .. . ... ... ... : ... .. . S02 : --- .. . ... : ... .. . ...
ROW 0A : F-3 00 5 ... ... ... : C#3 00 6 ... ... ... : A#2 00 . ... : 1-# 00 A A0C : ... .. . ...
ROW 0B : ... .. . ... ... ... : ... .. . ... ... ... : ... .. . S02 : --- .. . ... : ... .. . ...
ROW 0C : ... .. . ... ... ... : ... .. . ... ... ... : A#2 00 . ... : 6-# 00 8 A07 : ... .. . ...
ROW 0D : ... .. . ... ... ... : ... .. . ... ... ... : ... .. . S02 : ... .. . A02 : ... .. . ...
ROW 0E : --- .. . ... ... ... : --- .. . ... ... ... : A#2 00 . ... : B-# 00 4 A0A : ... .. . ...
ROW 0F : ... .. . ... ... ... : ... .. . ... ... ... : ... .. . S02 : ... .. . ... : ... .. . ...
ROW 10 : F-3 00 5 ... ... ... : C#3 00 6 ... ... ... : A#2 00 . ... : 1-# 00 A A0C : ... .. . ...
ROW 11 : ... .. . ... ... ... : ... .. . ... ... ... : ... .. . S02 : --- .. . ... : ... .. . ...
ROW 12 : --- .. . ... ... ... : --- .. . ... ... ... : A#2 00 . ... : B-# 00 4 A0A : ... .. . ...
ROW 13 : F-3 00 2 ... ... ... : C#3 00 2 ... ... ... : ... .. . S02 : ... .. . ... : ... .. . ...
ROW 14 : ... .. . ... ... ... : ... .. . ... ... ... : A#2 00 . ... : 6-# 00 8 A07 : ... .. . ...
ROW 15 : --- .. . ... ... ... : --- .. . ... ... ... : ... .. . S02 : ... .. . A02 : ... .. . ...
ROW 16 : F-3 00 5 ... ... ... : C#3 00 6 ... ... ... : A#2 00 . ... : B-# 00 4 A0A : ... .. . ...
ROW 17 : ... .. . ... ... ... : ... .. . ... ... ... : ... .. . S02 : ... .. . ... : ... .. . ...
ROW 18 : ... .. . ... ... ... : ... .. . ... ... ... : A#2 00 . ... : 1-# 00 A A0C : ... .. . ...
ROW 19 : ... .. . ... ... ... : ... .. . ... ... ... : ... .. . S02 : --- .. . ... : ... .. . ...
ROW 1A : --- .. . ... ... ... : --- .. . ... ... ... : A#2 00 . ... : 1-# 00 A A0C : ... .. . ...
ROW 1B : ... .. . ... ... ... : ... .. . ... ... ... : ... .. . S02 : --- .. . ... : ... .. . ...
ROW 1C : F-3 00 5 ... ... ... : C#3 00 6 ... ... ... : A#2 00 . ... : 6-# 00 8 A07 : ... .. . ...
ROW 1D : ... .. . ... S04 ... : ... .. . ... S04 ... : ... .. . S02 : ... .. . A02 : ... .. . ...
ROW 1E : G-3 00 6 ... ... ... : E-3 00 6 ... ... ... : C-3 00 . ... : 1-# 00 A A0C : ... .. . ...
ROW 1F : ... .. . ... ... ... : ... .. . ... ... ... : ... .. . ... : --- .. . ... : ... .. . ...
ROW 20 : ... .. . ... 471 ... : ... .. . 471 ... ... : ... .. . ... : 1-# 00 A A0C : ... .. . ...
ROW 21 : ... .. . ... ... ... : ... .. . ... ... ... : ... .. . S02 : --- .. . ... : ... .. . ...
ROW 22 : --- .. . ... ... ... : --- .. . ... ... ... : C-3 00 . ... : B-# 00 4 A0A : ... .. . ...
ROW 23 : ... .. . ... ... ... : ... .. . ... ... ... : ... .. . S02 : ... .. . ... : ... .. . ...
ROW 24 : G-3 00 6 ... 400 ... : E-3 00 6 400 ... ... : C-3 00 . ... : 6-# 00 8 A07 : ... .. . ...
ROW 25 : ... .. . ... ... ... : ... .. . ... ... ... : ... .. . S02 : ... .. . A02 : ... .. . ...
ROW 26 : --- .. . ... ... ... : --- .. . ... ... ... : C-3 00 . ... : B-# 00 4 A0A : ... .. . ...
ROW 27 : G-3 00 2 ... ... ... : E-3 00 2 ... ... ... : ... .. . S02 : ... .. . ... : ... .. . ...
ROW 28 : ... .. . ... ... ... : ... .. . ... ... ... : C-3 00 . ... : 1-# 00 A A0C : ... .. . ...
ROW 29 : --- .. . ... ... ... : --- .. . ... ... ... : ... .. . S02 : --- .. . ... : ... .. . ...
ROW 2A : G-3 00 6 ... ... ... : E-3 00 6 ... ... ... : C-3 00 . ... : 1-# 00 A A0C : ... .. . ...
ROW 2B : ... .. . ... ... ... : ... .. . ... ... ... : ... .. . S02 : --- .. . ... : ... .. . ...
ROW 2C : ... .. . ... ... ... : ... .. . ... ... ... : C-3 00 . ... : 6-# 00 8 A07 : ... .. . ...
ROW 2D : ... .. . ... ... ... : ... .. . ... ... ... : ... .. . S02 : ... .. . A02 : ... .. . ...
ROW 2E : --- .. . ... ... ... : --- .. . ... ... ... : C-3 00 . ... : B-# 00 4 A0A : ... .. . ...
ROW 2F : ... .. . ... ... ... : ... .. . ... ... ... : ... .. . S02 : ... .. . ... : ... .. . ...
ROW 30 : G-3 00 6 ... ... ... : E-3 00 6 ... ... ... : C-3 00 . ... : 6-# 00 8 A07 : ... .. . ...
ROW 31 : ... .. . ... ... ... : ... .. . ... ... ... : ... .. . S02 : ... .. . A02 : ... .. . ...
ROW 32 : --- .. . ... ... ... : --- .. . ... ... ... : C-3 00 . ... : 1-# 00 A A0C : ... .. . ...
ROW 33 : G-3 00 2 ... ... ... : E-3 00 2 ... ... ... : ... .. . S02 : 6-# 00 8 A07 : ... .. . ...
ROW 34 : ... .. . ... ... ... : ... .. . ... ... ... : C-3 00 . ... : 6-# 00 8 A07 : ... .. . ...
ROW 35 : --- .. . ... ... ... : --- .. . ... ... ... : ... .. . S02 : ... .. . A02 : ... .. . ...
ROW 36 : G-3 00 6 ... ... ... : E-3 00 6 ... ... ... : C-3 00 . ... : 6-# 00 8 A07 : ... .. . ...
ROW 37 : ... .. . ... ... ... : ... .. . ... ... ... : ... .. . S02 : ... .. . A02 : ... .. . ...
ROW 38 : ... .. . ... ... ... : ... .. . ... ... ... : C-3 00 . ... : 1-# 00 A A0C : ... .. . ...
ROW 39 : ... .. . ... ... ... : ... .. . ... ... ... : ... .. . S02 : 6-# 00 8 A07 : ... .. . ...
ROW 3A : --- .. . ... ... ... : --- .. . ... ... ... : C-3 00 . ... : 1-# 00 A A0C : ... .. . ...
ROW 3B : ... .. . ... ... ... : ... .. . ... ... ... : ... .. . S02 : --- .. . ... : ... .. . ...
ROW 3C : G-3 00 6 ... ... ... : E-3 00 6 ... ... ... : C-3 00 . ... : 6-# 00 8 A07 : ... .. . ...
ROW 3D : ... .. . S04 ... ... : ... .. . S04 ... ... : ... .. . S02 : ... .. . A02 : ... .. . ...
ROW 3E : A#3 00 6 ... ... ... : F-3 00 6 ... ... ... : F-3 00 . ... : 9-# 00 A A06 : ... .. . ...
ROW 3F : ... .. . ... ... ... : ... .. . ... ... ... : ... .. . ... : ... .. . A03 : ... .. . ...

PATTERN 02
ROW 00 : ... .. . ... 471 A00 : ... .. . ... 471 A00 : ... .. . A01 : ... .. . A02 : ... .. . ...
ROW 01 : ... .. . ... ... A01 : ... .. . ... ... A01 : ... .. . S02 : ... .. . ... : ... .. . ...
ROW 02 : ... .. . ... ... A00 : ... .. . ... ... A00 : F-3 00 . ... : 1-# 00 A A0C : ... .. . ...
ROW 03 : ... .. . ... ... A01 : ... .. . ... ... A01 : ... .. . S02 : --- .. . ... : ... .. . ...
ROW 04 : C-3 00 8 V01 A01 400 : G#3 00 7 V01 400 ... : F-3 00 . ... : 6-# 00 8 A07 : ... .. . ...
ROW 05 : ... .. . ... ... ... : ... .. . ... ... ... : ... .. . S02 : ... .. . A02 : ... .. . ...
ROW 06 : ... .. . ... ... ... : --- .. . ... ... ... : F-3 00 . ... : B-# 00 4 A0A : ... .. . ...
ROW 07 : ... .. . ... S04 ... : C-3 00 3 ... ... ... : ... .. . S02 : ... .. . ... : ... .. . ...
ROW 08 : F-3 00 8 ... ... ... : ... .. . ... ... ... : F-3 00 . ... : 1-# 00 A A0C : ... .. . ...
ROW 09 : ... .. . ... ... ... : ... .. . ... ... ... : ... .. . S02 : --- .. . ... : ... .. . ...
ROW 0A : ... .. . ... S09 ... : A#3 00 7 ... ... ... : F-3 00 . ... : 1-# 00 A A0C : ... .. . ...
ROW 0B : G#3 00 8 G05 ... ... : ... .. . ... S04 ... : ... .. . S02 : --- .. . ... : ... .. . ...
ROW 0C : A#3 00 7 G03 ... ... : F-3 00 5 ... ... ... : F-3 00 . ... : 6-# 00 8 A07 : ... .. . ...
ROW 0D : ... .. . ... S04 ... : ... .. . ... S04 ... : ... .. . S02 : ... .. . A02 : ... .. . ...
ROW 0E : G#3 00 8 ... ... ... : F-3 00 5 ... ... ... : F-3 00 . ... : B-# 00 4 A0A : ... .. . ...
ROW 0F : ... .. . ... ... ... : ... .. . ... ... ... : ... .. . S02 : ... .. . ... : ... .. . ...
ROW 10 : ... .. . ... ... ... : --- .. . ... ... ... : F-3 00 . ... : 1-# 00 A A0C : ... .. . ...
ROW 11 : ... .. . ... S04 ... : G#3 00 3 ... ... ... : ... .. . S02 : --- .. . ... : ... .. . ...
ROW 12 : G-3 00 8 ... ... ... : G#2 00 7 ... ... ... : F-3 00 . ... : B-# 00 4 A0A : ... .. . ...
ROW 13 : ... .. . ... S04 ... : ... .. . ... ... ... : ... .. . S02 : ... .. . ... : ... .. . ...
ROW 14 : F-3 00 8 ... ... ... : --- .. . ... ... ... : F-3 00 . ... : 6-# 00 8 A07 : ... .. . ...
ROW 15 : ... .. . ... ... ... : G-3 00 3 ... ... ... : ... .. . S02 : ... .. . A02 : ... .. . ...
ROW 16 : ... .. . 484 ... ... : ... .. . ... S04 ... : F-2 00 . ... : B-# 00 4 A0A : ... .. . ...
ROW 17 : ... .. . ... ... ... : F-3 00 3 ... ... ... : ... .. . S02 : ... .. . ... : ... .. . ...
ROW 18 : ... .. . ... ... ... : G#2 00 7 ... ... ... : F-3 00 . ... : 1-# 00 A A0C : ... .. . ...
ROW 19 : ... .. . ... S04 ... : ... .. . ... ... ... : ... .. . S04 : --- .. . ... : ... .. . ...
ROW 1A : D#3 00 9 400 ... ... : C-3 00 8 ... ... ... : D#3 00 . ... : 1-# 00 A A0C : ... .. . ...
ROW 1B : ... .. . ... ... ... : ... .. . ... ... ... : ... .. . S00 : --- .. . ... : ... .. . ...
ROW 1C : --- .. . ... ... ... : --- .. . ... ... ... : ... .. . ... : 6-# 00 8 A07 : ... .. . ...
ROW 1D : D#3 00 3 400 ... ... : C-3 00 3 ... ... ... : ... .. . ... : ... .. . A02 : ... .. . ...
ROW 1E : F-3 00 9 ... ... ... : C-3 00 8 ... ... ... : C#3 00 . ... : 1-# 00 A A0C : ... .. . ...
ROW 1F : ... .. . ... ... ... : ... .. . ... ... ... : ... .. . ... : --- .. . ... : ... .. . ...
ROW 20 : --- .. . ... ... ... : A#3 00 5 ... 471 A00 : ... .. . ... : 1-# 00 A A0C : ... .. . ...
ROW 21 : F-3 00 2 400 ... ... : ... .. . ... ... A01 : ... .. . S02 : --- .. . ... : ... .. . ...
ROW 22 : ... .. . ... ... ... : ... .. . ... ... A00 : C#3 00 . ... : B-# 00 4 A0A : ... .. . ...
ROW 23 : --- .. . ... ... ... : ... .. . ... ... A01 : ... .. . S02 : ... .. . ... : ... .. . ...
ROW 24 : C-3 00 8 ... ... ... : G#3 00 7 ... 400 ... : C#3 00 . ... : 6-# 00 8 A07 : ... .. . ...
ROW 25 : ... .. . ... ... ... : ... .. . ... ... ... : ... .. . S02 : ... .. . A02 : ... .. . ...
ROW 26 : ... .. . ... ... ... : --- .. . ... ... ... : C#3 00 . ... : B-# 00 4 A0A : ... .. . ...
ROW 27 : ... .. . ... S04 ... : C-3 00 3 ... ... ... : ... .. . S02 : ... .. . ... : ... .. . ...
ROW 28 : F-3 00 8 ... ... ... : ... .. . ... ... ... : C#3 00 . ... : 1-# 00 A A0C : ... .. . ...
ROW 29 : ... .. . ... ... ... : ... .. . ... ... ... : ... .. . S02 : --- .. . ... : ... .. . ...
ROW 2A : ... .. . ... S09 ... : A#3 00 7 ... ... ... : C#3 00 . ... : 1-# 00 A A0C : ... .. . ...
ROW 2B : G#3 00 8 G05 ... ... : ... .. . ... S04 ... : ... .. . S02 : --- .. . ... : ... .. . ...
ROW 2C : A#3 00 7 G03 ... ... : F-3 00 5 ... ... ... : C#3 00 . ... : 6-# 00 8 A07 : ... .. . ...
ROW 2D : ... .. . ... S04 ... : ... .. . ... S04 ... : ... .. . S02 : ... .. . A02 : ... .. . ...
ROW 2E : G#3 00 8 ... ... ... : F-3 00 5 ... ... ... : C#3 00 . ... : B-# 00 4 A0A : ... .. . ...
ROW 2F : ... .. . ... ... ... : ... .. . ... ... ... : ... .. . S02 : ... .. . ... : ... .. . ...
ROW 30 : ... .. . ... ... ... : --- .. . ... ... ... : C#3 00 . ... : 1-# 00 A A0C : ... .. . ...
ROW 31 : ... .. . ... S04 ... : G#3 00 3 ... ... ... : ... .. . S02 : --- .. . ... : ... .. . ...
ROW 32 : G-3 00 8 ... ... ... : G#2 00 7 ... ... ... : C#3 00 . ... : B-# 00 4 A0A : ... .. . ...
ROW 33 : ... .. . ... S04 ... : ... .. . ... ... ... : ... .. . S02 : ... .. . ... : ... .. . ...
ROW 34 : F-3 00 8 ... ... ... : --- .. . ... ... ... : C#3 00 . ... : 6-# 00 8 A07 : ... .. . ...
ROW 35 : ... .. . ... ... ... : G-3 00 3 ... ... ... : ... .. . S02 : ... .. . A02 : ... .. . ...
ROW 36 : ... .. . 484 ... ... : ... .. . ... S04 ... : C#3 00 . ... : B-# 00 4 A0A : ... .. . ...
ROW 37 : ... .. . ... ... ... : F-3 00 3 ... ... ... : ... .. . S02 : ... .. . ... : ... .. . ...
ROW 38 : ... .. . ... ... ... : G#2 00 7 ... ... ... : C#3 00 . ... : 1-# 00 A A0C : ... .. . ...
ROW 39 : ... .. . ... S04 ... : ... .. . ... ... ... : ... .. . S04 : --- .. . ... : ... .. . ...
ROW 3A : D#3 00 9 400 ... ... : C-3 00 8 ... ... ... : C-3 00 . ... : 1-# 00 A A0C : ... .. . ...
ROW 3B : ... .. . ... ... ... : ... .. . ... ... ... : ... .. . S02 : --- .. . ... : ... .. . ...
ROW 3C : --- .. . ... ... ... : --- .. . ... ... ... : ... .. . ... : 6-# 00 8 A07 : ... .. . ...
ROW 3D : D#3 00 3 400 ... ... : C-3 00 3 ... ... ... : ... .. . ... : ... .. . A02 : ... .. . ...
ROW 3E : F-3 00 9 ... ... ... : C-3 00 8 ... ... ... : A#2 00 . ... : 1-# 00 A A0C : ... .. . ...
ROW 3F : ... .. . ... ... ... : ... .. . ... ... ... : ... .. . ... : --- .. . ... : ... .. . ...

PATTERN 03
ROW 00 : --- .. . V01 ... ... : C-4 00 5 V01 471 A00 : ... .. . ... : 1-# 00 A A0C : ... .. . ...
ROW 01 : F-3 00 3 ... ... ... : ... .. . ... ... A01 : ... .. . S02 : --- .. . ... : ... .. . ...
ROW 02 : ... .. . ... ... ... : ... .. . ... ... A00 : A#2 00 . ... : B-# 00 4 A0A : ... .. . ...
ROW 03 : --- .. . ... ... ... : ... .. . ... ... A01 : ... .. . S02 : ... .. . ... : ... .. . ...
ROW 04 : C-3 00 8 A01 ... ... : A#3 00 7 ... 400 ... : A#2 00 . ... : 6-# 00 8 A07 : ... .. . ...
ROW 05 : ... .. . ... ... ... : ... .. . ... ... ... : ... .. . S02 : ... .. . A02 : ... .. . ...
ROW 06 : ... .. . ... ... ... : --- .. . ... ... ... : A#2 00 . ... : B-# 00 4 A0A : ... .. . ...
ROW 07 : ... .. . ... S04 ... : C-3 00 3 ... ... ... : ... .. . S02 : ... .. . ... : ... .. . ...
ROW 08 : F-3 00 8 ... ... ... : ... .. . ... ... ... : A#2 00 . ... : 1-# 00 A A0C : ... .. . ...
ROW 09 : ... .. . ... ... ... : ... .. . ... ... ... : ... .. . S02 : --- .. . ... : ... .. . ...
ROW 0A : ... .. . ... ... ... : C-4 00 7 ... ... ... : A#2 00 . ... : 1-# 00 A A0C : ... .. . ...
ROW 0B : ... .. . ... S04 ... : ... .. . ... S04 ... : ... .. . S02 : --- .. . ... : ... .. . ...
ROW 0C : A#3 00 8 ... S09 ... : C-4 00 7 ... ... ... : A#2 00 . ... : 6-# 00 8 A07 : ... .. . ...
ROW 0D : A#3 00 8 G05 ... ... : ... .. . ... S04 ... : ... .. . S02 : ... .. . A02 : ... .. . ...
ROW 0E : C-4 00 7 G03 ... ... : F-3 00 5 ... ... ... : A#2 00 . ... : B-# 00 4 A0A : ... .. . ...
ROW 0F : ... .. . ... ... ... : ... .. . ... S05 ... : ... .. . S02 : ... .. . ... : ... .. . ...
ROW 10 : ... .. . ... ... ... : A#3 00 3 G05 ... ... : A#2 00 . ... : 1-# 00 A A0C : ... .. . ...
ROW 11 : ... .. . ... S04 ... : C-4 00 . G03 ... ... : ... .. . S02 : --- .. . ... : ... .. . ...
ROW 12 : C#4 00 8 ... ... ... : A#2 00 7 ... ... ... : A#2 00 . ... : B-# 00 4 A0A : ... .. . ...
ROW 13 : ... .. . ... S04 ... : ... .. . ... ... ... : ... .. . S02 : ... .. . ... : ... .. . ...
ROW 14 : C-4 00 8 ... ... ... : --- .. . ... ... ... : A#2 00 . ... : 6-# 00 8 A07 : ... .. . ...
ROW 15 : ... .. . ... S04 ... : C#4 00 3 ... ... ... : ... .. . S02 : ... .. . A02 : ... .. . ...
ROW 16 : A#3 00 8 ... ... ... : ... .. . ... S04 ... : A#2 00 . ... : B-# 00 4 A0A : ... .. . ...
ROW 17 : ... .. . ... ... ... : C-4 00 3 ... ... ... : ... .. . S02 : ... .. . ... : ... .. . ...
ROW 18 : ... .. . ... ... ... : A#2 00 7 ... ... ... : A#2 00 . ... : 1-# 00 A A0C : ... .. . ...
ROW 19 : ... .. . ... S04 ... : ... .. . ... ... ... : ... .. . S04 : --- .. . ... : ... .. . ...
ROW 1A : G#3 00 8 ... ... ... : --- .. . ... ... ... : G-2 00 . ... : 1-# 00 A A0C : ... .. . ...
ROW 1B : ... .. . ... S04 ... : A#2 00 2 ... ... ... : ... .. . S02 : --- .. . ... : ... .. . ...
ROW 1C : A#3 00 8 ... ... ... : ... .. . ... ... ... : ... .. . ... : 6-# 00 8 A07 : ... .. . ...
ROW 1D : ... .. . ... S04 ... : G#3 00 3 ... ... ... : ... .. . ... : ... .. . A02 : ... .. . ...
ROW 1E : C-4 00 8 ... ... ... : F-3 00 7 ... ... ... : C-3 00 . ... : 1-# 00 A A0C : ... .. . ...
ROW 1F : ... .. . ... ... ... : ... .. . ... ... ... : ... .. . ... : --- .. . ... : ... .. . ...
ROW 20 : ... .. . ... 482 ... : ... .. . 472 ... A00 : ... .. . ... : 1-# 00 A A0C : ... .. . ...
ROW 21 : ... .. . ... ... ... : ... .. . ... ... A01 : ... .. . S02 : --- .. . ... : ... .. . ...
ROW 22 : ... .. . ... ... ... : ... .. . ... ... A00 : C-3 00 . ... : B-# 00 4 A0A : ... .. . ...
ROW 23 : ... .. . ... ... ... : ... .. . ... ... A01 : ... .. . S02 : ... .. . ... : ... .. . ...
ROW 24 : ... .. . ... ... ... : G-3 00 7 400 ... ... : C-3 00 . ... : 6-# 00 8 A07 : ... .. . ...
ROW 25 : ... .. . ... S04 ... : ... .. . ... ... ... : ... .. . S02 : ... .. . A02 : ... .. . ...
ROW 26 : A#3 00 8 ... 400 ... : --- .. . ... ... ... : C-3 00 . ... : B-# 00 4 A0A : ... .. . ...
ROW 27 : ... .. . ... ... ... : G-3 00 2 ... ... ... : ... .. . S02 : ... .. . ... : ... .. . ...
ROW 28 : ... .. . ... ... ... : ... .. . ... ... ... : C-3 00 . ... : 1-# 00 A A0C : ... .. . ...
ROW 29 : ... .. . ... ... ... : A#3 00 3 ... ... ... : ... .. . S02 : --- .. . ... : ... .. . ...
ROW 2A : ... .. . ... ... ... : F-3 00 7 ... ... ... : C-3 00 . ... : 1-# 00 A A0C : ... .. . ...
ROW 2B : ... .. . ... S04 ... : ... .. . ... S04 ... : ... .. . S02 : --- .. . ... : ... .. . ...
ROW 2C : G#3 00 8 ... ... ... : F-3 00 5 ... ... ... : C-3 00 . ... : 6-# 00 8 A07 : ... .. . ...
ROW 2D : ... .. . ... ... ... : ... .. . ... S04 ... : ... .. . S02 : ... .. . A02 : ... .. . ...
ROW 2E : ... .. . ... S09 ... : G-3 00 7 ... ... ... : C-3 00 . ... : B-# 00 4 A0A : ... .. . ...
ROW 2F : F-3 00 8 G05 ... ... : ... .. . ... ... ... : ... .. . S02 : ... .. . ... : ... .. . ...
ROW 30 : G-3 00 7 G03 ... ... : --- .. . ... ... ... : C-3 00 . ... : 6-# 00 8 A07 : ... .. . ...
ROW 31 : ... .. . ... ... ... : G-3 00 2 ... ... ... : ... .. . S02 : ... .. . A02 : ... .. . ...
ROW 32 : --- .. . ... ... ... : G-2 00 5 ... ... ... : C-3 00 . ... : 1-# 00 A A0C : ... .. . ...
ROW 33 : G-3 00 3 ... ... ... : ... .. . ... ... ... : ... .. . S02 : 6-# 00 8 A07 : ... .. . ...
ROW 34 : F-3 00 8 ... ... ... : --- .. . ... ... ... : C-3 00 . ... : 6-# 00 8 A07 : ... .. . ...
ROW 35 : ... .. . ... S04 ... : G-3 00 2 ... ... ... : ... .. . S02 : ... .. . A02 : ... .. . ...
ROW 36 : E-3 00 8 ... ... ... : ... .. . ... ... ... : C-3 00 . ... : 6-# 00 8 A07 : ... .. . ...
ROW 37 : ... .. . ... ... ... : F-3 00 3 ... ... ... : ... .. . S02 : ... .. . A02 : ... .. . ...
ROW 38 : ... .. . ... 482 ... : G-2 00 7 ... ... ... : C-3 00 . ... : 1-# 00 A A0C : ... .. . ...
ROW 39 : ... .. . ... ... ... : ... .. . ... ... ... : ... .. . S02 : 6-# 00 8 A07 : ... .. . ...
ROW 3A : ... .. . ... ... ... : ... .. . ... ... ... : C-3 00 . ... : 1-# 00 A A0C : ... .. . ...
ROW 3B : ... .. . ... ... ... : ... .. . ... ... ... : ... .. . S02 : ... .. . ... : ... .. . ...
ROW 3C : ... .. . ... ... ... : E-3 00 1 ... 482 ... : ... .. . ... : 6-# 00 8 A07 : ... .. . ...
ROW 3D : ... .. . ... ... ... : ... .. . ... ... ... : ... .. . ... : ... .. . A02 : ... .. . ...
ROW 3E : F-3 00 6 ... 400 ... : A#3 00 6 ... 400 ... : F-3 00 . ... : 9-# 00 A A06 : ... .. . ...
ROW 3F : ... .. . ... ... ... : ... .. . ... ... ... : ... .. . ... : ... .. . A03 : ... .. . ...

PATTERN 04
ROW 00 : --- .. . V01 ... ... : ... .. . ... ... ... : ... .. . ... : ... .. . A02 : ... .. . ...
ROW 01 : F-3 00 3 ... ... ... : ... .. . ... ... ... : ... .. . S02 : ... .. . A01 : ... .. . ...
ROW 02 : ... .. . ... ... ... : C#3 00 8 V02 A03 400 : A#2 00 . ... : ... .. . ... : ... .. . ...
ROW 03 : --- .. . ... ... ... : ... .. . ... ... ... : ... .. . S02 : ... .. . ... : ... .. . ...
ROW 04 : C-3 00 8 A01 ... ... : F-3 00 8 P7F ... ... : A#2 00 . ... : 6-# 00 8 A07 : ... .. . ...
ROW 05 : ... .. . ... ... ... : ... .. . ... ... ... : ... .. . S02 : ... .. . A02 : ... .. . ...
ROW 06 : ... .. . ... ... ... : C-4 00 8 P80 ... ... : A#2 00 . ... : B-# 00 4 A0A : ... .. . ...
ROW 07 : ... .. . ... ... ... : ... .. . ... ... ... : ... .. . S02 : ... .. . ... : ... .. . ...
ROW 08 : F-3 00 8 ... ... ... : --- .. . ... ... ... : A#2 00 . ... : 1-# 00 A A0C : ... .. . ...
ROW 09 : ... .. . ... ... ... : C-4 00 4 ... ... ... : ... .. . S02 : --- .. . ... : ... .. . ...
ROW 0A : ... .. . ... ... ... : ... .. . ... ... ... : A#2 00 . ... : 1-# 00 A A0C : ... .. . ...
ROW 0B : ... .. . ... ... ... : --- .. . ... ... ... : ... .. . S02 : --- .. . ... : ... .. . ...
ROW 0C : A#3 00 8 S09 ... ... : ... .. . ... ... ... : A#2 00 . ... : 6-# 00 8 A07 : ... .. . ...
ROW 0D : A#3 00 8 G05 ... ... : ... .. . ... ... ... : ... .. . S02 : ... .. . A02 : ... .. . ...
ROW 0E : C-4 00 7 G03 ... ... : ... .. . ... ... ... : A#2 00 . ... : B-# 00 4 A0A : ... .. . ...
ROW 0F : ... .. . ... ... ... : ... .. . ... ... ... : ... .. . S02 : ... .. . ... : ... .. . ...
ROW 10 : ... .. . ... ... ... : ... .. . ... ... ... : A#2 00 . ... : 1-# 00 A A0C : ... .. . ...
ROW 11 : ... .. . ... ... ... : ... .. . ... ... ... : ... .. . S02 : --- .. . ... : ... .. . ...
ROW 12 : C#4 00 8 400 ... ... : C#3 00 8 ... ... ... : A#2 00 . ... : B-# 00 4 A0A : ... .. . ...
ROW 13 : ... .. . ... ... ... : ... .. . ... ... ... : ... .. . S02 : ... .. . ... : ... .. . ...
ROW 14 : C-4 00 8 ... ... ... : F-3 00 8 ... ... ... : A#2 00 . ... : 4-# 00 A A0C : ... .. . ...
ROW 15 : ... .. . ... ... ... : ... .. . ... ... ... : ... .. . S02 : --- .. . ... : ... .. . ...
ROW 16 : A#3 00 8 ... ... ... : C-4 00 8 ... ... ... : A#2 00 . ... : 3-# 00 A A0C : ... .. . ...
ROW 17 : ... .. . ... ... ... : ... .. . ... ... ... : ... .. . S02 : --- .. . ... : ... .. . ...
ROW 18 : ... .. . ... ... ... : --- .. . ... ... ... : A#2 00 . ... : 2-# 00 A A0C : ... .. . ...
ROW 19 : ... .. . ... ... ... : C-4 00 4 ... ... ... : ... .. . S04 : --- .. . ... : ... .. . ...
ROW 1A : G#3 00 8 ... ... ... : A#3 00 8 ... ... ... : G-2 00 . ... : 9-# 00 8 A06 : ... .. . ...
ROW 1B : ... .. . ... ... ... : ... .. . ... ... ... : ... .. . S02 : ... .. . A02 : ... .. . ...
ROW 1C : G-3 00 8 ... ... ... : G#3 00 8 ... ... ... : ... .. . ... : ... .. . ... : ... .. . ...
ROW 1D : A#3 00 8 G05 ... ... : ... .. . ... ... ... : ... .. . ... : ... .. . A01 : ... .. . ...
ROW 1E : C-4 00 7 G03 ... ... : G-3 00 8 ... ... ... : C-3 00 . ... : 9-# 00 8 A06 : ... .. . ...
ROW 1F : ... .. . ... S09 ... : ... .. . ... ... ... : ... .. . ... : ... .. . A02 : ... .. . ...
ROW 20 : A#3 00 3 G05 ... ... : --- .. . ... ... ... : ... .. . ... : ... .. . ... : ... .. . ...
ROW 21 : C-4 00 . G03 ... ... : G-3 00 4 ... ... ... : ... .. . S02 : ... .. . A01 : ... .. . ...
ROW 22 : ... .. . ... ... ... : A#2 00 8 ... ... ... : C-3 00 . ... : 1-# 00 A A0C : ... .. . ...
ROW 23 : --- .. . ... ... ... : ... .. . ... ... ... : ... .. . S02 : --- .. . ... : ... .. . ...
ROW 24 : A#3 00 8 ... ... ... : C#3 00 8 ... ... ... : C-3 00 . ... : 6-# 00 8 A07 : ... .. . ...
ROW 25 : ... .. . ... ... ... : ... .. . ... ... ... : ... .. . S02 : ... .. . A02 : ... .. . ...
ROW 26 : ... .. . 482 ... ... : G#3 00 8 ... ... ... : C-3 00 . ... : B-# 00 4 A0A : ... .. . ...
ROW 27 : ... .. . ... ... ... : ... .. . ... ... ... : ... .. . S02 : ... .. . ... : ... .. . ...
ROW 28 : ... .. . ... ... ... : --- .. . ... ... ... : C-3 00 . ... : 1-# 00 A A0C : ... .. . ...
ROW 29 : ... .. . ... ... ... : G#3 00 4 ... ... ... : ... .. . S02 : --- .. . ... : ... .. . ...
ROW 2A : ... .. . ... ... ... : ... .. . ... ... ... : C-3 00 . ... : 1-# 00 A A0C : ... .. . ...
ROW 2B : ... .. . ... ... ... : --- .. . ... ... ... : ... .. . S02 : --- .. . ... : ... .. . ...
ROW 2C : G#3 00 8 400 ... ... : ... .. . ... ... ... : C-3 00 . ... : 6-# 00 8 A07 : ... .. . ...
ROW 2D : ... .. . ... ... ... : ... .. . ... ... ... : ... .. . S02 : ... .. . A02 : ... .. . ...
ROW 2E : ... .. . ... ... ... : ... .. . ... ... ... : C-3 00 . ... : B-# 00 4 A0A : ... .. . ...
ROW 2F : F-3 00 8 G05 ... ... : ... .. . ... ... ... : ... .. . S02 : ... .. . ... : ... .. . ...
ROW 30 : G-3 00 7 G03 ... ... : ... .. . ... ... ... : C-3 00 . ... : 1-# 00 A A0C : ... .. . ...
ROW 31 : ... .. . ... ... ... : ... .. . ... ... ... : ... .. . S02 : --- .. . ... : ... .. . ...
ROW 32 : ... .. . ... ... ... : A#2 00 8 ... ... ... : C-3 00 . ... : B-# 00 4 A0A : ... .. . ...
ROW 33 : ... .. . ... ... ... : ... .. . ... ... ... : ... .. . S02 : ... .. . ... : ... .. . ...
ROW 34 : G#3 00 8 ... ... ... : C#3 00 8 ... ... ... : C-3 00 . ... : 6-# 00 8 A07 : ... .. . ...
ROW 35 : ... .. . ... ... ... : ... .. . ... ... ... : ... .. . S02 : ... .. . A02 : ... .. . ...
ROW 36 : F-3 00 8 Q22 ... ... : G#3 00 8 ... ... ... : C-3 00 . ... : B-# 00 4 A0A : ... .. . ...
ROW 37 : ... .. . ... ... ... : ... .. . ... ... ... : ... .. . S02 : ... .. . ... : ... .. . ...
ROW 38 : ... .. . ... 481 ... : --- .. . ... ... ... : C-3 00 . ... : 1-# 00 A A0C : ... .. . ...
ROW 39 : ... .. . ... ... ... : G#3 00 4 ... ... ... : ... .. . S02 : --- .. . ... : ... .. . ...
ROW 3A : ... .. . ... ... ... : G-3 00 8 ... ... ... : C-3 00 . ... : 1-# 00 A A0C : ... .. . ...
ROW 3B : ... .. . ... ... ... : ... .. . ... ... ... : ... .. . S02 : --- .. . ... : ... .. . ...
ROW 3C : ... .. . ... 484 ... : F-3 00 8 ... ... ... : ... .. . ... : 6-# 00 8 A07 : ... .. . ...
ROW 3D : ... .. . ... ... ... : ... .. . ... ... ... : ... .. . ... : ... .. . A02 : ... .. . ...
ROW 3E : ... .. . ... ... ... : A#3 00 7 V01 A01 P7F : ... .. . ... : 1-# 00 A A0C : ... .. . ...
ROW 3F : ... .. . ... ... ... : ... .. . ... ... ... : ... .. . ... : --- .. . ... : ... .. . ...

PATTERN 05
ROW 00 : F-3 00 7 V01 400 A01 : C-4 00 5 V01 471 A00 : C#3 00 . ... : 1-# 00 A A0C : ... .. . ...
ROW 01 : ... .. . ... ... ... : ... .. . ... ... A01 : ... .. . S02 : --- .. . ... : ... .. . ...
ROW 02 : ... .. . ... 481 ... : ... .. . ... ... A00 : ... .. . ... : B-# 00 4 A0A : ... .. . ...
ROW 03 : ... .. . ... ... ... : ... .. . ... ... A01 : ... .. . ... : ... .. . ... : ... .. . ...
ROW 04 : ... .. . ... ... ... : A#3 00 7 ... 400 ... : ... .. . ... : 6-# 00 8 A07 : ... .. . ...
ROW 05 : ... .. . ... ... S04 : ... .. . ... ... ... : ... .. . ... : ... .. . A02 : ... .. . ...
ROW 06 : F-3 00 7 Q22 400 ... : --- .. . ... ... ... : C#3 00 . ... : B-# 00 4 A0A : ... .. . ...
ROW 07 : ... .. . ... ... ... : C-3 00 3 ... ... ... : ... .. . ... : ... .. . ... : ... .. . ...
ROW 08 : ... .. . ... 481 ... : ... .. . ... ... ... : ... .. . 461 : 1-# 00 A A0C : ... .. . ...
ROW 09 : ... .. . ... ... ... : ... .. . ... ... ... : ... .. . ... : --- .. . ... : ... .. . ...
ROW 0A : ... .. . ... ... ... : C-4 00 7 ... ... ... : ... .. . ... : 1-# 00 A A0C : ... .. . ...
ROW 0B : ... .. . ... ... ... : ... .. . S04 ... ... : ... .. . ... : --- .. . ... : ... .. . ...
ROW 0C : ... .. . ... ... ... : C-4 00 7 ... ... ... : ... .. . ... : 6-# 00 8 A07 : ... .. . ...
ROW 0D : ... .. . ... ... ... : ... .. . S04 ... ... : ... .. . ... : ... .. . A02 : ... .. . ...
ROW 0E : ... .. . ... ... ... : F-3 00 5 ... ... ... : ... .. . ... : B-# 00 4 A0A : ... .. . ...
ROW 0F : ... .. . ... ... ... : ... .. . S05 ... ... : ... .. . S02 : ... .. . ... : ... .. . ...
ROW 10 : G#3 00 7 ... 400 ... : A#3 00 3 G05 ... ... : C#3 00 . 400 : 1-# 00 A A0C : ... .. . ...
ROW 11 : ... .. . ... ... ... : C-4 00 . G03 ... ... : ... .. . S02 : --- .. . ... : ... .. . ...
ROW 12 : ... .. . ... 481 ... : A#2 00 7 ... ... ... : ... .. . ... : B-# 00 4 A0A : ... .. . ...
ROW 13 : ... .. . ... ... ... : ... .. . ... ... ... : ... .. . ... : ... .. . ... : ... .. . ...
ROW 14 : ... .. . ... ... ... : --- .. . ... ... ... : ... .. . ... : 6-# 00 8 A07 : ... .. . ...
ROW 15 : ... .. . ... ... S04 : C#4 00 3 ... ... ... : ... .. . ... : ... .. . A02 : ... .. . ...
ROW 16 : A-3 00 7 Q21 400 ... : ... .. . ... ... ... : C#3 00 . ... : B-# 00 4 A0A : ... .. . ...
ROW 17 : ... .. . ... ... ... : C-4 00 3 ... ... ... : ... .. . ... : ... .. . ... : ... .. . ...
ROW 18 : ... .. . ... ... ... : A#2 00 7 ... ... ... : ... .. . ... : 1-# 00 A A0C : ... .. . ...
ROW 19 : ... .. . ... ... ... : ... .. . ... ... ... : ... .. . S02 : --- .. . ... : ... .. . ...
ROW 1A : G#3 00 7 ... ... ... : A#3 00 1 ... ... ... : C#3 00 . ... : 1-# 00 A A0C : ... .. . ...
ROW 1B : ... .. . ... ... ... : ... .. . ... ... ... : ... .. . S02 : --- .. . ... : ... .. . ...
ROW 1C : G-3 00 7 ... ... ... : ... .. . ... ... ... : C-3 00 . ... : 6-# 00 8 A07 : ... .. . ...
ROW 1D : ... .. . ... ... ... : G#3 00 3 ... ... ... : ... .. . ... : ... .. . A02 : ... .. . ...
ROW 1E : F-3 00 7 ... ... ... : F-3 00 7 ... ... ... : ... .. . ... : 1-# 00 A A0C : ... .. . ...
ROW 1F : ... .. . ... ... ... : ... .. . ... ... ... : ... .. . S02 : --- .. . ... : ... .. . ...
ROW 20 : C#3 00 7 ... ... ... : ... .. . ... 472 A00 : A#2 00 . ... : 1-# 00 A A0C : ... .. . ...
ROW 21 : ... .. . ... ... ... : ... .. . ... ... A01 : ... .. . S02 : --- .. . ... : ... .. . ...
ROW 22 : ... .. . ... 481 ... : ... .. . ... ... A00 : ... .. . ... : B-# 00 4 A0A : ... .. . ...
ROW 23 : ... .. . ... ... ... : ... .. . ... ... A01 : ... .. . ... : ... .. . ... : ... .. . ...
ROW 24 : ... .. . ... ... ... : G-3 00 7 ... 400 ... : ... .. . ... : 6-# 00 8 A07 : ... .. . ...
ROW 25 : ... .. . ... ... ... : ... .. . ... ... ... : ... .. . ... : ... .. . A02 : ... .. . ...
ROW 26 : A#3 00 7 Q12 400 ... : --- .. . ... ... ... : A#2 00 . ... : B-# 00 4 A0A : ... .. . ...
ROW 27 : ... .. . ... ... ... : A#3 00 3 ... ... ... : ... .. . ... : ... .. . ... : ... .. . ...
ROW 28 : ... .. . ... 481 ... : ... .. . ... ... ... : ... .. . 461 : 1-# 00 A A0C : ... .. . ...
ROW 29 : ... .. . ... ... ... : ... .. . 482 ... ... : ... .. . ... : --- .. . ... : ... .. . ...
ROW 2A : ... .. . ... ... A00 : C-3 00 7 400 ... ... : ... .. . ... : 1-# 00 A A0C : ... .. . ...
ROW 2B : ... .. . ... ... ... : ... .. . S04 ... ... : ... .. . ... : --- .. . ... : ... .. . ...
ROW 2C : ... .. . ... ... ... : C-3 00 7 ... ... ... : ... .. . ... : 6-# 00 8 A07 : ... .. . ...
ROW 2D : ... .. . ... ... ... : ... .. . S04 ... ... : ... .. . ... : ... .. . A02 : ... .. . ...
ROW 2E : ... .. . ... 482 ... : C-3 00 7 ... ... ... : ... .. . ... : B-# 00 4 A0A : ... .. . ...
ROW 2F : ... .. . ... ... ... : ... .. . S04 ... ... : ... .. . S02 : ... .. . ... : ... .. . ...
ROW 30 : ... .. . ... ... ... : G#3 00 1 ... ... ... : A#2 00 . ... : 1-# 00 A A0C : ... .. . ...
ROW 31 : ... .. . ... ... ... : ... .. . ... ... ... : ... .. . S02 : --- .. . ... : ... .. . ...
ROW 32 : ... .. . ... ... ... : E-3 00 7 ... ... ... : ... .. . ... : 4-# 00 9 A0C : ... .. . ...
ROW 33 : ... .. . ... ... ... : ... .. . S04 ... ... : ... .. . ... : --- .. . ... : ... .. . ...
ROW 34 : ... .. . ... ... ... : E-3 00 7 ... ... ... : ... .. . ... : 4-# 00 9 A0C : ... .. . ...
ROW 35 : ... .. . ... ... ... : ... .. . S04 ... ... : ... .. . ... : --- .. . ... : ... .. . ...
ROW 36 : ... .. . ... 483 ... : E-3 00 7 ... ... ... : A#2 00 . 400 : 3-# 00 9 A0C : ... .. . ...
ROW 37 : ... .. . ... ... ... : ... .. . S04 ... ... : ... .. . ... : --- .. . ... : ... .. . ...
ROW 38 : ... .. . ... ... ... : E-3 00 7 ... ... ... : ... .. . ... : 2-# 00 9 A0C : ... .. . ...
ROW 39 : ... .. . ... ... ... : ... .. . S04 ... ... : ... .. . S02 : --- .. . ... : ... .. . ...
ROW 3A : ... .. . ... ... ... : E-3 00 7 ... ... ... : A#2 00 . ... : 2-# 00 9 A0C : ... .. . ...
ROW 3B : ... .. . ... ... S04 : ... .. . S04 ... ... : ... .. . S02 : --- .. . ... : ... .. . ...
ROW 3C : A#3 00 7 ... A01 400 : G-3 00 1 481 ... ... : C-3 00 . ... : B-# 00 4 A0A : ... .. . ...
ROW 3D : ... .. . S04 ... ... : ... .. . ... ... ... : ... .. . S02 : ... .. . ... : ... .. . ...
ROW 3E : A#3 00 7 Q12 400 ... : ... .. . ... ... ... : F-2 00 . ... : B-# 00 4 A0A : ... .. . ...
ROW 3F : ... .. . ... ... ... : ... .. . 484 ... ... : ... .. . S02 : ... .. . ... : ... .. . ...

PATTERN 06
ROW 00 : ... .. . ... 481 ... : ... .. . A00 472 P80 : ... .. . ... : 9-# 00 9 A06 : ... .. . ...
ROW 01 : ... .. . ... ... ... : ... .. . A01 ... ... : ... .. . ... : ... .. . A03 : ... .. . ...
ROW 02 : ... .. . ... ... A00 : ... .. . A00 ... ... : F-2 00 . ... : ... .. . A02 : ... .. . ...
ROW 03 : ... .. . ... ... ... : ... .. . A01 ... ... : ... .. . S02 : ... .. . ... : ... .. . ...
ROW 04 : ... .. . ... ... ... : G#3 00 8 V01 A01 400 : G#2 00 . ... : ... .. . ... : ... .. . ...
ROW 05 : ... .. . ... ... ... : ... .. . ... ... ... : ... .. . S02 : ... .. . ... : ... .. . ...
ROW 06 : ... .. . ... 482 ... : --- .. . ... ... ... : C-3 00 . ... : 1-# 00 A A0C : ... .. . ...
ROW 07 : ... .. . ... ... ... : G#3 00 2 ... ... ... : ... .. . S02 : --- .. . ... : ... .. . ...
ROW 08 : ... .. . ... ... ... : ... .. . ... ... ... : D#3 00 . ... : B-# 00 4 A0A : ... .. . ...
ROW 09 : ... .. . ... ... ... : --- .. . ... ... ... : ... .. . S02 : ... .. . ... : ... .. . ...
ROW 0A : ... .. . ... ... ... : A#3 00 8 ... ... ... : D-3 00 . ... : ... .. . ... : ... .. . ...
ROW 0B : ... .. . ... ... ... : ... .. . S04 ... ... : ... .. . S02 : ... .. . ... : ... .. . ...
ROW 0C : ... .. . ... ... ... : A#3 00 8 ... ... ... : ... .. . ... : 6-# 00 8 A07 : ... .. . ...
ROW 0D : ... .. . ... ... ... : ... .. . S04 ... ... : ... .. . ... : ... .. . A02 : ... .. . ...
ROW 0E : ... .. . ... 483 ... : G#3 00 8 ... ... ... : F-2 00 . ... : ... .. . ... : ... .. . ...
ROW 0F : ... .. . ... ... ... : ... .. . ... ... ... : ... .. . S02 : ... .. . ... : ... .. . ...
ROW 10 : ... .. . ... ... ... : --- .. . ... ... ... : G#2 00 . ... : 1-# 00 A A0C : ... .. . ...
ROW 11 : ... .. . ... ... ... : G#3 00 2 ... ... ... : ... .. . S02 : --- .. . ... : ... .. . ...
ROW 12 : ... .. . ... ... ... : F-3 00 8 ... ... ... : C-3 00 . ... : ... .. . ... : ... .. . ...
ROW 13 : ... .. . ... ... ... : ... .. . ... ... ... : ... .. . S02 : ... .. . ... : ... .. . ...
ROW 14 : ... .. . ... ... ... : --- .. . ... ... ... : D#3 00 . ... : B-# 00 4 A0A : ... .. . ...
ROW 15 : ... .. . ... ... ... : F-3 00 2 ... ... ... : ... .. . S02 : ... .. . ... : ... .. . ...
ROW 16 : ... .. . ... A01 ... : ... .. . ... ... ... : D-3 00 . ... : 1-# 00 A A0C : ... .. . ...
ROW 17 : ... .. . ... ... ... : --- .. . ... ... ... : ... .. . S02 : --- .. . ... : ... .. . ...
ROW 18 : ... .. . ... ... ... : F-3 00 8 ... ... ... : ... .. . ... : B-# 00 4 A0A : ... .. . ...
ROW 19 : ... .. . ... ... ... : ... .. . S04 ... ... : ... .. . ... : ... .. . ... : ... .. . ...
ROW 1A : ... .. . ... ... ... : F-3 00 8 ... ... ... : ... .. . ... : 4-# 00 9 A0C : ... .. . ...
ROW 1B : ... .. . ... ... ... : ... .. . ... ... ... : ... .. . ... : --- .. . ... : ... .. . ...
ROW 1C : --- .. . ... ... ... : --- .. . ... ... ... : F-2 00 . ... : 3-# 00 9 A0C : ... .. . ...
ROW 1D : ... .. . ... ... ... : F-3 00 2 ... ... ... : ... .. . S02 : --- .. . ... : ... .. . ...
ROW 1E : F-3 00 6 400 A01 ... : ... .. . ... ... ... : C#3 00 . ... : 2-# 00 9 A0C : ... .. . ...
ROW 1F : ... .. . ... ... ... : --- .. . ... ... ... : ... .. . D00 : --- .. . ... : ... .. . ...
ROW 20 : ... .. . ... ... ... : ... .. . ... ... ... : ... .. . ... : 1-# 00 A A0C : ... .. . ...
ROW 21 : ... .. . ... ... ... : ... .. . ... ... ... : ... .. . ... : --- .. . ... : ... .. . ...
ROW 22 : ... .. . ... ... ... : ... .. . ... ... ... : ... .. . ... : ... .. . ... : ... .. . ...
ROW 23 : ... .. . ... ... ... : ... .. . ... ... ... : ... .. . ... : ... .. . ... : ... .. . ...
ROW 24 : ... .. . ... ... ... : ... .. . ... ... ... : ... .. . ... : B-# 00 4 A0A : ... .. . ...
ROW 25 : ... .. . ... ... ... : ... .. . ... ... ... : ... .. . ... : ... .. . ... : ... .. . ...
ROW 26 : ... .. . ... ... ... : ... .. . ... ... ... : ... .. . ... : 1-# 00 A A0C : ... .. . ...
ROW 27 : ... .. . ... ... ... : ... .. . ... ... ... : ... .. . ... : --- .. . ... : ... .. . ...
ROW 28 : ... .. . ... ... ... : ... .. . ... ... ... : ... .. . ... : B-# 00 4 A0A : ... .. . ...
ROW 29 : ... .. . ... ... ... : ... .. . ... ... ... : ... .. . ... : ... .. . ... : ... .. . ...
ROW 2A : ... .. . ... ... ... : ... .. . ... ... ... : ... .. . ... : ... .. . ... : ... .. . ...
ROW 2B : ... .. . ... ... ... : ... .. . ... ... ... : ... .. . ... : ... .. . ... : ... .. . ...
ROW 2C : ... .. . ... ... ... : ... .. . ... ... ... : ... .. . ... : 6-# 00 8 A07 : ... .. . ...
ROW 2D : ... .. . ... ... ... : ... .. . ... ... ... : ... .. . ... : ... .. . A02 : ... .. . ...
ROW 2E : ... .. . ... ... ... : ... .. . ... ... ... : ... .. . ... : ... .. . ... : ... .. . ...
ROW 2F : ... .. . ... ... ... : ... .. . ... ... ... : ... .. . ... : ... .. . ... : ... .. . ...
ROW 30 : ... .. . ... ... ... : ... .. . ... ... ... : ... .. . ... : 1-# 00 A A0C : ... .. . ...
ROW 31 : ... .. . ... ... ... : ... .. . ... ... ... : ... .. . ... : --- .. . ... : ... .. . ...
ROW 32 : ... .. . ... ... ... : ... .. . ... ... ... : ... .. . ... : ... .. . ... : ... .. . ...
ROW 33 : ... .. . ... ... ... : ... .. . ... ... ... : ... .. . ... : ... .. . ... : ... .. . ...
ROW 34 : ... .. . ... ... ... : ... .. . ... ... ... : ... .. . ... : B-# 00 4 A0A : ... .. . ...
ROW 35 : ... .. . ... ... ... : ... .. . ... ... ... : ... .. . ... : ... .. . ... : ... .. . ...
ROW 36 : ... .. . ... ... ... : ... .. . ... ... ... : ... .. . ... : 1-# 00 A A0C : ... .. . ...
ROW 37 : ... .. . ... ... ... : ... .. . ... ... ... : ... .. . ... : --- .. . ... : ... .. . ...
ROW 38 : ... .. . ... ... ... : ... .. . ... ... ... : ... .. . ... : B-# 00 4 A0A : ... .. . ...
ROW 39 : ... .. . ... ... ... : ... .. . ... ... ... : ... .. . ... : ... .. . ... : ... .. . ...
ROW 3A : ... .. . ... ... ... : ... .. . ... ... ... : ... .. . ... : 4-# 00 9 A0C : ... .. . ...
ROW 3B : ... .. . ... ... ... : ... .. . ... ... ... : ... .. . ... : --- .. . ... : ... .. . ...
ROW 3C : ... .. . ... ... ... : ... .. . ... ... ... : ... .. . ... : 3-# 00 9 A0C : ... .. . ...
ROW 3D : ... .. . ... ... ... : ... .. . ... ... ... : ... .. . ... : --- .. . ... : ... .. . ...
ROW 3E : ... .. . ... ... ... : ... .. . ... ... ... : ... .. . ... : 9-# 00 9 A06 : ... .. . ...
ROW 3F : ... .. . ... ... ... : ... .. . ... ... ... : ... .. . ... : ... .. . A03 : ... .. . ...

PATTERN 07
ROW 00 : ... .. . ... 472 A00 : ... .. . ... 400 ... : ... .. . ... : ... .. . A02 : ... .. . ...
ROW 01 : ... .. . ... ... A01 : ... .. . ... ... ... : ... .. . ... : ... .. . A01 : ... .. . ...
ROW 02 : ... .. . ... ... A00 : C#3 00 8 V02 A03 ... : ... .. . ... : ... .. . ... : ... .. . ...
ROW 03 : ... .. . ... ... A01 : ... .. . ... ... ... : ... .. . ... : ... .. . ... : ... .. . ...
ROW 04 : C-3 00 8 A01 400 400 : F-3 00 8 P7F ... ... : ... .. . ... : 6-# 00 8 A07 : ... .. . ...
ROW 05 : ... .. . ... ... ... : ... .. . ... ... ... : ... .. . S02 : ... .. . A02 : ... .. . ...
ROW 06 : ... .. . ... ... ... : C-4 00 8 P80 ... ... : C#3 00 . ... : B-# 00 4 A0A : ... .. . ...
ROW 07 : ... .. . ... ... ... : ... .. . ... ... ... : ... .. . ... : ... .. . ... : ... .. . ...
ROW 08 : F-3 00 8 ... ... ... : --- .. . ... ... ... : ... .. . ... : 1-# 00 A A0C : ... .. . ...
ROW 09 : ... .. . ... ... ... : C-4 00 4 ... ... ... : ... .. . ... : --- .. . ... : ... .. . ...
ROW 0A : ... .. . ... ... ... : ... .. . ... ... ... : ... .. . ... : 1-# 00 A A0C : ... .. . ...
ROW 0B : ... .. . ... ... ... : --- .. . ... ... ... : ... .. . ... : --- .. . ... : ... .. . ...
ROW 0C : A#3 00 8 ... S09 ... : ... .. . ... ... ... : ... .. . ... : 6-# 00 8 A07 : ... .. . ...
ROW 0D : A#3 00 8 G05 ... ... : ... .. . ... ... ... : ... .. . ... : ... .. . A02 : ... .. . ...
ROW 0E : C-4 00 7 G03 ... ... : ... .. . ... ... ... : ... .. . ... : B-# 00 4 A0A : ... .. . ...
ROW 0F : ... .. . ... ... ... : ... .. . ... ... ... : ... .. . S02 : ... .. . ... : ... .. . ...
ROW 10 : ... .. . ... 482 ... : ... .. . ... ... ... : C#3 00 . ... : 1-# 00 A A0C : ... .. . ...
ROW 11 : ... .. . ... ... ... : ... .. . ... ... ... : ... .. . S02 : --- .. . ... : ... .. . ...
ROW 12 : ... .. . ... ... ... : C#3 00 8 ... ... ... : ... .. . ... : B-# 00 4 A0A : ... .. . ...
ROW 13 : ... .. . ... ... ... : ... .. . ... ... ... : ... .. . ... : ... .. . ... : ... .. . ...
ROW 14 : A#3 00 8 ... 400 ... : F-3 00 8 ... ... ... : ... .. . ... : 6-# 00 8 A07 : ... .. . ...
ROW 15 : ... .. . ... ... ... : ... .. . ... ... ... : ... .. . ... : ... .. . A02 : ... .. . ...
ROW 16 : G#3 00 8 ... ... ... : C-4 00 8 ... ... ... : C#3 00 . ... : B-# 00 4 A0A : ... .. . ...
ROW 17 : ... .. . ... ... ... : ... .. . ... ... ... : ... .. . ... : ... .. . ... : ... .. . ...
ROW 18 : --- .. . ... ... ... : --- .. . ... ... ... : ... .. . ... : 1-# 00 A A0C : ... .. . ...
ROW 19 : ... .. . ... ... ... : C-4 00 4 ... ... ... : ... .. . S02 : --- .. . ... : ... .. . ...
ROW 1A : G-3 00 8 ... ... ... : A#3 00 8 ... ... ... : C#3 00 . ... : 1-# 00 A A0C : ... .. . ...
ROW 1B : ... .. . ... ... ... : ... .. . ... ... ... : ... .. . S02 : --- .. . ... : ... .. . ...
ROW 1C : --- .. . ... ... ... : G#3 00 8 ... ... ... : C#3 00 . ... : 6-# 00 8 A07 : ... .. . ...
ROW 1D : ... .. . ... ... ... : ... .. . ... ... ... : ... .. . S02 : ... .. . A02 : ... .. . ...
ROW 1E : G-3 00 8 Q11 ... ... : G-3 00 8 ... ... ... : D#3 00 . ... : 1-# 00 A A0C : ... .. . ...
ROW 1F : ... .. . ... ... ... : ... .. . ... ... ... : ... .. . S02 : --- .. . ... : ... .. . ...
ROW 20 : ... .. . ... 481 ... : --- .. . ... ... ... : ... .. . ... : ... .. . ... : ... .. . ...
ROW 21 : ... .. . ... ... ... : G-3 00 4 ... ... ... : ... .. . ... : ... .. . ... : ... .. . ...
ROW 22 : ... .. . ... ... ... : D#3 00 8 ... ... ... : ... .. . ... : ... .. . ... : ... .. . ...
ROW 23 : ... .. . ... ... ... : ... .. . ... ... ... : ... .. . ... : ... .. . ... : ... .. . ...
ROW 24 : G-3 00 8 ... 400 ... : G-3 00 8 ... ... ... : ... .. . ... : ... .. . ... : ... .. . ...
ROW 25 : ... .. . ... ... ... : ... .. . ... ... ... : ... .. . S02 : ... .. . ... : ... .. . ...
ROW 26 : F-3 00 8 ... ... ... : D#4 00 8 ... ... ... : D#3 00 . ... : ... .. . ... : ... .. . ...
ROW 27 : ... .. . ... ... ... : ... .. . ... ... ... : ... .. . ... : ... .. . ... : ... .. . ...
ROW 28 : --- .. . ... ... ... : --- .. . ... ... ... : ... .. . ... : ... .. . ... : ... .. . ...
ROW 29 : ... .. . ... ... ... : D#4 00 4 ... ... ... : ... .. . ... : ... .. . ... : ... .. . ...
ROW 2A : D#3 00 8 ... ... ... : ... .. . ... ... ... : ... .. . ... : ... .. . ... : ... .. . ...
ROW 2B : ... .. . ... ... ... : --- .. . ... ... ... : ... .. . ... : ... .. . ... : ... .. . ...
ROW 2C : --- .. . ... ... ... : ... .. . ... ... ... : ... .. . ... : ... .. . ... : ... .. . ...
ROW 2D : ... .. . ... ... ... : ... .. . ... ... ... : ... .. . ... : ... .. . ... : ... .. . ...
ROW 2E : D#3 00 8 Q22 ... ... : ... .. . ... ... ... : ... .. . ... : ... .. . ... : ... .. . ...
ROW 2F : ... .. . ... ... ... : ... .. . ... ... ... : ... .. . S02 : ... .. . ... : ... .. . ...
ROW 30 : ... .. . ... 482 ... : ... .. . ... ... ... : D#3 00 . ... : ... .. . ... : ... .. . ...
ROW 31 : ... .. . ... ... ... : ... .. . ... ... ... : ... .. . S02 : ... .. . ... : ... .. . ...
ROW 32 : ... .. . ... ... ... : D#3 00 8 ... ... ... : ... .. . ... : ... .. . ... : ... .. . ...
ROW 33 : ... .. . ... ... ... : ... .. . ... ... ... : ... .. . ... : ... .. . ... : ... .. . ...
ROW 34 : ... .. . ... ... ... : G-3 00 8 ... ... ... : ... .. . ... : ... .. . ... : ... .. . ...
ROW 35 : ... .. . ... ... ... : ... .. . ... ... ... : ... .. . ... : ... .. . ... : ... .. . ...
ROW 36 : F-3 00 8 ... 400 ... : D#4 00 8 ... ... ... : D#3 00 . ... : ... .. . ... : ... .. . ...
ROW 37 : ... .. . ... ... ... : ... .. . ... ... ... : ... .. . ... : ... .. . ... : ... .. . ...
ROW 38 : G-3 00 8 ... ... ... : --- .. . ... ... ... : ... .. . ... : ... .. . ... : ... .. . ...
ROW 39 : ... .. . ... ... ... : D#4 00 4 ... ... ... : ... .. . S02 : ... .. . ... : ... .. . ...
ROW 3A : G#3 00 8 ... ... ... : C#4 00 8 ... ... ... : D#3 00 . ... : ... .. . ... : ... .. . ...
ROW 3B : ... .. . ... ... ... : ... .. . ... ... ... : ... .. . S02 : ... .. . ... : ... .. . ...
ROW 3C : --- .. . ... ... ... : C-4 00 8 ... ... ... : D#3 00 . ... : ... .. . ... : ... .. . ...
ROW 3D : ... .. . ... ... ... : ... .. . ... ... ... : ... .. . S02 : ... .. . ... : ... .. . ...
ROW 3E : F-3 00 6 ... ... ... : G#3 00 7 V01 A01 ... : C-3 00 . ... : ... .. . ... : ... .. . ...
ROW 3F : ... .. . ... ... ... : ... .. . ... ... ... : ... .. . ... : ... .. . ... : ... .. . ...

PATTERN 08
ROW 00 : ... .. . ... 472 A00 : ... .. . ... 472 A00 : ... .. . ... : 9-# 00 9 A06 : ... .. . ...
ROW 01 : ... .. . ... ... A01 : ... .. . ... ... A01 : ... .. . S02 : ... .. . A03 : ... .. . ...
ROW 02 : ... .. . ... ... A00 : ... .. . ... ... A00 : C-3 00 . ... : ... .. . A02 : ... .. . ...
ROW 03 : ... .. . ... ... A01 : ... .. . ... ... A01 : ... .. . S02 : ... .. . A01 : ... .. . ...
ROW 04 : A#3 00 8 ... 400 ... : G-3 00 8 V01 400 ... : E-3 00 . ... : ... .. . ... : ... .. . ...
ROW 05 : ... .. . ... ... ... : ... .. . ... ... ... : ... .. . S02 : ... .. . ... : ... .. . ...
ROW 06 : ... .. . ... ... ... : --- .. . ... ... ... : G-3 00 . ... : 1-# 00 A A0C : ... .. . ...
ROW 07 : ... .. . ... ... ... : G-3 00 2 ... ... ... : ... .. . S02 : --- .. . ... : ... .. . ...
ROW 08 : G#3 00 8 ... ... ... : ... .. . ... ... ... : C-4 00 . ... : B-# 00 4 A0A : ... .. . ...
ROW 09 : ... .. . ... ... ... : --- .. . ... ... ... : ... .. . S02 : ... .. . ... : ... .. . ...
ROW 0A : ... .. . ... ... ... : G#3 00 8 ... ... ... : A#3 00 . ... : ... .. . ... : ... .. . ...
ROW 0B : ... .. . ... ... ... : ... .. . S04 ... ... : ... .. . S02 : ... .. . ... : ... .. . ...
ROW 0C : G-3 00 8 ... S09 ... : G#3 00 8 ... ... ... : ... .. . ... : 6-# 00 8 A07 : ... .. . ...
ROW 0D : G-3 00 8 G05 ... ... : ... .. . S04 ... ... : ... .. . ... : ... .. . A02 : ... .. . ...
ROW 0E : A#3 00 7 G03 ... ... : G-3 00 8 ... ... ... : C-4 00 . ... : ... .. . ... : ... .. . ...
ROW 0F : ... .. . ... ... ... : ... .. . ... ... ... : ... .. . ... : ... .. . ... : ... .. . ...
ROW 10 : --- .. . ... ... ... : --- .. . ... ... ... : ... .. . ... : 1-# 00 A A0C : ... .. . ...
ROW 11 : A#3 00 3 ... ... ... : G-3 00 2 ... ... ... : ... .. . S02 : --- .. . ... : ... .. . ...
ROW 12 : A#3 00 8 ... ... ... : G-3 00 8 ... ... ... : C-3 00 . ... : ... .. . ... : ... .. . ...
ROW 13 : ... .. . ... ... ... : ... .. . ... ... ... : ... .. . S00 : ... .. . ... : ... .. . ...
ROW 14 : G#3 00 8 ... ... ... : --- .. . ... ... ... : C-3 00 . ... : B-# 00 4 A0A : ... .. . ...
ROW 15 : ... .. . ... ... ... : G-3 00 2 ... ... ... : ... .. . S00 : ... .. . ... : ... .. . ...
ROW 16 : ... .. . ... ... ... : ... .. . ... ... ... : C-3 00 . ... : 1-# 00 A A0C : ... .. . ...
ROW 17 : ... .. . ... ... ... : --- .. . ... ... ... : ... .. . S00 : --- .. . ... : ... .. . ...
ROW 18 : G-3 00 8 ... ... ... : G-3 00 8 ... ... ... : C-3 00 . ... : B-# 00 4 A0A : ... .. . ...
ROW 19 : ... .. . ... ... ... : ... .. . S04 ... ... : ... .. . S00 : 3-# 00 9 A0C : ... .. . ...
ROW 1A : --- .. . ... ... ... : G-3 00 8 ... ... ... : C-3 00 . ... : 4-# 00 9 A0C : ... .. . ...
ROW 1B : ... .. . ... ... ... : ... .. . ... ... ... : ... .. . S00 : --- .. . ... : ... .. . ...
ROW 1C : G#3 00 8 ... ... ... : --- .. . ... ... ... : ... .. . ... : 3-# 00 9 A0C : ... .. . ...
ROW 1D : ... .. . ... ... ... : G-3 00 2 ... ... ... : ... .. . ... : --- .. . ... : ... .. . ...
ROW 1E : F-3 00 8 Q22 ... ... : A#3 00 6 ... ... ... : F-3 00 . ... : 2-# 00 9 A0C : ... .. . ...
ROW 1F : ... .. . ... ... ... : ... .. . ... ... ... : ... .. . D00 : --- .. . ... : ... .. . ...
ROW 20 : ... .. . 481 ... ... : ... .. . ... ... ... : ... .. . ... : 1-# 00 A A0C : ... .. . ...
ROW 21 : ... .. . ... ... ... : ... .. . ... ... ... : ... .. . ... : --- .. . ... : ... .. . ...
ROW 22 : ... .. . ... ... ... : ... .. . ... ... ... : ... .. . ... : ... .. . ... : ... .. . ...
ROW 23 : ... .. . ... ... ... : ... .. . ... ... ... : ... .. . ... : ... .. . ... : ... .. . ...
ROW 24 : F-3 00 8 400 ... ... : ... .. . ... ... ... : ... .. . ... : B-# 00 4 A0A : ... .. . ...
ROW 25 : ... .. . ... ... ... : ... .. . ... ... ... : ... .. . ... : ... .. . ... : ... .. . ...
ROW 26 : ... .. . ... ... ... : ... .. . ... ... ... : ... .. . ... : 1-# 00 A A0C : ... .. . ...
ROW 27 : ... .. . ... ... ... : ... .. . ... ... ... : ... .. . ... : --- .. . ... : ... .. . ...
ROW 28 : E-3 00 8 ... ... ... : ... .. . ... ... ... : ... .. . ... : B-# 00 4 A0A : ... .. . ...
ROW 29 : ... .. . ... ... ... : ... .. . ... ... ... : ... .. . ... : ... .. . ... : ... .. . ...
ROW 2A : --- .. . ... ... ... : ... .. . ... ... ... : ... .. . ... : ... .. . ... : ... .. . ...
ROW 2B : ... .. . ... ... ... : ... .. . ... ... ... : ... .. . ... : ... .. . ... : ... .. . ...
ROW 2C : F-3 00 8 ... ... ... : ... .. . ... ... ... : ... .. . ... : 6-# 00 8 A07 : ... .. . ...
ROW 2D : ... .. . ... ... ... : ... .. . ... ... ... : ... .. . ... : ... .. . A02 : ... .. . ...
ROW 2E : C-4 00 8 ... ... ... : ... .. . ... ... ... : ... .. . ... : ... .. . ... : ... .. . ...
ROW 2F : ... .. . ... ... ... : ... .. . ... ... ... : ... .. . ... : ... .. . ... : ... .. . ...
ROW 30 : --- .. . ... ... ... : ... .. . ... ... ... : ... .. . ... : 1-# 00 A A0C : ... .. . ...
ROW 31 : C-4 00 3 ... ... ... : ... .. . ... ... ... : ... .. . ... : --- .. . ... : ... .. . ...
ROW 32 : C-4 00 8 ... ... ... : ... .. . ... ... ... : ... .. . ... : ... .. . ... : ... .. . ...
ROW 33 : ... .. . S04 ... ... : ... .. . ... ... ... : ... .. . ... : ... .. . ... : ... .. . ...
ROW 34 : C-4 00 8 ... ... ... : ... .. . ... ... ... : ... .. . ... : B-# 00 4 A0A : ... .. . ...
ROW 35 : ... .. . S04 ... ... : ... .. . ... ... ... : ... .. . ... : ... .. . ... : ... .. . ...
ROW 36 : C-4 00 8 ... ... ... : ... .. . ... ... ... : ... .. . ... : 1-# 00 A A0C : ... .. . ...
ROW 37 : ... .. . S04 ... ... : ... .. . ... ... ... : ... .. . ... : --- .. . ... : ... .. . ...
ROW 38 : C-4 00 8 ... ... ... : ... .. . ... ... ... : ... .. . ... : B-# 00 4 A0A : ... .. . ...
ROW 39 : ... .. . S04 ... ... : ... .. . ... ... ... : ... .. . ... : ... .. . ... : ... .. . ...
ROW 3A : C-4 00 8 ... ... ... : ... .. . ... ... ... : ... .. . ... : 4-# 00 9 A0C : ... .. . ...
ROW 3B : ... .. . ... ... ... : ... .. . ... ... ... : ... .. . ... : --- .. . ... : ... .. . ...
ROW 3C : --- .. . ... ... ... : ... .. . ... ... ... : ... .. . ... : 3-# 00 9 A0C : ... .. . ...
ROW 3D : C-4 00 3 ... ... ... : ... .. . ... ... ... : ... .. . ... : --- .. . ... : ... .. . ...
ROW 3E : A#3 00 8 Q22 ... ... : ... .. . ... ... ... : ... .. . ... : 9-# 00 9 A06 : ... .. . ...
ROW 3F : ... .. . ... ... ... : ... .. . ... ... ... : ... .. . ... : ... .. . A03 : ... .. . ...

PATTERN 09
ROW 00 : ... .. . ... ... ... : ... .. . ... 472 A00 : ... .. . ... : ... .. . A02 : ... .. . ...
ROW 01 : ... .. . ... ... ... : ... .. . ... ... A01 : ... .. . S02 : ... .. . ... : ... .. . ...
ROW 02 : ... .. . ... ... ... : ... .. . ... ... A00 : F-3 00 . ... : ... .. . ... : ... .. . ...
ROW 03 : ... .. . ... ... ... : ... .. . ... ... A01 : ... .. . S02 : ... .. . ... : ... .. . ...
ROW 04 : A#3 00 8 ... ... ... : G#3 00 7 A01 400 ... : F-3 00 . ... : 6-# 00 8 A07 : ... .. . ...
ROW 05 : ... .. . ... ... ... : ... .. . ... ... ... : ... .. . S02 : ... .. . A02 : ... .. . ...
ROW 06 : ... .. . ... ... ... : --- .. . ... ... ... : F-3 00 . ... : B-# 00 4 A0A : ... .. . ...
ROW 07 : ... .. . ... ... ... : C-3 00 3 ... ... ... : ... .. . S02 : ... .. . ... : ... .. . ...
ROW 08 : G#3 00 8 ... ... ... : ... .. . ... ... ... : F-3 00 . ... : 1-# 00 A A0C : ... .. . ...
ROW 09 : ... .. . ... ... ... : ... .. . ... ... ... : ... .. . S02 : --- .. . ... : ... .. . ...
ROW 0A : ... .. . ... ... ... : A#3 00 7 ... ... ... : F-3 00 . ... : 1-# 00 A A0C : ... .. . ...
ROW 0B : ... .. . ... ... ... : ... .. . ... ... ... : ... .. . S02 : --- .. . ... : ... .. . ...
ROW 0C : A#3 00 8 ... ... ... : F-3 00 5 ... ... ... : F-3 00 . ... : 6-# 00 8 A07 : ... .. . ...
ROW 0D : ... .. . ... ... ... : ... .. . ... ... ... : ... .. . S02 : ... .. . A02 : ... .. . ...
ROW 0E : G#3 00 8 ... ... ... : G#3 00 7 ... ... ... : F-3 00 . ... : B-# 00 4 A0A : ... .. . ...
ROW 0F : ... .. . ... ... ... : ... .. . S05 ... ... : ... .. . S02 : ... .. . ... : ... .. . ...
ROW 10 : ... .. . ... ... ... : A#3 00 3 G05 ... ... : F-3 00 . ... : 1-# 00 A A0C : ... .. . ...
ROW 11 : ... .. . ... ... ... : C-4 00 . G03 ... ... : ... .. . S02 : --- .. . ... : ... .. . ...
ROW 12 : G-3 00 8 ... ... ... : G#2 00 7 ... ... ... : F-3 00 . ... : B-# 00 4 A0A : ... .. . ...
ROW 13 : ... .. . ... ... ... : ... .. . ... ... ... : ... .. . S02 : ... .. . ... : ... .. . ...
ROW 14 : --- .. . ... ... ... : --- .. . ... ... ... : F-3 00 . ... : 6-# 00 8 A07 : ... .. . ...
ROW 15 : ... .. . ... ... ... : G#2 00 2 ... ... ... : ... .. . S02 : ... .. . A02 : ... .. . ...
ROW 16 : F-3 00 8 ... ... ... : ... .. . ... ... ... : F-2 00 . ... : B-# 00 4 A0A : ... .. . ...
ROW 17 : ... .. . ... ... ... : A#3 00 3 ... ... ... : ... .. . S02 : ... .. . ... : ... .. . ...
ROW 18 : --- .. . ... ... ... : G#2 00 7 ... ... ... : F-3 00 . ... : 1-# 00 A A0C : ... .. . ...
ROW 19 : F-3 00 3 ... ... ... : ... .. . ... ... ... : ... .. . S04 : --- .. . ... : ... .. . ...
ROW 1A : C-3 00 8 ... ... ... : --- .. . ... ... ... : D#3 00 . ... : 1-# 00 A A0C : ... .. . ...
ROW 1B : ... .. . ... ... ... : G#2 00 2 ... ... ... : ... .. . S00 : --- .. . ... : ... .. . ...
ROW 1C : ... .. . ... ... ... : ... .. . ... ... ... : ... .. . ... : 6-# 00 8 A07 : ... .. . ...
ROW 1D : ... .. . ... ... ... : G-3 00 3 ... ... ... : ... .. . ... : ... .. . A02 : ... .. . ...
ROW 1E : F-3 00 8 Q33 ... ... : A#3 00 7 ... ... ... : C#3 00 . ... : 9-# 00 9 A06 : ... .. . ...
ROW 1F : ... .. . ... ... ... : ... .. . ... ... ... : ... .. . ... : ... .. . A03 : ... .. . ...
ROW 20 : ... .. . ... 481 ... : ... .. . ... 472 A00 : ... .. . ... : ... .. . ... : ... .. . ...
ROW 21 : ... .. . ... ... ... : ... .. . ... ... A01 : ... .. . S02 : ... .. . ... : ... .. . ...
ROW 22 : ... .. . ... ... ... : ... .. . ... ... A00 : C#3 00 . ... : ... .. . ... : ... .. . ...
ROW 23 : ... .. . ... ... ... : ... .. . ... ... A01 : ... .. . S02 : ... .. . ... : ... .. . ...
ROW 24 : G-3 00 8 ... 400 ... : G#3 00 7 ... 400 ... : C#3 00 . ... : ... .. . ... : ... .. . ...
ROW 25 : ... .. . ... ... ... : ... .. . ... ... ... : ... .. . S02 : ... .. . ... : ... .. . ...
ROW 26 : F-3 00 8 ... ... ... : --- .. . ... ... ... : C#3 00 . ... : ... .. . ... : ... .. . ...
ROW 27 : ... .. . ... ... ... : G-3 00 3 ... ... ... : ... .. . S02 : ... .. . ... : ... .. . ...
ROW 28 : --- .. . ... ... ... : ... .. . ... ... ... : C#3 00 . ... : ... .. . ... : ... .. . ...
ROW 29 : ... .. . ... ... ... : F-3 00 3 ... ... ... : ... .. . S02 : ... .. . ... : ... .. . ...
ROW 2A : D#3 00 8 ... ... ... : A#3 00 7 ... ... ... : C#3 00 . ... : ... .. . ... : ... .. . ...
ROW 2B : ... .. . ... ... ... : ... .. . ... ... ... : ... .. . S02 : ... .. . ... : ... .. . ...
ROW 2C : --- .. . ... ... ... : A#3 00 5 ... ... ... : C#3 00 . ... : ... .. . ... : ... .. . ...
ROW 2D : D#3 00 3 ... ... ... : ... .. . ... ... ... : ... .. . S02 : ... .. . ... : ... .. . ...
ROW 2E : D#3 00 8 Q22 ... ... : G#3 00 5 ... ... ... : C#3 00 . ... : ... .. . ... : ... .. . ...
ROW 2F : ... .. . ... ... ... : ... .. . ... ... ... : ... .. . S02 : ... .. . ... : ... .. . ...
ROW 30 : ... .. . ... 482 ... : --- .. . ... ... ... : C#3 00 . ... : ... .. . ... : ... .. . ...
ROW 31 : ... .. . ... ... ... : F-3 00 3 ... ... ... : ... .. . S02 : ... .. . ... : ... .. . ...
ROW 32 : ... .. . ... ... ... : G#2 00 7 ... ... ... : C#3 00 . ... : ... .. . ... : ... .. . ...
ROW 33 : ... .. . ... ... ... : ... .. . ... ... ... : ... .. . S02 : ... .. . ... : ... .. . ...
ROW 34 : ... .. . ... ... ... : --- .. . ... ... ... : C#3 00 . ... : ... .. . ... : ... .. . ...
ROW 35 : ... .. . ... ... ... : G#2 00 3 ... ... ... : ... .. . S02 : ... .. . ... : ... .. . ...
ROW 36 : F-3 00 8 ... 400 ... : ... .. . ... ... ... : C#3 00 . ... : ... .. . ... : ... .. . ...
ROW 37 : ... .. . ... ... ... : F-3 00 2 ... ... ... : ... .. . S02 : ... .. . ... : ... .. . ...
ROW 38 : G-3 00 8 ... ... ... : G#2 00 7 ... ... ... : C#3 00 . ... : ... .. . ... : ... .. . ...
ROW 39 : ... .. . ... ... ... : ... .. . ... ... ... : ... .. . S04 : ... .. . ... : ... .. . ...
ROW 3A : G#3 00 8 ... ... ... : --- .. . ... ... ... : C-3 00 . ... : ... .. . ... : ... .. . ...
ROW 3B : ... .. . ... ... ... : G-3 00 3 ... ... ... : ... .. . S02 : ... .. . ... : ... .. . ...
ROW 3C : --- .. . ... ... ... : ... .. . ... ... ... : ... .. . ... : ... .. . ... : ... .. . ...
ROW 3D : ... .. . ... ... ... : G#3 00 3 ... ... ... : ... .. . ... : ... .. . ... : ... .. . ...
ROW 3E : D#3 00 6 ... ... ... : C-4 00 6 ... ... ... : D#3 00 . ... : ... .. . ... : ... .. . ...
ROW 3F : ... .. . ... ... ... : ... .. . ... ... ... : ... .. . ... : ... .. . ... : ... .. . ...

PATTERN 0A
ROW 00 : ... .. . 472 A00 ... : ... .. . ... 472 A00 : ... .. . ... : 1-# 00 A A0C : ... .. . ...
ROW 01 : ... .. . ... A01 ... : ... .. . ... ... A01 : ... .. . S02 : --- .. . ... : ... .. . ...
ROW 02 : ... .. . ... A00 ... : ... .. . ... ... A00 : D#3 00 . ... : B-# 00 4 A0A : ... .. . ...
ROW 03 : ... .. . ... A01 ... : ... .. . ... ... A01 : ... .. . S02 : ... .. . ... : ... .. . ...
ROW 04 : A#3 00 8 400 ... ... : F-3 00 7 ... 400 ... : D#3 00 . ... : 6-# 00 8 A07 : ... .. . ...
ROW 05 : ... .. . ... ... ... : ... .. . ... ... ... : ... .. . S02 : ... .. . A02 : ... .. . ...
ROW 06 : ... .. . ... ... ... : --- .. . ... ... ... : D#3 00 . ... : B-# 00 4 A0A : ... .. . ...
ROW 07 : ... .. . ... ... ... : A#3 00 3 ... ... ... : ... .. . S02 : ... .. . ... : ... .. . ...
ROW 08 : C-4 00 8 ... ... ... : ... .. . ... ... ... : D#3 00 . ... : 1-# 00 A A0C : ... .. . ...
ROW 09 : ... .. . ... ... ... : ... .. . ... ... ... : ... .. . S02 : --- .. . ... : ... .. . ...
ROW 0A : ... .. . ... ... ... : C-4 00 7 ... ... ... : D#3 00 . ... : 1-# 00 A A0C : ... .. . ...
ROW 0B : ... .. . ... ... ... : ... .. . S04 ... ... : ... .. . S02 : --- .. . ... : ... .. . ...
ROW 0C : C#4 00 8 ... ... ... : C-4 00 7 ... ... ... : D#3 00 . ... : 6-# 00 8 A07 : ... .. . ...
ROW 0D : ... .. . ... ... ... : ... .. . S04 ... ... : ... .. . S02 : ... .. . A02 : ... .. . ...
ROW 0E : C-4 00 8 ... ... ... : F-3 00 5 ... ... ... : D#3 00 . ... : B-# 00 4 A0A : ... .. . ...
ROW 0F : ... .. . ... ... ... : ... .. . ... ... ... : ... .. . S02 : ... .. . ... : ... .. . ...
ROW 10 : --- .. . ... ... ... : --- .. . ... ... ... : E-3 00 . ... : 1-# 00 A A0C : ... .. . ...
ROW 11 : C-4 00 3 ... ... ... : F-3 00 2 ... ... ... : ... .. . S02 : --- .. . ... : ... .. . ...
ROW 12 : C-4 00 8 ... ... ... : F-2 00 5 ... ... ... : E-3 00 . ... : B-# 00 4 A0A : ... .. . ...
ROW 13 : ... .. . ... ... ... : ... .. . ... ... ... : ... .. . S02 : ... .. . ... : ... .. . ...
ROW 14 : A#3 00 8 ... ... ... : --- .. . ... ... ... : E-3 00 . ... : 6-# 00 8 A07 : ... .. . ...
ROW 15 : ... .. . ... ... ... : A#3 00 3 ... ... ... : ... .. . S02 : ... .. . A02 : ... .. . ...
ROW 16 : ... .. . ... ... ... : ... .. . ... ... ... : E-3 00 . ... : B-# 00 4 A0A : ... .. . ...
ROW 17 : ... .. . ... ... ... : G#3 00 3 ... ... ... : ... .. . S02 : ... .. . ... : ... .. . ...
ROW 18 : G#3 00 8 ... ... ... : A#2 00 7 ... ... ... : E-3 00 . ... : 4-# 00 A A0C : ... .. . ...
ROW 19 : ... .. . ... ... ... : ... .. . ... ... ... : ... .. . S04 : --- .. . ... : ... .. . ...
ROW 1A : --- .. . ... ... ... : --- .. . ... ... ... : E-3 00 . ... : 3-# 00 A A0C : ... .. . ...
ROW 1B : G#3 00 3 ... ... ... : G-3 00 3 ... ... ... : ... .. . S02 : --- .. . ... : ... .. . ...
ROW 1C : E-3 00 8 ... ... ... : ... .. . ... ... ... : ... .. . ... : 2-# 00 A A0C : ... .. . ...
ROW 1D : F-3 00 8 G05 ... ... : --- .. . ... ... ... : ... .. . ... : --- .. . ... : ... .. . ...
ROW 1E : G-3 00 7 G03 ... ... : F-3 00 7 ... ... ... : F-3 00 . ... : 9-# 00 A A06 : ... .. . ...
ROW 1F : ... .. . ... ... ... : ... .. . ... ... ... : ... .. . ... : ... .. . A03 : ... .. . ...
ROW 20 : ... .. . ... ... ... : ... .. . ... 472 A00 : ... .. . ... : ... .. . A02 : ... .. . ...
ROW 21 : ... .. . ... ... ... : ... .. . ... ... A01 : ... .. . ... : ... .. . A01 : ... .. . ...
ROW 22 : ... .. . ... ... ... : ... .. . ... ... A00 : ... .. . ... : ... .. . ... : ... .. . ...
ROW 23 : ... .. . ... ... ... : ... .. . S04 ... A01 : ... .. . ... : ... .. . ... : ... .. . ...
ROW 24 : F-3 00 8 ... ... ... : G-3 00 7 ... 400 ... : ... .. . ... : 9-# 00 A A06 : ... .. . ...
ROW 25 : ... .. . ... ... ... : ... .. . ... ... ... : ... .. . ... : ... .. . A03 : ... .. . ...
ROW 26 : ... .. . ... 482 ... : --- .. . ... ... ... : ... .. . ... : ... .. . A02 : ... .. . ...
ROW 27 : ... .. . ... ... ... : F-3 00 3 ... ... ... : ... .. . ... : ... .. . A01 : ... .. . ...
ROW 28 : ... .. . ... ... ... : ... .. . ... ... ... : ... .. . ... : ... .. . ... : ... .. . ...
ROW 29 : ... .. . ... ... ... : ... .. . ... ... ... : ... .. . ... : ... .. . ... : ... .. . ...
ROW 2A : ... .. . ... A00 ... : F-3 00 7 ... ... ... : ... .. . ... : ... .. . ... : ... .. . ...
ROW 2B : ... .. . ... A01 ... : ... .. . S04 ... ... : ... .. . ... : ... .. . ... : ... .. . ...
ROW 2C : ... .. . ... A00 ... : C-3 00 5 ... ... ... : ... .. . ... : ... .. . ... : ... .. . ...
ROW 2D : ... .. . ... A01 ... : ... .. . S04 ... ... : ... .. . ... : ... .. . ... : ... .. . ...
ROW 2E : ... .. . ... A00 ... : G-3 00 7 ... ... ... : ... .. . ... : ... .. . ... : ... .. . ...
ROW 2F : ... .. . ... A01 ... : ... .. . ... ... ... : ... .. . ... : ... .. . ... : ... .. . ...
ROW 30 : --- .. . ... ... ... : --- .. . ... ... ... : ... .. . ... : ... .. . ... : ... .. . ...
ROW 31 : ... .. . ... ... ... : G-3 00 2 ... ... ... : ... .. . ... : ... .. . ... : ... .. . ...
ROW 32 : C-3 00 6 A01 400 ... : G-3 00 7 ... ... ... : ... .. . ... : 1-# 00 A A0C : ... .. . ...
ROW 33 : ... .. . ... ... ... : ... .. . S04 ... ... : ... .. . ... : --- .. . ... : ... .. . ...
ROW 34 : --- .. . ... ... ... : G-3 00 7 ... ... ... : ... .. . ... : 4-# 00 A A0C : ... .. . ...
ROW 35 : C-3 00 2 ... ... ... : ... .. . S04 ... ... : ... .. . ... : --- .. . ... : ... .. . ...
ROW 36 : ... .. . ... ... ... : G-3 00 7 ... ... ... : ... .. . ... : 4-# 00 A A0C : ... .. . ...
ROW 37 : --- .. . ... ... ... : ... .. . S04 ... ... : ... .. . S02 : --- .. . ... : ... .. . ...
ROW 38 : C-3 00 5 ... ... ... : G-3 00 7 ... ... ... : F-2 00 . ... : 3-# 00 A A0C : ... .. . ...
ROW 39 : ... .. . S04 ... ... : ... .. . S04 ... ... : ... .. . S02 : --- .. . ... : ... .. . ...
ROW 3A : C-3 00 6 ... ... ... : G-3 00 7 ... ... ... : F-3 00 . ... : 2-# 00 A A0C : ... .. . ...
ROW 3B : ... .. . ... ... ... : ... .. . ... ... ... : ... .. . S02 : --- .. . ... : ... .. . ...
ROW 3C : --- .. . ... ... ... : --- .. . ... ... ... : ... .. . ... : 2-# 00 A A0C : ... .. . ...
ROW 3D : C-3 00 2 ... ... ... : G-3 00 2 ... ... ... : ... .. . ... : --- .. . ... : ... .. . ...
ROW 3E : F-3 00 6 ... ... ... : A#3 00 7 P7F ... ... : F-3 00 . ... : 9-# 00 A A06 : ... .. . ...
ROW 3F : ... .. . ... ... ... : ... .. . ... ... ... : ... .. . B02 : ... .. . A03 : ... .. . ...

PATTERN 0B
ROW 00 : ... .. . ... 481 ... : ... .. . ... 472 A00 : ... .. . ... : ... .. . ... : ... .. . ...
ROW 01 : ... .. . ... ... ... : ... .. . ... ... A01 : ... .. . ... : ... .. . ... : ... .. . ...
ROW 02 : ... .. . ... ... A00 : ... .. . ... ... A00 : ... .. . ... : ... .. . ... : ... .. . ...
ROW 03 : ... .. . ... ... ... : ... .. . ... ... A01 : ... .. . ... : ... .. . ... : ... .. . ...
ROW 04 : ... .. . ... ... ... : G#3 00 7 P80 400 ... : ... .. . ... : ... .. . ... : ... .. . ...
ROW 05 : ... .. . ... ... ... : ... .. . ... ... ... : ... .. . ... : ... .. . ... : ... .. . ...
ROW 06 : ... .. . ... 482 ... : --- .. . ... ... ... : ... .. . ... : ... .. . ... : ... .. . ...
ROW 07 : ... .. . ... ... ... : A#3 00 3 ... ... ... : ... .. . ... : ... .. . ... : ... .. . ...
ROW 08 : ... .. . ... ... ... : ... .. . ... ... ... : ... .. . ... : ... .. . ... : ... .. . ...
ROW 09 : ... .. . ... ... ... : ... .. . ... ... ... : ... .. . ... : ... .. . ... : ... .. . ...
ROW 0A : ... .. . ... ... ... : A#3 00 7 ... ... ... : ... .. . ... : ... .. . ... : ... .. . ...
ROW 0B : ... .. . ... ... ... : ... .. . ... ... ... : ... .. . ... : ... .. . ... : ... .. . ...
ROW 0C : ... .. . ... ... ... : F-3 00 7 ... ... ... : ... .. . ... : ... .. . ... : ... .. . ...
ROW 0D : ... .. . ... ... ... : ... .. . ... ... ... : ... .. . ... : ... .. . ... : ... .. . ...
ROW 0E : ... .. . ... 483 ... : F-3 00 7 ... ... ... : ... .. . ... : ... .. . ... : ... .. . ...
ROW 0F : ... .. . ... ... ... : ... .. . ... ... ... : ... .. . ... : ... .. . ... : ... .. . ...
ROW 10 : ... .. . ... ... ... : --- .. . ... ... ... : ... .. . ... : ... .. . ... : ... .. . ...
ROW 11 : ... .. . ... ... ... : G#3 00 3 ... ... ... : ... .. . ... : ... .. . ... : ... .. . ...
ROW 12 : ... .. . ... ... ... : G#2 00 7 ... ... ... : ... .. . ... : ... .. . ... : ... .. . ...
ROW 13 : ... .. . ... ... ... : ... .. . ... ... ... : ... .. . ... : ... .. . ... : ... .. . ...
ROW 14 : ... .. . ... ... ... : --- .. . ... ... ... : ... .. . ... : ... .. . ... : ... .. . ...
ROW 15 : ... .. . ... ... ... : G-3 00 3 ... ... ... : ... .. . ... : ... .. . ... : ... .. . ...
ROW 16 : ... .. . ... A01 ... : ... .. . ... ... ... : ... .. . ... : ... .. . ... : ... .. . ...
ROW 17 : ... .. . ... ... ... : --- .. . ... ... ... : ... .. . ... : ... .. . ... : ... .. . ...
ROW 18 : ... .. . ... ... ... : G#2 00 7 ... ... ... : ... .. . ... : ... .. . ... : ... .. . ...
ROW 19 : ... .. . ... ... ... : ... .. . ... ... ... : ... .. . ... : ... .. . ... : ... .. . ...
ROW 1A : ... .. . ... ... ... : --- .. . ... ... ... : ... .. . ... : ... .. . ... : ... .. . ...
ROW 1B : ... .. . ... ... ... : G#2 00 2 ... ... ... : ... .. . ... : ... .. . ... : ... .. . ...
ROW 1C : --- .. . ... ... ... : ... .. . ... ... ... : ... .. . ... : ... .. . ... : ... .. . ...
ROW 1D : ... .. . ... ... ... : C-3 00 3 ... ... ... : ... .. . ... : ... .. . ... : ... .. . ...
ROW 1E : ... .. . ... ... ... : A#3 00 7 ... ... ... : ... .. . ... : ... .. . ... : ... .. . ...
ROW 1F : ... .. . ... ... ... : ... .. . ... ... ... : ... .. . ... : ... .. . ... : ... .. . ...
ROW 20 : ... .. . ... ... ... : ... .. . ... 472 A00 : ... .. . ... : ... .. . ... : ... .. . ...
ROW 21 : ... .. . ... ... ... : ... .. . ... ... A01 : ... .. . ... : ... .. . ... : ... .. . ...
ROW 22 : ... .. . ... ... ... : ... .. . ... ... A00 : ... .. . ... : ... .. . ... : ... .. . ...
ROW 23 : ... .. . ... ... ... : ... .. . ... ... A01 : ... .. . ... : ... .. . ... : ... .. . ...
ROW 24 : ... .. . ... ... ... : G#3 00 7 ... 400 ... : ... .. . ... : ... .. . ... : ... .. . ...
ROW 25 : ... .. . ... ... ... : ... .. . ... ... ... : ... .. . ... : ... .. . ... : ... .. . ...
ROW 26 : ... .. . ... ... ... : --- .. . ... ... ... : ... .. . ... : ... .. . ... : ... .. . ...
ROW 27 : ... .. . ... ... ... : G-3 00 3 ... ... ... : ... .. . ... : ... .. . ... : ... .. . ...
ROW 28 : ... .. . ... ... ... : ... .. . ... ... ... : ... .. . ... : ... .. . ... : ... .. . ...
ROW 29 : ... .. . ... ... ... : F-3 00 3 ... ... ... : ... .. . ... : ... .. . ... : ... .. . ...
ROW 2A : ... .. . ... ... ... : A#3 00 7 ... ... ... : ... .. . ... : ... .. . ... : ... .. . ...
ROW 2B : ... .. . ... ... ... : ... .. . ... ... ... : ... .. . ... : ... .. . ... : ... .. . ...
ROW 2C : ... .. . ... ... ... : G#3 00 7 ... ... ... : ... .. . ... : ... .. . ... : ... .. . ...
ROW 2D : ... .. . ... ... ... : ... .. . ... ... ... : ... .. . ... : ... .. . ... : ... .. . ...
ROW 2E : ... .. . ... ... ... : G#3 00 7 ... ... ... : ... .. . ... : ... .. . ... : ... .. . ...
ROW 2F : ... .. . ... ... ... : ... .. . ... ... ... : ... .. . ... : ... .. . ... : ... .. . ...
ROW 30 : ... .. . ... ... ... : --- .. . ... ... ... : ... .. . ... : ... .. . ... : ... .. . ...
ROW 31 : ... .. . ... ... ... : F-3 00 3 ... ... ... : ... .. . ... : ... .. . ... : ... .. . ...
ROW 32 : ... .. . ... ... ... : G#2 00 7 ... ... ... : ... .. . ... : ... .. . ... : ... .. . ...
ROW 33 : ... .. . ... ... ... : ... .. . ... ... ... : ... .. . ... : ... .. . ... : ... .. . ...
ROW 34 : ... .. . ... ... ... : --- .. . ... ... ... : ... .. . ... : ... .. . ... : ... .. . ...
ROW 35 : ... .. . ... ... ... : G#2 00 2 ... ... ... : ... .. . ... : ... .. . ... : ... .. . ...
ROW 36 : ... .. . ... ... ... : ... .. . ... ... ... : ... .. . ... : ... .. . ... : ... .. . ...
ROW 37 : ... .. . ... ... ... : --- .. . ... ... ... : ... .. . ... : ... .. . ... : ... .. . ...
ROW 38 : ... .. . ... ... ... : G#2 00 7 ... ... ... : ... .. . ... : ... .. . ... : ... .. . ...
ROW 39 : ... .. . ... ... ... : ... .. . ... ... ... : ... .. . ... : ... .. . ... : ... .. . ...
ROW 3A : ... .. . ... ... ... : --- .. . ... ... ... : ... .. . ... : ... .. . ... : ... .. . ...
ROW 3B : ... .. . ... ... ... : G-3 00 3 ... ... ... : ... .. . ... : ... .. . ... : ... .. . ...
ROW 3C : ... .. . ... ... ... : ... .. . ... ... ... : ... .. . ... : ... .. . ... : ... .. . ...
ROW 3D : ... .. . ... ... ... : G#3 00 3 ... ... ... : ... .. . ... : ... .. . ... : ... .. . ...
ROW 3E : ... .. . ... ... ... : G#3 00 6 ... ... ... : ... .. . ... : ... .. . ... : ... .. . ...
ROW 3F : ... .. . ... ... ... : ... .. . ... ... ... : ... .. . ... : ... .. . ... : ... .. . ...

PATTERN 0C
ROW 00 : ... .. . ... ... ... : ... .. . 472 A00 ... : ... .. . ... : ... .. . ... : ... .. . ...
ROW 01 : ... .. . ... ... ... : ... .. . ... A01 ... : ... .. . ... : ... .. . ... : ... .. . ...
ROW 02 : ... .. . ... ... ... : ... .. . ... A00 ... : ... .. . ... : ... .. . ... : ... .. . ...
ROW 03 : ... .. . ... ... ... : ... .. . ... A01 ... : ... .. . ... : ... .. . ... : ... .. . ...
ROW 04 : ... .. . ... ... ... : G-3 00 7 400 ... ... : ... .. . ... : ... .. . ... : ... .. . ...
ROW 05 : ... .. . ... ... ... : ... .. . ... ... ... : ... .. . ... : ... .. . ... : ... .. . ...
ROW 06 : ... .. . ... ... ... : --- .. . ... ... ... : ... .. . ... : ... .. . ... : ... .. . ...
ROW 07 : ... .. . ... ... ... : A#3 00 3 ... ... ... : ... .. . ... : ... .. . ... : ... .. . ...
ROW 08 : ... .. . ... ... ... : ... .. . ... ... ... : ... .. . ... : ... .. . ... : ... .. . ...
ROW 09 : ... .. . ... ... ... : ... .. . ... ... ... : ... .. . ... : ... .. . ... : ... .. . ...
ROW 0A : ... .. . ... ... ... : G#3 00 7 ... ... ... : ... .. . ... : ... .. . ... : ... .. . ...
ROW 0B : ... .. . ... ... ... : ... .. . S04 ... ... : ... .. . ... : ... .. . ... : ... .. . ...
ROW 0C : ... .. . ... ... ... : G#3 00 7 ... ... ... : ... .. . ... : ... .. . ... : ... .. . ...
ROW 0D : ... .. . ... ... ... : ... .. . S04 ... ... : ... .. . ... : ... .. . ... : ... .. . ...
ROW 0E : ... .. . ... ... ... : G-3 00 7 ... ... ... : ... .. . ... : ... .. . ... : ... .. . ...
ROW 0F : ... .. . ... ... ... : ... .. . ... ... ... : ... .. . ... : ... .. . ... : ... .. . ...
ROW 10 : ... .. . ... ... ... : --- 00 . ... ... ... : ... .. . ... : ... .. . ... : ... .. . ...
ROW 11 : ... .. . ... ... ... : G-3 00 2 ... ... ... : ... .. . ... : ... .. . ... : ... .. . ...
ROW 12 : ... .. . ... ... ... : G-3 00 7 ... ... ... : ... .. . ... : ... .. . ... : ... .. . ...
ROW 13 : ... .. . ... ... ... : ... .. . ... ... ... : ... .. . ... : ... .. . ... : ... .. . ...
ROW 14 : ... .. . ... ... ... : --- .. . ... ... ... : ... .. . ... : ... .. . ... : ... .. . ...
ROW 15 : ... .. . ... ... ... : C-4 00 3 ... ... ... : ... .. . ... : ... .. . ... : ... .. . ...
ROW 16 : ... .. . ... ... ... : ... .. . ... ... ... : ... .. . ... : ... .. . ... : ... .. . ...
ROW 17 : ... .. . ... ... ... : A#3 00 3 ... ... ... : ... .. . ... : ... .. . ... : ... .. . ...
ROW 18 : ... .. . ... ... ... : G-3 00 7 ... ... ... : ... .. . ... : ... .. . ... : ... .. . ...
ROW 19 : ... .. . ... ... ... : ... .. . ... ... ... : ... .. . ... : ... .. . ... : ... .. . ...
ROW 1A : ... .. . ... ... ... : --- .. . ... ... ... : ... .. . ... : ... .. . ... : ... .. . ...
ROW 1B : ... .. . ... ... ... : G-3 00 2 ... ... ... : ... .. . ... : ... .. . ... : ... .. . ...
ROW 1C : ... .. . ... ... ... : G-3 00 7 ... ... ... : ... .. . ... : ... .. . ... : ... .. . ...
ROW 1D : ... .. . ... ... ... : ... .. . S04 ... ... : ... .. . ... : ... .. . ... : ... .. . ...
ROW 1E : ... .. . ... ... ... : A#3 00 7 ... ... ... : ... .. . ... : ... .. . ... : ... .. . ...
ROW 1F : ... .. . ... ... ... : ... .. . ... ... ... : ... .. . ... : ... .. . ... : ... .. . ...
ROW 20 : ... .. . ... ... ... : ... .. . ... 472 ... : ... .. . ... : ... .. . ... : ... .. . ...
ROW 21 : ... .. . ... ... ... : ... .. . ... ... ... : ... .. . ... : ... .. . ... : ... .. . ...
ROW 22 : ... .. . ... ... ... : ... .. . ... ... ... : ... .. . ... : ... .. . ... : ... .. . ...
ROW 23 : ... .. . ... ... ... : ... .. . ... ... ... : ... .. . ... : ... .. . ... : ... .. . ...
ROW 24 : ... .. . ... ... ... : G#3 00 7 ... 400 ... : ... .. . ... : ... .. . ... : ... .. . ...
ROW 25 : ... .. . ... ... ... : ... .. . ... ... ... : ... .. . ... : ... .. . ... : ... .. . ...
ROW 26 : ... .. . ... ... ... : ... .. . ... 472 ... : ... .. . ... : ... .. . ... : ... .. . ...
ROW 27 : ... .. . ... ... ... : ... .. . ... ... ... : ... .. . ... : ... .. . ... : ... .. . ...
ROW 28 : ... .. . ... ... ... : ... .. . ... ... ... : ... .. . ... : ... .. . ... : ... .. . ...
ROW 29 : ... .. . ... ... ... : ... .. . ... ... ... : ... .. . ... : ... .. . ... : ... .. . ...
ROW 2A : ... .. . ... ... ... : ... .. . A00 ... ... : ... .. . ... : ... .. . ... : ... .. . ...
ROW 2B : ... .. . ... ... ... : ... .. . A01 ... ... : ... .. . ... : ... .. . ... : ... .. . ...
ROW 2C : ... .. . ... ... ... : ... .. . A00 ... ... : ... .. . ... : ... .. . ... : ... .. . ...
ROW 2D : ... .. . ... ... ... : ... .. . A01 ... ... : ... .. . ... : ... .. . ... : ... .. . ...
ROW 2E : ... .. . ... ... ... : ... .. . A00 ... ... : ... .. . ... : ... .. . ... : ... .. . ...
ROW 2F : ... .. . ... ... ... : ... .. . A01 ... ... : ... .. . ... : ... .. . ... : ... .. . ...
ROW 30 : ... .. . ... ... ... : --- .. . ... ... ... : ... .. . ... : ... .. . ... : ... .. . ...
ROW 31 : ... .. . ... ... ... : ... .. . ... ... ... : ... .. . ... : ... .. . ... : ... .. . ...
ROW 32 : ... .. . ... ... ... : F-3 00 6 A01 400 ... : ... .. . ... : ... .. . ... : ... .. . ...
ROW 33 : ... .. . ... ... ... : ... .. . ... ... ... : ... .. . ... : ... .. . ... : ... .. . ...
ROW 34 : ... .. . ... ... ... : --- .. . ... ... ... : ... .. . ... : ... .. . ... : ... .. . ...
ROW 35 : ... .. . ... ... ... : F-3 00 2 ... ... ... : ... .. . ... : ... .. . ... : ... .. . ...
ROW 36 : ... .. . ... ... ... : ... .. . ... ... ... : ... .. . ... : ... .. . ... : ... .. . ...
ROW 37 : ... .. . ... ... ... : --- .. . ... ... ... : ... .. . ... : ... .. . ... : ... .. . ...
ROW 38 : ... .. . ... ... ... : F-3 00 6 ... ... ... : ... .. . ... : ... .. . ... : ... .. . ...
ROW 39 : ... .. . ... ... ... : ... .. . S04 ... ... : ... .. . ... : ... .. . ... : ... .. . ...
ROW 3A : ... .. . ... ... ... : F-3 00 7 ... ... ... : ... .. . ... : ... .. . ... : ... .. . ...
ROW 3B : ... .. . ... ... ... : ... .. . ... ... ... : ... .. . ... : ... .. . ... : ... .. . ...
ROW 3C : ... .. . ... ... ... : --- .. . ... ... ... : ... .. . ... : ... .. . ... : ... .. . ...
ROW 3D : ... .. . ... ... ... : F-3 00 2 ... ... ... : ... .. . ... : ... .. . ... : ... .. . ...
ROW 3E : ... .. . ... ... ... : A#3 00 6 ... ... ... : ... .. . ... : ... .. . ... : ... .. . ...
ROW 3F : ... .. . ... ... ... : ... .. . ... ... ... : ... .. . ... : ... .. . ... : ... .. . ...

TRACK  64   6 150 "Chun Li"
COLUMNS : 3 3 1 1 1

ORDER 00 : 00 00 00 00 00
ORDER 01 : 01 00 01 01 00
ORDER 02 : 02 01 02 01 00
ORDER 03 : 03 02 03 02 01
ORDER 04 : 04 03 04 03 00
ORDER 05 : 05 04 05 01 00
ORDER 06 : 06 05 06 01 00
ORDER 07 : 07 06 07 04 02
ORDER 08 : 08 07 08 01 00
ORDER 09 : 09 00 09 05 00

PATTERN 00
ROW 00 : D-3 00 6 A05 V00 400 : A-2 00 7 A05 V00 ... : ... .. . ... : ... .. . ... : ... .. . F06
ROW 01 : D-3 00 6 ... ... ... : A-2 00 7 ... ... ... : ... .. . ... : ... .. . ... : ... .. . F07
ROW 02 : C-3 00 6 ... ... ... : G-2 00 7 ... ... ... : ... .. . ... : A-# 00 3 A06 : ... .. . F06
ROW 03 : C-3 00 6 ... ... ... : G-2 00 7 ... ... ... : ... .. . ... : ... .. . ... : ... .. . F07
ROW 04 : D-3 00 6 ... ... ... : A-2 00 7 ... ... ... : ... .. . ... : 1-# 00 A A0C : ... .. . F06
ROW 05 : ... .. . ... ... ... : ... .. . ... ... ... : ... .. . ... : --- .. . ... : ... .. . F07
ROW 06 : F-3 00 8 ... ... ... : C-3 00 9 ... ... ... : ... .. . ... : A-# 00 3 A06 : ... .. . F06
ROW 07 : ... .. . ... ... ... : ... .. . ... ... ... : ... .. . ... : ... .. . ... : ... .. . F07
ROW 08 : D-3 00 6 ... ... ... : A-2 00 7 ... ... ... : ... .. . ... : ... .. . ... : ... .. . F06
ROW 09 : D-3 00 6 ... ... ... : A-2 00 7 ... ... ... : ... .. . ... : ... .. . ... : ... .. . F07
ROW 0A : C-3 00 6 ... ... ... : G-2 00 7 ... ... ... : ... .. . ... : A-# 00 3 A06 : ... .. . F06
ROW 0B : C-3 00 6 ... ... ... : G-2 00 7 ... ... ... : ... .. . ... : ... .. . ... : ... .. . F07
ROW 0C : D-3 00 6 ... ... ... : A-2 00 7 ... ... ... : ... .. . ... : 1-# 00 A A0C : ... .. . F06
ROW 0D : A-3 00 6 ... ... ... : E-3 00 7 ... ... ... : ... .. . ... : --- .. . ... : ... .. . F07
ROW 0E : G-3 00 8 ... ... ... : D-3 00 9 ... ... ... : ... .. . ... : A-# 00 3 A06 : ... .. . F06
ROW 0F : ... .. . ... ... ... : ... .. . ... ... ... : ... .. . ... : ... .. . ... : ... .. . F07
ROW 10 : D-3 00 6 ... ... ... : A-2 00 7 ... ... ... : ... .. . ... : ... .. . ... : ... .. . F06
ROW 11 : D-3 00 6 ... ... ... : A-2 00 7 ... ... ... : ... .. . ... : ... .. . ... : ... .. . F07
ROW 12 : C-3 00 6 ... ... ... : G-2 00 7 ... ... ... : ... .. . ... : A-# 00 3 A06 : ... .. . F06
ROW 13 : C-3 00 6 ... ... ... : G-2 00 7 ... ... ... : ... .. . ... : ... .. . ... : ... .. . F07
ROW 14 : D-3 00 6 ... ... ... : A-2 00 7 ... ... ... : ... .. . ... : 1-# 00 A A0C : ... .. . F06
ROW 15 : ... .. . ... ... ... : ... .. . ... ... ... : ... .. . ... : --- .. . ... : ... .. . F07
ROW 16 : F-3 00 8 ... ... ... : C-3 00 9 ... ... ... : ... .. . ... : A-# 00 3 A06 : ... .. . F06
ROW 17 : ... .. . ... ... ... : ... .. . ... ... ... : ... .. . ... : ... .. . ... : ... .. . F07
ROW 18 : D-3 00 6 ... ... ... : A-2 00 7 ... ... ... : ... .. . ... : ... .. . ... : ... .. . F06
ROW 19 : D-3 00 6 ... ... ... : A-2 00 7 ... ... ... : D-3 00 . ... : ... .. . ... : ... .. . F07
ROW 1A : C-3 00 6 ... ... ... : G-2 00 7 ... ... ... : ... .. . S04 : 1-# 00 A A0C : ... .. . F06
ROW 1B : C-3 00 6 ... ... ... : G-2 00 7 ... ... ... : C-3 00 . S05 : --- .. . ... : ... .. . F07
ROW 1C : G-3 00 7 V02 A01 ... : A-2 00 7 ... ... ... : A-2 00 . S04 : 6-# 00 8 A06 : ... .. . F06
ROW 1D : ... .. . ... ... ... : E-3 00 7 ... ... ... : G-2 00 . S05 : 3-# 00 A A0C : ... .. . F07
ROW 1E : ... .. . ... ... ... : D-3 00 7 ... ... ... : F-2 00 . S04 : 2-# 00 A A0C : ... .. . F06
ROW 1F : ... .. . ... ... D00 : C-3 00 7 ... ... ... : C-2 00 . S05 : --- .. . ... : ... .. . F07
ROW 20 : ... .. . ... ... ... : A-2 00 7 A05 ... ... : ... .. . ... : ... .. . ... : ... .. . F06
ROW 21 : ... .. . ... ... ... : A-2 00 7 ... ... ... : ... .. . ... : ... .. . ... : ... .. . F07
ROW 22 : ... .. . ... ... ... : G-2 00 7 ... ... ... : ... .. . ... : ... .. . ... : ... .. . F06
ROW 23 : ... .. . ... ... ... : G-2 00 7 ... ... ... : ... .. . ... : ... .. . ... : ... .. . F07
ROW 24 : ... .. . ... ... ... : A-2 00 7 ... ... ... : ... .. . ... : ... .. . ... : ... .. . F06
ROW 25 : ... .. . ... ... ... : ... .. . ... ... ... : ... .. . ... : ... .. . ... : ... .. . F07
ROW 26 : ... .. . ... ... ... : C-3 00 9 ... ... ... : ... .. . ... : ... .. . ... : ... .. . F06
ROW 27 : ... .. . ... ... ... : ... .. . ... ... ... : ... .. . ... : ... .. . ... : ... .. . F07
ROW 28 : ... .. . ... ... ... : A-2 00 7 ... ... ... : ... .. . ... : ... .. . ... : ... .. . F06
ROW 29 : ... .. . ... ... ... : A-2 00 7 ... ... ... : ... .. . ... : ... .. . ... : ... .. . F07
ROW 2A : ... .. . ... ... ... : G-2 00 7 ... ... ... : ... .. . ... : ... .. . ... : ... .. . F06
ROW 2B : ... .. . ... ... ... : G-2 00 7 ... ... ... : ... .. . ... : ... .. . ... : ... .. . F07
ROW 2C : ... .. . ... ... ... : A-2 00 7 ... ... ... : ... .. . ... : ... .. . ... : ... .. . F06
ROW 2D : ... .. . ... ... ... : E-3 00 7 ... ... ... : ... .. . ... : ... .. . ... : ... .. . F07
ROW 2E : ... .. . ... ... ... : D-3 00 9 ... ... ... : ... .. . ... : ... .. . ... : ... .. . F06
ROW 2F : ... .. . ... ... ... : ... .. . ... ... ... : ... .. . ... : ... .. . ... : ... .. . F07
ROW 30 : ... .. . ... ... ... : A-2 00 7 ... ... ... : ... .. . ... : ... .. . ... : ... .. . F06
ROW 31 : ... .. . ... ... ... : A-2 00 7 ... ... ... : ... .. . ... : ... .. . ... : ... .. . F07
ROW 32 : ... .. . ... ... ... : G-2 00 7 ... ... ... : ... .. . ... : ... .. . ... : ... .. . F06
ROW 33 : ... .. . ... ... ... : G-2 00 7 ... ... ... : ... .. . ... : ... .. . ... : ... .. . F07
ROW 34 : ... .. . ... ... ... : A-2 00 7 ... ... ... : ... .. . ... : ... .. . ... : ... .. . F06
ROW 35 : ... .. . ... ... ... : ... .. . ... ... ... : ... .. . ... : ... .. . ... : ... .. . F07
ROW 36 : ... .. . ... ... ... : C-3 00 9 ... ... ... : ... .. . ... : ... .. . ... : ... .. . F06
ROW 37 : ... .. . ... ... ... : ... .. . ... ... ... : ... .. . ... : ... .. . ... : ... .. . F07
ROW 38 : ... .. . ... ... ... : A-2 00 7 ... ... ... : ... .. . ... : ... .. . ... : ... .. . F06
ROW 39 : ... .. . ... ... ... : A-2 00 7 ... ... ... : ... .. . ... : ... .. . ... : ... .. . F07
ROW 3A : ... .. . ... ... ... : G-2 00 7 ... ... ... : ... .. . ... : ... .. . ... : ... .. . F06
ROW 3B : ... .. . ... ... ... : G-2 00 7 ... ... ... : ... .. . ... : ... .. . ... : ... .. . F07
ROW 3C : ... .. . ... ... ... : A-2 00 7 ... ... ... : ... .. . ... : ... .. . ... : ... .. . F06
ROW 3D : ... .. . ... ... ... : E-3 00 7 ... ... ... : ... .. . ... : ... .. . ... : ... .. . F07
ROW 3E : ... .. . ... ... ... : D-3 00 7 ... ... ... : ... .. . ... : ... .. . ... : ... .. . F06
ROW 3F : ... .. . ... ... ... : C-3 00 7 ... ... ... : ... .. . ... : ... .. . ... : ... .. . F07

PATTERN 01
ROW 00 : A-3 00 7 V02 A01 400 : E-3 00 7 A05 V00 ... : D-2 00 . S04 : 1-# 00 A A0C : ... .. . F06
ROW 01 : ... .. . ... ... ... : E-3 00 7 ... ... ... : D-2 00 . S05 : --- .. . ... : ... .. . F07
ROW 02 : ... .. . ... ... 481 : D-3 00 7 ... ... ... : D-2 00 . S04 : A-# 00 3 A06 : ... .. . F06
ROW 03 : ... .. . ... ... ... : D-3 00 7 ... ... ... : D-2 00 . S05 : 1-# 00 A A0C : ... .. . F07
ROW 04 : ... .. . ... A00 ... : E-3 00 7 ... ... ... : D-2 00 . S04 : 6-# 00 8 A06 : ... .. . F06
ROW 05 : ... .. . S06 ... ... : ... .. . ... ... ... : ... .. . ... : ... .. . A02 : ... .. . F07
ROW 06 : C-4 00 7 ... A01 400 : G-3 00 9 ... ... ... : A-2 00 . ... : 1-# 00 A A0C : ... .. . F06
ROW 07 : ... .. . S06 ... ... : ... .. . ... ... ... : ... .. . S05 : --- .. . ... : ... .. . F07
ROW 08 : A-3 00 7 ... ... 400 : E-3 00 7 ... ... ... : D-2 00 . S04 : 1-# 00 A A0C : ... .. . F06
ROW 09 : ... .. . ... ... ... : E-3 00 7 ... ... ... : D-2 00 . S05 : --- .. . ... : ... .. . F07
ROW 0A : ... .. . ... ... 481 : D-3 00 7 ... ... ... : D-2 00 . S04 : A-# 00 3 A06 : ... .. . F06
ROW 0B : ... .. . S06 ... ... : D-3 00 7 ... ... ... : D-2 00 . S05 : ... .. . ... : ... .. . F07
ROW 0C : G-3 00 7 ... ... 400 : E-3 00 7 ... ... ... : D-2 00 . S04 : 6-# 00 8 A06 : ... .. . F06
ROW 0D : ... .. . S06 ... ... : B-3 00 7 ... ... ... : F-2 00 . S05 : ... .. . A02 : ... .. . F07
ROW 0E : F-3 00 7 ... ... ... : A-3 00 9 ... ... ... : C-2 00 . ... : A-# 00 3 A06 : ... .. . F06
ROW 0F : ... .. . S06 ... ... : ... .. . ... ... ... : ... .. . S05 : ... .. . ... : ... .. . F07
ROW 10 : D-3 00 7 ... ... ... : E-3 00 7 ... ... ... : D-2 00 . S04 : 1-# 00 A A0C : ... .. . F06
ROW 11 : ... .. . ... ... ... : E-3 00 7 ... ... ... : D-2 00 . S05 : --- .. . ... : ... .. . F07
ROW 12 : ... .. . S05 ... ... : D-3 00 7 ... ... ... : D-2 00 . S04 : A-# 00 3 A06 : ... .. . F06
ROW 13 : D-3 00 7 S06 ... ... : D-3 00 7 ... ... ... : D-2 00 . S05 : 1-# 00 A A0C : ... .. . F07
ROW 14 : D-3 00 7 ... ... ... : E-3 00 7 ... ... ... : D-2 00 . S04 : 6-# 00 8 A06 : ... .. . F06
ROW 15 : ... .. . S06 ... ... : ... .. . ... ... ... : ... .. . ... : ... .. . A02 : ... .. . F07
ROW 16 : C-3 00 7 ... ... ... : G-3 00 9 ... ... ... : A-2 00 . ... : 1-# 00 A A0C : ... .. . F06
ROW 17 : ... .. . S06 ... ... : ... .. . ... ... ... : ... .. . ... : --- .. . ... : ... .. . F07
ROW 18 : D-3 00 7 ... ... 400 : E-3 00 7 ... ... ... : ... .. . S04 : ... .. . ... : ... .. . F06
ROW 19 : ... .. . ... ... ... : E-3 00 7 ... ... ... : ... .. . ... : ... .. . ... : ... .. . F07
ROW 1A : ... .. . ... ... 482 : D-3 00 7 ... ... ... : D-2 00 . S04 : 1-# 00 A A0C : ... .. . F06
ROW 1B : ... .. . S06 ... ... : D-3 00 7 ... ... ... : D-2 00 . S05 : 1-# 00 A A0C : ... .. . F07
ROW 1C : F-3 00 7 ... ... 400 : E-3 00 7 ... ... ... : D-2 00 . S04 : 6-# 00 8 A06 : ... .. . F06
ROW 1D : ... .. . S06 ... ... : B-3 00 7 ... ... ... : F-2 00 . S05 : ... .. . A02 : ... .. . F07
ROW 1E : G-3 00 7 ... ... ... : A-3 00 7 ... ... ... : C-2 00 . ... : A-# 00 3 A06 : ... .. . F06
ROW 1F : ... .. . S06 ... ... : G-3 00 7 ... ... ... : ... .. . S05 : ... .. . ... : ... .. . F07
ROW 20 : A-3 00 7 ... ... ... : E-3 00 7 ... ... ... : D-2 00 . S04 : 1-# 00 A A0C : ... .. . F06
ROW 21 : ... .. . S06 ... ... : E-3 00 7 ... ... ... : D-2 00 . S05 : --- .. . ... : ... .. . F07
ROW 22 : A-3 00 7 S05 ... ... : D-3 00 7 ... ... ... : D-2 00 . S04 : A-# 00 3 A06 : ... .. . F06
ROW 23 : G-3 00 7 S06 ... ... : D-3 00 7 ... ... ... : D-2 00 . S05 : 1-# 00 A A0C : ... .. . F07
ROW 24 : A-3 00 7 ... ... ... : E-3 00 7 ... ... ... : D-2 00 . S04 : 6-# 00 8 A06 : ... .. . F06
ROW 25 : ... .. . S06 ... ... : ... .. . ... ... ... : ... .. . ... : ... .. . A02 : ... .. . F07
ROW 26 : A-3 00 7 S05 ... ... : G-3 00 9 ... ... ... : A-2 00 . ... : 1-# 00 A A0C : ... .. . F06
ROW 27 : G-3 00 7 S06 ... ... : ... .. . ... ... ... : ... .. . S05 : --- .. . ... : ... .. . F07
ROW 28 : A-3 00 7 ... ... ... : E-3 00 7 ... ... ... : D-2 00 . S04 : 1-# 00 A A0C : ... .. . F06
ROW 29 : ... .. . S06 ... ... : E-3 00 7 ... ... ... : D-2 00 . S05 : --- .. . ... : ... .. . F07
ROW 2A : C-4 00 7 ... ... ... : D-3 00 7 ... ... ... : D-2 00 . S04 : A-# 00 3 A06 : ... .. . F06
ROW 2B : ... .. . S06 ... ... : D-3 00 7 ... ... ... : D-2 00 . S05 : ... .. . ... : ... .. . F07
ROW 2C : D-4 00 7 ... ... ... : E-3 00 7 ... ... ... : D-2 00 . S04 : 6-# 00 8 A06 : ... .. . F03
ROW 2D : ... .. . S06 ... ... : B-3 00 7 ... ... ... : F-2 00 . S05 : ... .. . A02 : ... .. . ...
ROW 2E : E-4 00 7 ... ... ... : A-3 00 9 ... ... ... : C-2 00 . ... : A-# 00 3 A06 : ... .. . ...
ROW 2F : ... .. . S06 ... ... : ... .. . ... ... ... : ... .. . S05 : ... .. . ... : ... .. . F04
ROW 30 : D-4 00 7 ... ... ... : E-3 00 7 ... ... ... : D-2 00 . S04 : 1-# 00 A A0C : ... .. . F03
ROW 31 : ... .. . ... ... ... : E-3 00 7 ... ... ... : D-2 00 . S05 : --- .. . ... : ... .. . ...
ROW 32 : ... .. . S05 ... ... : D-3 00 7 ... ... ... : D-2 00 . S04 : A-# 00 3 A06 : ... .. . ...
ROW 33 : D-4 00 7 S06 ... ... : D-3 00 7 ... ... ... : D-2 00 . S05 : 1-# 00 A A0C : ... .. . F04
ROW 34 : D-4 00 7 ... ... ... : E-3 00 7 ... ... ... : D-2 00 . S04 : 6-# 00 8 A06 : ... .. . ...
ROW 35 : ... .. . S06 ... ... : ... .. . ... ... ... : G-2 00 . S05 : ... .. . A02 : ... .. . ...
ROW 36 : C-4 00 7 ... ... ... : G-3 00 9 ... ... ... : ... .. . ... : 1-# 00 A A0C : ... .. . ...
ROW 37 : ... .. . S06 ... ... : ... .. . ... ... ... : A-2 00 . S05 : --- .. . ... : ... .. . ...
ROW 38 : D-4 00 7 ... ... 400 : E-3 00 7 ... ... ... : D-2 00 . S04 : ... .. . ... : ... .. . ...
ROW 39 : ... .. . ... ... ... : E-3 00 7 ... ... ... : ... .. . ... : ... .. . ... : ... .. . ...
ROW 3A : ... .. . ... ... 481 : D-3 00 7 ... ... ... : D-2 00 . S04 : 1-# 00 A A0C : ... .. . ...
ROW 3B : ... .. . S06 ... ... : D-3 00 7 ... ... ... : D-2 00 . S05 : 1-# 00 A A0C : ... .. . ...
ROW 3C : D-4 00 7 ... ... 400 : E-3 00 7 ... ... ... : D-2 00 . S04 : 6-# 00 8 A06 : ... .. . ...
ROW 3D : ... .. . ... ... ... : B-3 00 7 ... ... ... : F-2 00 . S05 : ... .. . A02 : ... .. . ...
ROW 3E : ... .. . ... ... 481 : A-3 00 7 ... ... ... : E-2 00 . S04 : 1-# 00 A A0C : ... .. . ...
ROW 3F : ... .. . S06 ... ... : G-3 00 7 ... ... ... : G-2 00 . S05 : --- .. . ... : ... .. . ...

PATTERN 02
ROW 00 : E-4 00 7 ... ... 400 : A-2 00 7 A05 V00 ... : A-2 00 . S04 : 1-# 00 A A0C : ... .. . F03
ROW 01 : ... .. . ... ... ... : A-2 00 7 ... ... ... : A-2 00 . S05 : --- .. . ... : ... .. . ...
ROW 02 : ... .. . ... ... 481 : G-2 00 7 ... ... ... : A-2 00 . S04 : A-# 00 3 A06 : ... .. . ...
ROW 03 : ... .. . ... ... ... : G-2 00 7 ... ... ... : A-2 00 . S05 : 1-# 00 A A0C : ... .. . F04
ROW 04 : ... .. . ... ... ... : A-2 00 7 ... ... ... : A-2 00 . S04 : 6-# 00 8 A06 : ... .. . F03
ROW 05 : ... .. . S06 ... ... : ... .. . ... ... ... : ... .. . ... : ... .. . A02 : ... .. . ...
ROW 06 : G-4 00 7 ... ... 400 : C-3 00 9 ... ... ... : E-3 00 . ... : 1-# 00 A A0C : ... .. . ...
ROW 07 : ... .. . S06 ... ... : ... .. . ... ... ... : ... .. . S05 : --- .. . ... : ... .. . F04
ROW 08 : E-4 00 7 ... ... ... : A-2 00 7 ... ... ... : A-2 00 . S04 : 1-# 00 A A0C : ... .. . F03
ROW 09 : ... .. . ... ... ... : A-2 00 7 ... ... ... : A-2 00 . S05 : --- .. . ... : ... .. . ...
ROW 0A : ... .. . ... ... 481 : G-2 00 7 ... ... ... : A-2 00 . S04 : A-# 00 3 A06 : ... .. . ...
ROW 0B : ... .. . S06 ... ... : G-2 00 7 ... ... ... : A-2 00 . S05 : ... .. . ... : ... .. . F04
ROW 0C : D-4 00 7 ... ... 400 : A-2 00 7 ... ... ... : A-2 00 . S04 : 6-# 00 8 A06 : ... .. . F03
ROW 0D : ... .. . S06 ... ... : E-3 00 7 ... ... ... : C-3 00 . S05 : ... .. . A02 : ... .. . ...
ROW 0E : C-4 00 7 ... ... ... : D-3 00 9 ... ... ... : G-2 00 . ... : A-# 00 3 A06 : ... .. . ...
ROW 0F : ... .. . S06 ... ... : ... .. . ... ... ... : ... .. . S05 : ... .. . ... : ... .. . F04
ROW 10 : A-3 00 7 ... ... ... : E-3 00 7 ... ... ... : A-2 00 . S04 : 1-# 00 A A0C : ... .. . ...
ROW 11 : ... .. . ... ... ... : E-3 00 7 ... ... ... : A-2 00 . S05 : --- .. . ... : ... .. . ...
ROW 12 : ... .. . S05 ... ... : D-3 00 7 ... ... ... : A-2 00 . S04 : A-# 00 3 A06 : ... .. . ...
ROW 13 : A-3 00 7 S06 ... ... : D-3 00 7 ... ... ... : A-2 00 . S05 : 1-# 00 A A0C : ... .. . ...
ROW 14 : C-4 00 7 ... ... ... : E-3 00 7 ... ... ... : A-2 00 . S04 : 6-# 00 8 A06 : ... .. . ...
ROW 15 : ... .. . S06 ... ... : ... .. . ... ... ... : ... .. . ... : ... .. . A02 : ... .. . ...
ROW 16 : G-3 00 7 ... ... ... : G-3 00 9 ... ... ... : E-3 00 . ... : 1-# 00 A A0C : ... .. . ...
ROW 17 : ... .. . S06 ... ... : ... .. . ... ... ... : ... .. . ... : --- .. . ... : ... .. . ...
ROW 18 : A-3 00 7 ... ... ... : E-3 00 7 ... ... ... : ... .. . S04 : ... .. . ... : ... .. . ...
ROW 19 : ... .. . ... ... ... : E-3 00 7 ... ... ... : ... .. . ... : ... .. . ... : ... .. . ...
ROW 1A : ... .. . ... ... 481 : D-3 00 7 ... ... ... : A-2 00 . S04 : 1-# 00 A A0C : ... .. . ...
ROW 1B : ... .. . S06 ... ... : D-3 00 7 ... ... ... : A-2 00 . S05 : --- .. . ... : ... .. . ...
ROW 1C : C-4 00 7 ... ... 400 : E-3 00 7 ... ... ... : A-2 00 . S04 : 6-# 00 8 A06 : ... .. . ...
ROW 1D : ... .. . S06 ... ... : B-3 00 7 ... ... ... : C-3 00 . S05 : 1-# 00 A A0C : ... .. . ...
ROW 1E : D-4 00 7 ... ... ... : A-3 00 9 ... ... ... : G-2 00 . ... : A-# 00 3 A06 : ... .. . ...
ROW 1F : ... .. . S06 ... ... : ... .. . ... ... ... : ... .. . S05 : ... .. . ... : ... .. . ...
ROW 20 : E-4 00 7 ... ... ... : A-3 00 8 ... ... ... : A-2 00 . S04 : 1-# 00 A A0C : ... .. . ...
ROW 21 : ... .. . S06 ... ... : E-4 00 8 ... ... ... : A-2 00 . S05 : --- .. . ... : ... .. . ...
ROW 22 : E-4 00 7 S05 ... ... : D-4 00 7 ... ... ... : A-2 00 . S04 : A-# 00 3 A06 : ... .. . ...
ROW 23 : D-4 00 7 S06 ... ... : C-4 00 7 ... ... ... : A-2 00 . S05 : 1-# 00 A A0C : ... .. . ...
ROW 24 : E-4 00 7 ... ... ... : D-4 00 8 ... ... ... : A-2 00 . S04 : 6-# 00 8 A06 : ... .. . ...
ROW 25 : ... .. . S06 ... ... : C-4 00 8 ... ... ... : ... .. . ... : ... .. . A02 : ... .. . ...
ROW 26 : E-4 00 7 S05 ... ... : B-3 00 7 ... ... ... : E-3 00 . ... : 1-# 00 A A0C : ... .. . ...
ROW 27 : D-4 00 7 S06 ... ... : G-3 00 7 ... ... ... : ... .. . S05 : --- .. . ... : ... .. . ...
ROW 28 : E-4 00 7 ... ... ... : A-2 00 8 ... ... ... : A-2 00 . S04 : ... .. . ... : ... .. . ...
ROW 29 : ... .. . S06 ... ... : C-3 00 8 ... ... ... : A-2 00 . S05 : ... .. . ... : ... .. . ...
ROW 2A : D-4 00 7 ... ... ... : D-3 00 7 ... ... ... : A-2 00 . S04 : 1-# 00 A A0C : ... .. . ...
ROW 2B : ... .. . S06 ... ... : G-3 00 7 ... ... ... : A-2 00 . S05 : 1-# 00 A A0C : ... .. . ...
ROW 2C : C-4 00 7 ... ... ... : A-2 00 8 ... ... ... : A-2 00 . S04 : 6-# 00 8 A06 : ... .. . ...
ROW 2D : ... .. . S06 ... ... : D-3 00 7 G01 ... ... : C-3 00 . S05 : ... .. . ... : ... .. . ...
ROW 2E : G-3 00 7 ... ... ... : E-3 00 7 G02 ... ... : G-2 00 . ... : ... .. . A02 : ... .. . ...
ROW 2F : ... .. . S06 ... ... : ... .. . ... ... ... : ... .. . S05 : ... .. . ... : ... .. . ...
ROW 30 : A-3 00 7 ... ... ... : G-3 00 8 ... ... ... : A-2 00 . S04 : 6-# 00 8 A06 : ... .. . ...
ROW 31 : ... .. . ... ... ... : A-3 00 7 G01 ... ... : A-2 00 . S05 : ... .. . ... : ... .. . ...
ROW 32 : ... .. . S05 ... ... : C-4 00 7 G02 ... ... : A-2 00 . S04 : ... .. . A02 : ... .. . ...
ROW 33 : A-3 00 7 S06 ... ... : ... .. . ... ... ... : A-2 00 . S05 : ... .. . ... : ... .. . ...
ROW 34 : G-3 00 7 ... ... ... : ... .. . ... ... ... : A-2 00 . S04 : ... .. . ... : ... .. . ...
ROW 35 : ... .. . S06 ... ... : ... .. . ... ... ... : D-3 00 . S05 : ... .. . ... : ... .. . ...
ROW 36 : E-3 00 7 ... ... ... : ... .. . ... ... ... : ... .. . ... : ... .. . ... : ... .. . ...
ROW 37 : ... .. . S06 ... ... : ... .. . ... ... ... : E-3 00 . S05 : ... .. . ... : ... .. . ...
ROW 38 : A-3 00 7 ... ... ... : ... .. . ... ... ... : A-2 00 . ... : ... .. . ... : ... .. . ...
ROW 39 : ... .. . ... ... ... : ... .. . ... ... ... : ... .. . S05 : ... .. . ... : ... .. . ...
ROW 3A : ... .. . ... ... ... : ... .. . ... ... ... : A-2 00 . S04 : ... .. . ... : ... .. . ...
ROW 3B : ... .. . S06 ... ... : ... .. . ... ... ... : A-2 00 . S05 : ... .. . ... : ... .. . ...
ROW 3C : C-3 00 7 ... ... ... : ... .. . ... ... ... : A-2 00 . S04 : ... .. . ... : ... .. . ...
ROW 3D : ... .. . ... ... ... : ... .. . ... ... ... : C-3 00 . S05 : ... .. . ... : ... .. . ...
ROW 3E : ... .. . ... ... 481 : ... .. . ... ... ... : B-2 00 . S04 : ... .. . ... : ... .. . ...
ROW 3F : ... .. . S06 ... ... : ... .. . ... ... ... : G-2 00 . S05 : ... .. . ... : ... .. . ...

PATTERN 03
ROW 00 : D-3 00 7 ... ... 400 : A-3 00 8 ... ... ... : D-2 00 . S04 : 1-# 00 A A0C : ... .. . ...
ROW 01 : ... .. . ... ... ... : ... .. . ... ... ... : D-2 00 . S05 : --- .. . ... : ... .. . ...
ROW 02 : ... .. . ... ... 482 : --- .. . ... ... ... : D-2 00 . S04 : A-# 00 3 A06 : ... .. . ...
ROW 03 : ... .. . S06 ... ... : D-4 00 4 A03 V02 ... : D-2 00 . S05 : 1-# 00 A A0C : ... .. . ...
ROW 04 : F-3 00 7 ... ... 400 : E-4 00 4 ... ... ... : D-2 00 . S04 : 6-# 00 8 A06 : ... .. . ...
ROW 05 : ... .. . S06 ... ... : D-4 00 4 ... ... ... : ... .. . ... : ... .. . A02 : ... .. . ...
ROW 06 : G-3 00 7 ... ... ... : C-4 00 4 ... ... ... : A-2 00 . ... : 1-# 00 A A0C : ... .. . ...
ROW 07 : ... .. . S06 ... ... : A-3 00 4 ... ... ... : ... .. . S05 : --- .. . ... : ... .. . ...
ROW 08 : A-3 00 7 ... ... 400 : C-4 00 4 ... ... ... : D-2 00 . S04 : 1-# 00 A A0C : ... .. . ...
ROW 09 : ... .. . ... ... ... : A-3 00 4 ... ... ... : D-2 00 . S05 : 4-# 00 A A0C : ... .. . ...
ROW 0A : ... .. . ... ... 481 : G-3 00 4 ... ... ... : D-2 00 . S04 : --- .. . ... : ... .. . ...
ROW 0B : ... .. . S06 ... ... : A-3 00 4 ... ... ... : D-2 00 . S05 : 3-# 00 A A0C : ... .. . ...
ROW 0C : C-4 00 7 ... ... 400 : G-3 00 4 ... ... ... : D-2 00 . S04 : --- .. . ... : ... .. . ...
ROW 0D : ... .. . S06 ... ... : E-3 00 4 ... ... ... : F-2 00 . S05 : 2-# 00 A A0C : ... .. . ...
ROW 0E : D-4 00 7 ... ... ... : D-3 00 4 ... ... ... : G-2 00 . ... : 2-# 00 A A0C : ... .. . ...
ROW 0F : ... .. . S06 ... ... : C-3 00 4 ... ... ... : ... .. . S05 : --- .. . ... : ... .. . ...
ROW 10 : E-4 00 7 ... ... ... : A-3 00 8 A05 V00 ... : A-2 00 . S04 : 1-# 00 A A0C : ... .. . ...
ROW 11 : ... .. . ... ... 481 : A-3 00 8 ... ... ... : A-2 00 . S05 : --- .. . ... : ... .. . ...
ROW 12 : ... .. . S05 ... ... : G-3 00 8 ... ... ... : A-2 00 . S04 : ... .. . ... : ... .. . ...
ROW 13 : G-4 00 7 S06 ... 400 : G-3 00 8 ... ... ... : A-2 00 . S05 : ... .. . ... : ... .. . ...
ROW 14 : E-4 00 7 ... ... ... : E-3 00 8 ... ... ... : A-2 00 . S04 : 1-# 00 A A0C : ... .. . ...
ROW 15 : ... .. . S06 ... ... : E-3 00 8 ... ... ... : ... .. . ... : --- .. . ... : ... .. . ...
ROW 16 : D-4 00 7 ... ... ... : D-3 00 8 ... ... ... : E-3 00 . ... : ... .. . ... : ... .. . ...
ROW 17 : ... .. . S06 ... ... : D-3 00 8 ... ... ... : ... .. . S05 : ... .. . ... : ... .. . ...
ROW 18 : C-4 00 7 ... ... ... : A-2 00 8 ... ... ... : A-2 00 . S04 : 1-# 00 A A0C : ... .. . ...
ROW 19 : ... .. . S06 ... ... : A-2 00 8 ... ... ... : A-2 00 . S05 : --- .. . ... : ... .. . ...
ROW 1A : A-3 00 7 ... ... ... : G-2 00 8 ... ... ... : A-2 00 . S04 : ... .. . ... : ... .. . ...
ROW 1B : ... .. . S06 ... ... : G-2 00 8 ... ... ... : A-2 00 . S05 : ... .. . ... : ... .. . ...
ROW 1C : G-3 00 7 ... ... ... : E-2 00 8 ... ... ... : A-2 00 . S04 : 1-# 00 A A0C : ... .. . ...
ROW 1D : ... .. . S06 ... ... : E-2 00 8 ... ... ... : C-3 00 . S05 : --- .. . ... : ... .. . ...
ROW 1E : E-3 00 7 ... ... ... : D-2 00 8 ... ... ... : G-2 00 . ... : ... .. . ... : ... .. . ...
ROW 1F : ... .. . S06 ... ... : D-2 00 8 ... ... ... : ... .. . S05 : ... .. . ... : ... .. . ...
ROW 20 : D-3 00 7 ... ... 400 : A-2 00 7 ... ... ... : D-2 00 . S04 : ... .. . ... : ... .. . ...
ROW 21 : ... .. . ... ... ... : A-2 00 7 ... ... ... : ... .. . ... : ... .. . ... : ... .. . ...
ROW 22 : ... .. . ... ... 482 : G-2 00 7 ... ... ... : D-2 00 . S04 : A-# 00 3 A06 : ... .. . ...
ROW 23 : ... .. . S06 ... ... : G-2 00 7 ... ... ... : D-2 00 . S05 : ... .. . ... : ... .. . ...
ROW 24 : G-3 00 7 ... ... 400 : A-2 00 7 ... ... ... : D-2 00 . S04 : ... .. . ... : ... .. . ...
ROW 25 : ... .. . ... ... ... : G-2 00 7 ... ... ... : G-2 00 . S05 : ... .. . ... : ... .. . ...
ROW 26 : ... .. . ... ... 482 : A-2 00 9 ... ... ... : A-2 00 . S04 : A-# 00 3 A06 : ... .. . ...
ROW 27 : ... .. . S06 ... ... : ... .. . ... ... ... : C-3 00 . S05 : ... .. . ... : ... .. . ...
ROW 28 : A-3 00 7 ... ... 400 : E-3 00 8 ... ... ... : A-2 00 . S04 : ... .. . ... : ... .. . ...
ROW 29 : ... .. . ... ... ... : E-3 00 8 ... ... ... : C-3 00 . S05 : 3-# 00 A A0C : ... .. . ...
ROW 2A : ... .. . ... ... 481 : D-3 00 8 ... ... ... : D-3 00 . S04 : 2-# 00 A A0C : ... .. . ...
ROW 2B : ... .. . S06 ... ... : D-3 00 8 ... ... ... : C-3 00 . S05 : --- .. . ... : ... .. . ...
ROW 2C : C-4 00 7 ... ... 400 : E-3 00 8 ... ... ... : G-2 00 . S04 : 4-# 00 A A0C : ... .. . ...
ROW 2D : ... .. . ... ... ... : D-3 00 8 ... ... ... : ... .. . ... : 3-# 00 A A0C : ... .. . ...
ROW 2E : ... .. . ... ... ... : E-3 00 9 ... ... ... : A-2 00 . S05 : 2-# 00 A A0C : ... .. . ...
ROW 2F : ... .. . ... ... ... : ... .. . ... ... ... : ... .. . ... : --- .. . ... : ... .. . ...
ROW 30 : ... .. . ... ... 481 : ... .. . ... ... ... : C-2 00 . ... : ... .. . ... : ... .. . ...
ROW 31 : ... .. . ... ... ... : ... .. . ... ... ... : ... .. . ... : ... .. . ... : ... .. . ...
ROW 32 : ... .. . S06 ... ... : ... .. . ... ... ... : ... .. . S05 : ... .. . ... : ... .. . ...
ROW 33 : ... .. . ... ... D00 : ... .. . ... ... ... : ... .. . ... : ... .. . ... : ... .. . ...
ROW 34 : ... .. . ... ... ... : ... .. . ... ... ... : ... .. . ... : ... .. . ... : ... .. . ...
ROW 35 : ... .. . ... ... ... : ... .. . ... ... ... : ... .. . ... : ... .. . ... : ... .. . ...
ROW 36 : ... .. . ... ... ... : ... .. . ... ... ... : ... .. . ... : ... .. . ... : ... .. . ...
ROW 37 : ... .. . ... ... ... : ... .. . ... ... ... : ... .. . ... : ... .. . ... : ... .. . ...
ROW 38 : ... .. . ... ... ... : ... .. . ... ... ... : ... .. . ... : ... .. . ... : ... .. . ...
ROW 39 : ... .. . ... ... ... : ... .. . ... ... ... : ... .. . ... : ... .. . ... : ... .. . ...
ROW 3A : ... .. . ... ... ... : ... .. . ... ... ... : ... .. . ... : ... .. . ... : ... .. . ...
ROW 3B : ... .. . ... ... ... : ... .. . ... ... ... : ... .. . ... : ... .. . ... : ... .. . ...
ROW 3C : ... .. . ... ... ... : ... .. . ... ... ... : ... .. . ... : ... .. . ... : ... .. . ...
ROW 3D : ... .. . ... ... ... : ... .. . ... ... ... : ... .. . ... : ... .. . ... : ... .. . ...
ROW 3E : ... .. . ... ... ... : ... .. . ... ... ... : ... .. . ... : ... .. . ... : ... .. . ...
ROW 3F : ... .. . ... ... ... : ... .. . ... ... ... : ... .. . ... : ... .. . ... : ... .. . ...

PATTERN 04
ROW 00 : D-4 00 7 A04 V02 400 : A-3 00 7 A05 V00 P7F : D-2 00 . ... : ... .. . ... : ... .. . ...
ROW 01 : E-4 00 7 ... ... ... : G-3 00 7 ... ... P80 : ... .. . S05 : ... .. . ... : ... .. . ...
ROW 02 : D-4 00 7 ... ... ... : G-3 00 7 ... ... ... : ... .. . ... : ... .. . ... : ... .. . ...
ROW 03 : C-4 00 7 ... ... ... : A-3 00 7 ... ... ... : ... .. . ... : ... .. . ... : ... .. . ...
ROW 04 : A-3 00 7 ... ... ... : A-3 00 7 ... ... P7F : D-2 00 . ... : 1-# 00 A A0C : ... .. . ...
ROW 05 : C-4 00 7 ... ... ... : ... .. . ... ... P80 : ... .. . S05 : ... .. . ... : ... .. . ...
ROW 06 : A-3 00 7 ... ... ... : A-3 00 9 ... ... ... : ... .. . ... : --- .. . ... : ... .. . ...
ROW 07 : G-3 00 7 ... ... ... : ... .. . ... ... ... : ... .. . ... : ... .. . ... : ... .. . ...
ROW 08 : A-3 00 7 ... ... ... : E-4 00 7 ... ... ... : D-2 00 . S04 : 6-# 00 8 A06 : ... .. . ...
ROW 09 : G-3 00 7 ... ... ... : E-4 00 7 ... ... ... : G-2 00 . S05 : ... .. . ... : ... .. . ...
ROW 0A : E-3 00 7 ... ... ... : D-4 00 7 ... ... ... : A-2 00 . S04 : ... .. . A02 : ... .. . ...
ROW 0B : D-3 00 7 ... ... ... : D-4 00 7 ... ... ... : G-2 00 . S05 : ... .. . ... : ... .. . ...
ROW 0C : C-3 00 7 ... ... ... : E-4 00 7 ... ... ... : F-2 00 . S04 : 1-# 00 A A0C : ... .. . ...
ROW 0D : D-3 00 7 ... ... ... : ... .. . ... ... ... : E-2 00 . S05 : ... .. . ... : ... .. . ...
ROW 0E : E-3 00 7 ... ... ... : E-4 00 9 ... ... ... : C-2 00 . S04 : --- .. . ... : ... .. . ...
ROW 0F : C-3 00 7 ... ... ... : ... .. . ... ... ... : E-2 00 . S05 : ... .. . ... : ... .. . ...
ROW 10 : D-3 00 7 A01 ... ... : A-3 00 7 ... ... P7F : D-2 00 . ... : ... .. . ... : ... .. . ...
ROW 11 : ... .. . ... ... ... : A-3 00 7 ... ... P80 : ... .. . ... : ... .. . ... : ... .. . ...
ROW 12 : ... .. . ... 481 ... : G-3 00 7 ... ... ... : ... .. . 462 : ... .. . ... : ... .. . ...
ROW 13 : ... .. . ... ... ... : G-3 00 7 ... ... ... : ... .. . ... : ... .. . ... : ... .. . ...
ROW 14 : ... .. . A00 ... ... : A-3 00 7 ... ... ... : ... .. . ... : ... .. . ... : ... .. . ...
ROW 15 : ... .. . A01 ... ... : ... .. . ... ... ... : ... .. . ... : ... .. . ... : ... .. . ...
ROW 16 : ... .. . A00 ... ... : A-3 00 9 ... ... ... : ... .. . ... : ... .. . ... : ... .. . ...
ROW 17 : ... .. . A01 ... ... : ... .. . ... ... ... : ... .. . ... : ... .. . ... : ... .. . ...
ROW 18 : ... .. . A00 ... ... : E-4 00 7 ... ... ... : ... .. . ... : ... .. . ... : ... .. . ...
ROW 19 : ... .. . A01 ... ... : D-4 00 7 ... ... ... : ... .. . ... : ... .. . ... : ... .. . ...
ROW 1A : ... .. . A00 ... ... : B-3 00 7 ... ... ... : ... .. . ... : ... .. . ... : ... .. . ...
ROW 1B : ... .. . A01 ... ... : A-3 00 7 ... ... ... : ... .. . ... : ... .. . ... : ... .. . ...
ROW 1C : ... .. . A00 ... ... : B-3 00 7 ... ... ... : ... .. . ... : ... .. . ... : ... .. . ...
ROW 1D : ... .. . A01 ... ... : A-3 00 7 ... ... ... : ... .. . ... : ... .. . ... : ... .. . ...
ROW 1E : ... .. . A00 ... ... : G-3 00 7 ... ... ... : --- .. . ... : ... .. . ... : ... .. . ...
ROW 1F : ... .. . A01 ... ... : D-3 00 7 ... ... ... : ... .. . 400 : ... .. . ... : ... .. . ...
ROW 20 : D-3 00 7 A05 V00 400 : B-3 00 7 ... ... ... : D-2 00 . S04 : ... .. . ... : ... .. . ...
ROW 21 : D-3 00 7 ... ... ... : B-3 00 7 ... ... ... : G-2 00 . S05 : ... .. . ... : ... .. . ...
ROW 22 : C-3 00 7 ... ... ... : A-3 00 7 ... ... ... : A-2 00 . S04 : ... .. . ... : ... .. . ...
ROW 23 : C-3 00 7 ... ... ... : A-3 00 7 ... ... ... : C-3 00 . S05 : ... .. . ... : ... .. . ...
ROW 24 : D-3 00 7 ... ... ... : B-3 00 7 ... ... ... : A-2 00 . S04 : ... .. . ... : ... .. . ...
ROW 25 : C-3 00 7 ... ... ... : ... .. . ... ... ... : C-3 00 . S05 : ... .. . ... : ... .. . ...
ROW 26 : D-3 00 9 ... ... ... : B-3 00 9 ... ... P7F : D-3 00 . S04 : ... .. . ... : ... .. . ...
ROW 27 : ... .. . ... ... ... : ... .. . ... ... P80 : F-3 00 . S05 : ... .. . ... : ... .. . ...
ROW 28 : A-3 00 7 ... ... ... : F#4 00 7 ... ... ... : G-3 00 . S04 : ... .. . ... : ... .. . ...
ROW 29 : A-3 00 7 ... ... ... : F#4 00 7 ... ... ... : F-3 00 . S05 : ... .. . ... : ... .. . ...
ROW 2A : G-3 00 7 ... ... ... : E-4 00 7 ... ... ... : D-3 00 . S04 : ... .. . ... : ... .. . ...
ROW 2B : G-3 00 7 ... ... ... : E-4 00 7 ... ... ... : C-3 00 . S05 : ... .. . ... : ... .. . ...
ROW 2C : A-3 00 7 ... ... ... : F#4 00 7 ... ... ... : D-3 00 . S04 : ... .. . ... : ... .. . ...
ROW 2D : G-3 00 7 ... ... ... : ... .. . ... ... ... : C-3 00 . S05 : ... .. . ... : ... .. . ...
ROW 2E : A-3 00 9 ... ... ... : F#4 00 9 ... ... ... : A-2 00 . S04 : ... .. . ... : ... .. . ...
ROW 2F : ... .. . ... ... D00 : ... .. . ... ... ... : G-2 00 . S05 : ... .. . ... : ... .. . ...
ROW 30 : ... .. . ... ... ... : B-3 00 7 ... ... P7F : ... .. . ... : ... .. . ... : ... .. . ...
ROW 31 : ... .. . ... ... ... : B-3 00 7 ... ... P80 : ... .. . ... : ... .. . ... : ... .. . ...
ROW 32 : ... .. . ... ... ... : A-3 00 7 ... ... ... : ... .. . ... : ... .. . ... : ... .. . ...
ROW 33 : ... .. . ... ... ... : A-3 00 7 ... ... ... : ... .. . ... : ... .. . ... : ... .. . ...
ROW 34 : ... .. . ... ... ... : B-3 00 9 ... ... ... : ... .. . ... : ... .. . ... : ... .. . ...
ROW 35 : ... .. . ... ... ... : ... .. . ... ... ... : ... .. . ... : ... .. . ... : ... .. . ...
ROW 36 : ... .. . ... ... ... : ... .. . ... ... ... : ... .. . ... : ... .. . ... : ... .. . ...
ROW 37 : ... .. . ... ... ... : B-3 00 7 ... ... ... : ... .. . ... : ... .. . ... : ... .. . ...
ROW 38 : ... .. . ... ... ... : E-4 00 7 ... ... P7F : ... .. . ... : ... .. . ... : ... .. . ...
ROW 39 : ... .. . ... ... ... : D-4 00 7 ... ... P80 : ... .. . ... : ... .. . ... : ... .. . ...
ROW 3A : ... .. . ... ... ... : B-3 00 7 ... ... ... : ... .. . ... : ... .. . ... : ... .. . ...
ROW 3B : ... .. . ... ... ... : A-3 00 7 ... ... ... : ... .. . ... : ... .. . ... : ... .. . ...
ROW 3C : ... .. . ... ... ... : B-3 00 7 ... ... ... : ... .. . ... : ... .. . ... : ... .. . ...
ROW 3D : ... .. . ... ... ... : A-3 00 7 ... ... ... : ... .. . ... : ... .. . ... : ... .. . ...
ROW 3E : ... .. . ... ... ... : E-3 00 7 ... ... ... : ... .. . ... : ... .. . ... : ... .. . ...
ROW 3F : ... .. . ... ... ... : D-3 00 7 ... ... ... : ... .. . ... : ... .. . ... : ... .. . ...

PATTERN 05
ROW 00 : A-3 00 7 V02 A04 ... : C-4 00 7 A05 V00 ... : D-2 00 . S04 : 1-# 00 A A0C : ... .. . ...
ROW 01 : C-4 00 7 ... ... ... : C-4 00 7 ... ... ... : D-2 00 . S05 : --- .. . ... : ... .. . ...
ROW 02 : A-3 00 7 ... ... ... : B-3 00 7 ... ... ... : D-2 00 . S04 : A-# 00 3 A06 : ... .. . ...
ROW 03 : G-3 00 7 ... ... ... : B-3 00 7 ... ... ... : D-2 00 . S05 : 1-# 00 A A0C : ... .. . ...
ROW 04 : A-3 00 7 ... ... ... : C-4 00 7 ... ... ... : D-2 00 . S04 : 1-# 00 A A0C : ... .. . ...
ROW 05 : G-3 00 7 ... ... ... : ... .. . ... ... ... : ... .. . ... : --- .. . ... : ... .. . ...
ROW 06 : E-3 00 7 ... ... ... : C-4 00 9 ... ... ... : A-2 00 . ... : 1-# 00 A A0C : ... .. . ...
ROW 07 : C-3 00 7 ... ... ... : ... .. . ... ... ... : ... .. . S05 : --- .. . ... : ... .. . ...
ROW 08 : D-3 00 7 ... ... ... : G-4 00 7 ... ... ... : D-2 00 . S04 : 1-# 00 A A0C : ... .. . ...
ROW 09 : D-3 00 7 ... ... ... : G-4 00 7 ... ... ... : D-2 00 . S05 : --- .. . ... : ... .. . ...
ROW 0A : D-3 00 7 ... ... ... : F-4 00 7 ... ... ... : D-2 00 . S04 : A-# 00 3 A06 : ... .. . ...
ROW 0B : C-3 00 7 ... ... ... : F-4 00 7 ... ... ... : D-2 00 . S05 : ... .. . ... : ... .. . ...
ROW 0C : D-3 00 7 ... ... ... : G-4 00 7 ... ... ... : D-2 00 . S04 : 6-# 00 8 A06 : ... .. . ...
ROW 0D : ... .. . ... ... ... : ... .. . ... ... ... : F-2 00 . S05 : ... .. . A02 : ... .. . ...
ROW 0E : F-3 00 7 ... ... ... : G-4 00 9 ... ... ... : C-2 00 . ... : A-# 00 3 A06 : ... .. . ...
ROW 0F : G-3 00 7 ... ... ... : ... .. . ... ... ... : ... .. . S05 : ... .. . ... : ... .. . ...
ROW 10 : A-3 00 7 ... ... ... : B-3 00 7 ... ... ... : D-2 00 . S04 : 1-# 00 A A0C : ... .. . ...
ROW 11 : C-4 00 7 ... ... ... : B-3 00 7 ... ... ... : D-2 00 . S05 : --- .. . ... : ... .. . ...
ROW 12 : D-4 00 7 ... ... ... : A-3 00 7 ... ... ... : D-2 00 . S04 : A-# 00 3 A06 : ... .. . ...
ROW 13 : C-4 00 7 ... ... ... : A-3 00 7 ... ... ... : D-2 00 . S05 : 1-# 00 A A0C : ... .. . ...
ROW 14 : D-4 00 7 ... ... ... : B-3 00 7 ... ... ... : D-2 00 . S04 : 1-# 00 A A0C : ... .. . ...
ROW 15 : E-4 00 7 ... ... ... : ... .. . ... ... ... : ... .. . ... : --- .. . ... : ... .. . ...
ROW 16 : G-4 00 7 ... ... ... : B-3 00 9 ... ... ... : A-2 00 . ... : 1-# 00 A A0C : ... .. . ...
ROW 17 : E-4 00 7 ... ... ... : ... .. . ... ... ... : ... .. . ... : --- .. . ... : ... .. . ...
ROW 18 : D-4 00 7 ... ... ... : E-4 00 7 ... ... ... : ... .. . S04 : ... .. . ... : ... .. . ...
ROW 19 : E-4 00 7 ... ... ... : D-4 00 7 ... ... ... : ... .. . ... : ... .. . ... : ... .. . ...
ROW 1A : D-4 00 7 ... ... ... : B-3 00 7 ... ... ... : D-2 00 . S04 : A-# 00 3 A06 : ... .. . ...
ROW 1B : C-4 00 7 ... ... ... : A-3 00 7 ... ... ... : D-2 00 . S05 : ... .. . ... : ... .. . ...
ROW 1C : D-4 00 7 ... ... ... : B-3 00 7 ... ... ... : D-2 00 . S04 : 6-# 00 8 A06 : ... .. . ...
ROW 1D : ... .. . ... ... ... : A-3 00 7 ... ... ... : E-2 00 . S05 : ... .. . A02 : ... .. . ...
ROW 1E : C-4 00 7 ... ... ... : E-3 00 7 ... ... ... : F-2 00 . ... : A-# 00 3 A06 : ... .. . ...
ROW 1F : D-4 00 7 ... ... ... : D-3 00 7 ... ... ... : ... .. . S05 : ... .. . ... : ... .. . ...
ROW 20 : E-4 00 7 ... ... ... : C-4 00 7 ... ... ... : E-2 00 . S04 : 1-# 00 A A0C : ... .. . ...
ROW 21 : G-4 00 7 ... ... ... : C-4 00 7 ... ... ... : E-2 00 . S05 : --- .. . ... : ... .. . ...
ROW 22 : E-4 00 7 ... ... ... : B-3 00 7 ... ... ... : E-2 00 . S04 : A-# 00 3 A06 : ... .. . ...
ROW 23 : D-4 00 7 ... ... ... : B-3 00 7 ... ... ... : E-2 00 . S05 : 1-# 00 A A0C : ... .. . ...
ROW 24 : E-4 00 7 ... ... ... : C-4 00 7 ... ... ... : E-2 00 . S04 : 6-# 00 8 A06 : ... .. . ...
ROW 25 : D-4 00 7 ... ... ... : ... .. . ... ... ... : ... .. . ... : ... .. . A02 : ... .. . ...
ROW 26 : B-3 00 7 ... ... ... : C-4 00 9 ... ... ... : B-2 00 . ... : 1-# 00 A A0C : ... .. . ...
ROW 27 : A-3 00 7 ... ... ... : ... .. . ... ... ... : ... .. . S05 : --- .. . ... : ... .. . ...
ROW 28 : E-3 00 7 ... ... ... : C-4 00 7 ... ... ... : E-2 00 . S04 : ... .. . ... : ... .. . ...
ROW 29 : E-3 00 7 ... ... ... : C-4 00 7 ... ... ... : E-2 00 . S05 : ... .. . ... : ... .. . ...
ROW 2A : E-3 00 7 ... ... ... : B-3 00 7 ... ... ... : E-2 00 . S04 : 1-# 00 A A0C : ... .. . ...
ROW 2B : D-3 00 7 ... ... ... : B-3 00 7 ... ... ... : E-2 00 . S05 : --- .. . ... : ... .. . ...
ROW 2C : E-3 00 7 ... ... ... : C-4 00 7 ... ... ... : E-2 00 . S04 : 6-# 00 8 A06 : ... .. . ...
ROW 2D : ... .. . ... ... ... : F-4 00 7 ... ... ... : G-2 00 . S05 : ... .. . A02 : ... .. . ...
ROW 2E : G-3 00 7 ... ... ... : E-4 00 9 ... ... ... : D-2 00 . ... : A-# 00 3 A06 : ... .. . ...
ROW 2F : A-3 00 7 ... ... ... : ... .. . ... ... ... : ... .. . S05 : ... .. . ... : ... .. . ...
ROW 30 : B-3 00 7 ... ... ... : B-3 00 7 ... ... P7F : E-2 00 . S04 : 1-# 00 A A0C : ... .. . ...
ROW 31 : D-4 00 7 ... ... ... : B-3 00 7 ... ... P80 : E-2 00 . S05 : --- .. . ... : ... .. . ...
ROW 32 : E-4 00 7 ... ... ... : A-3 00 7 ... ... ... : E-2 00 . S04 : A-# 00 3 A06 : ... .. . ...
ROW 33 : D-4 00 7 ... ... ... : A-3 00 7 ... ... ... : E-2 00 . S05 : 1-# 00 A A0C : ... .. . ...
ROW 34 : E-4 00 7 ... ... ... : B-3 00 9 ... ... ... : E-2 00 . S04 : 6-# 00 8 A06 : ... .. . ...
ROW 35 : G-4 00 7 ... ... ... : ... .. . ... ... ... : E-2 00 . S05 : ... .. . A02 : ... .. . ...
ROW 36 : A-4 00 7 ... ... ... : ... .. . ... ... ... : ... .. . ... : 1-# 00 A A0C : ... .. . ...
ROW 37 : G-4 00 7 ... ... ... : B-3 00 7 ... ... ... : B-2 00 . S05 : --- .. . ... : ... .. . ...
ROW 38 : E-4 00 7 ... ... ... : ... .. . ... ... ... : E-2 00 . ... : ... .. . ... : ... .. . ...
ROW 39 : G-4 00 7 ... ... ... : ... .. . ... ... ... : ... .. . S05 : ... .. . ... : ... .. . ...
ROW 3A : E-4 00 7 ... ... ... : ... .. . ... ... ... : E-2 00 . S04 : 1-# 00 A A0C : ... .. . ...
ROW 3B : D-4 00 7 ... ... ... : ... .. . ... ... ... : E-2 00 . S05 : 1-# 00 A A0C : ... .. . ...
ROW 3C : E-4 00 7 ... ... ... : ... .. . ... ... ... : E-2 00 . S04 : 6-# 00 8 A06 : ... .. . ...
ROW 3D : ... .. . ... ... ... : ... .. . ... ... ... : G-2 00 . S05 : ... .. . A02 : ... .. . ...
ROW 3E : D-4 00 7 ... ... ... : ... .. . ... ... ... : E-2 00 . ... : A-# 00 3 A06 : ... .. . ...
ROW 3F : E-4 00 7 ... ... ... : ... .. . ... ... ... : ... .. . S05 : ... .. . ... : ... .. . ...

PATTERN 06
ROW 00 : F-4 00 7 ... ... ... : B-3 00 7 A05 V00 ... : F-2 00 . S04 : ... .. . ... : ... .. . ...
ROW 01 : A-4 00 7 ... ... ... : ... .. . ... ... ... : F-2 00 . S05 : ... .. . ... : ... .. . ...
ROW 02 : F-4 00 7 ... ... ... : B-3 00 7 ... ... ... : F-2 00 . S04 : ... .. . ... : ... .. . ...
ROW 03 : E-4 00 7 ... ... ... : ... .. . ... ... ... : F-2 00 . S05 : ... .. . ... : ... .. . ...
ROW 04 : F-4 00 7 ... ... ... : A-3 00 7 ... ... ... : F-2 00 . S04 : ... .. . ... : ... .. . ...
ROW 05 : E-4 00 7 ... ... ... : ... .. . ... ... ... : ... .. . ... : ... .. . ... : ... .. . ...
ROW 06 : D-4 00 7 ... ... ... : A-3 00 7 ... ... ... : C-3 00 . ... : ... .. . ... : ... .. . ...
ROW 07 : E-4 00 7 ... ... ... : ... .. . ... ... ... : ... .. . S05 : ... .. . ... : ... .. . ...
ROW 08 : D-4 00 7 ... ... ... : B-3 00 7 ... ... ... : F-2 00 . S04 : ... .. . ... : ... .. . ...
ROW 09 : A-3 00 7 ... ... ... : ... .. . ... ... ... : F-2 00 . S05 : ... .. . ... : ... .. . ...
ROW 0A : G-3 00 7 ... ... ... : E-4 00 7 ... ... ... : F-2 00 . S04 : ... .. . ... : ... .. . ...
ROW 0B : A-3 00 7 ... ... ... : ... .. . ... ... ... : F-2 00 . S05 : ... .. . ... : ... .. . ...
ROW 0C : G-3 00 7 ... ... ... : D-4 00 7 ... ... ... : F-2 00 . S04 : ... .. . ... : ... .. . ...
ROW 0D : A-3 00 7 ... ... ... : ... .. . ... ... ... : C-3 00 . S05 : ... .. . ... : ... .. . ...
ROW 0E : E-3 00 7 ... ... ... : B-3 00 7 ... ... ... : A-2 00 . ... : ... .. . ... : ... .. . ...
ROW 0F : D-3 00 7 ... ... ... : ... .. . ... ... ... : ... .. . S05 : ... .. . ... : ... .. . ...
ROW 10 : E-3 00 7 ... ... ... : ... .. . ... ... ... : E-2 00 . S04 : ... .. . ... : ... .. . ...
ROW 11 : G-3 00 7 ... ... ... : ... .. . ... ... ... : E-2 00 . S05 : ... .. . ... : ... .. . ...
ROW 12 : E-3 00 7 ... ... ... : ... .. . ... ... ... : E-2 00 . S04 : ... .. . ... : ... .. . ...
ROW 13 : D-3 00 7 ... ... ... : ... .. . ... ... ... : E-2 00 . S05 : ... .. . ... : ... .. . ...
ROW 14 : E-3 00 7 ... ... ... : ... .. . ... ... ... : E-2 00 . S04 : ... .. . ... : ... .. . ...
ROW 15 : D-3 00 7 ... ... ... : ... .. . ... ... ... : ... .. . ... : ... .. . ... : ... .. . ...
ROW 16 : B-2 00 7 ... ... ... : ... .. . ... ... ... : B-2 00 . ... : ... .. . ... : ... .. . ...
ROW 17 : D-3 00 7 ... ... ... : ... .. . ... ... ... : ... .. . ... : ... .. . ... : ... .. . ...
ROW 18 : E-3 00 7 ... ... ... : ... .. . ... ... ... : ... .. . S04 : ... .. . ... : ... .. . ...
ROW 19 : G-3 00 7 ... ... ... : ... .. . ... ... ... : ... .. . ... : ... .. . ... : ... .. . ...
ROW 1A : A-3 00 7 ... ... ... : ... .. . ... ... ... : E-2 00 . S04 : ... .. . ... : ... .. . ...
ROW 1B : C-4 00 7 ... ... ... : ... .. . ... ... ... : E-2 00 . S05 : ... .. . ... : ... .. . ...
ROW 1C : D-4 00 7 ... ... ... : ... .. . ... ... ... : E-2 00 . S04 : ... .. . ... : ... .. . ...
ROW 1D : E-4 00 7 ... ... ... : ... .. . ... ... ... : E-2 00 . S05 : ... .. . ... : ... .. . ...
ROW 1E : D-4 00 7 ... ... ... : ... .. . ... ... ... : B-2 00 . ... : ... .. . ... : ... .. . ...
ROW 1F : C-4 00 7 ... ... ... : ... .. . ... ... ... : ... .. . S05 : ... .. . ... : ... .. . ...
ROW 20 : A-3 00 7 ... ... ... : ... .. . ... ... ... : F-2 00 . S04 : ... .. . ... : ... .. . ...
ROW 21 : ... .. . ... ... ... : ... .. . ... ... ... : F-2 00 . S05 : ... .. . ... : ... .. . ...
ROW 22 : G-3 00 7 ... ... ... : ... .. . ... ... ... : F-2 00 . S04 : ... .. . ... : ... .. . ...
ROW 23 : E-3 00 7 ... ... ... : ... .. . ... ... ... : F-2 00 . S05 : ... .. . ... : ... .. . ...
ROW 24 : A-3 00 7 ... ... ... : ... .. . ... ... ... : F-2 00 . S04 : ... .. . ... : ... .. . ...
ROW 25 : ... .. . ... ... ... : ... .. . ... ... ... : ... .. . ... : ... .. . ... : ... .. . ...
ROW 26 : G-3 00 7 ... ... ... : ... .. . ... ... ... : C-3 00 . ... : ... .. . ... : ... .. . ...
ROW 27 : E-3 00 7 ... ... ... : ... .. . ... ... ... : ... .. . S05 : ... .. . ... : ... .. . ...
ROW 28 : A-3 00 7 ... ... ... : ... .. . ... ... ... : F-2 00 . S04 : ... .. . ... : ... .. . ...
ROW 29 : A-3 00 7 ... ... ... : ... .. . ... ... ... : F-2 00 . S05 : ... .. . ... : ... .. . ...
ROW 2A : A-3 00 7 ... ... ... : ... .. . ... ... ... : F-2 00 . S04 : ... .. . ... : ... .. . ...
ROW 2B : G-3 00 7 ... ... ... : ... .. . ... ... ... : F-2 00 . S05 : ... .. . ... : ... .. . ...
ROW 2C : A-3 00 7 ... ... ... : ... .. . ... ... ... : F-2 00 . S04 : ... .. . ... : ... .. . ...
ROW 2D : ... .. . ... ... ... : ... .. . ... ... ... : C-3 00 . S05 : ... .. . ... : ... .. . ...
ROW 2E : G-3 00 7 ... ... ... : ... .. . ... ... ... : A-2 00 . ... : ... .. . ... : ... .. . ...
ROW 2F : A-3 00 7 ... ... ... : ... .. . ... ... ... : ... .. . S05 : ... .. . ... : ... .. . ...
ROW 30 : B-3 00 7 ... ... ... : ... .. . ... ... ... : E-2 00 . S04 : ... .. . ... : ... .. . ...
ROW 31 : C-4 00 7 ... ... ... : ... .. . ... ... ... : E-2 00 . S05 : ... .. . ... : ... .. . ...
ROW 32 : B-3 00 7 ... ... ... : ... .. . ... ... ... : E-2 00 . S04 : ... .. . ... : ... .. . ...
ROW 33 : A-3 00 7 ... ... ... : ... .. . ... ... ... : E-2 00 . S05 : ... .. . ... : ... .. . ...
ROW 34 : G-3 00 7 ... ... ... : ... .. . ... ... ... : E-2 00 . S04 : ... .. . ... : ... .. . ...
ROW 35 : ... .. . ... ... ... : ... .. . ... ... ... : E-2 00 . S05 : ... .. . ... : ... .. . ...
ROW 36 : E-3 00 7 ... ... ... : ... .. . ... ... ... : ... .. . ... : ... .. . ... : ... .. . ...
ROW 37 : G-3 00 7 ... ... D00 : ... .. . ... ... ... : B-2 00 . S05 : ... .. . ... : ... .. . ...
ROW 38 : ... .. . ... ... ... : ... .. . ... ... ... : ... .. . ... : ... .. . ... : ... .. . ...
ROW 39 : ... .. . ... ... ... : ... .. . ... ... ... : ... .. . ... : ... .. . ... : ... .. . ...
ROW 3A : ... .. . ... ... ... : ... .. . ... ... ... : ... .. . ... : ... .. . ... : ... .. . ...
ROW 3B : ... .. . ... ... ... : ... .. . ... ... ... : ... .. . ... : ... .. . ... : ... .. . ...
ROW 3C : ... .. . ... ... ... : ... .. . ... ... ... : ... .. . ... : ... .. . ... : ... .. . ...
ROW 3D : ... .. . ... ... ... : ... .. . ... ... ... : ... .. . ... : ... .. . ... : ... .. . ...
ROW 3E : ... .. . ... ... ... : ... .. . ... ... ... : ... .. . ... : ... .. . ... : ... .. . ...
ROW 3F : ... .. . ... ... ... : ... .. . ... ... ... : ... .. . ... : ... .. . ... : ... .. . ...

PATTERN 07
ROW 00 : A-3 00 7 A04 V02 ... : A-3 00 7 A05 V00 P7F : E-2 00 . ... : ... .. . ... : ... .. . ...
ROW 01 : C-4 00 7 G01 ... ... : A-3 00 7 ... ... P80 : ... .. . ... : ... .. . ... : ... .. . ...
ROW 02 : D-4 00 7 G02 ... ... : G-3 00 7 ... ... ... : ... .. . S05 : ... .. . ... : ... .. . ...
ROW 03 : ... .. . ... ... ... : G-3 00 7 ... ... ... : ... .. . ... : ... .. . ... : ... .. . ...
ROW 04 : C-4 00 7 ... ... ... : A-3 00 7 ... ... ... : E-2 00 . S04 : ... .. . ... : ... .. . ...
ROW 05 : D-4 00 7 G01 ... ... : ... .. . ... ... ... : ... .. . ... : ... .. . ... : ... .. . ...
ROW 06 : E-4 00 7 G02 ... ... : A-3 00 9 ... ... ... : E-2 00 . S05 : ... .. . ... : ... .. . ...
ROW 07 : ... .. . ... ... ... : ... .. . ... ... ... : ... .. . ... : ... .. . ... : ... .. . ...
ROW 08 : D-4 00 7 ... ... ... : A-3 00 7 ... ... P7F : E-2 00 . S04 : ... .. . ... : ... .. . ...
ROW 09 : E-4 00 7 G01 P7F ... : A-3 00 7 ... ... ... : ... .. . ... : ... .. . ... : ... .. . ...
ROW 0A : D-4 00 7 G02 P80 ... : G-3 00 7 ... ... P80 : G-2 00 . S05 : ... .. . ... : ... .. . ...
ROW 0B : ... .. . ... ... ... : G-3 00 7 ... ... ... : ... .. . ... : ... .. . ... : ... .. . ...
ROW 0C : C-4 00 7 ... ... ... : A-3 00 7 ... ... ... : D-2 00 . ... : ... .. . ... : ... .. . ...
ROW 0D : A-3 00 7 G01 ... ... : E-4 00 7 ... ... ... : ... .. . ... : ... .. . ... : ... .. . ...
ROW 0E : C-4 00 7 G02 ... ... : D-4 00 9 ... ... ... : ... .. . S05 : ... .. . ... : ... .. . ...
ROW 0F : ... .. . ... ... D00 : ... .. . ... ... ... : ... .. . ... : ... .. . ... : ... .. . ...
ROW 10 : ... .. . ... ... ... : G-3 00 7 ... ... ... : ... .. . ... : ... .. . ... : ... .. . ...
ROW 11 : ... .. . ... ... ... : G-3 00 7 ... ... ... : ... .. . ... : ... .. . ... : ... .. . ...
ROW 12 : ... .. . ... ... ... : E-3 00 7 ... ... P7F : ... .. . ... : ... .. . ... : ... .. . ...
ROW 13 : ... .. . ... ... ... : E-3 00 7 ... ... ... : ... .. . ... : ... .. . ... : ... .. . ...
ROW 14 : ... .. . ... ... ... : G-3 00 7 ... ... ... : ... .. . ... : ... .. . ... : ... .. . ...
ROW 15 : ... .. . ... ... ... : ... .. . ... ... ... : ... .. . ... : ... .. . ... : ... .. . ...
ROW 16 : ... .. . ... ... ... : G-3 00 9 ... ... ... : ... .. . ... : ... .. . ... : ... .. . ...
ROW 17 : ... .. . ... ... ... : ... .. . ... ... ... : ... .. . ... : ... .. . ... : ... .. . ...
ROW 18 : ... .. . ... ... ... : G-3 00 7 ... ... P80 : ... .. . ... : ... .. . ... : ... .. . ...
ROW 19 : ... .. . ... ... ... : G-3 00 7 ... ... ... : ... .. . ... : ... .. . ... : ... .. . ...
ROW 1A : ... .. . ... ... ... : E-3 00 7 ... ... ... : ... .. . ... : ... .. . ... : ... .. . ...
ROW 1B : ... .. . ... ... ... : E-3 00 7 ... ... ... : ... .. . ... : ... .. . ... : ... .. . ...
ROW 1C : ... .. . ... ... ... : G-3 00 7 ... ... ... : ... .. . ... : ... .. . ... : ... .. . ...
ROW 1D : ... .. . ... ... ... : C-4 00 7 ... ... P7F : ... .. . ... : ... .. . ... : ... .. . ...
ROW 1E : ... .. . ... ... ... : A-3 00 7 ... ... P80 : ... .. . ... : ... .. . ... : ... .. . ...
ROW 1F : ... .. . ... ... ... : G-3 00 7 ... ... ... : ... .. . ... : ... .. . ... : ... .. . ...
ROW 20 : ... .. . ... ... ... : F-3 00 7 ... ... ... : ... .. . ... : ... .. . ... : ... .. . ...
ROW 21 : ... .. . ... ... ... : F-3 00 7 ... ... ... : ... .. . ... : ... .. . ... : ... .. . ...
ROW 22 : ... .. . ... ... ... : E-3 00 7 ... ... ... : ... .. . ... : ... .. . ... : ... .. . ...
ROW 23 : ... .. . ... ... ... : E-3 00 7 ... ... ... : ... .. . ... : ... .. . ... : ... .. . ...
ROW 24 : ... .. . ... ... ... : F-3 00 7 ... ... ... : ... .. . ... : ... .. . ... : ... .. . ...
ROW 25 : ... .. . ... ... ... : ... .. . ... ... ... : ... .. . ... : ... .. . ... : ... .. . ...
ROW 26 : ... .. . ... ... ... : F-3 00 9 ... ... ... : ... .. . ... : ... .. . ... : ... .. . ...
ROW 27 : ... .. . ... ... ... : ... .. . ... ... ... : ... .. . ... : ... .. . ... : ... .. . ...
ROW 28 : ... .. . ... ... ... : F-3 00 7 ... ... ... : ... .. . ... : ... .. . ... : ... .. . ...
ROW 29 : ... .. . ... ... ... : F-3 00 7 ... ... ... : ... .. . ... : ... .. . ... : ... .. . ...
ROW 2A : ... .. . ... ... ... : E-3 00 7 ... ... ... : ... .. . ... : ... .. . ... : ... .. . ...
ROW 2B : ... .. . ... ... ... : E-3 00 7 ... ... ... : ... .. . ... : ... .. . ... : ... .. . ...
ROW 2C : ... .. . ... ... ... : F-3 00 7 ... ... ... : ... .. . ... : ... .. . ... : ... .. . ...
ROW 2D : ... .. . ... ... ... : A-3 00 7 ... ... ... : ... .. . ... : ... .. . ... : ... .. . ...
ROW 2E : ... .. . ... ... ... : G-3 00 9 ... ... ... : ... .. . ... : ... .. . ... : ... .. . ...
ROW 2F : ... .. . ... ... ... : ... .. . ... ... ... : ... .. . ... : ... .. . ... : ... .. . ...
ROW 30 : ... .. . ... ... ... : E-3 00 7 ... ... ... : ... .. . ... : ... .. . ... : ... .. . ...
ROW 31 : ... .. . ... ... ... : E-3 00 7 ... ... ... : ... .. . ... : ... .. . ... : ... .. . ...
ROW 32 : ... .. . ... ... ... : D-3 00 7 ... ... ... : ... .. . ... : ... .. . ... : ... .. . ...
ROW 33 : ... .. . ... ... ... : D-3 00 7 ... ... ... : ... .. . ... : ... .. . ... : ... .. . ...
ROW 34 : ... .. . ... ... ... : E-3 00 7 ... ... ... : ... .. . ... : ... .. . ... : ... .. . ...
ROW 35 : ... .. . ... ... ... : ... .. . ... ... ... : ... .. . ... : ... .. . ... : ... .. . ...
ROW 36 : ... .. . ... ... ... : E-3 00 9 ... ... P7F : ... .. . ... : ... .. . ... : ... .. . ...
ROW 37 : ... .. . ... ... ... : ... .. . ... ... ... : ... .. . ... : ... .. . ... : ... .. . ...
ROW 38 : ... .. . ... ... ... : E-3 00 7 ... ... P80 : ... .. . ... : ... .. . ... : ... .. . ...
ROW 39 : ... .. . ... ... ... : E-3 00 7 ... ... ... : ... .. . ... : ... .. . ... : ... .. . ...
ROW 3A : ... .. . ... ... ... : D-3 00 7 ... ... ... : ... .. . ... : ... .. . ... : ... .. . ...
ROW 3B : ... .. . ... ... ... : D-3 00 7 ... ... ... : ... .. . ... : ... .. . ... : ... .. . ...
ROW 3C : ... .. . ... ... ... : E-3 00 7 ... ... ... : ... .. . ... : ... .. . ... : ... .. . ...
ROW 3D : ... .. . ... ... ... : B-3 00 7 ... ... ... : ... .. . ... : ... .. . ... : ... .. . ...
ROW 3E : ... .. . ... ... ... : A-3 00 7 ... ... P7F : ... .. . ... : ... .. . ... : ... .. . ...
ROW 3F : ... .. . ... ... ... : G-3 00 7 ... ... P80 : ... .. . ... : ... .. . ... : ... .. . ...

PATTERN 08
ROW 00 : A-3 00 7 V02 A01 ... : ... .. . ... ... ... : D-2 00 . S04 : ... .. . ... : ... .. . ...
ROW 01 : ... .. . ... ... ... : ... .. . ... ... ... : D-2 00 . S05 : ... .. . ... : ... .. . ...
ROW 02 : ... .. . ... 481 ... : ... .. . ... ... ... : D-2 00 . S04 : ... .. . ... : ... .. . ...
ROW 03 : ... .. . ... ... ... : ... .. . ... ... ... : D-2 00 . S05 : ... .. . ... : ... .. . ...
ROW 04 : ... .. . ... ... ... : ... .. . ... ... ... : D-2 00 . S04 : ... .. . ... : ... .. . ...
ROW 05 : ... .. . S06 ... ... : ... .. . ... ... ... : ... .. . ... : ... .. . ... : ... .. . ...
ROW 06 : C-4 00 7 ... 400 ... : ... .. . ... ... ... : A-2 00 . ... : ... .. . ... : ... .. . ...
ROW 07 : ... .. . S06 ... ... : ... .. . ... ... ... : ... .. . S05 : ... .. . ... : ... .. . ...
ROW 08 : A-3 00 7 ... ... ... : ... .. . ... ... ... : D-2 00 . S04 : ... .. . ... : ... .. . ...
ROW 09 : ... .. . ... ... ... : ... .. . ... ... ... : D-2 00 . S05 : ... .. . ... : ... .. . ...
ROW 0A : ... .. . ... ... ... : ... .. . ... ... ... : D-2 00 . S04 : ... .. . ... : ... .. . ...
ROW 0B : ... .. . S06 ... ... : ... .. . ... ... ... : D-2 00 . S05 : ... .. . ... : ... .. . ...
ROW 0C : G-3 00 7 ... ... ... : ... .. . ... ... ... : D-2 00 . S04 : ... .. . ... : ... .. . ...
ROW 0D : ... .. . S06 ... ... : ... .. . ... ... ... : F-2 00 . S05 : ... .. . ... : ... .. . ...
ROW 0E : F-3 00 7 ... ... ... : ... .. . ... ... ... : C-2 00 . ... : ... .. . ... : ... .. . ...
ROW 0F : ... .. . S06 ... ... : ... .. . ... ... ... : ... .. . S05 : ... .. . ... : ... .. . ...
ROW 10 : E-3 00 7 ... ... ... : ... .. . ... ... ... : C-2 00 . S04 : ... .. . ... : ... .. . ...
ROW 11 : ... .. . ... ... ... : ... .. . ... ... ... : C-2 00 . S05 : ... .. . ... : ... .. . ...
ROW 12 : ... .. . ... 481 ... : ... .. . ... ... ... : C-2 00 . S04 : ... .. . ... : ... .. . ...
ROW 13 : ... .. . S06 ... ... : ... .. . ... ... ... : C-2 00 . S05 : ... .. . ... : ... .. . ...
ROW 14 : G-3 00 7 ... 400 ... : ... .. . ... ... ... : C-2 00 . S04 : ... .. . ... : ... .. . ...
ROW 15 : ... .. . ... ... ... : ... .. . ... ... ... : ... .. . ... : ... .. . ... : ... .. . ...
ROW 16 : ... .. . ... 481 ... : ... .. . ... ... ... : G-2 00 . ... : ... .. . ... : ... .. . ...
ROW 17 : ... .. . S06 ... ... : ... .. . ... ... ... : ... .. . ... : ... .. . ... : ... .. . ...
ROW 18 : A-3 00 7 ... 400 ... : ... .. . ... ... ... : ... .. . S04 : ... .. . ... : ... .. . ...
ROW 19 : ... .. . ... ... ... : ... .. . ... ... ... : ... .. . ... : ... .. . ... : ... .. . ...
ROW 1A : ... .. . ... 481 ... : ... .. . ... ... ... : C-2 00 . S04 : ... .. . ... : ... .. . ...
ROW 1B : ... .. . S06 ... ... : ... .. . ... ... ... : C-2 00 . S05 : ... .. . ... : ... .. . ...
ROW 1C : C-4 00 7 ... 400 ... : ... .. . ... ... ... : C-2 00 . S04 : ... .. . ... : ... .. . ...
ROW 1D : ... .. . ... ... ... : ... .. . ... ... ... : G-2 00 . S05 : ... .. . ... : ... .. . ...
ROW 1E : ... .. . ... 481 ... : ... .. . ... ... ... : E-2 00 . ... : ... .. . ... : ... .. . ...
ROW 1F : ... .. . S06 ... ... : ... .. . ... ... ... : ... .. . S05 : ... .. . ... : ... .. . ...
ROW 20 : D-4 00 7 ... 400 ... : ... .. . ... ... ... : A#1 00 . S04 : ... .. . ... : ... .. . ...
ROW 21 : ... .. . ... ... ... : ... .. . ... ... ... : A#1 00 . S05 : ... .. . ... : ... .. . ...
ROW 22 : ... .. . ... 481 ... : ... .. . ... ... ... : A#1 00 . S04 : ... .. . ... : ... .. . ...
ROW 23 : ... .. . ... ... ... : ... .. . ... ... ... : A#1 00 . S05 : ... .. . ... : ... .. . ...
ROW 24 : ... .. . ... ... ... : ... .. . ... ... ... : A#1 00 . S04 : ... .. . ... : ... .. . ...
ROW 25 : ... .. . S06 ... ... : ... .. . ... ... ... : ... .. . ... : ... .. . ... : ... .. . ...
ROW 26 : E-4 00 7 ... 400 ... : ... .. . ... ... ... : F-2 00 . ... : ... .. . ... : ... .. . ...
ROW 27 : ... .. . S06 ... ... : ... .. . ... ... ... : ... .. . S05 : ... .. . ... : ... .. . ...
ROW 28 : D-4 00 7 ... ... ... : ... .. . ... ... ... : A#1 00 . S04 : ... .. . ... : ... .. . ...
ROW 29 : ... .. . ... ... ... : ... .. . ... ... ... : A#1 00 . S05 : ... .. . ... : ... .. . ...
ROW 2A : ... .. . S05 ... ... : ... .. . ... ... ... : A#1 00 . S04 : ... .. . ... : ... .. . ...
ROW 2B : E-4 00 7 S06 ... ... : ... .. . ... ... ... : A#1 00 . S05 : ... .. . ... : ... .. . ...
ROW 2C : D-4 00 7 ... ... ... : ... .. . ... ... ... : A#1 00 . S04 : ... .. . ... : ... .. . ...
ROW 2D : ... .. . S06 ... ... : ... .. . ... ... ... : F-2 00 . S05 : ... .. . ... : ... .. . ...
ROW 2E : C-4 00 7 ... ... ... : ... .. . ... ... ... : D-2 00 . ... : ... .. . ... : ... .. . ...
ROW 2F : ... .. . S06 ... ... : ... .. . ... ... ... : ... .. . S05 : ... .. . ... : ... .. . ...
ROW 30 : A-3 00 7 ... ... ... : ... .. . ... ... ... : A-1 00 . S04 : ... .. . ... : ... .. . ...
ROW 31 : ... .. . ... ... ... : ... .. . ... ... ... : A-1 00 . S05 : ... .. . ... : ... .. . ...
ROW 32 : ... .. . S06 ... ... : ... .. . ... ... ... : A-1 00 . S04 : ... .. . ... : ... .. . ...
ROW 33 : A-3 00 7 S06 ... ... : ... .. . ... ... ... : A-1 00 . S05 : ... .. . ... : ... .. . ...
ROW 34 : G-3 00 7 ... ... ... : ... .. . ... ... ... : A-1 00 . S04 : ... .. . ... : ... .. . ...
ROW 35 : ... .. . S06 ... ... : ... .. . ... ... ... : ... .. . ... : ... .. . ... : ... .. . ...
ROW 36 : E-3 00 7 ... ... ... : ... .. . ... ... ... : E-2 00 . ... : ... .. . ... : ... .. . ...
ROW 37 : ... .. . S06 ... ... : ... .. . ... ... ... : ... .. . ... : ... .. . ... : ... .. . ...
ROW 38 : A-3 00 7 ... ... ... : ... .. . ... ... ... : ... .. . S04 : ... .. . ... : ... .. . ...
ROW 39 : ... .. . S06 ... ... : ... .. . ... ... ... : ... .. . ... : ... .. . ... : ... .. . ...
ROW 3A : ... .. . ... ... ... : ... .. . ... ... ... : A-1 00 . S04 : ... .. . ... : ... .. . ...
ROW 3B : ... .. . ... ... ... : ... .. . ... ... ... : A-1 00 . S05 : ... .. . ... : ... .. . ...
ROW 3C : A-3 00 7 ... ... ... : ... .. . ... ... ... : A-1 00 . S04 : ... .. . ... : ... .. . ...
ROW 3D : ... .. . ... ... ... : ... .. . ... ... ... : A-1 00 . S05 : ... .. . ... : ... .. . ...
ROW 3E : ... .. . ... 481 ... : ... .. . ... ... ... : E-2 00 . ... : ... .. . ... : ... .. . ...
ROW 3F : ... .. . ... ... ... : ... .. . ... ... ... : ... .. . S05 : ... .. . ... : ... .. . ...

PATTERN 09
ROW 00 : ... .. . A00 ... ... : ... .. . ... ... ... : D-2 00 . S04 : ... .. . ... : ... .. . ...
ROW 01 : ... .. . A01 ... ... : ... .. . ... ... ... : D-2 00 . S05 : ... .. . ... : ... .. . ...
ROW 02 : ... .. . A00 ... ... : ... .. . ... ... ... : D-2 00 . S04 : ... .. . ... : ... .. . ...
ROW 03 : ... .. . A01 ... ... : ... .. . ... ... ... : D-2 00 . S05 : ... .. . ... : ... .. . ...
ROW 04 : ... .. . A00 ... ... : ... .. . ... ... ... : D-2 00 . S04 : ... .. . ... : ... .. . ...
ROW 05 : ... .. . A01 ... ... : ... .. . ... ... ... : ... .. . ... : ... .. . ... : ... .. . ...
ROW 06 : ... .. . A00 ... ... : ... .. . ... ... ... : A-2 00 . ... : ... .. . ... : ... .. . ...
ROW 07 : ... .. . A01 ... ... : ... .. . ... ... ... : ... .. . S05 : ... .. . ... : ... .. . ...
ROW 08 : ... .. . A00 ... ... : ... .. . ... ... ... : D-2 00 . S04 : ... .. . ... : ... .. . ...
ROW 09 : ... .. . A01 ... ... : ... .. . ... ... ... : D-2 00 . S05 : ... .. . ... : ... .. . ...
ROW 0A : ... .. . A00 ... ... : ... .. . ... ... ... : D-2 00 . S04 : ... .. . ... : ... .. . ...
ROW 0B : ... .. . A01 ... ... : ... .. . ... ... ... : D-2 00 . S05 : ... .. . ... : ... .. . ...
ROW 0C : ... .. . A00 ... ... : ... .. . ... ... ... : D-2 00 . S04 : ... .. . ... : ... .. . ...
ROW 0D : ... .. . A01 ... ... : ... .. . ... ... ... : F-2 00 . S05 : ... .. . ... : ... .. . ...
ROW 0E : ... .. . A00 ... ... : ... .. . ... ... ... : C-2 00 . ... : ... .. . ... : ... .. . ...
ROW 0F : ... .. . A01 ... ... : ... .. . ... ... ... : ... .. . S05 : ... .. . ... : ... .. . ...
ROW 10 : A-2 00 7 A01 400 P81 : ... .. . ... ... ... : D-2 00 . S04 : ... .. . ... : ... .. . ...
ROW 11 : ... .. . ... ... ... : ... .. . ... ... ... : D-2 00 . S05 : ... .. . ... : ... .. . ...
ROW 12 : ... .. . ... 481 ... : ... .. . ... ... ... : D-2 00 . S04 : ... .. . ... : ... .. . ...
ROW 13 : ... .. . ... ... ... : ... .. . ... ... ... : D-2 00 . S05 : ... .. . ... : ... .. . ...
ROW 14 : ... .. . A00 ... ... : ... .. . ... ... ... : D-2 00 . S04 : ... .. . ... : ... .. . ...
ROW 15 : ... .. . A01 ... ... : ... .. . ... ... ... : ... .. . ... : ... .. . ... : ... .. . ...
ROW 16 : ... .. . A00 ... ... : ... .. . ... ... ... : A-2 00 . ... : ... .. . ... : ... .. . ...
ROW 17 : ... .. . A01 ... ... : ... .. . ... ... ... : ... .. . ... : ... .. . ... : ... .. . ...
ROW 18 : ... .. . A00 ... ... : ... .. . ... ... ... : ... .. . S04 : ... .. . ... : ... .. . ...
ROW 19 : ... .. . A01 ... ... : ... .. . ... ... ... : ... .. . ... : ... .. . ... : ... .. . ...
ROW 1A : ... .. . A00 ... ... : ... .. . ... ... ... : D-2 00 . S04 : ... .. . ... : ... .. . ...
ROW 1B : ... .. . A01 ... ... : ... .. . ... ... ... : D-2 00 . S05 : ... .. . ... : ... .. . ...
ROW 1C : ... .. . A00 ... ... : ... .. . ... ... ... : D-2 00 . S04 : ... .. . ... : ... .. . ...
ROW 1D : ... .. . A01 ... P80 : ... .. . ... ... ... : F-2 00 . S05 : ... .. . ... : ... .. . ...
ROW 1E : ... .. . A00 ... ... : ... .. . ... ... ... : C-2 00 . ... : ... .. . ... : ... .. . ...
ROW 1F : ... .. . A01 ... ... : ... .. . ... ... ... : ... .. . S05 : ... .. . ... : ... .. . ...
ROW 20 : D-3 00 5 A05 V00 400 : ... .. . ... ... ... : D-2 00 . S04 : ... .. . ... : ... .. . ...
ROW 21 : D-3 00 5 ... ... ... : ... .. . ... ... ... : D-2 00 . S05 : ... .. . ... : ... .. . ...
ROW 22 : C-3 00 5 ... ... ... : ... .. . ... ... ... : D-2 00 . S04 : ... .. . ... : ... .. . ...
ROW 23 : C-3 00 5 ... ... ... : ... .. . ... ... ... : D-2 00 . S05 : ... .. . ... : ... .. . ...
ROW 24 : D-3 00 5 ... ... ... : ... .. . ... ... ... : D-2 00 . S04 : ... .. . ... : ... .. . ...
ROW 25 : ... .. . ... ... ... : ... .. . ... ... ... : ... .. . ... : ... .. . ... : ... .. . ...
ROW 26 : F-3 00 7 ... ... ... : ... .. . ... ... ... : A-2 00 . ... : ... .. . ... : ... .. . ...
ROW 27 : ... .. . ... ... ... : ... .. . ... ... ... : ... .. . S05 : ... .. . ... : ... .. . ...
ROW 28 : D-3 00 6 ... ... ... : ... .. . ... ... ... : D-2 00 . S04 : ... .. . ... : ... .. . ...
ROW 29 : D-3 00 6 ... ... ... : ... .. . ... ... ... : D-2 00 . S05 : ... .. . ... : ... .. . ...
ROW 2A : C-3 00 6 ... ... ... : ... .. . ... ... ... : D-2 00 . S04 : ... .. . ... : ... .. . ...
ROW 2B : C-3 00 6 ... ... ... : ... .. . ... ... ... : D-2 00 . S05 : ... .. . ... : ... .. . ...
ROW 2C : D-3 00 6 ... ... ... : ... .. . ... ... ... : D-2 00 . S04 : ... .. . ... : ... .. . ...
ROW 2D : A-3 00 7 ... ... ... : ... .. . ... ... ... : F-2 00 . S05 : ... .. . ... : ... .. . ...
ROW 2E : G-3 00 9 ... ... ... : ... .. . ... ... ... : C-2 00 . ... : ... .. . ... : ... .. . ...
ROW 2F : ... .. . ... ... ... : ... .. . ... ... ... : ... .. . S05 : ... .. . ... : ... .. . ...
ROW 30 : D-3 00 7 ... ... ... : ... .. . ... ... ... : D-2 00 . S04 : ... .. . ... : ... .. . ...
ROW 31 : D-3 00 7 ... ... ... : ... .. . ... ... ... : D-2 00 . S05 : ... .. . ... : ... .. . ...
ROW 32 : C-3 00 7 ... ... ... : ... .. . ... ... ... : D-2 00 . S04 : ... .. . ... : ... .. . ...
ROW 33 : C-3 00 7 ... ... ... : ... .. . ... ... ... : D-2 00 . S05 : ... .. . ... : ... .. . ...
ROW 34 : D-3 00 7 ... ... ... : ... .. . ... ... ... : D-2 00 . S04 : ... .. . ... : ... .. . ...
ROW 35 : ... .. . ... ... ... : ... .. . ... ... ... : ... .. . ... : ... .. . ... : ... .. . ...
ROW 36 : F-3 00 9 ... ... ... : ... .. . ... ... ... : A-2 00 . ... : ... .. . ... : ... .. . ...
ROW 37 : ... .. . ... ... ... : ... .. . ... ... ... : ... .. . ... : ... .. . ... : ... .. . ...
ROW 38 : D-3 00 7 ... ... ... : ... .. . ... ... ... : ... .. . S04 : ... .. . ... : ... .. . ...
ROW 39 : D-3 00 7 ... ... ... : ... .. . ... ... ... : D-3 00 . ... : ... .. . ... : ... .. . ...
ROW 3A : C-3 00 7 ... ... ... : ... .. . ... ... ... : ... .. . S04 : ... .. . ... : ... .. . ...
ROW 3B : C-3 00 7 ... ... ... : ... .. . ... ... ... : C-3 00 . S05 : ... .. . ... : ... .. . ...
ROW 3C : G-3 00 7 V02 A01 ... : ... .. . ... ... ... : A-2 00 . S04 : ... .. . ... : ... .. . ...
ROW 3D : ... .. . ... ... ... : ... .. . ... ... ... : G-2 00 . S05 : ... .. . ... : ... .. . ...
ROW 3E : ... .. . ... ... ... : ... .. . ... ... ... : F-2 00 . S04 : ... .. . ... : ... .. . ...
ROW 3F : ... .. . ... ... B01 : ... .. . ... ... ... : C-2 00 . S05 : ... .. . ... : ... .. . ...

TRACK  64   7 150 "Zangief"
COLUMNS : 3 3 1 1 1

ORDER 00 : 00 00 00 00 00
ORDER 01 : 01 01 01 01 00
ORDER 02 : 02 02 01 02 00
ORDER 03 : 04 03 02 03 00
ORDER 04 : 05 02 01 04 00
ORDER 05 : 08 04 03 05 00
ORDER 06 : 0A 05 04 06 00
ORDER 07 : 0B 06 05 07 00

PATTERN 00
ROW 00 : ... .. . ... ... ... : ... .. . ... ... ... : D-2 00 . ... : 1-# 00 A A0C : ... .. . F06
ROW 01 : ... .. . ... ... ... : ... .. . ... ... ... : ... .. . ... : --- .. . ... : ... .. . F07
ROW 02 : ... .. . ... ... ... : ... .. . ... ... ... : ... .. . ... : ... .. . ... : ... .. . ...
ROW 03 : ... .. . ... ... ... : ... .. . ... ... ... : ... .. . S05 : ... .. . ... : ... .. . ...
ROW 04 : ... .. . ... ... ... : ... .. . ... ... ... : E-2 00 . ... : 1-# 00 A A0C : ... .. . F06
ROW 05 : ... .. . ... ... ... : ... .. . ... ... ... : ... .. . ... : --- .. . ... : ... .. . F07
ROW 06 : ... .. . ... ... ... : ... .. . ... ... ... : ... .. . ... : ... .. . ... : ... .. . ...
ROW 07 : ... .. . ... ... ... : ... .. . ... ... ... : ... .. . S05 : ... .. . ... : ... .. . ...
ROW 08 : ... .. . ... ... ... : ... .. . ... ... ... : F-2 00 . ... : 1-# 00 A A0C : ... .. . F06
ROW 09 : ... .. . ... ... ... : ... .. . ... ... ... : --- .. . ... : 6-# 00 8 A06 : ... .. . F07
ROW 0A : ... .. . ... ... ... : ... .. . ... ... ... : G-2 00 . ... : ... .. . A02 : ... .. . ...
ROW 0B : ... .. . ... ... ... : ... .. . ... ... ... : ... .. . ... : ... .. . ... : ... .. . ...
ROW 0C : ... .. . ... ... ... : ... .. . ... ... ... : ... .. . ... : 7-# 00 6 A08 : ... .. . F06
ROW 0D : ... .. . ... ... ... : ... .. . ... ... ... : ... .. . ... : 7-# 00 6 A08 : ... .. . F07
ROW 0E : ... .. . ... ... ... : ... .. . ... ... ... : ... .. . ... : ... .. . ... : ... .. . ...
ROW 0F : ... .. . ... ... ... : ... .. . ... ... ... : ... .. . S05 : ... .. . ... : ... .. . ...
ROW 10 : ... .. . ... ... ... : ... .. . ... ... ... : ... .. . ... : 1-# 00 A A0C : ... .. . F06
ROW 11 : ... .. . ... ... ... : ... .. . ... ... ... : D-2 00 . ... : --- .. . ... : ... .. . F07
ROW 12 : ... .. . ... ... ... : ... .. . ... ... ... : --- .. . ... : ... .. . ... : ... .. . ...
ROW 13 : ... .. . ... ... ... : ... .. . ... ... ... : D-2 00 . S05 : ... .. . ... : ... .. . ...
ROW 14 : ... .. . ... ... ... : ... .. . ... ... ... : E-2 00 . ... : 1-# 00 A A0C : ... .. . F06
ROW 15 : ... .. . ... ... ... : ... .. . ... ... ... : ... .. . ... : --- .. . ... : ... .. . F07
ROW 16 : ... .. . ... ... ... : ... .. . ... ... ... : ... .. . ... : ... .. . ... : ... .. . ...
ROW 17 : ... .. . ... ... ... : ... .. . ... ... ... : ... .. . S05 : ... .. . ... : ... .. . ...
ROW 18 : ... .. . ... ... ... : ... .. . ... ... ... : F-2 00 . ... : 1-# 00 A A0C : ... .. . F06
ROW 19 : ... .. . ... ... ... : ... .. . ... ... ... : ... .. . ... : 6-# 00 8 A06 : ... .. . F07
ROW 1A : ... .. . ... ... ... : ... .. . ... ... ... : ... .. . S05 : ... .. . A02 : ... .. . ...
ROW 1B : ... .. . ... ... ... : ... .. . ... ... ... : G-2 00 . ... : ... .. . ... : ... .. . ...
ROW 1C : ... .. . ... ... ... : ... .. . ... ... ... : --- .. . ... : 6-# 00 8 A06 : ... .. . F06
ROW 1D : ... .. . ... ... ... : ... .. . ... ... ... : ... .. . ... : ... .. . A02 : ... .. . F07
ROW 1E : ... .. . ... ... ... : ... .. . ... ... ... : A-1 00 . ... : 6-# 00 8 A06 : ... .. . ...
ROW 1F : ... .. . ... ... ... : ... .. . ... ... ... : ... .. . S05 : 6-# 00 8 A06 : ... .. . ...
ROW 20 : ... .. . ... ... ... : ... .. . ... ... ... : D-2 00 . ... : 1-# 00 A A0C : ... .. . F06
ROW 21 : ... .. . ... ... ... : ... .. . ... ... ... : ... .. . ... : --- .. . ... : ... .. . F07
ROW 22 : ... .. . ... ... ... : ... .. . ... ... ... : ... .. . ... : ... .. . ... : ... .. . ...
ROW 23 : ... .. . ... ... ... : ... .. . ... ... ... : ... .. . S05 : ... .. . ... : ... .. . ...
ROW 24 : ... .. . ... ... ... : ... .. . ... ... ... : E-2 00 . ... : 1-# 00 A A0C : ... .. . F06
ROW 25 : ... .. . ... ... ... : ... .. . ... ... ... : ... .. . ... : --- .. . ... : ... .. . F07
ROW 26 : ... .. . ... ... ... : ... .. . ... ... ... : ... .. . ... : ... .. . ... : ... .. . ...
ROW 27 : ... .. . ... ... ... : ... .. . ... ... ... : ... .. . S05 : ... .. . ... : ... .. . ...
ROW 28 : ... .. . ... ... ... : ... .. . ... ... ... : F-2 00 . ... : 1-# 00 A A0C : ... .. . F06
ROW 29 : ... .. . ... ... ... : ... .. . ... ... ... : --- .. . ... : 6-# 00 8 A06 : ... .. . F07
ROW 2A : ... .. . ... ... ... : ... .. . ... ... ... : G-2 00 . ... : ... .. . A02 : ... .. . ...
ROW 2B : ... .. . ... ... ... : ... .. . ... ... ... : ... .. . ... : ... .. . ... : ... .. . ...
ROW 2C : ... .. . ... ... ... : ... .. . ... ... ... : ... .. . ... : 7-# 00 6 A08 : ... .. . F06
ROW 2D : ... .. . ... ... ... : ... .. . ... ... ... : ... .. . ... : 1-# 00 A A0C : ... .. . F07
ROW 2E : ... .. . ... ... ... : ... .. . ... ... ... : ... .. . ... : --- .. . ... : ... .. . ...
ROW 2F : ... .. . ... ... ... : ... .. . ... ... ... : ... .. . S05 : ... .. . ... : ... .. . ...
ROW 30 : ... .. . ... ... ... : ... .. . ... ... ... : ... .. . ... : 1-# 00 A A0C : ... .. . F06
ROW 31 : ... .. . ... ... ... : ... .. . ... ... ... : D-2 00 . ... : --- .. . ... : ... .. . F07
ROW 32 : ... .. . ... ... ... : ... .. . ... ... ... : --- .. . ... : ... .. . ... : ... .. . ...
ROW 33 : ... .. . ... ... ... : ... .. . ... ... ... : D-2 00 . S05 : ... .. . ... : ... .. . ...
ROW 34 : ... .. . ... ... ... : ... .. . ... ... ... : E-2 00 . ... : 1-# 00 A A0C : ... .. . F06
ROW 35 : ... .. . ... ... ... : ... .. . ... ... ... : ... .. . ... : --- .. . ... : ... .. . F07
ROW 36 : ... .. . ... ... ... : ... .. . ... ... ... : ... .. . ... : ... .. . ... : ... .. . ...
ROW 37 : ... .. . ... ... ... : ... .. . ... ... ... : ... .. . S05 : ... .. . ... : ... .. . ...
ROW 38 : ... .. . ... ... ... : ... .. . ... ... ... : F-2 00 . ... : 1-# 00 A A0C : ... .. . F06
ROW 39 : ... .. . ... ... ... : ... .. . ... ... ... : ... .. . ... : 6-# 00 8 A06 : ... .. . F07
ROW 3A : ... .. . ... ... ... : ... .. . ... ... ... : ... .. . S05 : ... .. . A02 : ... .. . ...
ROW 3B : ... .. . ... ... ... : ... .. . ... ... ... : G-2 00 . ... : ... .. . ... : ... .. . ...
ROW 3C : ... .. . ... ... ... : ... .. . ... ... ... : --- .. . ... : 6-# 00 8 A06 : ... .. . F06
ROW 3D : ... .. . ... ... ... : ... .. . ... ... ... : ... .. . ... : 5-# 00 9 A0A : ... .. . F07
ROW 3E : ... .. . ... ... ... : ... .. . ... ... ... : A-1 00 . ... : 7-# 00 6 A08 : ... .. . ...
ROW 3F : ... .. . ... ... ... : ... .. . ... ... ... : ... .. . S05 : 4-# 00 9 A0A : ... .. . ...

PATTERN 01
ROW 00 : D-2 00 7 A04 V01 ... : ... .. . ... ... 400 : D-2 00 . ... : A-# 00 A A05 : ... .. . ...
ROW 01 : G-2 00 7 ... ... ... : ... .. . ... ... ... : ... .. . ... : ... .. . A02 : ... .. . ...
ROW 02 : A-2 00 7 ... ... ... : D-2 00 3 A03 V01 ... : ... .. . S05 : ... .. . ... : ... .. . ...
ROW 03 : G-2 00 7 ... ... ... : G-2 00 3 ... ... ... : D-2 00 . ... : ... .. . ... : ... .. . ...
ROW 04 : F-2 00 7 ... ... ... : A-2 00 3 ... ... ... : ... .. . ... : 6-# 00 8 A06 : ... .. . ...
ROW 05 : G-2 00 7 ... ... ... : G-2 00 3 ... ... ... : ... .. . S05 : ... .. . A02 : ... .. . ...
ROW 06 : F-2 00 7 ... ... ... : F-2 00 3 ... ... ... : D-2 00 . ... : ... .. . ... : ... .. . ...
ROW 07 : C-2 00 7 ... ... ... : G-2 00 3 ... ... ... : ... .. . ... : 6-# 00 8 A06 : ... .. . ...
ROW 08 : F-2 00 3 ... ... ... : --- 00 . ... ... ... : ... .. . S04 : 1-# 00 A A0C : ... .. . ...
ROW 09 : D-2 00 7 ... ... ... : C-2 00 3 ... ... ... : F-2 00 . ... : 7-# 00 6 A08 : ... .. . ...
ROW 0A : ... .. . ... ... ... : --- .. . ... ... ... : ... .. . S05 : ... .. . ... : ... .. . ...
ROW 0B : A-1 00 7 ... ... ... : D-2 00 3 ... ... ... : D-2 00 . S05 : 7-# 00 6 A08 : ... .. . ...
ROW 0C : C-2 00 7 ... ... ... : ... .. . ... ... ... : G-2 00 . S04 : 6-# 00 8 A06 : ... .. . ...
ROW 0D : D-2 00 7 ... ... ... : A-1 00 3 ... ... ... : ... .. . ... : ... .. . A02 : ... .. . ...
ROW 0E : G-2 00 7 ... ... ... : C-2 00 3 ... ... ... : F-2 00 . ... : 7-# 00 6 A08 : ... .. . ...
ROW 0F : A-2 00 7 ... ... ... : D-2 00 3 ... ... ... : ... .. . S05 : 6-# 00 8 A06 : ... .. . ...
ROW 10 : G-2 00 3 ... ... ... : --- 00 . ... ... ... : D-2 00 . ... : 1-# 00 A A0C : ... .. . ...
ROW 11 : G-1 00 7 ... ... ... : A-2 00 3 ... ... ... : ... .. . ... : --- .. . ... : ... .. . ...
ROW 12 : A-1 00 7 ... ... ... : --- .. . ... ... ... : ... .. . S05 : ... .. . ... : ... .. . ...
ROW 13 : C-2 00 7 ... ... ... : G-1 00 3 ... ... ... : D-2 00 . ... : ... .. . ... : ... .. . ...
ROW 14 : D-2 00 7 ... ... ... : A-1 00 3 ... ... ... : ... .. . ... : 6-# 00 8 A06 : ... .. . ...
ROW 15 : E-2 00 7 ... ... ... : C-2 00 3 ... ... ... : ... .. . S05 : ... .. . A02 : ... .. . ...
ROW 16 : F-2 00 7 ... ... ... : D-2 00 3 ... ... ... : D-2 00 . ... : ... .. . ... : ... .. . ...
ROW 17 : C-2 00 7 ... ... ... : E-2 00 3 ... ... ... : ... .. . ... : 6-# 00 8 A06 : ... .. . ...
ROW 18 : F-2 00 3 ... ... ... : --- 00 . ... ... ... : ... .. . S04 : 1-# 00 A A0C : ... .. . ...
ROW 19 : D-2 00 7 ... ... ... : C-2 00 3 ... ... ... : F-2 00 . ... : 6-# 00 8 A06 : ... .. . ...
ROW 1A : ... .. . ... ... ... : --- .. . ... ... ... : ... .. . S05 : ... .. . A02 : ... .. . ...
ROW 1B : A-1 00 7 ... ... ... : D-2 00 3 ... ... ... : D-2 00 . S05 : ... .. . ... : ... .. . ...
ROW 1C : G-2 00 7 ... ... ... : ... .. . ... ... ... : G-2 00 . S04 : 6-# 00 8 A06 : ... .. . ...
ROW 1D : A-2 00 7 ... ... ... : A-1 00 3 ... ... ... : A-2 00 . S05 : ... .. . A02 : ... .. . ...
ROW 1E : F-2 00 7 ... ... ... : G-2 00 3 ... ... ... : C-2 00 . S05 : ... .. . ... : ... .. . ...
ROW 1F : C-2 00 7 ... ... ... : A-2 00 3 ... ... ... : C-2 00 . S05 : 6-# 00 8 A06 : ... .. . ...
ROW 20 : D-2 00 7 ... ... ... : F-2 00 3 ... ... ... : D-2 00 . ... : 1-# 00 A A0C : ... .. . ...
ROW 21 : G-2 00 7 ... ... ... : C-2 00 3 ... ... ... : ... .. . ... : --- .. . ... : ... .. . ...
ROW 22 : A-2 00 7 ... ... ... : D-2 00 3 ... ... ... : ... .. . S05 : ... .. . ... : ... .. . ...
ROW 23 : G-2 00 7 ... ... ... : G-2 00 3 ... ... ... : D-2 00 . ... : ... .. . ... : ... .. . ...
ROW 24 : F-2 00 7 ... ... ... : A-2 00 3 ... ... ... : ... .. . ... : 6-# 00 8 A06 : ... .. . ...
ROW 25 : G-2 00 7 ... ... ... : G-2 00 3 ... ... ... : ... .. . S05 : ... .. . A02 : ... .. . ...
ROW 26 : F-2 00 7 ... ... ... : F-2 00 3 ... ... ... : D-2 00 . ... : ... .. . ... : ... .. . ...
ROW 27 : C-2 00 7 ... ... ... : G-2 00 3 ... ... ... : ... .. . ... : 6-# 00 8 A06 : ... .. . ...
ROW 28 : F-2 00 3 ... ... ... : --- 00 . ... ... ... : ... .. . S04 : 1-# 00 A A0C : ... .. . ...
ROW 29 : D-2 00 7 ... ... ... : C-2 00 3 ... ... ... : F-2 00 . ... : 7-# 00 6 A08 : ... .. . ...
ROW 2A : ... .. . ... ... ... : --- .. . ... ... ... : ... .. . S05 : ... .. . ... : ... .. . ...
ROW 2B : A-1 00 7 ... ... ... : D-2 00 3 ... ... ... : D-2 00 . S05 : 7-# 00 6 A08 : ... .. . ...
ROW 2C : C-2 00 7 ... ... ... : ... .. . ... ... ... : G-2 00 . S04 : 6-# 00 8 A06 : ... .. . ...
ROW 2D : D-2 00 7 ... ... ... : A-1 00 3 ... ... ... : ... .. . ... : ... .. . A02 : ... .. . ...
ROW 2E : G-2 00 7 ... ... ... : C-2 00 3 ... ... ... : F-2 00 . ... : 7-# 00 6 A08 : ... .. . ...
ROW 2F : A-2 00 7 ... ... ... : D-2 00 3 ... ... ... : ... .. . S05 : 6-# 00 8 A06 : ... .. . ...
ROW 30 : G-2 00 3 ... ... ... : --- 00 . ... ... ... : D-2 00 . ... : 1-# 00 A A0C : ... .. . ...
ROW 31 : G-1 00 7 ... ... ... : A-2 00 3 ... ... ... : ... .. . ... : --- .. . ... : ... .. . ...
ROW 32 : A-1 00 7 ... ... ... : --- .. . ... ... ... : ... .. . S05 : ... .. . ... : ... .. . ...
ROW 33 : C-2 00 7 ... ... ... : G-1 00 3 ... ... ... : D-2 00 . ... : ... .. . ... : ... .. . ...
ROW 34 : D-2 00 7 ... ... ... : A-1 00 3 ... ... ... : ... .. . ... : 6-# 00 8 A06 : ... .. . ...
ROW 35 : E-2 00 7 ... ... ... : C-2 00 3 ... ... ... : ... .. . S05 : ... .. . A02 : ... .. . ...
ROW 36 : F-2 00 7 ... ... ... : D-2 00 3 ... ... ... : D-2 00 . ... : ... .. . ... : ... .. . ...
ROW 37 : C-2 00 7 ... ... ... : E-2 00 3 ... ... ... : ... .. . ... : 6-# 00 8 A06 : ... .. . ...
ROW 38 : F-2 00 3 ... ... ... : --- 00 . ... ... ... : ... .. . S04 : 1-# 00 A A0C : ... .. . ...
ROW 39 : D-2 00 7 ... ... ... : C-2 00 3 ... ... ... : F-2 00 . ... : 6-# 00 8 A06 : ... .. . ...
ROW 3A : ... .. . ... ... ... : --- .. . ... ... ... : ... .. . S05 : ... .. . A02 : ... .. . ...
ROW 3B : A-1 00 7 ... ... ... : D-2 00 3 ... ... ... : D-2 00 . S05 : ... .. . ... : ... .. . ...
ROW 3C : G-2 00 7 ... ... ... : ... .. . ... ... ... : G-2 00 . S04 : 6-# 00 8 A06 : ... .. . ...
ROW 3D : A-2 00 7 ... ... ... : A-1 00 3 ... ... ... : A-2 00 . S05 : 6-# 00 8 A06 : ... .. . ...
ROW 3E : F-2 00 7 ... ... ... : G-2 00 3 ... ... ... : C-2 00 . S05 : 6-# 00 8 A06 : ... .. . ...
ROW 3F : C-2 00 7 ... ... ... : A-2 00 3 ... ... ... : C-2 00 . S05 : 6-# 00 8 A06 : ... .. . ...

PATTERN 02
ROW 00 : D-2 00 7 A04 V01 ... : G-3 00 9 V00 A01 Q32 : C-2 00 . ... : 1-# 00 A A0C : ... .. . ...
ROW 01 : A-2 00 A A03 V00 ... : ... .. . ... ... ... : ... .. . ... : --- .. . ... : ... .. . ...
ROW 02 : ... .. . ... ... ... : ... .. . ... ... ... : ... .. . S05 : ... .. . ... : ... .. . ...
ROW 03 : ... .. . S03 ... ... : ... .. . S06 ... ... : C-2 00 . ... : ... .. . ... : ... .. . ...
ROW 04 : A-2 00 A S05 ... ... : C-4 00 9 ... ... ... : ... .. . ... : 6-# 00 8 A06 : ... .. . ...
ROW 05 : G-2 00 7 A04 V01 ... : ... .. . S06 ... ... : ... .. . S05 : ... .. . A02 : ... .. . ...
ROW 06 : F-2 00 7 ... ... ... : A-3 00 4 ... ... ... : C-2 00 . ... : ... .. . ... : ... .. . ...
ROW 07 : C-2 00 7 ... ... ... : A-3 00 9 ... ... ... : ... .. . ... : 6-# 00 8 A06 : ... .. . ...
ROW 08 : F-2 00 3 ... ... ... : ... .. . S05 ... ... : ... .. . S04 : 1-# 00 A A0C : ... .. . ...
ROW 09 : D-2 00 7 ... ... ... : G-3 00 9 S06 ... ... : E-2 00 . ... : 7-# 00 6 A08 : ... .. . ...
ROW 0A : ... .. . ... ... ... : A-3 00 9 ... ... ... : ... .. . S05 : ... .. . ... : ... .. . ...
ROW 0B : A-1 00 7 ... ... ... : ... .. . S06 ... ... : C-2 00 . S05 : ... .. . ... : ... .. . ...
ROW 0C : A-2 00 A A03 V00 ... : G-3 00 9 S05 ... ... : F-2 00 . S04 : 6-# 00 8 A06 : ... .. . ...
ROW 0D : ... .. . ... ... ... : A-3 00 5 ... ... ... : ... .. . ... : ... .. . A02 : ... .. . ...
ROW 0E : ... .. . S06 ... ... : C-3 00 9 ... ... ... : E-2 00 . ... : ... .. . ... : ... .. . ...
ROW 0F : A-2 00 7 A04 V01 ... : ... .. . S06 ... ... : ... .. . S05 : 6-# 00 8 A06 : ... .. . ...
ROW 10 : A-2 00 A A03 V00 P81 : G-2 00 9 Q42 ... ... : C-2 00 . ... : 1-# 00 A A0C : ... .. . ...
ROW 11 : ... .. . ... ... ... : ... .. . ... ... ... : ... .. . ... : --- .. . ... : ... .. . ...
ROW 12 : ... .. . S03 ... ... : ... .. . ... ... ... : ... .. . S05 : ... .. . ... : ... .. . ...
ROW 13 : A-2 00 A S06 ... ... : ... .. . S06 ... ... : C-2 00 . ... : ... .. . ... : ... .. . ...
ROW 14 : D-2 00 7 A04 V01 P80 : G-3 00 9 ... ... ... : ... .. . ... : 6-# 00 8 A06 : ... .. . ...
ROW 15 : E-2 00 7 ... ... ... : ... .. . ... ... ... : ... .. . S05 : ... .. . A02 : ... .. . ...
ROW 16 : F-2 00 7 ... ... ... : ... .. . S06 ... ... : C-2 00 . ... : ... .. . ... : ... .. . ...
ROW 17 : C-2 00 7 ... ... ... : F-3 00 9 S06 ... ... : ... .. . ... : 6-# 00 8 A06 : ... .. . ...
ROW 18 : F-2 00 3 ... ... ... : G-3 00 5 ... ... ... : ... .. . S04 : 1-# 00 A A0C : ... .. . ...
ROW 19 : A-2 00 A A03 V00 S06 : D-3 00 9 ... ... ... : E-2 00 . ... : 6-# 00 8 A06 : ... .. . ...
ROW 1A : ... .. . ... ... ... : ... .. . S06 ... ... : ... .. . S05 : ... .. . A02 : ... .. . ...
ROW 1B : A-1 00 7 A04 V01 ... : E-3 00 9 S06 ... ... : C-2 00 . S05 : 7-# 00 6 A08 : ... .. . ...
ROW 1C : A-2 00 A A03 V00 ... : F-3 00 9 ... ... ... : F-2 00 . S04 : 6-# 00 8 A06 : ... .. . ...
ROW 1D : ... .. . ... ... ... : ... .. . ... ... ... : G-2 00 . S05 : 7-# 00 6 A08 : ... .. . ...
ROW 1E : ... .. . ... ... ... : ... .. . ... 474 ... : A#1 00 . S05 : ... .. . ... : ... .. . ...
ROW 1F : ... .. . S03 ... ... : ... .. . S06 ... ... : A#1 00 . S05 : 6-# 00 8 A06 : ... .. . ...
ROW 20 : D-2 00 7 A04 V01 ... : G-3 00 9 400 A01 Q32 : C-2 00 . ... : 1-# 00 A A0C : ... .. . ...
ROW 21 : A-2 00 A A03 V00 ... : ... .. . ... ... ... : ... .. . ... : --- .. . ... : ... .. . ...
ROW 22 : ... .. . ... ... ... : ... .. . ... ... ... : ... .. . S05 : ... .. . ... : ... .. . ...
ROW 23 : ... .. . S03 ... ... : ... .. . S06 ... ... : C-2 00 . ... : ... .. . ... : ... .. . ...
ROW 24 : A-2 00 A S05 ... ... : C-4 00 9 ... ... ... : ... .. . ... : 6-# 00 8 A06 : ... .. . ...
ROW 25 : G-2 00 7 A04 V01 ... : ... .. . S06 ... ... : ... .. . S05 : ... .. . A02 : ... .. . ...
ROW 26 : F-2 00 7 ... ... ... : A-3 00 4 ... ... ... : C-2 00 . ... : ... .. . ... : ... .. . ...
ROW 27 : C-2 00 7 ... ... ... : A-3 00 9 ... ... ... : ... .. . ... : 6-# 00 8 A06 : ... .. . ...
ROW 28 : F-2 00 3 ... ... ... : ... .. . S05 ... ... : ... .. . S04 : 1-# 00 A A0C : ... .. . ...
ROW 29 : D-2 00 7 ... ... ... : G-3 00 9 S06 ... ... : E-2 00 . ... : 7-# 00 6 A08 : ... .. . ...
ROW 2A : ... .. . ... ... ... : A-3 00 9 ... ... ... : ... .. . S05 : ... .. . ... : ... .. . ...
ROW 2B : A-1 00 7 ... ... ... : ... .. . S06 ... ... : C-2 00 . S05 : ... .. . ... : ... .. . ...
ROW 2C : A-2 00 A A03 V00 ... : G-3 00 9 S05 ... ... : F-2 00 . S04 : 6-# 00 8 A06 : ... .. . ...
ROW 2D : ... .. . ... ... ... : A-3 00 5 ... ... ... : ... .. . ... : ... .. . A02 : ... .. . ...
ROW 2E : ... .. . S06 ... ... : C-3 00 9 ... ... ... : E-2 00 . ... : ... .. . ... : ... .. . ...
ROW 2F : A-2 00 7 A04 V01 ... : ... .. . S06 ... ... : ... .. . S05 : 6-# 00 8 A06 : ... .. . ...
ROW 30 : A-2 00 A A03 V00 P81 : G-2 00 9 Q42 ... ... : C-2 00 . ... : 1-# 00 A A0C : ... .. . ...
ROW 31 : ... .. . ... ... ... : ... .. . ... ... ... : ... .. . ... : --- .. . ... : ... .. . ...
ROW 32 : ... .. . S03 ... ... : ... .. . ... ... ... : ... .. . S05 : ... .. . ... : ... .. . ...
ROW 33 : A-2 00 A S06 ... ... : ... .. . S06 ... ... : C-2 00 . ... : ... .. . ... : ... .. . ...
ROW 34 : D-2 00 7 A04 V01 P80 : G-3 00 9 ... ... ... : ... .. . ... : 6-# 00 8 A06 : ... .. . ...
ROW 35 : E-2 00 7 ... ... ... : ... .. . ... ... ... : ... .. . S05 : ... .. . A02 : ... .. . ...
ROW 36 : F-2 00 7 ... ... ... : ... .. . S06 ... ... : C-2 00 . ... : ... .. . ... : ... .. . ...
ROW 37 : C-2 00 7 ... ... ... : F-3 00 9 S06 ... ... : ... .. . ... : 6-# 00 8 A06 : ... .. . ...
ROW 38 : F-2 00 3 ... ... ... : G-3 00 5 ... ... ... : ... .. . S04 : 1-# 00 A A0C : ... .. . ...
ROW 39 : A-2 00 A A03 V00 S06 : D-3 00 9 ... ... ... : E-2 00 . ... : 6-# 00 8 A06 : ... .. . ...
ROW 3A : ... .. . ... ... ... : ... .. . S06 ... ... : ... .. . S05 : ... .. . ... : ... .. . ...
ROW 3B : A-1 00 7 A04 V01 ... : E-3 00 9 S06 ... ... : C-2 00 . S05 : 7-# 00 6 A08 : ... .. . ...
ROW 3C : A-2 00 A A03 V00 ... : F-3 00 9 ... ... ... : F-2 00 . S04 : 6-# 00 8 A06 : ... .. . ...
ROW 3D : ... .. . ... ... ... : ... .. . ... ... ... : G-2 00 . S05 : ... .. . A02 : ... .. . ...
ROW 3E : ... .. . ... ... ... : ... .. . ... ... ... : A#1 00 . S05 : 7-# 00 6 A08 : ... .. . ...
ROW 3F : ... .. . S03 ... ... : ... .. . S06 ... ... : A#1 00 . S05 : 6-# 00 8 A06 : ... .. . ...

PATTERN 03
ROW 00 : C-2 00 7 A04 V01 ... : D-3 00 9 Q32 V00 A01 : A#1 00 . ... : 1-# 00 A A0C : ... .. . ...
ROW 01 : F-2 00 7 ... ... ... : ... .. . ... ... ... : ... .. . ... : --- .. . ... : ... .. . ...
ROW 02 : G-2 00 7 ... ... ... : ... .. . ... ... ... : ... .. . S05 : ... .. . ... : ... .. . ...
ROW 03 : F-2 00 7 ... ... ... : ... .. . S06 ... ... : A#1 00 . ... : ... .. . ... : ... .. . ...
ROW 04 : E-2 00 7 ... ... ... : C-3 00 9 ... ... ... : ... .. . ... : 6-# 00 8 A06 : ... .. . ...
ROW 05 : F-2 00 7 ... ... ... : ... .. . ... ... ... : ... .. . S05 : ... .. . A02 : ... .. . ...
ROW 06 : E-2 00 7 ... ... ... : ... .. . ... ... ... : A#1 00 . ... : ... .. . ... : ... .. . ...
ROW 07 : A#1 00 7 ... ... ... : ... .. . S06 ... ... : ... .. . ... : 6-# 00 8 A06 : ... .. . ...
ROW 08 : E-2 00 3 ... ... ... : C-3 00 3 ... ... ... : ... .. . S04 : 1-# 00 A A0C : ... .. . ...
ROW 09 : C-2 00 7 ... ... ... : ... .. . ... ... ... : D-2 00 . ... : 7-# 00 6 A08 : ... .. . ...
ROW 0A : ... .. . ... ... ... : G-3 00 9 S06 ... ... : ... .. . S05 : ... .. . ... : ... .. . ...
ROW 0B : G-1 00 7 ... ... ... : A-3 00 9 S06 ... ... : A#1 00 . S05 : ... .. . ... : ... .. . ...
ROW 0C : A#1 00 7 ... ... ... : G-3 00 9 S05 ... ... : E-2 00 . S04 : 6-# 00 8 A06 : ... .. . ...
ROW 0D : C-2 00 7 ... ... ... : F-3 00 9 S06 ... ... : ... .. . ... : ... .. . A02 : ... .. . ...
ROW 0E : F-2 00 7 ... ... ... : E-3 00 9 ... ... ... : D-2 00 . ... : ... .. . ... : ... .. . ...
ROW 0F : G-2 00 7 ... ... ... : ... .. . S06 ... ... : ... .. . S05 : 6-# 00 8 A06 : ... .. . ...
ROW 10 : F-2 00 3 ... ... ... : G-2 00 9 Q63 ... ... : A-1 00 . ... : 1-# 00 A A0C : ... .. . ...
ROW 11 : F-1 00 7 ... ... ... : ... .. . ... ... ... : ... .. . ... : --- .. . ... : ... .. . ...
ROW 12 : G-1 00 7 ... ... ... : ... .. . ... ... ... : ... .. . S05 : ... .. . ... : ... .. . ...
ROW 13 : A#1 00 7 ... ... ... : ... .. . S06 ... ... : A-1 00 . ... : ... .. . ... : ... .. . ...
ROW 14 : C-2 00 7 ... ... ... : C-3 00 9 ... ... ... : ... .. . ... : 6-# 00 8 A06 : ... .. . ...
ROW 15 : D-2 00 7 ... ... ... : ... .. . ... ... ... : ... .. . S05 : ... .. . A02 : ... .. . ...
ROW 16 : E-2 00 7 ... ... ... : ... .. . ... ... ... : A-1 00 . ... : ... .. . ... : ... .. . ...
ROW 17 : A#1 00 7 ... ... ... : ... .. . S06 ... ... : ... .. . ... : 6-# 00 8 A06 : ... .. . ...
ROW 18 : E-2 00 3 ... ... ... : C-3 00 3 ... ... ... : ... .. . S04 : 1-# 00 A A0C : ... .. . ...
ROW 19 : C-2 00 7 ... ... ... : G-3 00 9 ... ... ... : C-2 00 . ... : 6-# 00 8 A06 : ... .. . ...
ROW 1A : ... .. . ... ... ... : ... .. . S06 ... ... : ... .. . S05 : ... .. . A02 : ... .. . ...
ROW 1B : G-1 00 7 ... ... ... : A-3 00 9 S06 ... ... : A-1 00 . S05 : 7-# 00 6 A08 : ... .. . ...
ROW 1C : F-2 00 7 ... ... ... : G-3 00 9 S05 ... ... : D-2 00 . S04 : 6-# 00 8 A06 : ... .. . ...
ROW 1D : G-2 00 7 ... ... ... : F-3 00 9 S06 ... ... : E-2 00 . S05 : 7-# 00 6 A08 : ... .. . ...
ROW 1E : E-2 00 7 ... ... ... : E-3 00 9 S06 ... ... : A-1 00 . S05 : ... .. . ... : ... .. . ...
ROW 1F : A#1 00 7 ... ... ... : D-3 00 9 S06 ... ... : A-1 00 . S05 : 6-# 00 8 A06 : ... .. . ...
ROW 20 : C-2 00 7 ... ... ... : D-3 00 9 Q32 ... ... : A#1 00 . ... : 1-# 00 A A0C : ... .. . ...
ROW 21 : F-2 00 7 ... ... ... : ... .. . ... ... ... : ... .. . ... : --- .. . ... : ... .. . ...
ROW 22 : G-2 00 7 ... ... ... : ... .. . ... ... ... : ... .. . S05 : ... .. . ... : ... .. . ...
ROW 23 : F-2 00 7 ... ... ... : ... .. . S06 ... ... : A#1 00 . ... : ... .. . ... : ... .. . ...
ROW 24 : E-2 00 7 ... ... ... : G-3 00 9 ... ... ... : ... .. . ... : 6-# 00 8 A06 : ... .. . ...
ROW 25 : F-2 00 7 ... ... ... : ... .. . ... ... ... : ... .. . S05 : ... .. . A02 : ... .. . ...
ROW 26 : E-2 00 7 ... ... ... : ... .. . S06 ... ... : A#1 00 . ... : ... .. . ... : ... .. . ...
ROW 27 : A#1 00 7 ... ... ... : C-3 00 9 S06 ... ... : ... .. . ... : 6-# 00 8 A06 : ... .. . ...
ROW 28 : E-2 00 3 ... ... ... : G-3 00 3 ... ... ... : ... .. . S04 : 1-# 00 A A0C : ... .. . ...
ROW 29 : C-2 00 7 ... ... ... : ... .. . S06 ... ... : D-2 00 . ... : 7-# 00 6 A08 : ... .. . ...
ROW 2A : ... .. . ... ... ... : G-3 00 9 S06 ... ... : ... .. . S05 : ... .. . ... : ... .. . ...
ROW 2B : G-1 00 7 ... ... ... : A-3 00 9 S06 ... ... : A#1 00 . S05 : ... .. . ... : ... .. . ...
ROW 2C : A#1 00 7 ... ... ... : G-3 00 9 S05 ... ... : F-2 00 . S04 : 6-# 00 8 A06 : ... .. . ...
ROW 2D : C-2 00 7 ... ... ... : F-3 00 9 S06 ... ... : ... .. . ... : ... .. . A02 : ... .. . ...
ROW 2E : F-2 00 7 ... ... ... : E-3 00 9 ... ... ... : E-2 00 . ... : ... .. . ... : ... .. . ...
ROW 2F : G-2 00 7 ... ... ... : ... .. . S06 ... ... : ... .. . S05 : 6-# 00 8 A06 : ... .. . ...
ROW 30 : F-2 00 3 ... ... ... : G-2 00 9 Q63 ... ... : C-2 00 . ... : 1-# 00 A A0C : ... .. . ...
ROW 31 : F-1 00 7 ... ... ... : ... .. . ... ... ... : ... .. . ... : --- .. . ... : ... .. . ...
ROW 32 : G-1 00 7 ... ... ... : ... .. . ... ... ... : ... .. . S05 : ... .. . ... : ... .. . ...
ROW 33 : A#1 00 7 ... ... ... : ... .. . S06 ... ... : C-2 00 . ... : ... .. . ... : ... .. . ...
ROW 34 : C-2 00 7 ... ... ... : A#2 00 9 ... ... ... : ... .. . ... : 6-# 00 8 A06 : ... .. . ...
ROW 35 : D-2 00 7 ... ... ... : ... .. . ... ... ... : ... .. . S05 : ... .. . A02 : ... .. . ...
ROW 36 : E-2 00 7 ... ... ... : ... .. . S06 ... ... : C-2 00 . ... : ... .. . ... : ... .. . ...
ROW 37 : A#1 00 7 ... ... ... : C-3 00 9 S06 ... ... : ... .. . ... : 6-# 00 8 A06 : ... .. . ...
ROW 38 : E-2 00 3 ... ... ... : A#2 00 3 ... ... ... : ... .. . S04 : 1-# 00 A A0C : ... .. . ...
ROW 39 : C-2 00 7 ... ... ... : G-3 00 9 ... ... ... : E-2 00 . ... : 6-# 00 8 A06 : ... .. . ...
ROW 3A : ... .. . ... ... ... : ... .. . S06 ... ... : ... .. . S05 : ... .. . A02 : ... .. . ...
ROW 3B : G-1 00 7 ... ... ... : A-3 00 9 S06 ... ... : C-2 00 . S05 : 6-# 00 8 A06 : ... .. . ...
ROW 3C : F-2 00 7 ... ... ... : G-3 00 9 S05 ... ... : F-2 00 . S04 : 6-# 00 7 A06 : ... .. . ...
ROW 3D : G-2 00 7 ... ... ... : F-3 00 9 S06 ... ... : G-2 00 . S05 : 6-# 00 8 A06 : ... .. . ...
ROW 3E : E-2 00 7 ... ... ... : E-3 00 9 S06 ... ... : C-2 00 . S05 : 6-# 00 7 A06 : ... .. . ...
ROW 3F : A#1 00 7 ... ... ... : G-3 00 9 S06 ... ... : C-2 00 . S05 : 6-# 00 8 A06 : ... .. . ...

PATTERN 04
ROW 00 : C-2 00 7 A04 V01 ... : D#3 00 9 Q32 A01 ... : D-2 00 . ... : A-# 00 A A05 : ... .. . ...
ROW 01 : G-2 00 A A03 V00 ... : ... .. . ... ... ... : ... .. . S05 : ... .. . A02 : ... .. . ...
ROW 02 : ... .. . ... ... ... : ... .. . ... ... ... : D-2 00 . S05 : ... .. . ... : ... .. . ...
ROW 03 : ... .. . S03 ... ... : ... .. . S06 ... ... : D-2 00 . S05 : ... .. . ... : ... .. . ...
ROW 04 : G-2 00 A S05 ... ... : E-3 00 9 ... ... ... : D-2 00 . ... : 6-# 00 8 A06 : ... .. . ...
ROW 05 : F-2 00 7 A04 V01 ... : ... .. . ... ... ... : ... .. . S05 : ... .. . A02 : ... .. . ...
ROW 06 : E-2 00 7 ... ... ... : ... .. . S06 ... ... : D-2 00 . S05 : ... .. . ... : ... .. . ...
ROW 07 : A#1 00 7 ... ... ... : D-3 00 9 S06 ... ... : D-2 00 . ... : 6-# 00 8 A06 : ... .. . ...
ROW 08 : E-2 00 3 ... ... ... : E-3 00 3 ... ... ... : ... .. . S04 : 1-# 00 A A0C : ... .. . ...
ROW 09 : C-2 00 7 ... ... ... : ... .. . S06 ... ... : F-2 00 . ... : 7-# 00 6 A08 : ... .. . ...
ROW 0A : ... .. . ... ... ... : D-3 00 9 ... ... ... : ... .. . S05 : ... .. . ... : ... .. . ...
ROW 0B : G-1 00 7 ... ... ... : ... .. . S06 ... ... : D-2 00 . S05 : ... .. . ... : ... .. . ...
ROW 0C : F-2 00 A A03 V00 ... : E-3 00 9 S05 ... ... : G-2 00 . S04 : 6-# 00 8 A06 : ... .. . ...
ROW 0D : ... .. . ... ... ... : F-3 00 9 ... ... ... : A-2 00 . S05 : ... .. . A02 : ... .. . ...
ROW 0E : ... .. . ... ... ... : ... .. . ... ... ... : D-2 00 . S05 : ... .. . ... : ... .. . ...
ROW 0F : ... .. . S00 ... ... : ... .. . S06 ... ... : D-2 00 . S05 : 6-# 00 8 A06 : ... .. . ...
ROW 10 : F-2 00 A ... ... ... : F-3 00 9 Q22 ... ... : C-2 00 . ... : 1-# 00 A A0C : ... .. . ...
ROW 11 : ... .. . ... ... ... : ... .. . ... ... ... : ... .. . S05 : --- .. . ... : ... .. . ...
ROW 12 : ... .. . S03 ... ... : ... .. . ... ... ... : C-2 00 . S05 : ... .. . ... : ... .. . ...
ROW 13 : G-2 00 A S06 ... ... : ... .. . ... ... ... : C-2 00 . S05 : ... .. . ... : ... .. . ...
ROW 14 : G-2 00 A S05 ... ... : ... .. . ... ... ... : C-2 00 . ... : 6-# 00 8 A06 : ... .. . ...
ROW 15 : D-2 00 7 A04 V01 ... : ... .. . S06 ... ... : ... .. . S05 : ... .. . A02 : ... .. . ...
ROW 16 : E-2 00 7 ... ... ... : F-3 00 9 S06 ... ... : C-2 00 . S05 : ... .. . ... : ... .. . ...
ROW 17 : A#1 00 7 ... ... ... : E-3 00 9 S06 ... ... : C-2 00 . ... : 6-# 00 8 A06 : ... .. . ...
ROW 18 : E-2 00 3 ... ... ... : C-3 00 9 ... ... ... : ... .. . S04 : 1-# 00 A A0C : ... .. . ...
ROW 19 : G-2 00 A S06 A03 V00 : ... .. . S06 ... ... : E-2 00 . ... : 6-# 00 8 A06 : ... .. . ...
ROW 1A : ... .. . ... ... ... : C-3 00 9 ... ... ... : ... .. . S05 : ... .. . A02 : ... .. . ...
ROW 1B : G-1 00 7 A04 V01 ... : ... .. . S06 ... ... : C-2 00 . S05 : 7-# 00 6 A08 : ... .. . ...
ROW 1C : G-2 00 A ... A03 V00 : D-3 00 9 ... ... ... : F-2 00 . S04 : 6-# 00 8 A06 : ... .. . ...
ROW 1D : ... .. . ... ... ... : ... .. . S06 ... ... : G-2 00 . S05 : 7-# 00 6 A08 : ... .. . ...
ROW 1E : ... .. . S06 ... ... : C-3 00 9 ... ... ... : C-2 00 . S05 : ... .. . ... : ... .. . ...
ROW 1F : A#1 00 7 A04 V01 ... : ... .. . S06 ... ... : C-2 00 . S05 : 6-# 00 8 A06 : ... .. . ...
ROW 20 : C-2 00 7 ... ... ... : A#2 00 9 ... ... ... : D-2 00 . ... : 1-# 00 A A0C : ... .. . ...
ROW 21 : G-2 00 A ... A03 V00 : ... .. . ... ... ... : ... .. . S05 : --- .. . ... : ... .. . ...
ROW 22 : ... .. . S06 ... ... : ... .. . ... ... ... : D-2 00 . S05 : ... .. . ... : ... .. . ...
ROW 23 : F-2 00 7 A04 V01 ... : ... .. . S06 ... ... : D-2 00 . S05 : ... .. . ... : ... .. . ...
ROW 24 : G-2 00 A S05 A03 V00 : D-3 00 9 ... ... ... : D-2 00 . ... : 6-# 00 8 A06 : ... .. . ...
ROW 25 : F-2 00 7 A04 V01 ... : ... .. . ... ... ... : ... .. . S05 : ... .. . A02 : ... .. . ...
ROW 26 : E-2 00 7 ... ... ... : ... .. . ... ... ... : D-2 00 . S05 : ... .. . ... : ... .. . ...
ROW 27 : A#1 00 7 ... ... ... : ... .. . S06 ... ... : D-2 00 . ... : 6-# 00 8 A06 : ... .. . ...
ROW 28 : E-2 00 3 ... ... ... : F-3 00 9 S05 ... ... : ... .. . S04 : 1-# 00 A A0C : ... .. . ...
ROW 29 : C-2 00 7 ... ... ... : D-3 00 3 ... ... ... : F-2 00 . ... : 7-# 00 6 A08 : ... .. . ...
ROW 2A : ... .. . ... ... ... : A-3 00 9 ... ... ... : ... .. . S05 : ... .. . ... : ... .. . ...
ROW 2B : G-1 00 7 ... ... ... : ... .. . ... ... ... : D-2 00 . S05 : ... .. . ... : ... .. . ...
ROW 2C : F-2 00 A A03 V00 ... : ... .. . ... ... ... : G-2 00 . S04 : 6-# 00 8 A06 : ... .. . ...
ROW 2D : ... .. . ... ... ... : ... .. . S06 ... ... : A-2 00 . S05 : ... .. . A02 : ... .. . ...
ROW 2E : ... .. . S06 ... ... : G-3 00 9 S06 ... ... : D-2 00 . S05 : ... .. . ... : ... .. . ...
ROW 2F : G-2 00 7 A04 V01 ... : F-3 00 9 S06 ... ... : D-2 00 . S05 : 6-# 00 8 A06 : ... .. . ...
ROW 30 : F-2 00 A A03 V00 ... : E-3 00 9 ... ... ... : C-2 00 . ... : 1-# 00 A A0C : ... .. . ...
ROW 31 : ... .. . ... ... ... : ... .. . ... ... ... : ... .. . S05 : --- .. . ... : ... .. . ...
ROW 32 : ... .. . S06 ... ... : ... .. . ... ... ... : C-2 00 . S05 : ... .. . ... : ... .. . ...
ROW 33 : A#1 00 7 A04 V01 ... : ... .. . ... ... ... : C-2 00 . S05 : ... .. . ... : ... .. . ...
ROW 34 : F-2 00 A A03 V00 ... : ... .. . ... ... ... : C-2 00 . ... : 6-# 00 8 A06 : ... .. . ...
ROW 35 : ... .. . S06 ... ... : ... .. . S06 ... ... : ... .. . S05 : ... .. . A02 : ... .. . ...
ROW 36 : E-2 00 7 A04 V01 ... : F-3 00 9 S06 ... ... : C-2 00 . S05 : ... .. . ... : ... .. . ...
ROW 37 : G-2 00 A A03 V00 ... : G-3 00 9 S06 ... ... : C-2 00 . ... : 6-# 00 8 A06 : ... .. . ...
ROW 38 : E-2 00 3 A04 V01 ... : E-3 00 3 ... ... ... : ... .. . S04 : 1-# 00 A A0C : ... .. . ...
ROW 39 : G-2 00 A A03 V00 ... : A-3 00 9 S06 ... ... : E-2 00 . ... : 6-# 00 8 A06 : ... .. . ...
ROW 3A : ... .. . ... ... ... : G-3 00 5 S06 ... ... : ... .. . S05 : ... .. . ... : ... .. . ...
ROW 3B : G-1 00 7 A04 V01 ... : G-3 00 9 S06 ... ... : C-2 00 . S05 : 7-# 00 6 A08 : ... .. . ...
ROW 3C : G-2 00 9 A03 V00 ... : A-3 00 5 S05 ... ... : F-2 00 . S04 : 6-# 00 8 A06 : ... .. . ...
ROW 3D : A-2 00 9 ... ... ... : A-3 00 9 S06 ... ... : G-2 00 . S05 : 6-# 00 8 A06 : ... .. . ...
ROW 3E : C-3 00 8 ... ... ... : C-4 00 9 S06 ... ... : C-2 00 . S05 : 7-# 00 6 A08 : ... .. . ...
ROW 3F : E-3 00 8 ... ... ... : E-4 00 9 S06 ... ... : C-2 00 . S05 : 6-# 00 8 A06 : ... .. . ...

PATTERN 05
ROW 00 : D-3 00 8 A03 V00 ... : D-4 00 A S05 A03 ... : A#1 00 . ... : 1-# 00 A A0C : ... .. . ...
ROW 01 : A-2 00 A ... ... ... : D-4 00 A S06 ... ... : ... .. . ... : --- .. . ... : ... .. . ...
ROW 02 : ... .. . ... ... ... : F-4 00 A S06 ... ... : ... .. . S05 : ... .. . ... : ... .. . ...
ROW 03 : ... .. . S03 ... ... : D-4 00 A S06 ... ... : A#1 00 . ... : 6-# 00 8 A06 : ... .. . ...
ROW 04 : A-2 00 A S05 ... ... : E-4 00 A S05 ... ... : ... .. . ... : 1-# 00 A A0C : ... .. . ...
ROW 05 : G-2 00 7 A04 V01 ... : F-4 00 4 S06 ... ... : ... .. . S05 : --- .. . ... : ... .. . ...
ROW 06 : F-2 00 7 ... ... ... : C-4 00 A S06 ... ... : A#1 00 . ... : ... .. . ... : ... .. . ...
ROW 07 : C-2 00 7 ... ... ... : D-4 00 A S06 ... ... : ... .. . ... : 6-# 00 8 A06 : ... .. . ...
ROW 08 : F-2 00 3 ... ... ... : --- .. . ... ... ... : ... .. . S04 : 1-# 00 A A0C : ... .. . ...
ROW 09 : D-2 00 7 ... ... ... : D-4 00 A S06 ... ... : D-2 00 . ... : --- .. . ... : ... .. . ...
ROW 0A : ... .. . ... ... ... : F-4 00 A S06 ... ... : ... .. . S05 : ... .. . ... : ... .. . ...
ROW 0B : A-1 00 7 ... ... ... : D-4 00 A S06 ... ... : A#1 00 . S05 : ... .. . ... : ... .. . ...
ROW 0C : A-2 00 A A03 V00 ... : E-4 00 A S05 ... ... : F-2 00 . S04 : 6-# 00 8 A06 : ... .. . ...
ROW 0D : ... .. . ... ... ... : F-4 00 A S06 ... ... : ... .. . ... : ... .. . A02 : ... .. . ...
ROW 0E : ... .. . S06 ... ... : D-4 00 A ... ... ... : E-2 00 . ... : ... .. . ... : ... .. . ...
ROW 0F : A-2 00 7 A04 V01 ... : ... .. . S06 ... ... : ... .. . S05 : 6-# 00 8 A06 : ... .. . ...
ROW 10 : A-2 00 A A03 V00 P81 : E-4 00 9 ... A01 ... : C-2 00 . ... : 1-# 00 A A0C : ... .. . ...
ROW 11 : ... .. . ... ... ... : ... .. . ... ... ... : ... .. . ... : --- .. . ... : ... .. . ...
ROW 12 : ... .. . S03 ... ... : ... .. . ... ... ... : ... .. . S05 : ... .. . ... : ... .. . ...
ROW 13 : A-2 00 A S06 ... ... : ... .. . S06 ... ... : C-2 00 . ... : ... .. . ... : ... .. . ...
ROW 14 : D-2 00 7 A04 V01 P80 : F-4 00 9 ... ... ... : ... .. . ... : 6-# 00 8 A06 : ... .. . ...
ROW 15 : E-2 00 7 ... ... ... : ... .. . ... ... ... : ... .. . S05 : ... .. . A02 : ... .. . ...
ROW 16 : F-2 00 7 ... ... ... : ... .. . S06 ... ... : C-2 00 . ... : ... .. . ... : ... .. . ...
ROW 17 : C-2 00 7 ... ... ... : G-4 00 9 S06 ... ... : ... .. . ... : 6-# 00 8 A06 : ... .. . ...
ROW 18 : F-2 00 3 ... ... ... : F-4 00 9 S05 ... ... : ... .. . S04 : 1-# 00 A A0C : ... .. . ...
ROW 19 : A-2 00 A A03 V00 S06 : F-4 00 2 S06 ... ... : E-2 00 . ... : 6-# 00 8 A06 : ... .. . ...
ROW 1A : ... .. . ... ... ... : E-4 00 9 S06 ... ... : ... .. . S05 : ... .. . A02 : ... .. . ...
ROW 1B : A-1 00 7 A04 V01 ... : F-4 00 3 S06 ... ... : C-2 00 . S05 : 6-# 00 8 A06 : ... .. . ...
ROW 1C : A-2 00 A A03 V00 ... : A-3 00 9 S05 ... ... : F-2 00 . S04 : 6-# 00 7 A06 : ... .. . ...
ROW 1D : ... .. . ... ... ... : E-4 00 3 S06 ... ... : G-2 00 . S05 : 6-# 00 8 A06 : ... .. . ...
ROW 1E : ... .. . ... ... ... : C-4 00 9 S06 ... ... : C-2 00 . S05 : 6-# 00 7 A06 : ... .. . ...
ROW 1F : ... .. . S03 ... ... : A-3 00 3 S06 ... ... : C-2 00 . S05 : 6-# 00 8 A06 : ... .. . ...
ROW 20 : D-2 00 7 A04 V01 ... : D-4 00 A S05 A03 ... : ... .. . ... : 1-# 00 A A0C : ... .. . ...
ROW 21 : A-2 00 A A03 V00 ... : D-4 00 A S06 ... ... : ... .. . ... : --- .. . ... : ... .. . ...
ROW 22 : ... .. . ... ... ... : F-4 00 A S06 ... ... : ... .. . ... : ... .. . ... : ... .. . ...
ROW 23 : ... .. . S03 ... ... : D-4 00 A S06 ... ... : ... .. . ... : ... .. . ... : ... .. . ...
ROW 24 : A-2 00 A S06 ... ... : E-4 00 A S05 ... ... : ... .. . ... : 6-# 00 8 A06 : ... .. . ...
ROW 25 : G-2 00 7 A04 V01 ... : F-4 00 5 S06 ... ... : ... .. . ... : ... .. . A02 : ... .. . ...
ROW 26 : F-2 00 7 ... ... ... : C-4 00 A S06 ... ... : ... .. . ... : ... .. . ... : ... .. . ...
ROW 27 : C-2 00 7 ... ... ... : D-4 00 A S06 ... ... : ... .. . ... : 6-# 00 8 A06 : ... .. . ...
ROW 28 : F-2 00 3 ... ... ... : --- .. . ... ... ... : ... .. . ... : 1-# 00 A A0C : ... .. . ...
ROW 29 : D-2 00 7 ... ... ... : D-4 00 A S06 ... ... : ... .. . ... : --- .. . ... : ... .. . ...
ROW 2A : ... .. . ... ... ... : F-4 00 A S06 ... ... : ... .. . ... : ... .. . ... : ... .. . ...
ROW 2B : A-1 00 7 ... ... ... : D-4 00 A S06 ... ... : ... .. . ... : ... .. . ... : ... .. . ...
ROW 2C : A-2 00 A A03 V00 ... : E-4 00 A S05 ... ... : ... .. . ... : 6-# 00 8 A06 : ... .. . ...
ROW 2D : ... .. . ... ... ... : F-4 00 A S06 ... ... : ... .. . ... : ... .. . A02 : ... .. . ...
ROW 2E : ... .. . S06 ... ... : D-4 00 A ... ... ... : ... .. . ... : ... .. . ... : ... .. . ...
ROW 2F : A-2 00 7 A04 V01 ... : ... .. . S06 ... ... : ... .. . ... : 6-# 00 8 A06 : ... .. . ...
ROW 30 : A-2 00 A A03 V00 P81 : E-4 00 9 ... A01 ... : ... .. . ... : 1-# 00 A A0C : ... .. . ...
ROW 31 : ... .. . ... ... ... : ... .. . ... ... ... : ... .. . ... : --- .. . ... : ... .. . ...
ROW 32 : ... .. . S03 ... ... : ... .. . ... ... ... : ... .. . ... : ... .. . ... : ... .. . ...
ROW 33 : A-2 00 A S06 ... ... : ... .. . S06 ... ... : ... .. . ... : ... .. . ... : ... .. . ...
ROW 34 : D-2 00 7 A04 V01 P80 : F-4 00 9 ... ... ... : ... .. . ... : 6-# 00 8 A06 : ... .. . ...
ROW 35 : E-2 00 7 ... ... ... : ... .. . ... ... ... : ... .. . ... : ... .. . A02 : ... .. . ...
ROW 36 : F-2 00 7 ... ... ... : ... .. . S06 ... ... : ... .. . ... : ... .. . ... : ... .. . ...
ROW 37 : C-2 00 7 ... ... ... : G-4 00 9 S06 ... ... : ... .. . ... : 6-# 00 8 A06 : ... .. . ...
ROW 38 : F-2 00 3 ... ... ... : F-4 00 9 S05 ... ... : ... .. . ... : 1-# 00 A A0C : ... .. . ...
ROW 39 : A-2 00 A A03 V00 S06 : F-4 00 3 S06 ... ... : ... .. . ... : 6-# 00 8 A06 : ... .. . ...
ROW 3A : ... .. . ... ... ... : E-4 00 9 S06 ... ... : ... .. . ... : ... .. . ... : ... .. . ...
ROW 3B : A-1 00 7 A04 V01 ... : F-4 00 5 S06 ... ... : ... .. . ... : 6-# 00 8 A06 : ... .. . ...
ROW 3C : A-2 00 A A03 V00 ... : ... .. . ... ... ... : ... .. . ... : 6-# 00 7 A06 : ... .. . ...
ROW 3D : ... .. . ... ... ... : A-3 00 9 S06 ... ... : ... .. . ... : 6-# 00 8 A06 : ... .. . ...
ROW 3E : ... .. . ... ... ... : C-4 00 9 S06 ... ... : ... .. . ... : 6-# 00 7 A06 : ... .. . ...
ROW 3F : ... .. . S03 ... ... : E-4 00 9 S06 ... ... : ... .. . ... : 6-# 00 8 A06 : ... .. . ...

PATTERN 06
ROW 00 : A#1 00 7 A04 V01 ... : D-4 00 9 ... A01 ... : ... .. . ... : A-# 00 A A05 : ... .. . ...
ROW 01 : E-2 00 7 ... ... ... : ... .. . ... ... ... : ... .. . ... : ... .. . A02 : ... .. . ...
ROW 02 : F-2 00 7 ... ... ... : ... .. . ... ... ... : ... .. . ... : ... .. . ... : ... .. . ...
ROW 03 : E-2 00 7 ... ... ... : ... .. . ... ... ... : ... .. . ... : ... .. . ... : ... .. . ...
ROW 04 : D-2 00 7 ... ... ... : ... .. . ... A00 461 : ... .. . ... : 6-# 00 8 A06 : ... .. . ...
ROW 05 : E-2 00 7 ... ... ... : ... .. . ... ... ... : ... .. . ... : ... .. . A02 : ... .. . ...
ROW 06 : D-2 00 7 ... ... ... : ... .. 4 ... ... ... : ... .. . ... : B-# 00 3 A04 : ... .. . ...
ROW 07 : A-1 00 7 ... ... ... : ... .. . ... ... ... : ... .. . ... : 6-# 00 8 A06 : ... .. . ...
ROW 08 : D-2 00 3 ... ... ... : ... .. . ... ... ... : ... .. . ... : 1-# 00 A A0C : ... .. . ...
ROW 09 : F-2 00 7 ... ... ... : ... .. . ... ... ... : ... .. . ... : --- .. . ... : ... .. . ...
ROW 0A : ... .. . ... ... ... : ... .. 3 ... ... ... : ... .. . ... : B-# 00 3 A04 : ... .. . ...
ROW 0B : D-2 00 7 ... ... ... : ... .. . ... ... ... : ... .. . ... : ... .. . ... : ... .. . ...
ROW 0C : D-2 00 7 ... ... ... : ... .. . ... ... ... : ... .. . ... : 6-# 00 8 A06 : ... .. . ...
ROW 0D : F-2 00 7 ... ... ... : ... .. . ... ... ... : ... .. . ... : 6-# 00 8 A06 : ... .. . ...
ROW 0E : A-2 00 7 ... ... ... : ... .. 2 ... ... ... : ... .. . ... : B-# 00 3 A04 : ... .. . ...
ROW 0F : A#2 00 7 ... ... ... : ... .. . ... ... ... : ... .. . ... : 6-# 00 8 A06 : ... .. . ...
ROW 10 : A-2 00 3 ... ... ... : ... .. . ... ... ... : ... .. . ... : 1-# 00 A A0C : ... .. . ...
ROW 11 : A-1 00 7 ... ... ... : ... .. . ... ... ... : ... .. . ... : --- .. . ... : ... .. . ...
ROW 12 : C-2 00 7 ... ... ... : ... .. 1 ... ... ... : ... .. . ... : B-# 00 3 A04 : ... .. . ...
ROW 13 : D-2 00 7 ... ... ... : ... .. . ... ... ... : ... .. . ... : ... .. . ... : ... .. . ...
ROW 14 : E-2 00 7 ... ... ... : ... .. . ... ... ... : ... .. . ... : 6-# 00 8 A06 : ... .. . ...
ROW 15 : F-2 00 7 ... ... ... : ... .. . ... ... ... : ... .. . ... : ... .. . A02 : ... .. . ...
ROW 16 : E-2 00 7 ... ... ... : ... .. 0 ... ... ... : ... .. . ... : B-# 00 3 A04 : ... .. . ...
ROW 17 : C-2 00 7 ... ... ... : ... .. . ... ... ... : ... .. . ... : 6-# 00 8 A06 : ... .. . ...
ROW 18 : E-2 00 3 ... ... ... : ... .. . ... ... ... : ... .. . ... : 1-# 00 A A0C : ... .. . ...
ROW 19 : A-1 00 7 ... ... ... : ... .. . ... ... ... : ... .. . ... : --- .. . ... : ... .. . ...
ROW 1A : ... .. . ... ... ... : ... .. 0 ... ... ... : ... .. . ... : B-# 00 3 A04 : ... .. . ...
ROW 1B : C-2 00 7 ... ... ... : ... .. . ... ... ... : ... .. . ... : ... .. . ... : ... .. . ...
ROW 1C : A-1 00 7 ... ... ... : ... .. . ... ... ... : ... .. . ... : 6-# 00 8 A06 : ... .. . ...
ROW 1D : C-2 00 7 ... ... ... : ... .. . ... ... ... : ... .. . ... : ... .. . A02 : ... .. . ...
ROW 1E : D-2 00 7 ... ... ... : C-2 00 3 A04 V01 400 : ... .. . ... : B-# 00 3 A04 : ... .. . ...
ROW 1F : E-2 00 7 ... ... ... : ... .. . A00 ... ... : ... .. . ... : 6-# 00 8 A06 : ... .. . ...
ROW 20 : D-2 00 3 ... ... ... : ... .. . ... ... ... : ... .. . ... : 9-# 00 A A05 : ... .. . ...
ROW 21 : D-2 00 7 ... ... ... : ... .. . ... ... ... : ... .. . ... : ... .. . A02 : ... .. . ...
ROW 22 : E-2 00 7 ... ... ... : ... .. . ... ... ... : ... .. . ... : ... .. . ... : ... .. . ...
ROW 23 : F-2 00 7 ... ... ... : ... .. . ... ... ... : ... .. . ... : ... .. . ... : ... .. . ...
ROW 24 : E-2 00 3 ... ... ... : ... .. . ... ... ... : ... .. . ... : 6-# 00 8 A06 : ... .. . ...
ROW 25 : D-2 00 7 ... ... ... : ... .. . ... ... ... : ... .. . ... : ... .. . A02 : ... .. . ...
ROW 26 : E-2 00 7 ... ... ... : ... .. . ... ... ... : ... .. . ... : B-# 00 3 A04 : ... .. . ...
ROW 27 : F-2 00 7 ... ... ... : ... .. . ... ... ... : ... .. . ... : 6-# 00 8 A06 : ... .. . ...
ROW 28 : A-1 00 7 ... ... ... : ... .. . ... ... ... : ... .. . ... : 1-# 00 A A0C : ... .. . ...
ROW 29 : ... .. . A01 ... ... : ... .. . ... ... ... : ... .. . ... : --- .. . ... : ... .. . ...
ROW 2A : ... .. . ... ... ... : ... .. . ... ... ... : ... .. . ... : B-# 00 3 A04 : ... .. . ...
ROW 2B : ... .. . S03 ... ... : ... .. . ... ... ... : ... .. . ... : ... .. . ... : ... .. . ...
ROW 2C : A#1 00 7 A04 ... ... : ... .. . ... ... ... : ... .. . ... : 6-# 00 8 A06 : ... .. . ...
ROW 2D : ... .. . A01 ... ... : ... .. . ... ... ... : ... .. . ... : 6-# 00 8 A06 : ... .. . ...
ROW 2E : ... .. . ... ... ... : ... .. . ... ... ... : ... .. . ... : B-# 00 3 A04 : ... .. . ...
ROW 2F : ... .. . S03 ... ... : ... .. . ... ... ... : ... .. . ... : 6-# 00 8 A06 : ... .. . ...
ROW 30 : A#1 00 2 ... ... ... : ... .. . ... ... ... : ... .. . ... : 1-# 00 A A0C : ... .. . ...
ROW 31 : E-2 00 7 A04 ... ... : ... .. . ... ... ... : ... .. . ... : --- .. . ... : ... .. . ...
ROW 32 : F-2 00 7 ... ... ... : ... .. . ... ... ... : ... .. . ... : B-# 00 3 A04 : ... .. . ...
ROW 33 : G-2 00 7 ... ... ... : ... .. . ... ... ... : ... .. . ... : ... .. . ... : ... .. . ...
ROW 34 : E-2 00 3 ... ... ... : ... .. . ... ... ... : ... .. . ... : 6-# 00 8 A06 : ... .. . ...
ROW 35 : E-2 00 7 ... ... ... : ... .. . ... ... ... : ... .. . ... : ... .. . A02 : ... .. . ...
ROW 36 : F-2 00 7 ... ... ... : ... .. . ... ... ... : ... .. . ... : B-# 00 3 A04 : ... .. . ...
ROW 37 : G-2 00 7 ... ... ... : ... .. . ... ... ... : ... .. . ... : 6-# 00 8 A06 : ... .. . ...
ROW 38 : A#1 00 7 ... ... ... : ... .. . ... ... ... : ... .. . ... : 1-# 00 A A0C : ... .. . ...
ROW 39 : ... .. . A01 ... ... : ... .. . ... ... ... : ... .. . ... : --- .. . ... : ... .. . ...
ROW 3A : ... .. . ... ... ... : ... .. . ... ... ... : ... .. . ... : B-# 00 3 A04 : ... .. . ...
ROW 3B : ... .. . S03 ... ... : ... .. . ... ... ... : ... .. . ... : ... .. . ... : ... .. . ...
ROW 3C : C-2 00 7 A04 ... ... : ... .. . ... ... ... : ... .. . ... : 6-# 00 8 A06 : ... .. . ...
ROW 3D : ... .. . A01 ... ... : ... .. . ... ... ... : ... .. . ... : ... .. . A02 : ... .. . ...
ROW 3E : ... .. . ... ... ... : ... .. . ... ... ... : ... .. . ... : 6-# 00 8 A06 : ... .. . ...
ROW 3F : ... .. . S03 ... ... : ... .. . ... ... ... : ... .. . ... : 6-# 00 8 A06 : ... .. . ...

PATTERN 07
ROW 00 : A#3 00 A A03 ... ... : ... .. . ... ... ... : ... .. . ... : A-# 00 A A05 : ... .. . ...
ROW 01 : ... .. . ... ... ... : ... .. . ... ... ... : ... .. . ... : ... .. . A02 : ... .. . ...
ROW 02 : ... .. . ... ... ... : ... .. . ... ... ... : ... .. . ... : ... .. . ... : ... .. . ...
ROW 03 : ... .. . ... ... ... : ... .. . ... ... ... : ... .. . ... : ... .. . ... : ... .. . ...
ROW 04 : D-4 00 A ... ... ... : ... .. . ... ... ... : ... .. . ... : 6-# 00 8 A06 : ... .. . ...
ROW 05 : ... .. . ... ... ... : ... .. . ... ... ... : ... .. . ... : ... .. . A02 : ... .. . ...
ROW 06 : ... .. . ... ... ... : ... .. . ... ... ... : ... .. . ... : B-# 00 3 A04 : ... .. . ...
ROW 07 : ... .. . ... ... ... : ... .. . ... ... ... : ... .. . ... : 6-# 00 8 A06 : ... .. . ...
ROW 08 : F-4 00 A ... ... ... : ... .. . ... ... ... : ... .. . ... : 1-# 00 A A0C : ... .. . ...
ROW 09 : ... .. . ... ... ... : ... .. . ... ... ... : ... .. . ... : --- .. . ... : ... .. . ...
ROW 0A : ... .. . ... ... ... : ... .. . ... ... ... : ... .. . ... : B-# 00 3 A04 : ... .. . ...
ROW 0B : ... .. . ... ... ... : ... .. . ... ... ... : ... .. . ... : ... .. . ... : ... .. . ...
ROW 0C : A-4 00 A ... ... ... : ... .. . ... ... ... : ... .. . ... : 6-# 00 8 A06 : ... .. . ...
ROW 0D : ... .. . ... ... ... : ... .. . ... ... ... : ... .. . ... : ... .. . ... : ... .. . ...
ROW 0E : ... .. . ... ... ... : ... .. . ... ... ... : ... .. . ... : 6-# 00 8 A06 : ... .. . ...
ROW 0F : ... .. . ... ... ... : ... .. . ... ... ... : ... .. . ... : 6-# 00 8 A06 : ... .. . ...
ROW 10 : G-4 00 A ... ... ... : ... .. . ... ... ... : ... .. . ... : 1-# 00 A A0C : ... .. . ...
ROW 11 : ... .. . ... ... ... : ... .. . ... ... ... : ... .. . ... : 6-# 00 8 A06 : ... .. . ...
ROW 12 : ... .. . ... ... ... : ... .. . ... ... ... : ... .. . ... : 6-# 00 8 A06 : ... .. . ...
ROW 13 : ... .. . ... ... ... : ... .. . ... ... ... : ... .. . ... : ... .. . ... : ... .. . ...
ROW 14 : F-4 00 A ... ... ... : ... .. . ... ... ... : ... .. . ... : 6-# 00 8 A06 : ... .. . ...
ROW 15 : ... .. . ... ... ... : ... .. . ... ... ... : ... .. . ... : ... .. . ... : ... .. . ...
ROW 16 : ... .. . ... ... ... : ... .. . ... ... ... : ... .. . ... : B-# 00 3 A04 : ... .. . ...
ROW 17 : ... .. . ... ... ... : ... .. . ... ... ... : ... .. . ... : 6-# 00 8 A06 : ... .. . ...
ROW 18 : E-4 00 A ... ... ... : ... .. . ... ... ... : ... .. . ... : ... .. . A02 : ... .. . ...
ROW 19 : ... .. . ... ... ... : ... .. . ... ... ... : ... .. . ... : 6-# 00 8 A06 : ... .. . ...
ROW 1A : ... .. . ... ... ... : ... .. . ... ... ... : ... .. . ... : B-# 00 3 A04 : ... .. . ...
ROW 1B : ... .. . ... ... ... : ... .. . ... ... ... : ... .. . ... : 1-# 00 A A0C : ... .. . ...
ROW 1C : C-4 00 A ... ... ... : ... .. . ... ... ... : ... .. . ... : 6-# 00 8 A06 : ... .. . ...
ROW 1D : ... .. . ... ... ... : ... .. . ... ... ... : ... .. . ... : 6-# 00 8 A06 : ... .. . ...
ROW 1E : ... .. . ... ... ... : ... .. . ... ... ... : ... .. . ... : 6-# 00 8 A06 : ... .. . ...
ROW 1F : ... .. . ... ... ... : ... .. . ... ... ... : ... .. . ... : 6-# 00 8 A06 : ... .. . ...
ROW 20 : A-4 00 A ... ... ... : ... .. . ... ... ... : ... .. . ... : ... .. . ... : ... .. . ...
ROW 21 : ... .. . ... ... ... : ... .. . ... ... ... : ... .. . ... : ... .. . ... : ... .. . ...
ROW 22 : ... .. . ... ... ... : ... .. . ... ... ... : ... .. . ... : ... .. . ... : ... .. . ...
ROW 23 : ... .. . ... ... ... : ... .. . ... ... ... : ... .. . ... : ... .. . ... : ... .. . ...
ROW 24 : F-4 00 A ... ... ... : ... .. . ... ... ... : ... .. . ... : ... .. . ... : ... .. . ...
ROW 25 : ... .. . ... ... ... : ... .. . ... ... ... : ... .. . ... : ... .. . ... : ... .. . ...
ROW 26 : ... .. . ... ... ... : ... .. . ... ... ... : ... .. . ... : ... .. . ... : ... .. . ...
ROW 27 : ... .. . ... ... ... : ... .. . ... ... ... : ... .. . ... : ... .. . ... : ... .. . ...
ROW 28 : D-4 00 A ... ... ... : ... .. . ... ... ... : ... .. . ... : ... .. . ... : ... .. . ...
ROW 29 : ... .. . ... ... ... : ... .. . ... ... ... : ... .. . ... : ... .. . ... : ... .. . ...
ROW 2A : ... .. . ... ... ... : ... .. . ... ... ... : ... .. . ... : ... .. . ... : ... .. . ...
ROW 2B : ... .. . ... ... ... : ... .. . ... ... ... : ... .. . ... : ... .. . ... : ... .. . ...
ROW 2C : A#3 00 A ... ... ... : ... .. . ... ... ... : ... .. . ... : ... .. . ... : ... .. . ...
ROW 2D : ... .. . ... ... ... : ... .. . ... ... ... : ... .. . ... : ... .. . ... : ... .. . ...
ROW 2E : ... .. . ... ... ... : ... .. . ... ... ... : ... .. . ... : ... .. . ... : ... .. . ...
ROW 2F : ... .. . ... ... ... : ... .. . ... ... ... : ... .. . ... : ... .. . ... : ... .. . ...
ROW 30 : G-4 00 A ... ... ... : ... .. . ... ... ... : ... .. . ... : ... .. . ... : ... .. . ...
ROW 31 : ... .. . ... ... ... : ... .. . ... ... ... : ... .. . ... : ... .. . ... : ... .. . ...
ROW 32 : ... .. . ... ... ... : ... .. . ... ... ... : ... .. . ... : ... .. . ... : ... .. . ...
ROW 33 : ... .. . ... ... ... : ... .. . ... ... ... : ... .. . ... : ... .. . ... : ... .. . ...
ROW 34 : ... .. . ... ... ... : ... .. . ... ... ... : ... .. . ... : ... .. . ... : ... .. . ...
ROW 35 : ... .. . ... ... ... : ... .. . ... ... ... : ... .. . ... : ... .. . ... : ... .. . ...
ROW 36 : E-4 00 A ... ... ... : ... .. . ... ... ... : ... .. . ... : ... .. . ... : ... .. . ...
ROW 37 : F-4 00 A ... ... ... : ... .. . ... ... ... : ... .. . ... : ... .. . ... : ... .. . ...
ROW 38 : G-3 00 A ... ... ... : ... .. . ... ... ... : ... .. . ... : ... .. . ... : ... .. . ...
ROW 39 : A-3 00 A ... ... ... : ... .. . ... ... ... : ... .. . ... : ... .. . ... : ... .. . ...
ROW 3A : A#3 00 A ... ... ... : ... .. . ... ... ... : ... .. . ... : ... .. . ... : ... .. . ...
ROW 3B : C-4 00 A ... ... ... : ... .. . ... ... ... : ... .. . ... : ... .. . ... : ... .. . ...
ROW 3C : A#3 00 A ... ... ... : ... .. . ... ... ... : ... .. . ... : ... .. . ... : ... .. . ...
ROW 3D : D-4 00 A ... ... ... : ... .. . ... ... ... : ... .. . ... : ... .. . ... : ... .. . ...
ROW 3E : E-4 00 A ... ... ... : ... .. . ... ... ... : ... .. . ... : ... .. . ... : ... .. . ...
ROW 3F : G-4 00 A ... ... ... : ... .. . ... ... ... : ... .. . ... : ... .. . ... : ... .. . ...

PATTERN 08
ROW 00 : A#3 00 6 A03 V02 ... : ... .. . ... ... ... : ... .. . ... : ... .. . ... : ... .. . ...
ROW 01 : ... .. . ... ... ... : ... .. . ... ... ... : ... .. . ... : ... .. . ... : ... .. . ...
ROW 02 : E-2 00 7 A04 V01 ... : ... .. . ... ... ... : ... .. . ... : ... .. . ... : ... .. . ...
ROW 03 : F-2 00 7 ... ... ... : ... .. . ... ... ... : ... .. . ... : ... .. . ... : ... .. . ...
ROW 04 : D-4 00 6 A03 V02 ... : ... .. . ... ... ... : ... .. . ... : ... .. . ... : ... .. . ...
ROW 05 : ... .. . ... ... ... : ... .. . ... ... ... : ... .. . ... : ... .. . ... : ... .. . ...
ROW 06 : E-2 00 7 A04 V01 ... : ... .. . ... ... ... : ... .. . ... : ... .. . ... : ... .. . ...
ROW 07 : D-2 00 7 ... ... ... : ... .. . ... ... ... : ... .. . ... : ... .. . ... : ... .. . ...
ROW 08 : F-4 00 6 A03 V02 ... : ... .. . ... ... ... : ... .. . ... : ... .. . ... : ... .. . ...
ROW 09 : ... .. . ... ... ... : ... .. . ... ... ... : ... .. . ... : ... .. . ... : ... .. . ...
ROW 0A : F-2 00 7 A04 V01 ... : ... .. . ... ... ... : ... .. . ... : ... .. . ... : ... .. . ...
ROW 0B : ... .. . ... ... ... : ... .. . ... ... ... : ... .. . ... : ... .. . ... : ... .. . ...
ROW 0C : A-4 00 6 A03 V02 ... : ... .. . ... ... ... : ... .. . ... : ... .. . ... : ... .. . ...
ROW 0D : ... .. . ... ... ... : ... .. . ... ... ... : ... .. . ... : ... .. . ... : ... .. . ...
ROW 0E : F-2 00 7 A04 V01 ... : ... .. . ... ... ... : ... .. . ... : ... .. . ... : ... .. . ...
ROW 0F : A-2 00 7 ... ... ... : ... .. . ... ... ... : ... .. . ... : ... .. . ... : ... .. . ...
ROW 10 : G-4 00 6 A03 V02 ... : ... .. . ... ... ... : ... .. . ... : ... .. . ... : ... .. . ...
ROW 11 : ... .. . ... ... ... : ... .. . ... ... ... : ... .. . ... : ... .. . ... : ... .. . ...
ROW 12 : A-1 00 7 A04 V01 ... : ... .. . ... ... ... : ... .. . ... : ... .. . ... : ... .. . ...
ROW 13 : C-2 00 7 ... ... ... : ... .. . ... ... ... : ... .. . ... : ... .. . ... : ... .. . ...
ROW 14 : F-4 00 6 A03 V02 ... : ... .. . ... ... ... : ... .. . ... : ... .. . ... : ... .. . ...
ROW 15 : ... .. . ... ... ... : ... .. . ... ... ... : ... .. . ... : ... .. . ... : ... .. . ...
ROW 16 : F-2 00 7 A04 V01 ... : ... .. . ... ... ... : ... .. . ... : ... .. . ... : ... .. . ...
ROW 17 : E-2 00 7 ... ... ... : ... .. . ... ... ... : ... .. . ... : ... .. . ... : ... .. . ...
ROW 18 : E-4 00 6 A03 V02 ... : ... .. . ... ... ... : ... .. . ... : ... .. . ... : ... .. . ...
ROW 19 : ... .. . ... ... ... : ... .. . ... ... ... : ... .. . ... : ... .. . ... : ... .. . ...
ROW 1A : A-1 00 7 A04 V01 ... : ... .. . ... ... ... : ... .. . ... : ... .. . ... : ... .. . ...
ROW 1B : ... .. . ... ... ... : ... .. . ... ... ... : ... .. . ... : ... .. . ... : ... .. . ...
ROW 1C : C-4 00 6 A03 V02 ... : ... .. . ... ... ... : ... .. . ... : ... .. . ... : ... .. . ...
ROW 1D : ... .. . ... ... ... : ... .. . ... ... ... : ... .. . ... : ... .. . ... : ... .. . ...
ROW 1E : C-2 00 7 A04 V01 ... : ... .. . ... ... ... : ... .. . ... : ... .. . ... : ... .. . ...
ROW 1F : D-2 00 7 ... ... ... : ... .. . ... ... ... : ... .. . ... : ... .. . ... : ... .. . ...
ROW 20 : A-4 00 6 A03 V02 ... : ... .. . ... ... ... : ... .. . ... : ... .. . ... : ... .. . ...
ROW 21 : ... .. . ... ... ... : ... .. . ... ... ... : ... .. . ... : ... .. . ... : ... .. . ...
ROW 22 : D-2 00 7 A04 V01 ... : ... .. . ... ... ... : ... .. . ... : ... .. . ... : ... .. . ...
ROW 23 : E-2 00 7 ... ... ... : ... .. . ... ... ... : ... .. . ... : ... .. . ... : ... .. . ...
ROW 24 : F-4 00 6 A03 V02 ... : ... .. . ... ... ... : ... .. . ... : ... .. . ... : ... .. . ...
ROW 25 : ... .. . ... ... ... : ... .. . ... ... ... : ... .. . ... : ... .. . ... : ... .. . ...
ROW 26 : D-2 00 7 A04 V01 ... : ... .. . ... ... ... : ... .. . ... : ... .. . ... : ... .. . ...
ROW 27 : E-2 00 7 ... ... ... : ... .. . ... ... ... : ... .. . ... : ... .. . ... : ... .. . ...
ROW 28 : D-4 00 6 A03 V02 ... : ... .. . ... ... ... : ... .. . ... : ... .. . ... : ... .. . ...
ROW 29 : ... .. . ... ... ... : ... .. . ... ... ... : ... .. . ... : ... .. . ... : ... .. . ...
ROW 2A : ... .. . ... ... ... : ... .. . ... ... ... : ... .. . ... : ... .. . ... : ... .. . ...
ROW 2B : ... .. . ... ... ... : ... .. . ... ... ... : ... .. . ... : ... .. . ... : ... .. . ...
ROW 2C : A#3 00 6 A03 V02 ... : ... .. . ... ... ... : ... .. . ... : ... .. . ... : ... .. . ...
ROW 2D : ... .. . ... ... ... : ... .. . ... ... ... : ... .. . ... : ... .. . ... : ... .. . ...
ROW 2E : ... .. . ... ... ... : ... .. . ... ... ... : ... .. . ... : ... .. . ... : ... .. . ...
ROW 2F : ... .. . ... ... ... : ... .. . ... ... ... : ... .. . ... : ... .. . ... : ... .. . ...
ROW 30 : G-4 00 6 A03 V02 ... : ... .. . ... ... ... : ... .. . ... : ... .. . ... : ... .. . ...
ROW 31 : ... .. . ... ... ... : ... .. . ... ... ... : ... .. . ... : ... .. . ... : ... .. . ...
ROW 32 : E-2 00 7 A04 V01 ... : ... .. . ... ... ... : ... .. . ... : ... .. . ... : ... .. . ...
ROW 33 : F-2 00 7 ... ... ... : ... .. . ... ... ... : ... .. . ... : ... .. . ... : ... .. . ...
ROW 34 : G-2 00 7 ... ... ... : ... .. . ... ... ... : ... .. . ... : ... .. . ... : ... .. . ...
ROW 35 : E-2 00 3 ... ... ... : ... .. . ... ... ... : ... .. . ... : ... .. . ... : ... .. . ...
ROW 36 : E-4 00 6 A03 V02 ... : ... .. . ... ... ... : ... .. . ... : ... .. . ... : ... .. . ...
ROW 37 : F-4 00 6 ... ... ... : ... .. . ... ... ... : ... .. . ... : ... .. . ... : ... .. . ...
ROW 38 : G-3 00 7 A03 V01 ... : ... .. . ... ... ... : ... .. . ... : ... .. . ... : ... .. . ...
ROW 39 : A-3 00 7 ... ... ... : ... .. . ... ... ... : ... .. . ... : ... .. . ... : ... .. . ...
ROW 3A : A#3 00 7 ... ... ... : ... .. . ... ... ... : ... .. . ... : ... .. . ... : ... .. . ...
ROW 3B : C-4 00 7 ... ... ... : ... .. . ... ... ... : ... .. . ... : ... .. . ... : ... .. . ...
ROW 3C : A#3 00 7 ... ... ... : ... .. . ... ... ... : ... .. . ... : ... .. . ... : ... .. . ...
ROW 3D : D-4 00 7 ... ... ... : ... .. . ... ... ... : ... .. . ... : ... .. . ... : ... .. . ...
ROW 3E : E-4 00 7 ... ... ... : ... .. . ... ... ... : ... .. . ... : ... .. . ... : ... .. . ...
ROW 3F : G-4 00 7 ... ... ... : ... .. . ... ... ... : ... .. . ... : ... .. . ... : ... .. . ...

PATTERN 09
ROW 00 : D-2 00 7 A04 V01 ... : ... .. . ... ... ... : ... .. . ... : ... .. . ... : ... .. . ...
ROW 01 : G-2 00 7 ... ... ... : ... .. . ... ... ... : ... .. . ... : ... .. . ... : ... .. . ...
ROW 02 : A-2 00 7 ... ... ... : ... .. . ... ... ... : ... .. . ... : ... .. . ... : ... .. . ...
ROW 03 : G-2 00 7 ... ... ... : ... .. . ... ... ... : ... .. . ... : ... .. . ... : ... .. . ...
ROW 04 : F-2 00 7 ... ... ... : ... .. . ... ... ... : ... .. . ... : ... .. . ... : ... .. . ...
ROW 05 : G-2 00 7 ... ... ... : ... .. . ... ... ... : ... .. . ... : ... .. . ... : ... .. . ...
ROW 06 : F-2 00 7 ... ... ... : ... .. . ... ... ... : ... .. . ... : ... .. . ... : ... .. . ...
ROW 07 : C-2 00 7 ... ... ... : ... .. . ... ... ... : ... .. . ... : ... .. . ... : ... .. . ...
ROW 08 : --- .. . ... ... ... : ... .. . ... ... ... : ... .. . ... : ... .. . ... : ... .. . ...
ROW 09 : D-2 00 7 ... ... ... : ... .. . ... ... ... : ... .. . ... : ... .. . ... : ... .. . ...
ROW 0A : ... .. . ... ... ... : ... .. . ... ... ... : ... .. . ... : ... .. . ... : ... .. . ...
ROW 0B : A-1 00 7 ... ... ... : ... .. . ... ... ... : ... .. . ... : ... .. . ... : ... .. . ...
ROW 0C : C-2 00 7 ... ... ... : ... .. . ... ... ... : ... .. . ... : ... .. . ... : ... .. . ...
ROW 0D : D-2 00 7 ... ... ... : ... .. . ... ... ... : ... .. . ... : ... .. . ... : ... .. . ...
ROW 0E : G-2 00 7 ... ... ... : ... .. . ... ... ... : ... .. . ... : ... .. . ... : ... .. . ...
ROW 0F : A-2 00 7 ... ... ... : ... .. . ... ... ... : ... .. . ... : ... .. . ... : ... .. . ...
ROW 10 : --- .. . ... ... ... : ... .. . ... ... ... : ... .. . ... : ... .. . ... : ... .. . ...
ROW 11 : G-1 00 7 ... ... ... : ... .. . ... ... ... : ... .. . ... : ... .. . ... : ... .. . ...
ROW 12 : A#1 00 7 ... ... ... : ... .. . ... ... ... : ... .. . ... : ... .. . ... : ... .. . ...
ROW 13 : C-2 00 7 ... ... ... : ... .. . ... ... ... : ... .. . ... : ... .. . ... : ... .. . ...
ROW 14 : --- .. . ... ... ... : ... .. . ... ... ... : ... .. . ... : ... .. . ... : ... .. . ...
ROW 15 : G-1 00 7 ... ... ... : ... .. . ... ... ... : ... .. . ... : ... .. . ... : ... .. . ...
ROW 16 : A#1 00 7 ... ... ... : ... .. . ... ... ... : ... .. . ... : ... .. . ... : ... .. . ...
ROW 17 : C-2 00 7 ... ... ... : ... .. . ... ... ... : ... .. . ... : ... .. . ... : ... .. . ...
ROW 18 : --- .. . ... ... ... : ... .. . ... ... ... : ... .. . ... : ... .. . ... : ... .. . ...
ROW 19 : C-2 00 7 ... ... ... : ... .. . ... ... ... : ... .. . ... : ... .. . ... : ... .. . ...
ROW 1A : ... .. . ... ... ... : ... .. . ... ... ... : ... .. . ... : ... .. . ... : ... .. . ...
ROW 1B : G-1 00 7 ... ... ... : ... .. . ... ... ... : ... .. . ... : ... .. . ... : ... .. . ...
ROW 1C : F-2 00 7 ... ... ... : ... .. . ... ... ... : ... .. . ... : ... .. . ... : ... .. . ...
ROW 1D : G-2 00 7 ... ... ... : ... .. . ... ... ... : ... .. . ... : ... .. . ... : ... .. . ...
ROW 1E : E-2 00 7 ... ... ... : ... .. . ... ... ... : ... .. . ... : ... .. . ... : ... .. . ...
ROW 1F : A#1 00 7 ... ... ... : ... .. . ... ... ... : ... .. . ... : ... .. . ... : ... .. . ...
ROW 20 : D-2 00 7 A04 V01 ... : ... .. . ... ... ... : ... .. . ... : ... .. . ... : ... .. . ...
ROW 21 : G-2 00 7 ... ... ... : ... .. . ... ... ... : ... .. . ... : ... .. . ... : ... .. . ...
ROW 22 : A-2 00 7 ... ... ... : ... .. . ... ... ... : ... .. . ... : ... .. . ... : ... .. . ...
ROW 23 : G-2 00 7 ... ... ... : ... .. . ... ... ... : ... .. . ... : ... .. . ... : ... .. . ...
ROW 24 : F-2 00 7 ... ... ... : ... .. . ... ... ... : ... .. . ... : ... .. . ... : ... .. . ...
ROW 25 : G-2 00 7 ... ... ... : ... .. . ... ... ... : ... .. . ... : ... .. . ... : ... .. . ...
ROW 26 : F-2 00 7 ... ... ... : ... .. . ... ... ... : ... .. . ... : ... .. . ... : ... .. . ...
ROW 27 : C-2 00 7 ... ... ... : ... .. . ... ... ... : ... .. . ... : ... .. . ... : ... .. . ...
ROW 28 : --- .. . ... ... ... : ... .. . ... ... ... : ... .. . ... : ... .. . ... : ... .. . ...
ROW 29 : D-2 00 7 ... ... ... : ... .. . ... ... ... : ... .. . ... : ... .. . ... : ... .. . ...
ROW 2A : ... .. . ... ... ... : ... .. . ... ... ... : ... .. . ... : ... .. . ... : ... .. . ...
ROW 2B : A-1 00 7 ... ... ... : ... .. . ... ... ... : ... .. . ... : ... .. . ... : ... .. . ...
ROW 2C : C-2 00 7 ... ... ... : ... .. . ... ... ... : ... .. . ... : ... .. . ... : ... .. . ...
ROW 2D : D-2 00 7 ... ... ... : ... .. . ... ... ... : ... .. . ... : ... .. . ... : ... .. . ...
ROW 2E : G-2 00 7 ... ... ... : ... .. . ... ... ... : ... .. . ... : ... .. . ... : ... .. . ...
ROW 2F : A-2 00 7 ... ... ... : ... .. . ... ... ... : ... .. . ... : ... .. . ... : ... .. . ...
ROW 30 : --- .. . ... ... ... : ... .. . ... ... ... : ... .. . ... : ... .. . ... : ... .. . ...
ROW 31 : G-1 00 7 ... ... ... : ... .. . ... ... ... : ... .. . ... : ... .. . ... : ... .. . ...
ROW 32 : A#1 00 7 ... ... ... : ... .. . ... ... ... : ... .. . ... : ... .. . ... : ... .. . ...
ROW 33 : C-2 00 7 ... ... ... : ... .. . ... ... ... : ... .. . ... : ... .. . ... : ... .. . ...
ROW 34 : --- .. . ... ... ... : ... .. . ... ... ... : ... .. . ... : ... .. . ... : ... .. . ...
ROW 35 : G-1 00 7 ... ... ... : ... .. . ... ... ... : ... .. . ... : ... .. . ... : ... .. . ...
ROW 36 : A#1 00 7 ... ... ... : ... .. . ... ... ... : ... .. . ... : ... .. . ... : ... .. . ...
ROW 37 : C-2 00 7 ... ... ... : ... .. . ... ... ... : ... .. . ... : ... .. . ... : ... .. . ...
ROW 38 : --- .. . ... ... ... : ... .. . ... ... ... : ... .. . ... : ... .. . ... : ... .. . ...
ROW 39 : C-2 00 7 ... ... ... : ... .. . ... ... ... : ... .. . ... : ... .. . ... : ... .. . ...
ROW 3A : ... .. . ... ... ... : ... .. . ... ... ... : ... .. . ... : ... .. . ... : ... .. . ...
ROW 3B : G-1 00 7 ... ... ... : ... .. . ... ... ... : ... .. . ... : ... .. . ... : ... .. . ...
ROW 3C : F-2 00 7 ... ... ... : ... .. . ... ... ... : ... .. . ... : ... .. . ... : ... .. . ...
ROW 3D : G-2 00 7 ... ... ... : ... .. . ... ... ... : ... .. . ... : ... .. . ... : ... .. . ...
ROW 3E : E-2 00 7 ... ... ... : ... .. . ... ... ... : ... .. . ... : ... .. . ... : ... .. . ...
ROW 3F : A#1 00 7 ... ... ... : ... .. . ... ... ... : ... .. . ... : ... .. . ... : ... .. . ...

PATTERN 0A
ROW 00 : F-3 00 7 A03 V01 ... : ... .. . ... ... ... : ... .. . ... : ... .. . ... : ... .. . ...
ROW 01 : F-3 00 7 ... ... ... : ... .. . ... ... ... : ... .. . ... : ... .. . ... : ... .. . ...
ROW 02 : A-3 00 7 ... ... ... : ... .. . ... ... ... : ... .. . ... : ... .. . ... : ... .. . ...
ROW 03 : F-3 00 7 ... ... ... : ... .. . ... ... ... : ... .. . ... : ... .. . ... : ... .. . ...
ROW 04 : G-3 00 7 ... ... ... : ... .. . ... ... ... : ... .. . ... : ... .. . ... : ... .. . ...
ROW 05 : A-3 00 3 ... ... ... : ... .. . ... ... ... : ... .. . ... : ... .. . ... : ... .. . ...
ROW 06 : E-3 00 7 ... ... ... : ... .. . ... ... ... : ... .. . ... : ... .. . ... : ... .. . ...
ROW 07 : F-3 00 7 ... ... ... : ... .. . ... ... ... : ... .. . ... : ... .. . ... : ... .. . ...
ROW 08 : --- .. . ... ... ... : ... .. . ... ... ... : ... .. . ... : ... .. . ... : ... .. . ...
ROW 09 : F-3 00 7 ... ... ... : ... .. . ... ... ... : ... .. . ... : ... .. . ... : ... .. . ...
ROW 0A : A-3 00 7 ... ... ... : ... .. . ... ... ... : ... .. . ... : ... .. . ... : ... .. . ...
ROW 0B : F-3 00 7 ... ... ... : ... .. . ... ... ... : ... .. . ... : ... .. . ... : ... .. . ...
ROW 0C : G-3 00 7 ... ... ... : ... .. . ... ... ... : ... .. . ... : ... .. . ... : ... .. . ...
ROW 0D : A-3 00 7 ... ... ... : ... .. . ... ... ... : ... .. . ... : ... .. . ... : ... .. . ...
ROW 0E : E-3 00 7 ... ... ... : ... .. . ... ... ... : ... .. . ... : ... .. . ... : ... .. . ...
ROW 0F : ... .. . ... ... ... : ... .. . ... ... ... : ... .. . ... : ... .. . ... : ... .. . ...
ROW 10 : A-3 00 3 ... ... ... : ... .. . ... ... ... : ... .. . ... : ... .. . ... : ... .. . ...
ROW 11 : E-3 00 3 ... ... ... : ... .. . ... ... ... : ... .. . ... : ... .. . ... : ... .. . ...
ROW 12 : A#3 00 7 ... V00 ... : ... .. . ... ... ... : ... .. . ... : ... .. . ... : ... .. . ...
ROW 13 : C-4 00 7 S06 ... ... : ... .. . ... ... ... : ... .. . ... : ... .. . ... : ... .. . ...
ROW 14 : C-4 00 7 S05 ... ... : ... .. . ... ... ... : ... .. . ... : ... .. . ... : ... .. . ...
ROW 15 : C-4 00 7 S06 ... ... : ... .. . ... ... ... : ... .. . ... : ... .. . ... : ... .. . ...
ROW 16 : --- .. . ... ... ... : ... .. . ... ... ... : ... .. . ... : ... .. . ... : ... .. . ...
ROW 17 : A#3 00 7 ... ... ... : ... .. . ... ... ... : ... .. . ... : ... .. . ... : ... .. . ...
ROW 18 : --- .. . ... ... ... : ... .. . ... ... ... : ... .. . ... : ... .. . ... : ... .. . ...
ROW 19 : C-4 00 7 S06 ... ... : ... .. . ... ... ... : ... .. . ... : ... .. . ... : ... .. . ...
ROW 1A : C-4 00 7 S06 ... ... : ... .. . ... ... ... : ... .. . ... : ... .. . ... : ... .. . ...
ROW 1B : C-4 00 7 S06 ... ... : ... .. . ... ... ... : ... .. . ... : ... .. . ... : ... .. . ...
ROW 1C : F-4 00 7 ... ... ... : ... .. . ... ... ... : ... .. . ... : ... .. . ... : ... .. . ...
ROW 1D : E-4 00 7 ... ... ... : ... .. . ... ... ... : ... .. . ... : ... .. . ... : ... .. . ...
ROW 1E : D-4 00 7 ... ... ... : ... .. . ... ... ... : ... .. . ... : ... .. . ... : ... .. . ...
ROW 1F : E-4 00 7 ... ... ... : ... .. . ... ... ... : ... .. . ... : ... .. . ... : ... .. . ...
ROW 20 : D-3 00 7 A03 V01 P7E : ... .. . ... ... ... : ... .. . ... : ... .. . ... : ... .. . ...
ROW 21 : D-3 00 7 ... ... ... : ... .. . ... ... ... : ... .. . ... : ... .. . ... : ... .. . ...
ROW 22 : F-3 00 7 ... ... ... : ... .. . ... ... ... : ... .. . ... : ... .. . ... : ... .. . ...
ROW 23 : D-3 00 7 ... ... ... : ... .. . ... ... ... : ... .. . ... : ... .. . ... : ... .. . ...
ROW 24 : E-3 00 7 ... ... ... : ... .. . ... ... ... : ... .. . ... : ... .. . ... : ... .. . ...
ROW 25 : F-3 00 3 ... ... ... : ... .. . ... ... ... : ... .. . ... : ... .. . ... : ... .. . ...
ROW 26 : C-3 00 7 ... ... ... : ... .. . ... ... ... : ... .. . ... : ... .. . ... : ... .. . ...
ROW 27 : D-3 00 7 ... ... ... : ... .. . ... ... ... : ... .. . ... : ... .. . ... : ... .. . ...
ROW 28 : --- .. . ... ... ... : ... .. . ... ... ... : ... .. . ... : ... .. . ... : ... .. . ...
ROW 29 : D-3 00 7 ... ... ... : ... .. . ... ... ... : ... .. . ... : ... .. . ... : ... .. . ...
ROW 2A : F-3 00 7 ... ... ... : ... .. . ... ... ... : ... .. . ... : ... .. . ... : ... .. . ...
ROW 2B : D-3 00 7 ... ... ... : ... .. . ... ... ... : ... .. . ... : ... .. . ... : ... .. . ...
ROW 2C : E-3 00 7 ... ... ... : ... .. . ... ... ... : ... .. . ... : ... .. . ... : ... .. . ...
ROW 2D : F-3 00 7 ... ... ... : ... .. . ... ... ... : ... .. . ... : ... .. . ... : ... .. . ...
ROW 2E : D-3 00 7 ... ... ... : ... .. . ... ... ... : ... .. . ... : ... .. . ... : ... .. . ...
ROW 2F : ... .. . ... ... ... : ... .. . ... ... ... : ... .. . ... : ... .. . ... : ... .. . ...
ROW 30 : F-3 00 3 ... ... ... : ... .. . ... ... ... : ... .. . ... : ... .. . ... : ... .. . ...
ROW 31 : D-3 00 3 ... ... ... : ... .. . ... ... ... : ... .. . ... : ... .. . ... : ... .. . ...
ROW 32 : A#3 00 7 ... V00 P80 : ... .. . ... ... ... : ... .. . ... : ... .. . ... : ... .. . ...
ROW 33 : C-4 00 7 S06 ... ... : ... .. . ... ... ... : ... .. . ... : ... .. . ... : ... .. . ...
ROW 34 : C-4 00 7 S05 ... ... : ... .. . ... ... ... : ... .. . ... : ... .. . ... : ... .. . ...
ROW 35 : C-4 00 7 S06 ... ... : ... .. . ... ... ... : ... .. . ... : ... .. . ... : ... .. . ...
ROW 36 : C-4 00 2 S06 ... ... : ... .. . ... ... ... : ... .. . ... : ... .. . ... : ... .. . ...
ROW 37 : A#3 00 7 S06 ... ... : ... .. . ... ... ... : ... .. . ... : ... .. . ... : ... .. . ...
ROW 38 : C-4 00 3 S05 ... ... : ... .. . ... ... ... : ... .. . ... : ... .. . ... : ... .. . ...
ROW 39 : C-4 00 7 S06 ... ... : ... .. . ... ... ... : ... .. . ... : ... .. . ... : ... .. . ...
ROW 3A : C-4 00 7 S06 ... ... : ... .. . ... ... ... : ... .. . ... : ... .. . ... : ... .. . ...
ROW 3B : C-4 00 7 S06 ... ... : ... .. . ... ... ... : ... .. . ... : ... .. . ... : ... .. . ...
ROW 3C : F-4 00 7 ... ... ... : ... .. . ... ... ... : ... .. . ... : ... .. . ... : ... .. . ...
ROW 3D : E-4 00 7 ... ... ... : ... .. . ... ... ... : ... .. . ... : ... .. . ... : ... .. . ...
ROW 3E : D-4 00 7 ... ... ... : ... .. . ... ... ... : ... .. . ... : ... .. . ... : ... .. . ...
ROW 3F : E-4 00 5 ... ... P7E : ... .. . ... ... ... : ... .. . ... : ... .. . ... : ... .. . ...

PATTERN 0B
ROW 00 : F-3 00 7 V01 A01 P80 : ... .. . ... ... ... : ... .. . ... : ... .. . ... : ... .. . ...
ROW 01 : ... .. . ... ... ... : ... .. . ... ... ... : ... .. . ... : ... .. . ... : ... .. . ...
ROW 02 : ... .. . ... ... ... : ... .. . ... ... ... : ... .. . ... : ... .. . ... : ... .. . ...
ROW 03 : ... .. . ... ... ... : ... .. . ... ... ... : ... .. . ... : ... .. . ... : ... .. . ...
ROW 04 : ... .. . ... A00 461 : ... .. . ... ... ... : ... .. . ... : ... .. . ... : ... .. . ...
ROW 05 : ... .. . ... ... ... : ... .. . ... ... ... : ... .. . ... : ... .. . ... : ... .. . ...
ROW 06 : ... .. . ... ... ... : ... .. . ... ... ... : ... .. . ... : ... .. . ... : ... .. . ...
ROW 07 : ... .. . ... ... ... : ... .. . ... ... ... : ... .. . ... : ... .. . ... : ... .. . ...
ROW 08 : ... .. . ... ... ... : ... .. . ... ... ... : ... .. . ... : ... .. . ... : ... .. . ...
ROW 09 : ... .. 3 ... ... ... : ... .. . ... ... ... : ... .. . ... : ... .. . ... : ... .. . ...
ROW 0A : ... .. . ... ... ... : ... .. . ... ... ... : ... .. . ... : ... .. . ... : ... .. . ...
ROW 0B : ... .. . ... ... ... : ... .. . ... ... ... : ... .. . ... : ... .. . ... : ... .. . ...
ROW 0C : ... .. 2 ... ... ... : ... .. . ... ... ... : ... .. . ... : ... .. . ... : ... .. . ...
ROW 0D : ... .. . ... ... ... : ... .. . ... ... ... : ... .. . ... : ... .. . ... : ... .. . ...
ROW 0E : ... .. . ... ... ... : ... .. . ... ... ... : ... .. . ... : ... .. . ... : ... .. . ...
ROW 0F : ... .. 1 ... ... ... : ... .. . ... ... ... : ... .. . ... : ... .. . ... : ... .. . ...
ROW 10 : ... .. . ... ... ... : ... .. . ... ... ... : ... .. . ... : ... .. . ... : ... .. . ...
ROW 11 : C-2 00 7 A04 V01 400 : ... .. . ... ... ... : ... .. . ... : ... .. . ... : ... .. . ...
ROW 12 : E-2 00 7 ... ... ... : ... .. . ... ... ... : ... .. . ... : ... .. . ... : ... .. . ...
ROW 13 : F-2 00 7 ... ... ... : ... .. . ... ... ... : ... .. . ... : ... .. . ... : ... .. . ...
ROW 14 : G-2 00 7 ... ... ... : ... .. . ... ... ... : ... .. . ... : ... .. . ... : ... .. . ...
ROW 15 : F-2 00 7 ... ... ... : ... .. . ... ... ... : ... .. . ... : ... .. . ... : ... .. . ...
ROW 16 : E-2 00 7 ... ... ... : ... .. . ... ... ... : ... .. . ... : ... .. . ... : ... .. . ...
ROW 17 : G-2 00 7 ... ... ... : ... .. . ... ... ... : ... .. . ... : ... .. . ... : ... .. . ...
ROW 18 : ... .. . A00 ... ... : ... .. . ... ... ... : ... .. . ... : ... .. . ... : ... .. . ...
ROW 19 : ... .. . ... ... ... : ... .. . ... ... ... : ... .. . ... : ... .. . ... : ... .. . ...
ROW 1A : ... .. . A01 ... ... : ... .. . ... ... ... : ... .. . ... : ... .. . ... : ... .. . ...
ROW 1B : ... .. . ... ... ... : ... .. . ... ... ... : ... .. . ... : ... .. . ... : ... .. . ...
ROW 1C : C-2 00 7 A04 ... ... : ... .. . ... ... ... : ... .. . ... : ... .. . ... : ... .. . ...
ROW 1D : ... .. . A00 ... ... : ... .. . ... ... ... : ... .. . ... : ... .. . ... : ... .. . ...
ROW 1E : ... .. . A01 ... ... : ... .. . ... ... ... : ... .. . ... : ... .. . ... : ... .. . ...
ROW 1F : ... .. . ... ... B01 : ... .. . ... ... ... : ... .. . ... : ... .. . ... : ... .. . ...
ROW 20 : ... .. . ... ... ... : ... .. . ... ... ... : ... .. . ... : ... .. . ... : ... .. . ...
ROW 21 : ... .. . ... ... ... : ... .. . ... ... ... : ... .. . ... : ... .. . ... : ... .. . ...
ROW 22 : ... .. . ... ... ... : ... .. . ... ... ... : ... .. . ... : ... .. . ... : ... .. . ...
ROW 23 : ... .. . ... ... ... : ... .. . ... ... ... : ... .. . ... : ... .. . ... : ... .. . ...
ROW 24 : ... .. . ... ... ... : ... .. . ... ... ... : ... .. . ... : ... .. . ... : ... .. . ...
ROW 25 : ... .. . ... ... ... : ... .. . ... ... ... : ... .. . ... : ... .. . ... : ... .. . ...
ROW 26 : ... .. . ... ... ... : ... .. . ... ... ... : ... .. . ... : ... .. . ... : ... .. . ...
ROW 27 : ... .. . ... ... ... : ... .. . ... ... ... : ... .. . ... : ... .. . ... : ... .. . ...
ROW 28 : ... .. . ... ... ... : ... .. . ... ... ... : ... .. . ... : ... .. . ... : ... .. . ...
ROW 29 : ... .. . ... ... ... : ... .. . ... ... ... : ... .. . ... : ... .. . ... : ... .. . ...
ROW 2A : ... .. . ... ... ... : ... .. . ... ... ... : ... .. . ... : ... .. . ... : ... .. . ...
ROW 2B : ... .. . ... ... ... : ... .. . ... ... ... : ... .. . ... : ... .. . ... : ... .. . ...
ROW 2C : ... .. . ... ... ... : ... .. . ... ... ... : ... .. . ... : ... .. . ... : ... .. . ...
ROW 2D : ... .. . ... ... ... : ... .. . ... ... ... : ... .. . ... : ... .. . ... : ... .. . ...
ROW 2E : ... .. . ... ... ... : ... .. . ... ... ... : ... .. . ... : ... .. . ... : ... .. . ...
ROW 2F : ... .. . ... ... ... : ... .. . ... ... ... : ... .. . ... : ... .. . ... : ... .. . ...
ROW 30 : ... .. . ... ... ... : ... .. . ... ... ... : ... .. . ... : ... .. . ... : ... .. . ...
ROW 31 : ... .. . ... ... ... : ... .. . ... ... ... : ... .. . ... : ... .. . ... : ... .. . ...
ROW 32 : ... .. . ... ... ... : ... .. . ... ... ... : ... .. . ... : ... .. . ... : ... .. . ...
ROW 33 : ... .. . ... ... ... : ... .. . ... ... ... : ... .. . ... : ... .. . ... : ... .. . ...
ROW 34 : ... .. . ... ... ... : ... .. . ... ... ... : ... .. . ... : ... .. . ... : ... .. . ...
ROW 35 : ... .. . ... ... ... : ... .. . ... ... ... : ... .. . ... : ... .. . ... : ... .. . ...
ROW 36 : ... .. . ... ... ... : ... .. . ... ... ... : ... .. . ... : ... .. . ... : ... .. . ...
ROW 37 : ... .. . ... ... ... : ... .. . ... ... ... : ... .. . ... : ... .. . ... : ... .. . ...
ROW 38 : ... .. . ... ... ... : ... .. . ... ... ... : ... .. . ... : ... .. . ... : ... .. . ...
ROW 39 : ... .. . ... ... ... : ... .. . ... ... ... : ... .. . ... : ... .. . ... : ... .. . ...
ROW 3A : ... .. . ... ... ... : ... .. . ... ... ... : ... .. . ... : ... .. . ... : ... .. . ...
ROW 3B : ... .. . ... ... ... : ... .. . ... ... ... : ... .. . ... : ... .. . ... : ... .. . ...
ROW 3C : ... .. . ... ... ... : ... .. . ... ... ... : ... .. . ... : ... .. . ... : ... .. . ...
ROW 3D : ... .. . ... ... ... : ... .. . ... ... ... : ... .. . ... : ... .. . ... : ... .. . ...
ROW 3E : ... .. . ... ... ... : ... .. . ... ... ... : ... .. . ... : ... .. . ... : ... .. . ...
ROW 3F : ... .. . ... ... ... : ... .. . ... ... ... : ... .. . ... : ... .. . ... : ... .. . ...

TRACK  64   6 150 "Dhalsim"
COLUMNS : 2 2 1 1 1

ORDER 00 : 00 00 00 00 00
ORDER 01 : 01 00 00 01 00
ORDER 02 : 02 01 01 02 00
ORDER 03 : 03 02 02 03 00
ORDER 04 : 04 03 00 04 00
ORDER 05 : 05 04 00 04 00

PATTERN 00
ROW 00 : A-2 00 8 A02 V00 : A-2 00 4 P7F V01 : A-2 00 . ... : 1-# 00 B A0C : ... .. . Z20
ROW 01 : ... .. . ... ... : ... .. . 400 ... : ... .. . S03 : --- .. . ... : ... .. . ...
ROW 02 : ... .. . A01 ... : ... .. 3 ... ... : E-3 00 . ... : 9-# 00 7 A0A : ... .. . ...
ROW 03 : ... .. . ... ... : ... .. . ... ... : ... .. . S03 : --- .. . ... : ... .. . ...
ROW 04 : C#3 00 8 A02 ... : ... .. . 461 ... : ... .. . ... : ... .. . ... : ... .. . ...
ROW 05 : ... .. . ... ... : ... .. . ... ... : ... .. . ... : ... .. . ... : ... .. . ...
ROW 06 : E-3 00 8 ... ... : ... .. . ... P7E : E-3 00 . ... : 1-# 00 B A0C : ... .. . ...
ROW 07 : ... .. . ... ... : ... .. . ... ... : ... .. . S03 : --- .. . ... : ... .. . ...
ROW 08 : D-3 00 8 ... ... : ... .. . ... P7F : A-2 00 . ... : 1-# 00 B A0C : ... .. . ...
ROW 09 : ... .. . ... ... : ... .. . ... ... : ... .. . S03 : --- .. . ... : ... .. . ...
ROW 0A : ... .. . A01 ... : ... .. 2 ... ... : E-2 00 . ... : 9-# 00 7 A0A : ... .. . ...
ROW 0B : ... .. . ... ... : ... .. . ... ... : ... .. . S03 : --- .. . ... : ... .. . ...
ROW 0C : ... .. . ... 474 : F#2 00 4 400 ... : ... .. . ... : 9-# 00 7 A0A : ... .. . ...
ROW 0D : ... .. . ... ... : ... .. . ... ... : ... .. . ... : --- .. . ... : ... .. . ...
ROW 0E : ... .. . ... ... : ... .. 3 ... ... : E-2 00 . ... : 7-# 00 6 A05 : ... .. . ...
ROW 0F : ... .. . ... ... : ... .. 2 ... ... : ... .. . S03 : ... .. . A02 : ... .. . ...
ROW 10 : --- .. . ... ... : A-2 00 4 ... ... : A-2 00 . ... : 1-# 00 B A0C : ... .. . ...
ROW 11 : ... .. . ... ... : ... .. . ... ... : ... .. . S03 : --- .. . ... : ... .. . ...
ROW 12 : A-2 00 8 A02 400 : ... .. 3 ... ... : E-3 00 . ... : 9-# 00 7 A0A : ... .. . ...
ROW 13 : ... .. . ... ... : ... .. . ... ... : ... .. . S03 : --- .. . ... : ... .. . ...
ROW 14 : ... .. . A01 ... : ... .. . 461 P7E : ... .. . ... : ... .. . ... : ... .. . ...
ROW 15 : ... .. . ... ... : ... .. . ... ... : ... .. . ... : ... .. . ... : ... .. . ...
ROW 16 : A-2 00 8 A02 ... : ... .. . ... ... : E-3 00 . ... : 1-# 00 B A0C : ... .. . ...
ROW 17 : ... .. . ... ... : ... .. . ... ... : ... .. . S03 : --- .. . ... : ... .. . ...
ROW 18 : E-2 00 8 ... ... : ... .. . ... P7F : A-2 00 . ... : 1-# 00 B A0C : ... .. . ...
ROW 19 : ... .. . ... ... : ... .. . ... ... : ... .. . S03 : --- .. . ... : ... .. . ...
ROW 1A : F#2 00 8 ... ... : ... .. 2 ... ... : E-2 00 . ... : 9-# 00 7 A0A : ... .. . ...
ROW 1B : ... .. . ... ... : ... .. . ... ... : ... .. . S03 : --- .. . ... : ... .. . ...
ROW 1C : A-2 00 8 ... ... : ... .. . ... ... : ... .. . ... : 9-# 00 7 A0A : ... .. . ...
ROW 1D : ... .. . ... ... : ... .. . ... ... : ... .. . ... : --- .. . ... : ... .. . ...
ROW 1E : C#3 00 8 ... ... : ... .. 1 ... ... : E-2 00 . ... : 7-# 00 6 A05 : ... .. . ...
ROW 1F : ... .. . ... ... : ... .. . ... ... : ... .. . S03 : ... .. . A02 : ... .. . ...
ROW 20 : B-2 00 8 ... ... : A-2 00 4 400 ... : A-2 00 . ... : 1-# 00 B A0C : ... .. . ...
ROW 21 : ... .. . ... ... : ... .. . ... ... : ... .. . S03 : --- .. . ... : ... .. . ...
ROW 22 : C#3 00 8 ... ... : ... .. 3 ... ... : E-3 00 . ... : 9-# 00 7 A0A : ... .. . ...
ROW 23 : ... .. . ... ... : ... .. . ... ... : ... .. . S03 : --- .. . ... : ... .. . ...
ROW 24 : B-2 00 8 ... ... : ... .. . 461 ... : ... .. . ... : ... .. . ... : ... .. . ...
ROW 25 : ... .. . ... ... : ... .. . ... ... : ... .. . ... : ... .. . ... : ... .. . ...
ROW 26 : ... .. . A01 ... : ... .. . ... ... : E-3 00 . ... : 1-# 00 B A0C : ... .. . ...
ROW 27 : ... .. . ... ... : ... .. . ... ... : ... .. . S03 : --- .. . ... : ... .. . ...
ROW 28 : ... .. . ... 474 : ... .. . ... ... : A-2 00 . ... : 1-# 00 B A0C : ... .. . ...
ROW 29 : ... .. . ... ... : ... .. . ... ... : ... .. . S03 : --- .. . ... : ... .. . ...
ROW 2A : ... .. . ... ... : ... .. 2 ... ... : E-2 00 . ... : 9-# 00 7 A0A : ... .. . ...
ROW 2B : ... .. . ... ... : ... .. . ... ... : ... .. . S03 : --- .. . ... : ... .. . ...
ROW 2C : A-2 00 8 A02 400 : F#2 00 4 400 ... : ... .. . ... : 9-# 00 7 A0A : ... .. . ...
ROW 2D : ... .. . ... ... : ... .. . ... ... : ... .. . ... : --- .. . ... : ... .. . ...
ROW 2E : ... .. . A01 ... : ... .. 3 ... ... : E-2 00 . ... : 7-# 00 6 A05 : ... .. . ...
ROW 2F : ... .. . ... ... : ... .. 2 ... ... : ... .. . S03 : ... .. . A02 : ... .. . ...
ROW 30 : A-2 00 8 A02 ... : A-2 00 4 ... ... : A-2 00 . ... : 1-# 00 B A0C : ... .. . ...
ROW 31 : ... .. . ... ... : ... .. . ... ... : ... .. . S03 : --- .. . ... : ... .. . ...
ROW 32 : E-2 00 8 ... ... : ... .. 3 ... ... : E-3 00 . ... : 9-# 00 7 A0A : ... .. . ...
ROW 33 : ... .. . ... ... : ... .. . ... ... : ... .. . S03 : --- .. . ... : ... .. . ...
ROW 34 : F#2 00 8 ... ... : ... .. . 461 ... : ... .. . ... : ... .. . ... : ... .. . ...
ROW 35 : ... .. . ... ... : ... .. . ... ... : ... .. . ... : ... .. . ... : ... .. . ...
ROW 36 : A-2 00 8 ... ... : ... .. . ... P7E : E-3 00 . ... : 1-# 00 B A0C : ... .. . ...
ROW 37 : ... .. . ... ... : ... .. . ... ... : ... .. . S03 : --- .. . ... : ... .. . ...
ROW 38 : B-2 00 8 ... ... : ... .. . ... P7F : A-2 00 . ... : 1-# 00 B A0C : ... .. . ...
ROW 39 : ... .. . ... ... : ... .. . ... ... : ... .. . S03 : --- .. . ... : ... .. . ...
ROW 3A : C#3 00 8 ... ... : ... .. 2 ... ... : E-2 00 . ... : 9-# 00 7 A0A : ... .. . ...
ROW 3B : ... .. . ... ... : ... .. . ... ... : ... .. . S03 : --- .. . ... : ... .. . ...
ROW 3C : B-2 00 8 A02 ... : ... .. . ... ... : ... .. . ... : 9-# 00 7 A0A : ... .. . ...
ROW 3D : ... .. . ... ... : ... .. . ... ... : ... .. . ... : --- .. . ... : ... .. . ...
ROW 3E : ... .. . A01 ... : ... .. 1 ... ... : E-2 00 . ... : 7-# 00 6 A05 : ... .. . ...
ROW 3F : ... .. . ... ... : ... .. . G05 P80 : ... .. . S03 : ... .. . A02 : ... .. . ...

PATTERN 01
ROW 00 : A-2 00 8 A02 ... : A#3 00 3 V02 461 : A#2 00 . ... : 1-# 00 B A0C : ... .. . ...
ROW 01 : ... .. . ... ... : ... .. 4 ... ... : ... .. . S03 : --- .. . ... : ... .. . ...
ROW 02 : B-2 00 8 ... ... : ... .. 3 ... ... : F-3 00 . ... : 9-# 00 7 A0A : ... .. . ...
ROW 03 : ... .. . ... ... : ... .. . S04 ... : ... .. . S03 : --- .. . ... : ... .. . ...
ROW 04 : C#3 00 8 ... ... : D-4 00 3 ... ... : ... .. . ... : ... .. . ... : ... .. . ...
ROW 05 : ... .. . ... ... : ... .. 4 S04 ... : ... .. . ... : ... .. . ... : ... .. . ...
ROW 06 : A-2 00 8 ... ... : F-4 00 3 ... ... : F-3 00 . ... : 1-# 00 B A0C : ... .. . ...
ROW 07 : ... .. . ... ... : ... .. 4 S04 ... : ... .. . S03 : --- .. . ... : ... .. . ...
ROW 08 : E-3 00 8 ... ... : D#4 00 3 ... ... : A#2 00 . ... : 1-# 00 B A0C : ... .. . ...
ROW 09 : ... .. . ... ... : ... .. 4 ... ... : ... .. . S03 : --- .. . ... : ... .. . ...
ROW 0A : ... .. . A01 ... : ... .. 3 ... ... : F-2 00 . ... : 9-# 00 7 A0A : ... .. . ...
ROW 0B : ... .. . ... ... : ... .. . ... ... : ... .. . S03 : --- .. . ... : ... .. . ...
ROW 0C : ... .. . ... 474 : ... .. . ... 462 : ... .. . ... : 9-# 00 7 A0A : ... .. . ...
ROW 0D : ... .. . ... ... : ... .. . ... ... : ... .. . ... : --- .. . ... : ... .. . ...
ROW 0E : ... .. . ... ... : ... .. . ... ... : F-2 00 . ... : 7-# 00 6 A05 : ... .. . ...
ROW 0F : ... .. . ... ... : ... .. . ... ... : ... .. . S03 : ... .. . A02 : ... .. . ...
ROW 10 : --- .. . ... ... : ... .. 2 ... ... : A#2 00 . ... : 1-# 00 B A0C : ... .. . ...
ROW 11 : ... .. . ... ... : ... .. . S04 ... : ... .. . S03 : --- .. . ... : ... .. . ...
ROW 12 : ... .. . ... ... : A#3 00 3 ... 461 : F-3 00 . ... : 9-# 00 7 A0A : ... .. . ...
ROW 13 : ... .. . ... ... : ... .. 4 ... ... : ... .. . S03 : --- .. . ... : ... .. . ...
ROW 14 : D-3 00 8 A02 400 : ... .. 3 ... ... : ... .. . ... : ... .. . ... : ... .. . ...
ROW 15 : ... .. . ... ... : ... .. . S04 ... : ... .. . ... : ... .. . ... : ... .. . ...
ROW 16 : E-3 00 8 ... ... : A#3 00 3 ... ... : F-3 00 . ... : 1-# 00 B A0C : ... .. . ...
ROW 17 : D-3 00 8 G06 ... : ... .. 4 S04 ... : ... .. . S03 : --- .. . ... : ... .. . ...
ROW 18 : E-3 00 8 G06 ... : F-3 00 3 ... ... : A#2 00 . ... : 1-# 00 B A0C : ... .. . ...
ROW 19 : D-3 00 8 G03 ... : ... .. 4 S04 ... : ... .. . S03 : --- .. . ... : ... .. . ...
ROW 1A : ... .. . ... ... : G-3 00 3 ... ... : F-2 00 . ... : 9-# 00 7 A0A : ... .. . ...
ROW 1B : ... .. . ... ... : ... .. 4 S04 ... : ... .. . S03 : --- .. . ... : ... .. . ...
ROW 1C : C#3 00 8 ... ... : A#3 00 3 ... ... : ... .. . ... : 9-# 00 7 A0A : ... .. . ...
ROW 1D : ... .. . ... ... : ... .. 4 S04 ... : ... .. . ... : --- .. . ... : ... .. . ...
ROW 1E : B-2 00 8 ... ... : D-4 00 3 ... S09 : F-2 00 . ... : 7-# 00 6 A05 : ... .. . ...
ROW 1F : ... .. . ... ... : C-4 00 3 G06 ... : ... .. . S03 : ... .. . A02 : ... .. . ...
ROW 20 : A-2 00 8 ... ... : D-4 00 4 G06 ... : A#2 00 . ... : 1-# 00 B A0C : ... .. . ...
ROW 21 : ... .. . ... ... : C-4 00 . G03 ... : ... .. . S03 : --- .. . ... : ... .. . ...
ROW 22 : ... .. . A01 ... : ... .. 3 ... ... : F-3 00 . ... : 9-# 00 7 A0A : ... .. . ...
ROW 23 : ... .. . ... ... : ... .. . S04 ... : ... .. . S03 : --- .. . ... : ... .. . ...
ROW 24 : C#3 00 8 A02 ... : A#3 00 3 ... ... : ... .. . ... : ... .. . ... : ... .. . ...
ROW 25 : ... .. . ... ... : ... .. 4 ... ... : ... .. . ... : ... .. . ... : ... .. . ...
ROW 26 : E-3 00 8 ... ... : ... .. 3 ... ... : F-3 00 . ... : 1-# 00 B A0C : ... .. . ...
ROW 27 : ... .. . ... ... : ... .. . S04 ... : ... .. . S03 : --- .. . ... : ... .. . ...
ROW 28 : D-3 00 8 ... ... : A#4 00 3 ... ... : A#2 00 . ... : 1-# 00 B A0C : ... .. . ...
ROW 29 : ... .. . ... ... : ... .. 4 S04 ... : ... .. . S03 : --- .. . ... : ... .. . ...
ROW 2A : E-3 00 8 ... ... : F-4 00 3 ... ... : F-2 00 . ... : 9-# 00 7 A0A : ... .. . ...
ROW 2B : ... .. . ... ... : ... .. 4 S04 ... : ... .. . S03 : --- .. . ... : ... .. . ...
ROW 2C : D-3 00 8 ... ... : D#4 00 3 ... ... : ... .. . ... : 9-# 00 7 A0A : ... .. . ...
ROW 2D : ... .. . ... ... : ... .. 4 S04 ... : ... .. . ... : --- .. . ... : ... .. . ...
ROW 2E : ... .. . A01 ... : D-4 00 3 ... S09 : F-2 00 . ... : 7-# 00 6 A05 : ... .. . ...
ROW 2F : ... .. . ... ... : C-4 00 3 G06 ... : ... .. . S03 : ... .. . A02 : ... .. . ...
ROW 30 : A-3 00 8 A02 ... : D-4 00 4 G06 ... : A#2 00 . ... : 1-# 00 B A0C : ... .. . ...
ROW 31 : ... .. . ... ... : C-4 00 . G03 ... : ... .. . S03 : --- .. . ... : ... .. . ...
ROW 32 : E-3 00 8 ... ... : ... .. 3 ... ... : F-3 00 . ... : 9-# 00 7 A0A : ... .. . ...
ROW 33 : ... .. . ... ... : ... .. . S04 ... : ... .. . S03 : --- .. . ... : ... .. . ...
ROW 34 : F#3 00 8 ... ... : A#3 00 3 ... ... : ... .. . ... : 6-# 00 8 A06 : ... .. . ...
ROW 35 : ... .. . ... ... : ... .. 4 ... ... : ... .. . ... : ... .. . A02 : ... .. . ...
ROW 36 : A-3 00 8 ... ... : ... .. 3 ... ... : F-3 00 . ... : 7-# 00 6 A05 : ... .. . ...
ROW 37 : D-3 00 8 G06 ... : ... .. . S04 ... : ... .. . S03 : ... .. . A02 : ... .. . ...
ROW 38 : E-3 00 8 G06 ... : F-3 00 3 ... ... : A#2 00 . ... : 1-# 00 B A0C : ... .. . ...
ROW 39 : D-3 00 8 G03 ... : ... .. 4 S04 ... : ... .. . S03 : --- .. . ... : ... .. . ...
ROW 3A : ... .. . ... ... : G-3 00 3 ... ... : F-2 00 . ... : 6-# 00 8 A06 : ... .. . ...
ROW 3B : ... .. . ... ... : ... .. 4 S04 ... : ... .. . S03 : ... .. . A02 : ... .. . ...
ROW 3C : C#3 00 8 ... ... : A#3 00 3 ... ... : ... .. . ... : 9-# 00 7 A0A : ... .. . ...
ROW 3D : ... .. . ... ... : ... .. 4 ... ... : ... .. . ... : --- .. . ... : ... .. . ...
ROW 3E : B-2 00 8 ... ... : ... .. 3 ... ... : F-2 00 . ... : 7-# 00 6 A05 : ... .. . ...
ROW 3F : ... .. . ... ... : ... .. . S04 ... : ... .. . S03 : ... .. . A02 : ... .. . ...

PATTERN 02
ROW 00 : F-2 00 8 A02 ... : B-3 00 3 V02 461 : B-2 00 . ... : 1-# 00 B A0C : ... .. . ...
ROW 01 : ... .. . ... ... : ... .. 4 ... ... : ... .. . S03 : --- .. . ... : ... .. . ...
ROW 02 : G-2 00 8 ... ... : ... .. 3 ... ... : F#3 00 . ... : 9-# 00 7 A0A : ... .. . ...
ROW 03 : ... .. . ... ... : ... .. . S04 ... : ... .. . S03 : 1-# 00 B A0C : ... .. . ...
ROW 04 : A#2 00 8 ... ... : D#4 00 3 ... ... : ... .. . ... : --- .. . ... : ... .. . ...
ROW 05 : ... .. . ... ... : ... .. 4 S04 ... : ... .. . ... : 7-# 00 6 A05 : ... .. . ...
ROW 06 : D-3 00 8 ... ... : F#4 00 3 ... ... : F#3 00 . ... : 1-# 00 B A0C : ... .. . ...
ROW 07 : ... .. . ... ... : ... .. 4 S04 ... : ... .. . S03 : --- .. . ... : ... .. . ...
ROW 08 : C-3 00 8 ... ... : E-4 00 3 ... ... : B-2 00 . ... : 1-# 00 B A0C : ... .. . ...
ROW 09 : ... .. . ... ... : ... .. 4 ... ... : ... .. . S03 : --- .. . ... : ... .. . ...
ROW 0A : ... .. . A01 ... : ... .. 3 ... ... : F#2 00 . ... : 9-# 00 7 A0A : ... .. . ...
ROW 0B : ... .. . ... ... : ... .. . ... ... : ... .. . S03 : --- .. . ... : ... .. . ...
ROW 0C : A#2 00 8 A02 ... : ... .. . ... 462 : ... .. . ... : 9-# 00 7 A0A : ... .. . ...
ROW 0D : ... .. . ... ... : ... .. . ... ... : ... .. . ... : --- .. . ... : ... .. . ...
ROW 0E : C-3 00 8 ... ... : ... .. . ... ... : F#2 00 . ... : ... .. . ... : ... .. . ...
ROW 0F : ... .. . ... ... : ... .. . ... ... : ... .. . S03 : ... .. . ... : ... .. . ...
ROW 10 : D-3 00 8 ... ... : ... .. 2 ... ... : B-2 00 . ... : 1-# 00 B A0C : ... .. . ...
ROW 11 : ... .. . ... ... : ... .. . S04 ... : ... .. . S03 : --- .. . ... : ... .. . ...
ROW 12 : ... .. . A01 ... : B-3 00 3 ... 461 : F#3 00 . ... : 9-# 00 7 A0A : ... .. . ...
ROW 13 : ... .. . ... ... : ... .. 4 ... ... : ... .. . S03 : 1-# 00 B A0C : ... .. . ...
ROW 14 : A#2 00 8 A02 ... : ... .. 3 ... ... : ... .. . ... : --- .. . ... : ... .. . ...
ROW 15 : ... .. . ... ... : ... .. . S04 ... : ... .. . ... : 7-# 00 6 A05 : ... .. . ...
ROW 16 : ... .. . A01 ... : B-3 00 3 ... ... : F#3 00 . ... : 1-# 00 B A0C : ... .. . ...
ROW 17 : ... .. . ... ... : ... .. 4 S04 ... : ... .. . S03 : --- .. . ... : ... .. . ...
ROW 18 : A#3 00 8 A02 ... : F#3 00 3 ... ... : B-2 00 . ... : 1-# 00 B A0C : ... .. . ...
ROW 19 : ... .. . ... ... : ... .. 4 S04 ... : ... .. . S03 : --- .. . ... : ... .. . ...
ROW 1A : F-3 00 8 ... ... : G#3 00 3 ... ... : F#2 00 . ... : 9-# 00 7 A0A : ... .. . ...
ROW 1B : ... .. . ... ... : ... .. 4 S04 ... : ... .. . S03 : --- .. . ... : ... .. . ...
ROW 1C : D#3 00 8 ... ... : B-3 00 3 ... ... : ... .. . ... : 9-# 00 7 A0A : ... .. . ...
ROW 1D : ... .. . ... ... : ... .. 4 S04 ... : ... .. . ... : --- .. . ... : ... .. . ...
ROW 1E : D-3 00 8 ... ... : D#4 00 3 ... S09 : F#2 00 . ... : ... .. . ... : ... .. . ...
ROW 1F : ... .. . ... ... : C#4 00 3 G06 ... : ... .. . S03 : ... .. . ... : ... .. . ...
ROW 20 : C-3 00 6 ... X00 : D#4 00 4 G06 ... : B-2 00 . ... : 1-# 00 B A0C : ... .. . ...
ROW 21 : ... .. . ... ... : C#4 00 . G03 ... : ... .. . S03 : --- .. . ... : ... .. . ...
ROW 22 : A#2 00 6 ... X00 : ... .. 3 ... ... : F#3 00 . ... : 9-# 00 7 A0A : ... .. . ...
ROW 23 : ... .. . ... ... : ... .. . S04 ... : ... .. . S03 : 1-# 00 B A0C : ... .. . ...
ROW 24 : C-3 00 8 A02 ... : B-3 00 3 ... ... : ... .. . ... : --- .. . ... : ... .. . ...
ROW 25 : ... .. . ... ... : ... .. 4 ... ... : ... .. . ... : 7-# 00 6 A05 : ... .. . ...
ROW 26 : D-3 00 8 ... ... : ... .. 3 ... ... : F#3 00 . ... : 1-# 00 B A0C : ... .. . ...
ROW 27 : C-3 00 8 G06 ... : ... .. . S04 ... : ... .. . S03 : --- .. . ... : ... .. . ...
ROW 28 : D-3 00 8 G06 ... : B-4 00 3 ... ... : B-2 00 . ... : 1-# 00 B A0C : ... .. . ...
ROW 29 : C-3 00 8 G03 ... : ... .. 4 S04 ... : ... .. . S03 : --- .. . ... : ... .. . ...
ROW 2A : ... .. . ... ... : F#4 00 3 ... ... : F#2 00 . ... : 9-# 00 7 A0A : ... .. . ...
ROW 2B : ... .. . ... ... : ... .. 4 S04 ... : ... .. . S03 : --- .. . ... : ... .. . ...
ROW 2C : A#2 00 8 ... ... : E-4 00 3 ... ... : ... .. . ... : 9-# 00 7 A0A : ... .. . ...
ROW 2D : ... .. . ... ... : ... .. 4 S04 ... : ... .. . ... : --- .. . ... : ... .. . ...
ROW 2E : ... .. . A01 ... : D#4 00 3 ... S09 : F#2 00 . ... : ... .. . ... : ... .. . ...
ROW 2F : ... .. . ... ... : C#4 00 3 G06 ... : ... .. . S03 : ... .. . ... : ... .. . ...
ROW 30 : A#3 00 8 A02 ... : D#4 00 4 G06 ... : B-2 00 . ... : 1-# 00 B A0C : ... .. . ...
ROW 31 : ... .. . ... ... : C#4 00 . G03 ... : ... .. . S03 : --- .. . ... : ... .. . ...
ROW 32 : F-3 00 8 ... ... : ... .. 3 ... ... : F#3 00 . ... : 9-# 00 7 A0A : ... .. . ...
ROW 33 : D#3 00 8 G06 ... : ... .. . S04 ... : ... .. . S03 : 1-# 00 B A0C : ... .. . ...
ROW 34 : F-3 00 8 G06 ... : B-3 00 3 ... ... : ... .. . ... : --- .. . ... : ... .. . ...
ROW 35 : D#3 00 8 G03 ... : ... .. 4 ... ... : ... .. . ... : 7-# 00 6 A05 : ... .. . ...
ROW 36 : D-3 00 8 ... ... : ... .. 3 ... ... : F#3 00 . ... : 1-# 00 B A0C : ... .. . ...
ROW 37 : ... .. . ... ... : ... .. . S04 ... : ... .. . S03 : --- .. . ... : ... .. . ...
ROW 38 : C-3 00 8 ... ... : F#3 00 3 ... ... : B-2 00 . ... : 1-# 00 B A0C : ... .. . ...
ROW 39 : ... .. . ... ... : ... .. 4 S04 ... : ... .. . S03 : --- .. . ... : ... .. . ...
ROW 3A : A#2 00 8 ... ... : G#3 00 3 ... ... : F#2 00 . ... : 9-# 00 7 A0A : ... .. . ...
ROW 3B : ... .. 4 ... ... : ... .. 4 S04 ... : ... .. . S03 : --- .. . ... : ... .. . ...
ROW 3C : C-3 00 8 ... ... : B-3 00 3 ... ... : ... .. . ... : 9-# 00 7 A0A : ... .. . ...
ROW 3D : ... .. . ... ... : ... .. 4 ... ... : ... .. . ... : --- .. . ... : ... .. . ...
ROW 3E : A#2 00 8 ... ... : F#3 00 3 ... ... : F#2 00 . ... : ... .. . ... : ... .. . ...
ROW 3F : ... .. 4 ... ... : ... .. . S04 ... : ... .. . S03 : ... .. . ... : ... .. . ...

PATTERN 03
ROW 00 : F#2 00 8 A02 ... : A-3 00 3 V02 461 : ... .. . ... : 1-# 00 B A0C : ... .. . ...
ROW 01 : ... .. . ... ... : ... .. 4 ... ... : ... .. . ... : --- .. . ... : ... .. . ...
ROW 02 : G#2 00 8 ... ... : ... .. 3 ... ... : ... .. . ... : 9-# 00 7 A0A : ... .. . ...
ROW 03 : ... .. . ... ... : ... .. . S04 ... : ... .. . ... : 1-# 00 B A0C : ... .. . ...
ROW 04 : B-2 00 8 ... ... : C#4 00 3 ... ... : ... .. . ... : --- .. . ... : ... .. . ...
ROW 05 : ... .. . ... ... : ... .. 4 S04 ... : ... .. . ... : 7-# 00 6 A05 : ... .. . ...
ROW 06 : D#3 00 8 ... ... : E-4 00 3 ... ... : ... .. . ... : 1-# 00 B A0C : ... .. . ...
ROW 07 : ... .. . ... ... : ... .. 4 S04 ... : ... .. . ... : --- .. . ... : ... .. . ...
ROW 08 : C#3 00 8 ... ... : D-4 00 3 ... ... : ... .. . ... : 1-# 00 B A0C : ... .. . ...
ROW 09 : ... .. . ... ... : ... .. 4 ... ... : ... .. . ... : --- .. . ... : ... .. . ...
ROW 0A : ... .. . A01 ... : ... .. 3 ... ... : ... .. . ... : 9-# 00 7 A0A : ... .. . ...
ROW 0B : ... .. . ... ... : ... .. . ... ... : ... .. . ... : --- .. . ... : ... .. . ...
ROW 0C : B-2 00 8 A02 ... : ... .. . ... 462 : ... .. . ... : 9-# 00 7 A0A : ... .. . ...
ROW 0D : ... .. . ... ... : ... .. . ... ... : ... .. . ... : --- .. . ... : ... .. . ...
ROW 0E : C#3 00 8 ... ... : ... .. . ... ... : ... .. . ... : ... .. . ... : ... .. . ...
ROW 0F : ... .. . ... ... : ... .. . ... ... : ... .. . ... : ... .. . ... : ... .. . ...
ROW 10 : D#3 00 8 ... ... : ... .. 2 ... ... : ... .. . ... : 1-# 00 B A0C : ... .. . ...
ROW 11 : ... .. . ... ... : ... .. . S04 ... : ... .. . ... : --- .. . ... : ... .. . ...
ROW 12 : ... .. . A01 ... : A-3 00 3 ... 461 : ... .. . ... : 9-# 00 7 A0A : ... .. . ...
ROW 13 : ... .. . ... ... : ... .. 4 ... ... : ... .. . ... : 1-# 00 B A0C : ... .. . ...
ROW 14 : B-2 00 8 A02 ... : ... .. 3 ... ... : ... .. . ... : --- .. . ... : ... .. . ...
ROW 15 : ... .. . ... ... : ... .. . S04 ... : ... .. . ... : 7-# 00 6 A05 : ... .. . ...
ROW 16 : ... .. . A01 ... : A-3 00 3 ... ... : ... .. . ... : 1-# 00 B A0C : ... .. . ...
ROW 17 : A#3 00 8 G06 A02 : ... .. 4 S04 ... : ... .. . ... : --- .. . ... : ... .. . ...
ROW 18 : B-3 00 8 G03 ... : E-3 00 3 ... ... : ... .. . ... : 1-# 00 B A0C : ... .. . ...
ROW 19 : ... .. . ... ... : ... .. 4 S04 ... : ... .. . ... : --- .. . ... : ... .. . ...
ROW 1A : F#3 00 8 ... ... : F#3 00 3 ... ... : ... .. . ... : 9-# 00 7 A0A : ... .. . ...
ROW 1B : ... .. . ... ... : ... .. 4 S04 ... : ... .. . ... : --- .. . ... : ... .. . ...
ROW 1C : E-3 00 8 ... ... : A-3 00 3 ... ... : ... .. . ... : 9-# 00 7 A0A : ... .. . ...
ROW 1D : ... .. . ... ... : ... .. 4 S04 ... : ... .. . ... : --- .. . ... : ... .. . ...
ROW 1E : D#3 00 8 ... ... : C#4 00 3 ... ... : ... .. . ... : ... .. . ... : ... .. . ...
ROW 1F : ... .. . ... ... : ... .. 4 S04 ... : ... .. . ... : ... .. . ... : ... .. . ...
ROW 20 : C#3 00 6 ... X00 : B-3 00 3 ... ... : ... .. . ... : 1-# 00 B A0C : ... .. . ...
ROW 21 : ... .. . ... ... : ... .. 4 ... ... : ... .. . ... : --- .. . ... : ... .. . ...
ROW 22 : B-2 00 6 ... X00 : ... .. 3 ... ... : ... .. . ... : 9-# 00 7 A0A : ... .. . ...
ROW 23 : ... .. . ... ... : ... .. . S04 ... : ... .. . ... : 1-# 00 B A0C : ... .. . ...
ROW 24 : C#3 00 8 ... ... : A-3 00 3 ... ... : ... .. . ... : --- .. . ... : ... .. . ...
ROW 25 : ... .. . ... ... : ... .. 4 S04 ... : ... .. . ... : 7-# 00 6 A05 : ... .. . ...
ROW 26 : D#3 00 8 ... ... : B-3 00 3 ... ... : ... .. . ... : 1-# 00 B A0C : ... .. . ...
ROW 27 : C#3 00 8 G06 ... : ... .. 4 S04 ... : ... .. . ... : --- .. . ... : ... .. . ...
ROW 28 : D#3 00 8 G06 ... : C#4 00 3 ... ... : ... .. . ... : 1-# 00 B A0C : ... .. . ...
ROW 29 : C#3 00 8 G03 ... : ... .. 4 ... ... : ... .. . ... : --- .. . ... : ... .. . ...
ROW 2A : ... .. . ... ... : ... .. 3 ... ... : ... .. . ... : 9-# 00 7 A0A : ... .. . ...
ROW 2B : ... .. . ... ... : ... .. . S04 ... : ... .. . ... : --- .. . ... : ... .. . ...
ROW 2C : B-2 00 8 ... ... : A-3 00 3 ... ... : ... .. . ... : 9-# 00 7 A0A : ... .. . ...
ROW 2D : ... .. . ... ... : ... .. 4 ... ... : ... .. . ... : --- .. . ... : ... .. . ...
ROW 2E : ... .. . A01 ... : ... .. 3 ... ... : ... .. . ... : ... .. . ... : ... .. . ...
ROW 2F : ... .. . ... ... : ... .. . ... ... : ... .. . ... : ... .. . ... : ... .. . ...
ROW 30 : B-3 00 8 A02 ... : ... .. . ... 461 : ... .. . ... : 1-# 00 B A0C : ... .. . ...
ROW 31 : ... .. . ... ... : ... .. . ... ... : ... .. . ... : --- .. . ... : ... .. . ...
ROW 32 : F#3 00 8 ... ... : ... .. . ... ... : ... .. . ... : 9-# 00 7 A0A : ... .. . ...
ROW 33 : E-3 00 8 G06 ... : ... .. . ... ... : ... .. . ... : 1-# 00 B A0C : ... .. . ...
ROW 34 : F#3 00 8 G06 ... : ... .. . ... ... : ... .. . ... : --- .. . ... : ... .. . ...
ROW 35 : E-3 00 8 G03 ... : ... .. . ... ... : ... .. . ... : 7-# 00 6 A05 : ... .. . ...
ROW 36 : D#3 00 8 ... ... : ... .. 2 ... ... : ... .. . ... : 1-# 00 B A0C : ... .. . ...
ROW 37 : ... .. . ... ... : ... .. . S04 ... : ... .. . ... : --- .. . ... : ... .. . ...
ROW 38 : C#3 00 8 ... ... : E-3 00 3 ... 461 : ... .. . ... : 1-# 00 B A0C : ... .. . ...
ROW 39 : ... .. . ... ... : ... .. 4 S04 ... : ... .. . ... : --- .. . ... : ... .. . ...
ROW 3A : B-2 00 8 ... ... : F#3 00 3 ... ... : ... .. . ... : 6-# 00 8 A06 : ... .. . ...
ROW 3B : ... .. 4 ... ... : ... .. 4 S04 ... : ... .. . ... : ... .. . A02 : ... .. . ...
ROW 3C : C#3 00 8 ... ... : A-3 00 3 ... ... : ... .. . ... : 9-# 00 7 A0A : ... .. . ...
ROW 3D : ... .. . ... ... : ... .. 4 S04 ... : ... .. . ... : --- .. . ... : ... .. . ...
ROW 3E : B-2 00 8 ... ... : C#4 00 3 ... ... : ... .. . ... : ... .. . ... : ... .. . ...
ROW 3F : ... .. 4 ... ... : ... .. 4 S04 ... : ... .. . ... : ... .. . ... : ... .. . ...

PATTERN 04
ROW 00 : A-2 00 8 A02 V00 : A-3 00 3 V02 461 : ... .. . ... : 1-# 00 B A0C : ... .. . ...
ROW 01 : ... .. . ... ... : ... .. 4 ... ... : ... .. . ... : --- .. . ... : ... .. . ...
ROW 02 : G#2 00 8 ... ... : ... .. 3 ... ... : ... .. . ... : 9-# 00 7 A0A : ... .. . ...
ROW 03 : ... .. . ... ... : ... .. . ... ... : ... .. . ... : 1-# 00 B A0C : ... .. . ...
ROW 04 : A-2 00 8 ... ... : C#4 00 3 ... ... : ... .. . ... : 8-# 00 7 A0A : ... .. . ...
ROW 05 : ... .. . ... ... : ... .. 4 ... ... : ... .. . ... : 8-# 00 7 A0A : ... .. . ...
ROW 06 : C#3 00 8 ... ... : E-4 00 3 ... ... : ... .. . ... : 1-# 00 B A0C : ... .. . ...
ROW 07 : D-3 00 8 G06 ... : ... .. 4 ... ... : ... .. . ... : --- .. . ... : ... .. . ...
ROW 08 : E-3 00 8 G03 ... : D-4 00 3 ... ... : ... .. . ... : 9-# 00 7 A0A : ... .. . ...
ROW 09 : ... .. . ... ... : ... .. 4 ... ... : ... .. . ... : --- .. . ... : ... .. . ...
ROW 0A : ... .. . A01 ... : ... .. 3 ... ... : ... .. . ... : 9-# 00 7 A0A : ... .. . ...
ROW 0B : ... .. . ... ... : ... .. . ... ... : ... .. . ... : --- .. . ... : ... .. . ...
ROW 0C : D-3 00 8 A02 ... : ... .. . ... 462 : ... .. . ... : 8-# 00 7 A0A : ... .. . ...
ROW 0D : ... .. . ... ... : ... .. . ... ... : ... .. . ... : --- .. . ... : ... .. . ...
ROW 0E : C#3 00 8 ... ... : ... .. . ... ... : ... .. . ... : ... .. . ... : ... .. . ...
ROW 0F : ... .. . ... ... : ... .. . ... ... : ... .. . ... : ... .. . ... : ... .. . ...
ROW 10 : D-3 00 8 ... ... : ... .. . ... ... : ... .. . ... : 1-# 00 B A0C : ... .. . ...
ROW 11 : ... .. . ... ... : ... .. . ... ... : ... .. . ... : --- .. . ... : ... .. . ...
ROW 12 : ... .. . A01 ... : A-3 00 3 ... 400 : ... .. . ... : 9-# 00 7 A0A : ... .. . ...
ROW 13 : ... .. . ... ... : ... .. 4 ... ... : ... .. . ... : 1-# 00 B A0C : ... .. . ...
ROW 14 : C#3 00 8 A02 ... : ... .. 3 ... ... : ... .. . ... : 8-# 00 7 A0A : ... .. . ...
ROW 15 : ... .. . ... ... : ... .. . ... ... : ... .. . ... : 8-# 00 7 A0A : ... .. . ...
ROW 16 : B-2 00 8 ... ... : A-3 00 3 ... ... : ... .. . ... : 1-# 00 B A0C : ... .. . ...
ROW 17 : ... .. . ... ... : ... .. 4 ... ... : ... .. . ... : --- .. . ... : ... .. . ...
ROW 18 : C#3 00 8 ... ... : E-3 00 3 ... ... : ... .. . ... : 9-# 00 7 A0A : ... .. . ...
ROW 19 : ... .. . ... ... : ... .. 4 ... ... : ... .. . ... : --- .. . ... : ... .. . ...
ROW 1A : A-2 00 8 ... ... : F#3 00 3 ... ... : ... .. . ... : 9-# 00 7 A0A : ... .. . ...
ROW 1B : ... .. . ... ... : ... .. 4 ... ... : ... .. . ... : --- .. . ... : ... .. . ...
ROW 1C : B-2 00 8 ... ... : A-3 00 3 ... ... : ... .. . ... : 8-# 00 7 A0A : ... .. . ...
ROW 1D : ... .. . ... ... : ... .. 4 ... ... : ... .. . ... : --- .. . ... : ... .. . ...
ROW 1E : C#3 00 8 ... ... : C#4 00 3 ... ... : ... .. . ... : ... .. . ... : ... .. . ...
ROW 1F : G#2 00 8 G06 ... : ... .. 4 ... ... : ... .. . ... : ... .. . ... : ... .. . ...
ROW 20 : A-2 00 8 G03 ... : A-4 00 3 ... ... : ... .. . ... : 1-# 00 B A0C : ... .. . ...
ROW 21 : ... .. . ... ... : ... .. 4 ... ... : ... .. . ... : --- .. . ... : ... .. . ...
ROW 22 : G#2 00 8 ... ... : E-4 00 3 ... ... : ... .. . ... : 9-# 00 7 A0A : ... .. . ...
ROW 23 : ... .. . ... ... : ... .. 4 ... ... : ... .. . ... : 1-# 00 B A0C : ... .. . ...
ROW 24 : A-2 00 8 ... ... : D-4 00 3 ... ... : ... .. . ... : 8-# 00 7 A0A : ... .. . ...
ROW 25 : ... .. . ... ... : ... .. 4 ... ... : ... .. . ... : 8-# 00 7 A0A : ... .. . ...
ROW 26 : C#3 00 8 ... ... : C#4 00 3 ... ... : ... .. . ... : 1-# 00 B A0C : ... .. . ...
ROW 27 : ... .. . ... ... : B-3 00 4 G06 ... : ... .. . ... : --- .. . ... : ... .. . ...
ROW 28 : E-3 00 8 ... ... : C#4 00 3 G06 ... : ... .. . ... : 9-# 00 7 A0A : ... .. . ...
ROW 29 : ... .. . ... ... : B-3 00 4 G03 ... : ... .. . ... : --- .. . ... : ... .. . ...
ROW 2A : ... .. . A01 ... : ... .. 3 ... ... : ... .. . ... : 9-# 00 7 A0A : ... .. . ...
ROW 2B : ... .. . ... ... : ... .. . ... ... : ... .. . ... : --- .. . ... : ... .. . ...
ROW 2C : D-3 00 8 A02 ... : A-3 00 3 ... ... : ... .. . ... : 8-# 00 7 A0A : ... .. . ...
ROW 2D : ... .. . ... ... : ... .. 4 ... ... : ... .. . ... : --- .. . ... : ... .. . ...
ROW 2E : C#3 00 8 ... ... : ... .. 3 ... ... : ... .. . ... : ... .. . ... : ... .. . ...
ROW 2F : ... .. . ... ... : ... .. . ... ... : ... .. . ... : ... .. . ... : ... .. . ...
ROW 30 : D-3 00 8 ... ... : --- .. . ... ... : ... .. . ... : 1-# 00 B A0C : ... .. . ...
ROW 31 : ... .. . ... ... : G#4 00 3 G06 ... : ... .. . ... : --- .. . ... : ... .. . ...
ROW 32 : ... .. . A01 ... : A-4 00 3 G03 ... : ... .. . ... : 9-# 00 7 A0A : ... .. . ...
ROW 33 : ... .. . ... ... : --- .. . ... ... : ... .. . ... : 1-# 00 B A0C : ... .. . ...
ROW 34 : C#3 00 8 A02 ... : ... .. . ... ... : ... .. . ... : 8-# 00 7 A0A : ... .. . ...
ROW 35 : ... .. . ... ... : G#4 00 3 G06 ... : ... .. . ... : 8-# 00 7 A0A : ... .. . ...
ROW 36 : B-2 00 8 ... ... : A-4 00 3 G03 ... : ... .. . ... : 1-# 00 B A0C : ... .. . ...
ROW 37 : ... .. . ... ... : --- .. . ... ... : ... .. . ... : --- .. . ... : ... .. . ...
ROW 38 : C#3 00 8 ... ... : ... .. . ... ... : ... .. . ... : 9-# 00 7 A0A : ... .. . ...
ROW 39 : ... .. . ... ... : G#4 00 3 G06 ... : ... .. . ... : --- .. . ... : ... .. . ...
ROW 3A : B-2 00 8 ... ... : A-4 00 3 G03 ... : ... .. . ... : 9-# 00 7 A0A : ... .. . ...
ROW 3B : ... .. . ... ... : --- .. . ... ... : ... .. . ... : --- .. . ... : ... .. . ...
ROW 3C : A-2 00 8 ... ... : ... .. . ... ... : ... .. . ... : 8-# 00 7 A0A : ... .. . ...
ROW 3D : ... .. . ... ... : G#4 00 3 G06 ... : ... .. . ... : --- .. . ... : ... .. . ...
ROW 3E : ... .. . A01 ... : A-4 00 3 G03 ... : ... .. . ... : ... .. . ... : ... .. . ...
ROW 3F : ... .. . ... ... : --- .. . ... ... : ... .. . ... : ... .. . ... : ... .. . ...

PATTERN 05
ROW 00 : E-2 00 8 A02 V00 : ... .. . ... ... : ... .. . ... : ... .. . ... : ... .. . ...
ROW 01 : ... .. . ... ... : ... .. . ... ... : ... .. . ... : ... .. . ... : ... .. . ...
ROW 02 : F#2 00 8 ... ... : ... .. . ... ... : ... .. . ... : ... .. . ... : ... .. . ...
ROW 03 : ... .. . ... ... : ... .. . ... ... : ... .. . ... : ... .. . ... : ... .. . ...
ROW 04 : A-2 00 8 ... ... : ... .. . ... ... : ... .. . ... : ... .. . ... : ... .. . ...
ROW 05 : ... .. . ... ... : ... .. . ... ... : ... .. . ... : ... .. . ... : ... .. . ...
ROW 06 : C#3 00 8 ... ... : ... .. . ... ... : ... .. . ... : ... .. . ... : ... .. . ...
ROW 07 : ... .. . ... ... : ... .. . ... ... : ... .. . ... : ... .. . ... : ... .. . ...
ROW 08 : B-2 00 8 ... ... : ... .. . ... ... : ... .. . ... : ... .. . ... : ... .. . ...
ROW 09 : ... .. . ... ... : ... .. . ... ... : ... .. . ... : ... .. . ... : ... .. . ...
ROW 0A : ... .. . A01 ... : ... .. . ... ... : ... .. . ... : ... .. . ... : ... .. . ...
ROW 0B : ... .. . ... ... : ... .. . ... ... : ... .. . ... : ... .. . ... : ... .. . ...
ROW 0C : A-2 00 8 A02 ... : ... .. . ... ... : ... .. . ... : ... .. . ... : ... .. . ...
ROW 0D : ... .. . ... ... : ... .. . ... ... : ... .. . ... : ... .. . ... : ... .. . ...
ROW 0E : B-2 00 8 ... ... : ... .. . ... ... : ... .. . ... : ... .. . ... : ... .. . ...
ROW 0F : ... .. . ... ... : ... .. . ... ... : ... .. . ... : ... .. . ... : ... .. . ...
ROW 10 : C#3 00 8 ... ... : ... .. . ... ... : ... .. . ... : ... .. . ... : ... .. . ...
ROW 11 : ... .. . ... ... : ... .. . ... ... : ... .. . ... : ... .. . ... : ... .. . ...
ROW 12 : ... .. . A01 ... : ... .. . ... ... : ... .. . ... : ... .. . ... : ... .. . ...
ROW 13 : ... .. . ... ... : ... .. . ... ... : ... .. . ... : ... .. . ... : ... .. . ...
ROW 14 : A-2 00 8 A02 ... : ... .. . ... ... : ... .. . ... : ... .. . ... : ... .. . ...
ROW 15 : ... .. . ... ... : ... .. . ... ... : ... .. . ... : ... .. . ... : ... .. . ...
ROW 16 : ... .. . A01 ... : ... .. . ... ... : ... .. . ... : ... .. . ... : ... .. . ...
ROW 17 : G#2 00 8 A02 G06 : ... .. . ... ... : ... .. . ... : ... .. . ... : ... .. . ...
ROW 18 : A-3 00 8 ... G03 : ... .. . ... ... : ... .. . ... : ... .. . ... : ... .. . ...
ROW 19 : ... .. . ... ... : ... .. . ... ... : ... .. . ... : ... .. . ... : ... .. . ...
ROW 1A : E-3 00 8 ... ... : ... .. . ... ... : ... .. . ... : ... .. . ... : ... .. . ...
ROW 1B : ... .. . ... ... : ... .. . ... ... : ... .. . ... : ... .. . ... : ... .. . ...
ROW 1C : D-3 00 8 ... ... : ... .. . ... ... : ... .. . ... : ... .. . ... : ... .. . ...
ROW 1D : ... .. . ... ... : ... .. . ... ... : ... .. . ... : ... .. . ... : ... .. . ...
ROW 1E : C#3 00 8 ... ... : ... .. . ... ... : ... .. . ... : ... .. . ... : ... .. . ...
ROW 1F : B-2 00 8 G06 ... : ... .. . ... ... : ... .. . ... : ... .. . ... : ... .. . ...
ROW 20 : C#3 00 8 G06 ... : ... .. . ... ... : ... .. . ... : ... .. . ... : ... .. . ...
ROW 21 : B-2 00 8 G03 ... : ... .. . ... ... : ... .. . ... : ... .. . ... : ... .. . ...
ROW 22 : A-2 00 8 ... S05 : ... .. . ... ... : ... .. . ... : ... .. . ... : ... .. . ...
ROW 23 : A-2 00 8 G06 ... : ... .. . ... ... : ... .. . ... : ... .. . ... : ... .. . ...
ROW 24 : B-2 00 8 G03 ... : ... .. . ... ... : ... .. . ... : ... .. . ... : ... .. . ...
ROW 25 : ... .. . ... ... : ... .. . ... ... : ... .. . ... : ... .. . ... : ... .. . ...
ROW 26 : A-2 00 8 ... S05 : ... .. . ... ... : ... .. . ... : ... .. . ... : ... .. . ...
ROW 27 : A-2 00 8 G06 ... : ... .. . ... ... : ... .. . ... : ... .. . ... : ... .. . ...
ROW 28 : B-2 00 8 G03 ... : ... .. . ... ... : ... .. . ... : ... .. . ... : ... .. . ...
ROW 29 : ... .. . ... ... : ... .. . ... ... : ... .. . ... : ... .. . ... : ... .. . ...
ROW 2A : A-2 00 8 ... S05 : ... .. . ... ... : ... .. . ... : ... .. . ... : ... .. . ...
ROW 2B : ... .. . ... ... : ... .. . ... ... : ... .. . ... : ... .. . ... : ... .. . ...
ROW 2C : A-2 00 8 ... ... : ... .. . ... ... : ... .. . ... : ... .. . ... : ... .. . ...
ROW 2D : ... .. . ... ... : ... .. . ... ... : ... .. . ... : ... .. . ... : ... .. . ...
ROW 2E : ... .. . A01 ... : ... .. . ... ... : ... .. . ... : ... .. . ... : ... .. . ...
ROW 2F : ... .. . ... ... : ... .. . ... ... : ... .. . ... : ... .. . ... : ... .. . ...
ROW 30 : --- .. . ... ... : ... .. . ... ... : ... .. . ... : ... .. . ... : ... .. . ...
ROW 31 : ... .. . ... ... : ... .. . ... ... : ... .. . ... : ... .. . ... : ... .. . ...
ROW 32 : E-2 00 8 A02 ... : ... .. . ... ... : ... .. . ... : ... .. . ... : ... .. . ...
ROW 33 : ... .. . ... ... : ... .. . ... ... : ... .. . ... : ... .. . ... : ... .. . ...
ROW 34 : F#2 00 8 ... ... : ... .. . ... ... : ... .. . ... : ... .. . ... : ... .. . ...
ROW 35 : ... .. . ... ... : ... .. . ... ... : ... .. . ... : ... .. . ... : ... .. . ...
ROW 36 : A-2 00 8 ... ... : ... .. . ... ... : ... .. . ... : ... .. . ... : ... .. . ...
ROW 37 : ... .. . ... ... : ... .. . ... ... : ... .. . ... : ... .. . ... : ... .. . ...
ROW 38 : B-2 00 8 ... ... : ... .. . ... ... : ... .. . ... : ... .. . ... : ... .. . ...
ROW 39 : ... .. . ... ... : ... .. . ... ... : ... .. . ... : ... .. . ... : ... .. . ...
ROW 3A : C#3 00 8 ... ... : ... .. . ... ... : ... .. . ... : ... .. . ... : ... .. . ...
ROW 3B : ... .. . ... ... : ... .. . ... ... : ... .. . ... : ... .. . ... : ... .. . ...
ROW 3C : B-2 00 8 ... ... : ... .. . ... ... : ... .. . ... : ... .. . ... : ... .. . ...
ROW 3D : ... .. . ... ... : ... .. . ... ... : ... .. . ... : ... .. . ... : ... .. . ...
ROW 3E : ... .. . A01 ... : ... .. . ... ... : ... .. . ... : ... .. . ... : ... .. . ...
ROW 3F : ... .. . ... ... : ... .. . ... ... : ... .. . ... : ... .. . ... : ... .. . ...

TRACK  64   6 150 "Balrog"
COLUMNS : 3 2 1 1 2

ORDER 00 : 00 00 00 00 00
ORDER 01 : 01 01 01 01 00
ORDER 02 : 02 02 02 02 00
ORDER 03 : 03 03 03 03 00
ORDER 04 : 04 04 04 04 00
ORDER 05 : 05 05 05 05 00
ORDER 06 : 06 06 06 06 00
ORDER 07 : 07 06 07 07 00
ORDER 08 : 08 09 08 08 00

PATTERN 00
ROW 00 : ... .. . ... ... ... : ... .. . ... ... : A-2 00 . S05 : 1-# 00 A A0C : ... .. . F07 Z08
ROW 01 : ... .. . ... ... ... : ... .. . ... ... : ... .. . ... : --- .. . ... : ... .. . F06 ...
ROW 02 : ... .. . ... ... ... : ... .. . ... ... : A-2 00 . S05 : ... .. . ... : ... .. . ... ...
ROW 03 : ... .. . ... ... ... : ... .. . ... ... : ... .. . ... : ... .. . ... : ... .. . ... ...
ROW 04 : ... .. . ... ... ... : ... .. . ... ... : A-2 00 . S05 : 1-# 00 A A0C : ... .. . ... ...
ROW 05 : ... .. . ... ... ... : ... .. . ... ... : ... .. . ... : --- .. . ... : ... .. . ... ...
ROW 06 : ... .. . ... ... ... : ... .. . ... ... : A-2 00 . S05 : ... .. . ... : ... .. . ... ...
ROW 07 : ... .. . ... ... ... : ... .. . ... ... : ... .. . ... : ... .. . ... : ... .. . ... ...
ROW 08 : ... .. . ... ... ... : ... .. . ... ... : A-2 00 . S05 : 1-# 00 A A0C : ... .. . F07 ...
ROW 09 : ... .. . ... ... ... : ... .. . ... ... : A-3 00 . S05 : --- .. . ... : ... .. . F06 ...
ROW 0A : ... .. . ... ... ... : ... .. . ... ... : A-2 00 . S05 : ... .. . ... : ... .. . ... ...
ROW 0B : ... .. . ... ... ... : ... .. . ... ... : ... .. . ... : 6-# 00 8 A06 : ... .. . ... ...
ROW 0C : ... .. . ... ... ... : ... .. . ... ... : A-2 00 . S05 : 6-# 00 8 A06 : ... .. . ... ...
ROW 0D : ... .. . ... ... ... : ... .. . ... ... : ... .. . ... : ... .. . A02 : ... .. . ... ...
ROW 0E : ... .. . ... ... ... : ... .. . ... ... : A-2 00 . S05 : ... .. . ... : ... .. . ... ...
ROW 0F : ... .. . ... ... ... : ... .. . ... ... : ... .. . ... : ... .. . ... : ... .. . ... ...
ROW 10 : ... .. . ... ... ... : ... .. . ... ... : A-2 00 . S05 : 1-# 00 A A0C : ... .. . F07 ...
ROW 11 : ... .. . ... ... ... : ... .. . ... ... : ... .. . ... : --- .. . ... : ... .. . F06 ...
ROW 12 : ... .. . ... ... ... : ... .. . ... ... : A-2 00 . S05 : ... .. . ... : ... .. . ... ...
ROW 13 : ... .. . ... ... ... : ... .. . ... ... : ... .. . ... : ... .. . ... : ... .. . ... ...
ROW 14 : E-3 00 4 V02 ... ... : ... .. . ... ... : A-2 00 . S05 : 1-# 00 A A0C : ... .. . ... ...
ROW 15 : ... .. . ... ... ... : ... .. . ... ... : ... .. . ... : --- .. . ... : ... .. . ... ...
ROW 16 : ... .. 3 ... ... ... : ... .. . ... ... : A-2 00 . S05 : ... .. . ... : ... .. . ... ...
ROW 17 : ... .. . ... ... ... : ... .. . ... ... : ... .. . ... : ... .. . ... : ... .. . ... ...
ROW 18 : A-3 00 4 ... ... ... : ... .. . ... ... : A-2 00 . S05 : 1-# 00 A A0C : ... .. . F07 ...
ROW 19 : ... .. . ... ... ... : ... .. . ... ... : A-3 00 . S05 : --- .. . ... : ... .. . F06 ...
ROW 1A : ... .. 3 ... ... ... : ... .. . ... ... : A-2 00 . S05 : ... .. . ... : ... .. . ... ...
ROW 1B : ... .. . ... ... ... : ... .. . ... ... : ... .. . ... : ... .. . ... : ... .. . ... ...
ROW 1C : C-4 00 4 ... ... ... : ... .. . ... ... : A-2 00 . S05 : 4-# 00 8 A08 : ... .. . ... ...
ROW 1D : ... .. . ... ... ... : ... .. . ... ... : A-3 00 . S05 : 3-# 00 8 A08 : ... .. . ... ...
ROW 1E : ... .. 3 ... ... ... : ... .. . ... ... : A-2 00 . S05 : 2-# 00 8 A08 : ... .. . ... ...
ROW 1F : D-4 00 4 ... D00 ... : D-4 00 7 A04 V00 : ... .. . ... : ... .. . ... : ... .. . ... ...
ROW 20 : ... .. . ... ... ... : ... .. . ... ... : ... .. . ... : ... .. . ... : ... .. . F07 ...
ROW 21 : ... .. . ... ... ... : ... .. . ... ... : ... .. . ... : ... .. . ... : ... .. . F06 ...
ROW 22 : ... .. . ... ... ... : ... .. . ... ... : ... .. . ... : ... .. . ... : ... .. . ... ...
ROW 23 : ... .. . ... ... ... : ... .. . ... ... : ... .. . ... : ... .. . ... : ... .. . ... ...
ROW 24 : ... .. . ... ... ... : ... .. . ... ... : ... .. . ... : ... .. . ... : ... .. . ... ...
ROW 25 : ... .. . ... ... ... : ... .. . ... ... : ... .. . ... : ... .. . ... : ... .. . ... ...
ROW 26 : ... .. . ... ... ... : ... .. . ... ... : ... .. . ... : ... .. . ... : ... .. . ... ...
ROW 27 : ... .. . ... ... ... : ... .. . ... ... : ... .. . ... : ... .. . ... : ... .. . ... ...
ROW 28 : ... .. . ... ... ... : ... .. . ... ... : ... .. . ... : ... .. . ... : ... .. . F07 ...
ROW 29 : ... .. . ... ... ... : ... .. . ... ... : ... .. . ... : ... .. . ... : ... .. . F06 ...
ROW 2A : ... .. . ... ... ... : ... .. . ... ... : ... .. . ... : ... .. . ... : ... .. . ... ...
ROW 2B : ... .. . ... ... ... : ... .. . ... ... : ... .. . ... : ... .. . ... : ... .. . ... ...
ROW 2C : ... .. . ... ... ... : ... .. . ... ... : ... .. . ... : ... .. . ... : ... .. . ... ...
ROW 2D : ... .. . ... ... ... : ... .. . ... ... : ... .. . ... : ... .. . ... : ... .. . ... ...
ROW 2E : ... .. . ... ... ... : ... .. . ... ... : ... .. . ... : ... .. . ... : ... .. . ... ...
ROW 2F : ... .. . ... ... ... : ... .. . ... ... : ... .. . ... : ... .. . ... : ... .. . ... ...
ROW 30 : ... .. . ... ... ... : ... .. . ... ... : ... .. . ... : ... .. . ... : ... .. . F07 ...
ROW 31 : ... .. . ... ... ... : ... .. . ... ... : ... .. . ... : ... .. . ... : ... .. . F06 ...
ROW 32 : ... .. . ... ... ... : ... .. . ... ... : ... .. . ... : ... .. . ... : ... .. . ... ...
ROW 33 : ... .. . ... ... ... : ... .. . ... ... : ... .. . ... : ... .. . ... : ... .. . ... ...
ROW 34 : ... .. . ... ... ... : ... .. . ... ... : ... .. . ... : ... .. . ... : ... .. . ... ...
ROW 35 : ... .. . ... ... ... : ... .. . ... ... : ... .. . ... : ... .. . ... : ... .. . ... ...
ROW 36 : ... .. . ... ... ... : ... .. . ... ... : ... .. . ... : ... .. . ... : ... .. . ... ...
ROW 37 : ... .. . ... ... ... : ... .. . ... ... : ... .. . ... : ... .. . ... : ... .. . ... ...
ROW 38 : ... .. . ... ... ... : ... .. . ... ... : ... .. . ... : ... .. . ... : ... .. . F07 ...
ROW 39 : ... .. . ... ... ... : ... .. . ... ... : ... .. . ... : ... .. . ... : ... .. . F06 ...
ROW 3A : ... .. . ... ... ... : ... .. . ... ... : ... .. . ... : ... .. . ... : ... .. . ... ...
ROW 3B : ... .. . ... ... ... : ... .. . ... ... : ... .. . ... : ... .. . ... : ... .. . ... ...
ROW 3C : ... .. . ... ... ... : ... .. . ... ... : ... .. . ... : ... .. . ... : ... .. . ... ...
ROW 3D : ... .. . ... ... ... : ... .. . ... ... : ... .. . ... : ... .. . ... : ... .. . ... ...
ROW 3E : ... .. . ... ... ... : ... .. . ... ... : ... .. . ... : ... .. . ... : ... .. . ... ...
ROW 3F : ... .. . ... ... ... : ... .. . ... ... : ... .. . ... : ... .. . ... : ... .. . ... ...

PATTERN 01
ROW 00 : D-4 00 4 V02 A00 ... : --- .. . ... ... : D-3 00 . S05 : 9-# 00 A A05 : ... .. . ... ...
ROW 01 : ... .. . ... ... ... : D-4 00 7 A04 V00 : ... .. . ... : ... .. . A03 : ... .. . ... ...
ROW 02 : ... .. 3 ... ... ... : C-4 00 7 ... ... : D-3 00 . S05 : ... .. . A01 : ... .. . ... ...
ROW 03 : ... .. . ... ... ... : A-3 00 7 ... ... : ... .. . ... : ... .. . ... : ... .. . ... ...
ROW 04 : ... .. . 461 ... ... : C-4 00 7 ... ... : D-3 00 . S05 : 6-# 00 8 A06 : ... .. . ... ...
ROW 05 : ... .. . ... ... ... : D-4 00 7 ... ... : ... .. . ... : ... .. . A02 : ... .. . ... ...
ROW 06 : ... .. 2 ... ... ... : A-3 00 3 ... ... : D-3 00 . S05 : ... .. . ... : ... .. . ... ...
ROW 07 : ... .. . ... ... ... : D-4 00 7 ... ... : ... .. . ... : ... .. . ... : ... .. . ... ...
ROW 08 : ... .. . ... ... ... : D-4 00 3 ... ... : D-3 00 . S05 : 1-# 00 A A0C : ... .. . ... ...
ROW 09 : ... .. . ... ... ... : D-4 00 7 ... ... : D-4 00 . S05 : --- .. . ... : ... .. . ... ...
ROW 0A : ... .. . ... ... ... : C-4 00 7 ... ... : D-3 00 . S05 : ... .. . ... : ... .. . ... ...
ROW 0B : ... .. . ... ... ... : A-3 00 7 ... ... : ... .. . ... : ... .. . ... : ... .. . ... ...
ROW 0C : ... .. . ... ... ... : C-4 00 7 ... ... : D-3 00 . S05 : 6-# 00 8 A06 : ... .. . ... ...
ROW 0D : ... .. . ... ... ... : D-4 00 7 ... ... : ... .. . ... : ... .. . A02 : ... .. . ... ...
ROW 0E : ... .. . ... ... ... : A-3 00 3 ... ... : D-3 00 . S05 : ... .. . ... : ... .. . ... ...
ROW 0F : ... .. . ... ... ... : D-4 00 7 ... ... : ... .. . ... : ... .. . ... : ... .. . ... ...
ROW 10 : G-4 00 4 400 ... ... : D-4 00 3 ... ... : A#2 00 . S05 : 1-# 00 A A0C : ... .. . ... ...
ROW 11 : ... .. . ... ... ... : ... .. . ... ... : ... .. . ... : --- .. . ... : ... .. . ... ...
ROW 12 : ... .. 3 ... ... ... : G-3 00 7 V01 ... : A#2 00 . S05 : ... .. . ... : ... .. . ... ...
ROW 13 : ... .. . ... ... ... : A-3 00 7 ... ... : ... .. . ... : ... .. . ... : ... .. . ... ...
ROW 14 : F-4 00 4 ... ... ... : C-4 00 7 ... ... : A#2 00 . S05 : 6-# 00 8 A06 : ... .. . ... ...
ROW 15 : ... .. . ... ... ... : E-4 00 7 ... ... : ... .. . ... : ... .. . A02 : ... .. . ... ...
ROW 16 : ... .. 3 ... ... ... : A-3 00 3 ... ... : A#2 00 . S05 : ... .. . ... : ... .. . ... ...
ROW 17 : ... .. . ... ... ... : F-4 00 7 ... ... : ... .. . ... : ... .. . ... : ... .. . ... ...
ROW 18 : E-4 00 4 ... ... ... : E-4 00 3 ... ... : C-3 00 . S05 : 1-# 00 A A0C : ... .. . ... ...
ROW 19 : ... .. . ... ... ... : F-4 00 7 ... ... : C-4 00 . S05 : --- .. . ... : ... .. . ... ...
ROW 1A : ... .. 3 ... ... ... : E-4 00 7 ... ... : C-3 00 . S05 : ... .. . ... : ... .. . ... ...
ROW 1B : ... .. . ... ... ... : ... .. . ... ... : ... .. . ... : ... .. . ... : ... .. . ... ...
ROW 1C : C-4 00 4 ... ... ... : G-4 00 7 ... ... : C-3 00 . S05 : 6-# 00 8 A06 : ... .. . ... ...
ROW 1D : ... .. . ... ... ... : F-4 00 7 ... ... : C-4 00 . S05 : ... .. . A02 : ... .. . ... ...
ROW 1E : ... .. 3 ... ... ... : E-4 00 7 ... ... : C-3 00 . S05 : ... .. . ... : ... .. . ... ...
ROW 1F : D-4 00 4 ... ... ... : D-4 00 7 V00 ... : ... .. . ... : ... .. . ... : ... .. . ... ...
ROW 20 : ... .. . ... ... ... : F-4 00 3 V01 ... : D-3 00 . S05 : 1-# 00 A A0C : ... .. . ... ...
ROW 21 : ... .. 3 ... ... ... : D-4 00 7 V00 ... : ... .. . ... : --- .. . ... : ... .. . ... ...
ROW 22 : ... .. . ... ... ... : C-4 00 7 ... ... : D-3 00 . S05 : ... .. . ... : ... .. . ... ...
ROW 23 : ... .. . 461 ... ... : A-3 00 7 ... ... : ... .. . ... : ... .. . ... : ... .. . ... ...
ROW 24 : ... .. . ... ... ... : C-4 00 7 ... ... : D-3 00 . S05 : 4-# 00 8 A08 : ... .. . ... ...
ROW 25 : ... .. 2 ... ... ... : D-4 00 7 ... ... : ... .. . ... : 3-# 00 8 A08 : ... .. . ... ...
ROW 26 : ... .. . ... ... ... : A-3 00 3 ... ... : D-3 00 . S05 : 2-# 00 8 A08 : ... .. . ... ...
ROW 27 : ... .. . ... ... ... : D-4 00 7 ... ... : ... .. . ... : ... .. . ... : ... .. . ... ...
ROW 28 : ... .. . ... ... ... : D-4 00 3 ... ... : D-3 00 . S05 : 2-# 00 8 A08 : ... .. . ... ...
ROW 29 : ... .. . ... ... ... : D-4 00 7 ... ... : D-4 00 . S05 : 3-# 00 8 A08 : ... .. . ... ...
ROW 2A : ... .. . ... ... ... : C-4 00 7 ... ... : D-3 00 . S05 : 2-# 00 8 A08 : ... .. . ... ...
ROW 2B : ... .. . ... ... ... : A-3 00 7 ... ... : ... .. . ... : ... .. . ... : ... .. . ... ...
ROW 2C : ... .. . ... ... ... : C-4 00 7 ... ... : D-3 00 . S05 : 6-# 00 8 A06 : ... .. . ... ...
ROW 2D : ... .. . ... ... ... : D-4 00 7 ... ... : ... .. . ... : ... .. . A02 : ... .. . ... ...
ROW 2E : ... .. . ... ... ... : A-3 00 3 ... ... : D-3 00 . S05 : ... .. . ... : ... .. . ... ...
ROW 2F : ... .. . ... ... ... : D-4 00 7 ... ... : ... .. . ... : ... .. . ... : ... .. . ... ...
ROW 30 : G-4 00 4 400 ... ... : D-4 00 3 ... ... : A#2 00 . S05 : 1-# 00 A A0C : ... .. . ... ...
ROW 31 : ... .. . ... ... ... : ... .. . ... ... : ... .. . ... : --- .. . ... : ... .. . ... ...
ROW 32 : ... .. 3 ... ... ... : G-3 00 7 V01 ... : A#2 00 . S05 : 7-# 00 7 A08 : ... .. . ... ...
ROW 33 : ... .. . ... ... ... : A-3 00 7 ... ... : ... .. . ... : ... .. . ... : ... .. . ... ...
ROW 34 : F-4 00 4 ... ... ... : C-4 00 7 ... ... : A#2 00 . S05 : 1-# 00 A A0C : ... .. . ... ...
ROW 35 : ... .. . ... ... ... : E-4 00 7 ... ... : ... .. . ... : 7-# 00 7 A08 : ... .. . ... ...
ROW 36 : ... .. 3 ... ... ... : A-3 00 3 ... ... : A#2 00 . S05 : ... .. . ... : ... .. . ... ...
ROW 37 : ... .. . ... ... ... : F-4 00 7 ... ... : ... .. . ... : 7-# 00 7 A08 : ... .. . ... ...
ROW 38 : G-4 00 4 ... ... ... : E-4 00 3 ... ... : C-3 00 . S03 : 1-# 00 A A0C : ... .. . ... ...
ROW 39 : ... .. . ... ... ... : F-4 00 7 ... ... : C-4 00 . S05 : 6-# 00 8 A06 : ... .. . ... ...
ROW 3A : ... .. 3 ... ... ... : E-4 00 7 ... ... : C-3 00 . S03 : 6-# 00 8 A06 : ... .. . ... ...
ROW 3B : ... .. . ... ... ... : ... .. . ... ... : C-3 00 . S05 : --- .. . A02 : ... .. . ... ...
ROW 3C : A-4 00 4 ... ... ... : G-4 00 7 ... ... : C-4 00 . S05 : 1-# 00 A A0C : ... .. . ... ...
ROW 3D : ... .. . ... ... ... : F-4 00 7 ... ... : ... .. . ... : 6-# 00 8 A06 : ... .. . ... ...
ROW 3E : ... .. 3 ... ... ... : E-4 00 7 ... ... : C-3 00 . S05 : 7-# 00 7 A08 : ... .. . ... ...
ROW 3F : ... .. . ... ... ... : C-4 00 7 ... ... : ... .. . ... : 6-# 00 8 A06 : ... .. . ... ...

PATTERN 02
ROW 00 : D-2 00 8 V01 A01 S05 : D-4 00 3 V02 A00 : D-3 00 . S05 : 9-# 00 A A05 : ... .. . ... ...
ROW 01 : D-2 00 8 ... S05 ... : ... .. . ... ... : ... .. . ... : ... .. . A03 : ... .. . ... ...
ROW 02 : E-2 00 8 ... S05 ... : ... .. 2 ... ... : D-3 00 . S05 : ... .. . A01 : ... .. . ... ...
ROW 03 : F-2 00 8 ... ... ... : ... .. . ... ... : ... .. . ... : ... .. . ... : ... .. . ... ...
ROW 04 : ... .. 3 ... ... ... : A-3 00 7 A04 V00 : D-3 00 . S05 : 6-# 00 8 A06 : ... .. . ... ...
ROW 05 : D-2 00 8 ... S05 ... : ... .. . A01 ... : ... .. . ... : ... .. . A02 : ... .. . ... ...
ROW 06 : E-2 00 8 ... S05 ... : ... .. . A00 ... : D-3 00 . S05 : ... .. . ... : ... .. . ... ...
ROW 07 : F-2 00 8 ... S05 ... : ... .. . ... ... : ... .. . ... : ... .. . ... : ... .. . ... ...
ROW 08 : G-2 00 8 Q82 ... ... : ... .. . ... ... : D-3 00 . S05 : 1-# 00 A A0C : ... .. . ... ...
ROW 09 : ... .. . ... ... ... : ... .. . ... ... : D-4 00 . S05 : --- .. . ... : ... .. . ... ...
ROW 0A : ... .. . ... S05 ... : A-3 00 7 A04 ... : D-3 00 . S05 : ... .. . ... : ... .. . ... ...
ROW 0B : G-2 00 8 ... ... ... : ... .. . ... ... : ... .. . ... : ... .. . ... : ... .. . ... ...
ROW 0C : ... .. . ... ... ... : A-3 00 7 ... ... : D-3 00 . S05 : 6-# 00 8 A06 : ... .. . ... ...
ROW 0D : ... .. . ... S05 ... : A-3 00 7 ... ... : ... .. . ... : ... .. . A02 : ... .. . ... ...
ROW 0E : F-2 00 8 ... ... ... : A-3 00 7 ... ... : D-3 00 . S05 : ... .. . ... : ... .. . ... ...
ROW 0F : ... .. . ... S05 ... : ... .. . ... ... : ... .. . ... : ... .. . ... : ... .. . ... ...
ROW 10 : G-2 00 8 ... ... ... : D-4 00 3 V02 A00 : A#2 00 . S05 : 1-# 00 A A0C : ... .. . ... ...
ROW 11 : ... .. . ... ... ... : ... .. . ... ... : ... .. . ... : --- .. . ... : ... .. . ... ...
ROW 12 : ... .. . ... S05 ... : ... .. 2 ... ... : A#2 00 . S05 : ... .. . ... : ... .. . ... ...
ROW 13 : F-2 00 8 ... ... ... : ... .. . ... ... : ... .. . ... : ... .. . ... : ... .. . ... ...
ROW 14 : ... .. . ... ... ... : A#3 00 3 V02 A00 : A#2 00 . S05 : 6-# 00 8 A06 : ... .. . ... ...
ROW 15 : ... .. . ... S05 ... : ... .. . ... ... : ... .. . ... : ... .. . A02 : ... .. . ... ...
ROW 16 : E-2 00 8 ... S0B ... : ... .. 2 ... ... : A#2 00 . S05 : ... .. . ... : ... .. . ... ...
ROW 17 : C-2 00 8 G06 ... ... : ... .. . ... ... : ... .. . ... : ... .. . ... : ... .. . ... ...
ROW 18 : D-2 00 7 G04 ... ... : ... .. . 461 ... : A#2 00 . S05 : 1-# 00 A A0C : ... .. . ... ...
ROW 19 : ... .. . ... ... ... : ... .. . ... ... : A#3 00 . S05 : --- .. . ... : ... .. . ... ...
ROW 1A : E-2 00 8 G06 ... ... : ... .. . ... ... : A#2 00 . S05 : ... .. . ... : ... .. . ... ...
ROW 1B : D-2 00 8 G03 ... ... : ... .. . 400 G06 : ... .. . ... : ... .. . ... : ... .. . ... ...
ROW 1C : C-2 00 8 ... ... ... : A-3 00 7 A04 V00 : A#2 00 . S05 : 6-# 00 8 A06 : ... .. . ... ...
ROW 1D : ... .. . ... ... ... : ... .. . A01 ... : A#3 00 . S05 : ... .. . A02 : ... .. . ... ...
ROW 1E : ... .. . ... ... ... : A#3 00 7 A04 ... : A#2 00 . S05 : ... .. . ... : ... .. . ... ...
ROW 1F : ... .. . ... S05 ... : ... .. . ... ... : ... .. . ... : ... .. . ... : ... .. . ... ...
ROW 20 : E-2 00 8 ... ... ... : C-4 00 3 V02 A00 : C-3 00 . S05 : 1-# 00 A A0C : ... .. . ... ...
ROW 21 : ... .. . ... ... ... : ... .. . ... ... : ... .. . ... : --- .. . ... : ... .. . ... ...
ROW 22 : ... .. . ... ... ... : ... .. 2 ... ... : C-3 00 . S05 : ... .. . ... : ... .. . ... ...
ROW 23 : ... .. . ... S05 ... : ... .. . ... ... : ... .. . ... : ... .. . ... : ... .. . ... ...
ROW 24 : F-2 00 8 ... ... ... : G-3 00 7 A04 V00 : C-3 00 . S05 : 6-# 00 8 A06 : ... .. . ... ...
ROW 25 : ... .. . ... ... ... : ... .. . A01 ... : ... .. . ... : ... .. . A02 : ... .. . ... ...
ROW 26 : ... .. . ... ... ... : ... .. . A00 ... : C-3 00 . S05 : ... .. . ... : ... .. . ... ...
ROW 27 : ... .. . ... S05 ... : ... .. . ... ... : ... .. . ... : ... .. . ... : ... .. . ... ...
ROW 28 : G-2 00 8 ... ... ... : ... .. . ... ... : C-3 00 . S05 : 1-# 00 A A0C : ... .. . ... ...
ROW 29 : ... .. . ... ... ... : ... .. . ... ... : C-4 00 . S05 : --- .. . ... : ... .. . ... ...
ROW 2A : ... .. . ... ... ... : G-3 00 7 A04 ... : C-3 00 . S05 : ... .. . ... : ... .. . ... ...
ROW 2B : ... .. . ... S05 ... : ... .. . ... ... : ... .. . ... : ... .. . ... : ... .. . ... ...
ROW 2C : C-3 00 8 ... ... ... : G-3 00 7 ... ... : C-3 00 . S05 : 6-# 00 8 A06 : ... .. . ... ...
ROW 2D : ... .. 3 ... ... ... : G-3 00 7 ... ... : ... .. . ... : ... .. . A02 : ... .. . ... ...
ROW 2E : A#2 00 8 ... ... ... : G-3 00 7 ... ... : C-3 00 . S05 : ... .. . ... : ... .. . ... ...
ROW 2F : ... .. . ... ... ... : ... .. . ... ... : ... .. . ... : ... .. . ... : ... .. . ... ...
ROW 30 : ... .. . ... ... ... : A-4 00 4 V02 A00 : F-2 00 . S05 : 1-# 00 A A0C : ... .. . ... ...
ROW 31 : ... .. . ... S05 ... : ... .. . ... ... : ... .. . ... : --- .. . ... : ... .. . ... ...
ROW 32 : A-2 00 8 ... ... ... : ... .. 3 ... ... : F-2 00 . S05 : ... .. . ... : ... .. . ... ...
ROW 33 : ... .. . ... S05 ... : ... .. . ... ... : ... .. . ... : ... .. . ... : ... .. . ... ...
ROW 34 : G-2 00 8 ... ... ... : G-4 00 4 ... ... : F-2 00 . S05 : 6-# 00 8 A06 : ... .. . ... ...
ROW 35 : ... .. . ... S05 ... : ... .. . ... ... : ... .. . ... : ... .. . A02 : ... .. . ... ...
ROW 36 : A-2 00 8 ... ... ... : ... .. 3 ... ... : F-2 00 . S05 : ... .. . ... : ... .. . ... ...
ROW 37 : ... .. . ... ... ... : ... .. . ... ... : ... .. . ... : ... .. . ... : ... .. . ... ...
ROW 38 : ... .. . ... ... ... : F-4 00 4 ... ... : A-2 00 . S03 : 1-# 00 A A0C : ... .. . ... ...
ROW 39 : ... .. . ... S05 ... : ... .. . ... ... : A-3 00 . S05 : --- .. . ... : ... .. . ... ...
ROW 3A : G-2 00 8 M61 S0B ... : ... .. 3 ... ... : A-2 00 . S03 : ... .. . ... : ... .. . ... ...
ROW 3B : F-2 00 8 G06 ... ... : ... .. . ... ... : A-2 00 . S05 : ... .. . ... : ... .. . ... ...
ROW 3C : G-2 00 8 G06 ... ... : E-4 00 4 ... ... : A-3 00 . S05 : 6-# 00 8 A06 : ... .. . ... ...
ROW 3D : F-2 00 8 G03 ... ... : ... .. . ... ... : ... .. . ... : 6-# 00 8 A06 : ... .. . ... ...
ROW 3E : E-2 00 8 ... ... ... : ... .. 3 ... ... : G-3 00 . S05 : ... .. . A02 : ... .. . ... ...
ROW 3F : ... .. . ... S05 ... : ... .. . ... ... : ... .. . ... : ... .. . ... : ... .. . ... ...

PATTERN 03
ROW 00 : D-2 00 8 V01 A01 ... : D-4 00 3 ... ... : D-3 00 . S05 : 9-# 00 A A05 : ... .. . ... ...
ROW 01 : ... .. 3 ... ... ... : ... .. . ... ... : ... .. . ... : ... .. . A03 : ... .. . ... ...
ROW 02 : E-2 00 8 ... S05 ... : ... .. 2 ... ... : D-3 00 . S05 : ... .. . A01 : ... .. . ... ...
ROW 03 : F-2 00 8 ... ... ... : ... .. . ... ... : ... .. . ... : ... .. . ... : ... .. . ... ...
ROW 04 : ... .. 3 ... ... ... : A-3 00 7 A04 V00 : D-3 00 . S05 : 6-# 00 8 A06 : ... .. . ... ...
ROW 05 : D-2 00 8 ... S05 ... : ... .. . A01 ... : ... .. . ... : ... .. . A02 : ... .. . ... ...
ROW 06 : E-2 00 8 ... S05 ... : ... .. . A00 ... : D-3 00 . S05 : ... .. . ... : ... .. . ... ...
ROW 07 : F-2 00 8 ... S05 ... : ... .. . ... ... : ... .. . ... : ... .. . ... : ... .. . ... ...
ROW 08 : G-2 00 8 Q82 ... ... : ... .. . ... ... : D-3 00 . S05 : 1-# 00 A A0C : ... .. . ... ...
ROW 09 : ... .. . ... ... ... : ... .. . ... ... : D-4 00 . S05 : --- .. . ... : ... .. . ... ...
ROW 0A : ... .. . ... S05 ... : A-3 00 7 A04 ... : D-3 00 . S05 : ... .. . ... : ... .. . ... ...
ROW 0B : G-2 00 8 ... ... ... : ... .. . ... ... : ... .. . ... : ... .. . ... : ... .. . ... ...
ROW 0C : ... .. . ... ... ... : A-3 00 7 ... ... : D-3 00 . S05 : 6-# 00 8 A06 : ... .. . ... ...
ROW 0D : ... .. . ... S05 ... : A-3 00 7 ... ... : ... .. . ... : ... .. . A02 : ... .. . ... ...
ROW 0E : F-2 00 8 ... ... ... : A-3 00 7 ... ... : D-3 00 . S05 : ... .. . ... : ... .. . ... ...
ROW 0F : ... .. . ... S05 ... : D-4 00 7 ... ... : ... .. . ... : ... .. . ... : ... .. . ... ...
ROW 10 : G-2 00 8 ... ... ... : ... .. . ... ... : A#2 00 . S05 : 1-# 00 A A0C : ... .. . ... ...
ROW 11 : ... .. . ... ... ... : D-4 00 7 ... ... : ... .. . ... : --- .. . ... : ... .. . ... ...
ROW 12 : ... .. . ... S05 ... : C-4 00 7 ... ... : A#2 00 . S05 : ... .. . ... : ... .. . ... ...
ROW 13 : F-2 00 8 ... ... ... : A-3 00 7 ... ... : ... .. . ... : ... .. . ... : ... .. . ... ...
ROW 14 : ... .. . ... ... ... : D-4 00 7 ... ... : A#2 00 . S05 : 6-# 00 8 A06 : ... .. . ... ...
ROW 15 : ... .. . ... S05 ... : C-4 00 7 ... ... : ... .. . ... : ... .. . A02 : ... .. . ... ...
ROW 16 : E-2 00 8 ... S0B ... : A-3 00 7 ... ... : A#2 00 . S05 : ... .. . ... : ... .. . ... ...
ROW 17 : C-2 00 8 G06 ... ... : D-4 00 7 ... ... : ... .. . ... : ... .. . ... : ... .. . ... ...
ROW 18 : D-2 00 7 G04 ... ... : C-4 00 7 ... ... : A#2 00 . S05 : 1-# 00 A A0C : ... .. . ... ...
ROW 19 : ... .. . ... ... ... : A-3 00 7 ... ... : A#3 00 . S05 : --- .. . ... : ... .. . ... ...
ROW 1A : E-2 00 8 G06 ... ... : D-4 00 7 ... ... : A#2 00 . S05 : ... .. . ... : ... .. . ... ...
ROW 1B : D-2 00 8 G03 ... ... : C-4 00 7 ... ... : ... .. . ... : ... .. . ... : ... .. . ... ...
ROW 1C : C-2 00 8 ... ... ... : A-3 00 7 ... ... : A#2 00 . S05 : 6-# 00 8 A06 : ... .. . ... ...
ROW 1D : ... .. . ... ... ... : ... .. . A01 ... : A#3 00 . S05 : ... .. . A02 : ... .. . ... ...
ROW 1E : ... .. . ... ... ... : A#3 00 7 A04 ... : A#2 00 . S05 : ... .. . ... : ... .. . ... ...
ROW 1F : ... .. . ... S05 ... : ... .. . ... ... : ... .. . ... : ... .. . ... : ... .. . ... ...
ROW 20 : C-3 00 8 ... ... ... : --- .. . ... ... : C-3 00 . S05 : 1-# 00 A A0C : ... .. . ... ...
ROW 21 : ... .. . ... ... ... : ... .. . ... ... : ... .. . ... : --- .. . ... : ... .. . ... ...
ROW 22 : ... .. . ... ... 474 : ... .. . ... ... : C-3 00 . S05 : ... .. . ... : ... .. . ... ...
ROW 23 : ... .. . ... S05 ... : ... .. . ... ... : ... .. . ... : ... .. . ... : ... .. . ... ...
ROW 24 : A#2 00 8 ... ... 400 : G-3 00 7 A04 V00 : C-3 00 . S05 : 6-# 00 8 A06 : ... .. . ... ...
ROW 25 : ... .. . ... ... ... : ... .. . A01 ... : ... .. . ... : ... .. . A02 : ... .. . ... ...
ROW 26 : ... .. . ... ... ... : ... .. . A00 ... : C-3 00 . S05 : ... .. . ... : ... .. . ... ...
ROW 27 : ... .. . ... S05 ... : ... .. . ... ... : ... .. . ... : ... .. . ... : ... .. . ... ...
ROW 28 : A-2 00 8 ... ... ... : ... .. . ... ... : C-3 00 . S05 : 1-# 00 A A0C : ... .. . ... ...
ROW 29 : ... .. . ... ... ... : ... .. . ... ... : C-4 00 . S05 : --- .. . ... : ... .. . ... ...
ROW 2A : ... .. . ... ... ... : G-3 00 7 A04 ... : C-3 00 . S05 : ... .. . ... : ... .. . ... ...
ROW 2B : ... .. . ... S05 ... : ... .. . ... ... : ... .. . ... : ... .. . ... : ... .. . ... ...
ROW 2C : G-2 00 8 ... ... ... : G-3 00 7 ... ... : C-3 00 . S05 : 6-# 00 8 A06 : ... .. . ... ...
ROW 2D : ... .. 3 ... ... ... : G-3 00 7 ... ... : ... .. . ... : ... .. . A02 : ... .. . ... ...
ROW 2E : A#2 00 8 ... ... ... : G-3 00 7 ... ... : C-3 00 . S05 : ... .. . ... : ... .. . ... ...
ROW 2F : ... .. . ... ... ... : ... .. . ... ... : ... .. . ... : ... .. . ... : ... .. . ... ...
ROW 30 : ... .. . ... ... 474 : A-4 00 4 V02 A00 : A-2 00 . S05 : 1-# 00 A A0C : ... .. . ... ...
ROW 31 : ... .. . ... S05 ... : ... .. . ... ... : ... .. . ... : --- .. . ... : ... .. . ... ...
ROW 32 : A-2 00 8 ... ... 400 : ... .. 3 ... ... : A-2 00 . S05 : ... .. . ... : ... .. . ... ...
ROW 33 : ... .. . ... S05 ... : ... .. . ... ... : ... .. . ... : ... .. . ... : ... .. . ... ...
ROW 34 : G-2 00 8 ... ... ... : G-4 00 4 ... ... : A-2 00 . S05 : 6-# 00 8 A06 : ... .. . ... ...
ROW 35 : ... .. . ... S05 ... : ... .. . ... ... : ... .. . ... : ... .. . A02 : ... .. . ... ...
ROW 36 : A-2 00 8 ... ... ... : ... .. 3 ... ... : A-2 00 . S05 : ... .. . ... : ... .. . ... ...
ROW 37 : ... .. . ... ... ... : ... .. . ... ... : ... .. . ... : ... .. . ... : ... .. . ... ...
ROW 38 : ... .. . ... ... 474 : F-4 00 4 ... ... : A-2 00 . S03 : 1-# 00 A A0C : ... .. . ... ...
ROW 39 : ... .. . ... S05 ... : ... .. . ... ... : A-3 00 . S05 : --- .. . ... : ... .. . ... ...
ROW 3A : G-2 00 8 M61 S0B 400 : ... .. 3 ... ... : A-2 00 . S03 : 2-# 00 8 A08 : ... .. . ... ...
ROW 3B : F-2 00 8 G06 ... ... : ... .. . ... ... : A-2 00 . S05 : ... .. . ... : ... .. . ... ...
ROW 3C : G-2 00 8 G06 ... ... : G-4 00 3 ... ... : A-3 00 . S05 : 6-# 00 8 A06 : ... .. . ... ...
ROW 3D : F-2 00 8 G03 ... ... : ... .. . ... ... : ... .. . ... : 6-# 00 8 A06 : ... .. . ... ...
ROW 3E : E-2 00 8 ... ... ... : ... .. 2 ... ... : A-2 00 . ... : ... .. . A02 : ... .. . ... ...
ROW 3F : ... .. . ... S05 ... : ... .. . ... ... : ... .. . S05 : 6-# 00 8 A06 : ... .. . ... ...

PATTERN 04
ROW 00 : E-2 00 8 Q41 A01 ... : ... .. 1 ... ... : A#2 00 . S05 : 9-# 00 A A05 : ... .. . ... ...
ROW 01 : ... .. . ... ... ... : A#2 00 4 V02 A00 : ... .. . ... : ... .. . A03 : ... .. . ... ...
ROW 02 : ... .. . ... ... 474 : D-3 00 4 ... ... : A#3 00 . S05 : ... .. . A01 : ... .. . ... ...
ROW 03 : ... .. . ... S05 ... : F-3 00 4 ... ... : ... .. . ... : ... .. . ... : ... .. . ... ...
ROW 04 : E-2 00 8 ... ... 400 : D-4 00 7 A04 V00 : A#2 00 . S05 : 6-# 00 8 A06 : ... .. . ... ...
ROW 05 : ... .. . ... ... ... : ... .. . A01 ... : ... .. . ... : ... .. . A02 : ... .. . ... ...
ROW 06 : ... .. . ... ... ... : ... .. . ... ... : A#3 00 . S05 : ... .. . ... : ... .. . ... ...
ROW 07 : ... .. . ... S05 ... : ... .. . ... ... : ... .. . ... : ... .. . ... : ... .. . ... ...
ROW 08 : F-2 00 8 ... ... ... : D-4 00 7 A04 V00 : A#2 00 . S05 : 1-# 00 A A0C : ... .. . ... ...
ROW 09 : ... .. . ... ... ... : ... .. . ... ... : ... .. . ... : --- .. . ... : ... .. . ... ...
ROW 0A : ... .. . ... S05 ... : D-4 00 7 ... ... : A#3 00 . S05 : 7-# 00 7 A08 : ... .. . ... ...
ROW 0B : G-2 00 8 ... ... ... : D-4 00 7 ... ... : ... .. . ... : ... .. . ... : ... .. . ... ...
ROW 0C : --- .. . ... ... ... : A-3 00 2 V02 A00 : A#2 00 . S05 : 6-# 00 8 A06 : ... .. . ... ...
ROW 0D : F-2 00 2 ... S05 ... : ... .. . ... ... : ... .. . ... : 7-# 00 7 A08 : ... .. . ... ...
ROW 0E : G-2 00 8 ... ... ... : ... .. . ... ... : A#3 00 . S05 : ... .. . ... : ... .. . ... ...
ROW 0F : ... .. . ... S05 ... : ... .. . ... ... : ... .. . ... : 7-# 00 7 A08 : ... .. . ... ...
ROW 10 : E-2 00 8 Q41 ... ... : ... .. . ... ... : G-2 00 . S05 : 9-# 00 A A05 : ... .. . ... ...
ROW 11 : ... .. . ... ... ... : A#2 00 4 V02 A00 : ... .. . ... : ... .. . A03 : ... .. . ... ...
ROW 12 : ... .. . ... ... 474 : D-3 00 4 ... ... : G-3 00 . S05 : ... .. . A01 : ... .. . ... ...
ROW 13 : ... .. . ... S05 ... : F-3 00 4 ... ... : ... .. . ... : ... .. . ... : ... .. . ... ...
ROW 14 : E-2 00 8 ... ... 400 : D-4 00 7 A04 V00 : G-2 00 . S05 : 6-# 00 8 A06 : ... .. . ... ...
ROW 15 : ... .. . ... ... ... : ... .. . A01 ... : ... .. . ... : ... .. . A02 : ... .. . ... ...
ROW 16 : ... .. . ... ... ... : ... .. . ... ... : G-3 00 . S05 : ... .. . ... : ... .. . ... ...
ROW 17 : ... .. . ... S05 ... : ... .. . ... ... : ... .. . ... : ... .. . ... : ... .. . ... ...
ROW 18 : D-2 00 8 ... ... ... : D-4 00 7 A04 V00 : G-2 00 . S05 : 1-# 00 A A0C : ... .. . ... ...
ROW 19 : ... .. . ... ... ... : ... .. . ... ... : ... .. . ... : --- .. . ... : ... .. . ... ...
ROW 1A : ... .. . ... S05 ... : D-4 00 7 ... ... : G-3 00 . S05 : 7-# 00 7 A08 : ... .. . ... ...
ROW 1B : E-2 00 8 ... ... ... : D-4 00 7 ... ... : ... .. . ... : ... .. . ... : ... .. . ... ...
ROW 1C : --- .. . ... ... ... : G-3 00 2 V02 A00 : G-2 00 . S05 : 6-# 00 8 A06 : ... .. . ... ...
ROW 1D : D-2 00 2 ... S05 ... : ... .. . ... ... : ... .. . ... : 7-# 00 7 A08 : ... .. . ... ...
ROW 1E : E-2 00 8 ... S0B ... : ... .. . ... ... : G-3 00 . S05 : 7-# 00 7 A08 : ... .. . ... ...
ROW 1F : ... .. . ... ... ... : ... .. . ... ... : ... .. . ... : ... .. . ... : ... .. . ... ...
ROW 20 : A#1 00 8 Q42 ... ... : C-4 00 4 V02 A00 : A-2 00 . S05 : 1-# 00 A A0C : ... .. . ... ...
ROW 21 : ... .. . ... ... ... : ... .. . ... ... : ... .. . ... : --- .. . ... : ... .. . ... ...
ROW 22 : ... .. . ... ... 474 : ... .. 3 ... ... : A-3 00 . S05 : ... .. . ... : ... .. . ... ...
ROW 23 : ... .. . A00 ... ... : ... .. . ... ... : ... .. . ... : ... .. . ... : ... .. . ... ...
ROW 24 : ... .. . ... ... 476 : A#3 00 4 ... ... : A-2 00 . S05 : 6-# 00 8 A06 : ... .. . ... ...
ROW 25 : ... .. . ... ... ... : ... .. . ... ... : ... .. . ... : ... .. . A02 : ... .. . ... ...
ROW 26 : ... .. . ... ... ... : ... .. 3 ... ... : A-3 00 . S05 : ... .. . ... : ... .. . ... ...
ROW 27 : ... .. . ... ... ... : ... .. . ... ... : ... .. . ... : ... .. . ... : ... .. . ... ...
ROW 28 : ... .. . ... ... ... : A-3 00 4 ... ... : A-2 00 . S05 : 1-# 00 A A0C : ... .. . ... ...
ROW 29 : ... .. . ... S05 ... : ... .. . ... ... : ... .. . ... : --- .. . ... : ... .. . ... ...
ROW 2A : A-1 00 8 A01 ... 400 : ... .. 3 ... ... : A-3 00 . S05 : ... .. . ... : ... .. . ... ...
ROW 2B : ... .. . ... S05 ... : ... .. . ... ... : ... .. . ... : ... .. . ... : ... .. . ... ...
ROW 2C : A#1 00 8 ... ... ... : G-3 00 4 ... ... : A-2 00 . S05 : 6-# 00 8 A06 : ... .. . ... ...
ROW 2D : ... .. . ... S05 ... : ... .. . ... ... : ... .. . ... : ... .. . A02 : ... .. . ... ...
ROW 2E : C-2 00 8 ... ... ... : ... .. 3 ... ... : A-3 00 . S05 : ... .. . ... : ... .. . ... ...
ROW 2F : ... .. . ... ... ... : ... .. . ... ... : ... .. . ... : ... .. . ... : ... .. . ... ...
ROW 30 : ... .. . ... ... 474 : G-3 00 4 ... ... : F-2 00 . S05 : 1-# 00 A A0C : ... .. . ... ...
ROW 31 : ... .. . A00 ... ... : ... .. . ... ... : ... .. . ... : --- .. . ... : ... .. . ... ...
ROW 32 : ... .. . ... ... 476 : ... .. 3 ... ... : F-3 00 . S05 : 7-# 00 7 A08 : ... .. . ... ...
ROW 33 : ... .. . ... ... ... : ... .. . ... ... : ... .. . ... : ... .. . ... : ... .. . ... ...
ROW 34 : ... .. . ... ... ... : ... .. . 461 ... : F-2 00 . S05 : 1-# 00 A A0C : ... .. . ... ...
ROW 35 : ... .. . ... ... ... : ... .. . ... ... : ... .. . ... : 7-# 00 7 A08 : ... .. . ... ...
ROW 36 : ... .. . ... ... ... : A-3 00 4 400 ... : F-3 00 . S05 : ... .. . ... : ... .. . ... ...
ROW 37 : ... .. . ... ... ... : ... .. . ... ... : ... .. . ... : 7-# 00 7 A08 : ... .. . ... ...
ROW 38 : ... .. . ... ... ... : ... .. 3 ... ... : F-2 00 . S05 : 1-# 00 A A0C : ... .. . ... ...
ROW 39 : ... .. . ... ... ... : C-4 00 7 A04 V00 : F-3 00 . S05 : 6-# 00 8 A06 : ... .. . ... ...
ROW 3A : ... .. . ... ... ... : D-4 00 7 ... ... : F-2 00 . S05 : 6-# 00 8 A06 : ... .. . ... ...
ROW 3B : --- .. . ... ... ... : E-4 00 7 ... ... : ... .. . ... : ... .. . ... : ... .. . ... ...
ROW 3C : C-2 00 8 A01 ... 400 : D-4 00 7 ... ... : ... .. . ... : 1-# 00 A A0C : ... .. . ... ...
ROW 3D : ... .. . ... ... ... : C-4 00 7 ... ... : F-3 00 . S05 : 6-# 00 8 A06 : ... .. . ... ...
ROW 3E : ... .. . ... ... ... : A#3 00 7 ... ... : ... .. . ... : 7-# 00 7 A08 : ... .. . ... ...
ROW 3F : ... .. . ... S05 ... : A-3 00 7 ... ... : F-3 00 . S05 : 6-# 00 8 A06 : ... .. . ... ...

PATTERN 05
ROW 00 : E-2 00 8 Q41 V01 A01 : ... .. . ... ... : A#2 00 . S05 : 9-# 00 A A05 : ... .. . ... ...
ROW 01 : ... .. . ... ... ... : A#2 00 4 V02 A00 : ... .. . ... : ... .. . A03 : ... .. . ... ...
ROW 02 : ... .. . ... ... 474 : D-3 00 4 ... ... : A#3 00 . S05 : ... .. . A01 : ... .. . ... ...
ROW 03 : ... .. . ... S05 ... : F-3 00 4 ... ... : ... .. . ... : ... .. . ... : ... .. . ... ...
ROW 04 : E-2 00 8 ... ... 400 : D-4 00 7 A04 V00 : A#2 00 . S05 : 6-# 00 8 A06 : ... .. . ... ...
ROW 05 : ... .. . ... ... ... : ... .. . A01 ... : ... .. . ... : ... .. . A02 : ... .. . ... ...
ROW 06 : ... .. . ... ... ... : ... .. . ... ... : A#3 00 . S05 : ... .. . ... : ... .. . ... ...
ROW 07 : ... .. . ... S05 ... : ... .. . ... ... : ... .. . ... : ... .. . ... : ... .. . ... ...
ROW 08 : F-2 00 8 ... ... ... : D-4 00 7 A04 V00 : A#2 00 . S05 : 1-# 00 A A0C : ... .. . ... ...
ROW 09 : ... .. . ... ... ... : ... .. . ... ... : A#2 00 . S05 : --- .. . ... : ... .. . ... ...
ROW 0A : ... .. . ... S05 ... : D-4 00 7 ... ... : A#3 00 . S05 : 7-# 00 7 A08 : ... .. . ... ...
ROW 0B : G-2 00 8 ... ... ... : D-4 00 7 ... ... : ... .. . ... : ... .. . ... : ... .. . ... ...
ROW 0C : --- .. . ... ... ... : A-3 00 2 V02 A00 : A#2 00 . S05 : 6-# 00 8 A06 : ... .. . ... ...
ROW 0D : F-2 00 2 ... S05 ... : ... .. . ... ... : ... .. . ... : 7-# 00 7 A08 : ... .. . ... ...
ROW 0E : G-2 00 8 ... ... ... : ... .. . ... ... : A#3 00 . S05 : ... .. . ... : ... .. . ... ...
ROW 0F : ... .. . ... S05 ... : ... .. . ... ... : ... .. . ... : 7-# 00 7 A08 : ... .. . ... ...
ROW 10 : E-2 00 8 Q41 ... ... : ... .. . ... ... : G-2 00 . S05 : 9-# 00 A A05 : ... .. . ... ...
ROW 11 : ... .. . ... ... ... : A#2 00 4 V02 A00 : ... .. . ... : ... .. . A03 : ... .. . ... ...
ROW 12 : ... .. . ... ... 474 : D-3 00 4 ... ... : G-3 00 . S05 : ... .. . A01 : ... .. . ... ...
ROW 13 : ... .. . ... S05 ... : F-3 00 4 ... ... : ... .. . ... : ... .. . ... : ... .. . ... ...
ROW 14 : E-2 00 8 ... ... 400 : D-4 00 7 A04 V00 : G-2 00 . S05 : 6-# 00 8 A06 : ... .. . ... ...
ROW 15 : ... .. . ... ... ... : ... .. . A01 ... : ... .. . ... : ... .. . A02 : ... .. . ... ...
ROW 16 : ... .. . ... ... ... : ... .. . ... ... : G-3 00 . S05 : ... .. . ... : ... .. . ... ...
ROW 17 : ... .. . ... S05 ... : ... .. . ... ... : ... .. . ... : ... .. . ... : ... .. . ... ...
ROW 18 : D-2 00 8 ... ... ... : D-4 00 7 A04 V00 : G-2 00 . S05 : 1-# 00 A A0C : ... .. . ... ...
ROW 19 : ... .. . ... ... ... : ... .. . ... ... : G-2 00 . S05 : --- .. . ... : ... .. . ... ...
ROW 1A : ... .. . ... S05 ... : D-4 00 7 ... ... : G-3 00 . S05 : 7-# 00 7 A08 : ... .. . ... ...
ROW 1B : E-2 00 8 ... ... ... : D-4 00 7 ... ... : ... .. . ... : ... .. . ... : ... .. . ... ...
ROW 1C : --- .. . ... ... ... : G-3 00 2 V02 A00 : G-2 00 . S05 : 6-# 00 8 A06 : ... .. . ... ...
ROW 1D : D-2 00 2 ... S05 ... : ... .. . ... ... : ... .. . ... : 7-# 00 7 A08 : ... .. . ... ...
ROW 1E : E-2 00 8 ... ... ... : ... .. . ... ... : G-3 00 . S05 : 7-# 00 7 A08 : ... .. . ... ...
ROW 1F : ... .. . ... S05 ... : ... .. . ... ... : ... .. . ... : ... .. . ... : ... .. . ... ...
ROW 20 : D-2 00 8 Q42 ... ... : C-4 00 4 V02 A00 : A-2 00 . S05 : 1-# 00 A A0C : ... .. . ... ...
ROW 21 : ... .. . ... ... ... : ... .. . ... ... : ... .. . ... : --- .. . ... : ... .. . ... ...
ROW 22 : ... .. . ... ... 474 : ... .. 3 ... ... : A-3 00 . S05 : ... .. . ... : ... .. . ... ...
ROW 23 : ... .. . A00 ... ... : ... .. . ... ... : ... .. . ... : ... .. . ... : ... .. . ... ...
ROW 24 : ... .. . ... ... ... : A#3 00 4 ... ... : A-2 00 . S05 : 6-# 00 8 A06 : ... .. . ... ...
ROW 25 : ... .. . ... ... ... : ... .. . ... ... : ... .. . ... : ... .. . A02 : ... .. . ... ...
ROW 26 : ... .. . ... ... ... : ... .. 3 ... ... : A-3 00 . S05 : ... .. . ... : ... .. . ... ...
ROW 27 : ... .. . ... ... ... : ... .. . ... ... : ... .. . ... : ... .. . ... : ... .. . ... ...
ROW 28 : ... .. . ... ... ... : A-3 00 4 ... ... : A-2 00 . S05 : 1-# 00 A A0C : ... .. . ... ...
ROW 29 : ... .. . ... S05 ... : ... .. . ... ... : ... .. . ... : --- .. . ... : ... .. . ... ...
ROW 2A : D-2 00 8 A01 ... 400 : ... .. 3 ... ... : A-3 00 . S05 : ... .. . ... : ... .. . ... ...
ROW 2B : ... .. . ... S05 ... : ... .. . ... ... : ... .. . ... : ... .. . ... : ... .. . ... ...
ROW 2C : E-2 00 8 ... ... ... : G-3 00 4 ... ... : A-2 00 . S05 : 6-# 00 8 A06 : ... .. . ... ...
ROW 2D : ... .. . ... S05 ... : ... .. . ... ... : ... .. . ... : ... .. . A02 : ... .. . ... ...
ROW 2E : F-2 00 8 ... ... ... : ... .. 3 ... ... : A-3 00 . S05 : ... .. . ... : ... .. . ... ...
ROW 2F : ... .. . ... S05 ... : ... .. . ... ... : ... .. . ... : ... .. . ... : ... .. . ... ...
ROW 30 : G-2 00 8 ... ... ... : A#3 00 4 ... ... : A-2 00 . S05 : 1-# 00 A A0C : ... .. . ... ...
ROW 31 : ... .. . ... S05 ... : ... .. . ... ... : ... .. . ... : --- .. . ... : ... .. . ... ...
ROW 32 : A-2 00 8 ... ... ... : ... .. 3 ... ... : A-3 00 . S05 : ... .. . ... : ... .. . ... ...
ROW 33 : ... .. 3 ... S05 ... : ... .. . ... ... : ... .. . ... : ... .. . ... : ... .. . ... ...
ROW 34 : A#2 00 8 ... ... ... : A-3 00 4 ... ... : A-2 00 . S05 : 6-# 00 8 A06 : ... .. . ... ...
ROW 35 : ... .. . ... S05 ... : ... .. . ... ... : ... .. . ... : ... .. . A02 : ... .. . ... ...
ROW 36 : A-2 00 8 ... ... ... : ... .. 3 ... ... : A-3 00 . S05 : ... .. . ... : ... .. . ... ...
ROW 37 : ... .. . ... ... ... : ... .. . ... ... : ... .. . ... : ... .. . ... : ... .. . ... ...
ROW 38 : ... .. . ... ... 472 : G-3 00 4 ... ... : A-3 00 . S05 : 1-# 00 A A0C : ... .. . ... ...
ROW 39 : ... .. . ... S05 ... : ... .. . ... ... : A-2 00 . S05 : 6-# 00 8 A06 : ... .. . ... ...
ROW 3A : G-2 00 8 M61 S0B 400 : ... .. 3 ... ... : A-3 00 . S05 : ... .. . A02 : ... .. . ... ...
ROW 3B : F-2 00 8 G06 ... ... : ... .. . ... ... : A-3 00 . S05 : 6-# 00 8 A06 : ... .. . ... ...
ROW 3C : G-2 00 8 G06 ... ... : A-3 00 4 ... ... : A-2 00 . S05 : 1-# 00 A A0C : ... .. . ... ...
ROW 3D : F-2 00 8 G03 ... ... : ... .. . ... ... : A-3 00 . S05 : 6-# 00 8 A06 : ... .. . ... ...
ROW 3E : E-2 00 8 ... ... ... : ... .. 3 ... ... : A-2 00 . S05 : 6-# 00 8 A06 : ... .. . ... ...
ROW 3F : ... .. . ... S05 ... : ... .. . ... ... : A-3 00 . S05 : 6-# 00 8 A06 : ... .. . ... ...

PATTERN 06
ROW 00 : A-2 00 9 S05 V01 A01 : D-4 00 7 A04 V00 : D-3 00 . S05 : 9-# 00 A A05 : ... .. . ... ...
ROW 01 : A-2 00 9 S05 ... ... : D-4 00 7 ... ... : ... .. . ... : ... .. . A03 : ... .. . ... ...
ROW 02 : G-2 00 9 S05 ... ... : C-4 00 7 ... ... : D-3 00 . S05 : ... .. . A01 : ... .. . ... ...
ROW 03 : A-2 00 3 S05 ... ... : A-3 00 7 ... ... : ... .. . ... : ... .. . ... : ... .. . ... ...
ROW 04 : F-2 00 9 S05 ... ... : C-4 00 7 ... ... : D-3 00 . S05 : 6-# 00 8 A06 : ... .. . ... ...
ROW 05 : G-2 00 3 S05 ... ... : D-4 00 7 ... ... : ... .. . ... : ... .. . A02 : ... .. . ... ...
ROW 06 : D-2 00 9 S05 ... ... : ... .. . ... ... : D-3 00 . S05 : ... .. . ... : ... .. . ... ...
ROW 07 : F-2 00 3 S05 ... ... : D-4 00 7 ... ... : ... .. . ... : ... .. . ... : ... .. . ... ...
ROW 08 : F-2 00 9 ... ... ... : C-4 00 7 ... ... : D-3 00 . S05 : 1-# 00 A A0C : ... .. . ... ...
ROW 09 : ... .. . ... ... 476 : A-3 00 7 ... ... : D-3 00 . S05 : --- .. . ... : ... .. . ... ...
ROW 0A : ... .. . S05 ... ... : C-4 00 7 ... ... : D-3 00 . S05 : ... .. . ... : ... .. . ... ...
ROW 0B : G-2 00 9 S05 ... 400 : D-4 00 7 ... ... : ... .. . ... : ... .. . ... : ... .. . ... ...
ROW 0C : F-2 00 3 ... ... ... : ... .. . ... ... : D-3 00 . S05 : 6-# 00 8 A06 : ... .. . ... ...
ROW 0D : ... .. . S05 ... ... : D-4 00 7 ... ... : ... .. . ... : ... .. . A02 : ... .. . ... ...
ROW 0E : G-2 00 3 S05 ... ... : ... .. . ... ... : D-3 00 . S05 : ... .. . ... : ... .. . ... ...
ROW 0F : A-1 00 9 S05 ... ... : --- .. . ... ... : ... .. . ... : ... .. . ... : ... .. . ... ...
ROW 10 : A-2 00 9 S05 ... ... : D-4 00 7 ... ... : A#2 00 . S05 : 9-# 00 A A05 : ... .. . ... ...
ROW 11 : A-2 00 9 S05 ... ... : D-4 00 7 ... ... : ... .. . ... : ... .. . A03 : ... .. . ... ...
ROW 12 : G-2 00 9 S05 ... ... : C-4 00 7 ... ... : A#2 00 . S05 : ... .. . A01 : ... .. . ... ...
ROW 13 : A-2 00 3 S05 ... ... : A-3 00 7 ... ... : ... .. . ... : ... .. . ... : ... .. . ... ...
ROW 14 : F-2 00 9 S05 ... ... : C-4 00 7 ... ... : A#2 00 . S05 : 6-# 00 8 A06 : ... .. . ... ...
ROW 15 : G-2 00 3 S05 ... ... : D-4 00 7 ... ... : ... .. . ... : ... .. . A02 : ... .. . ... ...
ROW 16 : D-2 00 9 S05 ... ... : ... .. . ... ... : A#2 00 . S05 : ... .. . ... : ... .. . ... ...
ROW 17 : F-2 00 3 S05 ... ... : D-4 00 7 ... ... : ... .. . ... : ... .. . ... : ... .. . ... ...
ROW 18 : F-2 00 9 ... ... ... : C-4 00 7 ... ... : A#2 00 . S05 : 1-# 00 A A0C : ... .. . ... ...
ROW 19 : ... .. . ... ... 476 : A-3 00 7 ... ... : A#2 00 . S05 : --- .. . ... : ... .. . ... ...
ROW 1A : ... .. . S05 ... ... : C-4 00 7 ... ... : A#2 00 . S05 : ... .. . ... : ... .. . ... ...
ROW 1B : G-2 00 9 S05 ... 400 : D-4 00 7 ... ... : ... .. . ... : ... .. . ... : ... .. . ... ...
ROW 1C : F-2 00 3 ... ... ... : ... .. . ... ... : A#2 00 . S05 : 6-# 00 8 A06 : ... .. . ... ...
ROW 1D : ... .. . S05 ... ... : D-4 00 7 ... ... : ... .. . ... : ... .. . A02 : ... .. . ... ...
ROW 1E : G-2 00 3 S05 ... 400 : ... .. . ... ... : A#2 00 . S05 : ... .. . ... : ... .. . ... ...
ROW 1F : ... .. . ... ... ... : --- .. . ... ... : ... .. . ... : ... .. . ... : ... .. . ... ...
ROW 20 : F-2 00 8 ... ... ... : G-3 00 3 V02 A00 : G-2 00 . S05 : 1-# 00 A A0C : ... .. . ... ...
ROW 21 : ... .. . ... ... ... : ... .. . ... ... : ... .. . ... : --- .. . ... : ... .. . ... ...
ROW 22 : ... .. . ... ... 474 : G-3 00 7 A04 V01 : G-2 00 . S05 : ... .. . ... : ... .. . ... ...
ROW 23 : ... .. . S05 ... ... : A-3 00 7 ... ... : ... .. . ... : ... .. . ... : ... .. . ... ...
ROW 24 : E-2 00 8 S05 ... 400 : C-4 00 7 ... ... : G-2 00 . S05 : 6-# 00 8 A06 : ... .. . ... ...
ROW 25 : F-2 00 2 ... ... ... : E-4 00 7 ... ... : ... .. . ... : ... .. . A02 : ... .. . ... ...
ROW 26 : F-2 00 8 ... ... ... : --- .. . ... ... : G-2 00 . S05 : ... .. . ... : ... .. . ... ...
ROW 27 : ... .. . ... ... ... : ... .. . ... ... : ... .. . ... : ... .. . ... : ... .. . ... ...
ROW 28 : ... .. . ... ... ... : A-3 00 7 ... ... : G-2 00 . S05 : 1-# 00 A A0C : ... .. . ... ...
ROW 29 : ... .. . S05 ... ... : C-4 00 7 ... ... : G-2 00 . S05 : --- .. . ... : ... .. . ... ...
ROW 2A : E-2 00 8 ... ... ... : E-4 00 7 ... ... : G-2 00 . S05 : ... .. . ... : ... .. . ... ...
ROW 2B : ... .. . S05 ... ... : G-4 00 7 ... ... : ... .. . ... : ... .. . ... : ... .. . ... ...
ROW 2C : D-2 00 8 ... ... ... : --- .. . ... ... : G-2 00 . S05 : 6-# 00 8 A06 : ... .. . ... ...
ROW 2D : ... .. . S05 ... ... : G-4 00 7 ... ... : ... .. . ... : ... .. . A02 : ... .. . ... ...
ROW 2E : E-2 00 8 ... ... ... : ... .. . A01 ... : G-2 00 . S05 : ... .. . ... : ... .. . ... ...
ROW 2F : ... .. . S05 ... ... : ... .. . ... ... : ... .. . ... : ... .. . ... : ... .. . ... ...
ROW 30 : E-2 00 8 ... ... ... : A-3 00 3 V02 A00 : A-2 00 . S05 : 1-# 00 A A0C : ... .. . ... ...
ROW 31 : ... .. . ... ... ... : ... .. . ... ... : ... .. . ... : --- .. . ... : ... .. . ... ...
ROW 32 : ... .. . ... ... 474 : G-3 00 7 A04 V01 : A-2 00 . S05 : ... .. . ... : ... .. . ... ...
ROW 33 : ... .. . ... ... ... : A-3 00 7 ... ... : ... .. . ... : ... .. . ... : ... .. . ... ...
ROW 34 : ... .. . ... ... ... : C-4 00 7 ... ... : A-2 00 . S05 : 6-# 00 8 A06 : ... .. . ... ...
ROW 35 : ... .. . S05 ... ... : E-4 00 7 ... ... : ... .. . ... : ... .. . A02 : ... .. . ... ...
ROW 36 : A-2 00 8 ... ... 400 : --- .. . ... ... : A-2 00 . S05 : ... .. . ... : ... .. . ... ...
ROW 37 : ... .. . ... ... ... : ... .. . ... ... : ... .. . ... : ... .. . ... : ... .. . ... ...
ROW 38 : ... .. . ... ... 474 : A-3 00 7 A04 V01 : A-2 00 . S03 : 1-# 00 A A0C : ... .. . ... ...
ROW 39 : ... .. . ... S05 ... : C-4 00 7 ... ... : A-3 00 . S05 : --- .. . ... : ... .. . ... ...
ROW 3A : G-2 00 8 M61 S0B 400 : E-4 00 7 ... ... : A-2 00 . S03 : ... .. . ... : ... .. . ... ...
ROW 3B : F-2 00 8 G06 ... ... : G-4 00 7 ... ... : A-2 00 . S05 : ... .. . ... : ... .. . ... ...
ROW 3C : G-2 00 8 G06 ... ... : ... .. . ... ... : A-3 00 . S05 : 6-# 00 8 A06 : ... .. . ... ...
ROW 3D : F-2 00 8 G03 ... ... : F-4 00 7 ... ... : ... .. . ... : 6-# 00 8 A06 : ... .. . ... ...
ROW 3E : E-2 00 8 ... ... ... : E-4 00 7 ... ... : G-3 00 . S05 : ... .. . A02 : ... .. . ... ...
ROW 3F : ... .. . ... S05 ... : D-4 00 7 ... ... : ... .. . ... : ... .. . ... : ... .. . ... ...

PATTERN 07
ROW 00 : A-2 00 9 S05 V01 A01 : D-4 00 7 A04 V00 : D-3 00 . S05 : 9-# 00 A A05 : ... .. . ... ...
ROW 01 : A-2 00 9 S05 ... ... : D-4 00 7 ... ... : ... .. . ... : ... .. . A03 : ... .. . ... ...
ROW 02 : G-2 00 9 S05 ... ... : C-4 00 7 ... ... : D-3 00 . S05 : ... .. . A01 : ... .. . ... ...
ROW 03 : A-2 00 3 S05 ... ... : A-3 00 7 ... ... : ... .. . ... : ... .. . ... : ... .. . ... ...
ROW 04 : F-2 00 9 S05 ... ... : C-4 00 7 ... ... : D-3 00 . S05 : 6-# 00 8 A06 : ... .. . ... ...
ROW 05 : G-2 00 3 S05 ... ... : D-4 00 7 ... ... : ... .. . ... : ... .. . A02 : ... .. . ... ...
ROW 06 : D-2 00 9 S05 ... ... : ... .. . ... ... : D-3 00 . S05 : ... .. . ... : ... .. . ... ...
ROW 07 : F-2 00 3 S05 ... ... : D-4 00 7 ... ... : ... .. . ... : ... .. . ... : ... .. . ... ...
ROW 08 : F-2 00 9 ... ... ... : C-4 00 7 ... ... : D-3 00 . S05 : 1-# 00 A A0C : ... .. . ... ...
ROW 09 : ... .. . ... ... 476 : A-3 00 7 ... ... : D-3 00 . S05 : --- .. . ... : ... .. . ... ...
ROW 0A : ... .. . S05 ... ... : C-4 00 7 ... ... : D-3 00 . S05 : ... .. . ... : ... .. . ... ...
ROW 0B : G-2 00 9 S05 ... 400 : D-4 00 7 ... ... : ... .. . ... : ... .. . ... : ... .. . ... ...
ROW 0C : F-2 00 3 ... ... ... : ... .. . ... ... : D-3 00 . S05 : 6-# 00 8 A06 : ... .. . ... ...
ROW 0D : ... .. . S05 ... ... : D-4 00 7 ... ... : ... .. . ... : ... .. . A02 : ... .. . ... ...
ROW 0E : G-2 00 3 S05 ... 400 : ... .. . ... ... : D-3 00 . S05 : ... .. . ... : ... .. . ... ...
ROW 0F : A-1 00 9 S05 ... ... : --- .. . ... ... : ... .. . ... : ... .. . ... : ... .. . ... ...
ROW 10 : A-2 00 9 S05 ... ... : D-4 00 7 ... ... : A#2 00 . S05 : 9-# 00 A A05 : ... .. . ... ...
ROW 11 : A-2 00 9 S05 ... ... : D-4 00 7 ... ... : ... .. . ... : ... .. . A03 : ... .. . ... ...
ROW 12 : G-2 00 9 S05 ... ... : C-4 00 7 ... ... : A#2 00 . S05 : ... .. . A01 : ... .. . ... ...
ROW 13 : A-2 00 3 S05 ... ... : A-3 00 7 ... ... : ... .. . ... : ... .. . ... : ... .. . ... ...
ROW 14 : F-2 00 9 S05 ... ... : C-4 00 7 ... ... : A#2 00 . S05 : 6-# 00 8 A06 : ... .. . ... ...
ROW 15 : G-2 00 3 S05 ... ... : D-4 00 7 ... ... : ... .. . ... : ... .. . A02 : ... .. . ... ...
ROW 16 : D-2 00 9 S05 ... ... : ... .. . ... ... : A#2 00 . S05 : ... .. . ... : ... .. . ... ...
ROW 17 : F-2 00 3 S05 ... ... : D-4 00 7 ... ... : ... .. . ... : ... .. . ... : ... .. . ... ...
ROW 18 : F-2 00 9 ... ... ... : C-4 00 7 ... ... : A#2 00 . S05 : 1-# 00 A A0C : ... .. . ... ...
ROW 19 : ... .. . ... ... 476 : A-3 00 7 ... ... : A#2 00 . S05 : --- .. . ... : ... .. . ... ...
ROW 1A : ... .. . S05 ... ... : C-4 00 7 ... ... : A#2 00 . S05 : ... .. . ... : ... .. . ... ...
ROW 1B : G-2 00 9 S05 ... 400 : D-4 00 7 ... ... : ... .. . ... : ... .. . ... : ... .. . ... ...
ROW 1C : F-2 00 3 ... ... ... : ... .. . ... ... : A#2 00 . S05 : 6-# 00 8 A06 : ... .. . ... ...
ROW 1D : ... .. . S05 ... ... : D-4 00 7 ... ... : ... .. . ... : ... .. . A02 : ... .. . ... ...
ROW 1E : G-2 00 3 S05 ... 400 : ... .. . ... ... : A#2 00 . S05 : ... .. . ... : ... .. . ... ...
ROW 1F : ... .. . ... ... ... : --- .. . ... ... : ... .. . ... : ... .. . ... : ... .. . ... ...
ROW 20 : G-2 00 8 ... ... ... : G-3 00 3 V02 A00 : G-2 00 . S05 : 1-# 00 A A0C : ... .. . ... ...
ROW 21 : ... .. . ... ... ... : ... .. . ... ... : ... .. . ... : --- .. . ... : ... .. . ... ...
ROW 22 : ... .. . ... ... 472 : G-3 00 7 A04 V01 : G-2 00 . S05 : ... .. . ... : ... .. . ... ...
ROW 23 : ... .. . S05 ... ... : A-3 00 7 ... ... : ... .. . ... : ... .. . ... : ... .. . ... ...
ROW 24 : A-2 00 8 ... ... 400 : C-4 00 7 ... ... : G-2 00 . S05 : 6-# 00 8 A06 : ... .. . ... ...
ROW 25 : ... .. . ... ... ... : E-4 00 7 ... ... : ... .. . ... : ... .. . A02 : ... .. . ... ...
ROW 26 : ... .. . ... ... 472 : --- .. . ... ... : G-2 00 . S05 : ... .. . ... : ... .. . ... ...
ROW 27 : ... .. . S05 ... ... : ... .. . ... ... : ... .. . ... : ... .. . ... : ... .. . ... ...
ROW 28 : A#2 00 8 ... ... 400 : A-3 00 7 ... ... : G-2 00 . S05 : 1-# 00 A A0C : ... .. . ... ...
ROW 29 : ... .. . ... ... 472 : C-4 00 7 ... ... : G-2 00 . S05 : --- .. . ... : ... .. . ... ...
ROW 2A : ... .. . S05 ... ... : E-4 00 7 ... ... : G-2 00 . S05 : ... .. . ... : ... .. . ... ...
ROW 2B : A-2 00 8 S05 ... 400 : G-4 00 7 ... ... : ... .. . ... : ... .. . ... : ... .. . ... ...
ROW 2C : ... .. . ... ... ... : --- .. . ... ... : G-2 00 . S05 : 6-# 00 8 A06 : ... .. . ... ...
ROW 2D : ... .. . ... ... ... : G-4 00 7 ... ... : ... .. . ... : ... .. . A02 : ... .. . ... ...
ROW 2E : A-2 00 8 ... ... ... : ... .. . A01 ... : G-2 00 . S05 : ... .. . ... : ... .. . ... ...
ROW 2F : ... .. . S05 ... ... : ... .. . ... ... : ... .. . ... : ... .. . ... : ... .. . ... ...
ROW 30 : A-2 00 8 S05 ... ... : A-3 00 3 V02 A00 : A-2 00 . S05 : 1-# 00 A A0C : ... .. . ... ...
ROW 31 : A-2 00 8 S05 ... ... : ... .. . ... ... : ... .. . ... : --- .. . ... : ... .. . ... ...
ROW 32 : G-2 00 8 S05 ... ... : G-3 00 7 A04 V01 : A-2 00 . S05 : ... .. . ... : ... .. . ... ...
ROW 33 : A-2 00 2 S05 ... ... : A-3 00 7 ... ... : ... .. . ... : ... .. . ... : ... .. . ... ...
ROW 34 : A-2 00 8 S05 ... ... : C-4 00 7 ... ... : A-2 00 . S05 : 6-# 00 8 A06 : ... .. . ... ...
ROW 35 : G-2 00 2 S05 ... ... : E-4 00 7 ... ... : ... .. . ... : ... .. . A02 : ... .. . ... ...
ROW 36 : G-2 00 8 S05 ... ... : --- .. . ... ... : A-2 00 . S05 : ... .. . ... : ... .. . ... ...
ROW 37 : A-2 00 2 S05 ... ... : ... .. . ... ... : ... .. . ... : ... .. . ... : ... .. . ... ...
ROW 38 : F-2 00 8 ... ... ... : A-3 00 7 A04 V01 : A-2 00 . S03 : 1-# 00 A A0C : ... .. . ... ...
ROW 39 : ... .. . ... ... ... : C-4 00 7 ... ... : A-3 00 . S05 : 6-# 00 8 A06 : ... .. . ... ...
ROW 3A : ... .. . S05 ... ... : E-4 00 7 ... ... : A-2 00 . S03 : 6-# 00 8 A06 : ... .. . ... ...
ROW 3B : G-2 00 8 ... ... ... : G-4 00 7 ... ... : A-2 00 . S05 : ... .. . A02 : ... .. . ... ...
ROW 3C : ... .. . ... ... ... : ... .. . ... ... : A-3 00 . S05 : 1-# 00 A A0C : ... .. . ... ...
ROW 3D : ... .. . S05 ... ... : F-4 00 7 ... ... : A-3 00 . S05 : 6-# 00 8 A06 : ... .. . ... ...
ROW 3E : F-2 00 8 ... S0B ... : E-4 00 7 ... ... : A-2 00 . S05 : ... .. . A02 : ... .. . ... ...
ROW 3F : E-2 00 8 G06 ... ... : D-4 00 7 ... ... : ... .. . ... : 6-# 00 8 A06 : ... .. . ... ...

PATTERN 08
ROW 00 : F-2 00 8 G07 V01 A01 : ... .. . ... ... : D-3 00 . S05 : 9-# 00 A A05 : ... .. . ... ...
ROW 01 : E-2 00 8 G03 ... ... : ... .. . ... ... : ... .. . ... : ... .. . A03 : ... .. . ... ...
ROW 02 : ... .. . ... ... ... : ... .. . ... ... : D-3 00 . S05 : ... .. . A01 : ... .. . ... ...
ROW 03 : --- .. . ... ... ... : ... .. . ... ... : ... .. . ... : ... .. . ... : ... .. . ... ...
ROW 04 : D-2 00 8 ... ... ... : ... .. . ... ... : D-3 00 . S05 : 1-# 00 A A0C : ... .. . ... ...
ROW 05 : ... .. . ... ... ... : ... .. . ... ... : ... .. . ... : --- .. . ... : ... .. . ... ...
ROW 06 : ... .. . ... ... 474 : ... .. . ... ... : D-3 00 . S05 : ... .. . ... : ... .. . ... ...
ROW 07 : ... .. . ... ... ... : ... .. . ... ... : ... .. . ... : ... .. . ... : ... .. . ... ...
ROW 08 : ... .. 4 A00 ... 475 : ... .. . ... ... : D-3 00 . S05 : 1-# 00 A A0C : ... .. . ... ...
ROW 09 : ... .. . ... ... ... : ... .. . ... ... : D-3 00 . S05 : --- .. . ... : ... .. . ... ...
ROW 0A : ... .. . ... ... ... : ... .. . ... ... : D-3 00 . S05 : ... .. . ... : ... .. . ... ...
ROW 0B : ... .. . ... ... ... : ... .. . ... ... : ... .. . ... : ... .. . ... : ... .. . ... ...
ROW 0C : ... .. 3 ... ... ... : ... .. . ... ... : D-3 00 . S05 : 1-# 00 A A0C : ... .. . ... ...
ROW 0D : ... .. . ... ... ... : ... .. . ... ... : ... .. . ... : --- .. . ... : ... .. . ... ...
ROW 0E : ... .. . ... ... ... : ... .. . ... ... : D-3 00 . S05 : ... .. . ... : ... .. . ... ...
ROW 0F : ... .. . ... ... ... : ... .. . ... ... : ... .. . ... : ... .. . ... : ... .. . ... ...
ROW 10 : ... .. 2 ... ... ... : ... .. . ... ... : D-3 00 . S05 : 1-# 00 A A0C : ... .. . ... ...
ROW 11 : ... .. . ... ... ... : ... .. . ... ... : ... .. . ... : --- .. . ... : ... .. . ... ...
ROW 12 : D-4 00 6 A04 V00 400 : ... .. . ... ... : D-3 00 . S05 : ... .. . ... : ... .. . ... ...
ROW 13 : ... .. . ... ... ... : ... .. . ... ... : ... .. . ... : ... .. . ... : ... .. . ... ...
ROW 14 : D-4 00 6 ... ... ... : ... .. . ... ... : D-3 00 . S05 : 1-# 00 A A0C : ... .. . ... ...
ROW 15 : D-4 00 6 ... ... ... : ... .. . ... ... : ... .. . ... : --- .. . ... : ... .. . ... ...
ROW 16 : ... .. . ... ... ... : ... .. . ... ... : D-3 00 . S05 : ... .. . ... : ... .. . ... ...
ROW 17 : D-4 00 6 ... ... ... : ... .. . ... ... : ... .. . ... : ... .. . ... : ... .. . ... ...
ROW 18 : ... .. . ... ... ... : ... .. . ... ... : D-3 00 . S05 : 1-# 00 A A0C : ... .. . ... ...
ROW 19 : D-4 00 6 ... ... ... : ... .. . ... ... : D-4 00 . S05 : 6-# 00 8 A06 : ... .. . ... ...
ROW 1A : D-4 00 6 ... ... ... : ... .. . ... ... : D-3 00 . S05 : ... .. . A02 : ... .. . ... ...
ROW 1B : ... .. . ... ... ... : ... .. . ... ... : ... .. . ... : ... .. . ... : ... .. . ... ...
ROW 1C : D-4 00 6 ... ... ... : ... .. . ... ... : D-3 00 . S05 : 1-# 00 A A0C : ... .. . ... ...
ROW 1D : ... .. . ... ... ... : ... .. . ... ... : D-4 00 . S05 : 6-# 00 8 A06 : ... .. . ... ...
ROW 1E : D-4 00 6 ... ... ... : ... .. . ... ... : D-4 00 . S05 : ... .. . A02 : ... .. . ... ...
ROW 1F : D-4 00 7 ... ... B01 : ... .. . ... ... : D-3 00 . S05 : ... .. . ... : ... .. . ... ...
ROW 20 : ... .. . ... ... ... : ... .. . ... ... : ... .. . ... : ... .. . ... : ... .. . ... ...
ROW 21 : ... .. . ... ... ... : ... .. . ... ... : ... .. . ... : ... .. . ... : ... .. . ... ...
ROW 22 : ... .. . ... ... ... : ... .. . ... ... : ... .. . ... : ... .. . ... : ... .. . ... ...
ROW 23 : ... .. . ... ... ... : ... .. . ... ... : ... .. . ... : ... .. . ... : ... .. . ... ...
ROW 24 : ... .. . ... ... ... : ... .. . ... ... : ... .. . ... : ... .. . ... : ... .. . ... ...
ROW 25 : ... .. . ... ... ... : ... .. . ... ... : ... .. . ... : ... .. . ... : ... .. . ... ...
ROW 26 : ... .. . ... ... ... : ... .. . ... ... : ... .. . ... : ... .. . ... : ... .. . ... ...
ROW 27 : ... .. . ... ... ... : ... .. . ... ... : ... .. . ... : ... .. . ... : ... .. . ... ...
ROW 28 : ... .. . ... ... ... : ... .. . ... ... : ... .. . ... : ... .. . ... : ... .. . ... ...
ROW 29 : ... .. . ... ... ... : ... .. . ... ... : ... .. . ... : ... .. . ... : ... .. . ... ...
ROW 2A : ... .. . ... ... ... : ... .. . ... ... : ... .. . ... : ... .. . ... : ... .. . ... ...
ROW 2B : ... .. . ... ... ... : ... .. . ... ... : ... .. . ... : ... .. . ... : ... .. . ... ...
ROW 2C : ... .. . ... ... ... : ... .. . ... ... : ... .. . ... : ... .. . ... : ... .. . ... ...
ROW 2D : ... .. . ... ... ... : ... .. . ... ... : ... .. . ... : ... .. . ... : ... .. . ... ...
ROW 2E : ... .. . ... ... ... : ... .. . ... ... : ... .. . ... : ... .. . ... : ... .. . ... ...
ROW 2F : ... .. . ... ... ... : ... .. . ... ... : ... .. . ... : ... .. . ... : ... .. . ... ...
ROW 30 : ... .. . ... ... ... : ... .. . ... ... : ... .. . ... : ... .. . ... : ... .. . ... ...
ROW 31 : ... .. . ... ... ... : ... .. . ... ... : ... .. . ... : ... .. . ... : ... .. . ... ...
ROW 32 : ... .. . ... ... ... : ... .. . ... ... : ... .. . ... : ... .. . ... : ... .. . ... ...
ROW 33 : ... .. . ... ... ... : ... .. . ... ... : ... .. . ... : ... .. . ... : ... .. . ... ...
ROW 34 : ... .. . ... ... ... : ... .. . ... ... : ... .. . ... : ... .. . ... : ... .. . ... ...
ROW 35 : ... .. . ... ... ... : ... .. . ... ... : ... .. . ... : ... .. . ... : ... .. . ... ...
ROW 36 : ... .. . ... ... ... : ... .. . ... ... : ... .. . ... : ... .. . ... : ... .. . ... ...
ROW 37 : ... .. . ... ... ... : ... .. . ... ... : ... .. . ... : ... .. . ... : ... .. . ... ...
ROW 38 : ... .. . ... ... ... : ... .. . ... ... : ... .. . ... : ... .. . ... : ... .. . ... ...
ROW 39 : ... .. . ... ... ... : ... .. . ... ... : ... .. . ... : ... .. . ... : ... .. . ... ...
ROW 3A : ... .. . ... ... ... : ... .. . ... ... : ... .. . ... : ... .. . ... : ... .. . ... ...
ROW 3B : ... .. . ... ... ... : ... .. . ... ... : ... .. . ... : ... .. . ... : ... .. . ... ...
ROW 3C : ... .. . ... ... ... : ... .. . ... ... : ... .. . ... : ... .. . ... : ... .. . ... ...
ROW 3D : ... .. . ... ... ... : ... .. . ... ... : ... .. . ... : ... .. . ... : ... .. . ... ...
ROW 3E : ... .. . ... ... ... : ... .. . ... ... : ... .. . ... : ... .. . ... : ... .. . ... ...
ROW 3F : ... .. . ... ... ... : ... .. . ... ... : ... .. . ... : ... .. . ... : ... .. . ... ...

PATTERN 09
ROW 00 : ... .. . ... ... ... : A-3 00 7 A04 V01 : ... .. . ... : ... .. . ... : ... .. . ... ...
ROW 01 : ... .. . ... ... ... : ... .. . A01 ... : ... .. . ... : ... .. . ... : ... .. . ... ...
ROW 02 : ... .. . ... ... ... : ... .. . A00 461 : ... .. . ... : ... .. . ... : ... .. . ... ...
ROW 03 : ... .. . ... ... ... : ... .. . ... ... : ... .. . ... : ... .. . ... : ... .. . ... ...
ROW 04 : ... .. . ... ... ... : ... .. . ... ... : ... .. . ... : ... .. . ... : ... .. . ... ...
ROW 05 : ... .. . ... ... ... : ... .. . ... ... : ... .. . ... : ... .. . ... : ... .. . ... ...
ROW 06 : ... .. . ... ... ... : ... .. . ... ... : ... .. . ... : ... .. . ... : ... .. . ... ...
ROW 07 : ... .. . ... ... ... : ... .. . ... ... : ... .. . ... : ... .. . ... : ... .. . ... ...
ROW 08 : ... .. . ... ... ... : ... .. 2 ... ... : ... .. . ... : ... .. . ... : ... .. . ... ...
ROW 09 : ... .. . ... ... ... : ... .. . ... ... : ... .. . ... : ... .. . ... : ... .. . ... ...
ROW 0A : ... .. . ... ... ... : ... .. . ... ... : ... .. . ... : ... .. . ... : ... .. . ... ...
ROW 0B : ... .. . ... ... ... : ... .. . ... ... : ... .. . ... : ... .. . ... : ... .. . ... ...
ROW 0C : ... .. . ... ... ... : ... .. 1 ... ... : ... .. . ... : ... .. . ... : ... .. . ... ...
ROW 0D : ... .. . ... ... ... : ... .. . ... ... : ... .. . ... : ... .. . ... : ... .. . ... ...
ROW 0E : ... .. . ... ... ... : ... .. . ... ... : ... .. . ... : ... .. . ... : ... .. . ... ...
ROW 0F : ... .. . ... ... ... : ... .. . G06 400 : ... .. . ... : ... .. . ... : ... .. . ... ...
ROW 10 : ... .. . ... ... ... : C-2 00 3 V02 A00 : ... .. . ... : ... .. . ... : ... .. . ... ...
ROW 11 : ... .. . ... ... ... : D-2 00 . ... ... : ... .. . ... : ... .. . ... : ... .. . ... ...
ROW 12 : ... .. . ... ... ... : F-2 00 . ... ... : ... .. . ... : ... .. . ... : ... .. . ... ...
ROW 13 : ... .. . ... ... ... : A-2 00 . ... ... : ... .. . ... : ... .. . ... : ... .. . ... ...
ROW 14 : ... .. . ... ... ... : C-3 00 . ... ... : ... .. . ... : ... .. . ... : ... .. . ... ...
ROW 15 : ... .. . ... ... ... : D-3 00 . ... ... : ... .. . ... : ... .. . ... : ... .. . ... ...
ROW 16 : ... .. . ... ... ... : F-3 00 . ... ... : ... .. . ... : ... .. . ... : ... .. . ... ...
ROW 17 : ... .. . ... ... ... : A-3 00 . ... ... : ... .. . ... : ... .. . ... : ... .. . ... ...
ROW 18 : ... .. . ... ... ... : C-4 00 . ... ... : ... .. . ... : ... .. . ... : ... .. . ... ...
ROW 19 : ... .. . ... ... ... : D-4 00 . ... ... : ... .. . ... : ... .. . ... : ... .. . ... ...
ROW 1A : ... .. . ... ... ... : F-4 00 . ... ... : ... .. . ... : ... .. . ... : ... .. . ... ...
ROW 1B : ... .. . ... ... ... : A-4 00 . ... ... : ... .. . ... : ... .. . ... : ... .. . ... ...
ROW 1C : ... .. . ... ... ... : C-5 00 . ... ... : ... .. . ... : ... .. . ... : ... .. . ... ...
ROW 1D : ... .. . ... ... ... : D-5 00 . ... ... : ... .. . ... : ... .. . ... : ... .. . ... ...
ROW 1E : ... .. . ... ... ... : F-5 00 . ... ... : ... .. . ... : ... .. . ... : ... .. . ... ...
ROW 1F : ... .. . ... ... ... : D-4 00 4 ... ... : ... .. . ... : ... .. . ... : ... .. . ... ...
ROW 20 : ... .. . ... ... ... : ... .. . ... ... : ... .. . ... : ... .. . ... : ... .. . ... ...
ROW 21 : ... .. . ... ... ... : ... .. . ... ... : ... .. . ... : ... .. . ... : ... .. . ... ...
ROW 22 : ... .. . ... ... ... : ... .. . ... ... : ... .. . ... : ... .. . ... : ... .. . ... ...
ROW 23 : ... .. . ... ... ... : ... .. . ... ... : ... .. . ... : ... .. . ... : ... .. . ... ...
ROW 24 : ... .. . ... ... ... : ... .. . ... ... : ... .. . ... : ... .. . ... : ... .. . ... ...
ROW 25 : ... .. . ... ... ... : ... .. . ... ... : ... .. . ... : ... .. . ... : ... .. . ... ...
ROW 26 : ... .. . ... ... ... : ... .. . ... ... : ... .. . ... : ... .. . ... : ... .. . ... ...
ROW 27 : ... .. . ... ... ... : ... .. . ... ... : ... .. . ... : ... .. . ... : ... .. . ... ...
ROW 28 : ... .. . ... ... ... : ... .. . ... ... : ... .. . ... : ... .. . ... : ... .. . ... ...
ROW 29 : ... .. . ... ... ... : ... .. . ... ... : ... .. . ... : ... .. . ... : ... .. . ... ...
ROW 2A : ... .. . ... ... ... : ... .. . ... ... : ... .. . ... : ... .. . ... : ... .. . ... ...
ROW 2B : ... .. . ... ... ... : ... .. . ... ... : ... .. . ... : ... .. . ... : ... .. . ... ...
ROW 2C : ... .. . ... ... ... : ... .. . ... ... : ... .. . ... : ... .. . ... : ... .. . ... ...
ROW 2D : ... .. . ... ... ... : ... .. . ... ... : ... .. . ... : ... .. . ... : ... .. . ... ...
ROW 2E : ... .. . ... ... ... : ... .. . ... ... : ... .. . ... : ... .. . ... : ... .. . ... ...
ROW 2F : ... .. . ... ... ... : ... .. . ... ... : ... .. . ... : ... .. . ... : ... .. . ... ...
ROW 30 : ... .. . ... ... ... : ... .. . ... ... : ... .. . ... : ... .. . ... : ... .. . ... ...
ROW 31 : ... .. . ... ... ... : ... .. . ... ... : ... .. . ... : ... .. . ... : ... .. . ... ...
ROW 32 : ... .. . ... ... ... : ... .. . ... ... : ... .. . ... : ... .. . ... : ... .. . ... ...
ROW 33 : ... .. . ... ... ... : ... .. . ... ... : ... .. . ... : ... .. . ... : ... .. . ... ...
ROW 34 : ... .. . ... ... ... : ... .. . ... ... : ... .. . ... : ... .. . ... : ... .. . ... ...
ROW 35 : ... .. . ... ... ... : ... .. . ... ... : ... .. . ... : ... .. . ... : ... .. . ... ...
ROW 36 : ... .. . ... ... ... : ... .. . ... ... : ... .. . ... : ... .. . ... : ... .. . ... ...
ROW 37 : ... .. . ... ... ... : ... .. . ... ... : ... .. . ... : ... .. . ... : ... .. . ... ...
ROW 38 : ... .. . ... ... ... : ... .. . ... ... : ... .. . ... : ... .. . ... : ... .. . ... ...
ROW 39 : ... .. . ... ... ... : ... .. . ... ... : ... .. . ... : ... .. . ... : ... .. . ... ...
ROW 3A : ... .. . ... ... ... : ... .. . ... ... : ... .. . ... : ... .. . ... : ... .. . ... ...
ROW 3B : ... .. . ... ... ... : ... .. . ... ... : ... .. . ... : ... .. . ... : ... .. . ... ...
ROW 3C : ... .. . ... ... ... : ... .. . ... ... : ... .. . ... : ... .. . ... : ... .. . ... ...
ROW 3D : ... .. . ... ... ... : ... .. . ... ... : ... .. . ... : ... .. . ... : ... .. . ... ...
ROW 3E : ... .. . ... ... ... : ... .. . ... ... : ... .. . ... : ... .. . ... : ... .. . ... ...
ROW 3F : ... .. . ... ... ... : ... .. . ... ... : ... .. . ... : ... .. . ... : ... .. . ... ...

TRACK  64   6 150 "Vega"
COLUMNS : 3 3 1 1 2

ORDER 00 : 00 00 00 00 00
ORDER 01 : 01 00 00 01 00
ORDER 02 : 02 01 01 01 00
ORDER 03 : 03 02 02 01 00
ORDER 04 : 04 03 03 02 00
ORDER 05 : 05 04 04 01 00
ORDER 06 : 06 05 05 01 01
ORDER 07 : 05 06 06 01 00
ORDER 08 : 08 07 07 03 00

PATTERN 00
ROW 00 : A-2 00 5 A03 V01 S04 : C#3 00 6 A03 V01 S04 : F#2 00 . ... : 9-# 00 9 A05 : ... .. . F05 Z00
ROW 01 : A-2 00 2 ... ... S05 : C#3 00 2 ... ... S05 : ... .. . S04 : ... .. . A02 : ... .. . F06 ...
ROW 02 : A-2 00 5 ... ... S05 : C#3 00 6 ... ... S05 : ... .. . ... : ... .. . ... : ... .. . ... ...
ROW 03 : A-2 00 5 ... ... S05 : C#3 00 6 ... ... S05 : ... .. . ... : ... .. . ... : ... .. . ... ...
ROW 04 : A-2 00 5 ... ... S04 : C#3 00 6 ... ... S04 : F#2 00 . ... : 6-# 00 8 A06 : ... .. . F05 ...
ROW 05 : A-2 00 2 ... ... S05 : C#3 00 2 ... ... S05 : ... .. . S04 : ... .. . A02 : ... .. . F06 ...
ROW 06 : A-2 00 5 ... ... S05 : C#3 00 6 ... ... S05 : ... .. . ... : A-# 00 2 A03 : ... .. . ... ...
ROW 07 : A-2 00 5 ... ... S05 : C#3 00 6 ... ... S05 : F#2 00 . ... : ... .. . ... : ... .. . ... ...
ROW 08 : A-2 00 5 ... ... S04 : C#3 00 6 ... ... S04 : ... .. . S04 : 1-# 00 A A0C : ... .. . F05 ...
ROW 09 : A-2 00 2 ... ... S05 : C#3 00 2 ... ... S05 : F#2 00 . S04 : --- .. . ... : ... .. . F06 ...
ROW 0A : A-2 00 5 ... ... S05 : C#3 00 6 ... ... S05 : F#2 00 . S04 : 1-# 00 A A0C : ... .. . ... ...
ROW 0B : A-2 00 5 ... ... S05 : C#3 00 6 ... ... S05 : ... .. . ... : 1-# 00 A A0C : ... .. . ... ...
ROW 0C : A-2 00 5 ... ... S04 : C#3 00 6 ... ... S04 : F#2 00 . S04 : 6-# 00 8 A06 : ... .. . F05 ...
ROW 0D : A-2 00 2 ... ... S05 : C#3 00 2 ... ... S05 : ... .. . ... : ... .. . A02 : ... .. . F06 ...
ROW 0E : B-2 00 5 ... ... S05 : D-3 00 6 ... ... S05 : F#2 00 . ... : 1-# 00 A A0C : ... .. . ... ...
ROW 0F : A-2 00 2 ... ... S05 : C#3 00 2 ... ... S05 : ... .. . S04 : --- .. . ... : ... .. . ... ...
ROW 10 : B-2 00 5 ... ... S04 : D-3 00 6 ... ... S04 : F#2 00 . ... : 1-# 00 A A0C : ... .. . F05 ...
ROW 11 : B-2 00 2 ... ... S05 : D-3 00 2 ... ... S05 : ... .. . S04 : --- .. . ... : ... .. . F06 ...
ROW 12 : B-2 00 5 ... ... S05 : D-3 00 6 ... ... S05 : ... .. . ... : A-# 00 2 A03 : ... .. . ... ...
ROW 13 : B-2 00 5 ... ... S05 : D-3 00 6 ... ... S05 : ... .. . ... : ... .. . ... : ... .. . ... ...
ROW 14 : B-2 00 5 ... ... S04 : D-3 00 6 ... ... S04 : F#2 00 . ... : 6-# 00 8 A06 : ... .. . F05 ...
ROW 15 : B-2 00 2 ... ... S05 : D-3 00 2 ... ... S05 : ... .. . S04 : ... .. . A02 : ... .. . F06 ...
ROW 16 : B-2 00 5 ... ... S05 : D-3 00 6 ... ... S05 : ... .. . ... : A-# 00 2 A03 : ... .. . ... ...
ROW 17 : B-2 00 5 ... ... S05 : D-3 00 6 ... ... S05 : F#2 00 . ... : ... .. . ... : ... .. . ... ...
ROW 18 : B-2 00 5 ... ... S04 : D-3 00 6 ... ... S04 : ... .. . ... : 1-# 00 A A0C : ... .. . F05 ...
ROW 19 : B-2 00 2 ... ... S05 : D-3 00 2 ... ... S05 : ... .. . ... : --- .. . ... : ... .. . F06 ...
ROW 1A : B-2 00 5 ... ... S05 : D-3 00 6 ... ... S05 : ... .. . S02 : 1-# 00 A A0C : ... .. . ... ...
ROW 1B : B-2 00 5 ... ... S05 : D-3 00 6 ... ... S05 : ... .. . ... : 1-# 00 A A0C : ... .. . ... ...
ROW 1C : C#3 00 5 ... ... S04 : E-3 00 6 ... ... S04 : F#2 00 . S04 : 6-# 00 8 A06 : ... .. . F05 ...
ROW 1D : B-2 00 2 ... ... S05 : D-3 00 2 ... ... S05 : ... .. . ... : ... .. . A02 : ... .. . F06 ...
ROW 1E : B-2 00 5 ... ... S05 : D-3 00 6 ... ... S05 : F#2 00 . ... : 1-# 00 A A0C : ... .. . ... ...
ROW 1F : C#3 00 2 ... ... S05 : E-3 00 2 ... ... S05 : ... .. . S04 : --- .. . ... : ... .. . ... ...
ROW 20 : A-2 00 5 ... ... S04 : C#3 00 6 ... ... S04 : F#2 00 . ... : 9-# 00 9 A05 : ... .. . F05 ...
ROW 21 : B-2 00 2 ... ... S05 : D-3 00 2 ... ... S05 : ... .. . S04 : ... .. . A02 : ... .. . F06 ...
ROW 22 : A-2 00 5 ... ... S05 : C#3 00 6 ... ... S05 : ... .. . ... : ... .. . ... : ... .. . ... ...
ROW 23 : A-2 00 5 ... ... S05 : C#3 00 6 ... ... S05 : ... .. . ... : ... .. . ... : ... .. . ... ...
ROW 24 : A-2 00 5 ... ... S04 : C#3 00 6 ... ... S04 : F#2 00 . ... : 6-# 00 8 A06 : ... .. . F05 ...
ROW 25 : A-2 00 2 ... ... S05 : C#3 00 2 ... ... S05 : ... .. . S04 : ... .. . A02 : ... .. . F06 ...
ROW 26 : A-2 00 5 ... ... S05 : C#3 00 6 ... ... S05 : ... .. . ... : A-# 00 2 A03 : ... .. . ... ...
ROW 27 : A-2 00 5 ... ... S05 : C#3 00 6 ... ... S05 : F#2 00 . ... : ... .. . ... : ... .. . ... ...
ROW 28 : A-2 00 5 ... ... S04 : C#3 00 6 ... ... S04 : ... .. . S04 : 1-# 00 A A0C : ... .. . F05 ...
ROW 29 : A-2 00 2 ... ... S05 : C#3 00 2 ... ... S05 : F#2 00 . S04 : --- .. . ... : ... .. . F06 ...
ROW 2A : A-2 00 5 ... ... S05 : C#3 00 6 ... ... S05 : F#2 00 . S04 : 1-# 00 A A0C : ... .. . ... ...
ROW 2B : A-2 00 5 ... ... S05 : C#3 00 6 ... ... S05 : ... .. . ... : 1-# 00 A A0C : ... .. . ... ...
ROW 2C : A-2 00 5 ... ... S04 : C#3 00 6 ... ... S04 : F#2 00 . S04 : 6-# 00 8 A06 : ... .. . F05 ...
ROW 2D : A-2 00 2 ... ... S05 : C#3 00 2 ... ... S05 : ... .. . ... : ... .. . A02 : ... .. . F06 ...
ROW 2E : G#2 00 5 ... ... S05 : B-2 00 6 ... ... S05 : F#2 00 . ... : 1-# 00 A A0C : ... .. . ... ...
ROW 2F : A-2 00 2 ... ... S05 : C#3 00 2 ... ... S05 : ... .. . S04 : --- .. . ... : ... .. . ... ...
ROW 30 : G#2 00 5 ... ... S04 : B-2 00 6 ... ... S04 : F#2 00 . ... : 1-# 00 A A0C : ... .. . F05 ...
ROW 31 : G#2 00 2 ... ... S05 : B-2 00 2 ... ... S05 : ... .. . S04 : --- .. . ... : ... .. . F06 ...
ROW 32 : G#2 00 5 ... ... S05 : B-2 00 6 ... ... S05 : ... .. . ... : A-# 00 2 A03 : ... .. . ... ...
ROW 33 : G#2 00 5 ... ... S05 : B-2 00 6 ... ... S05 : ... .. . ... : ... .. . ... : ... .. . ... ...
ROW 34 : G#2 00 5 ... ... S04 : B-2 00 6 ... ... S04 : F#2 00 . ... : 6-# 00 8 A06 : ... .. . F05 ...
ROW 35 : G#2 00 2 ... ... S05 : B-2 00 2 ... ... S05 : ... .. . S04 : ... .. . A02 : ... .. . F06 ...
ROW 36 : G#2 00 5 ... ... S05 : B-2 00 6 ... ... S05 : ... .. . ... : A-# 00 2 A03 : ... .. . ... ...
ROW 37 : G#2 00 5 ... ... S05 : B-2 00 6 ... ... S05 : F#2 00 . ... : ... .. . ... : ... .. . ... ...
ROW 38 : D-1 00 6 V02 ... S04 : B-2 00 6 ... ... S04 : ... .. . ... : 1-# 00 A A0C : ... .. . F05 ...
ROW 39 : F#1 00 7 ... ... S05 : B-2 00 2 ... ... S05 : ... .. . S02 : --- .. . ... : ... .. . F06 ...
ROW 3A : B-1 00 7 ... ... S05 : B-2 00 6 ... ... S05 : F#2 00 . S04 : 1-# 00 A A0C : ... .. . ... ...
ROW 3B : D-2 00 7 ... ... S05 : B-2 00 6 ... ... S05 : ... .. . ... : 1-# 00 A A0C : ... .. . ... ...
ROW 3C : F#2 00 7 ... ... S04 : B-2 00 6 ... ... S04 : F#2 00 . S04 : 9-# 00 9 A05 : ... .. . F05 ...
ROW 3D : B-2 00 7 ... ... S05 : B-2 00 2 ... ... S05 : ... .. . ... : ... .. . A02 : ... .. . F06 ...
ROW 3E : D-3 00 7 ... ... S05 : C#3 00 6 ... ... S05 : F#2 00 . ... : ... .. . ... : ... .. . ... ...
ROW 3F : F#3 00 7 ... ... S05 : B-2 00 2 ... ... S05 : ... .. . S04 : ... .. . ... : ... .. . ... ...

PATTERN 01
ROW 00 : C#2 00 6 V00 A00 400 : C#3 00 6 A03 V01 S04 : F#2 00 . ... : 9-# 00 9 A05 : ... .. . F05 Z08
ROW 01 : ... .. 7 ... ... ... : C#3 00 2 ... ... S05 : ... .. . S04 : ... .. . A02 : ... .. . F06 ...
ROW 02 : ... .. 6 ... ... 474 : C#3 00 6 ... ... S05 : ... .. . ... : ... .. . ... : ... .. . ... ...
ROW 03 : ... .. 5 ... ... ... : C#3 00 6 ... ... S05 : ... .. . ... : ... .. . ... : ... .. . ... ...
ROW 04 : ... .. . ... ... ... : C#3 00 6 ... ... S04 : F#2 00 . ... : 6-# 00 8 A06 : ... .. . F05 ...
ROW 05 : ... .. 4 ... ... ... : C#3 00 2 ... ... S05 : ... .. . S04 : ... .. . A02 : ... .. . F06 ...
ROW 06 : ... .. . ... ... ... : C#3 00 6 ... ... S05 : ... .. . ... : A-# 00 2 A03 : ... .. . ... ...
ROW 07 : ... .. . ... ... ... : C#3 00 6 ... ... S05 : F#2 00 . ... : ... .. . ... : ... .. . ... ...
ROW 08 : A-2 00 6 ... ... 400 : C#3 00 6 P7F ... S04 : ... .. . S04 : 1-# 00 A A0C : ... .. . F05 ...
ROW 09 : ... .. 7 ... ... ... : C#3 00 2 ... ... S05 : F#2 00 . S04 : --- .. . ... : ... .. . F06 ...
ROW 0A : ... .. 6 ... ... 472 : C#3 00 6 ... ... S05 : F#2 00 . S04 : 1-# 00 A A0C : ... .. . ... ...
ROW 0B : ... .. 5 ... ... ... : C#3 00 6 ... ... S05 : ... .. . ... : 1-# 00 A A0C : ... .. . ... ...
ROW 0C : ... .. . ... ... ... : C#3 00 6 ... ... S04 : F#2 00 . S04 : 6-# 00 8 A06 : ... .. . F05 ...
ROW 0D : ... .. 4 ... ... ... : C#3 00 2 ... ... S05 : ... .. . ... : ... .. . A02 : ... .. . F06 ...
ROW 0E : ... .. . ... ... ... : D-3 00 6 P80 ... S05 : F#2 00 . ... : 1-# 00 A A0C : ... .. . ... ...
ROW 0F : ... .. . ... ... ... : C#3 00 2 P7F ... S05 : ... .. . S04 : --- .. . ... : ... .. . ... ...
ROW 10 : ... .. 3 ... ... ... : D-3 00 6 P80 ... S04 : F#2 00 . ... : 1-# 00 A A0C : ... .. . F05 ...
ROW 11 : ... .. . ... ... ... : D-3 00 2 ... ... S05 : ... .. . S04 : --- .. . ... : ... .. . F06 ...
ROW 12 : ... .. . ... ... ... : D-3 00 6 ... ... S05 : ... .. . ... : A-# 00 2 A03 : ... .. . ... ...
ROW 13 : ... .. . ... ... ... : D-3 00 6 ... ... S05 : ... .. . ... : ... .. . ... : ... .. . ... ...
ROW 14 : G#2 00 6 ... ... 400 : D-3 00 6 ... ... S04 : F#2 00 . ... : 6-# 00 8 A06 : ... .. . F05 ...
ROW 15 : ... .. 7 ... ... ... : D-3 00 2 ... ... S05 : ... .. . S04 : ... .. . A02 : ... .. . F06 ...
ROW 16 : ... .. 6 ... ... ... : D-3 00 6 ... ... S05 : ... .. . ... : A-# 00 2 A03 : ... .. . ... ...
ROW 17 : ... .. 5 ... ... ... : D-3 00 6 ... ... S05 : F#2 00 . ... : ... .. . ... : ... .. . ... ...
ROW 18 : F#2 00 6 ... ... ... : D-3 00 6 ... ... S04 : ... .. . ... : 1-# 00 A A0C : ... .. . F05 ...
ROW 19 : ... .. 7 ... ... ... : D-3 00 2 ... ... S05 : ... .. . ... : --- .. . ... : ... .. . F06 ...
ROW 1A : E-2 00 6 ... ... ... : D-3 00 6 ... ... S05 : ... .. . S02 : 1-# 00 A A0C : ... .. . ... ...
ROW 1B : ... .. 5 ... ... ... : D-3 00 6 ... ... S05 : ... .. . ... : 1-# 00 A A0C : ... .. . ... ...
ROW 1C : D-2 00 6 ... ... ... : E-3 00 6 ... ... S04 : F#2 00 . S04 : 6-# 00 8 A06 : ... .. . F05 ...
ROW 1D : ... .. 7 ... ... ... : D-3 00 2 ... ... S05 : ... .. . ... : ... .. . A02 : ... .. . F06 ...
ROW 1E : ... .. 6 ... ... ... : D-3 00 6 ... ... S05 : F#2 00 . ... : 1-# 00 A A0C : ... .. . ... ...
ROW 1F : ... .. 5 ... ... ... : E-3 00 2 ... ... S05 : ... .. . S04 : --- .. . ... : ... .. . ... ...
ROW 20 : C#2 00 6 ... ... ... : C#3 00 6 ... ... S04 : F#2 00 . ... : 9-# 00 9 A05 : ... .. . F05 ...
ROW 21 : C-2 00 6 ... ... ... : D-3 00 2 ... ... S05 : ... .. . S04 : ... .. . A02 : ... .. . F06 ...
ROW 22 : C#2 00 6 ... ... ... : C#3 00 6 ... ... S05 : ... .. . ... : ... .. . ... : ... .. . ... ...
ROW 23 : D-2 00 6 ... ... ... : C#3 00 6 ... ... S05 : ... .. . ... : ... .. . ... : ... .. . ... ...
ROW 24 : C#2 00 6 ... ... 400 : C#3 00 6 ... ... S04 : F#2 00 . ... : 6-# 00 8 A06 : ... .. . F05 ...
ROW 25 : ... .. 7 ... ... ... : C#3 00 2 ... ... S05 : ... .. . S04 : ... .. . A02 : ... .. . F06 ...
ROW 26 : ... .. 6 ... ... 474 : C#3 00 6 ... ... S05 : ... .. . ... : A-# 00 2 A03 : ... .. . ... ...
ROW 27 : ... .. 5 ... ... ... : C#3 00 6 ... ... S05 : F#2 00 . ... : ... .. . ... : ... .. . ... ...
ROW 28 : ... .. . ... ... ... : C#3 00 6 ... ... S04 : ... .. . S04 : 1-# 00 A A0C : ... .. . F05 ...
ROW 29 : ... .. 4 ... ... ... : C#3 00 2 ... ... S05 : F#2 00 . S04 : --- .. . ... : ... .. . F06 ...
ROW 2A : ... .. . ... ... ... : C#3 00 6 ... ... S05 : F#2 00 . ... : 1-# 00 A A0C : ... .. . ... ...
ROW 2B : ... .. . ... ... ... : C#3 00 6 ... ... S05 : ... .. . S04 : 1-# 00 A A0C : ... .. . ... ...
ROW 2C : ... .. 3 ... ... ... : C#3 00 6 ... ... S04 : F#2 00 . S04 : 6-# 00 8 A06 : ... .. . F05 ...
ROW 2D : ... .. . ... ... ... : C#3 00 2 ... ... S05 : ... .. . ... : ... .. . A02 : ... .. . F06 ...
ROW 2E : ... .. . ... ... ... : B-2 00 6 ... ... S05 : F#2 00 . ... : 1-# 00 A A0C : ... .. . ... ...
ROW 2F : ... .. . ... ... ... : C#3 00 2 ... ... S05 : ... .. . S04 : --- .. . ... : ... .. . ... ...
ROW 30 : ... .. 2 ... ... ... : B-2 00 6 ... ... S04 : C#3 00 . ... : 1-# 00 A A0C : ... .. . F05 ...
ROW 31 : ... .. . ... ... ... : B-2 00 2 ... ... S05 : ... .. . S04 : --- .. . ... : ... .. . F06 ...
ROW 32 : ... .. . ... ... ... : B-2 00 6 ... ... S05 : ... .. . ... : A-# 00 2 A03 : ... .. . ... ...
ROW 33 : ... .. . ... ... ... : B-2 00 6 ... ... S05 : ... .. . ... : ... .. . ... : ... .. . ... ...
ROW 34 : G#1 00 6 ... ... 400 : B-2 00 6 ... ... S04 : C#3 00 . ... : 6-# 00 8 A06 : ... .. . F05 ...
ROW 35 : ... .. 7 ... ... ... : B-2 00 2 ... ... S05 : ... .. . S04 : ... .. . A02 : ... .. . F06 ...
ROW 36 : A-1 00 6 ... ... ... : B-2 00 6 ... ... S05 : ... .. . ... : A-# 00 2 A03 : ... .. . ... ...
ROW 37 : ... .. 7 ... ... ... : B-2 00 6 ... ... S05 : C#3 00 . ... : ... .. . ... : ... .. . ... ...
ROW 38 : B-1 00 6 ... ... ... : D-1 00 6 ... V02 S04 : ... .. . ... : 1-# 00 A A0C : ... .. . F05 ...
ROW 39 : ... .. 7 ... ... ... : F#1 00 7 ... ... S05 : ... .. . S02 : --- .. . ... : ... .. . F06 ...
ROW 3A : C#2 00 6 G04 ... ... : B-1 00 7 ... ... S05 : C#3 00 . S04 : 1-# 00 A A0C : ... .. . ... ...
ROW 3B : ... .. 7 ... ... ... : D-2 00 7 ... ... S05 : ... .. . ... : 1-# 00 A A0C : ... .. . ... ...
ROW 3C : ... .. 6 ... ... ... : F#2 00 7 ... ... S04 : C#3 00 . S04 : 6-# 00 8 A06 : ... .. . F05 ...
ROW 3D : D-2 00 6 G02 ... ... : B-2 00 7 ... ... S05 : ... .. . ... : ... .. . A02 : ... .. . F06 ...
ROW 3E : ... .. 7 ... ... ... : D-3 00 7 ... ... S05 : C#3 00 . ... : 1-# 00 A A0C : ... .. . ... ...
ROW 3F : ... .. 6 ... ... ... : F#3 00 7 ... ... S05 : ... .. . S04 : --- .. . ... : ... .. . ... ...

PATTERN 02
ROW 00 : C#2 00 6 V00 A00 400 : D-3 00 6 A03 V01 S04 : D-3 00 . ... : 9-# 00 9 A05 : ... .. . ... ...
ROW 01 : ... .. 7 ... ... ... : D-3 00 2 ... ... S05 : ... .. . S04 : ... .. . A02 : ... .. . ... ...
ROW 02 : ... .. 6 ... ... 474 : D-3 00 6 ... ... S05 : ... .. . ... : ... .. . ... : ... .. . ... ...
ROW 03 : ... .. 5 ... ... ... : D-3 00 6 ... ... S05 : ... .. . ... : ... .. . ... : ... .. . ... ...
ROW 04 : ... .. . ... ... ... : D-3 00 6 ... ... S04 : D-3 00 . ... : 6-# 00 8 A06 : ... .. . ... ...
ROW 05 : ... .. 4 ... ... ... : D-3 00 2 ... ... S05 : ... .. . S04 : ... .. . A02 : ... .. . ... ...
ROW 06 : ... .. . ... ... ... : D-3 00 6 ... ... S05 : D-3 00 . ... : A-# 00 2 A03 : ... .. . ... ...
ROW 07 : ... .. . ... ... ... : D-3 00 6 ... ... S05 : ... .. . ... : ... .. . ... : ... .. . ... ...
ROW 08 : C#3 00 6 ... ... 400 : D-3 00 6 ... ... S04 : ... .. . S02 : 1-# 00 A A0C : ... .. . ... ...
ROW 09 : ... .. 7 ... ... ... : D-3 00 2 ... ... S05 : D-3 00 . S04 : --- .. . ... : ... .. . ... ...
ROW 0A : ... .. 6 ... ... ... : D-3 00 6 ... ... S05 : D-3 00 . S04 : 1-# 00 A A0C : ... .. . ... ...
ROW 0B : ... .. 5 ... ... ... : D-3 00 6 ... ... S05 : ... .. . ... : 1-# 00 A A0C : ... .. . ... ...
ROW 0C : ... .. . ... ... ... : D-3 00 6 ... ... S04 : D-3 00 . S04 : 6-# 00 8 A06 : ... .. . ... ...
ROW 0D : ... .. 4 ... ... ... : D-3 00 2 ... ... S05 : ... .. . ... : ... .. . A02 : ... .. . ... ...
ROW 0E : ... .. . ... ... ... : D-3 00 6 ... ... S05 : D-3 00 . ... : 1-# 00 A A0C : ... .. . ... ...
ROW 0F : ... .. . ... ... ... : D-3 00 2 ... ... S05 : ... .. . S04 : --- .. . ... : ... .. . ... ...
ROW 10 : ... .. 3 ... ... ... : D-3 00 6 ... ... S04 : B-2 00 . ... : 1-# 00 A A0C : ... .. . ... ...
ROW 11 : ... .. . ... ... ... : D-3 00 2 ... ... S05 : ... .. . S04 : --- .. . ... : ... .. . ... ...
ROW 12 : ... .. . ... ... ... : D-3 00 6 ... ... S05 : ... .. . ... : A-# 00 2 A03 : ... .. . ... ...
ROW 13 : ... .. . ... ... ... : D-3 00 6 ... ... S05 : ... .. . ... : ... .. . ... : ... .. . ... ...
ROW 14 : B-2 00 6 ... ... 400 : D-3 00 6 ... ... S04 : B-2 00 . ... : 6-# 00 8 A06 : ... .. . ... ...
ROW 15 : ... .. 7 ... ... ... : D-3 00 2 ... ... S05 : ... .. . S04 : ... .. . A02 : ... .. . ... ...
ROW 16 : C#3 00 6 ... ... ... : D-3 00 6 ... ... S05 : ... .. . ... : A-# 00 2 A03 : ... .. . ... ...
ROW 17 : ... .. 7 ... ... ... : D-3 00 6 ... ... S05 : B-2 00 . ... : ... .. . ... : ... .. . ... ...
ROW 18 : B-2 00 6 ... ... ... : D-3 00 6 ... ... S04 : ... .. . ... : 1-# 00 A A0C : ... .. . ... ...
ROW 19 : ... .. 7 ... ... ... : D-3 00 2 ... ... S05 : ... .. . S04 : --- .. . ... : ... .. . ... ...
ROW 1A : A-2 00 6 G04 ... ... : D-3 00 6 ... ... S05 : ... .. . ... : 1-# 00 A A0C : ... .. . ... ...
ROW 1B : ... .. 7 ... ... ... : D-3 00 6 ... ... S05 : ... .. . ... : 1-# 00 A A0C : ... .. . ... ...
ROW 1C : ... .. 6 ... ... ... : E-3 00 6 ... ... S04 : B-2 00 . S04 : 6-# 00 8 A06 : ... .. . ... ...
ROW 1D : G#2 00 6 G02 ... ... : D-3 00 2 ... ... S05 : ... .. . ... : ... .. . A02 : ... .. . ... ...
ROW 1E : ... .. 7 ... ... ... : D-3 00 6 ... ... S05 : B-2 00 . ... : 1-# 00 A A0C : ... .. . ... ...
ROW 1F : ... .. 6 ... ... ... : E-3 00 2 ... ... S05 : ... .. . S04 : --- .. . ... : ... .. . ... ...
ROW 20 : C#2 00 6 ... ... 400 : C#3 00 6 ... ... S04 : C#3 00 . ... : 1-# 00 A A0C : ... .. . ... ...
ROW 21 : ... .. 7 ... ... ... : D-3 00 2 ... ... S05 : ... .. . S04 : --- .. . ... : ... .. . ... ...
ROW 22 : ... .. 6 ... ... 474 : C#3 00 6 ... ... S05 : ... .. . ... : ... .. . ... : ... .. . ... ...
ROW 23 : ... .. 5 ... ... ... : C#3 00 6 ... ... S05 : ... .. . ... : ... .. . ... : ... .. . ... ...
ROW 24 : ... .. . ... ... ... : C#3 00 6 ... ... S04 : C#3 00 . ... : 1-# 00 A A0C : ... .. . ... ...
ROW 25 : ... .. 4 ... ... ... : C#3 00 2 ... ... S05 : ... .. . S04 : --- .. . ... : ... .. . ... ...
ROW 26 : ... .. . ... ... ... : C#3 00 6 ... ... S05 : ... .. . ... : ... .. . ... : ... .. . ... ...
ROW 27 : ... .. . ... ... ... : C#3 00 6 ... ... S05 : C#3 00 . ... : ... .. . ... : ... .. . ... ...
ROW 28 : ... .. 3 ... ... ... : C#3 00 6 ... ... S04 : ... .. . S04 : 1-# 00 A A0C : ... .. . ... ...
ROW 29 : ... .. . ... ... ... : C#3 00 2 ... ... S05 : C#3 00 . S04 : --- .. . ... : ... .. . ... ...
ROW 2A : ... .. . ... ... ... : C#3 00 6 ... ... S05 : C#3 00 . S04 : ... .. . ... : ... .. . ... ...
ROW 2B : ... .. . ... ... ... : C#3 00 6 ... ... S05 : ... .. . ... : ... .. . ... : ... .. . ... ...
ROW 2C : ... .. 2 ... ... ... : C#3 00 6 ... ... S04 : C#3 00 . S04 : 1-# 00 A A0C : ... .. . ... ...
ROW 2D : ... .. . ... ... ... : C#3 00 2 ... ... S05 : ... .. . ... : --- .. . ... : ... .. . ... ...
ROW 2E : ... .. . ... ... ... : C#3 00 6 ... ... S05 : C#3 00 . ... : ... .. . ... : ... .. . ... ...
ROW 2F : ... .. . ... ... ... : C#3 00 2 ... ... S05 : ... .. . S04 : ... .. . ... : ... .. . ... ...
ROW 30 : ... .. 1 ... ... ... : C#3 00 6 P7F ... S04 : C#3 00 . ... : 1-# 00 A A0C : ... .. . ... ...
ROW 31 : ... .. . ... ... ... : C#3 00 2 ... ... S05 : ... .. . S04 : --- .. . ... : ... .. . ... ...
ROW 32 : ... .. . ... ... ... : C#3 00 6 ... ... S05 : ... .. . ... : A-# 00 2 A03 : ... .. . ... ...
ROW 33 : ... .. . ... ... ... : C#3 00 6 ... ... S05 : ... .. . ... : ... .. . ... : ... .. . ... ...
ROW 34 : B-1 00 6 ... ... 400 : C#3 00 6 ... ... S04 : C#3 00 . ... : 1-# 00 A A0C : ... .. . ... ...
ROW 35 : ... .. 7 ... ... ... : C#3 00 2 ... ... S05 : ... .. . S04 : --- .. . ... : ... .. . ... ...
ROW 36 : C#2 00 6 ... ... ... : C#3 00 6 ... ... S05 : ... .. . ... : A-# 00 2 A03 : ... .. . ... ...
ROW 37 : ... .. 7 ... ... ... : C#3 00 6 ... ... S05 : C#3 00 . ... : ... .. . ... : ... .. . ... ...
ROW 38 : D-2 00 6 ... ... ... : C#1 00 6 P80 V02 S04 : ... .. . S04 : 1-# 00 A A0C : ... .. . ... ...
ROW 39 : ... .. 7 ... ... ... : F-1 00 7 ... ... S05 : C#3 00 . S04 : --- .. . ... : ... .. . ... ...
ROW 3A : E-2 00 6 ... ... ... : G#1 00 7 ... ... S05 : C#3 00 . S04 : 1-# 00 A A0C : ... .. . ... ...
ROW 3B : ... .. 7 ... ... ... : C#2 00 7 ... ... S05 : ... .. . ... : 1-# 00 A A0C : ... .. . ... ...
ROW 3C : F-2 00 6 ... ... ... : F-2 00 7 ... ... S04 : C#3 00 . S04 : 9-# 00 9 A05 : ... .. . ... ...
ROW 3D : ... .. 7 ... ... ... : G#2 00 7 ... ... S05 : ... .. . ... : ... .. . A02 : ... .. . ... ...
ROW 3E : ... .. 6 ... ... ... : C#3 00 7 ... ... S05 : C#3 00 . ... : ... .. . ... : ... .. . ... ...
ROW 3F : ... .. 5 ... ... ... : F-3 00 7 ... ... S05 : ... .. . S04 : ... .. . ... : ... .. . ... ...

PATTERN 03
ROW 00 : F#2 00 6 V00 A00 400 : D-3 00 6 A03 V01 S04 : D-3 00 . ... : 9-# 00 9 A05 : ... .. . ... ...
ROW 01 : ... .. 7 ... ... ... : D-3 00 2 ... ... S05 : ... .. . S04 : ... .. . A02 : ... .. . ... ...
ROW 02 : ... .. 6 ... ... 474 : D-3 00 6 ... ... S05 : ... .. . ... : ... .. . ... : ... .. . ... ...
ROW 03 : ... .. 5 ... ... ... : D-3 00 6 ... ... S05 : ... .. . ... : ... .. . ... : ... .. . ... ...
ROW 04 : ... .. . ... ... ... : D-3 00 6 ... ... S04 : D-3 00 . ... : ... .. . ... : ... .. . ... ...
ROW 05 : ... .. 4 ... ... ... : D-3 00 2 ... ... S05 : ... .. . S04 : ... .. . ... : ... .. . ... ...
ROW 06 : ... .. . ... ... ... : D-3 00 6 ... ... S05 : D-3 00 . ... : ... .. . ... : ... .. . ... ...
ROW 07 : ... .. . ... ... ... : D-3 00 6 ... ... S05 : ... .. . ... : ... .. . ... : ... .. . ... ...
ROW 08 : A-2 00 6 ... ... 400 : D-3 00 6 ... ... S04 : ... .. . S00 : ... .. . ... : ... .. . ... ...
ROW 09 : ... .. 7 ... ... ... : D-3 00 2 ... ... S05 : D-3 00 . S04 : ... .. . ... : ... .. . ... ...
ROW 0A : ... .. 6 ... ... 471 : D-3 00 6 ... ... S05 : D-3 00 . S04 : 1-# 00 A A0C : ... .. . ... ...
ROW 0B : ... .. 5 ... ... ... : D-3 00 6 ... ... S05 : ... .. . ... : 1-# 00 A A0C : ... .. . ... ...
ROW 0C : ... .. . ... ... ... : D-3 00 6 ... ... S04 : D-3 00 . S04 : 6-# 00 8 A06 : ... .. . ... ...
ROW 0D : ... .. 4 ... ... ... : D-3 00 2 ... ... S05 : ... .. . ... : ... .. . A02 : ... .. . ... ...
ROW 0E : ... .. . ... ... ... : E-3 00 6 ... ... S05 : D-3 00 . ... : 1-# 00 A A0C : ... .. . ... ...
ROW 0F : ... .. . ... ... ... : D-3 00 2 ... ... S05 : ... .. . S04 : --- .. . ... : ... .. . ... ...
ROW 10 : ... .. 3 ... ... ... : E-3 00 6 ... ... S04 : E-3 00 . ... : 9-# 00 9 A05 : ... .. . ... ...
ROW 11 : ... .. . ... ... ... : E-3 00 2 ... ... S05 : ... .. . S04 : ... .. . A02 : ... .. . ... ...
ROW 12 : G#2 00 6 G04 ... 400 : E-3 00 6 ... ... S05 : ... .. . ... : ... .. . ... : ... .. . ... ...
ROW 13 : ... .. 7 ... ... ... : E-3 00 6 ... ... S05 : ... .. . ... : ... .. . ... : ... .. . ... ...
ROW 14 : ... .. 6 ... ... ... : E-3 00 6 ... ... S04 : E-3 00 . ... : ... .. . ... : ... .. . ... ...
ROW 15 : A-2 00 6 G02 ... ... : E-3 00 2 ... ... S05 : ... .. . S04 : ... .. . ... : ... .. . ... ...
ROW 16 : ... .. 7 ... ... ... : E-3 00 6 ... ... S05 : ... .. . ... : ... .. . ... : ... .. . ... ...
ROW 17 : ... .. 6 ... ... ... : E-3 00 6 ... ... S05 : E-3 00 . ... : ... .. . ... : ... .. . ... ...
ROW 18 : B-2 00 6 ... ... ... : E-3 00 6 ... ... S04 : ... .. . ... : ... .. . ... : ... .. . ... ...
ROW 19 : ... .. 7 ... ... ... : E-3 00 2 ... ... S05 : ... .. . ... : ... .. . ... : ... .. . ... ...
ROW 1A : A-2 00 6 G04 ... ... : E-3 00 6 ... ... S05 : ... .. . S00 : 1-# 00 A A0C : ... .. . ... ...
ROW 1B : ... .. 7 ... ... ... : E-3 00 6 ... ... S05 : E-3 00 . S04 : 1-# 00 A A0C : ... .. . ... ...
ROW 1C : ... .. 6 ... ... ... : E-3 00 6 ... ... S04 : E-3 00 . S04 : 6-# 00 8 A06 : ... .. . ... ...
ROW 1D : G#2 00 6 G02 ... ... : E-3 00 2 ... ... S05 : ... .. . ... : ... .. . A02 : ... .. . ... ...
ROW 1E : ... .. 7 ... ... ... : F#3 00 6 ... ... S05 : E-3 00 . ... : 1-# 00 A A0C : ... .. . ... ...
ROW 1F : ... .. 6 ... ... ... : E-3 00 2 ... ... S05 : ... .. . S04 : --- .. . D00 : ... .. . ... ...
ROW 20 : C#2 00 6 ... ... ... : F#3 00 6 ... ... ... : F#3 00 . ... : ... .. . ... : ... .. . ... ...
ROW 21 : D-2 00 6 ... ... ... : ... .. . A01 ... ... : ... .. . S04 : ... .. . ... : ... .. . ... ...
ROW 22 : C#2 00 6 ... ... ... : ... .. . A00 ... ... : ... .. . ... : ... .. . ... : ... .. . ... ...
ROW 23 : C-2 00 6 ... ... ... : ... .. . ... ... ... : ... .. . ... : ... .. . ... : ... .. . ... ...
ROW 24 : C#2 00 6 ... ... ... : ... .. . ... ... 471 : F#3 00 . ... : ... .. . ... : ... .. . ... ...
ROW 25 : ... .. 7 ... ... ... : ... .. . ... ... ... : ... .. . S04 : ... .. . ... : ... .. . ... ...
ROW 26 : ... .. 6 ... ... 474 : ... .. . ... ... ... : ... .. . ... : ... .. . ... : ... .. . ... ...
ROW 27 : ... .. 5 ... ... ... : ... .. . ... ... ... : ... .. . ... : ... .. . ... : ... .. . ... ...
ROW 28 : ... .. . ... ... ... : ... .. . ... ... ... : F#3 00 . ... : ... .. . ... : ... .. . ... ...
ROW 29 : ... .. 4 ... ... ... : ... .. . ... ... ... : ... .. . S04 : ... .. . ... : ... .. . ... ...
ROW 2A : ... .. . ... ... ... : ... .. . ... ... ... : ... .. . ... : ... .. . ... : ... .. . ... ...
ROW 2B : ... .. . ... ... ... : ... .. . ... ... ... : ... .. . ... : ... .. . ... : ... .. . ... ...
ROW 2C : ... .. 3 ... ... ... : ... .. . ... ... ... : F#3 00 . ... : ... .. . ... : ... .. . ... ...
ROW 2D : ... .. . ... ... ... : ... .. . ... ... ... : ... .. . S04 : ... .. . ... : ... .. . ... ...
ROW 2E : C#2 00 6 ... ... 400 : ... .. . ... ... ... : ... .. . ... : ... .. . ... : ... .. . ... ...
ROW 2F : ... .. 7 ... ... ... : ... .. . ... G05 400 : ... .. . ... : ... .. . ... : ... .. . ... ...
ROW 30 : C#3 00 6 ... ... ... : F#2 00 6 A03 V00 S04 : F#2 00 . ... : ... .. . ... : ... .. . ... ...
ROW 31 : ... .. 7 ... ... ... : F#2 00 6 ... ... S05 : ... .. . S04 : ... .. . ... : ... .. . ... ...
ROW 32 : ... .. 6 ... ... ... : ... .. . ... ... ... : ... .. . ... : ... .. . ... : ... .. . ... ...
ROW 33 : ... .. 5 ... ... ... : ... .. . ... ... ... : ... .. . ... : ... .. . ... : ... .. . ... ...
ROW 34 : ... .. . ... ... ... : F#2 00 6 ... ... ... : F#2 00 . ... : ... .. . ... : ... .. . ... ...
ROW 35 : ... .. 4 ... ... ... : ... .. . A01 ... ... : ... .. . S04 : ... .. . ... : ... .. . ... ...
ROW 36 : ... .. . ... ... ... : ... .. . A00 ... ... : ... .. . ... : ... .. . ... : ... .. . ... ...
ROW 37 : ... .. . ... ... ... : ... .. . ... ... S05 : F#2 00 . ... : ... .. . ... : ... .. . ... ...
ROW 38 : ... .. 3 ... ... ... : F#1 00 7 A03 V02 S04 : ... .. . S04 : ... .. . ... : ... .. . ... ...
ROW 39 : ... .. . ... A04 ... : A#1 00 7 ... ... S05 : F#3 00 . S04 : ... .. . ... : ... .. . ... ...
ROW 3A : C#1 00 3 V02 400 S05 : C#2 00 7 ... ... S05 : F#2 00 . S04 : ... .. . ... : ... .. . ... ...
ROW 3B : F-1 00 4 ... ... S05 : F-2 00 7 ... ... S05 : ... .. . ... : ... .. . ... : ... .. . ... ...
ROW 3C : G#1 00 4 ... ... S04 : F#2 00 7 ... ... S04 : F#2 00 . S04 : ... .. . ... : ... .. . ... ...
ROW 3D : C#2 00 4 ... ... S05 : A#2 00 7 ... ... S05 : ... .. . ... : ... .. . ... : ... .. . ... ...
ROW 3E : F-2 00 4 ... ... S05 : C#3 00 7 ... ... S05 : F#2 00 . ... : ... .. . ... : ... .. . ... ...
ROW 3F : G#2 00 4 ... ... S05 : F-3 00 7 ... ... S05 : ... .. . S04 : ... .. . ... : ... .. . ... ...

PATTERN 04
ROW 00 : F#2 00 6 V00 A00 ... : C#3 00 6 A03 V01 ... : F#2 00 . ... : ... .. . ... : ... .. . ... ...
ROW 01 : G#2 00 6 ... ... ... : ... .. . ... ... S05 : ... .. . S04 : ... .. . ... : ... .. . ... ...
ROW 02 : F#2 00 6 ... ... ... : ... .. . ... ... ... : F#3 00 . S04 : ... .. . ... : ... .. . ... ...
ROW 03 : F-2 00 6 ... ... ... : C#3 00 2 ... ... ... : ... .. . ... : ... .. . ... : ... .. . ... ...
ROW 04 : F#2 00 6 ... ... ... : C#3 00 6 ... ... S04 : F#2 00 . ... : ... .. . ... : ... .. . ... ...
ROW 05 : ... .. 7 ... ... ... : ... .. . ... ... ... : ... .. . S04 : ... .. . ... : ... .. . ... ...
ROW 06 : ... .. 6 ... ... 474 : C#3 00 6 ... ... S05 : F#3 00 . S04 : ... .. . ... : ... .. . ... ...
ROW 07 : ... .. 5 ... ... ... : C#3 00 6 ... ... S05 : F#2 00 . ... : ... .. . ... : ... .. . ... ...
ROW 08 : ... .. . ... ... ... : C#3 00 6 ... ... S04 : ... .. . S04 : ... .. . ... : ... .. . ... ...
ROW 09 : ... .. 4 ... ... ... : C#3 00 2 ... ... S05 : F#2 00 . S04 : ... .. . ... : ... .. . ... ...
ROW 0A : ... .. . ... ... ... : C#3 00 6 ... ... S05 : F#3 00 . S04 : ... .. . ... : ... .. . ... ...
ROW 0B : ... .. . ... ... ... : C#3 00 6 ... ... S05 : ... .. . ... : ... .. . ... : ... .. . ... ...
ROW 0C : ... .. 3 ... ... ... : C#3 00 6 ... ... S04 : F#2 00 . S04 : ... .. . ... : ... .. . ... ...
ROW 0D : ... .. . ... ... ... : C#3 00 2 ... ... S05 : ... .. . ... : ... .. . ... : ... .. . ... ...
ROW 0E : ... .. . ... ... ... : B-2 00 6 ... ... S05 : F#3 00 . ... : ... .. . ... : ... .. . ... ...
ROW 0F : ... .. . ... ... ... : C#3 00 2 ... ... S05 : ... .. . S04 : ... .. . ... : ... .. . ... ...
ROW 10 : ... .. 2 ... ... ... : B-2 00 6 ... ... S04 : F-2 00 . ... : ... .. . ... : ... .. . ... ...
ROW 11 : ... .. . ... ... ... : B-2 00 2 ... ... S05 : ... .. . S04 : ... .. . ... : ... .. . ... ...
ROW 12 : G#2 00 6 G04 ... 400 : B-2 00 6 ... ... S05 : F-3 00 . S04 : ... .. . ... : ... .. . ... ...
ROW 13 : ... .. 7 ... ... ... : B-2 00 6 ... ... S05 : ... .. . ... : ... .. . ... : ... .. . ... ...
ROW 14 : ... .. 6 ... ... ... : B-2 00 6 ... ... S04 : F-2 00 . ... : ... .. . ... : ... .. . ... ...
ROW 15 : A-2 00 6 G02 ... ... : B-2 00 2 ... ... S05 : ... .. . S04 : ... .. . ... : ... .. . ... ...
ROW 16 : ... .. 7 ... ... ... : B-2 00 6 ... ... S05 : F-3 00 . S04 : ... .. . ... : ... .. . ... ...
ROW 17 : ... .. 6 ... ... ... : B-2 00 6 ... ... S05 : F-2 00 . ... : ... .. . ... : ... .. . ... ...
ROW 18 : A#2 00 6 ... ... ... : B-2 00 6 ... ... S04 : ... .. . S04 : ... .. . ... : ... .. . ... ...
ROW 19 : ... .. 7 ... ... ... : B-2 00 2 ... ... S05 : F-2 00 . S04 : ... .. . ... : ... .. . ... ...
ROW 1A : B-2 00 6 G04 ... ... : B-2 00 6 ... ... S05 : F-3 00 . S04 : ... .. . ... : ... .. . ... ...
ROW 1B : ... .. 7 ... ... ... : B-2 00 6 ... ... S05 : ... .. . ... : ... .. . ... : ... .. . ... ...
ROW 1C : ... .. 6 ... ... ... : B-2 00 6 ... ... S04 : F-2 00 . S04 : ... .. . ... : ... .. . ... ...
ROW 1D : C-3 00 6 G02 ... ... : B-2 00 2 ... ... S05 : ... .. . ... : ... .. . ... : ... .. . ... ...
ROW 1E : ... .. 7 ... ... ... : C#3 00 6 ... ... S05 : F-3 00 . S04 : ... .. . ... : ... .. . ... ...
ROW 1F : ... .. 6 ... ... ... : B-2 00 2 ... ... S05 : F-2 00 . S04 : ... .. . ... : ... .. . ... ...
ROW 20 : C#3 00 6 ... ... ... : C#3 00 6 ... ... S04 : E-2 00 . ... : ... .. . ... : ... .. . ... ...
ROW 21 : D-3 00 6 ... ... ... : C#3 00 2 ... ... S05 : ... .. . S04 : ... .. . ... : ... .. . ... ...
ROW 22 : C#3 00 6 ... ... ... : C#3 00 6 ... ... S05 : E-3 00 . S04 : ... .. . ... : ... .. . ... ...
ROW 23 : C-3 00 6 ... ... ... : C#3 00 6 ... ... S05 : ... .. . ... : ... .. . ... : ... .. . ... ...
ROW 24 : C#3 00 6 ... ... ... : C#3 00 6 P7F ... S04 : E-2 00 . ... : ... .. . ... : ... .. . ... ...
ROW 25 : ... .. 7 ... ... ... : C#3 00 2 ... ... S05 : ... .. . S04 : ... .. . ... : ... .. . ... ...
ROW 26 : ... .. 6 ... ... 472 : C#3 00 6 ... ... S05 : E-3 00 . S04 : ... .. . ... : ... .. . ... ...
ROW 27 : ... .. 5 ... ... ... : C#3 00 6 ... ... S05 : E-2 00 . ... : ... .. . ... : ... .. . ... ...
ROW 28 : ... .. . ... ... ... : C#3 00 6 ... ... S04 : ... .. . S04 : ... .. . ... : ... .. . ... ...
ROW 29 : ... .. 4 ... ... ... : C#3 00 2 ... ... S05 : E-2 00 . S04 : ... .. . ... : ... .. . ... ...
ROW 2A : ... .. . ... ... ... : C#3 00 6 ... ... S05 : E-3 00 . S04 : ... .. . ... : ... .. . ... ...
ROW 2B : ... .. . ... ... ... : C#3 00 6 ... ... S05 : ... .. . ... : ... .. . ... : ... .. . ... ...
ROW 2C : ... .. 3 ... ... ... : C#3 00 6 ... ... S04 : E-2 00 . S04 : ... .. . ... : ... .. . ... ...
ROW 2D : ... .. . ... ... ... : C#3 00 2 ... ... S05 : ... .. . ... : ... .. . ... : ... .. . ... ...
ROW 2E : ... .. . ... ... ... : F#3 00 6 P80 ... S05 : E-3 00 . ... : ... .. . ... : ... .. . ... ...
ROW 2F : ... .. . ... ... ... : C#3 00 2 P7F ... S05 : ... .. . S04 : ... .. . ... : ... .. . ... ...
ROW 30 : ... .. 2 ... ... ... : F#3 00 6 P80 ... S04 : D#2 00 . ... : ... .. . ... : ... .. . ... ...
ROW 31 : ... .. . ... ... ... : F#3 00 2 ... ... S05 : ... .. . S04 : ... .. . ... : ... .. . ... ...
ROW 32 : ... .. . ... ... ... : F#3 00 6 ... ... S05 : D#3 00 . S04 : ... .. . ... : ... .. . ... ...
ROW 33 : ... .. . ... ... ... : F#3 00 6 ... ... S05 : ... .. . ... : ... .. . ... : ... .. . ... ...
ROW 34 : ... .. 1 ... ... ... : F#3 00 6 ... ... S04 : D#2 00 . ... : ... .. . ... : ... .. . ... ...
ROW 35 : ... .. . ... ... ... : F#3 00 2 ... ... S05 : ... .. . S04 : ... .. . ... : ... .. . ... ...
ROW 36 : ... .. . ... ... ... : F#3 00 6 ... ... S05 : D#3 00 . S04 : ... .. . ... : ... .. . ... ...
ROW 37 : ... .. . ... ... ... : F#3 00 6 ... ... S05 : D#2 00 . ... : ... .. . ... : ... .. . ... ...
ROW 38 : ... .. 0 ... ... ... : F#3 00 6 ... ... S04 : ... .. . ... : ... .. . ... : ... .. . ... ...
ROW 39 : ... .. . ... ... 400 : F#3 00 2 ... ... S05 : ... .. . S04 : ... .. . ... : ... .. . ... ...
ROW 3A : F#1 00 4 A03 V02 S05 : F#3 00 6 ... ... S05 : D#3 00 . S04 : ... .. . ... : ... .. . ... ...
ROW 3B : A#1 00 4 ... ... S05 : F#3 00 6 ... ... S05 : D#2 00 . S04 : ... .. . ... : ... .. . ... ...
ROW 3C : C#2 00 4 ... ... S04 : F#3 00 6 ... ... S04 : D#2 00 . S04 : ... .. . ... : ... .. . ... ...
ROW 3D : F-2 00 4 ... ... S05 : F#3 00 2 ... ... S05 : ... .. . ... : ... .. . ... : ... .. . ... ...
ROW 3E : C#2 00 6 A00 V00 ... : D-3 00 6 ... ... S05 : D#2 00 . S04 : ... .. . ... : ... .. . ... ...
ROW 3F : ... .. 7 ... ... ... : F#3 00 2 ... ... S05 : D#3 00 . S04 : ... .. . ... : ... .. . ... ...

PATTERN 05
ROW 00 : F#2 00 6 A00 V00 400 : D-3 00 6 ... ... S04 : B-2 00 . ... : ... .. . ... : ... .. . ... ...
ROW 01 : ... .. 7 ... ... ... : D-3 00 2 ... ... S05 : ... .. . S04 : ... .. . ... : ... .. . ... ...
ROW 02 : ... .. 6 ... ... ... : D-3 00 6 ... ... S05 : B-3 00 . S04 : ... .. . ... : ... .. . ... ...
ROW 03 : ... .. 5 ... ... ... : D-3 00 6 ... ... S05 : ... .. . ... : ... .. . ... : ... .. . ... ...
ROW 04 : A-2 00 6 ... ... ... : D-3 00 6 ... ... S04 : B-2 00 . ... : ... .. . ... : ... .. . ... ...
ROW 05 : ... .. 7 ... ... ... : D-3 00 2 ... ... S05 : ... .. . S04 : ... .. . ... : ... .. . ... ...
ROW 06 : ... .. 6 ... 471 ... : D-3 00 6 ... ... S05 : B-3 00 . S04 : ... .. . ... : ... .. . ... ...
ROW 07 : ... .. 5 ... ... ... : D-3 00 6 ... ... S05 : B-2 00 . ... : ... .. . ... : ... .. . ... ...
ROW 08 : ... .. . ... ... ... : D-3 00 6 ... ... S04 : ... .. . S04 : ... .. . ... : ... .. . ... ...
ROW 09 : ... .. 4 ... ... ... : D-3 00 2 ... ... S05 : B-2 00 . S04 : ... .. . ... : ... .. . ... ...
ROW 0A : G#2 00 6 ... 400 ... : D-3 00 6 ... ... S05 : B-3 00 . S04 : ... .. . ... : ... .. . ... ...
ROW 0B : A-2 00 6 ... ... ... : D-3 00 6 ... ... S05 : ... .. . ... : ... .. . ... : ... .. . ... ...
ROW 0C : B-2 00 6 ... ... ... : D-3 00 6 ... ... S04 : B-2 00 . S04 : ... .. . ... : ... .. . ... ...
ROW 0D : A-2 00 6 ... ... ... : D-3 00 2 ... ... S05 : ... .. . ... : ... .. . ... : ... .. . ... ...
ROW 0E : G#2 00 6 ... ... ... : C#3 00 6 ... ... S05 : B-3 00 . ... : ... .. . ... : ... .. . ... ...
ROW 0F : F#2 00 6 ... ... ... : D-3 00 2 ... ... S05 : ... .. . S04 : ... .. . ... : ... .. . ... ...
ROW 10 : G#2 00 6 ... ... ... : C#3 00 6 ... ... S04 : C#3 00 . ... : ... .. . ... : ... .. . ... ...
ROW 11 : --- .. . ... ... ... : C#3 00 2 ... ... S05 : ... .. . S04 : ... .. . ... : ... .. . ... ...
ROW 12 : ... .. . ... ... ... : C#3 00 6 ... ... S05 : C#4 00 . S04 : ... .. . ... : ... .. . ... ...
ROW 13 : C#2 00 6 S05 ... ... : C#3 00 6 ... ... S05 : ... .. . ... : ... .. . ... : ... .. . ... ...
ROW 14 : C#2 00 6 ... ... ... : C#3 00 6 ... ... S04 : C#3 00 . ... : ... .. . ... : ... .. . ... ...
ROW 15 : ... .. 7 ... ... ... : C#3 00 2 ... ... S05 : ... .. . S04 : ... .. . ... : ... .. . ... ...
ROW 16 : ... .. 6 ... 472 ... : C#3 00 6 ... ... S05 : C#4 00 . S04 : ... .. . ... : ... .. . ... ...
ROW 17 : ... .. 5 ... ... ... : C#3 00 6 ... ... S05 : C#3 00 . ... : ... .. . ... : ... .. . ... ...
ROW 18 : ... .. . ... ... ... : C#3 00 6 ... ... S04 : ... .. . S04 : ... .. . ... : ... .. . ... ...
ROW 19 : G#2 00 6 ... 400 ... : C#3 00 2 ... ... S05 : C#3 00 . S04 : ... .. . ... : ... .. . ... ...
ROW 1A : A-2 00 6 ... ... ... : C#3 00 6 ... ... S05 : C#4 00 . S04 : ... .. . ... : ... .. . ... ...
ROW 1B : B-2 00 6 ... ... ... : C#3 00 6 ... ... S05 : ... .. . ... : ... .. . ... : ... .. . ... ...
ROW 1C : C#3 00 6 ... ... ... : C#3 00 6 ... ... S04 : C#3 00 . S04 : ... .. . ... : ... .. . ... ...
ROW 1D : B-2 00 6 ... ... ... : C#3 00 2 ... ... S05 : ... .. . ... : ... .. . ... : ... .. . ... ...
ROW 1E : A-2 00 6 ... ... ... : D#3 00 6 ... ... S05 : C#4 00 . S04 : ... .. . ... : ... .. . ... ...
ROW 1F : G#2 00 6 ... ... ... : C#3 00 2 ... ... S05 : C#3 00 . S04 : ... .. . ... : ... .. . ... ...
ROW 20 : A-2 00 6 ... ... ... : D#3 00 6 ... ... S04 : C-3 00 . ... : ... .. . ... : ... .. . ... ...
ROW 21 : --- .. . ... ... ... : D#3 00 2 ... ... S05 : ... .. . S04 : ... .. . ... : ... .. . ... ...
ROW 22 : ... .. . ... ... ... : D#3 00 6 ... ... S05 : C-4 00 . S04 : ... .. . ... : ... .. . ... ...
ROW 23 : C#2 00 6 S05 ... ... : D#3 00 6 ... ... S05 : ... .. . ... : ... .. . ... : ... .. . ... ...
ROW 24 : C#3 00 6 ... ... ... : D#3 00 6 ... ... S04 : C-3 00 . ... : ... .. . ... : ... .. . ... ...
ROW 25 : ... .. 7 ... ... ... : D#3 00 2 ... ... S05 : ... .. . S04 : ... .. . ... : ... .. . ... ...
ROW 26 : ... .. 6 ... ... ... : D#3 00 6 ... ... S05 : C-4 00 . S04 : ... .. . ... : ... .. . ... ...
ROW 27 : ... .. 5 ... ... ... : D#3 00 6 ... ... S05 : C-3 00 . ... : ... .. . ... : ... .. . ... ...
ROW 28 : ... .. . ... ... ... : D#3 00 6 ... ... S04 : ... .. . S04 : ... .. . ... : ... .. . ... ...
ROW 29 : ... .. 4 ... ... ... : D#3 00 2 ... ... S05 : C-3 00 . S04 : ... .. . ... : ... .. . ... ...
ROW 2A : ... .. . ... ... ... : D#3 00 6 ... ... S05 : C-4 00 . S04 : ... .. . ... : ... .. . ... ...
ROW 2B : ... .. . ... ... ... : D#3 00 6 ... ... S05 : ... .. . ... : ... .. . ... : ... .. . ... ...
ROW 2C : ... .. 3 ... ... ... : D#3 00 6 ... ... S04 : C-3 00 . S04 : ... .. . ... : ... .. . ... ...
ROW 2D : ... .. . ... ... ... : D#3 00 2 ... ... S05 : ... .. . ... : ... .. . ... : ... .. . ... ...
ROW 2E : B-2 00 6 ... 400 P80 : F#3 00 6 ... ... S05 : C-4 00 . S04 : ... .. . ... : ... .. . ... ...
ROW 2F : C#3 00 6 ... ... ... : D#3 00 2 ... ... S05 : ... .. . ... : ... .. . ... : ... .. . ... ...
ROW 30 : B-2 00 6 ... ... ... : F#3 00 6 ... ... S04 : C#3 00 . ... : ... .. . ... : ... .. . ... ...
ROW 31 : ... .. 7 ... ... ... : F#3 00 2 ... ... S05 : ... .. . S04 : ... .. . ... : ... .. . ... ...
ROW 32 : ... .. 6 ... 472 ... : F#3 00 6 ... ... S05 : C#4 00 . S04 : ... .. . ... : ... .. . ... ...
ROW 33 : ... .. 5 ... ... ... : F#3 00 6 ... ... S05 : ... .. . ... : ... .. . ... : ... .. . ... ...
ROW 34 : ... .. . ... ... ... : F#3 00 6 ... ... S04 : C#3 00 . ... : ... .. . ... : ... .. . ... ...
ROW 35 : ... .. 4 ... ... ... : F#3 00 2 ... ... S05 : ... .. . S04 : ... .. . ... : ... .. . ... ...
ROW 36 : ... .. . ... ... ... : F#3 00 6 ... ... S05 : C#4 00 . S04 : ... .. . ... : ... .. . ... ...
ROW 37 : ... .. . ... ... ... : F#3 00 6 ... ... S05 : C#3 00 . ... : ... .. . ... : ... .. . ... ...
ROW 38 : ... .. 3 ... ... ... : F-3 00 6 ... ... S04 : ... .. . ... : ... .. . ... : ... .. . ... ...
ROW 39 : ... .. . ... ... ... : F#3 00 2 ... ... S05 : ... .. . S04 : ... .. . ... : ... .. . ... ...
ROW 3A : ... .. . ... ... ... : F-3 00 6 ... ... S05 : C#3 00 . S04 : ... .. . ... : ... .. . ... ...
ROW 3B : ... .. . ... ... ... : F-3 00 6 ... ... S05 : C#3 00 . S04 : ... .. . ... : ... .. . ... ...
ROW 3C : ... .. 2 ... ... ... : F-3 00 6 ... ... S04 : C#4 00 . ... : ... .. . ... : ... .. . ... ...
ROW 3D : ... .. . ... ... ... : F-3 00 2 ... ... S05 : ... .. . S04 : ... .. . ... : ... .. . ... ...
ROW 3E : ... .. . ... ... ... : F-3 00 6 ... ... ... : ... .. . ... : ... .. . ... : ... .. . ... ...
ROW 3F : ... .. . ... ... ... : ... .. . ... ... S05 : C#3 00 . S04 : ... .. . ... : ... .. . ... ...

PATTERN 06
ROW 00 : ... .. 1 ... ... ... : C#3 00 6 A03 V01 ... : F#2 00 . ... : ... .. . ... : ... .. . ... ...
ROW 01 : ... .. . ... ... ... : ... .. . ... ... S05 : ... .. . S04 : ... .. . ... : ... .. . ... ...
ROW 02 : ... .. . ... ... ... : ... .. . ... ... ... : F#3 00 . S04 : ... .. . ... : ... .. . ... ...
ROW 03 : ... .. . ... ... ... : C#3 00 2 ... ... ... : ... .. . ... : ... .. . ... : ... .. . ... ...
ROW 04 : D-2 00 6 ... 400 ... : C#3 00 6 ... ... S04 : F#2 00 . ... : ... .. . ... : ... .. . ... ...
ROW 05 : ... .. 7 ... ... ... : ... .. . ... ... ... : ... .. . S04 : ... .. . ... : ... .. . ... ...
ROW 06 : ... .. 6 ... ... ... : C#3 00 6 ... ... S05 : F#3 00 . S04 : ... .. . ... : ... .. . ... ...
ROW 07 : ... .. 5 ... ... ... : C#3 00 6 ... ... S05 : F#2 00 . ... : ... .. . ... : ... .. . ... ...
ROW 08 : B-2 00 6 ... ... ... : C#3 00 6 ... ... S04 : ... .. . S04 : ... .. . ... : ... .. . ... ...
ROW 09 : ... .. 7 ... ... ... : C#3 00 2 ... ... S05 : F#2 00 . S04 : ... .. . ... : ... .. . ... ...
ROW 0A : ... .. 6 ... 472 ... : C#3 00 6 ... ... S05 : F#3 00 . S04 : ... .. . ... : ... .. . ... ...
ROW 0B : ... .. 5 ... ... ... : C#3 00 6 ... ... S05 : ... .. . ... : ... .. . ... : ... .. . ... ...
ROW 0C : ... .. . ... ... ... : C#3 00 6 ... ... S04 : F#2 00 . S04 : ... .. . ... : ... .. . ... ...
ROW 0D : ... .. 4 ... ... ... : C#3 00 2 ... ... S05 : ... .. . ... : ... .. . ... : ... .. . ... ...
ROW 0E : A-2 00 6 ... 400 ... : B-2 00 6 ... ... S05 : F#3 00 . ... : ... .. . ... : ... .. . ... ...
ROW 0F : G#2 00 6 ... ... ... : C#3 00 2 ... ... S05 : ... .. . S04 : ... .. . ... : ... .. . ... ...
ROW 10 : A-2 00 6 ... ... ... : B-2 00 6 ... ... S04 : F-2 00 . ... : ... .. . ... : ... .. . ... ...
ROW 11 : ... .. 7 ... ... ... : B-2 00 2 ... ... S05 : ... .. . S04 : ... .. . ... : ... .. . ... ...
ROW 12 : ... .. 6 ... ... ... : B-2 00 6 ... ... S05 : F-3 00 . S04 : ... .. . ... : ... .. . ... ...
ROW 13 : ... .. 5 ... ... ... : B-2 00 6 ... ... S05 : ... .. . ... : ... .. . ... : ... .. . ... ...
ROW 14 : C#2 00 6 ... ... ... : B-2 00 6 ... ... S04 : F-2 00 . ... : ... .. . ... : ... .. . ... ...
ROW 15 : ... .. 7 ... ... ... : B-2 00 2 ... ... S05 : ... .. . S04 : ... .. . ... : ... .. . ... ...
ROW 16 : ... .. 6 ... 474 ... : B-2 00 6 ... ... S05 : F-3 00 . S04 : ... .. . ... : ... .. . ... ...
ROW 17 : ... .. 5 ... ... ... : B-2 00 6 ... ... S05 : F-2 00 . ... : ... .. . ... : ... .. . ... ...
ROW 18 : ... .. . ... ... ... : B-2 00 6 ... ... S04 : ... .. . S04 : ... .. . ... : ... .. . ... ...
ROW 19 : ... .. 4 ... ... ... : B-2 00 2 ... ... S05 : F-2 00 . S04 : ... .. . ... : ... .. . ... ...
ROW 1A : ... .. . ... ... ... : B-2 00 6 ... ... S05 : F-3 00 . S04 : ... .. . ... : ... .. . ... ...
ROW 1B : ... .. . ... ... ... : B-2 00 6 ... ... S05 : ... .. . ... : ... .. . ... : ... .. . ... ...
ROW 1C : ... .. 3 ... ... ... : B-2 00 6 ... ... S04 : F-2 00 . S04 : ... .. . ... : ... .. . ... ...
ROW 1D : ... .. . ... ... ... : B-2 00 2 ... ... S05 : ... .. . ... : ... .. . ... : ... .. . ... ...
ROW 1E : ... .. . ... ... ... : C#3 00 6 ... ... S05 : F-3 00 . S04 : ... .. . ... : ... .. . ... ...
ROW 1F : ... .. . ... ... ... : B-2 00 2 ... ... S05 : F-2 00 . S04 : ... .. . ... : ... .. . ... ...
ROW 20 : ... .. 2 ... ... ... : C#3 00 6 ... ... S04 : E-2 00 . ... : ... .. . ... : ... .. . ... ...
ROW 21 : ... .. . ... ... ... : C#3 00 2 ... ... S05 : ... .. . S04 : ... .. . ... : ... .. . ... ...
ROW 22 : ... .. . ... ... ... : C#3 00 6 ... ... S05 : E-3 00 . S04 : ... .. . ... : ... .. . ... ...
ROW 23 : ... .. . ... ... ... : C#3 00 6 ... ... S05 : ... .. . ... : ... .. . ... : ... .. . ... ...
ROW 24 : D#2 00 6 ... 400 ... : C#3 00 6 P7F ... S04 : E-2 00 . ... : ... .. . ... : ... .. . ... ...
ROW 25 : ... .. 7 ... ... ... : C#3 00 2 ... ... S05 : ... .. . S04 : ... .. . ... : ... .. . ... ...
ROW 26 : ... .. 6 ... ... ... : C#3 00 6 ... ... S05 : E-3 00 . S04 : ... .. . ... : ... .. . ... ...
ROW 27 : ... .. 5 ... ... ... : C#3 00 6 ... ... S05 : E-2 00 . ... : ... .. . ... : ... .. . ... ...
ROW 28 : B-2 00 6 ... ... ... : C#3 00 6 ... ... S04 : ... .. . S04 : ... .. . ... : ... .. . ... ...
ROW 29 : ... .. 7 ... ... ... : C#3 00 2 ... ... S05 : E-2 00 . S04 : ... .. . ... : ... .. . ... ...
ROW 2A : A-2 00 6 G04 ... ... : C#3 00 6 ... ... S05 : E-3 00 . S04 : ... .. . ... : ... .. . ... ...
ROW 2B : ... .. 7 ... ... ... : C#3 00 6 ... ... S05 : ... .. . ... : ... .. . ... : ... .. . ... ...
ROW 2C : ... .. 6 ... ... ... : C#3 00 6 ... ... S04 : E-2 00 . S04 : ... .. . ... : ... .. . ... ...
ROW 2D : B-2 00 6 G02 ... ... : C#3 00 2 ... ... S05 : ... .. . ... : ... .. . ... : ... .. . ... ...
ROW 2E : ... .. 7 ... ... ... : F#3 00 6 P80 ... S05 : E-3 00 . ... : ... .. . ... : ... .. . ... ...
ROW 2F : ... .. 6 ... ... ... : C#3 00 2 P7F ... S05 : ... .. . S04 : ... .. . ... : ... .. . ... ...
ROW 30 : G#2 00 6 ... ... ... : F#3 00 6 P80 ... S04 : D#2 00 . ... : ... .. . ... : ... .. . ... ...
ROW 31 : A-2 00 6 ... ... ... : F#3 00 2 ... ... S05 : ... .. . S04 : ... .. . ... : ... .. . ... ...
ROW 32 : G#2 00 6 ... ... ... : F#3 00 6 ... ... S05 : D#3 00 . S04 : ... .. . ... : ... .. . ... ...
ROW 33 : F#2 00 6 ... ... ... : F#3 00 6 ... ... S05 : ... .. . ... : ... .. . ... : ... .. . ... ...
ROW 34 : G#2 00 6 ... ... ... : F#3 00 6 ... ... S04 : D#2 00 . ... : ... .. . ... : ... .. . ... ...
ROW 35 : ... .. 7 ... ... ... : F#3 00 2 ... ... S05 : ... .. . S04 : ... .. . ... : ... .. . ... ...
ROW 36 : ... .. 6 ... 472 ... : F#3 00 6 ... ... S05 : D#3 00 . S04 : ... .. . ... : ... .. . ... ...
ROW 37 : ... .. 5 ... ... ... : F#3 00 6 ... ... S05 : D#2 00 . ... : ... .. . ... : ... .. . ... ...
ROW 38 : ... .. . ... ... ... : F#3 00 6 ... ... S04 : ... .. . ... : ... .. . ... : ... .. . ... ...
ROW 39 : ... .. 4 ... ... ... : F#3 00 2 ... ... S05 : ... .. . S04 : ... .. . ... : ... .. . ... ...
ROW 3A : ... .. . ... ... ... : F#3 00 6 ... ... S05 : D#3 00 . S04 : ... .. . ... : ... .. . ... ...
ROW 3B : ... .. . ... ... ... : F#3 00 6 ... ... S05 : D#2 00 . S04 : ... .. . ... : ... .. . ... ...
ROW 3C : ... .. 3 ... ... ... : F#3 00 6 ... ... S04 : D#2 00 . S04 : ... .. . ... : ... .. . ... ...
ROW 3D : ... .. . ... ... ... : F#3 00 2 ... ... S05 : ... .. . ... : ... .. . ... : ... .. . ... ...
ROW 3E : C#2 00 6 ... 400 ... : F#3 00 6 ... ... ... : D#3 00 . ... : ... .. . ... : ... .. . ... ...
ROW 3F : ... .. 7 ... ... ... : ... .. . ... ... S05 : ... .. . S04 : ... .. . ... : ... .. . ... ...

PATTERN 07
ROW 00 : ... .. . ... ... ... : G#2 00 6 A03 ... S04 : C#3 00 . ... : ... .. . ... : ... .. . ... ...
ROW 01 : ... .. . ... ... ... : F#3 00 2 ... ... S05 : ... .. . ... : ... .. . ... : ... .. . ... ...
ROW 02 : ... .. . ... ... ... : F-2 00 6 ... ... S05 : ... .. . ... : ... .. . ... : ... .. . ... ...
ROW 03 : ... .. . ... ... ... : F-2 00 6 ... ... S05 : ... .. . ... : ... .. . ... : ... .. . ... ...
ROW 04 : ... .. . ... ... ... : G#2 00 6 ... ... ... : ... .. . ... : ... .. . ... : ... .. . ... ...
ROW 05 : ... .. . ... ... ... : ... .. . A01 ... ... : ... .. . ... : ... .. . ... : ... .. . ... ...
ROW 06 : ... .. . ... ... ... : ... .. . A00 ... ... : ... .. . ... : ... .. . ... : ... .. . ... ...
ROW 07 : ... .. . ... ... ... : ... .. . ... ... ... : ... .. . ... : ... .. . ... : ... .. . ... ...
ROW 08 : ... .. . ... ... ... : ... .. . ... ... ... : ... .. . ... : ... .. . ... : ... .. . ... ...
ROW 09 : ... .. . ... ... ... : ... .. . ... ... ... : ... .. . ... : ... .. . ... : ... .. . ... ...
ROW 0A : ... .. . ... ... ... : ... .. . ... ... ... : ... .. . ... : ... .. . ... : ... .. . ... ...
ROW 0B : ... .. . ... ... ... : --- .. . ... ... ... : ... .. . ... : ... .. . ... : ... .. . ... ...
ROW 0C : ... .. . ... ... ... : G#2 00 6 A03 ... ... : ... .. . S04 : ... .. . ... : ... .. . ... ...
ROW 0D : ... .. . ... ... ... : ... .. . A01 ... ... : C#4 00 . S05 : ... .. . ... : ... .. . ... ...
ROW 0E : ... .. . ... ... ... : ... .. . ... ... ... : G#3 00 . S05 : ... .. . ... : ... .. . ... ...
ROW 0F : ... .. . ... ... ... : ... .. . ... ... ... : C#3 00 . S05 : ... .. . ... : ... .. . ... ...
ROW 10 : ... .. . ... ... ... : F-3 00 6 A03 ... S04 : C#2 00 . ... : ... .. . ... : ... .. . ... ...
ROW 11 : ... .. . ... ... ... : ... .. . ... ... ... : ... .. . ... : ... .. . ... : ... .. . ... ...
ROW 12 : ... .. . ... ... ... : C#3 00 6 ... ... S05 : ... .. . ... : ... .. . ... : ... .. . ... ...
ROW 13 : ... .. . ... ... ... : C#3 00 6 ... ... S05 : ... .. . ... : ... .. . ... : ... .. . ... ...
ROW 14 : ... .. . ... ... ... : F-3 00 6 ... ... ... : ... .. . ... : ... .. . ... : ... .. . ... ...
ROW 15 : ... .. . ... ... ... : ... .. . A01 ... ... : ... .. . ... : ... .. . ... : ... .. . ... ...
ROW 16 : ... .. . ... ... ... : ... .. . A00 ... ... : ... .. . ... : ... .. . ... : ... .. . ... ...
ROW 17 : ... .. . ... ... ... : ... .. . ... ... ... : ... .. . ... : ... .. . ... : ... .. . ... ...
ROW 18 : ... .. . ... ... ... : ... .. . ... ... ... : ... .. . ... : ... .. . ... : ... .. . ... ...
ROW 19 : ... .. . ... ... ... : ... .. . ... ... ... : ... .. . ... : ... .. . ... : ... .. . ... ...
ROW 1A : ... .. . ... ... ... : ... .. . ... ... ... : ... .. . ... : ... .. . ... : ... .. . ... ...
ROW 1B : ... .. . ... ... ... : --- .. . ... ... ... : ... .. . ... : ... .. . ... : ... .. . ... ...
ROW 1C : ... .. . ... ... ... : F-3 00 6 A03 ... ... : C#3 00 . S04 : ... .. . ... : ... .. . ... ...
ROW 1D : ... .. . ... ... ... : ... .. . A01 ... ... : C#4 00 . ... : ... .. . ... : ... .. . ... ...
ROW 1E : ... .. . ... ... ... : ... .. . ... ... ... : ... .. . ... : ... .. . ... : ... .. . ... ...
ROW 1F : ... .. . ... ... ... : ... .. . ... ... ... : ... .. . S04 : ... .. . ... : ... .. . ... ...
ROW 20 : ... .. . ... ... ... : ... .. . ... ... ... : ... .. . ... : ... .. . ... : ... .. . ... ...
ROW 21 : ... .. . ... ... ... : ... .. . ... ... ... : ... .. . ... : ... .. . ... : ... .. . ... ...
ROW 22 : ... .. . ... ... ... : ... .. . ... ... ... : ... .. . ... : ... .. . ... : ... .. . ... ...
ROW 23 : ... .. . ... ... ... : ... .. . ... ... ... : ... .. . ... : ... .. . ... : ... .. . ... ...
ROW 24 : ... .. . ... ... ... : ... .. . ... ... ... : ... .. . ... : ... .. . ... : ... .. . ... ...
ROW 25 : ... .. . ... ... ... : ... .. . ... ... ... : ... .. . ... : ... .. . ... : ... .. . ... ...
ROW 26 : ... .. . ... ... ... : ... .. . ... ... ... : ... .. . ... : ... .. . ... : ... .. . ... ...
ROW 27 : ... .. . ... ... ... : ... .. . ... ... ... : ... .. . ... : ... .. . ... : ... .. . ... ...
ROW 28 : ... .. . ... ... ... : ... .. . ... ... ... : ... .. . ... : ... .. . ... : ... .. . ... ...
ROW 29 : ... .. . ... ... ... : ... .. . ... ... ... : ... .. . ... : ... .. . ... : ... .. . ... ...
ROW 2A : ... .. . ... ... ... : ... .. . ... ... ... : ... .. . ... : ... .. . ... : ... .. . ... ...
ROW 2B : ... .. . ... ... ... : ... .. . ... ... ... : ... .. . ... : ... .. . ... : ... .. . ... ...
ROW 2C : ... .. . ... ... ... : ... .. . ... ... ... : ... .. . ... : ... .. . ... : ... .. . ... ...
ROW 2D : ... .. . ... ... ... : ... .. . ... ... ... : ... .. . ... : ... .. . ... : ... .. . ... ...
ROW 2E : ... .. . ... ... ... : ... .. . ... ... ... : ... .. . ... : ... .. . ... : ... .. . ... ...
ROW 2F : ... .. . ... ... ... : ... .. . ... ... ... : ... .. . ... : ... .. . ... : ... .. . ... ...
ROW 30 : ... .. . ... ... ... : ... .. . ... ... ... : ... .. . ... : ... .. . ... : ... .. . ... ...
ROW 31 : ... .. . ... ... ... : ... .. . ... ... ... : ... .. . ... : ... .. . ... : ... .. . ... ...
ROW 32 : ... .. . ... ... ... : ... .. . ... ... ... : ... .. . ... : ... .. . ... : ... .. . ... ...
ROW 33 : ... .. . ... ... ... : ... .. . ... ... ... : ... .. . ... : ... .. . ... : ... .. . ... ...
ROW 34 : ... .. . ... ... ... : ... .. . ... ... ... : ... .. . ... : ... .. . ... : ... .. . ... ...
ROW 35 : ... .. . ... ... ... : ... .. . ... ... ... : ... .. . ... : ... .. . ... : ... .. . ... ...
ROW 36 : ... .. . ... ... ... : ... .. . ... ... ... : ... .. . ... : ... .. . ... : ... .. . ... ...
ROW 37 : ... .. . ... ... ... : ... .. . ... ... ... : ... .. . ... : ... .. . ... : ... .. . ... ...
ROW 38 : ... .. . ... ... ... : ... .. . ... ... ... : ... .. . ... : ... .. . ... : ... .. . ... ...
ROW 39 : ... .. . ... ... ... : ... .. . ... ... ... : ... .. . ... : ... .. . ... : ... .. . ... ...
ROW 3A : ... .. . ... ... ... : ... .. . ... ... ... : ... .. . ... : ... .. . ... : ... .. . ... ...
ROW 3B : ... .. . ... ... ... : ... .. . ... ... ... : ... .. . ... : ... .. . ... : ... .. . ... ...
ROW 3C : ... .. . ... ... ... : ... .. . ... ... ... : ... .. . ... : ... .. . ... : ... .. . ... ...
ROW 3D : ... .. . ... ... ... : ... .. . ... ... ... : ... .. . ... : ... .. . ... : ... .. . ... ...
ROW 3E : ... .. . ... ... ... : ... .. . ... ... ... : ... .. . ... : ... .. . ... : ... .. . ... ...
ROW 3F : ... .. . ... ... ... : ... .. . ... ... ... : ... .. . ... : ... .. . ... : ... .. . ... ...

PATTERN 08
ROW 00 : ... .. 1 ... ... ... : ... .. . ... ... ... : ... .. . ... : ... .. . ... : ... .. . ... ...
ROW 01 : B-2 00 6 V00 400 A00 : ... .. . ... ... ... : ... .. . ... : ... .. . ... : ... .. . ... ...
ROW 02 : C#3 00 6 ... ... ... : ... .. . ... ... ... : ... .. . ... : ... .. . ... : ... .. . ... ...
ROW 03 : D-3 00 6 ... ... ... : ... .. . ... ... ... : ... .. . ... : ... .. . ... : ... .. . ... ...
ROW 04 : E-3 00 6 ... ... ... : ... .. . ... ... ... : ... .. . ... : ... .. . ... : ... .. . ... ...
ROW 05 : D-3 00 6 ... ... ... : ... .. . ... ... ... : ... .. . ... : ... .. . ... : ... .. . ... ...
ROW 06 : C#3 00 6 ... ... ... : ... .. . ... ... ... : ... .. . ... : ... .. . ... : ... .. . ... ...
ROW 07 : B-2 00 6 ... ... ... : ... .. . ... ... ... : ... .. . ... : ... .. . ... : ... .. . ... ...
ROW 08 : C#3 00 6 ... ... ... : ... .. . ... ... ... : ... .. . ... : ... .. . ... : ... .. . ... ...
ROW 09 : --- .. . ... ... ... : ... .. . ... ... ... : ... .. . ... : ... .. . ... : ... .. . ... ...
ROW 0A : ... .. . ... ... ... : ... .. . ... ... ... : ... .. . ... : ... .. . ... : ... .. . ... ...
ROW 0B : C#2 00 6 S05 ... ... : ... .. . ... ... ... : ... .. . ... : ... .. . ... : ... .. . ... ...
ROW 0C : C#3 00 6 ... ... ... : ... .. . ... ... ... : ... .. . ... : ... .. . ... : ... .. . ... ...
ROW 0D : ... .. 7 ... ... ... : ... .. . ... ... ... : ... .. . ... : ... .. . ... : ... .. . ... ...
ROW 0E : ... .. 6 ... 471 ... : ... .. . ... ... ... : ... .. . ... : ... .. . ... : ... .. . ... ...
ROW 0F : ... .. 5 ... ... ... : ... .. . ... ... ... : ... .. . ... : ... .. . ... : ... .. . ... ...
ROW 10 : ... .. . ... ... ... : ... .. . ... ... ... : ... .. . ... : ... .. . ... : ... .. . ... ...
ROW 11 : B-3 00 5 V01 400 ... : ... .. . ... ... ... : ... .. . ... : ... .. . ... : ... .. . ... ...
ROW 12 : C#4 00 5 ... ... ... : ... .. . ... ... ... : ... .. . ... : ... .. . ... : ... .. . ... ...
ROW 13 : D-4 00 5 ... ... ... : ... .. . ... ... ... : ... .. . ... : ... .. . ... : ... .. . ... ...
ROW 14 : E-4 00 5 ... ... ... : ... .. . ... ... ... : ... .. . ... : ... .. . ... : ... .. . ... ...
ROW 15 : D-4 00 5 ... ... ... : ... .. . ... ... ... : ... .. . ... : ... .. . ... : ... .. . ... ...
ROW 16 : C#4 00 5 ... ... ... : ... .. . ... ... ... : ... .. . ... : ... .. . ... : ... .. . ... ...
ROW 17 : B-3 00 5 ... ... ... : ... .. . ... ... ... : ... .. . ... : ... .. . ... : ... .. . ... ...
ROW 18 : C#4 00 5 ... ... ... : ... .. . ... ... ... : ... .. . ... : ... .. . ... : ... .. . ... ...
ROW 19 : ... .. 6 ... 471 ... : ... .. . ... ... ... : ... .. . ... : ... .. . ... : ... .. . ... ...
ROW 1A : ... .. 5 ... ... ... : ... .. . ... ... ... : ... .. . ... : ... .. . ... : ... .. . ... ...
ROW 1B : ... .. 4 ... ... ... : ... .. . ... ... ... : ... .. . ... : ... .. . ... : ... .. . ... ...
ROW 1C : C#3 00 6 A03 400 V01 : ... .. . ... ... ... : ... .. . ... : ... .. . ... : ... .. . ... ...
ROW 1D : ... .. . A01 ... ... : ... .. . ... ... ... : ... .. . ... : ... .. . ... : ... .. . ... ...
ROW 1E : ... .. . ... ... ... : ... .. . ... ... ... : ... .. . ... : ... .. . ... : ... .. . ... ...
ROW 1F : ... .. . ... ... ... : ... .. . ... ... ... : ... .. . ... : ... .. . ... : ... .. . ... ...
ROW 20 : ... .. . ... ... ... : ... .. . ... ... ... : ... .. . ... : ... .. . ... : ... .. . ... ...
ROW 21 : ... .. . ... ... ... : ... .. . ... ... ... : ... .. . ... : ... .. . ... : ... .. . ... ...
ROW 22 : ... .. . ... ... ... : ... .. . ... ... ... : ... .. . ... : ... .. . ... : ... .. . ... ...
ROW 23 : ... .. . ... ... ... : ... .. . ... ... ... : ... .. . ... : ... .. . ... : ... .. . ... ...
ROW 24 : ... .. . ... ... ... : ... .. . ... ... ... : ... .. . ... : ... .. . ... : ... .. . ... ...
ROW 25 : ... .. . ... ... ... : ... .. . ... ... ... : ... .. . ... : ... .. . ... : ... .. . ... ...
ROW 26 : ... .. . ... ... ... : ... .. . ... ... ... : ... .. . ... : ... .. . ... : ... .. . ... ...
ROW 27 : ... .. . ... ... ... : ... .. . ... ... ... : ... .. . ... : ... .. . ... : ... .. . ... ...
ROW 28 : ... .. . ... ... ... : ... .. . ... ... ... : ... .. . ... : ... .. . ... : ... .. . ... ...
ROW 29 : ... .. . ... ... ... : ... .. . ... ... ... : ... .. . ... : ... .. . ... : ... .. . ... ...
ROW 2A : ... .. . ... ... ... : ... .. . ... ... ... : ... .. . ... : ... .. . ... : ... .. . ... ...
ROW 2B : ... .. . ... ... ... : ... .. . ... ... ... : ... .. . ... : ... .. . ... : ... .. . ... ...
ROW 2C : ... .. . ... ... ... : ... .. . ... ... ... : ... .. . ... : ... .. . ... : ... .. . ... ...
ROW 2D : ... .. . ... ... ... : ... .. . ... ... ... : ... .. . ... : ... .. . ... : ... .. . ... ...
ROW 2E : ... .. . ... ... ... : ... .. . ... ... ... : ... .. . ... : ... .. . ... : ... .. . ... ...
ROW 2F : ... .. . ... ... ... : ... .. . ... ... ... : ... .. . ... : ... .. . ... : ... .. . ... ...
ROW 30 : ... .. . ... ... ... : ... .. . ... ... ... : ... .. . ... : ... .. . ... : ... .. . ... ...
ROW 31 : ... .. . ... ... ... : ... .. . ... ... ... : ... .. . ... : ... .. . ... : ... .. . ... ...
ROW 32 : ... .. . ... ... ... : ... .. . ... ... ... : ... .. . ... : ... .. . ... : ... .. . ... ...
ROW 33 : ... .. . ... ... ... : ... .. . ... ... ... : ... .. . ... : ... .. . ... : ... .. . ... ...
ROW 34 : ... .. . ... ... ... : ... .. . ... ... ... : ... .. . ... : ... .. . ... : ... .. . ... ...
ROW 35 : ... .. . ... ... ... : ... .. . ... ... ... : ... .. . ... : ... .. . ... : ... .. . ... ...
ROW 36 : ... .. . ... ... ... : ... .. . ... ... ... : ... .. . ... : ... .. . ... : ... .. . ... ...
ROW 37 : ... .. . ... ... ... : ... .. . ... ... ... : ... .. . ... : ... .. . ... : ... .. . ... ...
ROW 38 : ... .. . ... ... ... : ... .. . ... ... ... : ... .. . ... : ... .. . ... : ... .. . ... ...
ROW 39 : ... .. . ... ... ... : ... .. . ... ... ... : ... .. . ... : ... .. . ... : ... .. . ... ...
ROW 3A : ... .. . ... ... ... : ... .. . ... ... ... : ... .. . ... : ... .. . ... : ... .. . ... ...
ROW 3B : ... .. . ... ... ... : ... .. . ... ... ... : ... .. . ... : ... .. . ... : ... .. . ... ...
ROW 3C : ... .. . ... ... ... : ... .. . ... ... ... : ... .. . ... : ... .. . ... : ... .. . ... ...
ROW 3D : ... .. . ... ... ... : ... .. . ... ... ... : ... .. . ... : ... .. . ... : ... .. . ... ...
ROW 3E : ... .. . ... ... ... : ... .. . ... ... ... : ... .. . ... : ... .. . ... : ... .. . ... ...
ROW 3F : ... .. . ... ... ... : ... .. . ... ... ... : ... .. . ... : ... .. . ... : ... .. . ... ...

TRACK  44   4 150 "Sagat"
COLUMNS : 2 1 1 2 1

ORDER 00 : 00 00 00 00 00
ORDER 01 : 00 00 00 01 00
ORDER 02 : 01 00 00 00 00
ORDER 03 : 02 00 00 01 00
ORDER 04 : 01 00 00 01 00
ORDER 05 : 02 00 00 01 00
ORDER 06 : 00 00 00 00 00
ORDER 07 : 00 00 00 02 00
ORDER 08 : 01 00 00 03 00
ORDER 09 : 02 00 00 04 00
ORDER 0A : 01 00 00 05 00
ORDER 0B : 02 00 00 06 00
ORDER 0C : 03 01 01 07 00
ORDER 0D : 04 00 00 00 00
ORDER 0E : 05 00 00 01 00

PATTERN 00
ROW 00 : A#3 00 3 A03 V02 : A#2 00 3 V00 : G-2 00 . ... : 9-# 00 A A07 F04 : ... .. . ...
ROW 01 : ... .. . ... ... : D-3 00 . V01 : ... .. . S02 : ... .. . A06 ... : ... .. . ...
ROW 02 : D-4 00 4 ... ... : F-3 00 . ... : G-2 00 . ... : ... .. . A02 ... : ... .. . ...
ROW 03 : ... .. . ... ... : A#2 00 2 ... : ... .. . S02 : ... .. . A01 ... : ... .. . ...
ROW 04 : F-4 00 4 ... ... : D-3 00 . ... : G-2 00 . ... : ... .. . ... ... : ... .. . ...
ROW 05 : ... .. . ... ... : F-3 00 . ... : ... .. . S02 : ... .. . ... ... : ... .. . ...
ROW 06 : A-4 00 4 ... ... : A#2 00 . ... : G-2 00 . ... : 1-# 00 A A0C ... : ... .. . ...
ROW 07 : ... .. . ... ... : D-3 00 . ... : ... .. . S02 : --- .. . ... ... : ... .. . ...
ROW 08 : D-4 00 4 ... ... : F-3 00 . ... : G-2 00 . ... : 6-# 00 7 A07 ... : ... .. . ...
ROW 09 : ... .. . ... ... : A#2 00 . ... : ... .. . S02 : ... .. . A02 ... : ... .. . ...
ROW 0A : F-4 00 4 ... ... : D-3 00 . ... : A#2 00 . ... : 1-# 00 A A0C ... : ... .. . ...
ROW 0B : ... .. . ... ... : F-3 00 . ... : ... .. . S02 : --- .. . ... ... : ... .. . ...
ROW 0C : A#3 00 3 ... ... : A#2 00 . ... : ... .. . ... : ... .. . ... ... : ... .. . ...
ROW 0D : ... .. . ... ... : D-3 00 . ... : ... .. . ... : ... .. . ... ... : ... .. . ...
ROW 0E : D-4 00 4 ... ... : F-3 00 . ... : F-2 00 . ... : 1-# 00 A A0C ... : ... .. . ...
ROW 0F : ... .. . ... ... : A#2 00 . ... : ... .. . ... : --- .. . ... ... : ... .. . ...
ROW 10 : F-4 00 4 ... ... : D-3 00 . ... : ... .. . ... : ... .. . ... ... : ... .. . ...
ROW 11 : ... .. . ... ... : F-3 00 . ... : ... .. . S02 : ... .. . ... ... : ... .. . ...
ROW 12 : A-4 00 4 ... ... : A#2 00 . ... : G-2 00 . ... : ... .. . ... ... : ... .. . ...
ROW 13 : ... .. . ... ... : D-3 00 . ... : ... .. . S02 : ... .. . ... ... : ... .. . ...
ROW 14 : D-4 00 4 ... ... : F-3 00 . ... : G-2 00 . ... : 1-# 00 A A0C ... : ... .. . ...
ROW 15 : ... .. . ... ... : A#2 00 1 ... : ... .. . S02 : --- .. . ... ... : ... .. . ...
ROW 16 : F-4 00 4 ... ... : D-3 00 . ... : G-2 00 . ... : 6-# 00 6 A07 ... : ... .. . ...
ROW 17 : ... .. . ... ... : F-3 00 . ... : ... .. . S02 : ... .. . A02 ... : ... .. . ...
ROW 18 : A-4 00 4 ... ... : A#2 00 3 V00 : G-2 00 . ... : 6-# 00 7 A07 ... : ... .. . ...
ROW 19 : ... .. . ... ... : D-3 00 . V01 : ... .. . S02 : ... .. . A02 ... : ... .. . ...
ROW 1A : A#3 00 3 ... ... : F-3 00 . ... : G-2 00 . ... : 1-# 00 A A0C ... : ... .. . ...
ROW 1B : ... .. . ... ... : A#2 00 2 ... : ... .. . S02 : --- .. . ... ... : ... .. . ...
ROW 1C : D-4 00 4 ... ... : D-3 00 . ... : G-2 00 . ... : ... .. . ... ... : ... .. . ...
ROW 1D : ... .. . ... ... : F-3 00 . ... : ... .. . S02 : ... .. . ... ... : ... .. . ...
ROW 1E : F-4 00 4 ... ... : A#2 00 . ... : A#2 00 . ... : ... .. . ... ... : ... .. . ...
ROW 1F : ... .. . ... ... : D-3 00 . ... : ... .. . S02 : ... .. . ... ... : ... .. . ...
ROW 20 : D-4 00 4 ... ... : F-3 00 . ... : ... .. . ... : 1-# 00 A A0C ... : ... .. . ...
ROW 21 : ... .. . ... ... : A#2 00 . ... : ... .. . ... : --- .. . ... ... : ... .. . ...
ROW 22 : F-4 00 4 ... ... : D-3 00 . ... : F-2 00 . ... : 1-# 00 A A0C ... : ... .. . ...
ROW 23 : ... .. . ... ... : F-3 00 . ... : ... .. . ... : --- .. . ... ... : ... .. . ...
ROW 24 : A-4 00 4 ... ... : A#2 00 . ... : ... .. . ... : ... .. . ... ... : ... .. . ...
ROW 25 : ... .. . ... ... : D-3 00 . ... : ... .. . S02 : ... .. . ... ... : ... .. . ...
ROW 26 : A#3 00 3 ... ... : F-3 00 . ... : G-2 00 . ... : 1-# 00 A A0C ... : ... .. . ...
ROW 27 : ... .. . ... ... : A#2 00 1 ... : ... .. . S02 : --- .. . ... ... : ... .. . ...
ROW 28 : D-4 00 4 ... ... : D-3 00 . ... : ... .. . ... : 6-# 00 7 A07 ... : ... .. . ...
ROW 29 : ... .. . ... ... : F-3 00 . ... : ... .. . ... : ... .. . A02 ... : ... .. . ...
ROW 2A : F-4 00 4 ... ... : A#2 00 . ... : G-2 00 . ... : --- .. . ... ... : ... .. . ...
ROW 2B : ... .. . ... ... : D-3 00 . ... : ... .. . S02 : ... .. . ... ... : ... .. . ...

PATTERN 01
ROW 00 : A-3 00 A V01 A04 : --- .. . ... : ... .. . ... : 1-# 00 A A0C ... : ... .. . ...
ROW 01 : ... .. . ... ... : ... .. . ... : ... .. . ... : ... .. . A04 ... : ... .. . ...
ROW 02 : A-3 00 A ... ... : A#2 00 9 A04 : F-2 00 . ... : --- .. . ... ... : ... .. . ...
ROW 03 : ... .. . ... ... : ... .. . ... : ... .. . S04 : ... .. . ... ... : ... .. . ...
ROW 04 : F-3 00 A ... ... : --- .. . ... : ... .. . ... : ... .. . ... ... : ... .. . ...
ROW 05 : ... .. . ... ... : A#2 00 4 ... : ... .. . ... : ... .. . ... ... : ... .. . ...
ROW 06 : G-3 00 A ... ... : C-3 00 9 ... : G-2 00 . ... : 1-# 00 A A0C ... : ... .. . ...
ROW 07 : ... .. . ... ... : ... .. . ... : ... .. . S04 : --- .. . ... ... : ... .. . ...
ROW 08 : ... .. . 482 A01 : --- .. . ... : ... .. . ... : 6-# 00 7 A07 ... : ... .. . ...
ROW 09 : ... .. . ... ... : C-3 00 4 ... : ... .. . ... : ... .. . A02 ... : ... .. . ...
ROW 0A : D-3 00 A 400 A04 : ... .. . ... : ... .. . ... : 1-# 00 A A0C ... : ... .. . ...
ROW 0B : ... .. . ... ... : --- .. . ... : ... .. . ... : --- .. . ... ... : ... .. . ...
ROW 0C : G-3 00 4 ... ... : C#3 00 9 ... : G#2 00 . ... : ... .. . ... ... : ... .. . ...
ROW 0D : ... .. . ... ... : ... .. . ... : ... .. . S04 : ... .. . ... ... : ... .. . ...
ROW 0E : F-3 00 A ... ... : --- .. . ... : ... .. . ... : 1-# 00 A A0C ... : ... .. . ...
ROW 0F : ... .. . ... ... : C#3 00 4 ... : ... .. . ... : --- .. . ... ... : ... .. . ...
ROW 10 : D-3 00 4 ... ... : D#3 00 9 ... : A#2 00 . ... : ... .. . ... ... : ... .. . ...
ROW 11 : ... .. . ... ... : ... .. . ... : ... .. . S04 : ... .. . ... ... : ... .. . ...
ROW 12 : C-3 00 A 400 A04 : --- .. . ... : ... .. . ... : ... .. . ... ... : ... .. . ...
ROW 13 : ... .. . ... ... : D#3 00 4 ... : ... .. . ... : ... .. . ... ... : ... .. . ...
ROW 14 : D-3 00 A ... ... : ... .. . ... : ... .. . ... : 1-# 00 A A0C ... : ... .. . ...
ROW 15 : ... .. . ... ... : --- .. . ... : ... .. . ... : --- .. . ... ... : ... .. . ...
ROW 16 : ... .. . 482 A01 : F-3 00 9 ... : C-3 00 . ... : 6-# 00 6 A07 ... : ... .. . ...
ROW 17 : ... .. . ... ... : ... .. . ... : ... .. . S04 : ... .. . A02 ... : ... .. . ...
ROW 18 : ... .. . ... ... : --- .. . A04 : A#2 00 . ... : 6-# 00 7 A07 ... : ... .. . ...
ROW 19 : ... .. . ... ... : C-4 00 4 ... : A-2 00 . ... : ... .. . A02 ... : ... .. . ...
ROW 1A : ... .. . 484 A00 : ... .. . ... : G-2 00 . ... : 1-# 00 A A0C ... : ... .. . ...
ROW 1B : ... .. . ... ... : A#3 00 4 ... : F-2 00 . ... : --- .. . ... ... : ... .. . ...
ROW 1C : ... .. . ... ... : A-3 00 2 ... : --- .. . ... : ... .. . ... ... : ... .. . ...
ROW 1D : ... .. . ... ... : G-3 00 1 ... : ... .. . ... : ... .. . ... ... : ... .. . ...
ROW 1E : ... .. . ... ... : F-3 00 1 ... : ... .. . ... : ... .. . ... ... : ... .. . ...
ROW 1F : ... .. . ... ... : --- .. . A00 : ... .. . ... : ... .. . ... ... : ... .. . ...
ROW 20 : ... .. . ... ... : ... .. . ... : ... .. . ... : 1-# 00 A A0C ... : ... .. . ...
ROW 21 : ... .. . ... ... : ... .. . ... : ... .. . ... : --- .. . ... ... : ... .. . ...
ROW 22 : ... .. . ... ... : ... .. . ... : ... .. . ... : 1-# 00 A A0C ... : ... .. . ...
ROW 23 : ... .. . ... ... : ... .. . ... : ... .. . ... : --- .. . ... ... : ... .. . ...
ROW 24 : ... .. . ... ... : ... .. . ... : ... .. . ... : ... .. . ... ... : ... .. . ...
ROW 25 : ... .. . ... ... : ... .. . ... : ... .. . ... : ... .. . ... ... : ... .. . ...
ROW 26 : ... .. . ... ... : ... .. . ... : ... .. . ... : 1-# 00 A A0C ... : ... .. . ...
ROW 27 : ... .. . ... ... : ... .. . ... : ... .. . ... : --- .. . ... ... : ... .. . ...
ROW 28 : ... .. . ... A01 : ... .. . ... : ... .. . ... : 6-# 00 7 A07 ... : ... .. . ...
ROW 29 : ... .. . ... ... : ... .. . ... : ... .. . ... : ... .. . A02 ... : ... .. . ...
ROW 2A : ... .. . ... ... : ... .. . ... : ... .. . ... : --- .. . ... ... : ... .. . ...
ROW 2B : ... .. . G04 400 : ... .. . ... : ... .. . ... : ... .. . ... ... : ... .. . ...

PATTERN 02
ROW 00 : F-3 00 A V01 A04 : ... .. . ... : ... .. . ... : 1-# 00 A A0C ... : ... .. . ...
ROW 01 : ... .. . ... ... : ... .. . ... : ... .. . ... : ... .. . A04 ... : ... .. . ...
ROW 02 : D#3 00 A ... ... : ... .. . ... : ... .. . ... : --- .. . ... ... : ... .. . ...
ROW 03 : ... .. . ... ... : ... .. . ... : ... .. . ... : ... .. . ... ... : ... .. . ...
ROW 04 : D-3 00 A ... ... : ... .. . ... : ... .. . ... : ... .. . ... ... : ... .. . ...
ROW 05 : ... .. . ... ... : ... .. . ... : ... .. . ... : ... .. . ... ... : ... .. . ...
ROW 06 : D#3 00 A ... ... : ... .. . ... : ... .. . ... : 1-# 00 A A0C ... : ... .. . ...
ROW 07 : ... .. . ... ... : ... .. . ... : ... .. . ... : --- .. . ... ... : ... .. . ...
ROW 08 : D-3 00 4 ... ... : ... .. . ... : ... .. . ... : 6-# 00 7 A07 ... : ... .. . ...
ROW 09 : ... .. . ... ... : ... .. . ... : ... .. . ... : ... .. . A02 ... : ... .. . ...
ROW 0A : D-3 00 A ... ... : ... .. . ... : ... .. . ... : 1-# 00 A A0C ... : ... .. . ...
ROW 0B : ... .. . ... ... : ... .. . ... : ... .. . ... : --- .. . ... ... : ... .. . ...
ROW 0C : D#3 00 4 ... ... : ... .. . ... : ... .. . ... : ... .. . ... ... : ... .. . ...
ROW 0D : ... .. . ... ... : ... .. . ... : ... .. . ... : ... .. . ... ... : ... .. . ...
ROW 0E : A#2 00 A ... ... : ... .. . ... : ... .. . ... : 1-# 00 A A0C ... : ... .. . ...
ROW 0F : ... .. . ... ... : ... .. . ... : ... .. . ... : --- .. . ... ... : ... .. . ...
ROW 10 : D-3 00 4 ... ... : ... .. . ... : ... .. . ... : ... .. . ... ... : ... .. . ...
ROW 11 : ... .. . ... ... : ... .. . ... : ... .. . ... : ... .. . ... ... : ... .. . ...
ROW 12 : A#2 00 A 400 A04 : ... .. . ... : ... .. . ... : ... .. . ... ... : ... .. . ...
ROW 13 : ... .. . ... ... : ... .. . ... : ... .. . ... : ... .. . ... ... : ... .. . ...
ROW 14 : C-3 00 A ... ... : ... .. . ... : ... .. . ... : 1-# 00 A A0C ... : ... .. . ...
ROW 15 : ... .. . ... ... : ... .. . ... : ... .. . ... : --- .. . ... ... : ... .. . ...
ROW 16 : ... .. . 482 A01 : ... .. . ... : ... .. . ... : 6-# 00 7 A07 ... : ... .. . ...
ROW 17 : ... .. . ... ... : ... .. . ... : ... .. . ... : ... .. . A02 ... : ... .. . ...
ROW 18 : ... .. . ... ... : ... .. . ... : ... .. . ... : --- .. . ... ... : ... .. . ...
ROW 19 : ... .. . ... ... : ... .. . ... : ... .. . ... : ... .. . ... ... : ... .. . ...
ROW 1A : ... .. . 484 A00 : ... .. . ... : ... .. . ... : ... .. . ... ... : ... .. . ...
ROW 1B : ... .. . ... ... : ... .. . ... : ... .. . ... : ... .. . ... ... : ... .. . ...
ROW 1C : ... .. . ... ... : ... .. . ... : ... .. . ... : 1-# 00 A A0C ... : ... .. . ...
ROW 1D : ... .. . ... ... : ... .. . ... : ... .. . ... : --- .. . ... ... : ... .. . ...
ROW 1E : ... .. . ... ... : ... .. . ... : ... .. . ... : ... .. . ... ... : ... .. . ...
ROW 1F : ... .. . ... ... : ... .. . ... : ... .. . ... : ... .. . ... ... : ... .. . ...
ROW 20 : ... .. . ... ... : ... .. . ... : ... .. . ... : 6-# 00 7 A07 ... : ... .. . ...
ROW 21 : ... .. . ... ... : ... .. . ... : ... .. . ... : ... .. . A02 ... : ... .. . ...
ROW 22 : ... .. . ... ... : ... .. . ... : ... .. . ... : 6-# 00 7 A07 ... : ... .. . ...
ROW 23 : ... .. . ... ... : ... .. . ... : ... .. . ... : ... .. . A02 ... : ... .. . ...
ROW 24 : ... .. . ... ... : ... .. . ... : ... .. . ... : 2-# 00 9 A0C ... : ... .. . ...
ROW 25 : ... .. . ... ... : ... .. . ... : ... .. . ... : --- .. . ... ... : ... .. . ...
ROW 26 : ... .. . ... ... : ... .. . ... : ... .. . ... : 2-# 00 9 A0C ... : ... .. . ...
ROW 27 : ... .. . ... ... : ... .. . ... : ... .. . ... : --- .. . ... ... : ... .. . ...
ROW 28 : ... .. . ... A01 : ... .. . ... : ... .. . ... : 4-# 00 9 A0C S03 : ... .. . ...
ROW 29 : ... .. . ... ... : ... .. . ... : ... .. . ... : 4-# 00 9 A0C S03 : ... .. . ...
ROW 2A : ... .. . ... ... : ... .. . ... : ... .. . ... : 2-# 00 9 A0C S03 : ... .. . ...
ROW 2B : ... .. . G04 400 : ... .. . ... : ... .. . ... : 2-# 00 9 A0C S03 : ... .. . ...

PATTERN 03
ROW 00 : ... .. . ... ... : ... .. . ... : ... .. . ... : 9-# 00 A A07 ... : ... .. . ...
ROW 01 : ... .. . ... ... : ... .. . ... : ... .. . ... : ... .. . A06 ... : ... .. . ...
ROW 02 : F-3 00 9 A04 V01 : ... .. . ... : ... .. . ... : ... .. . A02 ... : ... .. . ...
ROW 03 : ... .. . ... ... : ... .. . ... : ... .. . ... : ... .. . A01 ... : ... .. . ...
ROW 04 : --- .. . ... ... : ... .. . ... : ... .. . ... : 6-# 00 7 A07 ... : ... .. . ...
ROW 05 : F-3 00 4 ... ... : ... .. . ... : ... .. . ... : ... .. . A02 ... : ... .. . ...
ROW 06 : G-3 00 9 ... ... : ... .. . ... : ... .. . ... : 1-# 00 A A0C ... : ... .. . ...
ROW 07 : ... .. . ... ... : ... .. . ... : ... .. . ... : --- .. . ... ... : ... .. . ...
ROW 08 : --- .. . ... ... : ... .. . ... : ... .. . ... : ... .. . ... ... : ... .. . ...
ROW 09 : G-3 00 4 ... ... : ... .. . ... : ... .. . ... : ... .. . ... ... : ... .. . ...
ROW 0A : ... .. . ... ... : ... .. . ... : ... .. . ... : ... .. . ... ... : ... .. . ...
ROW 0B : --- .. . ... ... : ... .. . ... : ... .. . ... : ... .. . ... ... : ... .. . ...
ROW 0C : G#3 00 9 ... ... : ... .. . ... : ... .. . ... : 6-# 00 7 A07 ... : ... .. . ...
ROW 0D : ... .. . ... ... : ... .. . ... : ... .. . ... : ... .. . A02 ... : ... .. . ...
ROW 0E : --- .. . ... ... : ... .. . ... : ... .. . ... : --- .. . ... ... : ... .. . ...
ROW 0F : G#3 00 4 ... ... : ... .. . ... : ... .. . ... : ... .. . ... ... : ... .. . ...
ROW 10 : A#3 00 9 ... ... : ... .. . ... : ... .. . ... : ... .. . ... ... : ... .. . ...
ROW 11 : ... .. . ... ... : ... .. . ... : ... .. . ... : ... .. . ... ... : ... .. . ...
ROW 12 : --- .. . ... ... : ... .. . ... : ... .. . ... : 1-# 00 A A0C ... : ... .. . ...
ROW 13 : A#3 00 4 ... ... : ... .. . ... : ... .. . ... : --- .. . ... ... : ... .. . ...
ROW 14 : ... .. . ... ... : ... .. . ... : ... .. . ... : 6-# 00 7 A07 ... : ... .. . ...
ROW 15 : --- .. . ... ... : ... .. . ... : ... .. . ... : ... .. . A02 ... : ... .. . ...
ROW 16 : C-4 00 9 ... ... : ... .. . ... : ... .. . ... : ... .. . ... ... : ... .. . ...
ROW 17 : ... .. . ... ... : ... .. . ... : ... .. . ... : ... .. . ... ... : ... .. . ...
ROW 18 : A#3 00 9 ... ... : ... .. . ... : ... .. . ... : 1-# 00 A A0C ... : ... .. . ...
ROW 19 : A-3 00 7 ... ... : ... .. . ... : ... .. . ... : --- .. . ... ... : ... .. . ...
ROW 1A : G-3 00 6 ... ... : ... .. . ... : ... .. . ... : ... .. . ... ... : ... .. . ...
ROW 1B : F-3 00 5 ... ... : ... .. . ... : ... .. . ... : ... .. . ... ... : ... .. . ...
ROW 1C : --- .. . ... ... : ... .. . ... : ... .. . ... : 6-# 00 7 A07 ... : ... .. . ...
ROW 1D : ... .. . ... ... : ... .. . ... : ... .. . ... : ... .. . A02 ... : ... .. . ...
ROW 1E : ... .. . ... ... : ... .. . ... : ... .. . ... : 1-# 00 A A0C ... : ... .. . ...
ROW 1F : ... .. . ... ... : ... .. . ... : ... .. . ... : --- .. . ... ... : ... .. . ...
ROW 20 : ... .. . ... ... : ... .. . ... : ... .. . ... : ... .. . ... ... : ... .. . ...
ROW 21 : ... .. . ... ... : ... .. . ... : ... .. . ... : ... .. . ... ... : ... .. . ...
ROW 22 : ... .. . ... ... : ... .. . ... : ... .. . ... : ... .. . ... ... : ... .. . ...
ROW 23 : ... .. . ... ... : ... .. . ... : ... .. . ... : ... .. . ... ... : ... .. . ...
ROW 24 : ... .. . ... ... : ... .. . ... : ... .. . ... : 6-# 00 7 A07 ... : ... .. . ...
ROW 25 : ... .. . ... ... : ... .. . ... : ... .. . ... : ... .. . A02 ... : ... .. . ...
ROW 26 : ... .. . ... ... : ... .. . ... : ... .. . ... : --- .. . ... ... : ... .. . ...
ROW 27 : ... .. . ... ... : ... .. . ... : ... .. . ... : ... .. . ... ... : ... .. . ...
ROW 28 : ... .. . ... ... : ... .. . ... : ... .. . ... : 1-# 00 A A0C ... : ... .. . ...
ROW 29 : ... .. . ... ... : ... .. . ... : ... .. . ... : --- .. . ... ... : ... .. . ...
ROW 2A : ... .. . ... ... : ... .. . ... : ... .. . ... : ... .. . ... ... : ... .. . ...
ROW 2B : ... .. . ... ... : ... .. . ... : ... .. . ... : ... .. . ... ... : ... .. . ...

PATTERN 04
ROW 00 : ... .. . ... ... : ... .. . ... : ... .. . ... : 6-# 00 7 A07 ... : ... .. . ...
ROW 01 : ... .. . ... ... : ... .. . ... : ... .. . ... : ... .. . A02 ... : ... .. . ...
ROW 02 : ... .. . ... ... : ... .. . ... : ... .. . ... : --- .. . ... ... : ... .. . ...
ROW 03 : ... .. . ... ... : ... .. . ... : ... .. . ... : ... .. . ... ... : ... .. . ...
ROW 04 : ... .. . ... ... : ... .. . ... : ... .. . ... : 1-# 00 A A0C ... : ... .. . ...
ROW 05 : ... .. . ... ... : ... .. . ... : ... .. . ... : --- .. . ... ... : ... .. . ...
ROW 06 : ... .. . ... ... : ... .. . ... : ... .. . ... : ... .. . ... ... : ... .. . ...
ROW 07 : ... .. . ... ... : ... .. . ... : ... .. . ... : ... .. . ... ... : ... .. . ...
ROW 08 : A-3 00 9 V01 A04 : ... .. . ... : ... .. . ... : 6-# 00 7 A07 ... : ... .. . ...
ROW 09 : ... .. . ... ... : ... .. . ... : ... .. . ... : ... .. . A02 ... : ... .. . ...
ROW 0A : A-3 00 9 ... ... : ... .. . ... : ... .. . ... : 1-# 00 A A0C ... : ... .. . ...
ROW 0B : ... .. . ... ... : ... .. . ... : ... .. . ... : --- .. . ... ... : ... .. . ...
ROW 0C : G-3 00 9 ... ... : ... .. . ... : ... .. . ... : ... .. . ... ... : ... .. . ...
ROW 0D : ... .. . ... ... : ... .. . ... : ... .. . ... : ... .. . ... ... : ... .. . ...
ROW 0E : A-3 00 9 ... ... : ... .. . ... : ... .. . ... : ... .. . ... ... : ... .. . ...
ROW 0F : ... .. . ... ... : ... .. . ... : ... .. . ... : ... .. . ... ... : ... .. . ...
ROW 10 : ... .. . 482 ... : ... .. . ... : ... .. . ... : 6-# 00 7 A07 ... : ... .. . ...
ROW 11 : ... .. . ... ... : ... .. . ... : ... .. . ... : ... .. . A02 ... : ... .. . ...
ROW 12 : G-3 00 4 400 A04 : ... .. . ... : ... .. . ... : --- .. . ... ... : ... .. . ...
ROW 13 : ... .. . ... ... : ... .. . ... : ... .. . ... : ... .. . ... ... : ... .. . ...
ROW 14 : G#3 00 9 ... ... : ... .. . ... : ... .. . ... : ... .. . ... ... : ... .. . ...
ROW 15 : ... .. . ... ... : ... .. . ... : ... .. . ... : ... .. . ... ... : ... .. . ...
ROW 16 : A-3 00 9 ... ... : ... .. . ... : ... .. . ... : 1-# 00 A A0C ... : ... .. . ...
ROW 17 : ... .. . ... ... : ... .. . ... : ... .. . ... : --- .. . ... ... : ... .. . ...
ROW 18 : A#3 00 9 ... ... : ... .. . ... : ... .. . ... : 6-# 00 7 A07 ... : ... .. . ...
ROW 19 : ... .. . ... ... : ... .. . ... : ... .. . ... : ... .. . A02 ... : ... .. . ...
ROW 1A : C-4 00 9 ... ... : ... .. . ... : ... .. . ... : --- .. . ... ... : ... .. . ...
ROW 1B : ... .. . ... ... : ... .. . ... : ... .. . ... : ... .. . ... ... : ... .. . ...
ROW 1C : A-3 00 9 ... ... : ... .. . ... : ... .. . ... : 1-# 00 A A0C ... : ... .. . ...
ROW 1D : ... .. . ... ... : ... .. . ... : ... .. . ... : --- .. . ... ... : ... .. . ...
ROW 1E : A-3 00 9 ... ... : ... .. . ... : ... .. . ... : ... .. . ... ... : ... .. . ...
ROW 1F : ... .. . ... ... : ... .. . ... : ... .. . ... : ... .. . ... ... : ... .. . ...
ROW 20 : F-3 00 9 ... ... : ... .. . ... : ... .. . ... : 6-# 00 7 A07 ... : ... .. . ...
ROW 21 : ... .. . ... ... : ... .. . ... : ... .. . ... : ... .. . A02 ... : ... .. . ...
ROW 22 : A-3 00 9 ... ... : ... .. . ... : ... .. . ... : --- .. . ... ... : ... .. . ...
ROW 23 : ... .. . ... ... : ... .. . ... : ... .. . ... : ... .. . ... ... : ... .. . ...
ROW 24 : D-3 00 9 ... ... : ... .. . ... : ... .. . ... : 1-# 00 A A0C ... : ... .. . ...
ROW 25 : ... .. . ... ... : ... .. . ... : ... .. . ... : --- .. . ... ... : ... .. . ...
ROW 26 : ... .. . 482 A01 : ... .. . ... : ... .. . ... : ... .. . ... ... : ... .. . ...
ROW 27 : ... .. . ... ... : ... .. . ... : ... .. . ... : ... .. . ... ... : ... .. . ...
ROW 28 : ... .. . ... ... : ... .. . ... : ... .. . ... : 6-# 00 7 A07 ... : ... .. . ...
ROW 29 : ... .. . ... ... : ... .. . ... : ... .. . ... : ... .. . A02 ... : ... .. . ...
ROW 2A : ... .. . 484 A00 : ... .. . ... : ... .. . ... : --- .. . ... ... : ... .. . ...
ROW 2B : ... .. . ... ... : ... .. . ... : ... .. . ... : ... .. . ... ... : ... .. . ...

PATTERN 05
ROW 00 : ... .. . ... ... : ... .. . ... : ... .. . ... : 1-# 00 A A0C ... : ... .. . ...
ROW 01 : ... .. . ... ... : ... .. . ... : ... .. . ... : --- .. . ... ... : ... .. . ...
ROW 02 : C-3 00 9 400 A04 : ... .. . ... : ... .. . ... : ... .. . ... ... : ... .. . ...
ROW 03 : ... .. . ... ... : ... .. . ... : ... .. . ... : ... .. . ... ... : ... .. . ...
ROW 04 : C#3 00 9 ... ... : ... .. . ... : ... .. . ... : 6-# 00 7 A07 ... : ... .. . ...
ROW 05 : ... .. . ... ... : ... .. . ... : ... .. . ... : ... .. . A02 ... : ... .. . ...
ROW 06 : D-3 00 9 ... ... : ... .. . ... : ... .. . ... : 1-# 00 A A0C ... : ... .. . ...
ROW 07 : ... .. . ... ... : ... .. . ... : ... .. . ... : --- .. . ... ... : ... .. . ...
ROW 08 : F-3 00 9 ... ... : ... .. . ... : ... .. . ... : ... .. . ... ... : ... .. . ...
ROW 09 : ... .. . ... ... : ... .. . ... : ... .. . ... : ... .. . ... ... : ... .. . ...
ROW 0A : D#3 00 9 ... ... : ... .. . ... : ... .. . ... : ... .. . ... ... : ... .. . ...
ROW 0B : ... .. . ... ... : ... .. . ... : ... .. . ... : ... .. . ... ... : ... .. . ...
ROW 0C : F#3 00 9 ... ... : ... .. . ... : ... .. . ... : 6-# 00 7 A07 ... : ... .. . ...
ROW 0D : ... .. . ... ... : ... .. . ... : ... .. . ... : ... .. . A02 ... : ... .. . ...
ROW 0E : D-3 00 9 ... ... : ... .. . ... : ... .. . ... : --- .. . ... ... : ... .. . ...
ROW 0F : ... .. . ... ... : ... .. . ... : ... .. . ... : ... .. . ... ... : ... .. . ...
ROW 10 : A-3 00 9 ... ... : ... .. . ... : ... .. . ... : ... .. . ... ... : ... .. . ...
ROW 11 : ... .. . ... ... : ... .. . ... : ... .. . ... : ... .. . ... ... : ... .. . ...
ROW 12 : G-3 00 9 ... ... : ... .. . ... : ... .. . ... : 1-# 00 A A0C ... : ... .. . ...
ROW 13 : ... .. . ... ... : ... .. . ... : ... .. . ... : --- .. . ... ... : ... .. . ...
ROW 14 : F-3 00 9 ... ... : ... .. . ... : ... .. . ... : 6-# 00 7 A07 ... : ... .. . ...
ROW 15 : ... .. . ... ... : ... .. . ... : ... .. . ... : ... .. . A02 ... : ... .. . ...
ROW 16 : A-3 00 9 ... ... : ... .. . ... : ... .. . ... : --- .. . ... ... : ... .. . ...
ROW 17 : ... .. . ... ... : ... .. . ... : ... .. . ... : ... .. . ... ... : ... .. . ...
ROW 18 : G-3 00 4 ... ... : ... .. . ... : ... .. . ... : 1-# 00 A A0C ... : ... .. . ...
ROW 19 : ... .. . ... ... : ... .. . ... : ... .. . ... : --- .. . ... ... : ... .. . ...
ROW 1A : A#3 00 9 ... ... : ... .. . ... : ... .. . ... : ... .. . ... ... : ... .. . ...
ROW 1B : ... .. . ... ... : ... .. . ... : ... .. . ... : ... .. . ... ... : ... .. . ...
ROW 1C : A-3 00 4 ... ... : ... .. . ... : ... .. . ... : 6-# 00 7 A07 ... : ... .. . ...
ROW 1D : ... .. . ... ... : ... .. . ... : ... .. . ... : ... .. . A02 ... : ... .. . ...
ROW 1E : A#3 00 9 ... ... : ... .. . ... : ... .. . ... : 1-# 00 A A0C ... : ... .. . ...
ROW 1F : ... .. . ... ... : ... .. . ... : ... .. . ... : --- .. . ... ... : ... .. . ...
ROW 20 : A#3 00 4 ... ... : ... .. . ... : ... .. . ... : ... .. . ... ... : ... .. . ...
ROW 21 : ... .. . ... ... : ... .. . ... : ... .. . ... : ... .. . ... ... : ... .. . ...
ROW 22 : D-3 00 9 ... ... : ... .. . ... : ... .. . ... : ... .. . ... ... : ... .. . ...
ROW 23 : ... .. . ... ... : ... .. . ... : ... .. . ... : ... .. . ... ... : ... .. . ...
ROW 24 : C#3 00 9 ... ... : ... .. . ... : ... .. . ... : 6-# 00 7 A07 ... : ... .. . ...
ROW 25 : ... .. . ... ... : ... .. . ... : ... .. . ... : ... .. . A02 ... : ... .. . ...
ROW 26 : C-3 00 9 ... ... : ... .. . ... : ... .. . ... : --- .. . ... ... : ... .. . ...
ROW 27 : ... .. . ... ... : ... .. . ... : ... .. . ... : ... .. . ... ... : ... .. . ...
ROW 28 : G-3 00 9 ... ... : ... .. . ... : ... .. . ... : 1-# 00 A A0C ... : ... .. . ...
ROW 29 : ... .. . ... ... : ... .. . ... : ... .. . ... : --- .. . ... ... : ... .. . ...
ROW 2A : ... .. . ... ... : ... .. . ... : ... .. . ... : ... .. . ... ... : ... .. . ...
ROW 2B : ... .. . ... B02 : ... .. . ... : ... .. . ... : ... .. . ... ... : ... .. . ...

PATTERN 06
ROW 00 : ... .. . ... ... : ... .. . ... : ... .. . ... : 6-# 00 7 A07 ... : ... .. . ...
ROW 01 : ... .. . ... ... : ... .. . ... : ... .. . ... : ... .. . A02 ... : ... .. . ...
ROW 02 : ... .. . ... ... : ... .. . ... : ... .. . ... : --- .. . ... ... : ... .. . ...
ROW 03 : ... .. . ... ... : ... .. . ... : ... .. . ... : ... .. . ... ... : ... .. . ...
ROW 04 : ... .. . ... ... : ... .. . ... : ... .. . ... : 1-# 00 A A0C ... : ... .. . ...
ROW 05 : ... .. . ... ... : ... .. . ... : ... .. . ... : --- .. . ... ... : ... .. . ...
ROW 06 : ... .. . ... ... : ... .. . ... : ... .. . ... : ... .. . ... ... : ... .. . ...
ROW 07 : ... .. . ... ... : ... .. . ... : ... .. . ... : ... .. . ... ... : ... .. . ...
ROW 08 : ... .. . ... ... : ... .. . ... : ... .. . ... : 6-# 00 7 A07 ... : ... .. . ...
ROW 09 : ... .. . ... ... : ... .. . ... : ... .. . ... : ... .. . A02 ... : ... .. . ...
ROW 0A : ... .. . ... ... : ... .. . ... : ... .. . ... : 1-# 00 A A0C ... : ... .. . ...
ROW 0B : ... .. . ... ... : ... .. . ... : ... .. . ... : --- .. . ... ... : ... .. . ...
ROW 0C : ... .. . ... ... : ... .. . ... : ... .. . ... : ... .. . ... ... : ... .. . ...
ROW 0D : ... .. . ... ... : ... .. . ... : ... .. . ... : ... .. . ... ... : ... .. . ...
ROW 0E : ... .. . ... ... : ... .. . ... : ... .. . ... : ... .. . ... ... : ... .. . ...
ROW 0F : ... .. . ... ... : ... .. . ... : ... .. . ... : ... .. . ... ... : ... .. . ...
ROW 10 : ... .. . ... ... : ... .. . ... : ... .. . ... : 6-# 00 7 A07 ... : ... .. . ...
ROW 11 : ... .. . ... ... : ... .. . ... : ... .. . ... : ... .. . A02 ... : ... .. . ...
ROW 12 : ... .. . ... ... : ... .. . ... : ... .. . ... : --- .. . ... ... : ... .. . ...
ROW 13 : ... .. . ... ... : ... .. . ... : ... .. . ... : ... .. . ... ... : ... .. . ...
ROW 14 : ... .. . ... ... : ... .. . ... : ... .. . ... : ... .. . ... ... : ... .. . ...
ROW 15 : ... .. . ... ... : ... .. . ... : ... .. . ... : ... .. . ... ... : ... .. . ...
ROW 16 : ... .. . ... ... : ... .. . ... : ... .. . ... : 1-# 00 A A0C ... : ... .. . ...
ROW 17 : ... .. . ... ... : ... .. . ... : ... .. . ... : --- .. . ... ... : ... .. . ...
ROW 18 : ... .. . ... ... : ... .. . ... : ... .. . ... : 6-# 00 7 A07 ... : ... .. . ...
ROW 19 : ... .. . ... ... : ... .. . ... : ... .. . ... : ... .. . A02 ... : ... .. . ...
ROW 1A : ... .. . ... ... : ... .. . ... : ... .. . ... : --- .. . ... ... : ... .. . ...
ROW 1B : ... .. . ... ... : ... .. . ... : ... .. . ... : ... .. . ... ... : ... .. . ...
ROW 1C : ... .. . ... ... : ... .. . ... : ... .. . ... : 1-# 00 A A0C ... : ... .. . ...
ROW 1D : ... .. . ... ... : ... .. . ... : ... .. . ... : --- .. . ... ... : ... .. . ...
ROW 1E : ... .. . ... ... : ... .. . ... : ... .. . ... : ... .. . ... ... : ... .. . ...
ROW 1F : ... .. . ... ... : ... .. . ... : ... .. . ... : ... .. . ... ... : ... .. . ...
ROW 20 : ... .. . ... ... : ... .. . ... : ... .. . ... : 6-# 00 7 A07 ... : ... .. . ...
ROW 21 : ... .. . ... ... : ... .. . ... : ... .. . ... : ... .. . A02 ... : ... .. . ...
ROW 22 : ... .. . ... ... : ... .. . ... : ... .. . ... : --- .. . ... ... : ... .. . ...
ROW 23 : ... .. . ... ... : ... .. . ... : ... .. . ... : ... .. . ... ... : ... .. . ...
ROW 24 : ... .. . ... ... : ... .. . ... : ... .. . ... : 1-# 00 A A0C ... : ... .. . ...
ROW 25 : ... .. . ... ... : ... .. . ... : ... .. . ... : --- .. . ... ... : ... .. . ...
ROW 26 : ... .. . ... ... : ... .. . ... : ... .. . ... : 6-# 00 7 A07 ... : ... .. . ...
ROW 27 : ... .. . ... ... : ... .. . ... : ... .. . ... : ... .. . A02 ... : ... .. . ...
ROW 28 : ... .. . ... ... : ... .. . ... : ... .. . ... : 6-# 00 7 A07 ... : ... .. . ...
ROW 29 : ... .. . ... ... : ... .. . ... : ... .. . ... : 1-# 00 A A0C ... : ... .. . ...
ROW 2A : ... .. . ... ... : ... .. . ... : ... .. . ... : 1-# 00 A A0C ... : ... .. . ...
ROW 2B : ... .. . ... ... : ... .. . ... : ... .. . ... : --- .. . ... ... : ... .. . ...

PATTERN 07
ROW 00 : ... .. . ... ... : ... .. . ... : ... .. . ... : 6-# 00 7 A07 ... : ... .. . ...
ROW 01 : ... .. . ... ... : ... .. . ... : ... .. . ... : --- .. . ... ... : ... .. . ...
ROW 02 : ... .. . ... ... : ... .. . ... : ... .. . ... : 6-# 00 7 A07 ... : ... .. . ...
ROW 03 : ... .. . ... ... : ... .. . ... : ... .. . ... : --- .. . ... ... : ... .. . ...
ROW 04 : ... .. . ... ... : ... .. . ... : ... .. . ... : 1-# 00 A A0C ... : ... .. . ...
ROW 05 : ... .. . ... ... : ... .. . ... : ... .. . ... : --- .. . ... ... : ... .. . ...
ROW 06 : ... .. . ... ... : ... .. . ... : ... .. . ... : 6-# 00 7 A07 ... : ... .. . ...
ROW 07 : ... .. . ... ... : ... .. . ... : ... .. . ... : ... .. . A02 ... : ... .. . ...
ROW 08 : ... .. . ... ... : ... .. . ... : ... .. . ... : --- .. . ... ... : ... .. . ...
ROW 09 : ... .. . ... ... : ... .. . ... : ... .. . ... : ... .. . ... ... : ... .. . ...
ROW 0A : ... .. . ... ... : ... .. . ... : ... .. . ... : 1-# 00 A A0C ... : ... .. . ...
ROW 0B : ... .. . ... ... : ... .. . ... : ... .. . ... : --- .. . ... ... : ... .. . ...
ROW 0C : ... .. . ... ... : ... .. . ... : ... .. . ... : 6-# 00 7 A07 ... : ... .. . ...
ROW 0D : ... .. . ... ... : ... .. . ... : ... .. . ... : ... .. . A02 ... : ... .. . ...
ROW 0E : ... .. . ... ... : ... .. . ... : ... .. . ... : --- .. . ... ... : ... .. . ...
ROW 0F : ... .. . ... ... : ... .. . ... : ... .. . ... : ... .. . ... ... : ... .. . ...
ROW 10 : ... .. . ... ... : ... .. . ... : ... .. . ... : 6-# 00 7 A07 ... : ... .. . ...
ROW 11 : ... .. . ... ... : ... .. . ... : ... .. . ... : ... .. . A02 ... : ... .. . ...
ROW 12 : ... .. . ... ... : ... .. . ... : ... .. . ... : 1-# 00 A A0C ... : ... .. . ...
ROW 13 : ... .. . ... ... : ... .. . ... : ... .. . ... : --- .. . ... ... : ... .. . ...
ROW 14 : ... .. . ... ... : ... .. . ... : ... .. . ... : 6-# 00 7 A07 ... : ... .. . ...
ROW 15 : ... .. . ... ... : ... .. . ... : ... .. . ... : ... .. . A02 ... : ... .. . ...
ROW 16 : ... .. . ... ... : ... .. . ... : ... .. . ... : 9-# 00 9 A07 ... : ... .. . ...
ROW 17 : ... .. . ... ... : ... .. . ... : ... .. . ... : ... .. . A06 ... : ... .. . ...
ROW 18 : ... .. . ... ... : ... .. . ... : ... .. . ... : ... .. . A02 F02 : ... .. . ...
ROW 19 : ... .. . ... ... : ... .. . ... : ... .. . ... : ... .. . ... ... : ... .. . ...
ROW 1A : ... .. . ... ... : ... .. . ... : ... .. . ... : ... .. . A01 ... : ... .. . ...
ROW 1B : ... .. . ... ... : ... .. . ... : ... .. . ... : ... .. . ... ... : ... .. . ...
ROW 1C : ... .. . ... ... : ... .. . ... : ... .. . ... : 6-# 00 7 A07 ... : ... .. . ...
ROW 1D : ... .. . ... ... : ... .. . ... : ... .. . ... : ... .. . ... ... : ... .. . ...
ROW 1E : ... .. . ... ... : ... .. . ... : ... .. . ... : ... .. . A02 ... : ... .. . ...
ROW 1F : ... .. . ... ... : ... .. . ... : ... .. . ... : ... .. . ... D00 : ... .. . ...
ROW 20 : ... .. . ... ... : ... .. . ... : ... .. . ... : ... .. . ... ... : ... .. . ...
ROW 21 : ... .. . ... ... : ... .. . ... : ... .. . ... : ... .. . ... ... : ... .. . ...
ROW 22 : ... .. . ... ... : ... .. . ... : ... .. . ... : ... .. . ... ... : ... .. . ...
ROW 23 : ... .. . ... ... : ... .. . ... : ... .. . ... : ... .. . ... ... : ... .. . ...
ROW 24 : ... .. . ... ... : ... .. . ... : ... .. . ... : ... .. . ... ... : ... .. . ...
ROW 25 : ... .. . ... ... : ... .. . ... : ... .. . ... : ... .. . ... ... : ... .. . ...
ROW 26 : ... .. . ... ... : ... .. . ... : ... .. . ... : ... .. . ... ... : ... .. . ...
ROW 27 : ... .. . ... ... : ... .. . ... : ... .. . ... : ... .. . ... ... : ... .. . ...
ROW 28 : ... .. . ... ... : ... .. . ... : ... .. . ... : ... .. . ... ... : ... .. . ...
ROW 29 : ... .. . ... ... : ... .. . ... : ... .. . ... : ... .. . ... ... : ... .. . ...
ROW 2A : ... .. . ... ... : ... .. . ... : ... .. . ... : ... .. . ... ... : ... .. . ...
ROW 2B : ... .. . ... ... : ... .. . ... : ... .. . ... : ... .. . ... ... : ... .. . ...

TRACK  64   7 150 "M. Bison"
COLUMNS : 3 3 1 1 1

ORDER 00 : 00 00 00 00 00
ORDER 01 : 01 01 00 01 00
ORDER 02 : 02 02 01 02 00
ORDER 03 : 03 03 02 03 00
ORDER 04 : 04 04 03 03 00
ORDER 05 : 05 05 04 03 00
ORDER 06 : 06 06 05 03 00
ORDER 07 : 07 07 06 03 00
ORDER 08 : 08 08 07 04 00

PATTERN 00
ROW 00 : ... .. . ... ... ... : D-3 00 5 V02 A00 400 : E-2 00 . S04 : 1-# 00 9 A0C : ... .. . F06
ROW 01 : ... .. . ... ... ... : ... .. . ... ... ... : ... .. . ... : --- .. . ... : ... .. . F07
ROW 02 : ... .. . ... G06 400 : ... .. . ... ... ... : E-2 00 . S04 : 1-# 00 9 A0C : ... .. . F06
ROW 03 : D-3 00 2 V02 A00 P7E : ... .. . ... ... ... : E-2 00 . S05 : 1-# 00 9 A0C : ... .. . F07
ROW 04 : ... .. . ... ... ... : ... .. 4 ... 461 ... : E-2 00 . S04 : 6-# 00 7 A06 : ... .. . F06
ROW 05 : ... .. . ... ... ... : ... .. . ... ... ... : ... .. . ... : ... .. . A02 : ... .. . F07
ROW 06 : ... .. . ... ... ... : ... .. . ... ... ... : E-2 00 . S04 : 1-# 00 9 A0C : ... .. . F06
ROW 07 : ... .. . ... 461 ... : ... .. . ... ... ... : E-2 00 . ... : 1-# 00 9 A0C : ... .. . F07
ROW 08 : ... .. . ... ... ... : ... .. 3 ... ... ... : ... .. . S04 : --- .. . ... : ... .. . F06
ROW 09 : ... .. . ... ... ... : ... .. . ... ... ... : ... .. . ... : ... .. . ... : ... .. . F07
ROW 0A : ... .. . ... ... ... : ... .. . ... ... ... : E-2 00 . S04 : 1-# 00 9 A0C : ... .. . F06
ROW 0B : ... .. 1 ... ... ... : ... .. . ... ... ... : E-2 00 . S05 : 1-# 00 9 A0C : ... .. . F07
ROW 0C : ... .. . ... ... ... : ... .. 2 ... ... ... : E-2 00 . S04 : 6-# 00 7 A06 : ... .. . F06
ROW 0D : ... .. . ... ... ... : ... .. . ... ... ... : ... .. . ... : ... .. . A02 : ... .. . F07
ROW 0E : ... .. . ... ... ... : ... .. . ... ... ... : E-2 00 . S04 : 1-# 00 9 A0C : ... .. . F06
ROW 0F : ... .. . ... ... ... : ... .. . ... ... ... : E-2 00 . S05 : 1-# 00 9 A0C : ... .. . F07
ROW 10 : ... .. . ... ... ... : C#3 00 5 ... 400 ... : E-2 00 . S04 : 1-# 00 9 A0C : ... .. . F06
ROW 11 : ... .. . ... ... ... : ... .. . ... ... ... : ... .. . ... : --- .. . ... : ... .. . F07
ROW 12 : ... .. . ... ... ... : ... .. . ... ... ... : E-2 00 . S04 : 1-# 00 9 A0C : ... .. . F06
ROW 13 : C#3 00 2 ... 400 ... : ... .. . ... ... ... : E-2 00 . S05 : 1-# 00 9 A0C : ... .. . F07
ROW 14 : ... .. . ... ... ... : ... .. 4 ... 461 ... : E-2 00 . S04 : 6-# 00 7 A06 : ... .. . F06
ROW 15 : ... .. . ... ... ... : ... .. . ... ... ... : ... .. . ... : ... .. . A02 : ... .. . F07
ROW 16 : ... .. . ... ... ... : ... .. . ... ... ... : E-2 00 . S04 : 1-# 00 9 A0C : ... .. . F06
ROW 17 : ... .. . ... 461 ... : ... .. . ... ... ... : E-2 00 . ... : 1-# 00 9 A0C : ... .. . F07
ROW 18 : ... .. . ... ... ... : ... .. 3 ... ... ... : ... .. . S04 : --- .. . ... : ... .. . F06
ROW 19 : ... .. . ... ... ... : ... .. . ... ... ... : A-2 00 . S05 : ... .. . ... : ... .. . F07
ROW 1A : ... .. . ... ... ... : ... .. . ... ... ... : G-2 00 . S04 : ... .. . ... : ... .. . F06
ROW 1B : ... .. 1 ... ... ... : ... .. . ... ... ... : E-2 00 . S05 : 1-# 00 9 A0C : ... .. . F07
ROW 1C : ... .. . ... ... ... : ... .. 2 ... ... ... : A-2 00 . S04 : 6-# 00 7 A06 : ... .. . F06
ROW 1D : ... .. . G06 400 ... : ... .. . ... ... ... : ... .. . ... : ... .. . A02 : ... .. . F07
ROW 1E : A-2 00 7 V00 A02 P80 : ... .. . ... ... ... : G-2 00 . ... : 1-# 00 9 A0C : ... .. . F06
ROW 1F : ... .. . ... S06 ... : ... .. . ... ... ... : ... .. . S05 : ... .. . ... : ... .. . F07
ROW 20 : B-2 00 7 ... S05 ... : D-3 00 5 V02 400 ... : E-2 00 . S04 : 1-# 00 9 A0C : ... .. . F06
ROW 21 : B-2 00 7 ... S06 ... : ... .. . ... ... ... : ... .. . ... : --- .. . ... : ... .. . F07
ROW 22 : A-2 00 7 ... S05 ... : ... .. . ... ... ... : E-2 00 . S04 : 1-# 00 9 A0C : ... .. . F06
ROW 23 : B-2 00 7 ... S06 ... : ... .. . ... ... ... : E-2 00 . S05 : 1-# 00 9 A0C : ... .. . F07
ROW 24 : B-2 00 7 ... S05 ... : ... .. 4 ... 461 ... : E-2 00 . S04 : 6-# 00 7 A06 : ... .. . F06
ROW 25 : D-3 00 2 V02 A00 P7E : ... .. . ... ... ... : ... .. . ... : ... .. . A02 : ... .. . F07
ROW 26 : ... .. . ... 461 ... : ... .. . ... ... ... : E-2 00 . S04 : 1-# 00 9 A0C : ... .. . F06
ROW 27 : ... .. . ... ... ... : ... .. . ... ... ... : E-2 00 . ... : 1-# 00 9 A0C : ... .. . F07
ROW 28 : ... .. . ... ... ... : ... .. 3 ... ... ... : ... .. . S04 : --- .. . ... : ... .. . F06
ROW 29 : ... .. . ... ... ... : ... .. . ... ... ... : ... .. . ... : ... .. . ... : ... .. . F07
ROW 2A : ... .. . ... ... ... : ... .. . ... ... ... : E-2 00 . S04 : 1-# 00 9 A0C : ... .. . F06
ROW 2B : ... .. 1 ... ... ... : ... .. . ... ... ... : E-2 00 . S05 : 1-# 00 9 A0C : ... .. . F07
ROW 2C : ... .. . ... ... ... : ... .. 2 ... ... ... : E-2 00 . S04 : 6-# 00 7 A06 : ... .. . F06
ROW 2D : ... .. . ... ... ... : ... .. . ... ... ... : ... .. . ... : ... .. . A02 : ... .. . F07
ROW 2E : ... .. . ... ... ... : ... .. . ... ... ... : E-2 00 . S04 : 1-# 00 9 A0C : ... .. . F06
ROW 2F : ... .. . ... ... ... : ... .. . ... ... ... : E-2 00 . S05 : 1-# 00 9 A0C : ... .. . F07
ROW 30 : ... .. . ... ... ... : C#3 00 5 ... 400 ... : E-2 00 . S04 : 1-# 00 9 A0C : ... .. . F06
ROW 31 : ... .. . ... ... ... : ... .. . ... ... ... : ... .. . ... : --- .. . ... : ... .. . F07
ROW 32 : ... .. . ... ... ... : ... .. . ... ... ... : E-2 00 . S04 : 1-# 00 9 A0C : ... .. . F06
ROW 33 : C#3 00 2 ... 400 ... : ... .. . ... ... ... : E-2 00 . S05 : 1-# 00 9 A0C : ... .. . F07
ROW 34 : ... .. . ... ... ... : ... .. 4 ... 461 ... : E-2 00 . S04 : 6-# 00 7 A06 : ... .. . F06
ROW 35 : ... .. . ... ... ... : ... .. . ... ... ... : ... .. . ... : ... .. . A02 : ... .. . F07
ROW 36 : ... .. . ... ... ... : ... .. . ... ... ... : E-2 00 . S04 : 1-# 00 9 A0C : ... .. . F06
ROW 37 : ... .. . ... 461 ... : ... .. . ... ... ... : E-2 00 . ... : 1-# 00 9 A0C : ... .. . F07
ROW 38 : ... .. . ... ... ... : ... .. 3 ... ... ... : ... .. . S04 : --- .. . ... : ... .. . F06
ROW 39 : ... .. . ... ... ... : ... .. . ... ... ... : A-2 00 . S05 : ... .. . ... : ... .. . F07
ROW 3A : ... .. . ... ... ... : ... .. . ... ... ... : G-2 00 . S04 : ... .. . ... : ... .. . F06
ROW 3B : ... .. 1 ... ... ... : ... .. . ... ... ... : E-2 00 . S05 : 1-# 00 9 A0C : ... .. . F07
ROW 3C : A-2 00 7 A01 V02 P80 : ... .. 2 ... ... ... : A-2 00 . S04 : 6-# 00 7 A06 : ... .. . F06
ROW 3D : ... .. . ... ... ... : ... .. . ... ... ... : ... .. . ... : ... .. . A02 : ... .. . F07
ROW 3E : ... .. . A00 ... ... : ... .. . ... ... ... : B-2 00 . S04 : 1-# 00 9 A0C : ... .. . F06
ROW 3F : ... .. . ... ... ... : ... .. . G06 400 ... : D-2 00 . S05 : 7-# 00 6 A06 : ... .. . F07

PATTERN 01
ROW 00 : B-2 00 7 A01 ... P7F : B-2 00 7 ... V00 A02 : E-2 00 . S04 : 1-# 00 9 A0C : ... .. . ...
ROW 01 : ... .. . ... ... ... : ... .. . S06 ... ... : ... .. . ... : --- .. . ... : ... .. . ...
ROW 02 : ... .. . A00 ... ... : B-2 00 7 S05 ... ... : E-2 00 . S04 : 1-# 00 9 A0C : ... .. . ...
ROW 03 : ... .. . ... ... ... : B-2 00 7 S06 ... ... : E-2 00 . S05 : 1-# 00 9 A0C : ... .. . ...
ROW 04 : ... .. . ... ... ... : A-2 00 7 S05 ... ... : E-2 00 . S04 : 6-# 00 7 A06 : ... .. . ...
ROW 05 : ... .. . ... ... ... : B-2 00 7 ... ... ... : ... .. . ... : ... .. . A02 : ... .. . ...
ROW 06 : ... .. . ... ... ... : ... .. . S05 ... ... : E-2 00 . S04 : 1-# 00 9 A0C : ... .. . ...
ROW 07 : ... .. . ... ... ... : B-2 00 7 ... ... ... : E-2 00 . ... : 1-# 00 9 A0C : ... .. . ...
ROW 08 : ... .. . ... ... ... : ... .. . S05 ... ... : ... .. . S04 : --- .. . ... : ... .. . ...
ROW 09 : ... .. . ... ... ... : B-2 00 7 S06 ... ... : ... .. . ... : ... .. . ... : ... .. . ...
ROW 0A : ... .. . ... ... ... : A-2 00 7 S05 ... ... : E-2 00 . S04 : 1-# 00 9 A0C : ... .. . ...
ROW 0B : ... .. . ... ... ... : B-2 00 7 S06 ... ... : E-2 00 . S05 : 1-# 00 9 A0C : ... .. . ...
ROW 0C : ... .. . ... ... ... : F#2 00 7 S05 ... ... : E-2 00 . S04 : 6-# 00 7 A06 : ... .. . ...
ROW 0D : ... .. . ... ... ... : G-2 00 7 S06 ... ... : ... .. . ... : ... .. . A02 : ... .. . ...
ROW 0E : D-3 00 7 A01 ... P80 : A-2 00 7 S05 ... ... : E-2 00 . S04 : 1-# 00 9 A0C : ... .. . ...
ROW 0F : F#3 00 7 ... ... ... : G-2 00 7 ... ... ... : E-2 00 . S05 : 1-# 00 9 A0C : ... .. . ...
ROW 10 : G-3 00 7 ... ... ... : ... .. . S05 ... ... : E-2 00 . S04 : 1-# 00 9 A0C : ... .. . ...
ROW 11 : ... .. . ... ... ... : B-1 00 7 S06 ... ... : ... .. . ... : --- .. . ... : ... .. . ...
ROW 12 : ... .. . A00 481 ... : D-2 00 7 S05 ... ... : E-2 00 . S04 : 1-# 00 9 A0C : ... .. . ...
ROW 13 : ... .. . ... ... ... : F#2 00 7 S06 ... ... : E-2 00 . S05 : 1-# 00 9 A0C : ... .. . ...
ROW 14 : ... .. . ... ... ... : A-2 00 7 S05 ... ... : E-2 00 . S04 : 6-# 00 7 A06 : ... .. . ...
ROW 15 : ... .. . ... ... ... : G-2 00 7 ... ... ... : ... .. . ... : ... .. . A02 : ... .. . ...
ROW 16 : ... .. . ... ... ... : ... .. . S05 ... ... : E-2 00 . S04 : 1-# 00 9 A0C : ... .. . ...
ROW 17 : ... .. . ... ... ... : B-2 00 7 ... ... ... : E-2 00 . ... : 1-# 00 9 A0C : ... .. . ...
ROW 18 : F#3 00 7 A01 400 ... : ... .. . S05 ... ... : ... .. . S04 : --- .. . ... : ... .. . ...
ROW 19 : ... .. . ... ... ... : B-2 00 7 S06 ... ... : A-2 00 . S05 : ... .. . ... : ... .. . ...
ROW 1A : ... .. . A00 ... ... : A-2 00 7 S05 ... ... : G-2 00 . S04 : ... .. . ... : ... .. . ...
ROW 1B : ... .. . ... ... ... : B-2 00 7 S06 ... ... : E-2 00 . S05 : 1-# 00 9 A0C : ... .. . ...
ROW 1C : D-3 00 7 A01 ... ... : A-2 00 7 S05 ... ... : A-2 00 . S04 : 6-# 00 7 A06 : ... .. . ...
ROW 1D : ... .. . ... ... ... : G-2 00 7 S06 ... ... : ... .. . ... : ... .. . A02 : ... .. . ...
ROW 1E : ... .. . A00 ... ... : F#2 00 7 S05 ... ... : G-2 00 . ... : 1-# 00 9 A0C : ... .. . ...
ROW 1F : ... .. . ... ... ... : D-2 00 7 ... ... ... : ... .. . S05 : ... .. . ... : ... .. . ...
ROW 20 : E-3 00 7 A01 ... ... : ... .. . ... ... ... : A-2 00 . S04 : 1-# 00 9 A0C : ... .. . ...
ROW 21 : ... .. . ... ... ... : ... .. . ... ... ... : ... .. . ... : --- .. . ... : ... .. . ...
ROW 22 : ... .. . A00 481 ... : ... .. . ... ... ... : A-2 00 . S04 : 1-# 00 9 A0C : ... .. . ...
ROW 23 : ... .. . ... ... ... : ... .. . S06 ... ... : A-2 00 . S05 : 1-# 00 9 A0C : ... .. . ...
ROW 24 : ... .. . ... ... ... : B-2 00 7 V00 A01 ... : A-2 00 . S04 : 6-# 00 7 A06 : ... .. . ...
ROW 25 : ... .. . ... ... ... : ... .. . ... ... ... : ... .. . ... : ... .. . A02 : ... .. . ...
ROW 26 : ... .. . ... ... ... : ... .. . ... ... ... : A-2 00 . S04 : 1-# 00 9 A0C : ... .. . ...
ROW 27 : ... .. . ... ... ... : ... .. . S06 ... ... : A-2 00 . ... : 1-# 00 9 A0C : ... .. . ...
ROW 28 : ... .. . ... ... ... : A-2 00 7 ... ... ... : ... .. . S04 : --- .. . ... : ... .. . ...
ROW 29 : ... .. . ... ... ... : ... .. . ... ... ... : ... .. . ... : ... .. . ... : ... .. . ...
ROW 2A : ... .. . A01 ... ... : ... .. . ... ... ... : A-2 00 . S04 : 1-# 00 9 A0C : ... .. . ...
ROW 2B : ... .. . ... ... ... : ... .. . S06 ... ... : A-2 00 . S05 : 1-# 00 9 A0C : ... .. . ...
ROW 2C : ... .. . ... ... ... : G-2 00 7 ... ... ... : A-2 00 . S04 : 6-# 00 7 A06 : ... .. . ...
ROW 2D : ... .. . ... ... ... : ... .. . ... ... ... : ... .. . ... : ... .. . A02 : ... .. . ...
ROW 2E : ... .. . ... ... ... : ... .. . ... ... ... : A-2 00 . S04 : 1-# 00 9 A0C : ... .. . ...
ROW 2F : ... .. . G06 400 ... : ... .. . S06 ... ... : A-2 00 . S05 : 1-# 00 9 A0C : ... .. . ...
ROW 30 : D-2 00 6 S05 V00 A01 : F#2 00 7 S05 ... ... : A-2 00 . S04 : 1-# 00 9 A0C : ... .. . ...
ROW 31 : E-2 00 6 ... ... ... : G-2 00 7 ... ... ... : ... .. . ... : --- .. . ... : ... .. . ...
ROW 32 : --- .. . ... ... ... : --- .. . ... ... ... : A-2 00 . S04 : 1-# 00 9 A0C : ... .. . ...
ROW 33 : E-2 00 6 ... ... ... : G-2 00 7 ... ... ... : A-2 00 . S05 : 1-# 00 9 A0C : ... .. . ...
ROW 34 : ... .. . ... ... ... : ... .. . ... ... ... : A-2 00 . S04 : 6-# 00 7 A06 : ... .. . ...
ROW 35 : ... .. . ... ... ... : ... .. . ... ... ... : ... .. . ... : ... .. . A02 : ... .. . ...
ROW 36 : ... .. . ... ... ... : ... .. . ... ... ... : A-2 00 . S04 : 1-# 00 9 A0C : ... .. . ...
ROW 37 : ... .. . ... ... ... : ... .. . ... ... ... : A-2 00 . ... : 1-# 00 9 A0C : ... .. . ...
ROW 38 : ... .. . ... ... ... : ... .. . ... ... ... : ... .. . S04 : --- .. . ... : ... .. . ...
ROW 39 : ... .. . ... ... ... : ... .. . ... ... ... : A-2 00 . S04 : ... .. . ... : ... .. . ...
ROW 3A : ... .. . ... ... ... : ... .. . ... ... ... : G-2 00 . S05 : 1-# 00 9 A0C : ... .. . ...
ROW 3B : ... .. . ... ... ... : ... .. . ... ... ... : F#2 00 . S04 : 1-# 00 9 A0C : ... .. . ...
ROW 3C : A-2 00 7 A01 V02 ... : ... .. . ... ... ... : A-2 00 . S05 : 6-# 00 7 A06 : ... .. . ...
ROW 3D : ... .. . ... ... ... : ... .. . S06 ... ... : ... .. . ... : ... .. . A02 : ... .. . ...
ROW 3E : ... .. . A00 ... ... : F#2 00 7 S05 V00 A02 : B-2 00 . S05 : 6-# 00 6 A06 : ... .. . ...
ROW 3F : ... .. . ... ... ... : B-1 00 7 S06 ... ... : E-2 00 . S05 : ... .. . A02 : ... .. . ...

PATTERN 02
ROW 00 : B-2 00 7 A01 ... P7F : B-2 00 7 ... V00 A02 : ... .. . S04 : 1-# 00 9 A0C : ... .. . ...
ROW 01 : ... .. . ... ... ... : ... .. . S06 ... ... : E-2 00 . S05 : --- .. . ... : ... .. . ...
ROW 02 : ... .. . A00 ... ... : B-2 00 7 S05 ... ... : F-2 00 . S04 : 1-# 00 9 A0C : ... .. . ...
ROW 03 : ... .. . ... ... ... : B-2 00 7 S06 ... ... : B-2 00 . S05 : 1-# 00 9 A0C : ... .. . ...
ROW 04 : ... .. . ... ... ... : A-2 00 7 S05 ... ... : D-3 00 . S04 : 6-# 00 7 A06 : ... .. . ...
ROW 05 : ... .. . ... ... ... : B-2 00 7 ... ... ... : C#3 00 . S05 : ... .. . A02 : ... .. . ...
ROW 06 : ... .. . ... ... ... : ... .. . S05 ... ... : ... .. . ... : 1-# 00 9 A0C : ... .. . ...
ROW 07 : ... .. . ... ... ... : B-2 00 7 ... ... ... : E-3 00 . ... : 1-# 00 9 A0C : ... .. . ...
ROW 08 : ... .. . ... ... ... : ... .. . S05 ... ... : ... .. . S04 : --- .. . ... : ... .. . ...
ROW 09 : ... .. . ... ... ... : B-2 00 7 S06 ... ... : E-3 00 . S05 : ... .. . ... : ... .. . ...
ROW 0A : ... .. . ... ... ... : A-2 00 7 S05 ... ... : D-3 00 . S04 : 1-# 00 9 A0C : ... .. . ...
ROW 0B : ... .. . ... ... ... : B-2 00 7 S06 ... ... : E-3 00 . S05 : 1-# 00 9 A0C : ... .. . ...
ROW 0C : ... .. . ... ... ... : F#2 00 7 S05 ... ... : D-3 00 . S04 : 6-# 00 7 A06 : ... .. . ...
ROW 0D : D-3 00 7 A01 ... P80 : G-2 00 7 S06 ... ... : A-2 00 . S05 : ... .. . A02 : ... .. . ...
ROW 0E : E-3 00 7 ... ... ... : A-2 00 7 S05 ... ... : G-2 00 . S04 : 1-# 00 9 A0C : ... .. . ...
ROW 0F : F#3 00 7 ... ... ... : G-2 00 7 ... ... ... : E-2 00 . ... : 1-# 00 9 A0C : ... .. . ...
ROW 10 : G-3 00 7 ... ... ... : ... .. . S05 ... ... : ... .. . S04 : 1-# 00 9 A0C : ... .. . ...
ROW 11 : ... .. . ... ... ... : B-1 00 7 S06 ... ... : E-2 00 . S05 : --- .. . ... : ... .. . ...
ROW 12 : ... .. . A00 481 ... : D-2 00 7 S05 ... ... : G-2 00 . S04 : 1-# 00 9 A0C : ... .. . ...
ROW 13 : ... .. . ... ... ... : F#2 00 7 S06 ... ... : B-2 00 . S05 : 1-# 00 9 A0C : ... .. . ...
ROW 14 : ... .. . ... ... ... : A-2 00 7 S05 ... ... : D-3 00 . S04 : 6-# 00 7 A06 : ... .. . ...
ROW 15 : ... .. . ... ... ... : G-2 00 7 ... ... ... : C#3 00 . S05 : ... .. . A02 : ... .. . ...
ROW 16 : ... .. . ... ... ... : ... .. . S05 ... ... : D-3 00 . S04 : 1-# 00 9 A0C : ... .. . ...
ROW 17 : ... .. . ... ... ... : B-2 00 7 ... ... ... : E-3 00 . S05 : 1-# 00 9 A0C : ... .. . ...
ROW 18 : A-3 00 7 A01 400 ... : ... .. . S05 ... ... : ... .. . ... : --- .. . ... : ... .. . ...
ROW 19 : ... .. . ... ... ... : B-2 00 7 S06 ... ... : E-3 00 . S05 : ... .. . ... : ... .. . ...
ROW 1A : G-3 00 7 G04 ... ... : A-2 00 7 S05 ... ... : ... .. . ... : ... .. . ... : ... .. . ...
ROW 1B : ... .. . ... ... ... : B-2 00 7 S06 ... ... : ... .. . ... : 1-# 00 9 A0C : ... .. . ...
ROW 1C : ... .. . ... ... ... : A-2 00 7 S05 ... ... : E-3 00 . ... : 6-# 00 7 A06 : ... .. . ...
ROW 1D : F#3 00 7 G02 ... ... : G-2 00 7 S06 ... ... : ... .. . S05 : ... .. . A02 : ... .. . ...
ROW 1E : ... .. . ... ... ... : F#2 00 7 S05 ... ... : D-2 00 . S04 : 1-# 00 9 A0C : ... .. . ...
ROW 1F : ... .. . ... ... ... : D-2 00 7 ... ... ... : E-2 00 . ... : ... .. . ... : ... .. . ...
ROW 20 : G-3 00 7 ... ... ... : ... .. . ... ... ... : ... .. . S04 : 1-# 00 9 A0C : ... .. . ...
ROW 21 : ... .. . ... ... ... : ... .. . ... ... ... : E-2 00 . S05 : --- .. . ... : ... .. . ...
ROW 22 : D-3 00 7 ... ... ... : ... .. . ... ... ... : F-2 00 . S04 : 1-# 00 9 A0C : ... .. . ...
ROW 23 : E-3 00 7 ... ... ... : ... .. . S06 ... ... : B-2 00 . S05 : 1-# 00 9 A0C : ... .. . ...
ROW 24 : ... .. . ... ... ... : B-2 00 7 V00 A01 ... : D-3 00 . S04 : 6-# 00 7 A06 : ... .. . ...
ROW 25 : ... .. . A00 481 ... : ... .. . ... ... ... : C#3 00 . S05 : ... .. . A02 : ... .. . ...
ROW 26 : ... .. . ... ... ... : ... .. . ... ... ... : ... .. . ... : 1-# 00 9 A0C : ... .. . ...
ROW 27 : ... .. . ... ... ... : ... .. . S06 ... ... : E-3 00 . ... : 1-# 00 9 A0C : ... .. . ...
ROW 28 : ... .. . ... ... ... : A-2 00 7 ... ... ... : ... .. . S04 : --- .. . ... : ... .. . ...
ROW 29 : ... .. . ... ... ... : ... .. . ... ... ... : E-3 00 . S05 : ... .. . ... : ... .. . ...
ROW 2A : ... .. . ... ... ... : ... .. . ... ... ... : D-3 00 . S04 : 1-# 00 9 A0C : ... .. . ...
ROW 2B : ... .. . ... ... ... : ... .. . S06 ... ... : E-3 00 . S05 : 1-# 00 9 A0C : ... .. . ...
ROW 2C : ... .. . A01 ... ... : G-2 00 7 ... ... ... : D-3 00 . S04 : 6-# 00 7 A06 : ... .. . ...
ROW 2D : ... .. . ... ... ... : ... .. . ... ... ... : A-2 00 . S05 : ... .. . A02 : ... .. . ...
ROW 2E : ... .. . ... ... ... : ... .. . ... ... ... : G-2 00 . S04 : 1-# 00 9 A0C : ... .. . ...
ROW 2F : ... .. . S06 ... ... : ... .. . S06 ... ... : E-2 00 . ... : 1-# 00 9 A0C : ... .. . ...
ROW 30 : D-2 00 6 S05 V00 400 : F#2 00 7 S05 ... ... : ... .. . S04 : 1-# 00 9 A0C : ... .. . ...
ROW 31 : E-2 00 6 ... ... ... : G-2 00 7 ... ... ... : E-2 00 . S05 : --- .. . ... : ... .. . ...
ROW 32 : --- .. . ... ... ... : --- .. . ... ... ... : G-2 00 . S04 : 1-# 00 9 A0C : ... .. . ...
ROW 33 : E-2 00 6 ... ... ... : G-2 00 7 ... ... ... : B-2 00 . S05 : 1-# 00 9 A0C : ... .. . ...
ROW 34 : ... .. . ... ... ... : ... .. . ... ... ... : D-3 00 . S04 : 6-# 00 7 A06 : ... .. . ...
ROW 35 : ... .. . ... ... ... : ... .. . ... ... ... : C#3 00 . S05 : ... .. . A02 : ... .. . ...
ROW 36 : ... .. . ... ... ... : ... .. . ... ... ... : D-3 00 . S04 : 1-# 00 9 A0C : ... .. . ...
ROW 37 : ... .. . ... ... ... : ... .. . ... ... ... : E-3 00 . S05 : 1-# 00 9 A0C : ... .. . ...
ROW 38 : ... .. . ... ... ... : ... .. . ... ... ... : ... .. . ... : --- .. . ... : ... .. . ...
ROW 39 : ... .. . ... ... ... : ... .. . ... ... ... : E-3 00 . S05 : ... .. . ... : ... .. . ...
ROW 3A : ... .. . ... ... ... : ... .. . ... ... ... : ... .. . ... : 1-# 00 9 A0C : ... .. . ...
ROW 3B : ... .. . ... ... ... : ... .. . ... ... ... : ... .. . ... : 1-# 00 9 A0C : ... .. . ...
ROW 3C : ... .. . ... ... ... : ... .. . ... ... ... : E-3 00 . ... : 6-# 00 7 A06 : ... .. . ...
ROW 3D : D-3 00 7 ... V00 A03 : F#3 00 8 ... V00 A03 : ... .. . S05 : 6-# 00 5 A05 : ... .. . ...
ROW 3E : ... .. . S06 ... ... : ... .. . S06 ... ... : D-2 00 . S04 : ... .. . ... : ... .. . ...
ROW 3F : B-2 00 8 ... V02 A02 : G-3 00 8 S05 V00 A03 : E-2 00 . ... : 6-# 00 5 A05 : ... .. . ...

PATTERN 03
ROW 00 : ... .. . ... ... ... : ... .. . ... ... ... : ... .. . S04 : ... .. . ... : ... .. . ...
ROW 01 : E-3 00 8 ... V02 A02 : G-3 00 8 S06 ... ... : E-2 00 . S05 : 1-# 00 A A0C : ... .. . ...
ROW 02 : E-2 00 8 ... ... ... : G-3 00 8 S05 ... ... : G-2 00 . S04 : 6-# 00 8 A06 : ... .. . ...
ROW 03 : A-2 00 8 ... ... ... : G-3 00 8 S06 ... ... : B-2 00 . S05 : ... .. . A02 : ... .. . ...
ROW 04 : B-2 00 8 ... ... ... : G-3 00 8 S05 ... ... : D-3 00 . S04 : 1-# 00 A A0C : ... .. . ...
ROW 05 : E-3 00 8 ... ... ... : G-3 00 8 S06 ... ... : C#3 00 . S05 : 1-# 00 A A0C : ... .. . ...
ROW 06 : E-2 00 8 ... ... ... : A-2 00 3 ... V02 A02 : ... .. . ... : 6-# 00 8 A06 : ... .. . ...
ROW 07 : G-2 00 8 ... ... ... : G-3 00 8 S06 V00 A03 : E-3 00 . ... : 1-# 00 A A0C : ... .. . ...
ROW 08 : ... .. . ... ... ... : E-3 00 3 ... V02 A02 : ... .. . S04 : --- .. . ... : ... .. . ...
ROW 09 : E-3 00 7 S06 V00 A03 : G-3 00 8 S06 V00 A03 : E-3 00 . S05 : 1-# 00 A A0C : ... .. . ...
ROW 0A : ... .. . ... ... ... : G-2 00 3 ... V02 A02 : D-3 00 . S04 : 6-# 00 8 A06 : ... .. . ...
ROW 0B : E-3 00 7 S06 ... ... : G-3 00 8 S06 V00 A03 : E-3 00 . S05 : ... .. . A02 : ... .. . ...
ROW 0C : E-3 00 7 ... ... ... : G-3 00 8 ... ... ... : D-3 00 . S04 : 1-# 00 A A0C : ... .. . ...
ROW 0D : ... .. . S06 ... ... : ... .. . S06 ... ... : A-2 00 . S05 : --- .. . ... : ... .. . ...
ROW 0E : ... .. . ... ... ... : ... .. . ... ... ... : G-2 00 . S04 : 6-# 00 8 A06 : ... .. . ...
ROW 0F : B-2 00 8 ... V02 A02 : G-3 00 8 S06 ... ... : E-2 00 . ... : 1-# 00 A A0C : ... .. . ...
ROW 10 : ... .. . ... ... ... : ... .. . ... ... ... : ... .. . S04 : --- .. . ... : ... .. . ...
ROW 11 : E-3 00 8 ... ... ... : G-3 00 8 S06 ... ... : E-2 00 . S05 : 1-# 00 A A0C : ... .. . ...
ROW 12 : E-2 00 8 ... ... ... : G-3 00 8 S05 ... ... : G-2 00 . S04 : 6-# 00 8 A06 : ... .. . ...
ROW 13 : A-2 00 8 ... ... ... : G-3 00 8 S06 ... ... : B-2 00 . S05 : ... .. . A02 : ... .. . ...
ROW 14 : B-2 00 8 ... ... ... : G-3 00 8 S05 ... ... : D-3 00 . S04 : 1-# 00 A A0C : ... .. . ...
ROW 15 : E-3 00 8 ... ... ... : G-3 00 8 S06 ... ... : C#3 00 . S05 : 1-# 00 A A0C : ... .. . ...
ROW 16 : E-2 00 8 ... ... ... : A-2 00 3 ... V02 A02 : D-3 00 . S04 : 6-# 00 8 A06 : ... .. . ...
ROW 17 : G-2 00 8 ... ... ... : G-3 00 8 S06 V00 A03 : E-3 00 . S05 : 1-# 00 A A0C : ... .. . ...
ROW 18 : ... .. . ... ... ... : E-3 00 3 ... V02 A02 : ... .. . ... : --- .. . ... : ... .. . ...
ROW 19 : ... .. . ... ... ... : E-2 00 2 ... ... ... : E-3 00 . S05 : 1-# 00 A A0C : ... .. . ...
ROW 1A : E-3 00 7 ... V00 A03 : G-3 00 8 ... V00 A03 : ... .. . ... : 6-# 00 8 A06 : ... .. . ...
ROW 1B : ... .. . ... ... ... : ... .. . ... ... ... : ... .. . ... : ... .. . A02 : ... .. . ...
ROW 1C : ... .. . S05 ... ... : ... .. . S05 ... ... : E-3 00 . ... : 1-# 00 A A0C : ... .. . ...
ROW 1D : D-3 00 7 S06 ... ... : F#3 00 8 S06 ... ... : ... .. . S05 : --- .. . ... : ... .. . ...
ROW 1E : ... .. . ... ... ... : ... .. . ... ... ... : D-2 00 . S04 : 6-# 00 8 A06 : ... .. . ...
ROW 1F : B-2 00 7 ... V02 A01 : G-3 00 8 S06 ... ... : E-2 00 . ... : 1-# 00 A A0C : ... .. . ...
ROW 20 : ... .. . S05 ... ... : ... .. . ... ... ... : ... .. . S04 : --- .. . ... : ... .. . ...
ROW 21 : B-2 00 7 ... ... ... : G-3 00 8 S06 ... ... : E-2 00 . S05 : 1-# 00 A A0C : ... .. . ...
ROW 22 : D-3 00 7 ... ... ... : G-3 00 8 S05 ... ... : G-2 00 . S04 : 6-# 00 8 A06 : ... .. . ...
ROW 23 : F#3 00 7 ... ... ... : G-3 00 8 S06 ... ... : B-2 00 . S05 : ... .. . A02 : ... .. . ...
ROW 24 : A-3 00 7 ... ... ... : G-3 00 8 S05 ... ... : D-3 00 . S04 : 1-# 00 A A0C : ... .. . ...
ROW 25 : G-3 00 7 ... ... ... : G-3 00 8 S06 ... ... : C#3 00 . S05 : 1-# 00 A A0C : ... .. . ...
ROW 26 : A-3 00 7 ... ... ... : A-3 00 3 ... V02 A01 : ... .. . ... : 6-# 00 8 A06 : ... .. . ...
ROW 27 : B-3 00 7 ... ... ... : G-3 00 8 S06 V00 A03 : E-3 00 . ... : 1-# 00 A A0C : ... .. . ...
ROW 28 : ... .. . ... ... ... : A-3 00 3 ... V02 A01 : ... .. . S04 : --- .. . ... : ... .. . ...
ROW 29 : ... .. . ... 482 A00 : G-3 00 8 S06 V00 A03 : E-3 00 . S05 : 1-# 00 A A0C : ... .. . ...
ROW 2A : ... .. . ... ... ... : B-3 00 2 ... V02 A00 : D-3 00 . S04 : 6-# 00 8 A06 : ... .. . ...
ROW 2B : ... .. . ... ... ... : G-3 00 8 S06 V00 A03 : E-3 00 . S05 : ... .. . A02 : ... .. . ...
ROW 2C : ... .. . ... ... ... : G-3 00 8 ... ... ... : D-3 00 . S04 : 1-# 00 A A0C : ... .. . ...
ROW 2D : ... .. . ... ... ... : ... .. . S06 ... ... : A-2 00 . S05 : --- .. . ... : ... .. . ...
ROW 2E : ... .. . ... ... ... : B-3 00 2 ... V02 A00 : G-2 00 . S04 : 6-# 00 8 A06 : ... .. . ...
ROW 2F : A-3 00 7 ... 400 A01 : G-2 00 8 S06 V00 A03 : E-2 00 . ... : 1-# 00 A A0C : ... .. . ...
ROW 30 : B-3 00 2 ... ... ... : ... .. . ... ... ... : ... .. . S04 : --- .. . ... : ... .. . ...
ROW 31 : G-3 00 7 ... ... ... : G-2 00 8 S05 ... ... : E-2 00 . S05 : 1-# 00 A A0C : ... .. . ...
ROW 32 : D-3 00 7 ... ... ... : B-2 00 8 S06 ... ... : G-2 00 . S04 : 6-# 00 8 A06 : ... .. . ...
ROW 33 : E-3 00 7 ... ... ... : D-3 00 8 S05 ... ... : B-2 00 . S05 : ... .. . A02 : ... .. . ...
ROW 34 : B-2 00 8 ... V02 A02 : F#3 00 8 S06 ... ... : D-3 00 . S04 : 1-# 00 A A0C : ... .. . ...
ROW 35 : E-3 00 8 ... ... ... : E-3 00 8 S05 ... ... : C#3 00 . S05 : 1-# 00 A A0C : ... .. . ...
ROW 36 : E-2 00 8 ... ... ... : F#3 00 8 S06 ... ... : D-3 00 . S04 : 6-# 00 8 A06 : ... .. . ...
ROW 37 : G-2 00 8 ... ... ... : G-3 00 8 S05 ... ... : E-3 00 . S05 : 1-# 00 A A0C : ... .. . ...
ROW 38 : ... .. . ... ... ... : E-3 00 3 ... V02 A02 : ... .. . ... : --- .. . ... : ... .. . ...
ROW 39 : E-3 00 7 S05 V00 A03 : G-3 00 8 S05 V00 A03 : E-3 00 . S05 : 1-# 00 A A0C : ... .. . ...
ROW 3A : G-2 00 3 ... V02 A02 : ... .. . ... ... ... : ... .. . ... : 6-# 00 8 A06 : ... .. . ...
ROW 3B : ... .. . ... ... ... : ... .. . ... ... ... : ... .. . ... : ... .. . A02 : ... .. . ...
ROW 3C : E-3 00 7 ... V00 A03 : G-3 00 8 ... V00 A03 : E-3 00 . ... : 1-# 00 A A0C : ... .. . ...
ROW 3D : ... .. . ... ... ... : ... .. . S06 ... ... : ... .. . S05 : --- .. . ... : ... .. . ...
ROW 3E : ... .. . ... ... ... : ... .. . ... ... ... : D-2 00 . S04 : 6-# 00 8 A06 : ... .. . ...
ROW 3F : B-2 00 7 ... V02 A01 : G-3 00 8 S06 ... ... : F-2 00 . ... : 1-# 00 A A0C : ... .. . ...

PATTERN 04
ROW 00 : --- .. . ... ... ... : ... .. . ... ... ... : ... .. . S04 : ... .. . ... : ... .. . ...
ROW 01 : B-2 00 7 ... ... ... : G-3 00 8 S06 ... ... : F-2 00 . S05 : 1-# 00 A A0C : ... .. . ...
ROW 02 : D-3 00 7 ... ... ... : G-3 00 8 S05 ... ... : G#2 00 . S04 : 6-# 00 8 A06 : ... .. . ...
ROW 03 : F#3 00 7 ... ... ... : G-3 00 8 S06 ... ... : C-3 00 . S05 : ... .. . A02 : ... .. . ...
ROW 04 : A-3 00 7 ... ... ... : G-3 00 8 S05 ... ... : D#3 00 . S04 : 1-# 00 A A0C : ... .. . ...
ROW 05 : G-3 00 7 ... ... ... : G-3 00 8 S06 ... ... : D-3 00 . S05 : 1-# 00 A A0C : ... .. . ...
ROW 06 : A-3 00 7 ... ... ... : F#3 00 3 ... V02 A01 : ... .. . ... : 6-# 00 8 A06 : ... .. . ...
ROW 07 : B-3 00 7 ... ... ... : G-3 00 8 S06 V00 A03 : F-3 00 . ... : 1-# 00 A A0C : ... .. . ...
ROW 08 : G-3 00 3 ... ... ... : G-3 00 3 ... V02 A01 : ... .. . S04 : --- .. . ... : ... .. . ...
ROW 09 : B-3 00 7 ... ... ... : G-3 00 8 S06 V00 A03 : F-3 00 . S05 : 1-# 00 A A0C : ... .. . ...
ROW 0A : A-3 00 7 ... ... ... : B-3 00 3 ... V02 A01 : D#3 00 . S04 : 6-# 00 8 A06 : ... .. . ...
ROW 0B : G-3 00 7 ... ... ... : G-3 00 8 S06 V00 A03 : F-3 00 . S05 : ... .. . A02 : ... .. . ...
ROW 0C : F#3 00 7 ... ... ... : G-3 00 8 ... ... ... : D#3 00 . S04 : 1-# 00 A A0C : ... .. . ...
ROW 0D : G-3 00 7 ... ... ... : ... .. . S06 ... ... : A#2 00 . S05 : --- .. . ... : ... .. . ...
ROW 0E : D-3 00 7 ... ... ... : G-3 00 3 ... V02 A01 : G#2 00 . S04 : 6-# 00 8 A06 : ... .. . ...
ROW 0F : E-3 00 7 ... ... ... : G-2 00 8 S06 V00 A03 : F-2 00 . ... : 1-# 00 A A0C : ... .. . ...
ROW 10 : G-3 00 3 ... ... ... : G-3 00 3 ... V02 A01 : ... .. . S04 : --- .. . ... : ... .. . ...
ROW 11 : E-3 00 8 ... V02 A02 : G-2 00 8 S05 V00 A03 : F-2 00 . S05 : 1-# 00 A A0C : ... .. . ...
ROW 12 : E-2 00 8 ... ... ... : B-2 00 8 S06 ... ... : G#2 00 . S04 : 6-# 00 8 A06 : ... .. . ...
ROW 13 : A-2 00 8 ... ... ... : D-3 00 8 S05 ... ... : C-3 00 . S05 : ... .. . A02 : ... .. . ...
ROW 14 : B-2 00 8 ... ... ... : F#3 00 8 S06 ... ... : D#3 00 . S04 : 1-# 00 A A0C : ... .. . ...
ROW 15 : E-3 00 8 ... ... ... : E-3 00 8 S05 ... ... : D-3 00 . S05 : 1-# 00 A A0C : ... .. . ...
ROW 16 : E-2 00 8 ... ... ... : F#3 00 8 S06 ... ... : D#3 00 . S04 : 6-# 00 8 A06 : ... .. . ...
ROW 17 : G-2 00 8 ... ... ... : G-3 00 8 S05 ... ... : F-3 00 . S05 : 1-# 00 A A0C : ... .. . ...
ROW 18 : ... .. . ... ... ... : E-3 00 3 ... V02 A02 : ... .. . ... : --- .. . ... : ... .. . ...
ROW 19 : E-3 00 7 S05 V00 A03 : G-3 00 8 S05 V00 A03 : F-3 00 . S05 : 1-# 00 A A0C : ... .. . ...
ROW 1A : G-2 00 2 ... V02 A02 : ... .. . ... ... ... : ... .. . ... : 6-# 00 8 A06 : ... .. . ...
ROW 1B : ... .. . ... ... ... : ... .. . ... ... ... : ... .. . ... : ... .. . A02 : ... .. . ...
ROW 1C : E-3 00 7 ... V00 A03 : G-3 00 8 ... V00 A03 : F-3 00 . ... : 1-# 00 A A0C : ... .. . ...
ROW 1D : ... .. . S06 ... ... : ... .. . S06 ... ... : ... .. . S05 : --- .. . ... : ... .. . ...
ROW 1E : ... .. . ... ... ... : ... .. . ... ... ... : D#2 00 . S04 : 1-# 00 A A0C : ... .. . ...
ROW 1F : E-3 00 7 ... V02 A01 : G-3 00 8 S06 ... ... : F-2 00 . ... : --- .. . ... : ... .. . ...
ROW 20 : --- .. . ... ... ... : ... .. . ... ... ... : ... .. . S04 : ... .. . ... : ... .. . ...
ROW 21 : E-3 00 7 ... ... ... : G-3 00 8 S06 ... ... : F-2 00 . S05 : 1-# 00 A A0C : ... .. . ...
ROW 22 : E-2 00 8 ... V02 A02 : G-3 00 8 S05 ... ... : G#2 00 . S04 : 1-# 00 A A0C : ... .. . ...
ROW 23 : A-2 00 8 ... ... ... : G-3 00 8 S06 ... ... : C-3 00 . S05 : 1-# 00 A A0C : ... .. . ...
ROW 24 : B-2 00 8 ... ... ... : G-3 00 8 S05 ... ... : D#3 00 . S04 : 6-# 00 7 A06 : ... .. . ...
ROW 25 : E-3 00 8 ... ... ... : G-3 00 8 S06 ... ... : D-3 00 . S05 : ... .. . A02 : ... .. . ...
ROW 26 : E-2 00 8 ... ... ... : A-2 00 3 ... V02 A02 : ... .. . ... : 1-# 00 A A0C : ... .. . ...
ROW 27 : G-2 00 8 ... ... ... : G-3 00 8 S06 V00 A03 : F-3 00 . ... : 1-# 00 A A0C : ... .. . ...
ROW 28 : ... .. . ... ... ... : E-3 00 3 ... V02 A02 : ... .. . S04 : --- .. . ... : ... .. . ...
ROW 29 : E-3 00 7 S06 V00 A03 : G-3 00 8 S06 V00 A03 : F-3 00 . S05 : ... .. . ... : ... .. . ...
ROW 2A : G-2 00 2 ... V02 A01 : ... .. . ... ... ... : D#3 00 . S04 : 1-# 00 A A0C : ... .. . ...
ROW 2B : E-3 00 7 S06 V00 A03 : G-3 00 8 S06 V00 A03 : F-3 00 . S05 : 1-# 00 A A0C : ... .. . ...
ROW 2C : E-3 00 7 ... ... ... : G-3 00 8 ... ... ... : D#3 00 . S04 : 6-# 00 7 A06 : ... .. . ...
ROW 2D : ... .. . S06 ... ... : ... .. . S06 ... ... : A#2 00 . S05 : ... .. . A02 : ... .. . ...
ROW 2E : ... .. . ... ... ... : ... .. . ... ... ... : G#2 00 . S04 : 1-# 00 A A0C : ... .. . ...
ROW 2F : B-2 00 8 ... V02 A02 : G-2 00 8 S06 V00 A03 : F-2 00 . ... : 1-# 00 A A0C : ... .. . ...
ROW 30 : ... .. . S05 ... ... : ... .. . ... ... ... : ... .. . S04 : --- .. . ... : ... .. . ...
ROW 31 : E-3 00 8 ... ... ... : G-2 00 8 S05 ... ... : F-2 00 . S05 : ... .. . ... : ... .. . ...
ROW 32 : E-2 00 8 ... ... ... : B-2 00 8 S06 ... ... : G#2 00 . S04 : 1-# 00 A A0C : ... .. . ...
ROW 33 : A-2 00 8 ... ... ... : D-3 00 8 S05 ... ... : C-3 00 . S05 : 1-# 00 A A0C : ... .. . ...
ROW 34 : B-2 00 8 ... ... ... : F#3 00 8 S06 ... ... : D#3 00 . S04 : 6-# 00 7 A06 : ... .. . ...
ROW 35 : E-3 00 8 ... ... ... : E-3 00 8 S05 ... ... : D-3 00 . S05 : ... .. . A02 : ... .. . ...
ROW 36 : E-2 00 8 ... ... ... : F#3 00 8 S06 ... ... : D#3 00 . S04 : 1-# 00 A A0C : ... .. . ...
ROW 37 : G-2 00 8 ... ... ... : G-3 00 8 S05 ... ... : F-3 00 . S05 : 1-# 00 A A0C : ... .. . ...
ROW 38 : ... .. . ... ... ... : E-3 00 3 ... V02 A02 : ... .. . ... : --- .. . ... : ... .. . ...
ROW 39 : E-3 00 7 ... V02 A01 : G-3 00 8 S05 V00 A03 : F-3 00 . S05 : 6-# 00 7 A06 : ... .. . ...
ROW 3A : ... .. . ... ... ... : ... .. . ... ... ... : ... .. . ... : 1-# 00 A A0C : ... .. . ...
ROW 3B : ... .. . S06 ... ... : ... .. . ... ... ... : ... .. . ... : --- .. . ... : ... .. . ...
ROW 3C : E-3 00 7 ... V02 A01 : G-3 00 8 ... V00 A03 : F-3 00 . ... : 6-# 00 7 A06 : ... .. . ...
ROW 3D : ... .. . ... ... ... : ... .. . S06 ... ... : ... .. . S05 : 4-# 00 7 A0A : ... .. . ...
ROW 3E : ... .. . ... ... ... : ... .. . ... ... ... : D#2 00 . S04 : 3-# 00 7 A0A : ... .. . ...
ROW 3F : F-3 00 7 ... ... ... : G#3 00 8 S06 ... ... : A#2 00 . ... : 2-# 00 7 A0A : ... .. . ...

PATTERN 05
ROW 00 : --- .. . ... ... ... : E-3 00 2 ... V02 A01 : ... .. . S04 : ... .. . ... : ... .. . ...
ROW 01 : F-3 00 8 ... V02 A02 : G#3 00 8 S06 V00 A03 : A#2 00 . S05 : ... .. . ... : ... .. . ...
ROW 02 : F-2 00 8 ... ... ... : G#3 00 8 S05 ... ... : C#3 00 . S04 : ... .. . ... : ... .. . ...
ROW 03 : A#2 00 8 ... ... ... : G#3 00 8 S06 ... ... : F-3 00 . S05 : ... .. . ... : ... .. . ...
ROW 04 : C-3 00 8 ... ... ... : G#3 00 8 S05 ... ... : G#3 00 . S04 : ... .. . ... : ... .. . ...
ROW 05 : F-3 00 8 ... ... ... : G#3 00 8 S06 ... ... : G-3 00 . S05 : ... .. . ... : ... .. . ...
ROW 06 : F-2 00 8 ... ... ... : A#2 00 3 ... V02 A02 : ... .. . ... : ... .. . ... : ... .. . ...
ROW 07 : G#2 00 8 ... ... ... : G#3 00 8 S06 V00 A03 : A#3 00 . ... : ... .. . ... : ... .. . ...
ROW 08 : ... .. . ... ... ... : F-3 00 3 ... V02 A02 : ... .. . S04 : ... .. . ... : ... .. . ...
ROW 09 : F-3 00 7 S06 V00 A03 : G#3 00 8 S06 V00 A03 : A#3 00 . S05 : ... .. . ... : ... .. . ...
ROW 0A : ... .. . ... ... ... : G#2 00 3 ... V02 A02 : G#3 00 . S04 : ... .. . ... : ... .. . ...
ROW 0B : F-3 00 7 S06 V00 A03 : G#3 00 8 S06 V00 A03 : A#3 00 . S05 : ... .. . ... : ... .. . ...
ROW 0C : F-3 00 7 ... ... ... : G#3 00 8 ... ... ... : G#3 00 . S04 : ... .. . ... : ... .. . ...
ROW 0D : ... .. . ... ... ... : ... .. . S06 ... ... : D#3 00 . S05 : ... .. . ... : ... .. . ...
ROW 0E : ... .. . ... ... ... : ... .. . ... ... ... : C#3 00 . S04 : ... .. . ... : ... .. . ...
ROW 0F : C-3 00 8 ... V02 A02 : G#3 00 8 S06 ... ... : A#2 00 . ... : ... .. . ... : ... .. . ...
ROW 10 : ... .. . S05 ... ... : ... .. . ... ... ... : ... .. . S04 : ... .. . ... : ... .. . ...
ROW 11 : F-3 00 8 ... ... ... : G#3 00 8 S06 ... ... : A#2 00 . S05 : ... .. . ... : ... .. . ...
ROW 12 : F-2 00 8 ... ... ... : G#3 00 8 S05 ... ... : C#3 00 . S04 : ... .. . ... : ... .. . ...
ROW 13 : A#2 00 8 ... ... ... : G#3 00 8 S06 ... ... : F-3 00 . S05 : ... .. . ... : ... .. . ...
ROW 14 : C-3 00 8 ... ... ... : G#3 00 8 S05 ... ... : G#3 00 . S04 : ... .. . ... : ... .. . ...
ROW 15 : F-3 00 8 ... ... ... : G#3 00 8 S06 ... ... : G-3 00 . S05 : ... .. . ... : ... .. . ...
ROW 16 : F-2 00 8 ... ... ... : C-3 00 3 ... V02 A02 : G#3 00 . S04 : ... .. . ... : ... .. . ...
ROW 17 : G#2 00 8 ... ... ... : G#3 00 8 S06 V00 A03 : A#3 00 . S05 : ... .. . ... : ... .. . ...
ROW 18 : ... .. . ... ... ... : F-3 00 3 ... V02 A02 : ... .. . ... : ... .. . ... : ... .. . ...
ROW 19 : ... .. . ... ... ... : F-2 00 3 ... ... ... : A#3 00 . S05 : ... .. . ... : ... .. . ...
ROW 1A : F-3 00 6 ... V00 A03 : G#3 00 8 ... V00 A03 : ... .. . ... : ... .. . ... : ... .. . ...
ROW 1B : ... .. . ... ... ... : ... .. . ... ... ... : ... .. . ... : ... .. . ... : ... .. . ...
ROW 1C : A#2 00 7 ... V02 A01 : ... .. . S05 ... ... : A#3 00 . ... : ... .. . ... : ... .. . ...
ROW 1D : ... .. . ... ... ... : G-3 00 8 S06 ... ... : ... .. . S05 : ... .. . ... : ... .. . ...
ROW 1E : ... .. . ... ... ... : F-3 00 2 ... V02 A01 : G#2 00 . S04 : ... .. . ... : ... .. . ...
ROW 1F : C-3 00 7 ... V02 A01 : G#3 00 8 S06 V00 A03 : F-2 00 . ... : ... .. . ... : ... .. . ...
ROW 20 : ... .. . ... ... ... : A#2 00 1 ... V02 A01 : ... .. . S04 : ... .. . ... : ... .. . ...
ROW 21 : ... .. . ... 482 A00 : G#3 00 8 S06 V00 A03 : F-2 00 . S05 : ... .. . ... : ... .. . ...
ROW 22 : ... .. . ... ... ... : G#3 00 8 S05 ... ... : G#2 00 . S04 : ... .. . ... : ... .. . ...
ROW 23 : ... .. . ... ... ... : G#3 00 8 S06 ... ... : C-3 00 . S05 : ... .. . ... : ... .. . ...
ROW 24 : ... .. . ... ... ... : G#3 00 8 S05 ... ... : D#3 00 . S04 : ... .. . ... : ... .. . ...
ROW 25 : ... .. . ... ... ... : G#3 00 8 S06 ... ... : D-3 00 . S05 : ... .. . ... : ... .. . ...
ROW 26 : ... .. . ... ... ... : C-3 00 2 ... V02 A00 : ... .. . ... : ... .. . ... : ... .. . ...
ROW 27 : ... .. . ... ... ... : G#3 00 8 S06 V00 A03 : F-3 00 . ... : ... .. . ... : ... .. . ...
ROW 28 : ... .. . ... ... ... : C-3 00 2 ... V02 A00 : ... .. . S04 : ... .. . ... : ... .. . ...
ROW 29 : ... .. . ... ... ... : G#3 00 8 S06 V00 A03 : F-3 00 . S05 : ... .. . ... : ... .. . ...
ROW 2A : ... .. . ... ... ... : C-3 00 2 ... V02 A00 : D#3 00 . S04 : ... .. . ... : ... .. . ...
ROW 2B : ... .. . ... ... ... : G#3 00 8 S06 V00 A03 : F-3 00 . S05 : ... .. . ... : ... .. . ...
ROW 2C : ... .. . ... ... ... : G#3 00 8 ... ... ... : D#3 00 . S04 : ... .. . ... : ... .. . ...
ROW 2D : ... .. . ... ... ... : ... .. . S06 ... ... : A#2 00 . S05 : ... .. . ... : ... .. . ...
ROW 2E : D#3 00 7 400 V02 A01 : C-3 00 2 ... V02 A00 : G#2 00 . S04 : ... .. . ... : ... .. . ...
ROW 2F : G-3 00 7 ... ... ... : G#2 00 8 S06 V00 A03 : F-2 00 . ... : ... .. . ... : ... .. . ...
ROW 30 : G#3 00 7 ... ... ... : C-3 00 2 ... V02 A00 : ... .. . S04 : ... .. . ... : ... .. . ...
ROW 31 : ... .. . ... ... ... : G#2 00 8 S05 V00 A03 : F-2 00 . S05 : ... .. . ... : ... .. . ...
ROW 32 : ... .. . ... 481 A00 : C-3 00 8 S06 ... ... : G#2 00 . S04 : ... .. . ... : ... .. . ...
ROW 33 : ... .. . ... ... ... : D#3 00 8 S05 ... ... : C-3 00 . S05 : ... .. . ... : ... .. . ...
ROW 34 : ... .. . ... ... ... : G-3 00 8 S06 ... ... : D#3 00 . S04 : ... .. . ... : ... .. . ...
ROW 35 : ... .. . ... ... ... : F-3 00 8 S05 ... ... : D-3 00 . S05 : ... .. . ... : ... .. . ...
ROW 36 : ... .. . ... ... ... : G-3 00 8 S06 ... ... : D#3 00 . S04 : ... .. . ... : ... .. . ...
ROW 37 : ... .. . ... ... ... : G#3 00 8 S05 ... ... : F-3 00 . S05 : ... .. . ... : ... .. . ...
ROW 38 : G-3 00 7 ... 400 A01 : G#3 00 2 ... V02 A00 : ... .. . ... : ... .. . ... : ... .. . ...
ROW 39 : ... .. . ... ... ... : G#3 00 8 S05 V00 A03 : F-3 00 . S05 : ... .. . ... : ... .. . ...
ROW 3A : ... .. . ... 481 A00 : G#3 00 2 ... V02 A00 : ... .. . ... : ... .. . ... : ... .. . ...
ROW 3B : ... .. . ... ... ... : G-3 00 3 ... ... A01 : ... .. . ... : ... .. . ... : ... .. . ...
ROW 3C : D#3 00 7 ... 400 A00 : G#3 00 8 ... V00 A03 : F-3 00 . ... : ... .. . ... : ... .. . ...
ROW 3D : ... .. . ... ... ... : ... .. . S06 ... ... : ... .. . S05 : ... .. . ... : ... .. . ...
ROW 3E : ... .. . ... ... ... : G-3 00 1 ... V02 A00 : D#2 00 . S04 : ... .. . ... : ... .. . ...
ROW 3F : F-3 00 7 ... 400 A01 : G#3 00 8 S06 V00 A03 : F-2 00 . ... : ... .. . ... : ... .. . ...

PATTERN 06
ROW 00 : ... .. . ... ... ... : D#3 00 2 ... V02 A00 : ... .. . S04 : ... .. . ... : ... .. . ...
ROW 01 : ... .. . ... 481 A00 : G#3 00 8 S06 V00 A03 : F-2 00 . S05 : ... .. . ... : ... .. . ...
ROW 02 : ... .. . ... ... ... : G#3 00 8 S05 ... ... : G#2 00 . S04 : ... .. . ... : ... .. . ...
ROW 03 : ... .. . ... ... ... : G#3 00 8 S06 ... ... : C-3 00 . S05 : ... .. . ... : ... .. . ...
ROW 04 : ... .. . ... ... ... : G#3 00 8 S05 ... ... : D#3 00 . S04 : ... .. . ... : ... .. . ...
ROW 05 : ... .. . ... ... ... : G#3 00 8 S06 ... ... : D-3 00 . S05 : ... .. . ... : ... .. . ...
ROW 06 : ... .. . ... ... ... : F-3 00 2 ... V02 A00 : ... .. . ... : ... .. . ... : ... .. . ...
ROW 07 : ... .. . ... ... ... : G#3 00 8 S06 V00 A03 : F-3 00 . ... : ... .. . ... : ... .. . ...
ROW 08 : ... .. . ... ... A01 : F-3 00 2 ... V02 A00 : ... .. . S04 : ... .. . ... : ... .. . ...
ROW 09 : ... .. . ... ... ... : G#3 00 8 S06 V00 A03 : F-3 00 . S05 : ... .. . ... : ... .. . ...
ROW 0A : ... .. . ... 400 G05 : F-3 00 2 ... V02 A00 : D#3 00 . S04 : ... .. . ... : ... .. . ...
ROW 0B : F-3 00 7 S06 V00 A03 : G#3 00 8 S06 V00 A03 : F-3 00 . S05 : ... .. . ... : ... .. . ...
ROW 0C : F-3 00 7 ... ... ... : G#3 00 8 ... ... ... : D#3 00 . S04 : ... .. . ... : ... .. . ...
ROW 0D : ... .. . S06 ... ... : ... .. . S06 ... ... : A#2 00 . S05 : ... .. . ... : ... .. . ...
ROW 0E : ... .. . ... ... ... : ... .. . ... ... ... : G#2 00 . S04 : ... .. . ... : ... .. . ...
ROW 0F : F-3 00 8 400 V02 A02 : G#2 00 8 S06 V00 A03 : F-2 00 . ... : ... .. . ... : ... .. . ...
ROW 10 : ... .. . S05 ... ... : ... .. . ... ... ... : ... .. . S04 : ... .. . ... : ... .. . ...
ROW 11 : A#3 00 8 ... ... ... : G#2 00 8 S05 ... ... : F-2 00 . S05 : ... .. . ... : ... .. . ...
ROW 12 : A#2 00 8 ... ... ... : C-3 00 8 S06 ... ... : G#2 00 . S04 : ... .. . ... : ... .. . ...
ROW 13 : D#3 00 8 ... ... ... : D#3 00 8 S05 ... ... : C-3 00 . S05 : ... .. . ... : ... .. . ...
ROW 14 : F-3 00 8 ... ... ... : G-3 00 8 S06 ... ... : D#3 00 . S04 : ... .. . ... : ... .. . ...
ROW 15 : A#3 00 8 ... ... ... : F-3 00 8 S05 ... ... : D-3 00 . S05 : ... .. . ... : ... .. . ...
ROW 16 : A#2 00 8 ... ... ... : G-3 00 8 S06 ... ... : D#3 00 . S04 : ... .. . ... : ... .. . ...
ROW 17 : C#3 00 8 ... ... ... : G#3 00 8 S05 ... ... : F-3 00 . S05 : ... .. . ... : ... .. . ...
ROW 18 : ... .. . ... ... ... : A#3 00 3 ... V02 A02 : ... .. . ... : ... .. . ... : ... .. . ...
ROW 19 : F-3 00 7 S05 V00 A03 : G#3 00 8 S05 V00 A03 : F-3 00 . S05 : ... .. . ... : ... .. . ...
ROW 1A : ... .. . ... ... ... : C#3 00 3 ... V02 A02 : ... .. . ... : ... .. . ... : ... .. . ...
ROW 1B : ... .. . ... ... ... : ... .. . ... ... ... : ... .. . ... : ... .. . ... : ... .. . ...
ROW 1C : F-3 00 7 ... V00 A03 : G#3 00 8 ... V00 A03 : F-3 00 . ... : ... .. . ... : ... .. . ...
ROW 1D : ... .. . ... ... ... : ... .. . S06 ... ... : ... .. . S05 : ... .. . ... : ... .. . ...
ROW 1E : ... .. . ... ... ... : ... .. . ... ... ... : A-2 00 . S04 : ... .. . ... : ... .. . ...
ROW 1F : C-4 00 7 ... V02 A01 : G#3 00 8 S06 ... ... : A#2 00 . ... : ... .. . ... : ... .. . ...
ROW 20 : ... .. . ... ... ... : ... .. . ... ... ... : ... .. . S04 : ... .. . ... : ... .. . ...
ROW 21 : ... .. . ... 481 A00 : G#3 00 8 S06 ... ... : A#2 00 . S05 : ... .. . ... : ... .. . ...
ROW 22 : ... .. . ... ... ... : G#3 00 8 S05 ... ... : C#3 00 . S04 : ... .. . ... : ... .. . ...
ROW 23 : ... .. . ... ... ... : G#3 00 8 S06 ... ... : F-3 00 . S05 : ... .. . ... : ... .. . ...
ROW 24 : ... .. . ... ... ... : G#3 00 8 S05 ... ... : G#3 00 . S04 : ... .. . ... : ... .. . ...
ROW 25 : ... .. . ... ... ... : G#3 00 8 S06 ... ... : G-3 00 . S05 : ... .. . ... : ... .. . ...
ROW 26 : ... .. . ... ... ... : C-4 00 2 ... V02 A00 : ... .. . ... : ... .. . ... : ... .. . ...
ROW 27 : ... .. . ... ... ... : G#3 00 8 S06 V00 A03 : A#3 00 . ... : ... .. . ... : ... .. . ...
ROW 28 : ... .. . ... ... ... : C-4 00 2 ... V02 A00 : ... .. . S04 : ... .. . ... : ... .. . ...
ROW 29 : ... .. . ... ... ... : G#3 00 8 S06 V00 A03 : A#3 00 . S05 : ... .. . ... : ... .. . ...
ROW 2A : A#3 00 7 ... 400 A01 : C-4 00 2 ... V02 A00 : G#3 00 . S04 : ... .. . ... : ... .. . ...
ROW 2B : G#3 00 7 ... ... ... : G#3 00 8 S06 V00 A03 : A#3 00 . S05 : ... .. . ... : ... .. . ...
ROW 2C : A#3 00 7 ... ... ... : G#3 00 8 ... ... ... : G#3 00 . S04 : ... .. . ... : ... .. . ...
ROW 2D : G#3 00 7 ... ... ... : ... .. . S06 ... ... : D#3 00 . S05 : ... .. . ... : ... .. . ...
ROW 2E : D#3 00 7 ... ... ... : G#3 00 3 ... V02 A01 : C#3 00 . S04 : ... .. . ... : ... .. . ...
ROW 2F : F-3 00 7 ... ... ... : A#3 00 3 ... ... ... : A#2 00 . ... : ... .. . ... : ... .. . ...
ROW 30 : ... .. . ... ... ... : G#3 00 3 ... ... ... : ... .. . S04 : ... .. . ... : ... .. . ...
ROW 31 : ... .. . ... 481 A00 : D#3 00 3 ... ... ... : A#2 00 . S05 : ... .. . ... : ... .. . ...
ROW 32 : ... .. . ... ... ... : C-4 00 8 ... V00 A03 : C#3 00 . S04 : ... .. . ... : ... .. . ...
ROW 33 : ... .. . ... ... ... : ... .. . S06 ... ... : F-3 00 . S05 : ... .. . ... : ... .. . ...
ROW 34 : ... .. . ... ... ... : A#3 00 8 ... ... ... : G#3 00 . S04 : ... .. . ... : ... .. . ...
ROW 35 : ... .. . ... ... ... : ... .. . S06 ... ... : G-3 00 . S05 : ... .. . ... : ... .. . ...
ROW 36 : ... .. . ... ... ... : G#3 00 8 ... ... ... : G#3 00 . S04 : ... .. . ... : ... .. . ...
ROW 37 : ... .. . ... ... A01 : ... .. . S06 ... ... : A#3 00 . S05 : ... .. . ... : ... .. . ...
ROW 38 : ... .. . S05 ... ... : G-3 00 8 S06 ... ... : ... .. . ... : ... .. . ... : ... .. . ...
ROW 39 : F-3 00 7 ... 400 A01 : G#3 00 8 ... ... ... : A#3 00 . S05 : ... .. . ... : ... .. . ...
ROW 3A : --- .. . ... ... ... : --- .. . ... ... ... : ... .. . ... : ... .. . ... : ... .. . ...
ROW 3B : ... .. . ... ... ... : ... .. . ... ... ... : ... .. . ... : ... .. . ... : ... .. . ...
ROW 3C : F-3 00 7 ... ... ... : G#3 00 8 ... ... ... : A#3 00 . ... : ... .. . ... : ... .. . ...
ROW 3D : ... .. . ... ... ... : ... .. . S06 ... ... : ... .. . S05 : ... .. . ... : ... .. . ...
ROW 3E : ... .. . ... ... ... : G-3 00 8 S05 ... ... : A#2 00 . S04 : ... .. . ... : ... .. . ...
ROW 3F : C-3 00 5 A00 V02 400 : F-3 00 8 S06 ... ... : B-2 00 . ... : ... .. . ... : ... .. . ...

PATTERN 07
ROW 00 : ... .. . ... ... ... : ... .. . ... ... ... : ... .. . S04 : ... .. . ... : ... .. . ...
ROW 01 : ... .. . ... ... ... : ... .. . ... ... ... : B-2 00 . S05 : ... .. . ... : ... .. . ...
ROW 02 : ... .. . ... ... ... : C-3 00 2 V02 A00 P7E : D-3 00 . S04 : ... .. . ... : ... .. . ...
ROW 03 : ... .. 4 ... 461 ... : ... .. . ... ... ... : F#3 00 . S05 : ... .. . ... : ... .. . ...
ROW 04 : ... .. . ... ... ... : ... .. . ... ... ... : A-3 00 . S04 : ... .. . ... : ... .. . ...
ROW 05 : ... .. . ... ... ... : ... .. . ... ... ... : G#3 00 . S05 : ... .. . ... : ... .. . ...
ROW 06 : ... .. . ... ... ... : ... .. . ... 461 ... : ... .. . ... : ... .. . ... : ... .. . ...
ROW 07 : ... .. 3 ... ... ... : ... .. . ... ... ... : B-3 00 . ... : ... .. . ... : ... .. . ...
ROW 08 : ... .. . ... ... ... : ... .. . ... ... ... : ... .. . S04 : ... .. . ... : ... .. . ...
ROW 09 : ... .. . ... ... ... : ... .. . ... ... ... : B-3 00 . S05 : ... .. . ... : ... .. . ...
ROW 0A : ... .. . ... ... ... : ... .. 1 ... ... ... : A-3 00 . S04 : ... .. . ... : ... .. . ...
ROW 0B : ... .. 2 ... ... ... : ... .. . ... ... ... : B-3 00 . S05 : ... .. . ... : ... .. . ...
ROW 0C : ... .. . ... ... ... : ... .. . ... ... ... : A-3 00 . S04 : ... .. . ... : ... .. . ...
ROW 0D : ... .. . ... ... ... : ... .. . ... ... ... : E-3 00 . S05 : ... .. . ... : ... .. . ...
ROW 0E : ... .. . ... ... ... : ... .. . ... ... ... : D-3 00 . S04 : ... .. . ... : ... .. . ...
ROW 0F : C-3 00 5 ... 400 ... : ... .. . ... ... ... : B-2 00 . ... : ... .. . ... : ... .. . ...
ROW 10 : ... .. . ... ... ... : ... .. . ... ... ... : ... .. . S04 : ... .. . ... : ... .. . ...
ROW 11 : ... .. . ... ... ... : ... .. . ... ... ... : B-2 00 . S05 : ... .. . ... : ... .. . ...
ROW 12 : ... .. . ... ... ... : C-3 00 2 V02 A00 P7E : D-3 00 . S04 : ... .. . ... : ... .. . ...
ROW 13 : ... .. 4 ... 461 ... : ... .. . ... ... ... : F#3 00 . S05 : ... .. . ... : ... .. . ...
ROW 14 : ... .. . ... ... ... : ... .. . ... ... ... : A-3 00 . S04 : ... .. . ... : ... .. . ...
ROW 15 : ... .. . ... ... ... : ... .. . ... ... ... : G#3 00 . S05 : ... .. . ... : ... .. . ...
ROW 16 : ... .. . ... ... ... : ... .. . ... 461 ... : A-3 00 . S04 : ... .. . ... : ... .. . ...
ROW 17 : ... .. 3 ... ... ... : ... .. . ... ... ... : B-3 00 . S05 : ... .. . ... : ... .. . ...
ROW 18 : ... .. . ... ... ... : ... .. . ... G06 400 : ... .. . ... : ... .. . ... : ... .. . ...
ROW 19 : ... .. . ... ... ... : D#3 00 8 V00 A03 P80 : B-3 00 . S05 : ... .. . ... : ... .. . ...
ROW 1A : ... .. . ... ... ... : ... .. . ... ... ... : ... .. . ... : ... .. . ... : ... .. . ...
ROW 1B : ... .. 2 ... ... ... : ... .. . S06 ... ... : ... .. . ... : ... .. . ... : ... .. . ...
ROW 1C : ... .. . ... ... ... : E-3 00 8 ... ... ... : B-3 00 . ... : ... .. . ... : ... .. . ...
ROW 1D : ... .. . ... ... ... : ... .. . ... ... ... : ... .. . S05 : ... .. . ... : ... .. . ...
ROW 1E : ... .. . ... ... ... : ... .. . S06 ... ... : D-2 00 . S04 : ... .. . ... : ... .. . ...
ROW 1F : F-3 00 5 ... 400 ... : A#3 00 7 V02 ... A01 : E-2 00 . ... : ... .. . ... : ... .. . ...
ROW 20 : ... .. . ... ... ... : --- .. . ... ... ... : ... .. . S04 : ... .. . ... : ... .. . ...
ROW 21 : ... .. . ... ... ... : A#3 00 7 ... ... A01 : E-2 00 . S05 : ... .. . ... : ... .. . ...
ROW 22 : ... .. . ... ... ... : ... .. . ... ... ... : G-2 00 . S04 : ... .. . ... : ... .. . ...
ROW 23 : ... .. 4 ... 461 ... : ... .. . ... 481 A00 : B-2 00 . S05 : ... .. . ... : ... .. . ...
ROW 24 : ... .. . ... ... ... : ... .. . ... ... ... : D-3 00 . S04 : ... .. . ... : ... .. . ...
ROW 25 : ... .. . ... ... ... : ... .. . ... ... ... : C#3 00 . S05 : ... .. . ... : ... .. . ...
ROW 26 : ... .. . ... ... ... : ... .. . ... ... ... : ... .. . ... : ... .. . ... : ... .. . ...
ROW 27 : ... .. 3 ... ... ... : ... .. . ... ... ... : E-3 00 . ... : ... .. . ... : ... .. . ...
ROW 28 : ... .. . ... ... ... : C-4 00 7 ... 400 A01 : ... .. . S04 : ... .. . ... : ... .. . ...
ROW 29 : ... .. . ... ... ... : ... .. . ... ... ... : E-3 00 . S05 : ... .. . ... : ... .. . ...
ROW 2A : ... .. . ... ... ... : A#3 00 7 ... ... ... : D-3 00 . S04 : ... .. . ... : ... .. . ...
ROW 2B : ... .. 2 ... ... ... : G#3 00 7 ... ... ... : E-3 00 . S05 : ... .. . ... : ... .. . ...
ROW 2C : ... .. . ... ... ... : A#3 00 7 ... ... ... : D-3 00 . S04 : ... .. . ... : ... .. . ...
ROW 2D : ... .. . ... ... ... : G#3 00 7 ... ... ... : A-2 00 . S05 : ... .. . ... : ... .. . ...
ROW 2E : ... .. . ... ... ... : D#3 00 7 ... ... ... : G-2 00 . S04 : ... .. . ... : ... .. . ...
ROW 2F : F-3 00 8 V00 A03 P7E : F-3 00 7 ... ... ... : E-2 00 . S06 : ... .. . ... : ... .. . ...
ROW 30 : ... .. . S05 ... ... : G#3 00 3 ... ... ... : ... .. . ... : ... .. . ... : ... .. . ...
ROW 31 : F-3 00 8 S06 ... ... : F-3 00 7 ... ... A01 : ... .. . ... : ... .. . ... : ... .. . ...
ROW 32 : F-3 00 8 S05 ... ... : ... .. . ... ... ... : E-2 00 . S04 : ... .. . ... : ... .. . ...
ROW 33 : F-3 00 8 S06 ... ... : ... .. . ... 481 A00 : E-2 00 . S05 : ... .. . ... : ... .. . ...
ROW 34 : F-3 00 8 S05 ... ... : ... .. . ... ... ... : E-2 00 . S04 : ... .. . ... : ... .. . ...
ROW 35 : F-3 00 8 S06 ... ... : ... .. . ... ... ... : --- .. . ... : ... .. . ... : ... .. . ...
ROW 36 : ... .. . ... ... ... : ... .. . ... ... ... : E-2 00 . S04 : ... .. . ... : ... .. . ...
ROW 37 : F-3 00 8 S06 ... ... : ... .. . ... ... ... : E-2 00 . ... : ... .. . ... : ... .. . ...
ROW 38 : ... .. . ... ... ... : ... .. . ... ... ... : ... .. . S04 : ... .. . ... : ... .. . ...
ROW 39 : F-3 00 8 S06 ... ... : ... .. . ... ... ... : A-2 00 . S05 : ... .. . ... : ... .. . ...
ROW 3A : ... .. . ... ... ... : D#3 00 7 ... 400 A01 : G-2 00 . S04 : ... .. . ... : ... .. . ...
ROW 3B : F-3 00 8 S06 ... ... : F-3 00 7 ... ... ... : E-2 00 . S05 : ... .. . ... : ... .. . ...
ROW 3C : F-3 00 8 ... ... ... : G#3 00 7 ... ... ... : A-2 00 . S04 : ... .. . ... : ... .. . ...
ROW 3D : ... .. . S06 ... ... : G-3 00 7 ... ... ... : --- .. . ... : ... .. . ... : ... .. . ...
ROW 3E : C-3 00 8 ... ... ... : D#3 00 7 ... ... ... : G-2 00 . ... : ... .. . ... : ... .. . ...
ROW 3F : D-3 00 8 S06 ... ... : F-3 00 7 ... ... ... : ... .. . S05 : ... .. . ... : ... .. . ...

PATTERN 08
ROW 00 : F#3 00 5 ... V02 A00 : G-3 00 3 ... V02 A01 : ... .. . ... : ... .. . ... : ... .. . ...
ROW 01 : ... .. . ... ... ... : D-3 00 8 S06 V00 A03 : ... .. . ... : ... .. . ... : ... .. . ...
ROW 02 : ... .. . ... ... ... : D-3 00 8 S05 ... ... : ... .. . ... : ... .. . ... : ... .. . ...
ROW 03 : ... .. 4 ... 461 ... : D-3 00 8 S06 ... ... : ... .. . ... : ... .. . ... : ... .. . ...
ROW 04 : ... .. . ... ... ... : D-3 00 8 S05 ... ... : ... .. . ... : ... .. . ... : ... .. . ...
ROW 05 : ... .. . ... ... ... : D-3 00 8 S06 ... ... : ... .. . ... : ... .. . ... : ... .. . ...
ROW 06 : ... .. . ... ... ... : F#3 00 2 ... V02 A00 : ... .. . ... : ... .. . ... : ... .. . ...
ROW 07 : ... .. 3 ... ... ... : D-3 00 8 S06 V00 A03 : ... .. . ... : ... .. . ... : ... .. . ...
ROW 08 : ... .. . ... ... ... : F#3 00 2 ... V02 A00 : ... .. . ... : ... .. . ... : ... .. . ...
ROW 09 : ... .. . ... ... ... : D-3 00 8 S06 V00 A03 : ... .. . ... : ... .. . ... : ... .. . ...
ROW 0A : ... .. . ... ... ... : F#3 00 1 ... V02 A00 : ... .. . ... : ... .. . ... : ... .. . ...
ROW 0B : ... .. 2 ... ... ... : D-3 00 8 S06 V00 A03 : ... .. . ... : ... .. . ... : ... .. . ...
ROW 0C : ... .. . ... ... ... : D-3 00 8 ... ... ... : ... .. . ... : ... .. . ... : ... .. . ...
ROW 0D : ... .. . ... ... ... : ... .. . S06 ... ... : ... .. . ... : ... .. . ... : ... .. . ...
ROW 0E : ... .. . ... ... ... : F#3 00 1 ... V02 A00 : ... .. . ... : ... .. . ... : ... .. . ...
ROW 0F : F#3 00 5 ... 400 ... : D-2 00 8 S06 V00 A03 : ... .. . ... : ... .. . ... : ... .. . ...
ROW 10 : ... .. . ... ... ... : F#3 00 1 ... V02 A00 : ... .. . ... : ... .. . ... : ... .. . ...
ROW 11 : ... .. . ... ... ... : D-2 00 8 S05 V00 A03 : ... .. . ... : ... .. . ... : ... .. . ...
ROW 12 : ... .. . ... ... ... : F#2 00 8 S06 ... ... : ... .. . ... : ... .. . ... : ... .. . ...
ROW 13 : ... .. 4 ... 461 ... : A-2 00 8 S05 ... ... : ... .. . ... : ... .. . ... : ... .. . ...
ROW 14 : ... .. . ... ... ... : C#3 00 8 S06 ... ... : ... .. . ... : ... .. . ... : ... .. . ...
ROW 15 : ... .. . ... ... ... : B-2 00 8 S05 ... ... : ... .. . ... : ... .. . ... : ... .. . ...
ROW 16 : ... .. . ... ... ... : C#3 00 8 S06 ... ... : ... .. . ... : ... .. . ... : ... .. . ...
ROW 17 : ... .. 3 ... ... ... : D-3 00 8 S05 ... ... : ... .. . ... : ... .. . ... : ... .. . ...
ROW 18 : ... .. . ... ... ... : F#3 00 2 ... V02 A00 : ... .. . ... : ... .. . ... : ... .. . ...
ROW 19 : ... .. . ... ... ... : D-3 00 8 S05 V00 A03 : ... .. . ... : ... .. . ... : ... .. . ...
ROW 1A : ... .. . ... ... ... : F#3 00 1 ... V02 A00 : ... .. . ... : ... .. . ... : ... .. . ...
ROW 1B : ... .. 2 ... ... ... : ... .. . ... ... ... : ... .. . ... : ... .. . ... : ... .. . ...
ROW 1C : ... .. . ... ... ... : D-3 00 8 ... V00 A03 : ... .. . ... : ... .. . ... : ... .. . ...
ROW 1D : ... .. . ... ... ... : ... .. . S06 ... ... : ... .. . ... : ... .. . ... : ... .. . ...
ROW 1E : ... .. . ... ... ... : F#3 00 1 461 V02 A00 : ... .. . ... : ... .. . ... : ... .. . ...
ROW 1F : D-3 00 5 ... 400 ... : ... .. . ... ... ... : ... .. . ... : ... .. . ... : ... .. . ...
ROW 20 : ... .. . ... ... ... : ... .. . ... ... ... : ... .. . ... : ... .. . ... : ... .. . ...
ROW 21 : ... .. . ... ... ... : ... .. . ... ... ... : ... .. . ... : ... .. . ... : ... .. . ...
ROW 22 : ... .. . ... ... ... : D-3 00 2 ... 400 ... : ... .. . ... : ... .. . ... : ... .. . ...
ROW 23 : ... .. 4 ... 461 ... : ... .. . ... ... ... : ... .. . ... : ... .. . ... : ... .. . ...
ROW 24 : ... .. . ... ... ... : ... .. . ... ... ... : ... .. . ... : ... .. . ... : ... .. . ...
ROW 25 : ... .. . ... ... ... : ... .. . ... ... ... : ... .. . ... : ... .. . ... : ... .. . ...
ROW 26 : ... .. . ... ... ... : ... .. . ... 461 ... : ... .. . ... : ... .. . ... : ... .. . ...
ROW 27 : ... .. 3 ... ... ... : ... .. . ... ... ... : ... .. . ... : ... .. . ... : ... .. . ...
ROW 28 : ... .. . ... ... ... : ... .. . ... ... ... : ... .. . ... : ... .. . ... : ... .. . ...
ROW 29 : ... .. . ... ... ... : ... .. . ... ... ... : ... .. . ... : ... .. . ... : ... .. . ...
ROW 2A : ... .. . ... ... ... : ... .. 1 ... ... ... : ... .. . ... : ... .. . ... : ... .. . ...
ROW 2B : ... .. 2 ... ... ... : ... .. . ... ... ... : ... .. . ... : ... .. . ... : ... .. . ...
ROW 2C : ... .. . ... ... ... : ... .. . ... ... ... : ... .. . ... : ... .. . ... : ... .. . ...
ROW 2D : ... .. . ... ... ... : ... .. . ... ... ... : ... .. . ... : ... .. . ... : ... .. . ...
ROW 2E : ... .. . ... ... ... : ... .. . ... ... ... : ... .. . ... : ... .. . ... : ... .. . ...
ROW 2F : A-2 00 7 V00 A02 P80 : C#3 00 5 ... 400 P80 : ... .. . ... : ... .. . ... : ... .. . ...
ROW 30 : ... .. . ... S06 ... : ... .. . ... ... ... : ... .. . ... : ... .. . ... : ... .. . ...
ROW 31 : B-2 00 7 ... S05 ... : ... .. . ... ... ... : ... .. . ... : ... .. . ... : ... .. . ...
ROW 32 : B-2 00 7 ... S06 ... : ... .. . ... ... ... : ... .. . ... : ... .. . ... : ... .. . ...
ROW 33 : A-2 00 7 ... S05 ... : ... .. 4 ... 461 ... : ... .. . ... : ... .. . ... : ... .. . ...
ROW 34 : B-2 00 7 ... S06 ... : ... .. . ... ... ... : ... .. . ... : ... .. . ... : ... .. . ...
ROW 35 : B-2 00 7 ... S05 ... : ... .. . ... ... ... : ... .. . ... : ... .. . ... : ... .. . ...
ROW 36 : C#3 00 2 V02 A00 P7E : ... .. . ... ... ... : ... .. . ... : ... .. . ... : ... .. . ...
ROW 37 : ... .. . ... ... 461 : ... .. 3 ... ... ... : ... .. . ... : ... .. . ... : ... .. . ...
ROW 38 : ... .. . ... ... ... : ... .. . ... ... ... : ... .. . ... : ... .. . ... : ... .. . ...
ROW 39 : ... .. . ... ... ... : ... .. . ... ... ... : ... .. . ... : ... .. . ... : ... .. . ...
ROW 3A : ... .. 1 ... ... ... : ... .. . ... ... ... : ... .. . ... : ... .. . ... : ... .. . ...
ROW 3B : ... .. . ... ... ... : ... .. 2 ... ... ... : ... .. . ... : ... .. . ... : ... .. . ...
ROW 3C : ... .. . ... ... ... : ... .. . ... ... ... : ... .. . ... : ... .. . ... : ... .. . ...
ROW 3D : ... .. . ... ... ... : ... .. . ... ... ... : ... .. . ... : ... .. . ... : ... .. . ...
ROW 3E : ... .. . ... ... ... : ... .. . ... ... ... : ... .. . ... : ... .. . ... : ... .. . ...
ROW 3F : ... .. . ... ... ... : ... .. 1 ... ... ... : ... .. . ... : ... .. . ... : ... .. . ...

TRACK  96   6 150 "Stage End"
COLUMNS : 3 2 1 1 2

ORDER 00 : 00 00 00 00 00

PATTERN 00
ROW 00 : ... .. . ... ... ... : ... .. . ... ... : B-1 00 . ... : 1-# 00 A A0C : ... .. . F04 Z00
ROW 01 : ... .. . ... ... ... : ... .. . ... ... : ... .. . S02 : ... .. . ... : ... .. . F03 ...
ROW 02 : D-3 00 7 V00 A04 ... : A-3 00 8 V00 A04 : B-2 00 . ... : 6-# 00 8 A06 : ... .. . ... ...
ROW 03 : ... .. . ... ... ... : ... .. . ... ... : ... .. . S02 : ... .. . A03 : ... .. . ... ...
ROW 04 : --- .. . ... ... ... : --- .. . ... ... : ... .. . ... : ... .. . ... : ... .. . F04 ...
ROW 05 : ... .. . ... ... ... : ... .. . ... ... : ... .. . ... : ... .. . ... : ... .. . F03 ...
ROW 06 : D-3 00 7 ... ... ... : G#3 00 8 ... ... : B-1 00 . ... : 9-# 00 8 A05 : ... .. . ... ...
ROW 07 : ... .. . ... ... ... : ... .. . A00 ... : ... .. . ... : ... .. . ... : ... .. . ... ...
ROW 08 : ... .. . ... A00 ... : ... .. . ... ... : ... .. . ... : ... .. . A03 : ... .. . F04 ...
ROW 09 : ... .. . ... ... ... : ... .. . ... ... : ... .. . ... : ... .. . ... : ... .. . F03 ...
ROW 0A : ... .. . ... ... 471 : ... .. . ... 471 : ... .. . 472 : ... .. . A01 : ... .. . ... ...
ROW 0B : ... .. . ... ... ... : ... .. . ... ... : ... .. . ... : ... .. . ... : ... .. . ... ...
ROW 0C : ... .. . ... ... ... : ... .. . ... ... : ... .. . ... : 4-# 00 8 A0C : ... .. . F04 ...
ROW 0D : ... .. . ... ... ... : ... .. . ... ... : ... .. . ... : 4-# 00 8 A0C : ... .. . F03 ...
ROW 0E : ... .. . ... ... ... : ... .. . ... 472 : ... .. . ... : 3-# 00 8 A0C : ... .. . ... ...
ROW 0F : ... .. . G03 A04 ... : ... .. . ... ... : ... .. . ... : 3-# 00 8 A0C : ... .. . ... ...
ROW 10 : D-3 00 8 400 V01 S05 : ... .. . ... ... : ... .. . ... : 1-# 00 A A0C : ... .. . F04 ...
ROW 11 : ... .. . ... ... ... : ... .. . ... ... : ... .. . ... : ... .. . ... : ... .. . F03 ...
ROW 12 : G#3 00 8 ... P7E ... : ... .. . ... ... : ... .. . ... : 4-# 00 8 A0A : ... .. . ... ...
ROW 13 : ... .. . ... ... ... : ... .. . ... ... : ... .. . ... : ... .. . ... : ... .. . ... ...
ROW 14 : --- .. . ... ... ... : ... .. . ... ... : ... .. . ... : --- .. . ... : ... .. . F04 ...
ROW 15 : ... .. . ... ... ... : ... .. . ... ... : ... .. . ... : ... .. . ... : ... .. . F03 ...
ROW 16 : G-3 00 8 ... P80 ... : ... .. . ... ... : ... .. . ... : 4-# 00 8 A0C : ... .. . ... ...
ROW 17 : ... .. . ... ... ... : ... .. . ... ... : ... .. . ... : ... .. . ... : ... .. . ... ...
ROW 18 : ... .. . A00 ... ... : ... .. . ... ... : ... .. . ... : 3-# 00 8 A0C : ... .. . F04 ...
ROW 19 : ... .. . ... ... ... : ... .. . ... ... : ... .. . ... : ... .. . ... : ... .. . F03 ...
ROW 1A : ... .. . ... ... 471 : ... .. . ... ... : ... .. . ... : 3-# 00 8 A0C : ... .. . ... ...
ROW 1B : ... .. . ... ... ... : ... .. . ... ... : ... .. . ... : ... .. . ... : ... .. . ... ...
ROW 1C : ... .. . ... ... ... : ... .. . ... ... : ... .. . ... : 2-# 00 8 A0C : ... .. . F04 ...
ROW 1D : ... .. . ... ... ... : ... .. . ... ... : ... .. . ... : 2-# 00 8 A0C : ... .. . F03 ...
ROW 1E : ... .. . ... ... ... : ... .. . ... ... : ... .. . ... : 2-# 00 8 A0C : ... .. . ... ...
ROW 1F : ... .. . ... ... ... : ... .. . ... ... : ... .. . ... : 2-# 00 8 A0C : ... .. . ... ...
ROW 20 : D-2 00 8 A04 ... 400 : ... .. 5 ... ... : ... .. . ... : 6-# 00 8 A06 : ... .. . F04 ...
ROW 21 : ... .. . ... S02 ... : ... .. . ... ... : ... .. . ... : ... .. . A03 : ... .. . F03 ...
ROW 22 : G-2 00 8 ... ... ... : ... .. . ... ... : ... .. . ... : ... .. . ... : ... .. . ... ...
ROW 23 : ... .. . ... ... ... : ... .. . ... ... : ... .. . ... : ... .. . ... : ... .. . ... ...
ROW 24 : ... .. . A00 ... ... : ... .. 4 ... 474 : ... .. . 474 : ... .. . ... : ... .. . F04 ...
ROW 25 : ... .. . ... ... ... : ... .. . ... ... : ... .. . ... : ... .. . ... : ... .. . F03 ...
ROW 26 : ... .. . ... ... ... : ... .. . ... S05 : ... .. . ... : ... .. . ... : ... .. . ... ...
ROW 27 : ... .. . ... ... ... : ... .. . ... ... : --- .. . ... : ... .. . ... : ... .. . ... ...
ROW 28 : G-3 00 7 A04 V00 ... : B-3 00 8 A04 400 : B-1 00 . 400 : 9-# 00 8 A05 : ... .. . F04 ...
ROW 29 : ... .. . ... ... ... : ... .. . A00 G02 : ... .. . ... : ... .. . ... : ... .. . F03 ...
ROW 2A : ... .. . A00 ... ... : ... .. . ... ... : ... .. . ... : ... .. . A03 : ... .. . ... ...
ROW 2B : ... .. . ... ... ... : ... .. . ... ... : ... .. . ... : ... .. . ... : ... .. . ... ...
ROW 2C : ... .. . ... ... ... : ... .. . ... 471 : ... .. . 471 : ... .. . A01 : ... .. . F04 ...
ROW 2D : ... .. . ... ... ... : ... .. . ... ... : ... .. . ... : ... .. . ... : ... .. . F03 ...
ROW 2E : ... .. . ... ... ... : ... .. . ... ... : ... .. . ... : ... .. . ... : ... .. . ... ...
ROW 2F : ... .. . ... ... ... : ... .. . ... ... : --- .. . ... : ... .. . ... : ... .. . ... ...
ROW 30 : D-3 00 8 A04 V01 ... : ... .. . ... 472 : B-1 00 . 400 : 8-# 00 8 A05 : ... .. . F04 ...
ROW 31 : ... .. . ... ... ... : ... .. . ... ... : ... .. . ... : ... .. . ... : ... .. . F03 ...
ROW 32 : ... .. . A00 ... ... : ... .. . ... ... : ... .. . ... : ... .. . A03 : ... .. . ... ...
ROW 33 : ... .. . ... ... ... : ... .. . ... ... : ... .. . ... : ... .. . ... : ... .. . ... ...
ROW 34 : ... .. . ... ... ... : ... .. . ... ... : ... .. . 471 : ... .. . A01 : ... .. . F04 ...
ROW 35 : ... .. . ... ... ... : ... .. . ... ... : ... .. . ... : ... .. . ... : ... .. . F03 ...
ROW 36 : ... .. . ... ... ... : F#3 00 8 A04 400 : ... .. . ... : 1-# 00 A A0C : ... .. . ... ...
ROW 37 : ... .. . ... ... S02 : ... .. . ... ... : --- .. . ... : ... .. . ... : ... .. . ... ...
ROW 38 : G-3 00 8 A04 ... ... : ... .. . A00 ... : B-1 00 . 400 : ... .. . ... : ... .. . F04 ...
ROW 39 : ... .. . ... ... ... : ... .. . ... S02 : ... .. . ... : ... .. . ... : ... .. . F03 ...
ROW 3A : ... .. . A00 ... ... : E-3 00 8 A04 ... : ... .. . ... : 1-# 00 A A0C : ... .. . ... ...
ROW 3B : ... .. . ... ... ... : ... .. . ... S02 : ... .. . ... : ... .. . ... : ... .. . ... ...
ROW 3C : ... .. . ... ... ... : D-3 00 8 ... ... : ... .. . 471 : 1-# 00 A A0C : ... .. . F04 ...
ROW 3D : ... .. . ... ... ... : ... .. . ... S02 : ... .. . ... : ... .. . ... : ... .. . F03 ...
ROW 3E : ... .. . ... ... ... : A-2 00 8 ... ... : ... .. . S03 : ... .. . ... : ... .. . ... ...
ROW 3F : ... .. . ... ... S02 : ... .. . ... S02 : ... .. . ... : ... .. . ... : ... .. . ... ...
ROW 40 : B-3 00 8 A04 ... ... : B-2 00 8 ... ... : B-1 00 . 400 : 6-# 00 8 A06 : ... .. . F04 ...
ROW 41 : ... .. . ... ... S02 : ... .. . ... S02 : ... .. . S02 : ... .. . A03 : ... .. . F03 ...
ROW 42 : B-3 00 8 ... ... ... : B-2 00 8 ... ... : B-2 00 . ... : 9-# 00 8 A05 : ... .. . ... ...
ROW 43 : ... .. . ... ... ... : ... .. . ... ... : ... .. . S02 : ... .. . ... : ... .. . ... ...
ROW 44 : ... .. . ... ... ... : ... .. . ... ... : ... .. . ... : ... .. . A03 : ... .. . F04 ...
ROW 45 : ... .. . ... ... ... : ... .. . ... ... : ... .. . ... : ... .. . ... : ... .. . F03 ...
ROW 46 : ... .. . ... ... ... : ... .. . ... ... : ... .. . ... : ... .. . A01 : ... .. . ... ...
ROW 47 : ... .. . ... ... ... : ... .. . ... ... : ... .. . ... : ... .. . ... : ... .. . ... ...
ROW 48 : ... .. . ... ... ... : ... .. . ... ... : ... .. . ... : ... .. . ... : ... .. . F04 ...
ROW 49 : ... .. . ... ... ... : ... .. . ... ... : ... .. . ... : ... .. . ... : ... .. . F03 ...
ROW 4A : ... .. . ... ... ... : ... .. . ... ... : ... .. . ... : ... .. . ... : ... .. . ... ...
ROW 4B : ... .. . ... ... ... : ... .. . ... ... : ... .. . ... : ... .. . ... : ... .. . ... ...
ROW 4C : ... .. . ... ... ... : ... .. . ... ... : ... .. . ... : ... .. . ... : ... .. . F04 ...
ROW 4D : ... .. . ... ... ... : ... .. . ... ... : ... .. . ... : ... .. . ... : ... .. . F03 ...
ROW 4E : ... .. . ... ... ... : ... .. . ... ... : ... .. . ... : ... .. . ... : ... .. . ... ...
ROW 4F : ... .. . ... ... ... : ... .. . ... ... : ... .. . C00 : ... .. . ... : ... .. . ... ...
ROW 50 : ... .. . ... ... ... : ... .. . ... ... : ... .. . ... : ... .. . ... : ... .. . F04 ...
ROW 51 : ... .. . ... ... ... : ... .. . ... ... : ... .. . ... : ... .. . ... : ... .. . F03 ...
ROW 52 : ... .. . ... ... ... : ... .. . ... ... : ... .. . ... : ... .. . ... : ... .. . ... ...
ROW 53 : ... .. . ... ... ... : ... .. . ... ... : ... .. . ... : ... .. . ... : ... .. . ... ...
ROW 54 : ... .. . ... ... ... : ... .. . ... ... : ... .. . ... : ... .. . ... : ... .. . F04 ...
ROW 55 : ... .. . ... ... ... : ... .. . ... ... : ... .. . ... : ... .. . ... : ... .. . F03 ...
ROW 56 : ... .. . ... ... ... : ... .. . ... ... : ... .. . ... : ... .. . ... : ... .. . ... ...
ROW 57 : ... .. . ... ... ... : ... .. . ... ... : ... .. . ... : ... .. . ... : ... .. . ... ...
ROW 58 : ... .. . ... ... ... : ... .. . ... ... : ... .. . ... : ... .. . ... : ... .. . F04 ...
ROW 59 : ... .. . ... ... ... : ... .. . ... ... : ... .. . ... : ... .. . ... : ... .. . F03 ...
ROW 5A : ... .. . ... ... ... : ... .. . ... ... : ... .. . ... : ... .. . ... : ... .. . ... ...
ROW 5B : ... .. . ... ... ... : ... .. . ... ... : ... .. . ... : ... .. . ... : ... .. . ... ...
ROW 5C : ... .. . ... ... ... : ... .. . ... ... : ... .. . ... : ... .. . ... : ... .. . F04 ...
ROW 5D : ... .. . ... ... ... : ... .. . ... ... : ... .. . ... : ... .. . ... : ... .. . F03 ...
ROW 5E : ... .. . ... ... ... : ... .. . ... ... : ... .. . ... : ... .. . ... : ... .. . ... ...
ROW 5F : ... .. . ... ... ... : ... .. . ... ... : ... .. . ... : ... .. . ... : ... .. . ... ...

TRACK  64   5 150 "Credits"
COLUMNS : 2 3 1 1 1

ORDER 00 : 00 00 00 00 00
ORDER 01 : 01 01 01 01 00
ORDER 02 : 02 02 02 02 00
ORDER 03 : 03 03 03 03 00
ORDER 04 : 04 04 04 04 00
ORDER 05 : 05 05 03 05 00
ORDER 06 : 06 06 05 06 00
ORDER 07 : 07 07 06 07 00
ORDER 08 : 08 08 07 08 00
ORDER 09 : 09 03 03 09 00
ORDER 0A : 0A 04 04 0A 00
ORDER 0B : 0B 05 03 0B 00
ORDER 0C : 0C 09 08 0C 00
ORDER 0D : 0D 0D 09 0D 01

PATTERN 00
ROW 00 : D#2 00 5 ... V00 : G-2 00 7 ... V00 ... : G#2 00 . ... : ... .. . ... : ... .. . F04
ROW 01 : D#2 00 4 ... ... : G#2 00 6 ... ... ... : ... .. . S00 : ... .. . ... : ... .. . F05
ROW 02 : ... .. . ... ... : ... .. . ... ... ... : G#2 00 . ... : ... .. . ... : ... .. . ...
ROW 03 : ... .. . ... ... : ... .. . ... ... ... : ... .. . S00 : ... .. . ... : ... .. . ...
ROW 04 : ... .. . ... 474 : ... .. . ... 474 ... : G#2 00 . ... : 1-# 00 A A0C : ... .. . ...
ROW 05 : ... .. . ... ... : ... .. . ... ... ... : ... .. . S00 : --- .. . ... : ... .. . ...
ROW 06 : ... .. . ... ... : ... .. . ... ... ... : G#2 00 . ... : ... .. . ... : ... .. . ...
ROW 07 : ... .. . ... ... : ... .. . ... ... ... : ... .. . S00 : ... .. . ... : ... .. . ...
ROW 08 : ... .. . ... ... : ... .. . ... ... ... : G#2 00 . ... : ... .. . ... : ... .. . F04
ROW 09 : ... .. . ... ... : ... .. . ... ... ... : ... .. . S00 : ... .. . ... : ... .. . F05
ROW 0A : ... .. . ... ... : ... .. . ... ... ... : G#2 00 . ... : ... .. . ... : ... .. . ...
ROW 0B : ... .. . ... ... : ... .. . ... ... ... : ... .. . S00 : ... .. . ... : ... .. . ...
ROW 0C : ... .. . ... ... : ... .. . ... ... ... : G#2 00 . ... : 1-# 00 A A0C : ... .. . ...
ROW 0D : ... .. . ... ... : ... .. . ... ... ... : ... .. . S00 : --- .. . ... : ... .. . ...
ROW 0E : ... .. . ... ... : ... .. . ... ... ... : G#2 00 . ... : ... .. . ... : ... .. . ...
ROW 0F : ... .. . ... ... : ... .. . ... ... ... : ... .. . ... : ... .. . ... : ... .. . ...
ROW 10 : ... .. . ... ... : ... .. . ... ... ... : ... .. . ... : ... .. . ... : ... .. . F04
ROW 11 : ... .. . ... ... : ... .. . ... ... ... : ... .. . S00 : ... .. . ... : ... .. . F05
ROW 12 : ... .. . ... ... : ... .. . ... ... ... : G#3 00 . ... : ... .. . ... : ... .. . ...
ROW 13 : ... .. . ... ... : ... .. . ... ... ... : ... .. . S00 : ... .. . ... : ... .. . ...
ROW 14 : ... .. . ... ... : ... .. . ... ... ... : G#2 00 . ... : 1-# 00 A A0C : ... .. . ...
ROW 15 : ... .. . ... ... : ... .. . ... ... ... : ... .. . S00 : --- .. . ... : ... .. . ...
ROW 16 : --- .. . ... ... : --- .. . ... ... ... : G#2 00 . ... : ... .. . ... : ... .. . ...
ROW 17 : ... .. . ... ... : ... .. . ... ... ... : ... .. . S00 : ... .. . ... : ... .. . ...
ROW 18 : D#2 00 5 ... 400 : G#2 00 7 ... 400 ... : G#2 00 . ... : ... .. . ... : ... .. . F04
ROW 19 : ... .. 4 S04 ... : ... .. 6 S04 ... ... : ... .. . S00 : ... .. . ... : ... .. . F05
ROW 1A : D#2 00 5 ... ... : A#2 00 7 ... ... ... : G#2 00 . ... : ... .. . ... : ... .. . ...
ROW 1B : ... .. 4 ... ... : ... .. 6 ... ... ... : ... .. . S00 : ... .. . ... : ... .. . ...
ROW 1C : --- .. . ... ... : --- .. . ... ... ... : G#2 00 . ... : 1-# 00 A A0C : ... .. . ...
ROW 1D : ... .. . ... ... : ... .. . ... ... ... : ... .. . S00 : --- .. . ... : ... .. . ...
ROW 1E : D#2 00 5 ... ... : G#2 00 7 ... ... ... : G-2 00 . ... : ... .. . ... : ... .. . ...
ROW 1F : D#2 00 4 ... ... : A#2 00 6 ... ... ... : ... .. . ... : ... .. . ... : ... .. . ...
ROW 20 : ... .. . ... ... : ... .. . ... ... ... : ... .. . ... : ... .. . ... : ... .. . F04
ROW 21 : ... .. . S04 ... : ... .. . S04 ... ... : ... .. . S00 : ... .. . ... : ... .. . F05
ROW 22 : D#2 00 5 ... ... : G#2 00 7 ... ... ... : G-2 00 . ... : ... .. . ... : ... .. . ...
ROW 23 : ... .. 4 S04 ... : ... .. 6 S04 ... ... : ... .. . S00 : ... .. . ... : ... .. . ...
ROW 24 : A#1 00 4 ... ... : G-2 00 6 ... ... ... : G-2 00 . ... : 1-# 00 A A0C : ... .. . ...
ROW 25 : ... .. . ... ... : ... .. . ... ... ... : ... .. . S00 : --- .. . ... : ... .. . ...
ROW 26 : ... .. . ... ... : ... .. . ... ... ... : G-2 00 . ... : ... .. . ... : ... .. . ...
ROW 27 : ... .. . ... ... : ... .. . ... ... ... : ... .. . S00 : ... .. . ... : ... .. . ...
ROW 28 : ... .. . ... 474 : ... .. . ... 474 ... : G-2 00 . ... : ... .. . ... : ... .. . F04
ROW 29 : ... .. . ... ... : ... .. . ... ... ... : ... .. . S00 : ... .. . ... : ... .. . F05
ROW 2A : ... .. . ... ... : ... .. . ... ... ... : G-2 00 . ... : ... .. . ... : ... .. . ...
ROW 2B : ... .. . ... ... : ... .. . ... ... ... : ... .. . S00 : ... .. . ... : ... .. . ...
ROW 2C : ... .. . ... ... : ... .. . ... ... ... : G-2 00 . ... : 1-# 00 A A0C : ... .. . ...
ROW 2D : ... .. . ... ... : ... .. . ... ... ... : ... .. . S00 : --- .. . ... : ... .. . ...
ROW 2E : ... .. . ... ... : ... .. . ... ... ... : G-2 00 . ... : ... .. . ... : ... .. . ...
ROW 2F : ... .. . ... ... : ... .. . ... ... ... : ... .. . ... : ... .. . ... : ... .. . ...
ROW 30 : ... .. . ... ... : ... .. . ... ... ... : ... .. . ... : ... .. . ... : ... .. . F04
ROW 31 : ... .. . ... ... : ... .. . ... ... ... : ... .. . S00 : ... .. . ... : ... .. . F05
ROW 32 : ... .. . ... ... : ... .. . ... ... ... : G-2 00 . ... : ... .. . ... : ... .. . ...
ROW 33 : ... .. . ... ... : ... .. . ... ... ... : ... .. . S00 : ... .. . ... : ... .. . ...
ROW 34 : ... .. . ... ... : ... .. . ... ... ... : G-2 00 . ... : 1-# 00 A A0C : ... .. . ...
ROW 35 : ... .. . ... ... : ... .. . ... ... ... : ... .. . S00 : --- .. . ... : ... .. . ...
ROW 36 : ... .. . ... ... : ... .. . ... ... ... : G-2 00 . ... : ... .. . ... : ... .. . ...
ROW 37 : ... .. . ... ... : ... .. . ... ... ... : ... .. . S00 : ... .. . ... : ... .. . ...
ROW 38 : --- .. . ... ... : --- .. . ... ... ... : G-2 00 . ... : ... .. . ... : ... .. . F04
ROW 39 : ... .. . ... ... : ... .. . ... ... ... : ... .. . S00 : ... .. . ... : ... .. . F05
ROW 3A : A#1 00 5 ... 400 : G-2 00 7 ... 400 ... : G-3 00 . ... : ... .. . ... : ... .. . ...
ROW 3B : ... .. 4 S04 ... : ... .. 6 S04 ... ... : ... .. . S00 : ... .. . ... : ... .. . ...
ROW 3C : C#2 00 5 ... 400 : G#2 00 7 ... ... ... : G-2 00 . ... : 1-# 00 A A0C : ... .. . ...
ROW 3D : ... .. 4 S04 ... : ... .. 6 S04 ... ... : ... .. . S00 : --- .. . ... : ... .. . ...
ROW 3E : C-3 00 3 A00 V01 : D#2 00 8 S04 ... ... : F-2 00 . ... : 8-# 00 A A07 : ... .. . ...
ROW 3F : ... .. 4 ... ... : F-2 00 7 ... ... ... : ... .. . ... : ... .. . A04 : ... .. . ...

PATTERN 01
ROW 00 : ... .. . ... 461 : ... .. . ... ... ... : ... .. . ... : ... .. . A01 : ... .. . ...
ROW 01 : ... .. . ... ... : ... .. . S04 ... ... : ... .. . S00 : ... .. . ... : ... .. . ...
ROW 02 : ... .. . ... ... : C-2 00 5 S03 ... ... : F-2 00 . ... : 1-# 00 A A0C : ... .. . ...
ROW 03 : ... .. . ... ... : C-2 00 5 S03 ... ... : ... .. . S00 : --- .. . ... : ... .. . ...
ROW 04 : ... .. . ... ... : F-2 00 8 ... ... ... : F-2 00 . ... : 6-# 00 8 A07 : ... .. . ...
ROW 05 : ... .. . ... ... : ... .. 7 S04 ... ... : ... .. . S00 : ... .. . A02 : ... .. . ...
ROW 06 : ... .. . ... ... : C-2 00 5 S03 ... ... : F-2 00 . ... : ... .. . ... : ... .. . ...
ROW 07 : ... .. . ... ... : ... .. . ... ... ... : ... .. . S00 : ... .. . ... : ... .. . ...
ROW 08 : F-3 00 3 ... 400 : F-2 00 8 ... ... ... : F-2 00 . ... : 1-# 00 A A0C : ... .. . ...
ROW 09 : ... .. 4 ... ... : ... .. 7 ... ... ... : ... .. . S00 : --- .. . ... : ... .. . ...
ROW 0A : ... .. . ... 461 : ... .. . ... ... ... : F-3 00 . ... : ... .. . ... : ... .. . ...
ROW 0B : ... .. . ... ... : ... .. . S04 ... ... : ... .. . S00 : ... .. . ... : ... .. . ...
ROW 0C : ... .. . ... ... : C-2 00 5 S03 ... ... : F-2 00 . ... : 6-# 00 8 A07 : ... .. . ...
ROW 0D : ... .. . ... ... : ... .. . ... ... ... : ... .. . S00 : ... .. . A02 : ... .. . ...
ROW 0E : ... .. . ... ... : C#2 00 8 ... ... ... : D#2 00 . ... : 8-# 00 A A07 : ... .. . ...
ROW 0F : ... .. . ... ... : D#2 00 7 ... ... ... : ... .. . ... : ... .. . A04 : ... .. . ...
ROW 10 : G-3 00 3 ... 400 : ... .. . ... ... ... : ... .. . ... : ... .. . A01 : ... .. . ...
ROW 11 : ... .. 4 ... ... : ... .. . S04 ... ... : ... .. . S00 : ... .. . ... : ... .. . ...
ROW 12 : ... .. . ... 461 : A#1 00 5 S03 ... ... : D#2 00 . ... : 1-# 00 A A0C : ... .. . ...
ROW 13 : ... .. . ... ... : ... .. . ... ... ... : ... .. . S00 : --- .. . ... : ... .. . ...
ROW 14 : ... .. . ... ... : D#2 00 8 ... ... ... : D#2 00 . ... : 6-# 00 8 A07 : ... .. . ...
ROW 15 : ... .. . ... ... : ... .. 7 S04 ... ... : ... .. . S00 : ... .. . A02 : ... .. . ...
ROW 16 : ... .. . ... ... : A#1 00 5 S03 ... ... : D#2 00 . ... : ... .. . ... : ... .. . ...
ROW 17 : ... .. . ... ... : ... .. . ... ... ... : ... .. . S00 : ... .. . ... : ... .. . ...
ROW 18 : G#3 00 3 ... 400 : D#2 00 8 ... ... ... : D#3 00 . ... : 1-# 00 A A0C : ... .. . ...
ROW 19 : ... .. 4 ... ... : ... .. 7 ... ... ... : ... .. . S00 : --- .. . ... : ... .. . ...
ROW 1A : ... .. . ... 461 : ... .. . ... ... ... : D#2 00 . ... : 1-# 00 A A0C : ... .. . ...
ROW 1B : ... .. . ... ... : ... .. . S04 ... ... : ... .. . S00 : --- .. . ... : ... .. . ...
ROW 1C : ... .. . ... ... : A#1 00 5 S03 ... ... : D#2 00 . ... : 6-# 00 8 A07 : ... .. . ...
ROW 1D : ... .. . ... ... : ... .. . ... ... ... : ... .. . S00 : ... .. . A02 : ... .. . ...
ROW 1E : ... .. . ... ... : G#2 00 8 ... ... ... : C#3 00 . ... : 8-# 00 A A07 : ... .. . ...
ROW 1F : ... .. . ... ... : ... .. 7 ... ... ... : ... .. . ... : ... .. . A04 : ... .. . ...
ROW 20 : A#3 00 3 ... 400 : ... .. . ... ... ... : ... .. . ... : ... .. . A01 : ... .. . ...
ROW 21 : ... .. 4 ... ... : ... .. . S04 ... ... : ... .. . S00 : ... .. . ... : ... .. . ...
ROW 22 : ... .. . ... 461 : A#1 00 5 S03 ... ... : C#3 00 . ... : 1-# 00 A A0C : ... .. . ...
ROW 23 : ... .. . ... ... : A#1 00 5 S03 ... ... : ... .. . S00 : --- .. . ... : ... .. . ...
ROW 24 : ... .. . ... ... : G#2 00 8 ... ... ... : C#3 00 . ... : 6-# 00 8 A07 : ... .. . ...
ROW 25 : ... .. . ... ... : ... .. 7 S04 ... ... : ... .. . S00 : ... .. . A02 : ... .. . ...
ROW 26 : ... .. . ... ... : A#1 00 5 S03 ... ... : C#3 00 . ... : ... .. . ... : ... .. . ...
ROW 27 : ... .. . ... ... : ... .. . ... ... ... : ... .. . S00 : ... .. . ... : ... .. . ...
ROW 28 : G#3 00 3 ... 400 : G#2 00 8 ... ... ... : C#3 00 . ... : 1-# 00 A A0C : ... .. . ...
ROW 29 : ... .. 4 ... ... : ... .. 7 ... ... ... : ... .. . S00 : --- .. . ... : ... .. . ...
ROW 2A : ... .. . ... 461 : ... .. . ... ... ... : C#3 00 . ... : ... .. . ... : ... .. . ...
ROW 2B : ... .. . ... ... : ... .. . S04 ... ... : ... .. . S00 : ... .. . ... : ... .. . ...
ROW 2C : ... .. . ... ... : A#1 00 5 S03 ... ... : C#4 00 . ... : 6-# 00 8 A07 : ... .. . ...
ROW 2D : ... .. . ... ... : ... .. . ... ... ... : ... .. . S00 : ... .. . A02 : ... .. . ...
ROW 2E : ... .. . ... ... : F-2 00 8 ... ... ... : A#2 00 . ... : 8-# 00 A A07 : ... .. . ...
ROW 2F : ... .. . ... ... : G-2 00 7 ... ... ... : ... .. . ... : ... .. . A04 : ... .. . ...
ROW 30 : C-4 00 3 ... 400 : ... .. . ... ... ... : ... .. . ... : ... .. . A01 : ... .. . ...
ROW 31 : ... .. 4 ... ... : ... .. . S04 ... ... : ... .. . S00 : ... .. . ... : ... .. . ...
ROW 32 : ... .. . ... 461 : A#1 00 5 S03 ... ... : A#2 00 . ... : 1-# 00 A A0C : ... .. . ...
ROW 33 : ... .. . ... ... : ... .. . ... ... ... : ... .. . S00 : --- .. . ... : ... .. . ...
ROW 34 : ... .. . ... ... : G-2 00 8 ... ... ... : A#2 00 . ... : 6-# 00 8 A07 : ... .. . ...
ROW 35 : ... .. . ... ... : ... .. 7 S04 ... ... : ... .. . S00 : ... .. . A02 : ... .. . ...
ROW 36 : ... .. . ... ... : A#1 00 5 S03 ... ... : A#2 00 . ... : ... .. . ... : ... .. . ...
ROW 37 : ... .. . ... ... : ... .. . ... ... ... : ... .. . S00 : ... .. . ... : ... .. . ...
ROW 38 : A#3 00 3 ... 400 : G-2 00 8 ... ... ... : D#3 00 . ... : 1-# 00 A A0C : ... .. . ...
ROW 39 : ... .. 4 ... ... : ... .. 7 ... ... ... : ... .. . S00 : --- .. . ... : ... .. . ...
ROW 3A : ... .. . ... 461 : ... .. . ... ... ... : D#3 00 . ... : 1-# 00 A A0C : ... .. . ...
ROW 3B : ... .. . ... ... : ... .. . S04 ... ... : ... .. . S00 : --- .. . ... : ... .. . ...
ROW 3C : ... .. . ... ... : A#1 00 5 S03 ... ... : D#3 00 . ... : 6-# 00 8 A07 : ... .. . ...
ROW 3D : ... .. . ... ... : ... .. . ... ... ... : ... .. . S00 : ... .. . A02 : ... .. . ...
ROW 3E : C-4 00 3 ... 400 : G-2 00 8 ... ... ... : G#2 00 . ... : 8-# 00 A A07 : ... .. . ...
ROW 3F : ... .. 4 ... ... : G#2 00 7 ... ... ... : ... .. . ... : ... .. . A04 : ... .. . ...

PATTERN 02
ROW 00 : ... .. . ... 461 : ... .. . ... ... ... : ... .. . ... : ... .. . A01 : ... .. . ...
ROW 01 : ... .. . ... ... : ... .. . ... ... ... : ... .. . S00 : ... .. . ... : ... .. . ...
ROW 02 : ... .. . ... ... : ... .. . ... 474 ... : G#2 00 . ... : ... .. . ... : ... .. . ...
ROW 03 : ... .. . ... ... : ... .. . ... ... ... : ... .. . S00 : ... .. . ... : ... .. . ...
ROW 04 : ... .. . ... ... : ... .. . ... ... ... : G#2 00 . ... : 1-# 00 A A0C : ... .. . ...
ROW 05 : ... .. . ... ... : ... .. . ... ... ... : ... .. . S00 : --- .. . ... : ... .. . ...
ROW 06 : ... .. . ... ... : ... .. . ... ... ... : G#2 00 . ... : ... .. . ... : ... .. . ...
ROW 07 : ... .. . ... ... : ... .. . ... ... ... : ... .. . S00 : ... .. . ... : ... .. . ...
ROW 08 : ... .. . ... ... : ... .. . ... ... ... : G#2 00 . ... : ... .. . ... : ... .. . ...
ROW 09 : ... .. . ... ... : ... .. . ... ... ... : ... .. . S00 : ... .. . ... : ... .. . ...
ROW 0A : ... .. . ... ... : ... .. . ... ... ... : G#2 00 . ... : ... .. . ... : ... .. . ...
ROW 0B : ... .. . ... ... : ... .. . ... ... ... : ... .. . S00 : ... .. . ... : ... .. . ...
ROW 0C : ... .. . ... ... : ... .. . ... ... ... : G#2 00 . ... : 1-# 00 A A0C : ... .. . ...
ROW 0D : ... .. . ... ... : ... .. . ... ... ... : ... .. . S00 : --- .. . ... : ... .. . ...
ROW 0E : ... .. . ... ... : ... .. . ... ... ... : G#2 00 . ... : ... .. . ... : ... .. . ...
ROW 0F : ... .. . ... ... : ... .. . ... ... ... : ... .. . S00 : ... .. . ... : ... .. . ...
ROW 10 : --- .. . ... 400 : --- .. . ... ... ... : ... .. . ... : 1-# 00 A A0C : ... .. . ...
ROW 11 : ... .. . ... ... : ... .. . ... ... ... : ... .. . ... : --- .. . ... : ... .. . ...
ROW 12 : G-4 00 7 A00 V02 : A#2 00 8 ... 400 ... : G-3 00 . ... : 6-# 00 8 A07 : ... .. . ...
ROW 13 : ... .. 6 ... ... : ... .. 7 S04 ... ... : ... .. . S00 : ... .. . A02 : ... .. . ...
ROW 14 : F-4 00 7 ... ... : G#2 00 8 ... ... ... : F-3 00 . ... : 1-# 00 A A0C : ... .. . ...
ROW 15 : ... .. 6 ... ... : ... .. 7 S04 ... ... : ... .. . S00 : --- .. . ... : ... .. . ...
ROW 16 : D#4 00 7 ... ... : G-2 00 8 ... ... ... : D#3 00 . ... : ... .. . ... : ... .. . ...
ROW 17 : ... .. 6 ... ... : ... .. 7 S04 ... ... : ... .. . S00 : ... .. . ... : ... .. . ...
ROW 18 : C#4 00 7 ... ... : F-2 00 8 ... ... ... : C#3 00 . ... : 6-# 00 8 A07 : ... .. . ...
ROW 19 : ... .. 6 ... ... : ... .. 7 S04 ... ... : ... .. . S00 : ... .. . A02 : ... .. . ...
ROW 1A : C-4 00 7 ... ... : D#2 00 8 ... ... ... : C-3 00 . ... : 3-# 00 A A0C : ... .. . ...
ROW 1B : ... .. 6 ... ... : ... .. 7 S04 ... ... : ... .. . S00 : --- .. . ... : ... .. . ...
ROW 1C : A#3 00 7 ... ... : C#2 00 8 ... ... ... : A#2 00 . ... : 6-# 00 8 A07 : ... .. . ...
ROW 1D : ... .. 6 ... ... : ... .. 7 S04 ... ... : ... .. . S00 : ... .. . A02 : ... .. . ...
ROW 1E : D#4 00 7 ... ... : G-2 00 8 ... ... ... : D#3 00 . ... : 3-# 00 A A0C : ... .. . ...
ROW 1F : ... .. 6 ... D00 : ... .. 7 S04 ... ... : ... .. . S00 : --- .. . ... : ... .. . ...
ROW 20 : ... .. . ... ... : ... .. . ... ... ... : ... .. . ... : ... .. . ... : ... .. . ...
ROW 21 : ... .. . ... ... : ... .. . ... ... ... : ... .. . ... : ... .. . ... : ... .. . ...
ROW 22 : ... .. . ... ... : ... .. . ... ... ... : ... .. . ... : ... .. . ... : ... .. . ...
ROW 23 : ... .. . ... ... : ... .. . ... ... ... : ... .. . ... : ... .. . ... : ... .. . ...
ROW 24 : ... .. . ... ... : ... .. . ... ... ... : ... .. . ... : ... .. . ... : ... .. . ...
ROW 25 : ... .. . ... ... : ... .. . ... ... ... : ... .. . ... : ... .. . ... : ... .. . ...
ROW 26 : ... .. . ... ... : ... .. . ... ... ... : ... .. . ... : ... .. . ... : ... .. . ...
ROW 27 : ... .. . ... ... : ... .. . ... ... ... : ... .. . ... : ... .. . ... : ... .. . ...
ROW 28 : ... .. . ... ... : ... .. . ... ... ... : ... .. . ... : ... .. . ... : ... .. . ...
ROW 29 : ... .. . ... ... : ... .. . ... ... ... : ... .. . ... : ... .. . ... : ... .. . ...
ROW 2A : ... .. . ... ... : ... .. . ... ... ... : ... .. . ... : ... .. . ... : ... .. . ...
ROW 2B : ... .. . ... ... : ... .. . ... ... ... : ... .. . ... : ... .. . ... : ... .. . ...
ROW 2C : ... .. . ... ... : ... .. . ... ... ... : ... .. . ... : ... .. . ... : ... .. . ...
ROW 2D : ... .. . ... ... : ... .. . ... ... ... : ... .. . ... : ... .. . ... : ... .. . ...
ROW 2E : ... .. . ... ... : ... .. . ... ... ... : ... .. . ... : ... .. . ... : ... .. . ...
ROW 2F : ... .. . ... ... : ... .. . ... ... ... : ... .. . ... : ... .. . ... : ... .. . ...
ROW 30 : ... .. . ... ... : ... .. . ... ... ... : ... .. . ... : ... .. . ... : ... .. . ...
ROW 31 : ... .. . ... ... : ... .. . ... ... ... : ... .. . ... : ... .. . ... : ... .. . ...
ROW 32 : ... .. . ... ... : ... .. . ... ... ... : ... .. . ... : ... .. . ... : ... .. . ...
ROW 33 : ... .. . ... ... : ... .. . ... ... ... : ... .. . ... : ... .. . ... : ... .. . ...
ROW 34 : ... .. . ... ... : ... .. . ... ... ... : ... .. . ... : ... .. . ... : ... .. . ...
ROW 35 : ... .. . ... ... : ... .. . ... ... ... : ... .. . ... : ... .. . ... : ... .. . ...
ROW 36 : ... .. . ... ... : ... .. . ... ... ... : ... .. . ... : ... .. . ... : ... .. . ...
ROW 37 : ... .. . ... ... : ... .. . ... ... ... : ... .. . ... : ... .. . ... : ... .. . ...
ROW 38 : ... .. . ... ... : ... .. . ... ... ... : ... .. . ... : ... .. . ... : ... .. . ...
ROW 39 : ... .. . ... ... : ... .. . ... ... ... : ... .. . ... : ... .. . ... : ... .. . ...
ROW 3A : ... .. . ... ... : ... .. . ... ... ... : ... .. . ... : ... .. . ... : ... .. . ...
ROW 3B : ... .. . ... ... : ... .. . ... ... ... : ... .. . ... : ... .. . ... : ... .. . ...
ROW 3C : ... .. . ... ... : ... .. . ... ... ... : ... .. . ... : ... .. . ... : ... .. . ...
ROW 3D : ... .. . ... ... : ... .. . ... ... ... : ... .. . ... : ... .. . ... : ... .. . ...
ROW 3E : ... .. . ... ... : ... .. . ... ... ... : ... .. . ... : ... .. . ... : ... .. . ...
ROW 3F : ... .. . ... ... : ... .. . ... ... ... : ... .. . ... : ... .. . ... : ... .. . ...

PATTERN 03
ROW 00 : --- .. . ... ... : --- .. . ... ... ... : G#2 00 . ... : 8-# 00 A A07 : ... .. . ...
ROW 01 : ... .. . ... ... : ... .. . ... ... ... : ... .. . S00 : ... .. . A04 : ... .. . ...
ROW 02 : ... .. . ... ... : D#2 00 5 S03 ... ... : G#2 00 . ... : ... .. . A01 : ... .. . ...
ROW 03 : ... .. . ... ... : ... .. . ... ... ... : ... .. . S00 : ... .. . ... : ... .. . ...
ROW 04 : C-4 00 7 A00 V02 : G#2 00 8 ... ... ... : G#2 00 . ... : 6-# 00 8 A07 : ... .. . ...
ROW 05 : ... .. 6 ... ... : ... .. 7 S04 ... ... : ... .. . S00 : ... .. . A02 : ... .. . ...
ROW 06 : ... .. . ... 461 : D#2 00 5 S03 ... ... : G#2 00 . ... : ... .. . ... : ... .. . ...
ROW 07 : ... .. . ... ... : ... .. . ... ... ... : ... .. . S00 : ... .. . ... : ... .. . ...
ROW 08 : ... .. 5 ... ... : G#2 00 8 ... ... ... : G#2 00 . ... : 1-# 00 A A0C : ... .. . ...
ROW 09 : ... .. . ... ... : ... .. 7 ... ... ... : ... .. . S00 : --- .. . ... : ... .. . ...
ROW 0A : ... .. . ... ... : ... .. . ... ... ... : G#2 00 . ... : 1-# 00 A A0C : ... .. . ...
ROW 0B : ... .. . ... ... : ... .. . S04 ... ... : ... .. . S00 : --- .. . ... : ... .. . ...
ROW 0C : G#3 00 7 ... 400 : D#2 00 5 S03 ... ... : G#2 00 . ... : 6-# 00 8 A07 : ... .. . ...
ROW 0D : ... .. 6 ... ... : ... .. . ... ... ... : ... .. . S00 : ... .. . A02 : ... .. . ...
ROW 0E : A#3 00 7 ... ... : D#2 00 8 ... ... ... : D#3 00 . ... : 1-# 00 A A0C : ... .. . ...
ROW 0F : ... .. 6 ... ... : ... .. 7 ... ... ... : ... .. . ... : --- .. . ... : ... .. . ...
ROW 10 : ... .. . ... 461 : ... .. . ... ... ... : ... .. . ... : ... .. . ... : ... .. . ...
ROW 11 : ... .. . ... ... : ... .. . S04 ... ... : ... .. . S00 : ... .. . ... : ... .. . ...
ROW 12 : ... .. 5 ... ... : A#1 00 5 S03 ... ... : D#3 00 . ... : 1-# 00 A A0C : ... .. . ...
ROW 13 : ... .. . ... ... : ... .. . ... ... ... : ... .. . S00 : --- .. . ... : ... .. . ...
ROW 14 : ... .. . ... ... : D#2 00 8 ... ... ... : D#3 00 . ... : 6-# 00 8 A07 : ... .. . ...
ROW 15 : ... .. . ... ... : ... .. 7 S04 ... ... : ... .. . S00 : ... .. . A02 : ... .. . ...
ROW 16 : D#4 00 7 ... 400 : A#1 00 5 S03 ... ... : D#3 00 . ... : ... .. . ... : ... .. . ...
ROW 17 : ... .. 6 ... ... : ... .. . ... ... ... : ... .. . S00 : ... .. . ... : ... .. . ...
ROW 18 : ... .. . ... 461 : D#2 00 8 ... ... ... : D#3 00 . ... : 1-# 00 A A0C : ... .. . ...
ROW 19 : ... .. . ... ... : ... .. 7 ... ... ... : ... .. . S00 : --- .. . ... : ... .. . ...
ROW 1A : ... .. 5 ... ... : ... .. . ... ... ... : D#3 00 . ... : ... .. . ... : ... .. . ...
ROW 1B : ... .. . ... ... : ... .. . ... ... ... : ... .. . S00 : ... .. . ... : ... .. . ...
ROW 1C : ... .. . ... ... : G#4 00 7 V01 A04 ... : D#3 00 . ... : 6-# 00 8 A07 : ... .. . ...
ROW 1D : ... .. . ... ... : ... .. . S04 ... ... : ... .. . S00 : ... .. . A02 : ... .. . ...
ROW 1E : ... .. . ... ... : G-4 00 7 ... ... ... : D#3 00 . ... : ... .. . ... : ... .. . ...
ROW 1F : ... .. . ... ... : ... .. . S04 ... ... : ... .. . S00 : ... .. . ... : ... .. . ...
ROW 20 : --- .. . ... ... : F-4 00 7 ... ... ... : F-3 00 . ... : 8-# 00 A A07 : ... .. . ...
ROW 21 : ... .. . ... ... : ... .. . S04 ... ... : ... .. . S00 : ... .. . A04 : ... .. . ...
ROW 22 : ... .. . ... ... : C-2 00 5 S03 V00 ... : F-3 00 . ... : ... .. . A01 : ... .. . ...
ROW 23 : ... .. . ... ... : ... .. . ... ... ... : ... .. . S00 : ... .. . ... : ... .. . ...
ROW 24 : G#3 00 7 ... 400 : F-2 00 8 V00 A00 ... : F-3 00 . ... : 6-# 00 8 A07 : ... .. . ...
ROW 25 : ... .. 6 ... ... : ... .. 7 S04 ... ... : ... .. . S00 : ... .. . A02 : ... .. . ...
ROW 26 : ... .. . ... ... : C-2 00 5 S03 ... ... : F-3 00 . ... : ... .. . ... : ... .. . ...
ROW 27 : ... .. . ... ... : ... .. . ... ... ... : ... .. . S00 : ... .. . ... : ... .. . ...
ROW 28 : G-3 00 7 ... ... : F-2 00 8 ... ... ... : F-3 00 . ... : 1-# 00 A A0C : ... .. . ...
ROW 29 : ... .. 6 ... ... : ... .. 7 ... ... ... : ... .. . S00 : --- .. . ... : ... .. . ...
ROW 2A : ... .. . ... ... : ... .. . ... ... ... : F-3 00 . ... : 1-# 00 A A0C : ... .. . ...
ROW 2B : ... .. . ... ... : ... .. . S04 ... ... : ... .. . S00 : --- .. . ... : ... .. . ...
ROW 2C : F-3 00 7 ... ... : C-2 00 5 S03 ... ... : F-3 00 . ... : 6-# 00 8 A07 : ... .. . ...
ROW 2D : ... .. 6 ... ... : ... .. . ... ... ... : ... .. . S00 : ... .. . A02 : ... .. . ...
ROW 2E : G-3 00 7 ... ... : G-2 00 8 ... ... ... : C-3 00 . ... : 1-# 00 A A0C : ... .. . ...
ROW 2F : ... .. 6 ... ... : ... .. 7 ... ... ... : ... .. . ... : --- .. . ... : ... .. . ...
ROW 30 : ... .. . ... 461 : ... .. . ... ... ... : ... .. . ... : ... .. . ... : ... .. . ...
ROW 31 : ... .. . ... ... : ... .. . S04 ... ... : ... .. . S00 : ... .. . ... : ... .. . ...
ROW 32 : ... .. 5 ... ... : C-2 00 5 S03 ... ... : C-3 00 . ... : 1-# 00 A A0C : ... .. . ...
ROW 33 : ... .. . ... ... : ... .. . ... ... ... : ... .. . S00 : --- .. . ... : ... .. . ...
ROW 34 : ... .. . ... ... : G-2 00 8 ... ... ... : C-3 00 . ... : 6-# 00 8 A07 : ... .. . ...
ROW 35 : ... .. . ... ... : ... .. 7 S04 ... ... : ... .. . S00 : ... .. . A02 : ... .. . ...
ROW 36 : C-3 00 7 ... 400 : C-2 00 5 S03 ... ... : C-3 00 . ... : ... .. . ... : ... .. . ...
ROW 37 : ... .. 6 ... ... : ... .. . ... ... ... : ... .. . S00 : ... .. . ... : ... .. . ...
ROW 38 : ... .. . ... 461 : G-2 00 8 ... ... ... : C-3 00 . ... : 1-# 00 A A0C : ... .. . ...
ROW 39 : ... .. . ... ... : ... .. 7 ... ... ... : ... .. . S00 : --- .. . ... : ... .. . ...
ROW 3A : ... .. 5 ... ... : ... .. . ... ... ... : C-3 00 . ... : ... .. . ... : ... .. . ...
ROW 3B : ... .. . ... ... : ... .. . S04 ... ... : ... .. . S00 : ... .. . ... : ... .. . ...
ROW 3C : ... .. . ... ... : C#4 00 7 V01 A04 ... : C-3 00 . ... : 6-# 00 8 A07 : ... .. . ...
ROW 3D : ... .. . ... ... : ... .. . S04 ... ... : ... .. . S00 : ... .. . A02 : ... .. . ...
ROW 3E : ... .. . ... ... : D#4 00 7 ... ... ... : C-3 00 . ... : ... .. . ... : ... .. . ...
ROW 3F : ... .. . ... ... : ... .. . S04 ... ... : ... .. . S00 : ... .. . ... : ... .. . ...

PATTERN 04
ROW 00 : F-3 00 7 ... 400 : C#4 00 7 V01 A04 ... : C#3 00 . ... : 1-# 00 A A0C : ... .. . ...
ROW 01 : ... .. 6 ... ... : ... .. . S04 ... ... : ... .. . S00 : --- .. . ... : ... .. . ...
ROW 02 : ... .. . ... 461 : C#2 00 5 S03 V00 ... : C#3 00 . ... : ... .. . ... : ... .. . ...
ROW 03 : ... .. . ... ... : ... .. . ... ... ... : ... .. . S00 : ... .. . ... : ... .. . ...
ROW 04 : ... .. 5 ... ... : G#2 00 8 V00 A00 ... : C#3 00 . ... : 6-# 00 8 A07 : ... .. . ...
ROW 05 : ... .. . ... ... : ... .. 7 S04 ... ... : ... .. . S00 : ... .. . A02 : ... .. . ...
ROW 06 : ... .. . ... ... : C#2 00 5 S03 ... ... : C#3 00 . ... : ... .. . ... : ... .. . ...
ROW 07 : ... .. . ... ... : ... .. . ... ... ... : ... .. . S00 : ... .. . ... : ... .. . ...
ROW 08 : D#3 00 7 ... 400 : G#2 00 8 ... ... ... : C#3 00 . ... : 1-# 00 A A0C : ... .. . ...
ROW 09 : ... .. 6 ... ... : ... .. 7 ... ... ... : ... .. . S00 : --- .. . ... : ... .. . ...
ROW 0A : ... .. . ... ... : ... .. . ... ... ... : C#3 00 . ... : 1-# 00 A A0C : ... .. . ...
ROW 0B : ... .. . ... ... : ... .. . S04 ... ... : ... .. . S00 : --- .. . ... : ... .. . ...
ROW 0C : C#3 00 7 ... ... : C#2 00 5 S03 ... ... : C#3 00 . ... : 6-# 00 8 A07 : ... .. . ...
ROW 0D : ... .. 6 ... ... : ... .. . ... ... ... : ... .. . S00 : ... .. . A02 : ... .. . ...
ROW 0E : D#3 00 7 ... 400 : G#2 00 8 ... ... ... : C-3 00 . ... : 1-# 00 A A0C : ... .. . ...
ROW 0F : ... .. 6 ... ... : ... .. 7 ... ... ... : ... .. . ... : --- .. . ... : ... .. . ...
ROW 10 : ... .. . ... 461 : ... .. . ... ... ... : ... .. . ... : ... .. . ... : ... .. . ...
ROW 11 : ... .. . ... ... : ... .. . S04 ... ... : ... .. . S00 : ... .. . ... : ... .. . ...
ROW 12 : ... .. 5 ... ... : C#2 00 5 S03 ... ... : C-3 00 . ... : 1-# 00 A A0C : ... .. . ...
ROW 13 : ... .. . ... ... : ... .. . ... ... ... : ... .. . S00 : --- .. . ... : ... .. . ...
ROW 14 : D#3 00 7 ... 400 : G#2 00 8 ... ... ... : C-3 00 . ... : 6-# 00 8 A07 : ... .. . ...
ROW 15 : ... .. 6 ... ... : ... .. 7 S04 ... ... : ... .. . S00 : ... .. . A02 : ... .. . ...
ROW 16 : G#3 00 7 ... ... : C#2 00 5 S03 ... ... : C-3 00 . ... : ... .. . ... : ... .. . ...
ROW 17 : ... .. 6 ... ... : ... .. . ... ... ... : ... .. . S00 : ... .. . ... : ... .. . ...
ROW 18 : ... .. . ... 461 : G#2 00 8 ... ... ... : C-3 00 . ... : 1-# 00 A A0C : ... .. . ...
ROW 19 : ... .. . ... ... : ... .. 7 ... ... ... : ... .. . S00 : --- .. . ... : ... .. . ...
ROW 1A : ... .. 5 ... ... : ... .. . ... ... ... : C-3 00 . ... : ... .. . ... : ... .. . ...
ROW 1B : ... .. . ... ... : ... .. . ... ... ... : ... .. . S00 : ... .. . ... : ... .. . ...
ROW 1C : ... .. . ... ... : A#3 00 7 V01 A04 ... : C-3 00 . ... : 6-# 00 8 A07 : ... .. . ...
ROW 1D : ... .. . ... ... : ... .. . S04 ... ... : ... .. . S00 : ... .. . A02 : ... .. . ...
ROW 1E : ... .. . ... ... : C-4 00 7 ... ... ... : C-3 00 . ... : ... .. . ... : ... .. . ...
ROW 1F : ... .. . ... ... : ... .. . S04 ... ... : ... .. . S00 : ... .. . ... : ... .. . ...
ROW 20 : G#3 00 7 ... 400 : C#4 00 7 ... ... ... : A#2 00 . ... : 1-# 00 A A0C : ... .. . ...
ROW 21 : ... .. 6 ... ... : ... .. . S04 ... ... : ... .. . S00 : --- .. . ... : ... .. . ...
ROW 22 : ... .. . ... 461 : A#1 00 5 S03 V00 ... : A#2 00 . ... : ... .. . ... : ... .. . ...
ROW 23 : ... .. . ... ... : ... .. . ... ... ... : ... .. . S00 : ... .. . ... : ... .. . ...
ROW 24 : ... .. 5 ... ... : F-2 00 8 V00 A00 ... : A#2 00 . ... : 6-# 00 8 A07 : ... .. . ...
ROW 25 : ... .. . ... ... : ... .. 7 S04 ... ... : ... .. . S00 : ... .. . A02 : ... .. . ...
ROW 26 : ... .. . ... ... : A#1 00 5 S03 ... ... : A#2 00 . ... : ... .. . ... : ... .. . ...
ROW 27 : ... .. . ... ... : ... .. . ... ... ... : ... .. . S00 : ... .. . ... : ... .. . ...
ROW 28 : ... .. . ... ... : F-2 00 8 ... ... ... : A#2 00 . ... : 1-# 00 A A0C : ... .. . ...
ROW 29 : ... .. . ... ... : ... .. 7 ... ... ... : ... .. . S00 : --- .. . ... : ... .. . ...
ROW 2A : G-3 00 7 ... 400 : ... .. . ... ... ... : A#2 00 . ... : 1-# 00 A A0C : ... .. . ...
ROW 2B : ... .. 6 ... ... : ... .. . S04 ... ... : ... .. . S00 : --- .. . ... : ... .. . ...
ROW 2C : G#3 00 7 ... ... : A#1 00 5 S03 ... ... : A#2 00 . ... : 6-# 00 8 A07 : ... .. . ...
ROW 2D : ... .. 6 ... ... : ... .. . ... ... ... : ... .. . S00 : ... .. . A02 : ... .. . ...
ROW 2E : A#3 00 7 ... ... : D#2 00 8 ... ... ... : D#3 00 . ... : 1-# 00 A A0C : ... .. . ...
ROW 2F : ... .. 6 ... ... : ... .. 7 ... ... ... : ... .. . ... : --- .. . ... : ... .. . ...
ROW 30 : ... .. . ... 461 : ... .. . ... ... ... : ... .. . ... : ... .. . ... : ... .. . ...
ROW 31 : ... .. . ... ... : ... .. . S04 ... ... : ... .. . S00 : ... .. . ... : ... .. . ...
ROW 32 : ... .. 5 ... ... : A#1 00 5 S03 ... ... : D#3 00 . ... : 1-# 00 A A0C : ... .. . ...
ROW 33 : ... .. . ... ... : ... .. . ... ... ... : ... .. . S00 : --- .. . ... : ... .. . ...
ROW 34 : G-3 00 7 ... 400 : D#2 00 8 ... ... ... : D#3 00 . ... : 6-# 00 8 A07 : ... .. . ...
ROW 35 : ... .. 6 ... ... : ... .. 7 S04 ... ... : ... .. . S00 : ... .. . A02 : ... .. . ...
ROW 36 : ... .. . ... ... : A#1 00 5 S03 ... ... : D#3 00 . ... : ... .. . ... : ... .. . ...
ROW 37 : ... .. . ... ... : ... .. . ... ... ... : ... .. . S00 : ... .. . ... : ... .. . ...
ROW 38 : F-3 00 7 ... ... : D#2 00 8 ... ... ... : D#3 00 . ... : 1-# 00 A A0C : ... .. . ...
ROW 39 : ... .. 6 ... ... : ... .. 7 ... ... ... : ... .. . S00 : --- .. . ... : ... .. . ...
ROW 3A : ... .. . ... ... : ... .. . ... ... ... : D#3 00 . ... : ... .. . ... : ... .. . ...
ROW 3B : ... .. . ... ... : ... .. . S04 ... ... : ... .. . S00 : ... .. . ... : ... .. . ...
ROW 3C : D#3 00 7 ... ... : A#1 00 5 S03 ... ... : F-3 00 . ... : 6-# 00 8 A07 : ... .. . ...
ROW 3D : ... .. 6 ... ... : ... .. . ... ... ... : ... .. . S00 : ... .. . A02 : ... .. . ...
ROW 3E : ... .. . ... ... : D#2 00 5 S03 ... ... : D#3 00 . ... : ... .. . ... : ... .. . ...
ROW 3F : ... .. . ... ... : ... .. . ... ... ... : ... .. . S00 : ... .. . ... : ... .. . ...

PATTERN 05
ROW 00 : --- .. . ... ... : ... .. . ... ... ... : C#3 00 . ... : 8-# 00 A A07 : ... .. . ...
ROW 01 : ... .. . ... ... : ... .. . ... ... ... : ... .. . S00 : ... .. . A04 : ... .. . ...
ROW 02 : ... .. . ... ... : D#2 00 5 S03 ... ... : C#3 00 . ... : ... .. . A01 : ... .. . ...
ROW 03 : ... .. . ... ... : ... .. . ... ... ... : ... .. . S00 : ... .. . ... : ... .. . ...
ROW 04 : C-3 00 7 ... ... : G#2 00 8 ... ... ... : C#3 00 . ... : 6-# 00 8 A07 : ... .. . ...
ROW 05 : ... .. 6 ... ... : ... .. 7 S00 ... ... : ... .. . S00 : ... .. . A02 : ... .. . ...
ROW 06 : ... .. . ... 461 : D#2 00 5 S03 ... ... : C#3 00 . ... : ... .. . ... : ... .. . ...
ROW 07 : ... .. . ... ... : ... .. . ... ... ... : ... .. . S00 : ... .. . ... : ... .. . ...
ROW 08 : ... .. 5 ... ... : G#2 00 8 ... ... ... : C#3 00 . ... : 1-# 00 A A0C : ... .. . ...
ROW 09 : ... .. . ... ... : ... .. 7 ... ... ... : ... .. . S00 : --- .. . ... : ... .. . ...
ROW 0A : ... .. . ... ... : ... .. . ... ... ... : C#3 00 . ... : 1-# 00 A A0C : ... .. . ...
ROW 0B : ... .. . ... ... : ... .. . S04 ... ... : ... .. . S00 : --- .. . ... : ... .. . ...
ROW 0C : G#2 00 7 ... 400 : D#2 00 5 S03 ... ... : C#3 00 . ... : 6-# 00 8 A07 : ... .. . ...
ROW 0D : ... .. 6 ... ... : ... .. . ... ... ... : ... .. . S00 : ... .. . A02 : ... .. . ...
ROW 0E : A#2 00 7 ... ... : D#2 00 8 ... ... ... : C-3 00 . ... : 1-# 00 A A0C : ... .. . ...
ROW 0F : ... .. 6 ... ... : ... .. 7 ... ... ... : ... .. . ... : --- .. . ... : ... .. . ...
ROW 10 : ... .. . ... 461 : ... .. . ... ... ... : ... .. . ... : ... .. . ... : ... .. . ...
ROW 11 : ... .. . ... ... : ... .. . S04 ... ... : ... .. . S00 : ... .. . ... : ... .. . ...
ROW 12 : ... .. 5 ... ... : A#1 00 5 S03 ... ... : C-3 00 . ... : 1-# 00 A A0C : ... .. . ...
ROW 13 : ... .. . ... ... : ... .. . ... ... ... : ... .. . S00 : --- .. . ... : ... .. . ...
ROW 14 : ... .. . ... ... : D#2 00 8 ... ... ... : C-3 00 . ... : 6-# 00 8 A07 : ... .. . ...
ROW 15 : ... .. . ... ... : ... .. 7 S04 ... ... : ... .. . S00 : ... .. . A02 : ... .. . ...
ROW 16 : D#3 00 7 ... 400 : A#1 00 5 S03 ... ... : C-3 00 . ... : ... .. . ... : ... .. . ...
ROW 17 : ... .. 6 ... ... : ... .. . ... ... ... : ... .. . S00 : ... .. . ... : ... .. . ...
ROW 18 : ... .. . ... 461 : D#2 00 8 ... ... ... : C-3 00 . ... : 1-# 00 A A0C : ... .. . ...
ROW 19 : ... .. . ... ... : ... .. 7 ... ... ... : ... .. . S00 : --- .. . ... : ... .. . ...
ROW 1A : ... .. 5 ... ... : ... .. . ... ... ... : C-3 00 . ... : ... .. . ... : ... .. . ...
ROW 1B : ... .. . ... ... : ... .. . ... ... ... : ... .. . S00 : ... .. . ... : ... .. . ...
ROW 1C : ... .. . ... ... : G#4 00 7 V01 A04 ... : C-3 00 . ... : 6-# 00 8 A07 : ... .. . ...
ROW 1D : ... .. . ... ... : ... .. . S04 ... ... : ... .. . S00 : ... .. . A02 : ... .. . ...
ROW 1E : --- .. . ... ... : G-4 00 7 ... ... ... : C-3 00 . ... : ... .. . ... : ... .. . ...
ROW 1F : ... .. . ... ... : ... .. . S04 ... ... : ... .. . S00 : ... .. . ... : ... .. . ...
ROW 20 : ... .. . ... ... : F-4 00 7 ... ... ... : A#2 00 . ... : 1-# 00 A A0C : ... .. . ...
ROW 21 : ... .. . ... ... : ... .. . S04 ... ... : ... .. . S00 : --- .. . ... : ... .. . ...
ROW 22 : ... .. . ... ... : C-2 00 5 S03 V00 ... : A#2 00 . ... : ... .. . ... : ... .. . ...
ROW 23 : ... .. . ... ... : ... .. . ... ... ... : ... .. . S00 : ... .. . ... : ... .. . ...
ROW 24 : G#3 00 7 ... 400 : F-2 00 8 V00 A00 ... : A#2 00 . ... : 6-# 00 8 A07 : ... .. . ...
ROW 25 : ... .. 6 ... ... : ... .. 7 S04 ... ... : ... .. . S00 : ... .. . A02 : ... .. . ...
ROW 26 : ... .. . ... ... : C-2 00 5 S03 ... ... : A#2 00 . ... : ... .. . ... : ... .. . ...
ROW 27 : ... .. . ... ... : ... .. . ... ... ... : ... .. . S00 : ... .. . ... : ... .. . ...
ROW 28 : G-3 00 7 ... ... : F-2 00 8 ... ... ... : A#2 00 . ... : 1-# 00 A A0C : ... .. . ...
ROW 29 : ... .. 6 ... ... : ... .. 7 ... ... ... : ... .. . S00 : --- .. . ... : ... .. . ...
ROW 2A : ... .. . ... ... : ... .. . ... ... ... : A#2 00 . ... : 1-# 00 A A0C : ... .. . ...
ROW 2B : ... .. . ... ... : ... .. . S04 ... ... : ... .. . S00 : --- .. . ... : ... .. . ...
ROW 2C : F-3 00 7 ... ... : C-2 00 5 S03 ... ... : A#2 00 . ... : 6-# 00 8 A07 : ... .. . ...
ROW 2D : ... .. 6 ... ... : ... .. . ... ... ... : ... .. . S00 : ... .. . A02 : ... .. . ...
ROW 2E : G-3 00 7 ... ... : G-2 00 8 ... ... ... : D#3 00 . ... : 1-# 00 A A0C : ... .. . ...
ROW 2F : ... .. 6 ... ... : ... .. 7 ... ... ... : ... .. . ... : --- .. . ... : ... .. . ...
ROW 30 : ... .. . ... 461 : ... .. . ... ... ... : ... .. . ... : ... .. . ... : ... .. . ...
ROW 31 : ... .. . ... ... : ... .. . S04 ... ... : ... .. . S00 : ... .. . ... : ... .. . ...
ROW 32 : ... .. 5 ... ... : C-2 00 5 S03 ... ... : D#3 00 . ... : 1-# 00 A A0C : ... .. . ...
ROW 33 : ... .. . ... ... : ... .. . ... ... ... : ... .. . S00 : --- .. . ... : ... .. . ...
ROW 34 : ... .. . ... ... : G-2 00 8 ... ... ... : D#3 00 . ... : 6-# 00 8 A07 : ... .. . ...
ROW 35 : ... .. . ... ... : ... .. 7 S04 ... ... : ... .. . S00 : ... .. . A02 : ... .. . ...
ROW 36 : C-3 00 7 ... 400 : C-2 00 5 S03 ... ... : D#3 00 . ... : ... .. . ... : ... .. . ...
ROW 37 : ... .. 6 ... ... : ... .. . ... ... ... : ... .. . S00 : ... .. . ... : ... .. . ...
ROW 38 : ... .. . ... 461 : G-2 00 8 ... ... ... : D#3 00 . ... : 1-# 00 A A0C : ... .. . ...
ROW 39 : ... .. . ... ... : ... .. 7 ... ... ... : ... .. . S00 : --- .. . ... : ... .. . ...
ROW 3A : ... .. 5 ... ... : ... .. . ... ... ... : D#3 00 . ... : ... .. . ... : ... .. . ...
ROW 3B : ... .. . ... ... : ... .. . S04 ... ... : ... .. . S00 : ... .. . ... : ... .. . ...
ROW 3C : ... .. . ... ... : C#4 00 7 V01 A04 ... : D#3 00 . ... : 6-# 00 8 A07 : ... .. . ...
ROW 3D : ... .. . ... ... : ... .. . S04 ... ... : ... .. . S00 : ... .. . A02 : ... .. . ...
ROW 3E : ... .. . ... ... : D#4 00 7 ... ... ... : F-3 00 . ... : ... .. . ... : ... .. . ...
ROW 3F : ... .. . ... ... : ... .. . S04 ... ... : ... .. . ... : ... .. . ... : ... .. . ...

PATTERN 06
ROW 00 : F-3 00 7 ... 400 : C#4 00 7 V01 A04 ... : ... .. . ... : 1-# 00 A A0C : ... .. . ...
ROW 01 : ... .. 6 ... ... : ... .. . S05 ... ... : ... .. . S00 : --- .. . ... : ... .. . ...
ROW 02 : ... .. . ... ... : C#2 00 5 S03 V00 ... : F-3 00 . ... : 1-# 00 A A0C : ... .. . ...
ROW 03 : ... .. . ... ... : ... .. . ... ... ... : ... .. . S00 : --- .. . ... : ... .. . ...
ROW 04 : --- .. . ... ... : G#2 00 8 V00 A00 ... : F-3 00 . ... : 8-# 00 A A07 : ... .. . ...
ROW 05 : ... .. . ... ... : ... .. 7 S05 ... ... : ... .. . S00 : ... .. . A04 : ... .. . ...
ROW 06 : ... .. . ... ... : C#2 00 5 S03 V00 ... : F-3 00 . ... : ... .. . A01 : ... .. . ...
ROW 07 : ... .. . ... ... : ... .. . ... ... ... : ... .. . S00 : ... .. . ... : ... .. . ...
ROW 08 : G-3 00 7 ... ... : G#2 00 8 ... ... ... : F-3 00 . ... : 1-# 00 A A0C : ... .. . ...
ROW 09 : ... .. 6 ... ... : ... .. 7 ... ... ... : ... .. . S00 : --- .. . ... : ... .. . ...
ROW 0A : ... .. . ... ... : ... .. . ... ... ... : F-3 00 . ... : 1-# 00 A A0C : ... .. . ...
ROW 0B : ... .. . ... ... : ... .. . S05 ... ... : ... .. . S00 : --- .. . ... : ... .. . ...
ROW 0C : G#3 00 7 ... ... : C#2 00 5 S03 V00 ... : F-3 00 . ... : 6-# 00 8 A07 : ... .. . ...
ROW 0D : ... .. 6 ... ... : ... .. . ... ... ... : ... .. . S00 : ... .. . A02 : ... .. . ...
ROW 0E : G#3 00 7 ... ... : G#2 00 8 ... ... ... : D#3 00 . ... : 1-# 00 A A0C : ... .. . ...
ROW 0F : ... .. 6 ... ... : ... .. 7 ... ... ... : ... .. . ... : --- .. . ... : ... .. . ...
ROW 10 : ... .. . ... 461 : ... .. . ... ... ... : ... .. . ... : ... .. . ... : ... .. . ...
ROW 11 : ... .. . ... ... : ... .. . S05 ... ... : ... .. . S00 : ... .. . ... : ... .. . ...
ROW 12 : ... .. 5 ... ... : D#2 00 5 S03 V00 ... : D#3 00 . ... : 1-# 00 A A0C : ... .. . ...
ROW 13 : ... .. . ... ... : ... .. . ... ... ... : ... .. . S00 : --- .. . ... : ... .. . ...
ROW 14 : D#3 00 7 ... 400 : G#2 00 8 ... ... ... : D#3 00 . ... : 6-# 00 8 A07 : ... .. . ...
ROW 15 : ... .. 6 ... ... : ... .. 7 S05 ... ... : ... .. . S00 : ... .. . A02 : ... .. . ...
ROW 16 : D#3 00 7 ... ... : D#2 00 5 S03 V00 ... : D#3 00 . ... : ... .. . ... : ... .. . ...
ROW 17 : ... .. 6 ... ... : ... .. . ... ... ... : ... .. . S00 : ... .. . ... : ... .. . ...
ROW 18 : ... .. . ... 461 : G#2 00 8 ... ... ... : D#3 00 . ... : 1-# 00 A A0C : ... .. . ...
ROW 19 : ... .. . ... ... : ... .. 7 ... ... ... : ... .. . S00 : --- .. . ... : ... .. . ...
ROW 1A : ... .. 5 ... ... : ... .. . ... ... ... : D#3 00 . ... : ... .. . ... : ... .. . ...
ROW 1B : ... .. . ... ... : ... .. . ... ... ... : ... .. . S00 : ... .. . ... : ... .. . ...
ROW 1C : ... .. . ... ... : A#3 00 7 V01 A04 ... : D#3 00 . ... : 6-# 00 8 A07 : ... .. . ...
ROW 1D : ... .. . ... ... : ... .. . S05 ... ... : ... .. . S00 : ... .. . A02 : ... .. . ...
ROW 1E : ... .. . ... ... : C-4 00 7 ... ... ... : C#3 00 . ... : ... .. . ... : ... .. . ...
ROW 1F : ... .. . ... ... : ... .. . S05 ... ... : ... .. . ... : ... .. . ... : ... .. . ...
ROW 20 : G#3 00 7 ... 400 : C#4 00 7 ... ... ... : ... .. . ... : 1-# 00 A A0C : ... .. . ...
ROW 21 : ... .. 6 ... ... : ... .. . S05 ... ... : ... .. . S00 : --- .. . ... : ... .. . ...
ROW 22 : ... .. . ... 461 : A#1 00 5 S03 V00 ... : C#3 00 . ... : ... .. . ... : ... .. . ...
ROW 23 : ... .. . ... ... : ... .. . ... ... ... : ... .. . S00 : ... .. . ... : ... .. . ...
ROW 24 : ... .. 5 ... ... : F-2 00 8 V00 A00 ... : C#3 00 . ... : 6-# 00 8 A07 : ... .. . ...
ROW 25 : ... .. . ... ... : ... .. 7 S05 ... ... : ... .. . S00 : ... .. . A02 : ... .. . ...
ROW 26 : ... .. . ... ... : A#1 00 5 S03 V00 ... : C#3 00 . ... : ... .. . ... : ... .. . ...
ROW 27 : ... .. . ... ... : ... .. . ... ... ... : ... .. . S00 : ... .. . ... : ... .. . ...
ROW 28 : G-3 00 7 ... 400 : F-2 00 8 ... ... ... : C#3 00 . ... : 1-# 00 A A0C : ... .. . ...
ROW 29 : ... .. 6 ... ... : ... .. 7 ... ... ... : ... .. . S00 : --- .. . ... : ... .. . ...
ROW 2A : G#3 00 7 ... ... : ... .. . ... ... ... : C#3 00 . ... : 1-# 00 A A0C : ... .. . ...
ROW 2B : ... .. 6 ... ... : ... .. . S05 ... ... : ... .. . S00 : --- .. . ... : ... .. . ...
ROW 2C : --- .. . ... ... : A#1 00 5 S03 ... ... : C#3 00 . ... : 6-# 00 8 A07 : ... .. . ...
ROW 2D : ... .. . ... ... : ... .. . ... ... ... : ... .. . S00 : ... .. . A02 : ... .. . ...
ROW 2E : A#3 00 7 ... ... : D#2 00 8 ... ... ... : C#3 00 . ... : 1-# 00 A A0C : ... .. . ...
ROW 2F : ... .. 6 ... ... : ... .. 7 ... ... ... : ... .. . S00 : --- .. . ... : ... .. . ...
ROW 30 : ... .. . ... 461 : ... .. . ... ... ... : D#3 00 . ... : ... .. . ... : ... .. . ...
ROW 31 : ... .. . ... ... : ... .. . S05 ... ... : ... .. . S00 : ... .. . ... : ... .. . ...
ROW 32 : ... .. 5 ... ... : A#1 00 5 S03 ... ... : D#3 00 . ... : 4-# 00 A A0C : ... .. . ...
ROW 33 : ... .. . ... ... : ... .. . ... ... ... : ... .. . S00 : --- .. . ... : ... .. . ...
ROW 34 : ... .. . ... ... : D#2 00 8 ... ... ... : D#3 00 . ... : 3-# 00 A A0C : ... .. . ...
ROW 35 : ... .. . ... ... : ... .. 7 S05 ... ... : ... .. . S00 : --- .. . ... : ... .. . ...
ROW 36 : ... .. . ... ... : A#1 00 5 S03 ... ... : D#3 00 . ... : ... .. . ... : ... .. . ...
ROW 37 : ... .. . ... ... : ... .. . ... ... ... : ... .. . S00 : ... .. . ... : ... .. . ...
ROW 38 : ... .. . ... ... : D#2 00 8 ... ... ... : D#3 00 . ... : 6-# 00 8 A07 : ... .. . ...
ROW 39 : ... .. . ... ... : ... .. 7 ... ... ... : ... .. . S00 : ... .. . A02 : ... .. . ...
ROW 3A : G#3 00 7 ... 400 : ... .. . ... ... ... : D#3 00 . ... : 1-# 00 A A0C : ... .. . ...
ROW 3B : ... .. 6 ... ... : ... .. . S05 ... ... : ... .. . S00 : --- .. . ... : ... .. . ...
ROW 3C : A#3 00 7 ... ... : A#1 00 5 S03 ... ... : D#3 00 . ... : 6-# 00 8 A07 : ... .. . ...
ROW 3D : ... .. 6 ... ... : ... .. . ... ... ... : ... .. . S00 : ... .. . A02 : ... .. . ...
ROW 3E : C-4 00 7 ... ... : C-2 00 8 ... ... ... : F-3 00 . ... : 8-# 00 A A07 : ... .. . ...
ROW 3F : ... .. 6 ... ... : ... .. 7 ... ... ... : ... .. . ... : ... .. . A04 : ... .. . ...

PATTERN 07
ROW 00 : ... .. . ... 461 : ... .. . ... ... ... : ... .. . ... : ... .. . A01 : ... .. . ...
ROW 01 : ... .. 5 ... ... : ... .. . S01 ... ... : ... .. . S00 : ... .. . ... : ... .. . ...
ROW 02 : ... .. . ... ... : C-2 00 8 ... ... ... : F-3 00 . ... : 1-# 00 A A0C : ... .. . ...
ROW 03 : ... .. . ... ... : ... .. 7 S01 ... ... : ... .. . S00 : --- .. . ... : ... .. . ...
ROW 04 : ... .. . ... ... : C-2 00 8 ... ... ... : F-3 00 . ... : 6-# 00 8 A07 : ... .. . ...
ROW 05 : ... .. . ... ... : ... .. 7 S01 ... ... : ... .. . S00 : ... .. . A02 : ... .. . ...
ROW 06 : ... .. . ... ... : C-2 00 8 ... ... ... : F-3 00 . ... : ... .. . ... : ... .. . ...
ROW 07 : ... .. . ... ... : ... .. 7 S01 ... ... : ... .. . S00 : ... .. . ... : ... .. . ...
ROW 08 : C#4 00 7 ... 400 : C-2 00 8 ... ... ... : F-3 00 . ... : 1-# 00 A A0C : ... .. . ...
ROW 09 : ... .. 6 ... ... : ... .. 7 S01 ... ... : ... .. . S00 : --- .. . ... : ... .. . ...
ROW 0A : ... .. . ... 461 : C-2 00 8 ... ... ... : F-3 00 . ... : 1-# 00 A A0C : ... .. . ...
ROW 0B : ... .. . ... ... : ... .. 7 S01 ... ... : ... .. . S00 : --- .. . ... : ... .. . ...
ROW 0C : ... .. 5 ... ... : C-2 00 8 ... ... ... : F-3 00 . ... : 6-# 00 8 A07 : ... .. . ...
ROW 0D : ... .. . ... ... : ... .. 7 S01 ... ... : ... .. . S00 : ... .. . A02 : ... .. . ...
ROW 0E : A#3 00 7 ... 400 : A#1 00 8 ... ... ... : D#3 00 . ... : 8-# 00 A A07 : ... .. . ...
ROW 0F : ... .. 6 ... ... : ... .. 7 ... ... ... : ... .. . ... : ... .. . A04 : ... .. . ...
ROW 10 : ... .. . ... 461 : ... .. . ... ... ... : ... .. . ... : ... .. . A01 : ... .. . ...
ROW 11 : ... .. . ... ... : ... .. . S01 ... ... : ... .. . S00 : ... .. . ... : ... .. . ...
ROW 12 : ... .. 5 ... ... : A#1 00 8 ... ... ... : D#3 00 . ... : 1-# 00 A A0C : ... .. . ...
ROW 13 : ... .. . ... ... : ... .. 7 S01 ... ... : ... .. . S00 : --- .. . ... : ... .. . ...
ROW 14 : ... .. . ... ... : A#1 00 8 ... ... ... : D#3 00 . ... : 6-# 00 8 A07 : ... .. . ...
ROW 15 : ... .. . ... ... : ... .. 7 S01 ... ... : ... .. . S00 : ... .. . A02 : ... .. . ...
ROW 16 : ... .. . ... ... : A#1 00 8 ... ... ... : D#3 00 . ... : ... .. . ... : ... .. . ...
ROW 17 : ... .. . ... ... : ... .. 7 S01 ... ... : ... .. . S00 : ... .. . ... : ... .. . ...
ROW 18 : C-4 00 7 ... 400 : A#1 00 8 ... ... ... : D#3 00 . ... : 1-# 00 A A0C : ... .. . ...
ROW 19 : ... .. 6 ... ... : ... .. 7 S01 ... ... : ... .. . S00 : --- .. . ... : ... .. . ...
ROW 1A : ... .. . ... 461 : A#1 00 8 ... ... ... : D#3 00 . ... : ... .. . ... : ... .. . ...
ROW 1B : ... .. . ... ... : ... .. 7 S01 ... ... : ... .. . S00 : ... .. . ... : ... .. . ...
ROW 1C : ... .. 5 ... ... : A#1 00 8 ... ... ... : D#3 00 . ... : 6-# 00 8 A07 : ... .. . ...
ROW 1D : ... .. . ... ... : ... .. 7 S01 ... ... : ... .. . S00 : ... .. . A02 : ... .. . ...
ROW 1E : G#3 00 7 ... 400 : G#1 00 8 ... ... ... : C#3 00 . ... : 8-# 00 A A07 : ... .. . ...
ROW 1F : ... .. 6 ... ... : ... .. 7 ... ... ... : ... .. . ... : ... .. . A04 : ... .. . ...
ROW 20 : ... .. . ... 461 : ... .. . ... ... ... : ... .. . ... : ... .. . A01 : ... .. . ...
ROW 21 : ... .. . ... ... : ... .. . S01 ... ... : ... .. . S00 : ... .. . ... : ... .. . ...
ROW 22 : ... .. 5 ... ... : G#1 00 8 ... ... ... : C#3 00 . ... : 1-# 00 A A0C : ... .. . ...
ROW 23 : ... .. . ... ... : ... .. 7 S01 ... ... : ... .. . S00 : --- .. . ... : ... .. . ...
ROW 24 : ... .. . ... ... : G#1 00 8 ... ... ... : C#3 00 . ... : 6-# 00 8 A07 : ... .. . ...
ROW 25 : ... .. . ... ... : ... .. 7 S01 ... ... : ... .. . S00 : ... .. . A02 : ... .. . ...
ROW 26 : ... .. . ... ... : G#1 00 8 ... ... ... : C#3 00 . ... : ... .. . ... : ... .. . ...
ROW 27 : ... .. . ... ... : ... .. 7 S01 ... ... : ... .. . S00 : ... .. . ... : ... .. . ...
ROW 28 : ... .. . ... ... : G#1 00 8 ... ... ... : C#3 00 . ... : 1-# 00 A A0C : ... .. . ...
ROW 29 : ... .. . ... ... : ... .. 7 S01 ... ... : ... .. . S00 : --- .. . ... : ... .. . ...
ROW 2A : G-3 00 7 ... 400 : G#1 00 8 ... ... ... : C#3 00 . ... : 1-# 00 A A0C : ... .. . ...
ROW 2B : ... .. 6 ... ... : ... .. 7 S01 ... ... : ... .. . S00 : --- .. . ... : ... .. . ...
ROW 2C : G#3 00 7 ... ... : G#1 00 8 ... ... ... : C#3 00 . ... : 6-# 00 8 A07 : ... .. . ...
ROW 2D : ... .. 6 ... ... : ... .. 7 S01 ... ... : ... .. . S00 : ... .. . A02 : ... .. . ...
ROW 2E : ... .. . ... ... : G#1 00 8 ... ... ... : C#3 00 . ... : 8-# 00 A A07 : ... .. . ...
ROW 2F : ... .. . ... ... : ... .. 7 S01 ... ... : ... .. . S00 : ... .. . A04 : ... .. . ...
ROW 30 : A#3 00 7 ... ... : G-3 00 8 ... ... ... : D#3 00 . ... : ... .. . A01 : ... .. . ...
ROW 31 : ... .. 6 ... ... : ... .. 7 S01 ... ... : ... .. . S00 : ... .. . ... : ... .. . ...
ROW 32 : G#3 00 7 ... ... : F-3 00 8 ... ... ... : D#3 00 . ... : ... .. . ... : ... .. . ...
ROW 33 : ... .. 6 ... ... : ... .. 7 S01 ... ... : ... .. . S00 : ... .. . ... : ... .. . ...
ROW 34 : G-3 00 7 ... ... : D#3 00 8 ... ... ... : D#3 00 . ... : 6-# 00 8 A07 : ... .. . ...
ROW 35 : ... .. 6 ... ... : ... .. 7 S01 ... ... : ... .. . S00 : ... .. . A02 : ... .. . ...
ROW 36 : D#3 00 7 ... ... : A#2 00 8 ... ... ... : D#3 00 . ... : 1-# 00 A A0C : ... .. . ...
ROW 37 : ... .. 6 ... ... : ... .. 7 ... ... ... : ... .. . S00 : --- .. . ... : ... .. . ...
ROW 38 : ... .. . ... 461 : ... .. . ... ... ... : D#3 00 . ... : ... .. . ... : ... .. . ...
ROW 39 : ... .. . ... ... : ... .. . ... ... ... : ... .. . S00 : ... .. . ... : ... .. . ...
ROW 3A : ... .. 5 ... ... : ... .. . ... ... ... : D#3 00 . ... : 1-# 00 A A0C : ... .. . ...
ROW 3B : ... .. . ... ... : ... .. . ... ... ... : ... .. . S00 : --- .. . ... : ... .. . ...
ROW 3C : ... .. . ... ... : ... .. . ... ... ... : D#3 00 . ... : 6-# 00 8 A07 : ... .. . ...
ROW 3D : ... .. . ... ... : ... .. . S01 ... ... : ... .. . S00 : ... .. . A02 : ... .. . ...
ROW 3E : C-4 00 7 ... 400 : C-2 00 8 ... ... ... : D#3 00 . ... : 1-# 00 A A0C : ... .. . ...
ROW 3F : ... .. 6 ... ... : ... .. 7 ... ... ... : ... .. . S00 : --- .. . ... : ... .. . ...

PATTERN 08
ROW 00 : ... .. . ... 461 : ... .. . ... ... ... : C#3 00 . ... : ... .. . A01 : ... .. . ...
ROW 01 : ... .. . ... ... : ... .. . S01 ... ... : ... .. . S00 : ... .. . ... : ... .. . ...
ROW 02 : ... .. 5 ... ... : C-2 00 8 ... ... ... : C#3 00 . ... : 1-# 00 A A0C : ... .. . ...
ROW 03 : ... .. . ... ... : ... .. 7 S01 ... ... : ... .. . S00 : --- .. . ... : ... .. . ...
ROW 04 : ... .. . ... ... : C-2 00 8 ... ... ... : C#3 00 . ... : 6-# 00 8 A07 : ... .. . ...
ROW 05 : ... .. . ... ... : ... .. 7 S01 ... ... : ... .. . S00 : ... .. . A02 : ... .. . ...
ROW 06 : ... .. . ... ... : C-2 00 8 ... ... ... : C#3 00 . ... : ... .. . ... : ... .. . ...
ROW 07 : ... .. . ... ... : ... .. 7 S01 ... ... : ... .. . S00 : ... .. . ... : ... .. . ...
ROW 08 : C#4 00 7 ... 400 : C-2 00 8 ... ... ... : C#3 00 . ... : 1-# 00 A A0C : ... .. . ...
ROW 09 : ... .. 6 ... ... : ... .. 7 S01 ... ... : ... .. . S00 : --- .. . ... : ... .. . ...
ROW 0A : ... .. . ... 461 : C-2 00 8 ... ... ... : C#3 00 . ... : 1-# 00 A A0C : ... .. . ...
ROW 0B : ... .. . ... ... : ... .. 7 S01 ... ... : ... .. . S00 : --- .. . ... : ... .. . ...
ROW 0C : ... .. 5 ... ... : C-2 00 8 ... ... ... : C#3 00 . ... : 6-# 00 8 A07 : ... .. . ...
ROW 0D : ... .. . ... ... : ... .. 7 S01 ... ... : ... .. . S00 : ... .. . A02 : ... .. . ...
ROW 0E : A#3 00 7 ... 400 : A#1 00 8 ... ... ... : C-3 00 . ... : 8-# 00 A A07 : ... .. . ...
ROW 0F : ... .. 6 ... ... : ... .. 7 ... ... ... : ... .. . ... : ... .. . A04 : ... .. . ...
ROW 10 : ... .. . ... 461 : ... .. . ... ... ... : ... .. . ... : ... .. . A01 : ... .. . ...
ROW 11 : ... .. . ... ... : ... .. . S01 ... ... : ... .. . S00 : ... .. . ... : ... .. . ...
ROW 12 : ... .. 5 ... ... : A#1 00 8 ... ... ... : C-3 00 . ... : 1-# 00 A A0C : ... .. . ...
ROW 13 : ... .. . ... ... : ... .. 7 S01 ... ... : ... .. . S00 : --- .. . ... : ... .. . ...
ROW 14 : ... .. . ... ... : A#1 00 8 ... ... ... : C-3 00 . ... : 6-# 00 8 A07 : ... .. . ...
ROW 15 : ... .. . ... ... : ... .. 7 S01 ... ... : ... .. . S00 : ... .. . A02 : ... .. . ...
ROW 16 : ... .. . ... ... : A#1 00 8 ... ... ... : C-3 00 . ... : ... .. . ... : ... .. . ...
ROW 17 : ... .. . ... ... : ... .. 7 S01 ... ... : ... .. . S00 : ... .. . ... : ... .. . ...
ROW 18 : D#4 00 7 ... 400 : A#1 00 8 ... ... ... : C-3 00 . ... : 1-# 00 A A0C : ... .. . ...
ROW 19 : ... .. 6 ... ... : ... .. 7 S01 ... ... : ... .. . S00 : --- .. . ... : ... .. . ...
ROW 1A : ... .. . ... 461 : A#1 00 8 ... ... ... : C-3 00 . ... : ... .. . ... : ... .. . ...
ROW 1B : ... .. . ... ... : ... .. 7 S01 ... ... : ... .. . S00 : ... .. . ... : ... .. . ...
ROW 1C : ... .. 5 ... ... : A#1 00 8 ... ... ... : C-3 00 . ... : 6-# 00 8 A07 : ... .. . ...
ROW 1D : ... .. . ... ... : ... .. 7 S01 ... ... : ... .. . S00 : ... .. . A02 : ... .. . ...
ROW 1E : C#4 00 7 ... 400 : G#1 00 8 ... ... ... : C-3 00 . ... : 8-# 00 A A07 : ... .. . ...
ROW 1F : ... .. 6 ... ... : ... .. 7 ... ... ... : ... .. . S00 : ... .. . A04 : ... .. . ...
ROW 20 : ... .. . ... 461 : ... .. . ... ... ... : A#2 00 . ... : ... .. . A01 : ... .. . ...
ROW 21 : ... .. . ... ... : ... .. . S01 ... ... : ... .. . S00 : ... .. . ... : ... .. . ...
ROW 22 : ... .. 5 ... ... : G#1 00 8 ... ... ... : A#2 00 . ... : 1-# 00 A A0C : ... .. . ...
ROW 23 : ... .. . ... ... : ... .. 7 S01 ... ... : ... .. . S00 : --- .. . ... : ... .. . ...
ROW 24 : ... .. . ... ... : G#1 00 8 ... ... ... : A#2 00 . ... : 6-# 00 8 A07 : ... .. . ...
ROW 25 : ... .. . ... ... : ... .. 7 S01 ... ... : ... .. . S00 : ... .. . A02 : ... .. . ...
ROW 26 : ... .. . ... ... : G#1 00 8 ... ... ... : A#2 00 . ... : ... .. . ... : ... .. . ...
ROW 27 : ... .. . ... ... : ... .. 7 S01 ... ... : ... .. . S00 : ... .. . ... : ... .. . ...
ROW 28 : ... .. . ... ... : G#1 00 8 ... ... ... : D#3 00 . ... : 1-# 00 A A0C : ... .. . ...
ROW 29 : ... .. . ... ... : ... .. 7 S01 ... ... : ... .. . S00 : --- .. . ... : ... .. . ...
ROW 2A : C-4 00 7 ... 400 : G#1 00 8 ... ... ... : D#3 00 . ... : 1-# 00 A A0C : ... .. . ...
ROW 2B : ... .. 6 ... ... : ... .. 7 S01 ... ... : ... .. . S00 : --- .. . ... : ... .. . ...
ROW 2C : A#3 00 7 ... ... : G#1 00 8 ... ... ... : D#3 00 . ... : 6-# 00 8 A07 : ... .. . ...
ROW 2D : ... .. 6 ... ... : ... .. 7 S01 ... ... : ... .. . S00 : ... .. . A02 : ... .. . ...
ROW 2E : G#3 00 7 ... ... : G#1 00 8 ... ... ... : G#2 00 . ... : ... .. . ... : ... .. . ...
ROW 2F : ... .. 6 ... ... : ... .. 7 S01 ... ... : ... .. . ... : ... .. . ... : ... .. . ...
ROW 30 : G-3 00 7 ... ... : A#2 00 8 ... ... ... : ... .. . ... : 4-# 00 A A0C : ... .. . ...
ROW 31 : ... .. 6 ... ... : ... .. 7 S01 ... ... : ... .. . S00 : --- .. . ... : ... .. . ...
ROW 32 : G#3 00 7 ... ... : C-3 00 8 ... ... ... : G#2 00 . ... : 3-# 00 A A0C : ... .. . ...
ROW 33 : ... .. 6 ... ... : ... .. 7 S01 ... ... : ... .. . S00 : --- .. . ... : ... .. . ...
ROW 34 : A#3 00 7 ... ... : C#3 00 8 ... ... ... : G#2 00 . ... : ... .. . ... : ... .. . ...
ROW 35 : ... .. 6 ... ... : ... .. 7 S01 ... ... : ... .. . S00 : ... .. . ... : ... .. . ...
ROW 36 : D#3 00 7 ... ... : A#2 00 8 ... ... ... : G#2 00 . ... : 3-# 00 A A0C : ... .. . ...
ROW 37 : ... .. 6 ... ... : ... .. 7 ... ... ... : ... .. . S00 : --- .. . ... : ... .. . ...
ROW 38 : ... .. . ... 461 : ... .. . ... ... ... : G#2 00 . ... : 6-# 00 8 A07 : ... .. . ...
ROW 39 : ... .. . ... ... : ... .. . ... ... ... : ... .. . S00 : ... .. . A02 : ... .. . ...
ROW 3A : ... .. 5 ... ... : ... .. . ... ... ... : G#2 00 . ... : 3-# 00 A A0C : ... .. . ...
ROW 3B : ... .. . ... ... : ... .. . ... ... ... : ... .. . S00 : --- .. . ... : ... .. . ...
ROW 3C : ... .. . ... ... : ... .. . ... ... ... : G#2 00 . ... : 6-# 00 8 A07 : ... .. . ...
ROW 3D : ... .. . ... ... : ... .. . S01 ... ... : ... .. . S00 : ... .. . A02 : ... .. . ...
ROW 3E : ... .. . ... ... : ... .. . ... ... ... : G#2 00 . ... : 3-# 00 A A0C : ... .. . ...
ROW 3F : ... .. . ... ... : ... .. . ... ... ... : ... .. . S00 : --- .. . ... : ... .. . ...

PATTERN 09
ROW 00 : --- .. . ... 400 : C#4 00 7 V01 A04 ... : --- .. . ... : 8-# 00 A A07 : ... .. . ...
ROW 01 : ... .. . ... ... : ... .. . S04 ... ... : ... .. . ... : ... .. . A04 : ... .. . ...
ROW 02 : ... .. . ... ... : C#2 00 5 S03 V00 ... : G-3 00 . ... : ... .. . A01 : ... .. . ...
ROW 03 : ... .. . ... ... : ... .. . ... ... ... : ... .. . S00 : ... .. . ... : ... .. . ...
ROW 04 : G#3 00 7 ... ... : G#2 00 8 V00 A00 ... : F-3 00 . ... : 6-# 00 8 A07 : ... .. . ...
ROW 05 : ... .. 6 ... ... : ... .. 7 S04 ... ... : ... .. . S00 : ... .. . A02 : ... .. . ...
ROW 06 : ... .. . ... ... : C#2 00 5 S03 ... ... : D#3 00 . ... : ... .. . ... : ... .. . ...
ROW 07 : ... .. . ... ... : ... .. . ... ... ... : ... .. . S00 : ... .. . ... : ... .. . ...
ROW 08 : A#3 00 7 ... ... : G#2 00 8 ... ... ... : C#3 00 . ... : 1-# 00 A A0C : ... .. . ...
ROW 09 : ... .. 6 ... ... : ... .. 7 ... ... ... : ... .. . S00 : --- .. . ... : ... .. . ...
ROW 0A : C-4 00 7 ... ... : ... .. . ... ... ... : C-3 00 . ... : 1-# 00 A A0C : ... .. . ...
ROW 0B : ... .. 6 ... ... : ... .. . S04 ... ... : ... .. . S00 : --- .. . ... : ... .. . ...
ROW 0C : --- .. . ... ... : C#2 00 5 S03 ... ... : A#2 00 . ... : 6-# 00 8 A07 : ... .. . ...
ROW 0D : ... .. . ... ... : ... .. . ... ... ... : ... .. . S00 : ... .. . A02 : ... .. . ...
ROW 0E : A#3 00 7 ... ... : G#2 00 8 ... ... ... : D#3 00 . ... : 1-# 00 A A0C : ... .. . ...
ROW 0F : ... .. 6 ... ... : ... .. 7 ... ... ... : ... .. . S00 : --- .. . ... : ... .. . ...
ROW 10 : ... .. . ... 461 : ... .. . ... ... ... : ... .. . ... : ... .. . ... : ... .. . ...
ROW 11 : ... .. . ... ... : ... .. . S04 ... ... : ... .. . ... : ... .. . ... : ... .. . ...
ROW 12 : ... .. 5 ... ... : C#2 00 5 S03 ... ... : ... .. . ... : 1-# 00 A A0C : ... .. . ...
ROW 13 : ... .. . ... ... : ... .. . ... ... ... : ... .. . ... : --- .. . ... : ... .. . ...
ROW 14 : ... .. . ... ... : G#2 00 8 ... ... ... : ... .. . ... : 6-# 00 8 A07 : ... .. . ...
ROW 15 : ... .. . ... ... : ... .. 7 S04 ... ... : ... .. . ... : ... .. . A02 : ... .. . ...
ROW 16 : D#4 00 7 ... 400 : C#2 00 5 S03 ... ... : ... .. . ... : ... .. . ... : ... .. . ...
ROW 17 : ... .. 6 ... ... : ... .. . ... ... ... : ... .. . ... : ... .. . ... : ... .. . ...
ROW 18 : ... .. . ... ... : G#2 00 8 ... ... ... : ... .. . ... : 1-# 00 A A0C : ... .. . ...
ROW 19 : ... .. . ... ... : ... .. 7 ... ... ... : ... .. . ... : --- .. . ... : ... .. . ...
ROW 1A : C#4 00 7 ... ... : ... .. . ... ... ... : ... .. . ... : ... .. . ... : ... .. . ...
ROW 1B : ... .. 6 ... ... : ... .. . S04 ... ... : ... .. . ... : ... .. . ... : ... .. . ...
ROW 1C : C-4 00 7 ... ... : A#3 00 7 V01 A04 ... : ... .. . ... : 6-# 00 8 A07 : ... .. . ...
ROW 1D : ... .. 6 ... ... : ... .. . S04 ... ... : ... .. . ... : ... .. . A02 : ... .. . ...
ROW 1E : A#3 00 7 ... ... : C-4 00 7 ... ... ... : ... .. . ... : ... .. . ... : ... .. . ...
ROW 1F : ... .. 6 ... ... : ... .. . S04 ... ... : ... .. . ... : ... .. . ... : ... .. . ...
ROW 20 : C-4 00 7 ... ... : C#4 00 7 ... ... ... : ... .. . ... : 8-# 00 A A07 : ... .. . ...
ROW 21 : ... .. 6 ... ... : ... .. . S04 ... ... : ... .. . ... : ... .. . A04 : ... .. . ...
ROW 22 : ... .. . ... ... : A#1 00 5 S03 V00 ... : ... .. . ... : ... .. . A01 : ... .. . ...
ROW 23 : ... .. . ... ... : ... .. . ... ... ... : ... .. . ... : ... .. . ... : ... .. . ...
ROW 24 : A#3 00 7 ... ... : F-2 00 8 V00 A00 ... : ... .. . ... : 6-# 00 8 A07 : ... .. . ...
ROW 25 : ... .. 6 ... ... : ... .. 7 S04 ... ... : ... .. . ... : ... .. . A02 : ... .. . ...
ROW 26 : ... .. . ... ... : A#1 00 5 S03 ... ... : ... .. . ... : ... .. . ... : ... .. . ...
ROW 27 : ... .. . ... ... : ... .. . ... ... ... : ... .. . ... : ... .. . ... : ... .. . ...
ROW 28 : G#3 00 7 ... ... : F-2 00 8 ... ... ... : ... .. . ... : 1-# 00 A A0C : ... .. . ...
ROW 29 : ... .. 6 ... ... : ... .. 7 ... ... ... : ... .. . ... : --- .. . ... : ... .. . ...
ROW 2A : ... .. . ... ... : ... .. . ... ... ... : ... .. . ... : 1-# 00 A A0C : ... .. . ...
ROW 2B : ... .. . ... ... : ... .. . S04 ... ... : ... .. . ... : --- .. . ... : ... .. . ...
ROW 2C : A#3 00 7 ... ... : A#1 00 5 S03 ... ... : ... .. . ... : 6-# 00 8 A07 : ... .. . ...
ROW 2D : ... .. 6 ... ... : ... .. . ... ... ... : ... .. . ... : ... .. . A02 : ... .. . ...
ROW 2E : G-3 00 7 ... ... : D#2 00 8 ... ... ... : ... .. . ... : 1-# 00 A A0C : ... .. . ...
ROW 2F : ... .. 6 ... ... : ... .. 7 ... ... ... : ... .. . ... : --- .. . ... : ... .. . ...
ROW 30 : ... .. . ... 461 : ... .. . ... ... ... : ... .. . ... : ... .. . ... : ... .. . ...
ROW 31 : ... .. . ... ... : ... .. . S04 ... ... : ... .. . ... : ... .. . ... : ... .. . ...
ROW 32 : ... .. 5 ... ... : G#1 00 5 S03 ... ... : ... .. . ... : 1-# 00 A A0C : ... .. . ...
ROW 33 : ... .. . ... ... : ... .. . ... ... ... : ... .. . ... : --- .. . ... : ... .. . ...
ROW 34 : ... .. . ... ... : D#2 00 8 ... ... ... : ... .. . ... : 6-# 00 8 A07 : ... .. . ...
ROW 35 : ... .. . ... ... : ... .. 7 S04 ... ... : ... .. . ... : ... .. . A02 : ... .. . ...
ROW 36 : ... .. . ... ... : G#1 00 5 S03 ... ... : ... .. . ... : ... .. . ... : ... .. . ...
ROW 37 : ... .. . ... ... : ... .. . ... ... ... : ... .. . ... : ... .. . ... : ... .. . ...
ROW 38 : ... .. . ... ... : D#2 00 8 ... ... ... : ... .. . ... : 1-# 00 A A0C : ... .. . ...
ROW 39 : ... .. . ... ... : ... .. 7 ... ... ... : ... .. . ... : --- .. . ... : ... .. . ...
ROW 3A : D#3 00 7 ... 400 : ... .. . ... ... ... : ... .. . ... : ... .. . ... : ... .. . ...
ROW 3B : ... .. 6 ... ... : ... .. . S04 ... ... : ... .. . ... : ... .. . ... : ... .. . ...
ROW 3C : F-3 00 7 ... ... : G#1 00 5 S03 ... ... : ... .. . ... : 6-# 00 8 A07 : ... .. . ...
ROW 3D : ... .. 6 ... ... : ... .. . ... ... ... : ... .. . ... : ... .. . A02 : ... .. . ...
ROW 3E : G-3 00 7 ... ... : G#1 00 5 S03 ... ... : ... .. . ... : ... .. . ... : ... .. . ...
ROW 3F : ... .. 6 ... ... : ... .. . ... ... ... : ... .. . ... : ... .. . ... : ... .. . ...

PATTERN 0A
ROW 00 : F-3 00 7 ... ... : ... .. . ... ... ... : ... .. . ... : 1-# 00 A A0C : ... .. . ...
ROW 01 : ... .. 6 ... ... : ... .. . ... ... ... : ... .. . ... : --- .. . ... : ... .. . ...
ROW 02 : ... .. . ... 461 : ... .. . ... ... ... : ... .. . ... : ... .. . ... : ... .. . ...
ROW 03 : ... .. . ... ... : ... .. . ... ... ... : ... .. . ... : ... .. . ... : ... .. . ...
ROW 04 : ... .. 5 ... ... : ... .. . ... ... ... : ... .. . ... : 6-# 00 8 A07 : ... .. . ...
ROW 05 : ... .. . ... ... : ... .. . ... ... ... : ... .. . ... : ... .. . A02 : ... .. . ...
ROW 06 : G-3 00 7 ... 400 : ... .. . ... ... ... : ... .. . ... : ... .. . ... : ... .. . ...
ROW 07 : ... .. 6 ... ... : ... .. . ... ... ... : ... .. . ... : ... .. . ... : ... .. . ...
ROW 08 : ... .. . ... 461 : ... .. . ... ... ... : ... .. . ... : 1-# 00 A A0C : ... .. . ...
ROW 09 : ... .. . ... ... : ... .. . ... ... ... : ... .. . ... : --- .. . ... : ... .. . ...
ROW 0A : ... .. 5 ... ... : ... .. . ... ... ... : ... .. . ... : 1-# 00 A A0C : ... .. . ...
ROW 0B : ... .. . ... ... : ... .. . ... ... ... : ... .. . ... : --- .. . ... : ... .. . ...
ROW 0C : G#3 00 7 ... 400 : ... .. . ... ... ... : ... .. . ... : 6-# 00 8 A07 : ... .. . ...
ROW 0D : ... .. 5 ... ... : ... .. . ... ... ... : ... .. . ... : ... .. . A02 : ... .. . ...
ROW 0E : G#3 00 7 ... ... : ... .. . ... ... ... : ... .. . ... : 1-# 00 A A0C : ... .. . ...
ROW 0F : ... .. 6 ... ... : ... .. . ... ... ... : ... .. . ... : --- .. . ... : ... .. . ...
ROW 10 : ... .. . ... 461 : ... .. . ... ... ... : ... .. . ... : ... .. . ... : ... .. . ...
ROW 11 : ... .. . ... ... : ... .. . ... ... ... : ... .. . ... : ... .. . ... : ... .. . ...
ROW 12 : ... .. 5 ... ... : ... .. . ... ... ... : ... .. . ... : 1-# 00 A A0C : ... .. . ...
ROW 13 : ... .. . ... ... : ... .. . ... ... ... : ... .. . ... : --- .. . ... : ... .. . ...
ROW 14 : ... .. . ... ... : ... .. . ... ... ... : ... .. . ... : 6-# 00 8 A07 : ... .. . ...
ROW 15 : ... .. . ... ... : ... .. . ... ... ... : ... .. . ... : ... .. . A02 : ... .. . ...
ROW 16 : D#3 00 7 ... 400 : ... .. . ... ... ... : ... .. . ... : ... .. . ... : ... .. . ...
ROW 17 : ... .. 6 ... ... : ... .. . ... ... ... : ... .. . ... : ... .. . ... : ... .. . ...
ROW 18 : ... .. . ... 461 : ... .. . ... ... ... : ... .. . ... : 1-# 00 A A0C : ... .. . ...
ROW 19 : ... .. . ... ... : ... .. . ... ... ... : ... .. . ... : --- .. . ... : ... .. . ...
ROW 1A : ... .. 5 ... ... : ... .. . ... ... ... : ... .. . ... : ... .. . ... : ... .. . ...
ROW 1B : ... .. . ... ... : ... .. . ... ... ... : ... .. . ... : ... .. . ... : ... .. . ...
ROW 1C : ... .. . ... ... : ... .. . ... ... ... : ... .. . ... : 6-# 00 8 A07 : ... .. . ...
ROW 1D : ... .. . ... ... : ... .. . ... ... ... : ... .. . ... : ... .. . A02 : ... .. . ...
ROW 1E : ... .. . ... ... : ... .. . ... ... ... : ... .. . ... : ... .. . ... : ... .. . ...
ROW 1F : ... .. . ... ... : ... .. . ... ... ... : ... .. . ... : ... .. . ... : ... .. . ...
ROW 20 : C#4 00 7 ... 400 : ... .. . ... ... ... : ... .. . ... : 1-# 00 A A0C : ... .. . ...
ROW 21 : ... .. 6 ... ... : ... .. . ... ... ... : ... .. . ... : --- .. . ... : ... .. . ...
ROW 22 : ... .. . ... ... : ... .. . ... ... ... : ... .. . ... : ... .. . ... : ... .. . ...
ROW 23 : ... .. . ... ... : ... .. . ... ... ... : ... .. . ... : ... .. . ... : ... .. . ...
ROW 24 : C-4 00 7 ... ... : ... .. . ... ... ... : ... .. . ... : 6-# 00 8 A07 : ... .. . ...
ROW 25 : ... .. 6 ... ... : ... .. . ... ... ... : ... .. . ... : ... .. . A02 : ... .. . ...
ROW 26 : ... .. . ... ... : ... .. . ... ... ... : ... .. . ... : ... .. . ... : ... .. . ...
ROW 27 : ... .. . ... ... : ... .. . ... ... ... : ... .. . ... : ... .. . ... : ... .. . ...
ROW 28 : A#3 00 7 ... ... : ... .. . ... ... ... : ... .. . ... : 1-# 00 A A0C : ... .. . ...
ROW 29 : ... .. 6 ... ... : ... .. . ... ... ... : ... .. . ... : --- .. . ... : ... .. . ...
ROW 2A : G#3 00 7 ... ... : ... .. . ... ... ... : ... .. . ... : 1-# 00 A A0C : ... .. . ...
ROW 2B : ... .. 6 ... ... : ... .. . ... ... ... : ... .. . ... : --- .. . ... : ... .. . ...
ROW 2C : --- .. . ... ... : ... .. . ... ... ... : ... .. . ... : 6-# 00 8 A07 : ... .. . ...
ROW 2D : ... .. . ... ... : ... .. . ... ... ... : ... .. . ... : ... .. . A02 : ... .. . ...
ROW 2E : A#3 00 7 ... ... : ... .. . ... ... ... : ... .. . ... : 1-# 00 A A0C : ... .. . ...
ROW 2F : ... .. 6 ... ... : ... .. . ... ... ... : ... .. . ... : --- .. . ... : ... .. . ...
ROW 30 : ... .. . ... 461 : ... .. . ... ... ... : ... .. . ... : ... .. . ... : ... .. . ...
ROW 31 : ... .. . ... ... : ... .. . ... ... ... : ... .. . ... : ... .. . ... : ... .. . ...
ROW 32 : ... .. 5 ... ... : ... .. . ... ... ... : ... .. . ... : 1-# 00 A A0C : ... .. . ...
ROW 33 : ... .. . ... ... : ... .. . ... ... ... : ... .. . ... : --- .. . ... : ... .. . ...
ROW 34 : ... .. . ... ... : ... .. . ... ... ... : ... .. . ... : 6-# 00 8 A07 : ... .. . ...
ROW 35 : ... .. . ... ... : ... .. . ... ... ... : ... .. . ... : ... .. . A02 : ... .. . ...
ROW 36 : ... .. . ... ... : ... .. . ... ... ... : ... .. . ... : ... .. . ... : ... .. . ...
ROW 37 : ... .. . ... ... : ... .. . ... ... ... : ... .. . ... : ... .. . ... : ... .. . ...
ROW 38 : ... .. . ... ... : ... .. . ... ... ... : ... .. . ... : 1-# 00 A A0C : ... .. . ...
ROW 39 : ... .. . ... ... : ... .. . ... ... ... : ... .. . ... : --- .. . ... : ... .. . ...
ROW 3A : ... .. . ... ... : ... .. . ... ... ... : ... .. . ... : ... .. . ... : ... .. . ...
ROW 3B : ... .. . ... ... : ... .. . ... ... ... : ... .. . ... : ... .. . ... : ... .. . ...
ROW 3C : C-4 00 7 ... 400 : ... .. . ... ... ... : ... .. . ... : 6-# 00 8 A07 : ... .. . ...
ROW 3D : ... .. 6 ... ... : ... .. . ... ... ... : ... .. . ... : ... .. . A02 : ... .. . ...
ROW 3E : A#3 00 7 ... ... : ... .. . ... ... ... : ... .. . ... : ... .. . ... : ... .. . ...
ROW 3F : ... .. 6 ... ... : ... .. . ... ... ... : ... .. . ... : ... .. . ... : ... .. . ...

PATTERN 0B
ROW 00 : G#3 00 7 ... ... : ... .. . ... ... ... : ... .. . ... : 8-# 00 A A07 : ... .. . ...
ROW 01 : ... .. 6 ... ... : ... .. . ... ... ... : ... .. . ... : ... .. . A04 : ... .. . ...
ROW 02 : ... .. . ... 461 : ... .. . ... ... ... : ... .. . ... : ... .. . A01 : ... .. . ...
ROW 03 : ... .. . ... ... : ... .. . ... ... ... : ... .. . ... : ... .. . ... : ... .. . ...
ROW 04 : ... .. 5 ... ... : ... .. . ... ... ... : ... .. . ... : 6-# 00 8 A07 : ... .. . ...
ROW 05 : ... .. . ... ... : ... .. . ... ... ... : ... .. . ... : ... .. . A02 : ... .. . ...
ROW 06 : D#3 00 7 ... 400 : ... .. . ... ... ... : ... .. . ... : ... .. . ... : ... .. . ...
ROW 07 : ... .. 5 ... ... : ... .. . ... ... ... : ... .. . ... : ... .. . ... : ... .. . ...
ROW 08 : D#3 00 7 ... ... : ... .. . ... ... ... : ... .. . ... : 1-# 00 A A0C : ... .. . ...
ROW 09 : ... .. 6 ... ... : ... .. . ... ... ... : ... .. . ... : --- .. . ... : ... .. . ...
ROW 0A : ... .. . ... 461 : ... .. . ... ... ... : ... .. . ... : 1-# 00 A A0C : ... .. . ...
ROW 0B : ... .. . ... ... : ... .. . ... ... ... : ... .. . ... : --- .. . ... : ... .. . ...
ROW 0C : ... .. 5 ... ... : ... .. . ... ... ... : ... .. . ... : 6-# 00 8 A07 : ... .. . ...
ROW 0D : ... .. . ... ... : ... .. . ... ... ... : ... .. . ... : ... .. . A02 : ... .. . ...
ROW 0E : A#3 00 7 ... 400 : ... .. . ... ... ... : ... .. . ... : 1-# 00 A A0C : ... .. . ...
ROW 0F : ... .. 6 ... ... : ... .. . ... ... ... : ... .. . ... : --- .. . ... : ... .. . ...
ROW 10 : ... .. . ... 461 : ... .. . ... ... ... : ... .. . ... : ... .. . ... : ... .. . ...
ROW 11 : ... .. . ... ... : ... .. . ... ... ... : ... .. . ... : ... .. . ... : ... .. . ...
ROW 12 : ... .. 5 ... ... : ... .. . ... ... ... : ... .. . ... : 1-# 00 A A0C : ... .. . ...
ROW 13 : ... .. . ... ... : ... .. . ... ... ... : ... .. . ... : --- .. . ... : ... .. . ...
ROW 14 : ... .. . ... ... : ... .. . ... ... ... : ... .. . ... : 6-# 00 8 A07 : ... .. . ...
ROW 15 : ... .. . ... ... : ... .. . ... ... ... : ... .. . ... : ... .. . A02 : ... .. . ...
ROW 16 : D#3 00 7 ... 400 : ... .. . ... ... ... : ... .. . ... : ... .. . ... : ... .. . ...
ROW 17 : ... .. 5 ... ... : ... .. . ... ... ... : ... .. . ... : ... .. . ... : ... .. . ...
ROW 18 : D#3 00 7 ... ... : ... .. . ... ... ... : ... .. . ... : 1-# 00 A A0C : ... .. . ...
ROW 19 : ... .. 6 ... ... : ... .. . ... ... ... : ... .. . ... : --- .. . ... : ... .. . ...
ROW 1A : ... .. . ... 461 : ... .. . ... ... ... : ... .. . ... : ... .. . ... : ... .. . ...
ROW 1B : ... .. . ... ... : ... .. . ... ... ... : ... .. . ... : ... .. . ... : ... .. . ...
ROW 1C : ... .. 5 ... ... : ... .. . ... ... ... : ... .. . ... : 6-# 00 8 A07 : ... .. . ...
ROW 1D : ... .. . ... ... : ... .. . ... ... ... : ... .. . ... : ... .. . A02 : ... .. . ...
ROW 1E : ... .. . ... ... : ... .. . ... ... ... : ... .. . ... : ... .. . ... : ... .. . ...
ROW 1F : ... .. . ... ... : ... .. . ... ... ... : ... .. . ... : ... .. . ... : ... .. . ...
ROW 20 : C-4 00 7 ... 400 : ... .. . ... ... ... : ... .. . ... : 1-# 00 A A0C : ... .. . ...
ROW 21 : ... .. 6 ... ... : ... .. . ... ... ... : ... .. . ... : --- .. . ... : ... .. . ...
ROW 22 : ... .. . ... 461 : ... .. . ... ... ... : ... .. . ... : ... .. . ... : ... .. . ...
ROW 23 : ... .. . ... ... : ... .. . ... ... ... : ... .. . ... : ... .. . ... : ... .. . ...
ROW 24 : ... .. 5 ... ... : ... .. . ... ... ... : ... .. . ... : 6-# 00 8 A07 : ... .. . ...
ROW 25 : ... .. . ... ... : ... .. . ... ... ... : ... .. . ... : ... .. . A02 : ... .. . ...
ROW 26 : ... .. . ... ... : ... .. . ... ... ... : ... .. . ... : ... .. . ... : ... .. . ...
ROW 27 : ... .. . ... ... : ... .. . ... ... ... : ... .. . ... : ... .. . ... : ... .. . ...
ROW 28 : C-4 00 7 ... 400 : ... .. . ... ... ... : ... .. . ... : 1-# 00 A A0C : ... .. . ...
ROW 29 : ... .. 6 ... ... : ... .. . ... ... ... : ... .. . ... : --- .. . ... : ... .. . ...
ROW 2A : C#4 00 7 ... ... : ... .. . ... ... ... : ... .. . ... : 1-# 00 A A0C : ... .. . ...
ROW 2B : ... .. 6 ... ... : ... .. . ... ... ... : ... .. . ... : --- .. . ... : ... .. . ...
ROW 2C : D#4 00 7 ... ... : ... .. . ... ... ... : ... .. . ... : 6-# 00 8 A07 : ... .. . ...
ROW 2D : ... .. 6 ... ... : ... .. . ... ... ... : ... .. . ... : ... .. . A02 : ... .. . ...
ROW 2E : F-4 00 7 ... ... : ... .. . ... ... ... : ... .. . ... : 1-# 00 A A0C : ... .. . ...
ROW 2F : ... .. 6 ... ... : ... .. . ... ... ... : ... .. . ... : --- .. . ... : ... .. . ...
ROW 30 : ... .. . ... 461 : ... .. . ... ... ... : ... .. . ... : ... .. . ... : ... .. . ...
ROW 31 : ... .. . ... ... : ... .. . ... ... ... : ... .. . ... : ... .. . ... : ... .. . ...
ROW 32 : ... .. 5 ... ... : ... .. . ... ... ... : ... .. . ... : 1-# 00 A A0C : ... .. . ...
ROW 33 : ... .. . ... ... : ... .. . ... ... ... : ... .. . ... : --- .. . ... : ... .. . ...
ROW 34 : D#4 00 7 ... 400 : ... .. . ... ... ... : ... .. . ... : 6-# 00 8 A07 : ... .. . ...
ROW 35 : ... .. 6 ... ... : ... .. . ... ... ... : ... .. . ... : ... .. . A02 : ... .. . ...
ROW 36 : C#4 00 7 ... ... : ... .. . ... ... ... : ... .. . ... : ... .. . ... : ... .. . ...
ROW 37 : ... .. 6 ... ... : ... .. . ... ... ... : ... .. . ... : ... .. . ... : ... .. . ...
ROW 38 : --- .. . ... ... : ... .. . ... ... ... : ... .. . ... : 1-# 00 A A0C : ... .. . ...
ROW 39 : ... .. . ... ... : ... .. . ... ... ... : ... .. . ... : --- .. . ... : ... .. . ...
ROW 3A : C-4 00 7 ... ... : ... .. . ... ... ... : ... .. . ... : ... .. . ... : ... .. . ...
ROW 3B : ... .. 6 ... ... : ... .. . ... ... ... : ... .. . ... : ... .. . ... : ... .. . ...
ROW 3C : A#3 00 7 ... ... : ... .. . ... ... ... : ... .. . ... : 6-# 00 8 A07 : ... .. . ...
ROW 3D : ... .. 6 ... ... : ... .. . ... ... ... : ... .. . ... : ... .. . A02 : ... .. . ...
ROW 3E : G#3 00 7 ... ... : ... .. . ... ... ... : ... .. . ... : ... .. . ... : ... .. . ...
ROW 3F : ... .. 6 ... ... : ... .. . ... ... ... : ... .. . ... : ... .. . ... : ... .. . ...

PATTERN 0C
ROW 00 : F-3 00 7 ... ... : ... .. . ... ... ... : ... .. . ... : 1-# 00 A A0C : ... .. . ...
ROW 01 : ... .. 6 ... ... : ... .. . ... ... ... : ... .. . ... : --- .. . ... : ... .. . ...
ROW 02 : ... .. . ... 461 : ... .. . ... ... ... : ... .. . ... : ... .. . ... : ... .. . ...
ROW 03 : ... .. . ... ... : ... .. . ... ... ... : ... .. . ... : ... .. . ... : ... .. . ...
ROW 04 : ... .. 5 ... ... : ... .. . ... ... ... : ... .. . ... : 6-# 00 8 A07 : ... .. . ...
ROW 05 : ... .. . ... ... : ... .. . ... ... ... : ... .. . ... : ... .. . A02 : ... .. . ...
ROW 06 : G-3 00 7 ... 400 : ... .. . ... ... ... : ... .. . ... : ... .. . ... : ... .. . ...
ROW 07 : ... .. 6 ... ... : ... .. . ... ... ... : ... .. . ... : ... .. . ... : ... .. . ...
ROW 08 : ... .. . ... 461 : ... .. . ... ... ... : ... .. . ... : 1-# 00 A A0C : ... .. . ...
ROW 09 : ... .. . ... ... : ... .. . ... ... ... : ... .. . ... : --- .. . ... : ... .. . ...
ROW 0A : ... .. 5 ... ... : ... .. . ... ... ... : ... .. . ... : 1-# 00 A A0C : ... .. . ...
ROW 0B : ... .. . ... ... : ... .. . ... ... ... : ... .. . ... : --- .. . ... : ... .. . ...
ROW 0C : G#3 00 7 ... 400 : ... .. . ... ... ... : ... .. . ... : 6-# 00 8 A07 : ... .. . ...
ROW 0D : ... .. 5 ... ... : ... .. . ... ... ... : ... .. . ... : ... .. . A02 : ... .. . ...
ROW 0E : G#3 00 7 ... ... : ... .. . ... ... ... : ... .. . ... : 1-# 00 A A0C : ... .. . ...
ROW 0F : ... .. 6 ... ... : ... .. . ... ... ... : ... .. . ... : --- .. . ... : ... .. . ...
ROW 10 : ... .. . ... 461 : ... .. . ... ... ... : ... .. . ... : ... .. . ... : ... .. . ...
ROW 11 : ... .. . ... ... : ... .. . ... ... ... : ... .. . ... : ... .. . ... : ... .. . ...
ROW 12 : ... .. 5 ... ... : ... .. . ... ... ... : ... .. . ... : 1-# 00 A A0C : ... .. . ...
ROW 13 : ... .. . ... ... : ... .. . ... ... ... : ... .. . ... : --- .. . ... : ... .. . ...
ROW 14 : ... .. . ... ... : ... .. . ... ... ... : ... .. . ... : 6-# 00 8 A07 : ... .. . ...
ROW 15 : ... .. . ... ... : ... .. . ... ... ... : ... .. . ... : ... .. . A02 : ... .. . ...
ROW 16 : D#4 00 7 ... 400 : ... .. . ... ... ... : ... .. . ... : ... .. . ... : ... .. . ...
ROW 17 : ... .. 6 ... ... : ... .. . ... ... ... : ... .. . ... : ... .. . ... : ... .. . ...
ROW 18 : ... .. . ... ... : ... .. . ... ... ... : ... .. . ... : 1-# 00 A A0C : ... .. . ...
ROW 19 : ... .. . ... ... : ... .. . ... ... ... : ... .. . ... : --- .. . ... : ... .. . ...
ROW 1A : C#4 00 7 ... ... : ... .. . ... ... ... : ... .. . ... : ... .. . ... : ... .. . ...
ROW 1B : ... .. 6 ... ... : ... .. . ... ... ... : ... .. . ... : ... .. . ... : ... .. . ...
ROW 1C : C-4 00 7 ... ... : ... .. . ... ... ... : ... .. . ... : 6-# 00 8 A07 : ... .. . ...
ROW 1D : ... .. 6 ... ... : ... .. . ... ... ... : ... .. . ... : ... .. . A02 : ... .. . ...
ROW 1E : A#3 00 7 ... ... : ... .. . ... ... ... : ... .. . ... : ... .. . ... : ... .. . ...
ROW 1F : ... .. 6 ... ... : ... .. . ... ... ... : ... .. . ... : ... .. . ... : ... .. . ...
ROW 20 : C-4 00 7 ... ... : ... .. . ... ... ... : ... .. . ... : 1-# 00 A A0C : ... .. . ...
ROW 21 : ... .. 6 ... ... : ... .. . ... ... ... : ... .. . ... : --- .. . ... : ... .. . ...
ROW 22 : ... .. . ... ... : ... .. . ... ... ... : ... .. . ... : ... .. . ... : ... .. . ...
ROW 23 : ... .. . ... ... : ... .. . ... ... ... : ... .. . ... : ... .. . ... : ... .. . ...
ROW 24 : A#3 00 7 ... ... : ... .. . ... ... ... : ... .. . ... : 6-# 00 8 A07 : ... .. . ...
ROW 25 : ... .. 6 ... ... : ... .. . ... ... ... : ... .. . ... : ... .. . A02 : ... .. . ...
ROW 26 : ... .. . ... ... : ... .. . ... ... ... : ... .. . ... : ... .. . ... : ... .. . ...
ROW 27 : ... .. . ... ... : ... .. . ... ... ... : ... .. . ... : ... .. . ... : ... .. . ...
ROW 28 : G#3 00 7 ... ... : ... .. . ... ... ... : ... .. . ... : 1-# 00 A A0C : ... .. . ...
ROW 29 : ... .. 6 ... ... : ... .. . ... ... ... : ... .. . ... : --- .. . ... : ... .. . ...
ROW 2A : G-3 00 7 ... ... : ... .. . ... ... ... : ... .. . ... : 1-# 00 A A0C : ... .. . ...
ROW 2B : ... .. 6 ... ... : ... .. . ... ... ... : ... .. . ... : --- .. . ... : ... .. . ...
ROW 2C : --- .. . ... ... : ... .. . ... ... ... : ... .. . ... : 6-# 00 8 A07 : ... .. . ...
ROW 2D : ... .. . ... ... : ... .. . ... ... ... : ... .. . ... : ... .. . A02 : ... .. . ...
ROW 2E : G#3 00 7 ... ... : ... .. . ... ... ... : ... .. . ... : 8-# 00 A A07 : ... .. . ...
ROW 2F : ... .. 6 ... ... : ... .. . ... ... ... : ... .. . ... : ... .. . A04 : ... .. . ...
ROW 30 : ... .. . ... 461 : ... .. . ... ... ... : ... .. . ... : ... .. . A01 : ... .. . ...
ROW 31 : ... .. . ... ... : ... .. . ... ... ... : ... .. . ... : ... .. . ... : ... .. . ...
ROW 32 : ... .. 5 ... ... : ... .. . ... ... ... : ... .. . ... : 1-# 00 A A0C : ... .. . ...
ROW 33 : ... .. . ... ... : ... .. . ... ... ... : ... .. . ... : --- .. . ... : ... .. . ...
ROW 34 : ... .. . ... ... : ... .. . ... ... ... : ... .. . ... : 8-# 00 A A07 : ... .. . ...
ROW 35 : ... .. . ... ... : ... .. . ... ... ... : ... .. . ... : ... .. . A04 : ... .. . ...
ROW 36 : ... .. . ... ... : ... .. . ... ... ... : ... .. . ... : ... .. . A01 : ... .. . ...
ROW 37 : ... .. . ... ... : ... .. . ... ... ... : ... .. . ... : ... .. . ... : ... .. . ...
ROW 38 : ... .. . ... ... : ... .. . ... ... ... : ... .. . ... : 1-# 00 A A0C : ... .. . ...
ROW 39 : ... .. . ... ... : ... .. . ... ... ... : ... .. . ... : --- .. . ... : ... .. . ...
ROW 3A : ... .. . ... ... : ... .. . ... ... ... : ... .. . ... : ... .. . ... : ... .. . ...
ROW 3B : ... .. . ... ... : ... .. . ... ... ... : ... .. . ... : ... .. . ... : ... .. . ...
ROW 3C : ... .. . ... ... : ... .. . ... ... ... : ... .. . ... : 6-# 00 8 A07 : ... .. . ...
ROW 3D : ... .. . ... ... : ... .. . ... ... ... : ... .. . ... : ... .. . A02 : ... .. . ...
ROW 3E : ... .. . ... ... : ... .. . ... ... ... : ... .. . ... : ... .. . ... : ... .. . ...
ROW 3F : ... .. . ... ... : ... .. . ... ... ... : ... .. . ... : ... .. . ... : ... .. . ...

PATTERN 0D
ROW 00 : --- .. . ... ... : ... .. . ... ... ... : ... .. . ... : 1-# 00 A A0C : ... .. . ...
ROW 01 : ... .. . ... ... : ... .. . ... ... ... : ... .. . ... : --- .. . ... : ... .. . ...
ROW 02 : G-3 00 7 ... 400 : A#2 00 8 ... ... ... : ... .. . ... : 6-# 00 8 A07 : ... .. . ...
ROW 03 : ... .. 6 ... ... : ... .. 7 S04 ... ... : ... .. . ... : ... .. . A02 : ... .. . ...
ROW 04 : F-3 00 7 ... ... : G#2 00 8 ... ... ... : ... .. . ... : 1-# 00 A A0C : ... .. . ...
ROW 05 : ... .. 6 ... ... : ... .. 7 S04 ... ... : ... .. . ... : --- .. . ... : ... .. . ...
ROW 06 : D#3 00 7 ... ... : G-2 00 8 ... ... ... : ... .. . ... : ... .. . ... : ... .. . ...
ROW 07 : ... .. 6 ... ... : ... .. 7 S04 ... ... : ... .. . ... : ... .. . ... : ... .. . ...
ROW 08 : C#3 00 7 ... ... : F-2 00 8 ... ... ... : ... .. . ... : 6-# 00 8 A07 : ... .. . ...
ROW 09 : ... .. 6 ... ... : ... .. 7 S04 ... ... : ... .. . ... : ... .. . A02 : ... .. . ...
ROW 0A : C-3 00 7 ... ... : D#2 00 8 ... ... ... : ... .. . ... : 3-# 00 A A0C : ... .. . ...
ROW 0B : ... .. 6 ... ... : ... .. 7 S04 ... ... : ... .. . ... : --- .. . ... : ... .. . ...
ROW 0C : A#2 00 7 ... ... : C#2 00 8 ... ... ... : ... .. . ... : 6-# 00 8 A07 : ... .. . ...
ROW 0D : ... .. 6 ... ... : ... .. 7 S04 ... ... : ... .. . ... : ... .. . A02 : ... .. . ...
ROW 0E : D#3 00 7 ... ... : G-2 00 8 ... ... ... : ... .. . ... : 3-# 00 A A0C : ... .. . ...
ROW 0F : ... .. 6 ... ... : ... .. 7 B03 S04 ... : ... .. . ... : --- .. . ... : ... .. . ...
ROW 10 : ... .. . ... ... : ... .. . ... ... ... : ... .. . ... : ... .. . ... : ... .. . ...
ROW 11 : ... .. . ... ... : ... .. . ... ... ... : ... .. . ... : ... .. . ... : ... .. . ...
ROW 12 : ... .. . ... ... : ... .. . ... ... ... : ... .. . ... : ... .. . ... : ... .. . ...
ROW 13 : ... .. . ... ... : ... .. . ... ... ... : ... .. . ... : ... .. . ... : ... .. . ...
ROW 14 : ... .. . ... ... : ... .. . ... ... ... : ... .. . ... : ... .. . ... : ... .. . ...
ROW 15 : ... .. . ... ... : ... .. . ... ... ... : ... .. . ... : ... .. . ... : ... .. . ...
ROW 16 : ... .. . ... ... : ... .. . ... ... ... : ... .. . ... : ... .. . ... : ... .. . ...
ROW 17 : ... .. . ... ... : ... .. . ... ... ... : ... .. . ... : ... .. . ... : ... .. . ...
ROW 18 : ... .. . ... ... : ... .. . ... ... ... : ... .. . ... : ... .. . ... : ... .. . ...
ROW 19 : ... .. . ... ... : ... .. . ... ... ... : ... .. . ... : ... .. . ... : ... .. . ...
ROW 1A : ... .. . ... ... : ... .. . ... ... ... : ... .. . ... : ... .. . ... : ... .. . ...
ROW 1B : ... .. . ... ... : ... .. . ... ... ... : ... .. . ... : ... .. . ... : ... .. . ...
ROW 1C : ... .. . ... ... : ... .. . ... ... ... : ... .. . ... : ... .. . ... : ... .. . ...
ROW 1D : ... .. . ... ... : ... .. . ... ... ... : ... .. . ... : ... .. . ... : ... .. . ...
ROW 1E : ... .. . ... ... : ... .. . ... ... ... : ... .. . ... : ... .. . ... : ... .. . ...
ROW 1F : ... .. . ... ... : ... .. . ... ... ... : ... .. . ... : ... .. . ... : ... .. . ...
ROW 20 : ... .. . ... ... : ... .. . ... ... ... : ... .. . ... : ... .. . ... : ... .. . ...
ROW 21 : ... .. . ... ... : ... .. . ... ... ... : ... .. . ... : ... .. . ... : ... .. . ...
ROW 22 : ... .. . ... ... : ... .. . ... ... ... : ... .. . ... : ... .. . ... : ... .. . ...
ROW 23 : ... .. . ... ... : ... .. . ... ... ... : ... .. . ... : ... .. . ... : ... .. . ...
ROW 24 : ... .. . ... ... : ... .. . ... ... ... : ... .. . ... : ... .. . ... : ... .. . ...
ROW 25 : ... .. . ... ... : ... .. . ... ... ... : ... .. . ... : ... .. . ... : ... .. . ...
ROW 26 : ... .. . ... ... : ... .. . ... ... ... : ... .. . ... : ... .. . ... : ... .. . ...
ROW 27 : ... .. . ... ... : ... .. . ... ... ... : ... .. . ... : ... .. . ... : ... .. . ...
ROW 28 : ... .. . ... ... : ... .. . ... ... ... : ... .. . ... : ... .. . ... : ... .. . ...
ROW 29 : ... .. . ... ... : ... .. . ... ... ... : ... .. . ... : ... .. . ... : ... .. . ...
ROW 2A : ... .. . ... ... : ... .. . ... ... ... : ... .. . ... : ... .. . ... : ... .. . ...
ROW 2B : ... .. . ... ... : ... .. . ... ... ... : ... .. . ... : ... .. . ... : ... .. . ...
ROW 2C : ... .. . ... ... : ... .. . ... ... ... : ... .. . ... : ... .. . ... : ... .. . ...
ROW 2D : ... .. . ... ... : ... .. . ... ... ... : ... .. . ... : ... .. . ... : ... .. . ...
ROW 2E : ... .. . ... ... : ... .. . ... ... ... : ... .. . ... : ... .. . ... : ... .. . ...
ROW 2F : ... .. . ... ... : ... .. . ... ... ... : ... .. . ... : ... .. . ... : ... .. . ...
ROW 30 : ... .. . ... ... : ... .. . ... ... ... : ... .. . ... : ... .. . ... : ... .. . ...
ROW 31 : ... .. . ... ... : ... .. . ... ... ... : ... .. . ... : ... .. . ... : ... .. . ...
ROW 32 : ... .. . ... ... : ... .. . ... ... ... : ... .. . ... : ... .. . ... : ... .. . ...
ROW 33 : ... .. . ... ... : ... .. . ... ... ... : ... .. . ... : ... .. . ... : ... .. . ...
ROW 34 : ... .. . ... ... : ... .. . ... ... ... : ... .. . ... : ... .. . ... : ... .. . ...
ROW 35 : ... .. . ... ... : ... .. . ... ... ... : ... .. . ... : ... .. . ... : ... .. . ...
ROW 36 : ... .. . ... ... : ... .. . ... ... ... : ... .. . ... : ... .. . ... : ... .. . ...
ROW 37 : ... .. . ... ... : ... .. . ... ... ... : ... .. . ... : ... .. . ... : ... .. . ...
ROW 38 : ... .. . ... ... : ... .. . ... ... ... : ... .. . ... : ... .. . ... : ... .. . ...
ROW 39 : ... .. . ... ... : ... .. . ... ... ... : ... .. . ... : ... .. . ... : ... .. . ...
ROW 3A : ... .. . ... ... : ... .. . ... ... ... : ... .. . ... : ... .. . ... : ... .. . ...
ROW 3B : ... .. . ... ... : ... .. . ... ... ... : ... .. . ... : ... .. . ... : ... .. . ...
ROW 3C : ... .. . ... ... : ... .. . ... ... ... : ... .. . ... : ... .. . ... : ... .. . ...
ROW 3D : ... .. . ... ... : ... .. . ... ... ... : ... .. . ... : ... .. . ... : ... .. . ...
ROW 3E : ... .. . ... ... : ... .. . ... ... ... : ... .. . ... : ... .. . ... : ... .. . ...
ROW 3F : ... .. . ... ... : ... .. . ... ... ... : ... .. . ... : ... .. . ... : ... .. . ...

# End of export
